<svg xmlns="http://www.w3.org/2000/svg" viewBox="0 0 800 800"><defs><style>.cls-1{fill:#e2d8e1;}</style></defs><g id="clean"><path class="cls-1" d="M495.76,621.08l.59.47a4.73,4.73,0,0,0,5.45.7,25.15,25.15,0,0,0,8-7.27c2.17-2.87,3.88-6.46,3.71-10.13a13.93,13.93,0,0,0-16.41-13.2,17,17,0,0,0-9.92,6.75c-2,2.89-2.68,6.92-2.92,10.36a16.47,16.47,0,0,0,2.29,8.92,14,14,0,0,0,7.52,6.73c7.51,2.54,13.77-5.66,15.68-11.9a15,15,0,0,0-.68-11.07,11.66,11.66,0,0,0-7.13-6c-5.29-1.33-10.08,2.36-12.18,7-2,4.47-2.76,10.5,1.13,14.25a9.64,9.64,0,0,0,9.42,2,11.76,11.76,0,0,0,7.41-8.05c1-3.35.91-7.49-1.16-10.42a11,11,0,0,0-9.44-4.89,9.71,9.71,0,0,0-8.27,5.52,17.56,17.56,0,0,0-1.63,8.29c.16,3,1,6.14,3.24,8.23a9.39,9.39,0,0,0,10.68,1.14c7.47-3.83,6.17-17.5-2.6-18.68-4.54-.61-8.85,3.11-9.67,7.53-.76,4.09.88,9.11,4.54,11.38,4.81,3,9.83-1.95,11.59-6.13a21.13,21.13,0,0,0,1.46-5.56,21.7,21.7,0,0,0,.37-5,8.63,8.63,0,0,0-2.33-5.63,7.9,7.9,0,0,0-6.59-2c-4,.54-6.53,3.92-7.67,7.55-1.07,3.43-.88,7.44,1.29,10.42a9.42,9.42,0,0,0,5.4,3.92,7.82,7.82,0,0,0,7.37-2.3,12.75,12.75,0,0,0,3.38-8.39,7.54,7.54,0,0,0-7-7.85c-6.5-.7-10.47,6.11-10.95,11.71a8.87,8.87,0,0,0,3.52,8.09c3.26,2.36,8.65,1.45,11.21-1.52,3.25-3.77,2.75-8.84-.11-12.68a4.68,4.68,0,0,0-5.08-2.06c-5.58,1.52-12,7.89-7.9,13.86,2.52,3.67,7.63,4.76,11.07,1.7,2.18-1.94,3.08-5,3.34-7.78.24-2.58-.3-5.55-2.18-7.45a6.11,6.11,0,0,0-8.67-.12A12.24,12.24,0,0,0,492,607a17.44,17.44,0,0,0-.78,5.6c.16,3.09,1.93,6.31,5.45,6.29,2.52,0,4.25-2.3,5.45-4.26a7.59,7.59,0,0,0,.94-6.52,4.65,4.65,0,0,0-5.53-3.14c-3.81.69-6.83,5.18-5.77,8.91.89,3.13,5.2,4.55,7.52,2s2.76-6.17-.05-8.45a4.78,4.78,0,0,0-5.46-.7,6.65,6.65,0,0,0-3.7,6.36c.18,3.19,2.71,4.77,5.69,4.34a7.55,7.55,0,0,0,5.26-4.34,8.64,8.64,0,0,0,.07-7.77c-1.62-3.19-6-2.63-7.77,0a9.71,9.71,0,0,0-1.55,5.26c-.05,3.23,3.93,5.85,6.77,3.89a7.18,7.18,0,0,0,3.17-5.05c.3-2.25-.58-4.95-2.84-5.92a4.68,4.68,0,0,0-6.16,1.62,10,10,0,0,0-1.72,6.07,4.56,4.56,0,0,0,7.69,3.18c2.66-2.4,2.34-6.34,0-8.83a4.54,4.54,0,0,0-7.07.91c-1.48,2.55-1.09,6,1.65,7.55a5,5,0,0,0,7.31-3.63,4.69,4.69,0,0,0-3.14-5.53c-3.06-1.2-5.61,1.46-6.56,4a10.32,10.32,0,0,0-.72,4,4.52,4.52,0,0,0,7.68,3.18,10.51,10.51,0,0,0,2.31-3.15,4.61,4.61,0,0,0-.35-5,4.5,4.5,0,0,0-4.73-1.61,5.69,5.69,0,0,0-4.21,5.22,9.58,9.58,0,0,0,.18,2.13c0,.25.08.5.13.74.16.8-.08-1.11-.05-.35l3.3-4.33a5.7,5.7,0,0,0-4.07,3.8,10.06,10.06,0,0,0-.3,1.81c0,.21-.18.87,0,.08a1.22,1.22,0,0,1,.18-.7q.3-.59,0-.12a4.46,4.46,0,0,0,.35,5c1,1.29,3.09,2.29,4.73,1.62a6.45,6.45,0,0,0,4.37-5.93,16.19,16.19,0,0,0-.71-4.78c-.17-.65-.35-1.3-.5-2-.08-.35-.15-.7-.22-1.06-.23-1.07,0,1.08,0,0,0-.49.21-1.48-.11.16a1.67,1.67,0,0,1,.08-.3c.2-.57-.33.74-.29.67.32-.57-.75.87-.4.51s-1.08.73-.49.4c-1.23.68-.89.32-.48.24-.46.09-1.94.18-2.26-.38.26.46,1.89,1,2.08,1.05a5.88,5.88,0,0,0,5.15-1.32c2.63-2,4.6-5.95,3.65-9.3a7.38,7.38,0,0,0-7.27-5.38c-3.46,0-5.78,4.26-6.83,7.13a19.28,19.28,0,0,0-.83,7.85,6.54,6.54,0,0,0,5.16,5.53,7.29,7.29,0,0,0,6.51-2l-2,1.16a8.92,8.92,0,0,0,6.27-7c.43-3.2-1.27-5.53-2.47-8.31l-.7,5.45c.14-.18.3-.35.46-.53s.59-.57.14-.16.23-.14.36-.23l.75-.45c.89-.5,1.83-.94,2.77-1.36l-6.77-3.88a14.45,14.45,0,0,0,1.36,5.44,5.07,5.07,0,0,0,3.05,2.56c2.6.8,5-1.08,5.73-3.48a4.56,4.56,0,0,0-3.14-5.54,4.63,4.63,0,0,0-5.54,3.15l.76-1.31-.19.2c-.2.13-.39.33-.58.48a8.65,8.65,0,0,0-1,.89,11.45,11.45,0,0,0-2.37,4.13,17.59,17.59,0,0,0-.41,8.22l3.15-5.54a2.84,2.84,0,0,1,2.12.61,10.48,10.48,0,0,0-1.47-1.15,11,11,0,0,0-2.42-1.22A10.09,10.09,0,0,0,495,604c-2.33.29-4.62,1.86-4.5,4.5.1,2.19,2,4.81,4.5,4.5a10.17,10.17,0,0,1,1.1-.08,4.22,4.22,0,0,1,.71,0l-.52-.06a2.18,2.18,0,0,1,1,.28c-1.27-.86.68.45,0,0-.26-.22-.23-.18.11.1a6.15,6.15,0,0,0,.74.61,6.45,6.45,0,0,0,1.61.92A6.18,6.18,0,0,0,504,615c2.55-.78,3.48-3.06,3.14-5.53.17,1.22,0-.39,0-.62,0-.5,0-1,0-1.48,0,1.12.08-.36.16-.63s.13-.47.21-.7c-.23.5-.23.53,0,.07a5,5,0,0,1,.37-.63c-.39.45-.42.51-.1.18s.64-.52.95-.77a7.5,7.5,0,0,0,2.2-3.25l-8.68-2.39,1.88-2.36,3.46-.45,2.46,1.84-.06-.12c.67,1,.34.92.23.49s-.19-.63-.26-.95-.14-.57-.19-.86-.05-.31-.09-.46c-.12-.49.16,1.3.11.74-.33-3.6-3.53-5.34-6.78-3.89-2.22,1-4.77,2.17-6.3,4.14a4.85,4.85,0,0,0-.7,5.45c.39.9.86,1.77,1.33,2.62.28.52-.15-.65-.05-.09,0,.12.2.89.11.24s-.2.45,0-.2c0-.12.31-1.23.08-.46s.12-.28.18-.17a2.78,2.78,0,0,1-.42.42s.85-.51.17-.2c.26-.12.75-.31.2-.09-.34.13-2,.7-2,1.16,0-.28.87-.43,1.06-.46a2.29,2.29,0,0,1,1.1.1c.29.1.84.61.21,0l1.32,3.18c0-.94-.07-1.87,0-2.81,0-.14,0-1.19.09-1.25q-.15,1,0,.3c0-.2.08-.39.13-.58a5.7,5.7,0,0,1,.35-1.12c-.28.61-.31.7-.1.25.09-.18.18-.36.28-.54.22-.38.46-.73.71-1.08-.67,1,.29-.3.44-.47L498,602.85c.53,0,.43,0-.29-.07.47.14.36.08-.32-.17-.55-.48-.65-.56-.31-.23l-.38-.49c.22.42.18.33-.11-.27.1-1.48.08-1.82-.06-1a5.12,5.12,0,0,1-.19.67l.19-.45c-.1.21-.21.4-.33.6.36-.44.38-.47.05-.09-.93.59.63-.26-.1.12a3.41,3.41,0,0,1,2.65-.28c.85.41,1.1.51.73.28a2.13,2.13,0,0,0-.34-.25c-3.56-2.27-8.49-.1-9.58,3.85-.69,2.48.05,5.1.67,7.51.13.49.26,1,.37,1.49.05.24.09.48.15.71.19.78,0-1.27,0-.34,0,.2,0,.42,0,.61.08.71.3-1.29.08-.51s.55-1.07.21-.51a3.21,3.21,0,0,1,1.94-1.49l5.08,6.61a6.33,6.33,0,0,0,1-3.12c0-.23.06-.45.07-.68a3.37,3.37,0,0,1-2.24,3.06,4.57,4.57,0,0,0,3.31-4.34,13.87,13.87,0,0,0-.32-2.29c-.17-.81,0,1.08,0,.22v-.23a3.44,3.44,0,0,1-2.37,3.24l-5.08-6.61c-.17.37-.39.7-.58,1.06s-.13.19.17-.23a5.78,5.78,0,0,1-.49.5l7.68,3.18c0-.24.08-1,0-.09s.05-.22.11-.45.3-.71.25-.89c.06.2-.59,1-.16.42.12-.19.05-.11-.21.25-.84,1.23-2.19,1.69-4.07,1.38L492,608c-.27,1.46.58.74,2.57-2.18h2.39c2.54,1.57,3.39,3.3,2.53,5.19l-7.06.91a3,3,0,0,1-.05-3.89l7.68,3.18a3.16,3.16,0,0,1,0-.75c-.24.12,0,.83.05-.06.05-.49-.33.49,0,.07.17-.25.32-.54.49-.79l-6.15,1.61c.78.34-1.37-1.88-1.39-1.93l-.13-.75q.2-1.12.06-.6c-.14.51.43-.82.16-.39-.12.2-.07.14.15-.17a2.16,2.16,0,0,1,.82-.74l6.77,3.89c0-1-.12.83.06-.37.11-.31.06-.23-.12.27a4.9,4.9,0,0,1,.38-.62h-7.77c-.26-.69-.34-.87-.24-.53s.06.15,0-.24c-.1-1-.09.1,0,.16-.23-.33.41-1,0-.28s.31-.2.12-.17-.24.42-.27.47c-.41.78.45-.52.12-.18s.88-.51.22-.17c.43-.22.9-.28.16-.17l5.7,4.34c0-.52-.05-.42-.13.31a1.94,1.94,0,0,1-.47.81,1.81,1.81,0,0,1-.7.58,4.14,4.14,0,0,1,.55-.29l-5.46-.7q2.06,1.83.06-4.29l7.52,2a2.81,2.81,0,0,1-.27,2c.39-.71-.71.52,0,0s-.81.47,0,0-.95.26-.19.13l-5.54-3.15c.16.5.18.41.06-.26.14-.68.14-.77,0-.27.3-.69.17-.32-.11.12-.09.16-.67,1.17-.08.19a8.54,8.54,0,0,1-.78.93l3.18-1.32a5.73,5.73,0,0,1,2.69,1.07c.32.33.94,1,.88,1.49a2,2,0,0,0-.1-.4c-.12-.54,0,1.29.08.46,0-.39,0-.77,0-1.15,0-.2.12-1,0-.14s0-.07.06-.28c.18-.93.53-1.79.77-2.7.07-.27-.5,1-.13.31l.27-.51a3.21,3.21,0,0,0,.29-.46c0-.09-.82.84-.25.36s-1,.67-.48.37a2.87,2.87,0,0,1-1.72.45,3.7,3.7,0,0,1-1.15-.26c-.54-.15-.33-.16-.13,0a5.83,5.83,0,0,1-.79-.69c-.22-.32-.28-.37-.16-.18s.09.14-.07-.21c-.28-.78,0,.23.06.41.21.75,0-.95,0-.18,0,.51,0,1,0,1.52s.09-.62.08-.6-.05.29-.08.39c-.07.28-.13.56-.21.83s-.1.28-.14.42c-.15.49-.11,0,0,0s.28-.45,0,0c0,0-.31.48-.3.49s.59-.71.26-.38.43-.3.41-.29c-.19.13-.47.14.08,0a3.45,3.45,0,0,1,.92-.23s.92.16.41,0,.3.11.33.13.57.56.25.2.41.67.09.14.16.37.16.39,0,1.06.08.45c0-.06-.2,1-.07.57s-.48.76-.17.35c.07-.1.14-.25.2-.36.32-.64-.16.28-.2.22a6.44,6.44,0,0,1,.74-.74c.05-.06.27-.3.34-.3-.13,0-.73.5-.17.15.3-.19.59-.39.9-.56a3.79,3.79,0,0,0,.9-.45s-.87.28-.47.22a5.22,5.22,0,0,0,.56-.18L496.57,608a18.36,18.36,0,0,1,1.07,1.68c.28.48.23.07-.05-.15a2.79,2.79,0,0,1,.26,1l-.09-.55a3.53,3.53,0,0,1,0,.65s.29-1.14,0-.23l.18-.44c-.26.41-.24.41.06,0-.35.35-.32.33.12,0l-.31.17.43-.19a5.2,5.2,0,0,1-.68.17l.52-.08a3.25,3.25,0,0,1-.54,0c-.49,0-.1-.39.61.1a2.08,2.08,0,0,0-.53-.14c.55-.06,1.07.52.46.15-.28-.17-.54-.53.53.41-.72-.63.71,1,0,0-.41-.58.31,1.14.19.44a4.39,4.39,0,0,0-.13-.52c-.13-.4.25-.45.08.64a5.46,5.46,0,0,0,0-.57,4.91,4.91,0,0,0,0-1c.21.72-.19,1.07,0,.38.05-.21.09-.42.14-.62s.46-1,.4-1.23c0,0-.52,1.07-.2.48.1-.18.18-.38.28-.57s.38-.59.55-.89c.4-.7-.76.83-.21.27.14-.14.27-.3.41-.44a2.6,2.6,0,0,0,.43-.38c-.47.69-.82.59-.3.28.88-.52-1.08.31-.08,0s-1.32.13.05,0c.93-.06-1.06-.24-.24,0s-.93-.52-.32-.13c-1.08-.69-.63-.54-.35-.22-.86-1-.51-.68-.31-.3,0,0-.56-1.12-.26-.54s-.46.4,0-.41a4.58,4.58,0,0,0,0,1.05c-.25-.41.24-1.15,0-.32-.06.22-.1.44-.17.66a6.14,6.14,0,0,0-.22.64c-.17-.18.56-1.08.09-.25-.17.3-.37.61-.53.92-.36.68.81-.73.22-.29-.15.12-.33.47-.52.52l.37-.32c.62-.22.7-.26.25-.12.74-.06.86-.08.37-.07l.66.09c-.92-.21.87.55.05,0s.6.75,0,0c-.09-.11-.41-.34-.42-.46l.33.41c-.12-.17-.23-.36-.34-.54-.56-.82.16.85,0-.11-.05-.21-.12-.42-.17-.63-.28-1.07,0,1.11,0,.25,0-.23,0-.47,0-.7,0-.45.27-1-.07.2.07-.25.09-.53.15-.78.1-.44.24-.87.37-1.3.28-.92-.5.91,0,.07.09-.15.16-.31.25-.47a3.34,3.34,0,0,0,.42-.66c-.45.57-.53.68-.22.33l.17-.18c.55-.66-.9.53-.16.12s-1.08.31-.23.08c.59-.15-.27.22-.5.05H499c.53,0,.43,0-.28-.06.92.18-.82-.56-.12-.08-.05,0-.82-.77-.37-.27-.84-.92-.37-.54-.19-.17-.58-1.21-.27-.53-.15-.18.27.85,0-1.13,0-.21,0,.26,0,.52,0,.79a11.69,11.69,0,0,1-.08,1.32,4.22,4.22,0,0,1-.1.87c0-.13.16-1,0-.15-.11.71-.23,1.41-.39,2.11a16.33,16.33,0,0,1-.63,2.06c.07-.17.42-.8,0-.11-.17.31-.35.61-.53.92-.55.9.55-.43-.15.15-.16.14-.32.32-.47.47-.74.72.72-.3-.22.13a3.06,3.06,0,0,1,2.72.12c-.76-.39.74.75.13.06.81.93.2.27,0,0l-.28-.5c-.49-.94.15,0,0,.12.09-.1-.42-1.17-.35-1.36l.07.5a4.85,4.85,0,0,1,0-.66c-.06-.9-.28.73.05-.05-.47,1.11.06,0,.14-.21.42-1-.57.43.11-.2.06,0,.41-.44.44-.42-.39-.32-.61.86,0,.11l-.62.28c.48-.12.31-.11-.5,0a2.36,2.36,0,0,1,.46,0c-1.37-.12-.69-.1-.31,0-1.5-.53-.47-.07-.25,0-.57-.12-.74-.59-.18-.06s-.45-.9-.11-.09a4,4,0,0,0,.25.47l-.25-.56a4.26,4.26,0,0,1,.15.54c.3.91,0-1,0,0,0,.2,0,.41,0,.62a3.92,3.92,0,0,0-.06.89c.11-.72.11-.84,0-.35l-.07.26c-.23.86-.31.14.08-.07l-.12.23c-.25.39-.16.3.27-.28a4,4,0,0,0-.35.38c-.6.69.85-.6.06-.08s.94-.16,0,0a3.46,3.46,0,0,0-.63.14c.81-.51.7.1.16-.06a3.17,3.17,0,0,1-.44,0l.78.11a3.8,3.8,0,0,0-.58-.15c.49-.16,1,.56.39.13-.44-.29.26,0,.45.38a2.54,2.54,0,0,0-.41-.39c-.57-.45.56,1,.24.31-.06-.11-.15-.24-.21-.33-.27-.41-.14-.82.11.34a5.89,5.89,0,0,0-.21-.59c-.08-.25-.13-1.13-.3-1.28,0,0,.1,1.23.07.52,0-.22,0-.45-.05-.68a11.41,11.41,0,0,1,0-1.17c0-.23,0-.46,0-.69.07-1,.13.11-.05.27.17-.16.2-1.08.27-1.33s.2-.69.31-1c.32-1.08-.51.9,0,0l.27-.49c.34-.67,0,.15-.24.26a7.6,7.6,0,0,0,.56-.58c0,.2-.86.65-.08.11.36-.26.4.09-.41.14a3.52,3.52,0,0,0,.7-.21c.85-.25-1.11,0-.23,0h.49c.9,0-1.08-.29-.21,0l.71.2c.87.25-.91-.53-.15,0a3,3,0,0,0,.65.39c-.09,0-.83-.74-.31-.23l.55.54c.64.63-.49-.89-.08-.09a4,4,0,0,0,.26.45c.47.77-.24-1-.05-.1a2.93,2.93,0,0,0,.18.79c-.38-.57-.09-.86-.06-.1,0,.27,0,.55,0,.83a2.78,2.78,0,0,0,0,.56l.08-.64c0,.18-.06.37-.1.55-.1.47-.25.91-.39,1.36-.3.93.5-.89,0-.06-.14.24-.26.49-.41.72-.5.78-.27,0,.06-.05-.09,0-.49.5-.56.58-.39.41-.11-.23.3-.21a4.18,4.18,0,0,0-.68.4l.59-.24a4.51,4.51,0,0,1-.52.17,3.35,3.35,0,0,0-.54.12l.63-.1a5.76,5.76,0,0,1-.59,0c-1,.06.86.25.21.05l-.52-.13c-.58-.14-.27-.44.45.21a1.56,1.56,0,0,0-.28-.16c-.54-.31,0-.32.4.35a2.47,2.47,0,0,0-.53-.54c.46.21.73,1,.35.41a1.76,1.76,0,0,0-.21-.41c.55.46.39,1.13.22.49,0-.16-.1-.31-.13-.47s0-.22-.07-.33c-.2-.71.08,1.28.07.53s0-1.31,0-2c0,1.62,0,.44.08-.09.07-.32.16-.62.26-.93s.26-.6.33-.9c-.27,1.17-.35.79-.14.37l.26-.52c.19-.33.38-.66.59-1,.07-.1.15-.2.22-.31.41-.64-.78.88-.25.33.21-.21.39-.44.61-.65l.39-.35c.52-.51-1,.62-.37.29A7.13,7.13,0,0,0,500,604s-1.17.38-.62.27a4,4,0,0,0,.46-.14c.94-.29-1.22,0-.25,0,1.24.07-1-.34-.05,0a3.33,3.33,0,0,0,.51.16c-.91,0-.92-.48-.4-.15l.35.2c.78.42-.29.11-.23-.21,0,0,.81.75.91.84.74.68-.46-.82,0,0,.15.25.29.5.45.74.52.82-.27-1,0,0,.08.27.18.54.24.82a4.44,4.44,0,0,0,.12.56l-.08-.63c0,.2,0,.39.05.58,0,.5,0,1,0,1.47,0,1,.23-1,0,0-.06.3-.12.6-.19.89a18,18,0,0,1-.56,1.76c-.19.53.13.13.1-.22,0,.18-.32.67-.41.83-.24.46-.49.9-.77,1.34l-.52.75c-.54.79.56-.61,0,0-.4.43-.78.86-1.21,1.26l-.42.37c-.72.65.86-.51,0,0-.05,0-.74.4-.74.43s1.08-.33.34-.14a4.46,4.46,0,0,0-.72.18c.89-.39.82-.13.25-.1-.83,0,1,.37.28,0a2.74,2.74,0,0,0-.67-.21c.11,0,1,.52.43.15l-.63-.38c-.77-.47.77.73.12.08l-.38-.35a7.27,7.27,0,0,1-.54-.57c-.61-.7,0-.24,0,.07,0-.3-.72-1.1-.89-1.39s-.35-1-.62-1.22l.24.57c-.06-.17-.13-.33-.19-.5s-.12-.33-.17-.5a12.9,12.9,0,0,1-.39-1.48c-.19-1,.21,0,0,.26a3.16,3.16,0,0,0-.05-.67c0-.41,0-.83.06-1.24a2.83,2.83,0,0,1,.09-.89s-.19,1.14,0,.25c.12-.66.23-1.31.4-2s.37-1.27.58-1.9-.13.13-.09.21c-.05-.09.36-.69.41-.78.55-.91,0,.06-.06,0L495,603c.23-.23.47-.46.71-.67s.79-.63.18-.18A15.74,15.74,0,0,1,497.7,601l.62-.32c1-.52-.87.2.14,0a4.61,4.61,0,0,1,.86-.23s-1.17.07-.24,0c.32,0,.63,0,.95,0,1.17,0,0-.06,0,0a7.07,7.07,0,0,1,1.74.48s-1-.53-.26-.1c.26.15.53.28.78.44l.25.16c.39.28.33.22-.2-.17a3.61,3.61,0,0,1,.45.39c.22.2.41.43.62.64.66.65-.41-.71,0,0,.16.26.33.5.48.77l.14.26c.21.45.18.37-.08-.24.28.19.36,1.18.45,1.48.29,1,0-1,0,.07,0,.21,0,.43,0,.65a3.66,3.66,0,0,0,0,.87q.15-1.09,0-.36l-.07.29c-.07.28-.15.57-.25.85l-.1.29c-.18.45-.15.38.1-.21,0,.39-.56,1.1-.75,1.43s-.59.95-.91,1.41c-.13.18-.67,1.13-.12.18a5.35,5.35,0,0,1-.66.78,23.11,23.11,0,0,1-2.59,2.55l-.24.2.19-.15a3.24,3.24,0,0,1-.47.34c-.45.3-.91.58-1.38.83l5.45.71-.59-.48c-1.83-1.46-4.59-1.92-6.36,0-1.5,1.63-2,4.8,0,6.37Z"/></g></svg>