<svg xmlns="http://www.w3.org/2000/svg" viewBox="0 0 800 800"><defs><style>.cls-1,.cls-2{fill:none;}.cls-2,.cls-4{stroke:#e2d8e1;stroke-miterlimit:10;stroke-width:2px;}.cls-3,.cls-4{fill:#e2d8e1;}</style></defs><g id="Layer_5" data-name="Layer 5"><path class="cls-1" d="M497.45,478.07c5.75-3,11.47-6,17.07-9.22,11.36-6.56,22.31-14,31.43-23.54A54.3,54.3,0,0,0,556.82,430c11.35-25.74,4.53-55.74-2.58-81.58-1.2-4.34-2.07-9.28-4.75-13-3.37-4.69-8.56-3.93-13.74-2.59a75.27,75.27,0,0,0-13.62,5c-16.35,7.83-30.2,21-43,34.24-15.5,16-30.83,33.4-37.24,54.74-3.26,10.84-4.06,22.3-3.4,33.59.47,8,1.15,17.29,5,24.48,7,13.12,16.3-1.46,23.21-6.62a12.25,12.25,0,0,1,5.39-2.48,6.92,6.92,0,0,1,5.63,1.45c1.37,1.21,2.07,3,3.36,4.33C485.93,486.37,493,480.39,497.45,478.07Z"/><path class="cls-1" d="M562.89,330.73c-1.68-.23-3.56-.22-4.84.9-2.79,2.43,4.07,15.09,5.16,18.08,2.52,6.87,5,13.78,6.94,20.84,4,14.4,5.77,29.45,2.38,44.17-8.25,35.77-41.2,60-73.64,74.17q-4.9,2.14-9.76,4a5.79,5.79,0,0,0-2.34,1.33,5.49,5.49,0,0,0-1.1,2.79,21.82,21.82,0,0,0-.17,8.63c1.14,5.22,6.22,9.76,11.82,7.87,3-1,5.08-3.73,6.44-6.58,2.6-5.44,3.84-12.12,8.81-16.08,5.76-4.6,11.43-2.22,14.53,3.89,6.76,13.37,6.58,29,9.87,43.65,1.55,6.89,8,8.77,13.56,4.28a19,19,0,0,0,5.19-7.41c4.88-11.23,4.14-23.86,4.45-35.82.38-14.3.46-29,5.73-42.57,1-2.49,3.21-8.49,6.38-8.77s4.58,3.83,4.84,6.18c.83,7.48,1.46,15,2.68,22.4.38,2.29.89,4.74,2.58,6.32,2.5,2.34,6.68,1.78,9.48-.2,3.36-2.37,5.27-6.28,6.74-10.13,6.52-17.18,8.58-37.56,8.49-55.85-.11-21.8-4.86-43.78-16-62.68C584.69,343.21,575.44,332.4,562.89,330.73Z"/><path class="cls-2" d="M457.8,153.18a130.08,130.08,0,0,1,20.66-.68l0-1c-6.44-.4-13.67-.65-21.56-.61C457.25,151.65,457.54,152.41,457.8,153.18Z"/><path class="cls-2" d="M231.4,477.9c-.51-1.91-.31-3.69-.94-5.46a24.56,24.56,0,0,1-1.59-5.49,71.07,71.07,0,0,0-2-10.91c-.24-.9-.53-2.32-1.28-3-2-1.74-2.89,1.28-3,2.88a19.38,19.38,0,0,0,.2,5.49c.95,3.67,2.22,7.27,3.36,11A74.19,74.19,0,0,0,230.52,483a35.5,35.5,0,0,1,1.27,3.35c.67,1.73,1.69,3.15,2.37,4.86.42,1,.85,2.08,1.31,3.11l.45-.14.23-.11a24.17,24.17,0,0,1-1.62-4.2C233.41,485.79,232.43,481.84,231.4,477.9Z"/><path class="cls-2" d="M209.62,454.72c-.47-.73-.9-1.47-1.3-2.21-.52-1.2-.9-2.51-1.39-3.61-.84-1.88-1.7-3.77-2.39-5.71a50.92,50.92,0,0,0-1.49-4.88c-.82-1.72-2-3.22-2.72-5-1-2.28-1.42-4.71-2.2-7.05-.49-1.51-.6-2.63-1.77-3.69-1.6,8.29,1.73,18.67,5.08,26.35.53,1.24,11.57,19.67,12.71,17.78,2.72-4.53-2.1-8.17-4.48-11.89A.41.41,0,0,1,209.62,454.72Z"/><path class="cls-2" d="M237.88,421.53a17.48,17.48,0,0,0-3-.46,5.83,5.83,0,0,0-1.72,2.41c-4.39,10.49-.89,22.44,2.64,33.25,2.12,6.5,4.27,13.06,7.43,19.11l.56-.29c-5.3-15.11-3-35-4.92-51.05A6.48,6.48,0,0,0,237.88,421.53Z"/><path class="cls-2" d="M180,362.33C177,377,175,392,178,408c2,15,4,29,8,44,7,23,15,44,28,65l3,3c16,28,39,49,65,68,2,1,3,1,5,2,6,4,10,8,16,11,30,12,60,22,92,27,25,4,49,5,73,0-2.59-3.32-4,.71,0,0-2.59-3.32-7.6-4.25-11.55-5.66-4.45-1.6-8.85-3.64-13.37-5-8.48-2.55-17.55-2.23-26.28-2.54-18.25-.65-36.64-3.11-53.65-10a62,62,0,0,1-12-6.41c-3.68-2.52-7.4-5.08-11.82-6.06a4.59,4.59,0,0,1,2.93.65,4.36,4.36,0,0,1-2.93-.65C345,594,352,594,358,594c11,1,20,5,30,10,7,3,14,2,21,4,8,1,15-1,23,0,23,3,44,6,67,6,4-6,0-12-4-17-5-6-13-3-18,0-2,2-5,3-7,4-2,0-4-2-6-4-5-10-5-23-16-29a7.78,7.78,0,0,0-8,2c-6,8-2,18-6,26-3,7-12,7-19,3-18-13-25-32-34-50-2-5-8-8-10-3-3,7,3,15-2,22s-16,2-24-2c-11-6-18-18-20.08-29.91l0,2.13c0-.71,0-1.42,0-2.13C324,542,328,550,323,554c-4,3-8-2-11-5-7-8-11-18-13-28-2-15-2-29-3.9-43.73-.71.81.89,7.63,0,0-.71.81-2.08,4.32-.67,5.19s.75-4.54.67-5.19c-5.71,6.9-11.13,12.66-20.76,10-9.16-2.5-12.54-9.93-15.12-18.34-6.54-21.29-3.76-42.46-.61-64.1.9-6.19,2-12.36,3.24-18.49,1.12-5.33,3.54-11.25,1.11-16.58-4.76,5.36,1.7,4.29,0,0C258,378,258,394,246,389c-11-4-11-18-11.29-29"/><path class="cls-2" d="M612.65,437.89c-1.72,17.58-7.17,35.56-17.61,49.79-3.21,4.37-8.93,7.33-13.93,3.85A16.33,16.33,0,0,1,576,484.8a37.65,37.65,0,0,1-3.52-15.59c0-1.61-1.33-14-3-7.06-6.35,26.44,5.7,58-9.64,82.27a23.1,23.1,0,0,1-7.94,8c-6.56,3.68-15.39,2.42-19.31-4.35a29.26,29.26,0,0,1-2.93-8.74q-1.51-7.17-2.36-14.47c-.55-4.83-.89-9.71-2.19-14.39-1-3.52-3.73-11.26-8-11.91-2.07-.32-3.81,1.55-4.8,3.39-2.83,5.25-3.38,12.16-8.28,15.55-7.27,5-18.25,1.45-21.84-6.4-3.34-7.3-.55-15.75-3.49-23.15a8.54,8.54,0,0,0-2.35-3.49,4.38,4.38,0,0,0-4-.92,7,7,0,0,0-2,1.18c-5.94,4.51-14.26,13.37-22.43,12.31a12,12,0,0,1-4.3-1.4,66,66,0,0,1-10.07-14.39v0a61.35,61.35,0,0,1-1.85-6.68c0-.08,0-.15,0-.23s0-.11,0-.17c-.18-.82-.34-1.63-.49-2.43l-.24-1.36c-.23-1.34-.41-2.64-.56-3.87-.06-.41-.1-.82-.14-1.21-.13-1.19-.23-2.29-.3-3.29a112.44,112.44,0,0,1,16.38-66.1c12.27-20,28.05-38.46,47.69-51.53,2.42-1.61,4.78-3.38,7.23-4.94,2-1.29,4.25-2.09,6.3-3.37a97.49,97.49,0,0,1,9.74-5.18c12.51-5.94,28.17-9.84,42.06-8.22.8.09,1.59.21,2.38.35.32.05.65.11,1,.18.62.11,1.24.25,1.85.4.43.1.84.2,1.26.32l1.24.35c10.65,3.23,19.32,10.28,26,19.12a78.1,78.1,0,0,1,8.51,14.38,119.22,119.22,0,0,1,8.73,28.49c1.66,9.08,1.12,18.41,2.14,27.56A114.68,114.68,0,0,1,612.65,437.89Z"/><path class="cls-3" d="M209.62,454.72c-.47-.73-.9-1.47-1.3-2.21-.52-1.2-.9-2.51-1.39-3.61-.84-1.88-1.7-3.77-2.39-5.71a50.92,50.92,0,0,0-1.49-4.88c-.82-1.72-2-3.22-2.72-5-1-2.28-1.42-4.71-2.2-7.05-.49-1.51-.6-2.63-1.77-3.69-1.6,8.29,1.73,18.67,5.08,26.35.53,1.24,11.57,19.67,12.71,17.78,2.72-4.53-2.1-8.17-4.48-11.89A.41.41,0,0,1,209.62,454.72Z"/><path class="cls-4" d="M680.09,325.14c-2.18-13.6-8.39-27.38-12.68-40.49A201.16,201.16,0,0,0,650,246a210.89,210.89,0,0,0-56.11-63.12c-19.63-14.55-43-24.41-66.75-29.82-11.44-2.61-22.92-2.87-34.43-5-4.85-.88-9.66-2-14.48-3a143.29,143.29,0,0,0-19.45-3q-3.53-.24-7.06-.27a38.69,38.69,0,0,1,5.27,9.06c7.89,0,15.12.21,21.56.61l0,1a130.08,130.08,0,0,0-20.66.68c.27.83.52,1.66.74,2.5.68.66,1.33,1.3,1.9,1.93a22.28,22.28,0,0,1,2.46,3.28,347.14,347.14,0,0,1,42-2.48c9.61,0,19.33.44,28.59,3,33.7,9.28,63.7,31.74,86,58.15a203.08,203.08,0,0,1,20.37,28.87c37,63.53,49.78,150.72,30.64,221.82a249.19,249.19,0,0,1-14.31,39.27c-4,8.68-5.08,34.68-19.4,25-8.26-5.61-20.82-3.38-26.65,4.73-9.93,13.82-12.58,36.31-18,52.23-1.28,3.76-2.63,7.6-5.19,10.64s-6.61,5.14-10.48,4.28c-11.43-2.52-14.26-19.27-27.06-6.33a72.45,72.45,0,0,0-13.31,18.65c-1.42,2.87-2.68,5.88-4.75,8.33s-5.18,4.29-8.36,3.9c-8.52-1-10.27-20.35-11.67-26.49-1.86-8.15-5-16.73-12-21.27a18.92,18.92,0,0,0-16.23-1.64c-5.33,1.85-6.87,7.5-12.69,5.4-4-1.43-6.69-8.47-8.58-11.82a63.31,63.31,0,0,0-8.46-11.66c-2.78-3-6.25-6-10.36-6-3.49-.06-6.75,2.07-8.87,4.86a28.42,28.42,0,0,0-4.21,9.54c-1.82,6.42-4.36,25.5-14.85,16.52A54.15,54.15,0,0,1,403.85,575c-7.18-12-10.71-26.83-20.79-37.08-3.6-3.66-9.35-6-13.91-3.63-4.79,2.48-6,8.67-6.54,14-1.79,18-14.6,15.84-22.54,2.2a155.19,155.19,0,0,1-8-15.5c-7.1-16.17-10.69-2.93-15.92,5.34-1.69-.53-2.46-2.44-3-4.13-4.18-13.16-5.47-26.88-6.79-40.55-1-10.07-.45-23.79-4.62-33.16-1-2.24-3.2-4.14-5.65-4a6.72,6.72,0,0,0-4.23,2.22c-2.73,2.81-3.92,6.73-5.75,10.2s-4.93,6.85-8.85,6.83a9.29,9.29,0,0,1-5.9-2.58c-22.52-20-2.59-72.83-.19-97.33.65-6.64-.13-17.82-9.47-14.7-4.92,1.64-6.69,11.44-12.32,11s-5.37-12.4-2.62-27.67a17.55,17.55,0,0,1-3-.53l-.07.08c-3,3.25-5.72,6.68-8.46,10.12l-.21.27A84,84,0,0,0,238.7,381c.74,2.44,1.66,5,3.55,6.65,3.35,3,8.91,2.36,12.36-.52,5-4.2,4-12.44,8.35-17.37a10.44,10.44,0,0,1,.38,4.85c-2.77,32-15.24,67.52-2.49,98.76,1.61,4,3.64,7.86,6.86,10.66a15.77,15.77,0,0,0,2.47,1.75,2.83,2.83,0,0,1,0-.29,33.62,33.62,0,0,0,12.65,2.06c.35-.08.7-.19,1-.3,5-1.66,7.88-6.39,11.21-10,.6,4.69.74,9.5,1,14.24,1,15.63,3.76,31.2,9.63,45.8,2.78,6.89,7.08,13.49,13.51,17.17h.7l.73.7c1.34.5,2.83.61,3.72-.4a4.31,4.31,0,0,0,.69-2.94q-.11-7.87-.2-15.74c.16,12.38,24.36,40.1,39.36,35a11.51,11.51,0,0,0,4.46-2.83c5.54-5.57,1.22-12,1.5-18.56.26-6.14,5.23-7,9.26-2.91a24,24,0,0,1,4.16,6.68c7.77,16.28,22.26,49,45.06,46.73,11-1.09,5.41-19.23,9.18-26,1.93-3.45,5.64-6.54,9.49-5.64,2.84.66,4.76,3.26,6.34,5.72,4.91,7.68,7.32,17.82,12.52,25,1.17,1.61,3.28,2.72,5.17,2.11,1.65-.53,2.66-2.11,3.83-3.38,3.55-3.85,12.55-5.24,18.71-.92,5.11,3.59,7.45,10.51,5.68,17.17-3.2,0-6.4,0-9.6,0-2.33,0-4.17-.74-6.43-.77-5.54-.08-11.22.52-16.57-.69-3-.67-5.82-.57-8.75-1.06-2.67-.44-5.3-.91-8-1.33-1.25-.19-2.49,0-3.76-.22s-2.52-1-3.79-1.26a39.41,39.41,0,0,0-8.54-.94,40.22,40.22,0,0,0-7,.18,24.56,24.56,0,0,1-8.67.54,49.11,49.11,0,0,0-9.26-.72c-2.56,0-4.89-.68-7.42-.78a21.15,21.15,0,0,1-6-1.55c-2.65-.88-5.25-1.37-7.93-2.15-3-.85-5.67-1.39-8.6-2.39-2.16-.74-4.25-1.53-6.38-2.33-3-1.11-6.19-1.91-9.23-2.74a51.71,51.71,0,0,0-8.66-1.33c-5.31-.57-10.28-2.36-15.68-2.4,5.21,2.49,11.33,3.6,15.57,7.62s10.53,6.15,16,8a35.92,35.92,0,0,0,4.88,1.33c2.74.52,5.53.64,8.28,1.07,4.57.72,9,2.13,13.54,2.95a116.94,116.94,0,0,0,15.27,1.7c3.87.19,7.75-.16,11.62,0a77.69,77.69,0,0,1,8.77.44,55.39,55.39,0,0,1,5.89,1.65c5.16,1.43,11,1.77,15.28,5.07a19.39,19.39,0,0,0,7.34,3.23c2.07.52,3.89,1.76,6.1,1.4l.3,1.91-1,.16c-37.23,5.67-71.07-2.31-107.11-8.41a40.24,40.24,0,0,1-6.9-2.05c-19-6.8-39.59-11.1-57.09-21.77-60.76-37-105.85-102.91-115.83-173.73-.82-5.83-.73-12.12-2.51-17.75a16.67,16.67,0,0,1-.58-5.55c.07-5.11.25-10.22.57-15.32a242,242,0,0,1,2.86-24.85,61.47,61.47,0,0,1-3.09-8.25,19.45,19.45,0,0,1-2.38-1.95,18.13,18.13,0,0,1-1.19,1.58c-.88,7.42-1.53,14.87-3.24,21.93a18.71,18.71,0,0,0-.61,5c0,4.49,0,9,0,13.47,0,4.95.78,9.63.78,14.56a30.38,30.38,0,0,0,.61,7.84c.37,1.43,0,2.86.35,4.33,4,18.57,5,36.4,12,54.56a263.09,263.09,0,0,0,28.43,53.07c2.76,4,6.06,8.06,9.17,11.85,2.85,3.47,5.33,6.6,8.85,9.4,3.79,3,6.79,6.69,10.18,10.1,3.69,3.71,7.57,7.18,11.27,10.89a111.43,111.43,0,0,0,9.93,9.12c3.21,2.5,6.16,5.1,9.46,7.51a59.36,59.36,0,0,1,7.84,6.27c4.6,4.71,10.75,8,16.42,11.12,31.36,17.45,66.95,23.82,101.11,33.52,21.39,6.08,46.46,4.36,68.39,3.1,8.83-.5,18.1-.78,26.82-2.44,4.25-.81,12.93-5.3,16.93-3.23,1.77.92,3,2.6,4.39,4,3.69,3.57,8.65,5.13,13.55,3.42,5.21-1.81,10.33-4.27,14.1-8.28,6.73-7.16,8.25-18.27,15.55-24.84s14.29,9.41,24.42,7.62c5.75-1,10.7-4.84,14.28-9.44,5.52-7.09,8.88-15.8,10.95-24.47,2.4-10,3.87-20.46,8.4-29.74A27.34,27.34,0,0,1,622.08,541c2.15-1.61,4.87-2.78,7.5-2.22,8.32,1.76,11.57,18.58,22.38,6.15,3.41-3.92,4.67-9.19,6.25-14.13,5.72-17.89,15.33-33.71,19.32-52.22a401.53,401.53,0,0,0,8-56.28C687.81,389.83,685.22,357.2,680.09,325.14Z"/><path class="cls-3" d="M610.2,386.25a119.22,119.22,0,0,0-8.73-28.49A78.1,78.1,0,0,0,593,343.38c-6.65-8.84-15.32-15.89-26-19.12l-1.24-.35c-.42-.12-.83-.22-1.26-.32-.61-.15-1.23-.29-1.85-.4-.32-.07-.65-.13-1-.18-.79-.14-1.58-.26-2.38-.35-13.89-1.62-29.55,2.28-42.06,8.22a97.49,97.49,0,0,0-9.74,5.18c-2.05,1.28-4.27,2.08-6.3,3.37-2.45,1.56-4.81,3.33-7.23,4.94-19.64,13.07-35.42,31.57-47.69,51.53A112.44,112.44,0,0,0,429.89,462c.07,1,.17,2.1.3,3.29,0,.39.08.8.14,1.21.15,1.23.33,2.53.56,3.87l.24,1.36c.15.8.31,1.61.49,2.43,0,.06,0,.12,0,.17s0,.15,0,.23a61.35,61.35,0,0,0,1.85,6.68v0a66,66,0,0,0,10.07,14.39,12,12,0,0,0,4.3,1.4c8.17,1.06,16.49-7.8,22.43-12.31a7,7,0,0,1,2-1.18,4.38,4.38,0,0,1,4,.92,8.54,8.54,0,0,1,2.35,3.49c2.94,7.4.15,15.85,3.49,23.15,3.59,7.85,14.57,11.42,21.84,6.4,4.9-3.39,5.45-10.3,8.28-15.55,1-1.84,2.73-3.71,4.8-3.39,4.3.65,7.06,8.39,8,11.91,1.3,4.68,1.64,9.56,2.19,14.39s1.35,9.69,2.36,14.47a29.26,29.26,0,0,0,2.93,8.74c3.92,6.77,12.75,8,19.31,4.35a23.1,23.1,0,0,0,7.94-8c15.34-24.27,3.29-55.83,9.64-82.27,1.67-6.93,3,5.45,3,7.06A37.65,37.65,0,0,0,576,484.8a16.33,16.33,0,0,0,5.11,6.73c5,3.48,10.72.52,13.93-3.85,10.44-14.23,15.89-32.21,17.61-49.79a114.68,114.68,0,0,0-.31-24.08C611.32,404.66,611.86,395.33,610.2,386.25ZM481.12,481.5c-1.29-1.31-2-3.12-3.36-4.33a6.92,6.92,0,0,0-5.63-1.45,12.25,12.25,0,0,0-5.39,2.48c-6.91,5.16-16.19,19.74-23.21,6.62-3.85-7.19-4.53-16.47-5-24.48-.66-11.29.14-22.75,3.4-33.59,6.41-21.34,21.74-38.72,37.24-54.74,12.76-13.21,26.61-26.41,43-34.24a75.27,75.27,0,0,1,13.62-5c5.18-1.34,10.37-2.1,13.74,2.59,2.68,3.74,3.55,8.68,4.75,13,7.11,25.84,13.93,55.84,2.58,81.58A54.3,54.3,0,0,1,546,445.31c-9.12,9.5-20.07,17-31.43,23.54-5.6,3.24-11.32,6.25-17.07,9.22C493,480.39,485.93,486.37,481.12,481.5Zm117.5-8.85c-1.47,3.85-3.38,7.76-6.74,10.13-2.8,2-7,2.54-9.48.2-1.69-1.58-2.2-4-2.58-6.32-1.22-7.43-1.85-14.92-2.68-22.4-.26-2.35-1.71-6.47-4.84-6.18s-5.41,6.28-6.38,8.77c-5.27,13.53-5.35,28.27-5.73,42.57-.31,12,.43,24.59-4.45,35.82a19,19,0,0,1-5.19,7.41c-5.58,4.49-12,2.61-13.56-4.28-3.29-14.61-3.11-30.28-9.87-43.65-3.1-6.11-8.77-8.49-14.53-3.89-5,4-6.21,10.64-8.81,16.08-1.36,2.85-3.46,5.57-6.44,6.58-5.6,1.89-10.68-2.65-11.82-7.87a21.82,21.82,0,0,1,.17-8.63,5.49,5.49,0,0,1,1.1-2.79,5.79,5.79,0,0,1,2.34-1.33q4.85-1.83,9.76-4c32.44-14.16,65.39-38.4,73.64-74.17,3.39-14.72,1.63-29.77-2.38-44.17-2-7.06-4.42-14-6.94-20.84-1.09-3-8-15.65-5.16-18.08,1.28-1.12,3.16-1.13,4.84-.9,12.55,1.67,21.8,12.48,28.23,23.39C602.25,373,607,395,607.11,416.8,607.2,435.09,605.14,455.47,598.62,472.65Z"/><path class="cls-3" d="M231.4,477.9c-.51-1.91-.31-3.69-.94-5.46a24.56,24.56,0,0,1-1.59-5.49,71.07,71.07,0,0,0-2-10.91c-.24-.9-.53-2.32-1.28-3-2-1.74-2.89,1.28-3,2.88a19.38,19.38,0,0,0,.2,5.49c.95,3.67,2.22,7.27,3.36,11A74.19,74.19,0,0,0,230.52,483a35.5,35.5,0,0,1,1.27,3.35c.67,1.73,1.69,3.15,2.37,4.86.42,1,.85,2.08,1.31,3.11l.45-.14.23-.11a24.17,24.17,0,0,1-1.62-4.2C233.41,485.79,232.43,481.84,231.4,477.9Z"/><path class="cls-3" d="M237.88,421.53a17.48,17.48,0,0,0-3-.46,5.83,5.83,0,0,0-1.72,2.41c-4.39,10.49-.89,22.44,2.64,33.25,2.12,6.5,4.27,13.06,7.43,19.11l.56-.29c-5.3-15.11-3-35-4.92-51.05A6.48,6.48,0,0,0,237.88,421.53Z"/></g><g id="clean"><path class="cls-3" d="M469.43,625.47l-2.05.34a2.27,2.27,0,0,0-1,.53,2.42,2.42,0,0,0-.77.85,3.28,3.28,0,0,0-.3,2.31l.3.71a3.1,3.1,0,0,0,1.08,1.08l.71.3a2.9,2.9,0,0,0,1.6,0l2-.34a2.27,2.27,0,0,0,1-.53,2.42,2.42,0,0,0,.77-.85,3.28,3.28,0,0,0,.3-2.31l-.3-.71a3.1,3.1,0,0,0-1.08-1.08l-.71-.3a2.9,2.9,0,0,0-1.6,0Z"/><path class="cls-3" d="M496.75,613.46c-.15.52-.31,1-.49,1.53a3.28,3.28,0,0,0,.3,2.31,2.42,2.42,0,0,0,.77.85,2.27,2.27,0,0,0,1,.53l.8.11a3,3,0,0,0,1.51-.41l.61-.47a2.94,2.94,0,0,0,.77-1.32c.19-.5.35-1,.49-1.53a3.28,3.28,0,0,0-.3-2.31,2.42,2.42,0,0,0-.77-.85,2.27,2.27,0,0,0-1-.53l-.8-.11a3,3,0,0,0-1.51.41l-.61.47a2.94,2.94,0,0,0-.77,1.32Z"/><path class="cls-3" d="M320.79,551.89c-8.39-4.9-12.14-14.46-15-23.27a146.26,146.26,0,0,1-6.3-32.24c-.56-6.36-.62-12.77-1.41-19.11a3.07,3.07,0,0,0-1.84-2.74,3,3,0,0,0-3.28.62c-3.31,3.63-6.09,8.31-10.93,9.54-3.74.95-2.15,6.74,1.6,5.78,6.16-1.57,9.54-6.65,13.57-11.08l-5.12-2.12c.73,5.88.81,11.82,1.29,17.72a177.59,177.59,0,0,0,2.27,17.64,136.89,136.89,0,0,0,4.08,16.7,77.31,77.31,0,0,0,6.35,15.51,33,33,0,0,0,11.68,12.23c3.34,1.95,6.36-3.23,3-5.18Z"/><path class="cls-3" d="M500,611.26h-.37a2.22,2.22,0,0,0-1.16.26,2.72,2.72,0,0,0-1.58,1.58,2.22,2.22,0,0,0-.26,1.16l.11.8a2.94,2.94,0,0,0,.77,1.32l.61.47a3,3,0,0,0,1.51.41H500a2.22,2.22,0,0,0,1.16-.26,2.72,2.72,0,0,0,1.58-1.58,2.22,2.22,0,0,0,.26-1.16l-.11-.8a2.94,2.94,0,0,0-.77-1.32l-.61-.47a3,3,0,0,0-1.51-.41Z"/><path class="cls-3" d="M287.59,554.46a168.8,168.8,0,0,1-27.7-25.31,3,3,0,1,0-4.24,4.24,175.25,175.25,0,0,0,28.91,26.25,3,3,0,0,0,4.11-1.07,3.08,3.08,0,0,0-1.08-4.11Z"/><path class="cls-3" d="M326,579.3a29,29,0,0,1-10.44-4.08c-.8-.5-1.59-1-2.35-1.61.24.18-.08-.06-.15-.12s-.41-.33-.61-.5c-.37-.3-.73-.62-1.08-.94q-1.11-1-2.13-2.13c-.68-.76-1.21-1.4-1.63-2a3.1,3.1,0,0,0-4.11-1.08c-1.28.75-2,2.8-1.07,4.11a36.08,36.08,0,0,0,22,14.1,3.08,3.08,0,0,0,3.69-2.09,3,3,0,0,0-2.1-3.69Z"/><path class="cls-3" d="M212.21,453.21a57.56,57.56,0,0,1-3.75-8.22c-1.21-2.8-1.64-5.87-3-8.59-.66-1.3-1.52-2.49-2.16-3.8a23.88,23.88,0,0,1-1.36-4c-.77-2.77-1.33-6-3.45-8.12-1.5-1.47-4.59-1-5,1.32-1.28,7,.1,14.12,2.31,20.76a54,54,0,0,0,4.79,10.92c2,3.33,4.05,6.62,6.26,9.8a48.36,48.36,0,0,0,3.27,4.31c1,1.14,2.23,2.28,3.83,2.28,3.85,0,4.52-5.68,3.63-8.41-1.09-3.29-3.8-5.43-5.35-8.22-1.87-3.38-7.06-.36-5.18,3,1.25,2.26,3.15,3.84,4.37,6a3.16,3.16,0,0,1,.46,1.07c.25.83.06-.42.09.44a3.32,3.32,0,0,1,0,.63c.06-.41-.38.77-.38.79-.31-1.07,2.52-1.41,3.07-1.26-.36-.09.82.39.48.21-.61-.32.46.51.12.11-.15-.17-.34-.32-.49-.48-.42-.44-.79-.92-1.18-1.39s.32.42.06.06c-.11-.13-.21-.27-.31-.41l-.64-.87L211.19,459c-1.9-2.82-3.7-5.69-5.44-8.61a42.9,42.9,0,0,1-3.64-7.9c-2.13-6-4-12.86-2.86-19.15l-5,1.32c.7.69,0-.06.32.35.06.1.28.65.16.31.2.55.34,1.14.52,1.71.45,1.47.85,3,1.29,4.43a24.78,24.78,0,0,0,1.78,4.53c.68,1.28,1.58,2.47,2.15,3.8s.66,2.53,1,3.76a47.17,47.17,0,0,0,1.77,4.44c1.2,2.77,2.13,5.65,3.75,8.21C209.09,459.49,214.28,456.48,212.21,453.21Z"/><path class="cls-3" d="M240,419.41a5.08,5.08,0,0,0-6.51-1c-2,1.18-3,3.45-3.73,5.54a32.5,32.5,0,0,0-1.59,13c.59,8.92,3.61,17.53,6.47,25.94a104,104,0,0,0,6,14.5,3.05,3.05,0,0,0,4.1,1.08l.56-.29a3,3,0,0,0,1.38-3.39c-4.68-13.54-3.44-28.35-4.17-42.43q-.15-2.94-.43-5.86c-.21-2.21-.34-4.53-1.58-6.44a3,3,0,1,0-5.18,3c.75,1.17.71,2.81.84,4.21.15,1.69.26,3.38.35,5.07.18,3.58.26,7.17.35,10.75a187.94,187.94,0,0,0,1.41,22,60.59,60.59,0,0,0,2.63,11.28l1.38-3.39-.56.29,4.1,1.08a98,98,0,0,1-5.52-13.52c-1.55-4.6-3.1-9.22-4.33-13.92a47.73,47.73,0,0,1-1.84-13.69,24.69,24.69,0,0,1,1-6.44,10.06,10.06,0,0,1,1.09-2.77c.1-.15.35-.55.44-.52a1,1,0,0,1-1,0c-.19-.13-.15-.06.11.2a3,3,0,0,0,4.24,0A3.07,3.07,0,0,0,240,419.41Z"/><path class="cls-3" d="M238.74,492.52c-1.5-3.12-2.17-6.62-3-9.95-.4-1.52-.79-3-1.18-4.56-.44-1.71-.52-3.41-.85-5.14-.31-1.57-1-3-1.48-4.58a37.71,37.71,0,0,1-.78-4.87,55,55,0,0,0-2.09-9.59,6.28,6.28,0,0,0-2.79-3.7,4.22,4.22,0,0,0-5,.66c-2,2-2,5.14-2,7.72,0,3.49,1.24,6.84,2.3,10.12,1.12,3.52,2.21,7,3.65,10.43.72,1.69,1.46,3.37,2.29,5s1.25,3.45,2.07,5.1c1.74,3.46,3.18,7.06,4.93,10.52,1.51,3,6.63.91,5.48-2.31-.48-1.34-.94-2.69-1.4-4l-1.38,3.39.23-.11a3,3,0,0,0,1.08-4.1,3.06,3.06,0,0,0-4.1-1.08l-.23.11a3,3,0,0,0-1.38,3.39c.46,1.35.92,2.69,1.4,4l5.48-2.31c-1.41-2.79-2.44-5.76-3.86-8.53a26.35,26.35,0,0,1-1.67-3.47,43,43,0,0,0-1.86-4.44,112,112,0,0,1-6.22-17.29,15.3,15.3,0,0,1-.81-4c0-.66,0-1.31,0-2a8.77,8.77,0,0,0,.05-1c0-.64-.16.53,0-.18.05-.22.1-.44.16-.65.12-.47.27-.22,0-.14l.06-.1c.12-.2.08-.15-.12.14-.64.28-1.07.81-1.87.46-.62-.28-.35-.72-.35-.14,0-.26.06.19.08.24.24.69.39,1.43.57,2.13a66.91,66.91,0,0,1,1.65,8.78,21,21,0,0,0,.93,4.44,21.35,21.35,0,0,1,1.2,4,84.14,84.14,0,0,0,2.21,10.17,55.35,55.35,0,0,0,3.4,10.46,3,3,0,0,0,4.1,1.08A3.06,3.06,0,0,0,238.74,492.52Z"/><path class="cls-3" d="M176.39,360.08a235.82,235.82,0,0,0,6.11,92.69,250.52,250.52,0,0,0,39.25,80.55,268.21,268.21,0,0,0,28.93,33.84A214.26,214.26,0,0,0,267.56,582a166.74,166.74,0,0,0,18.88,13.36c25.55,14.95,54.12,22.81,82.83,29.11,7.37,1.61,14.76,3.16,22.14,4.74a238.54,238.54,0,0,0,23.89,4.14,224,224,0,0,0,24.16,1.21c4.05,0,8.11-.1,12.16-.24q3.08-.11,6.14-.26c1.53-.07,2.95-.46,4.46-.62,3.42-.35,6.24-1,8.37-3.93,1.25-1.69-.17-3.8-1.79-4.4-4.2-1.57-8.49-2.9-12.65-4.56a49.35,49.35,0,0,1-5.32-2.47c-2.13-1.15-4-2.78-6.31-3.64a19.13,19.13,0,0,0-5.68-.87c-2.2-.13-4.34-.53-6.53-.68-4.51-.3-9-.65-13.51-1.08-17.53-1.66-35.08-4.58-51.67-10.65A126.39,126.39,0,0,1,354,595.48q-3.29-1.65-6.47-3.49a7.42,7.42,0,0,0-1.7-.88,10.6,10.6,0,0,0-2.18-.13,3.15,3.15,0,0,1-2.14-.79l-2.12,5.12c.28,0,1.27.26.8-.12l2.13-5.12a2.32,2.32,0,0,1-1.42-.35l-2.31,5.48c3.87,1.1,7.93,1.16,11.91,1.48,4.19.33,7.87,1.65,11.82,3,8.27,2.8,16.66,5.24,25.17,7.21A201.22,201.22,0,0,0,439,612.3c1.93-.07,4.23-.54,6.1-.16,2.26.47,4.47,1.18,6.73,1.66,4.39.93,8.84,1.59,13.29,2.1,8.69,1,17.43,1.35,26.16,1.76,2.2.1,4.55.45,6.75.34s3.72-2.3,4.73-4a12.27,12.27,0,0,0,1.16-9.71,19.38,19.38,0,0,0-5.2-8.38,13.07,13.07,0,0,0-3.89-2.85,20.46,20.46,0,0,0-6.07-1.44,22.75,22.75,0,0,0-10.8,1.85,25.71,25.71,0,0,0-4.8,2.63c-.93.65-2.26,2.2-3.35,2.24-2.49.1-3.71-3.53-4.51-5.35s-1.8-4.65-2.61-6.93c-1.76-5-3.55-10.05-6.89-14.18A16,16,0,0,0,442.39,566c-3.48.18-6.23,4.33-7.49,7.26A27.67,27.67,0,0,0,433,583.3c-.09,3,.64,6.51-.59,9.31-1,2.27-2.92,4.33-5.52,4.51s-5.69-.9-8.12-1.81A29.69,29.69,0,0,1,412,591.6a42.41,42.41,0,0,1-10.17-11.36c-6.25-9.64-10.4-20.45-16.44-30.2-2.41-3.89-6.34-10.89-12-9.31-3.55,1-5.23,5.77-5.92,9-.83,3.78-.61,7.62-.63,11.46,0,2.15.39,6.68-2.5,6.89a3.07,3.07,0,0,0-3,3,3,3,0,0,0,3,3,8.72,8.72,0,0,0,7.31-4.55c1.43-2.84,1.21-6.8,1.18-9.9s-.17-6.12.61-9.07c.36-1.37,1.27-2.55,1.62-3.88.07-.26.34-.53-.34-.12.31-.19.29.3,0,0l.26.08c-.27-.14-.25-.12.07,0a7.59,7.59,0,0,1,1,.62c-.43-.32.33.33.45.43.59.49,0-.07.45.47s.76,1.06,1.14,1.6c1.35,2,2.6,4,3.79,6,2.41,4.16,4.55,8.47,6.71,12.76,4.21,8.36,8.54,17,15.17,23.73a36.25,36.25,0,0,0,11,7.79c4.53,2,10.65,4.17,15.53,2.43a13.18,13.18,0,0,0,7-6.25,15.46,15.46,0,0,0,1.65-4.46,26.28,26.28,0,0,0,.07-4.86c0-5.26-.15-11.86,4.55-15.35L442,572a10.64,10.64,0,0,1,6.56,1.4,13,13,0,0,1,3.94,4.24c2.69,4.36,4,9.22,5.84,14.12a52,52,0,0,0,3.4,7.63c1.85,3.27,5.8,5.67,9.63,4.82,1.82-.39,2.95-1.51,4.37-2.58a20.46,20.46,0,0,1,5.08-2.84,16.46,16.46,0,0,1,10-.71,8.21,8.21,0,0,1,4.2,2.73,13.53,13.53,0,0,1,2.64,3.92,6.61,6.61,0,0,1-1.8,8.15L498,612c-10.77-.59-21.58-.83-32.3-2a121.48,121.48,0,0,1-15.53-2.69c-1.18-.29-2.34-.59-3.5-.92a12.94,12.94,0,0,0-4.39-.2q-3.9.2-7.81.22c-21,.12-41.74-3.62-61.78-9.68q-4.14-1.26-8.24-2.63a69.31,69.31,0,0,0-8.28-2.65c-5.28-1.07-10.81-.52-16-2-3.19-.91-5.43,4-2.31,5.48a8.58,8.58,0,0,0,4.44,1.17c2.3-.17,4.32-3.34,2.12-5.12a7.36,7.36,0,0,0-5.05-1.64c-2.53,0-4,3.32-2.12,5.12,2.22,2.08,4.81,2.57,7.76,2.57l-1.51-.41c14.73,8.68,31.08,14.13,47.82,17.4,8.34,1.62,16.79,2.75,25.24,3.6,4.31.44,8.62.79,12.94,1.1,2.07.15,4.09.36,6.14.62s4,.11,5.92.51,3.54,1.91,5.27,2.9a58,58,0,0,0,6.71,3.2c4.48,1.85,9.13,3.28,13.67,5l-1.79-4.4c-.48.65-1.62.76-2.36.87-1.49.21-3,.4-4.47.63a46,46,0,0,1-5.12.26q-3.21.13-6.42.21c-8,.19-15.93.12-23.88-.42-15.26-1-30.06-4.58-45-7.78-27.88-6-55.89-12.63-81.3-26C271,580.7,249.51,559.54,231.7,536.64a249.6,249.6,0,0,1-40.56-75.91A228.57,228.57,0,0,1,181.2,371q.47-5.47,1.19-10.92c.21-1.61-1.53-3-3-3a3.07,3.07,0,0,0-3,3Z"/><path class="cls-3" d="M460.18,155.93a132.8,132.8,0,0,1,18.28-.43,3,3,0,0,0,2.89-2.2c.73-4.94-4.8-5.22-8.31-5.2-4.5,0-9-.2-13.51-.22a3,3,0,0,0,0,6c4.09,0,8.2.28,12.29.23,1.2,0,2.41,0,3.61,0l.49,0c.49,0-.25,0-.25,0s.77.14.82.16.24.09.35.11c.28,0-.7-.34-.32-.12s-.35-.28-.35-.28a2.51,2.51,0,0,1-.6-2.33l2.89-2.2a132.8,132.8,0,0,0-18.28.43,3.06,3.06,0,0,0-3,3c.07,1.5,1.33,3.15,3,3Z"/><path class="cls-3" d="M271.69,483.22C261.56,476,258.6,461.75,257.86,450c-1.11-17.7,1.62-35.33,5-52.65.94-4.86,1.85-9.74,2.91-14.59s1.93-9.66-.2-14.45c-.77-1.73-3.52-1.94-4.71-.61s-2.63,3-2.64,4.85a3.36,3.36,0,0,0,3.45,3.39c3.33-.09,5.21-4,4.2-6.92a3,3,0,0,0-5.78,0c-.38,1.16-.76,2.31-1.17,3.46-.22.61-.45,1.23-.68,1.84-.14.36-.28.72-.43,1.07,0,.09-.34.83-.14.36a36.19,36.19,0,0,1-4,7.19q-.18.25.06-.06l-.34.42c-.2.24-.41.48-.62.7-.41.45-.85.85-1.3,1.26s.19-.07-.28.22c-.24.14-.47.31-.72.46s-.5.26-.74.39c-.5.28.44-.09-.28.1l-.81.23-.47.09c.35,0,.42-.05.19,0a8.43,8.43,0,0,1-.87,0c-.09,0-1-.08-.63,0s-.56-.12-.66-.14c-.33-.08-.64-.19-1-.29a10.23,10.23,0,0,1-1.75-.85l1.08,1.08a44.21,44.21,0,0,1-6.82-26.37,3,3,0,0,0-3-3,3.06,3.06,0,0,0-3,3,46.74,46.74,0,0,0,2,17.1A53.07,53.07,0,0,0,237,385.1c.62,1.26,1.29,2.5,2,3.7a6.27,6.27,0,0,0,3.27,2.67,12.16,12.16,0,0,0,11.49-.51c3.23-2,5.56-5.22,7.33-8.51a70.4,70.4,0,0,0,4.79-11.86h-5.78c.28.82.07-.22.08.21.09-.49.1-.58,0-.26s-.06.22.13-.25c-.18.24-.41.46.12-.09-.52.54.47-.26.09,0a2.55,2.55,0,0,1,3.31,1.1l.36,1.26c-.1.6-.11.74,0,.42-.2.44-.21.5-.05.19l.28-.44a7.88,7.88,0,0,1,.66-.78l-4.71-.61c1.5,3.39.07,7.5-.63,10.89-.93,4.51-1.81,9-2.69,13.54-1.74,9-3.3,18-4.31,27a157.39,157.39,0,0,0-.89,27,75,75,0,0,0,3.57,19.77c2.55,7.47,6.74,14.22,13.25,18.83a3,3,0,0,0,4.1-1.08,3.06,3.06,0,0,0-1.08-4.1Z"/><path class="cls-3" d="M317.77,557.07a7.62,7.62,0,0,0,.69.38,15.33,15.33,0,0,0,1.45.61,3.28,3.28,0,0,0,2.31-.3,2.42,2.42,0,0,0,.85-.77,2.27,2.27,0,0,0,.53-1l.11-.8a3,3,0,0,0-.41-1.51l-.47-.61a2.94,2.94,0,0,0-1.32-.77l-.36-.14.72.3a9.14,9.14,0,0,1-1.08-.55,3.28,3.28,0,0,0-2.31-.3,2.27,2.27,0,0,0-1,.53,2.42,2.42,0,0,0-.77.85l-.3.71a2.9,2.9,0,0,0,0,1.6l.3.71a3.1,3.1,0,0,0,1.08,1.08Z"/><path class="cls-3" d="M683,324.34c-1.84-11-5.9-21.45-9.69-31.91-3.65-10.07-6.91-20.19-11.39-29.94a216.3,216.3,0,0,0-33-51.06c-13-15-28.12-28.54-45.08-38.9a184.46,184.46,0,0,0-56.93-22.59c-12.31-2.67-25-3-37.32-5.47-12.62-2.53-25-5.47-37.92-5.64-2.07,0-4,2.65-2.59,4.51a41.93,41.93,0,0,1,5.27,9.07,3,3,0,0,0,2.59,1.48q10.8,0,21.56.61l-3-3,0,1,3-3a137.05,137.05,0,0,0-20.66.68c-1.83.2-3.56,1.77-2.9,3.8.57,1.76.9,3.12,2.19,4.47a26.46,26.46,0,0,1,3.22,4,3,3,0,0,0,2.59,1.49,350.07,350.07,0,0,1,35-2.42c11.3-.21,22.87-.27,33.88,2.58,18.82,4.88,36.4,14.29,52,25.81,32.39,24,55.59,57.67,70.45,94.84A312.93,312.93,0,0,1,676.34,399a273.65,273.65,0,0,1-5.54,57.1,238.34,238.34,0,0,1-8.36,30q-2.76,7.9-6.05,15.6a97.05,97.05,0,0,0-4.29,10.34c-1.62,5.36-2.47,11-4.69,16.2-.77,1.79-1.89,4-3.53,4.94-1.38.77-3.32,0-5.07-1.06a23.65,23.65,0,0,0-22.91-1.48c-7.82,3.64-11.81,11.82-14.87,19.43-3.43,8.53-5.52,17.52-7.77,26.4-1.09,4.28-2.2,8.55-3.56,12.74s-2.86,9.45-6.56,12.35c-6.53,5.14-12.12-1.86-16.83-5.79-2.21-1.84-4.65-3.43-7.6-3.65-3.42-.24-6.48,1.47-9.05,3.55-7.75,6.26-13.14,15.37-17.48,24.16-1.54,3.12-5,9.65-9.57,7.82-2-.8-3.17-3.42-3.94-5.23-2.4-5.67-3-11.92-4.24-17.91-1.62-8-4.69-16.81-11.17-22.24-6.65-5.56-17.56-7-24.85-1.71-2.24,1.63-4.78,5.12-7.77,3s-4.26-6.4-5.86-9.4A64.72,64.72,0,0,0,456.09,562c-3-3.42-6.79-6.73-11.48-7.41-10.2-1.48-15.58,8.82-17.76,17.08-1.26,4.79-1.78,11-5,15-1.18,1.44-2.12,1.34-3.8.22-3.92-2.6-7.32-6.9-9.92-10.75-5.26-7.77-8.35-16.74-12.54-25.08-3.9-7.76-9.41-17.36-18.29-20a12.39,12.39,0,0,0-12.18,2.6c-3,2.89-4.37,7.09-5,11.13s-.82,14.58-7.29,13.53c-7.25-1.17-11.45-11.27-14.32-16.83-2.37-4.59-4-9.93-7.29-14-1.74-2.14-4.29-3.64-7.09-2.74-2.63.85-4.35,3.44-5.71,5.68-1.68,2.79-3.06,5.74-4.78,8.51l4.1-1.08c-2.14-.94-2.6-5.56-3.12-7.54-.9-3.47-1.64-7-2.26-10.53-1.19-6.82-1.92-13.71-2.59-20.6-1.11-11.39-.35-23.61-4-34.59-1.61-4.85-5.23-10.27-11.2-8.76s-8.14,8.05-10.6,12.94c-1.08,2.14-2.48,4.54-4.73,5.62-2.64,1.26-5-.5-6.85-2.33a25.69,25.69,0,0,1-5.7-9c-3-7.85-3.18-16.51-2.68-24.8A204.46,204.46,0,0,1,268.14,410c1.7-8.4,3.7-16.74,5.11-25.19,1.11-6.68,2.63-15.33-1.43-21.34-2.67-4-7.85-4.85-12-2.75-4,2-5.26,6.42-8.24,9.4a3.29,3.29,0,0,1-1.63,1.07c-.45.1-.42.08-.72-.27-.83-1-1.07-3-1.19-4.4-.56-6.38.57-13,1.68-19.22a3.05,3.05,0,0,0-2.89-3.79,20.15,20.15,0,0,1-2.19-.42,3,3,0,0,0-2.92.77c-2.82,3-5.39,6.24-8,9.46a6.45,6.45,0,0,0-1.65,5c0,2.18.18,4.37.4,6.55a89.48,89.48,0,0,0,2.26,13.1c.93,3.67,1.9,7.71,4.36,10.69,4.57,5.51,13.23,4.88,18.13.14s3.77-12,7.85-16.92l-5-1.32c.78,2.38.19,5.11-.07,7.56-.29,2.69-.63,5.39-1,8.07-.75,5.28-1.63,10.54-2.49,15.81-1.73,10.56-3.43,21.17-4.05,31.88s-.09,21.37,2.63,31.67c2.43,9.21,6.41,20,15.86,23.92a19.55,19.55,0,0,0,15.84-.18c4.44-2.15,7.23-6.37,10.44-9.93l-5.12-2.12c1,8.22,1,16.52,2,24.75a153,153,0,0,0,4.74,24.28c2,7.1,4.46,14.49,8.59,20.68,3.1,4.65,8.81,11.48,15,11.54,4.51.05,5.73-3.88,5.7-7.67q-.08-7.38-.19-14.76h-6c.25,8.14,5.94,15.92,11,21.87,5.81,6.84,13.55,13.73,22.45,16a16.61,16.61,0,0,0,11.77-.91c6.2-3.16,8.06-9.22,7.06-15.71-.37-2.4-2.77-13.49,2.65-9,2.3,1.91,3.48,5,4.73,7.65.93,2,1.86,3.94,2.81,5.9,4.27,8.81,8.94,17.49,15,25.22,5.6,7.14,13.07,14,22.31,15.68,4,.72,8.88,1,12.34-1.53s4.43-6.89,4.87-10.93.08-8.07.78-12c.82-4.57,5.69-9.5,9.71-4.94,4.62,5.23,6.72,12.68,9.55,18.92,2.37,5.22,7.13,15.57,14.64,11.36,2.48-1.38,3.64-4.13,6.29-5.28a13.56,13.56,0,0,1,8.6-.56c6.92,1.81,9.85,9,8.26,15.61l2.89-2.2-8.16,0c-2.41,0-4.65-.53-7-.72-5.75-.45-11.36.35-17.09-.72-2.55-.48-5.12-.56-7.69-.89-3-.38-6-1.08-9-1.46-1.21-.15-2.48,0-3.68-.26s-2.29-.85-3.47-1.16a37.06,37.06,0,0,0-8.39-1,54.56,54.56,0,0,0-7.12,0c-2.62.27-5.14,1-7.8.86-2.42-.13-4.81-.69-7.23-.83-2.87-.16-5.65-.2-8.52-.58a36.49,36.49,0,0,1-7-1.43c-2.59-.88-5.25-1.48-7.89-2.19-5.07-1.38-10-2.8-15-4.63a71.56,71.56,0,0,0-17-4.25c-6.13-.68-12.14-2.51-18.31-2.67-2.84-.07-4.27,4.31-1.51,5.59,3.72,1.73,7.75,2.8,11.39,4.71s6.45,5.09,10.19,7a77.53,77.53,0,0,0,11.48,4.52c4.53,1.45,9.2,1.52,13.83,2.39,5,.93,9.88,2.4,14.92,3.17a112.71,112.71,0,0,0,14.67,1.38c4.86.09,9.71-.11,14.57,0,4.42.13,8.34,1.7,12.62,2.64,2.26.5,4.54.92,6.75,1.64s4,2.06,6,3.28a27.43,27.43,0,0,0,6.71,2.62c2.34.68,4.4,1.71,6.9,1.51l-2.89-2.2.3,1.91,2.09-3.69c-33.87,5.53-67.84-1.53-101.15-7.33a70.59,70.59,0,0,1-11.82-2.82c-3.79-1.36-7.62-2.62-11.46-3.84-7.46-2.37-15-4.6-22.34-7.22-14.08-5-26.63-12.27-38.7-21A248.61,248.61,0,0,1,224,524.2a243.34,243.34,0,0,1-35.16-74.67q-2.7-9.91-4.48-20c-1.29-7.33-1.39-14.86-2.91-22.14a40.85,40.85,0,0,1-1.22-5.34,57.2,57.2,0,0,1,0-6c.11-4.58.31-9.16.63-13.73q.47-6.5,1.28-13c.49-3.91,2.22-8.64.64-12.33-.8-1.86-1.48-3.76-2.11-5.69-.7-2.1-1.86-2.76-3.43-4.21a3,3,0,0,0-4.71.61,8.42,8.42,0,0,0-1.77,4.54c-.28,2.42-.54,4.84-.83,7.25-.53,4.34-1.3,8.6-2.23,12.86s-.61,8.42-.61,12.63c0,4.36,0,8.7.34,13.06s.14,8.71.58,13,1.09,8.33,1.88,12.48c1.66,8.62,2.87,17.31,4.53,25.93,3.35,17.3,9.83,33.42,18,49a247.64,247.64,0,0,0,28.33,42.8,67.9,67.9,0,0,0,8.49,8.55c3.08,2.63,5.7,5.71,8.51,8.6,3.17,3.25,6.54,6.3,9.8,9.47s6.36,6.41,9.79,9.35c3.19,2.73,6.52,5.35,9.83,7.93s6.93,5,10,8c5.7,5.58,13,9.37,20,13.06,30,15.83,63.54,22.28,95.92,31.31,16.35,4.55,33,5.54,49.88,5,8.28-.24,16.54-.8,24.81-1.24s17.23-.55,25.46-2.54c2.9-.7,5.66-1.92,8.53-2.73s5-1.41,7.11.7c2.74,2.68,5.2,5.16,9,6.39a16,16,0,0,0,10.76-.46c7-2.6,13.29-6.42,17.5-12.79,3.88-5.87,5.69-13.08,10.23-18.52,1.18-1.43,2.53-3.22,4.47-2.69s3.85,2.16,5.5,3.39c4,3,8.53,6.24,13.85,5.72C595.8,616.28,604.27,598.14,608,585c2.23-8,3.38-16.26,5.83-24.21a49.16,49.16,0,0,1,5-11.56c1.89-3.05,5-7,8.83-7.52,4-.5,7.09,4.76,9.62,7.16,3.4,3.22,7.64,4.78,12,2.35,6.36-3.54,9.1-10.68,11.13-17.24a234.31,234.31,0,0,1,9-23.34,228.53,228.53,0,0,0,9-23.21c2.65-8.68,4.17-17.74,5.65-26.68A399,399,0,0,0,686.62,351c-1-8.92-2.23-17.82-3.64-26.69-.6-3.8-6.38-2.19-5.78,1.6,5.68,35.68,7.89,71.78,4.33,107.79Q680.22,447,678,460.1c-1.44,8.61-2.93,17.33-5.49,25.7-4.74,15.54-12.75,29.84-17.58,45.36-1.1,3.52-2.07,7.17-4.12,10.28-1.18,1.8-3.46,4.74-5.85,5-2.85.32-5.86-4.44-7.71-6.28-4.11-4.08-9.13-5.88-14.63-3.08-6.88,3.51-10.77,11.28-13.34,18.19-5.56,15-5.67,31.56-14.64,45.3-3.29,5-9.48,11.95-16.25,11.26-4.54-.46-8.2-4.55-11.84-6.92-4.05-2.64-8.56-3.33-12.41.06-5.18,4.55-7.59,11.3-10.62,17.28a27.68,27.68,0,0,1-15,14c-3.6,1.47-7,2.33-10.62.38-3.09-1.66-4.79-5-7.94-6.56-5.11-2.52-11.57.76-16.48,2.33-7.51,2.4-16,2.36-23.8,2.77-16.25.87-32.55,2.15-48.82,1.09-16.48-1.08-32.1-6.24-48-10.35s-31.82-8.24-47.27-13.83a202.59,202.59,0,0,1-22.94-9.82c-6.83-3.46-14.26-7.06-20-12.21-6.15-5.52-12.78-10.4-19.24-15.56-6.65-5.33-12.61-11.71-18.73-17.65-2.95-2.87-5.67-6-8.59-8.86s-6-5.1-8.64-8.06a173.75,173.75,0,0,1-15.22-19.8,259,259,0,0,1-23.93-44.5c-6.57-16.08-8.91-32.92-11.95-49.9-.37-2.07-.75-4.14-1.17-6.2s-.4-4.2-.77-6.3c-.73-4.1-.49-8.19-.78-12.34-.31-4.37-.58-8.67-.58-13.06,0-4.14-.46-8.57.15-12.67.57-3.86,1.62-7.66,2.16-11.54.59-4.28,1-8.57,1.54-12.86l-.88,2.12c.58-.71,1.14-1.43,1.66-2.19l-4.71.61a31.58,31.58,0,0,0,3,2.43l-1.38-1.8a75.17,75.17,0,0,0,3.4,9l-.3-2.31a253.76,253.76,0,0,0-3,25.64c-.28,4.42-.45,8.85-.54,13.28a43.92,43.92,0,0,0,1.34,11c.89,4,1,8.11,1.45,12.17.38,3.49.94,7,1.55,10.41q1.78,10.11,4.49,20a248.25,248.25,0,0,0,34.85,74.8,258.41,258.41,0,0,0,56.56,59.55c11.61,8.83,23.83,16.74,37.39,22.21,7.27,2.93,14.73,5.3,22.2,7.63s14.74,5.06,22.18,7.29c4,1.19,8.21,1.62,12.28,2.34L381,627.15c8.39,1.48,16.79,2.89,25.24,4,16.57,2.24,33.31,3.4,50,2,4.26-.36,8.52-.88,12.75-1.57,1.72-.28,2.32-2.23,2.09-3.69l-.3-1.91a3,3,0,0,0-2.89-2.2c-1.89.15-3.53-.78-5.3-1.29a21,21,0,0,1-6-2.45,31.58,31.58,0,0,0-11.1-4.58c-4.1-.9-8.16-2.46-12.3-3a86.43,86.43,0,0,0-13.56-.43,114.12,114.12,0,0,1-29-3.33c-4.67-1.11-9.4-1.38-14.09-2.27a58.46,58.46,0,0,1-11.86-3.91,30.36,30.36,0,0,1-6.14-3.39,64,64,0,0,0-5.3-4.1c-3.89-2.3-8.34-3.39-12.42-5.28l-1.51,5.59c5.31.14,10.42,1.79,15.68,2.4a74.59,74.59,0,0,1,15.74,3.49c5,1.7,9.9,3.45,15,4.83,2.49.67,5,1.27,7.48,2s5,1.81,7.66,2.11c2.44.29,4.92.7,7.37.84,2.84.16,5.65.06,8.48.48a26.25,26.25,0,0,0,7,.28,60.22,60.22,0,0,1,7.82-.79,63.92,63.92,0,0,1,7.58.37c2.56.36,4.87,1.54,7.39,1.88s5.29.49,7.95.94c2.88.49,5.74.83,8.64,1.11,3.25.32,6.39,1.12,9.67,1.27,2.94.14,5.89,0,8.84,0s5.56.69,8.39.77c3.19.09,6.41,0,9.6,0a3,3,0,0,0,2.89-2.2c3-12.32-5.68-24.63-18.9-23.57a18.91,18.91,0,0,0-7.18,1.94,13.45,13.45,0,0,0-2.95,2.08c-.72.67-1.89,2.78-2.92,3-2.32.49-4.6-5.38-5.38-7-1.48-3-2.72-6.12-4.05-9.19-2.29-5.32-5-12.43-10.28-15.55-5.45-3.26-11.46-.12-14.76,4.62-2.43,3.49-2.64,7.78-2.81,11.9-.15,3.68.22,8.2-1.53,11.56-1.64,3.17-6,2.65-9,2a26.16,26.16,0,0,1-11.56-6c-7.46-6.38-12.74-15-17.33-23.58-2.17-4.06-4.18-8.2-6.15-12.36-2.26-4.74-4.41-10.35-9.41-12.81s-10.06.47-10.9,5.9c-.87,5.62,3.72,13.42-.79,18-7.23,7.36-19.16-2.09-24.57-7.23a60.4,60.4,0,0,1-9.85-12c-2-3.2-4.17-7.12-4.28-10.84s-6.05-3.87-6,0q.09,6.88.17,13.77a12.66,12.66,0,0,1,0,2.75c.12-.09-1-.58-1.32-.72a18.4,18.4,0,0,1-3.82-2.8c-5.81-5.34-8.71-12.92-11.09-20.26a140.25,140.25,0,0,1-5.62-25.39c-1.12-8.69-1.1-17.47-2.16-26.17-.28-2.34-3.2-4.25-5.12-2.12-2.52,2.79-4.71,6.26-8,8.29-3.7,2.3-8.73,2.11-12.56.2-4.13-2.07-6.55-6.08-8.35-10.18a68,68,0,0,1-4.35-14.3c-3.78-19.26-.15-39.18,3-58.27.88-5.37,1.75-10.75,2.47-16.15.65-4.89,2.23-10.93.65-15.75-.64-2-3.48-3.16-5-1.32-3.44,4.12-3.84,9.07-5.86,13.83-1.88,4.45-8.6,7.69-11.8,2.62-1.66-2.64-2.3-6.15-3-9.14a77.1,77.1,0,0,1-1.74-10.55c-.16-1.71-.27-3.43-.33-5.15-.07-2,0-1.83,1.34-3.53,2.09-2.59,4.19-5.2,6.47-7.62l-2.92.77a28.84,28.84,0,0,0,3.79.64l-2.89-3.8a100.07,100.07,0,0,0-2,18.25c0,3.67.3,8.22,2.94,11.07s6.89,2.65,9.83.32a19.23,19.23,0,0,0,3.77-4.41c1-1.49,2-3.53,3.55-4.57,7.39-5,6.39,10.49,6,13.73-1.08,8.11-3,16.1-4.72,24.1-3.73,17.8-8.15,37.47-3.81,55.56,1.83,7.65,6.57,17.78,14.69,20.44,5.52,1.81,10.41-1.42,13.47-5.85,1.66-2.4,6-15.87,10.36-12.15,2.1,1.79,2.68,5.86,3.21,8.41a78.15,78.15,0,0,1,1.28,9.87c.5,6.69.78,13.38,1.45,20.05.76,7.75,1.63,15.5,3.09,23.14a117.54,117.54,0,0,0,2.75,11.44c.88,3,1.84,6.44,5,7.81a3.08,3.08,0,0,0,4.1-1.08c1.81-2.91,3.24-6,5.06-8.94a29.51,29.51,0,0,1,2-2.54c.2-.24.3.14-.15,0-.29-.11.5.43.72.66,1.43,1.49,2.26,3.67,3.1,5.51,1.2,2.65,2.43,5.28,3.77,7.87,2.23,4.31,4.5,8.72,7.59,12.49,3.73,4.55,9.94,9,16.12,6.79,7.5-2.74,7.83-11.54,9-18.13.64-3.71,2-8.62,6.42-9.17,4.72-.6,8.55,3.33,11.23,6.67,5.91,7.36,9.22,16.47,13.2,24.93,4.1,8.75,9.38,17.4,17.21,23.33,5.27,4,10.94,2.3,14-3.35,2.72-5.05,3.43-10.78,5-16.2,1.26-4.27,3.2-9.43,7.82-11,5-1.71,9.31,3.47,12.14,6.84a60.91,60.91,0,0,1,7.65,11.79c1.71,3.38,3.58,7.12,6.78,9.34a9.22,9.22,0,0,0,10.32,0c1.4-.92,2.57-2.14,3.92-3.12a12.36,12.36,0,0,1,6.1-2.15c18.9-2,20,22,23.28,34.91,1.42,5.56,3.82,13.15,9.94,15.12,10.64,3.41,15.43-9.47,19.34-16.47a69.37,69.37,0,0,1,9.06-12.66c2.08-2.28,5.19-6.28,8.67-6.22,2.21,0,4.09,2,5.61,3.36a42.66,42.66,0,0,0,7.24,5.82c8.53,4.88,17.27.25,21.33-8.05s5.9-17.69,8.15-26.56,4.54-18,8.77-26.14c1.84-3.55,3.93-7.19,7.38-9.4A18.08,18.08,0,0,1,628,534.43c6.2.58,11.11,7,17.61,4.62,5.17-1.92,7.41-8,8.92-12.82s2.45-10.71,4.3-15.2c4.38-10.62,8.93-21,12.32-32a258.79,258.79,0,0,0,10.49-57.82,316.46,316.46,0,0,0-14.08-116.91c-12-38.14-31.27-74.11-60.17-102.13-14.23-13.79-30.49-25.73-48.39-34.31a132.25,132.25,0,0,0-27.92-10.12c-11.17-2.49-22.77-2.47-34.15-2.22s-22.71,1.06-34,2.4l2.59,1.48c-1.55-2.41-3.92-4.28-4.8-7l-2.89,3.79a137.05,137.05,0,0,1,20.66-.68,3,3,0,0,0,3-3l0-1a3.06,3.06,0,0,0-3-3q-10.77-.66-21.56-.61l2.59,1.49a41.63,41.63,0,0,0-5.27-9.06l-2.59,4.51c11.24.15,22,2.43,32.94,4.73,10.72,2.25,21.53,3.15,32.36,4.69,19.9,2.85,39.67,10,57.24,19.63,34.13,18.76,61.52,49.89,79,84.41,5.34,10.53,9.2,21.45,13.13,32.56,4.09,11.54,8.81,22.95,10.84,35.09C677.83,329.74,683.61,328.13,683,324.34Z"/><path class="cls-3" d="M569.48,469.21c.1,7.27,2,15.42,6.42,21.31a11.95,11.95,0,0,0,17.83,2.68c2.76-2.09,4.68-5,6.54-7.85a84.26,84.26,0,0,0,5-8.9,104,104,0,0,0,7.14-19.65,122.86,122.86,0,0,0,3.43-20.89,135.26,135.26,0,0,0-.63-23.55c-.73-7.73-.52-15.52-1.53-23.23a115.91,115.91,0,0,0-5.48-22.64c-4.57-13.21-11.62-26.1-22.46-35.2a51.3,51.3,0,0,0-16.8-9.56,53.68,53.68,0,0,0-20.62-2.28c-14.25,1-28.25,5.82-40.56,13-3.18,1.84-6.55,3.38-9.6,5.44s-5.9,4-8.8,6.06a145,145,0,0,0-15.77,13,180.47,180.47,0,0,0-25.85,31.17,125.07,125.07,0,0,0-17.39,37.77,110.17,110.17,0,0,0-2.84,41.92,83.38,83.38,0,0,0,2,10.29c.22.82.45,1.64.71,2.45.11.37.22.74.35,1.11.06.18.64,1.86.29.85a49.66,49.66,0,0,0,2.18,5.28c2.79,5.77,7.48,11.22,14.15,12.21s12.36-2.71,17.3-6.54c2.32-1.79,4.52-3.72,6.8-5.56.54-.43,1.59-1.48,2.2-1.47,1.15,0,1.92,1.49,2.33,2.4,1.29,2.87,1.38,6.2,1.46,9.3a50.92,50.92,0,0,0,.93,10.6,18.37,18.37,0,0,0,11.69,13c5.14,2,11.44,1.5,15.95-1.77,5.08-3.69,6.07-10,8.44-15.16a7.18,7.18,0,0,1,2-3s.92-.32.27-.19c.12,0,.87.31.2,0a5.83,5.83,0,0,1,.87.51c-.54-.37.14.15.2.22s.39.39.58.6c.61.68-.3-.45.25.31.12.16.23.33.34.49a22,22,0,0,1,1.88,3.56c-.21-.5.16.41.16.41.11.27.21.55.31.82.18.51.36,1,.52,1.53a40.26,40.26,0,0,1,1,4.06c.74,3.58,1,7.22,1.43,10.85.46,4,1.05,8,1.8,11.91A49.58,49.58,0,0,0,529,547.64a16.23,16.23,0,0,0,14,9.78c14,1.07,22.19-13.61,25.41-25.2,3.47-12.49,2.73-25.66,2.28-38.46a190.55,190.55,0,0,1,0-19.27,71,71,0,0,1,1.1-8.89c.25-1.28.61-2.53.9-3.79.15-.62-.3.6-.05.14l.07-.1a2.39,2.39,0,0,1-1.49,1.11,3.69,3.69,0,0,1-2.57-.63c-.64-.63-.37-.51-.2-.16-.48-1,0,0,0,.28s.18.75.26,1.12c.17.78.28,1.57.41,2.35s-.08-.68,0,.06c0,.21.06.42.08.63l.12,1.12c0,.49.09,1,.1,1.48.06,3.86,6.06,3.87,6,0a37.08,37.08,0,0,0-.46-4.45,23.09,23.09,0,0,0-.92-4.52,4.74,4.74,0,0,0-1.86-2.68,3.35,3.35,0,0,0-4,.45c-1.6,1.53-1.87,4.33-2.25,6.37-2.34,12.51-1.3,25.27-1,37.9.32,12,.2,24.63-5,35.7-2.39,5.07-6.07,10.82-11.28,12.67a14.33,14.33,0,0,1-1.91.55,6.78,6.78,0,0,1-1.48.23,14.6,14.6,0,0,1-1.62,0,7.42,7.42,0,0,1-1.76-.2,9.91,9.91,0,0,1-2.88-1,8.54,8.54,0,0,1-2.71-2.1c-1.86-2-2.82-5.41-3.47-8.31-.82-3.61-1.47-7.26-2-10.92-1-6.84-1.12-13.91-3.22-20.55-1.39-4.4-3.6-10.07-8.09-12.13-3.65-1.68-7.1.12-9.24,3.24-1.63,2.37-2.49,5.28-3.45,8-.84,2.36-1.74,4.89-3.39,6.6a8.56,8.56,0,0,1-2.63,1.85,13,13,0,0,1-3.19.89c.57-.08-.46,0-.46,0-.31,0-.63,0-.94,0a14,14,0,0,1-1.58-.09c.57.07-.45-.08-.45-.08l-.93-.2a15.76,15.76,0,0,1-2.11-.69c.13.05.39.18-.16-.08-.29-.13-.57-.28-.85-.43a16.78,16.78,0,0,1-1.62-1,15.36,15.36,0,0,1-2.4-2.32c.31.39-.3-.44-.28-.41-.18-.26-.35-.53-.51-.8s-.44-.8-.62-1.22a17.63,17.63,0,0,1-1.2-5c-.34-3.28-.18-6.59-.44-9.87-.27-3.49-.89-7.28-2.88-10.24-2.13-3.19-6.05-5.06-9.72-3.29-2.51,1.21-4.73,3.53-6.87,5.31a59.3,59.3,0,0,1-6.88,5.12,15.75,15.75,0,0,1-6.93,2.59,9.79,9.79,0,0,1-6.86-2.64,21.59,21.59,0,0,1-4.76-6.79c-.67-1.38-1.16-2.81-1.71-4.24l-.3-.71c.2.4.2.34,0-.19-.07-.29-.19-.59-.28-.88-.31-1-.6-2.08-.86-3.13a85.08,85.08,0,0,1-2.37-19.2,109.43,109.43,0,0,1,6.85-39.72c4.6-12.47,11.74-23.82,19.66-34.44A158.51,158.51,0,0,1,486,353.94a180.63,180.63,0,0,1,16.33-11.67,42.84,42.84,0,0,1,4.33-2.33c1.62-.81,3.14-1.8,4.72-2.69,3.12-1.77,6.36-3.37,9.64-4.82,11.81-5.22,25.49-8.4,38.44-6.76,12.34,1.57,22.88,9,30.42,18.58,8.75,11.15,13.71,24.95,16.63,38.68,1.56,7.35,1.89,14.69,2.22,22.17s1.43,15.09,1.42,22.7a109.92,109.92,0,0,1-7.62,40.07,82.45,82.45,0,0,1-9.33,17.26c-1.5,2.13-3.44,4.07-5.92,4.73a5.31,5.31,0,0,1-2.93,0,7.5,7.5,0,0,1-3.21-2.32,22.85,22.85,0,0,1-4.06-8.22,35.55,35.55,0,0,1-1.59-10.08C575.43,465.35,569.43,465.34,569.48,469.21Z"/><path class="cls-3" d="M483.24,479.38c-1.15-1.24-1.86-2.85-3.07-4.06a9.14,9.14,0,0,0-5-2.52c-4.16-.67-7.88,1.13-11.06,3.67-2,1.59-3.78,3.44-5.62,5.21a27.26,27.26,0,0,1-5.78,4.66l-.7.37c-.49.27.31-.06-.21.09l-.7.23c-.3.07-1,.12-.36.1-.23,0-.47,0-.69,0-.5.06.37.16-.12,0-.26-.08-.52-.13-.79-.22l.16.06-.44-.24c-.14-.09-.63-.46-.27-.17-.23-.19-.44-.39-.65-.6a7.76,7.76,0,0,1-1.22-1.61,23.24,23.24,0,0,1-2.1-4.42c-2.42-6.78-2.86-14.13-3.19-21.26a97.93,97.93,0,0,1,1.66-24.29,79.66,79.66,0,0,1,7.43-20.79c6.76-13,16.36-24.29,26.39-34.91,10.27-10.88,20.89-21.79,33.21-30.38A87,87,0,0,1,530,337.68a53,53,0,0,1,10.13-2.81,14.66,14.66,0,0,1,2.29-.13,5.51,5.51,0,0,1,1.87.29,4.23,4.23,0,0,1,1.41.69A7,7,0,0,1,547,337c2,2.77,2.82,6.33,3.66,9.6.92,3.57,1.93,7.12,2.85,10.7,1.87,7.28,3.55,14.62,4.73,22.06,2.31,14.61,2.6,29.92-2.14,44.1a50.64,50.64,0,0,1-11.26,18.6,110.13,110.13,0,0,1-17.1,14.8,207.85,207.85,0,0,1-20.25,12.46c-3.68,2-7.41,4-11.14,5.91-2.61,1.35-5,3.09-7.69,4.29a10.76,10.76,0,0,1-3,.81c-.14,0-.88,0-.41,0a4.53,4.53,0,0,1-.88-.22c-.61-.2-.24-.1-.14-.05a3.38,3.38,0,0,1-.41-.24,3.75,3.75,0,0,1-.6-.5c-2.78-2.68-7,1.55-4.24,4.24,5.75,5.55,12.84,1.2,18.44-2.11,3.42-2,7.05-3.71,10.54-5.59,3.81-2.05,7.59-4.16,11.3-6.39a159.21,159.21,0,0,0,20-14,83.89,83.89,0,0,0,16.57-17.71c8.81-13.25,10.74-30.52,9.76-46a164.53,164.53,0,0,0-3.44-23.88c-1.61-7.57-3.71-15-5.63-22.49-1-3.74-1.93-7.63-4-10.92a11.9,11.9,0,0,0-9.4-5.73c-3.61-.3-7.39.79-10.82,1.82a82.62,82.62,0,0,0-11.69,4.58c-14.44,6.9-26.69,17.74-37.92,28.95-11,11-21.91,22.44-30.69,35.35a102.93,102.93,0,0,0-10.85,20.34,86.75,86.75,0,0,0-5.5,24.73,125.75,125.75,0,0,0,.55,24.38,58.39,58.39,0,0,0,2.31,11.64c1.13,3.49,2.71,7.27,5.4,9.86A9.08,9.08,0,0,0,452,493c2.75-.48,5.15-2.22,7.28-3.94s4.18-3.83,6.23-5.78c.92-.88,1.85-1.74,2.84-2.53.27-.22-.07.06-.11.08l.7-.5c.36-.24.72-.47,1.1-.68a7.47,7.47,0,0,1,2.46-.92,3.92,3.92,0,0,1,3.27.74c1.3,1.13,2,2.92,3.22,4.19C481.63,486.45,485.87,482.2,483.24,479.38Z"/><path class="cls-3" d="M563,456.05c-4.59,11.9-5.33,24.8-5.69,37.42-.16,6-.18,12.09-.36,18.13a71.85,71.85,0,0,1-2.21,17.4c-1.3,4.64-3.69,10.66-8,12.54a11.15,11.15,0,0,1-1.49.46c-.09,0-.6.11-.09,0a6.35,6.35,0,0,1-.87.05c-.19,0-.37,0-.56,0,.57,0,0,0-.17,0l-.66-.18c-.68-.17.3.24-.3-.12-.24-.15-.48-.28-.71-.43.1.07.38.34-.06-.06-.18-.16-.35-.33-.52-.5s-.46-.57-.19-.2a6.41,6.41,0,0,1-1.22-2.78c-2.84-11.53-3-23.57-6.43-35-1.64-5.42-3.75-11.69-8.47-15.19s-10.33-2.32-14.56,1.13-6.09,8.74-8,13.67a22,22,0,0,1-3,6,7.16,7.16,0,0,1-2.56,2.12,5.52,5.52,0,0,1-2.6.47,6.51,6.51,0,0,1-4.51-3,11.17,11.17,0,0,1-1.55-7.09,22.23,22.23,0,0,1,.53-3.82c0-.07.24-.85.16-.75.35-.45,1.45-.68,1.92-.86,3.08-1.18,6.12-2.44,9.15-3.76a187.9,187.9,0,0,0,26.86-14.23c17-10.94,32.61-25.27,41.85-43.51a78.5,78.5,0,0,0,8.61-32.9c.43-13-2.38-25.95-6.35-38.29a154.87,154.87,0,0,0-5.71-15.93c-.65-1.45-1.33-2.89-2-4.34-.19-.43-.38-.85-.56-1.28-.36-.84.12.3-.09-.2l-.27-.66c-.37-.92-.72-1.83-1-2.76-.26-.78-.5-1.56-.68-2.35-.09-.37-.16-.74-.23-1.12.17.88,0-.35,0-.59,0-.79-.23.51,0-.17.16-.44-.15.32-.16.32.23-.36,0-.34-.17.18,0-.09.18-.1.51-.17a6.6,6.6,0,0,1,1.57,0c4.47.37,9.08,2.69,12.71,5.47,8.45,6.48,14.2,16.42,18.58,25.94A116.8,116.8,0,0,1,603,399.15a175.25,175.25,0,0,1,.5,35.55,137.57,137.57,0,0,1-7,35.14c-1.46,4.11-3.56,9.87-8,11.33-1.92.64-3.68.6-4.68-1.2-1.24-2.24-1.35-5.45-1.7-8-.44-3.13-.78-6.28-1.11-9.43s-.49-6.58-1.09-9.79c-.87-4.62-5-9.63-10.15-7-3.71,1.92-5.34,6.64-6.75,10.27a3,3,0,0,0,2.09,3.69,3.07,3.07,0,0,0,3.69-2.09l.41-1,.3-.74c-.19.46,0,0,0-.08a24.77,24.77,0,0,1,1.56-3c.16-.26.32-.52.5-.76-.25.35,0,0,.08-.09s1-1.06.57-.63c.4-.37.5,0,.15-.15.28.1.19-.07-.12,0h.29c.37,0,.37,0,0,0,.29.09.33.1.13,0s-.17,0,.1.09l-.19-.15c.13.12.26.25.38.38-.08-.08-.31-.46,0,0,.11.15.68,1.25.49.8a9,9,0,0,1,.43,1.33c.07.25.11.51.17.77.2.83-.1-1.11.05.39.36,3.41.72,6.83,1.09,10.24s.81,7,1.34,10.53c.44,2.92.85,6,2.67,8.42,4,5.35,11.54,4,15.94,0s6.37-10.24,8.12-15.75a129.57,129.57,0,0,0,4.25-18,193,193,0,0,0,2.45-36.88,137.19,137.19,0,0,0-5.92-36.92c-3.54-11.38-8.72-22.58-16-32.06a50.1,50.1,0,0,0-12-11.62,33.15,33.15,0,0,0-7.31-3.61,21.44,21.44,0,0,0-7.9-1.42c-2.6.14-5.47,1.32-6.23,4.05a10.51,10.51,0,0,0,.22,5.25,61.45,61.45,0,0,0,4.28,10.94l.9,2c.17.38.36.93.09.2l.52,1.38q1.77,4.81,3.43,9.67a157.31,157.31,0,0,1,5.4,19.53c2.5,12.48,2.63,25.37-1,37.65-5.73,19.48-19.53,35.59-35.59,47.66A170.83,170.83,0,0,1,506,482.28q-7.6,3.75-15.5,6.85a30.07,30.07,0,0,0-4.35,1.78,6.85,6.85,0,0,0-3.15,4.16,24.47,24.47,0,0,0-.64,10c.77,5.37,4.69,10.64,10.26,11.64,6.23,1.13,11.26-3.09,13.79-8.45,2.12-4.5,3.21-9.93,6.5-13.63a11,11,0,0,1,2.68-2.26,6.79,6.79,0,0,1,2.6-.93,5,5,0,0,1,2.27.38,6.69,6.69,0,0,1,2.4,1.88c1.61,1.83,2.69,4.61,3.58,7a71.2,71.2,0,0,1,2.55,8.71c1.36,6,2.12,12.07,3,18.13.44,3,.92,6.07,1.52,9.08.56,2.84,1.22,5.51,3.06,7.81,3.3,4.1,8.89,4.51,13.36,2.2,5.55-2.88,8.42-9.05,10.2-14.74a71.72,71.72,0,0,0,2.74-18.49c.51-12.6,0-25.27,1.55-37.82a75.08,75.08,0,0,1,4.34-17.91,3,3,0,0,0-2.09-3.69A3.05,3.05,0,0,0,563,456.05Z"/><path class="cls-3" d="M363.48,568.17c-.34.11-.68.21-1,.3s-1.26.21-.47.12a14,14,0,0,1-2.42.07c-.2,0-1.38-.15-.56,0-.38,0-.77-.12-1.15-.2a22.6,22.6,0,0,1-2.56-.72c-.4-.14-.79-.3-1.18-.45-.77-.3.35.16-.12,0l-.59-.27c-.9-.42-1.77-.88-2.62-1.38s-1.6-1-2.37-1.49c-.4-.27-.79-.55-1.18-.83l-.47-.34-.55-.42a62.35,62.35,0,0,1-8.87-8.55c-.65-.76-1.28-1.52-1.89-2.31s.33.45-.25-.32c-.11-.16-.23-.31-.35-.47-.34-.46-.68-.93-1-1.4a53.62,53.62,0,0,1-3-4.88c-.46-.85-.9-1.71-1.29-2.58-.09-.18-.17-.37-.25-.55.3.66,0,0-.05-.15-.16-.41-.32-.83-.47-1.26a21.48,21.48,0,0,1-.66-2.38c0-.13,0-.26-.07-.38-.18-.85,0,.4,0-.12,0-.35-.06-.69-.07-1-.08-3.85-6.05-3.87-6,0,.05,3.61.09,7.21.14,10.82,0,1.77.1,3.54.06,5.31a4,4,0,0,1-.05.77c-.08,0,.3-.34.31-.37.09-.27.61.29-.18-.09a7.23,7.23,0,0,1-.69-.25,3,3,0,0,0-1.6,5.78c2.24.77,4.93.67,6.64-1.17s1.58-4.24,1.55-6.54l-.18-14.26h-6a24.36,24.36,0,0,0,3,10.13,57.87,57.87,0,0,0,7,10.57c5.54,6.82,12.54,13.1,20.8,16.35,3.86,1.52,8.31,2.14,12.33.81a3.06,3.06,0,0,0,2.09-3.69,3,3,0,0,0-3.69-2.09Z"/><path class="cls-3" d="M642.47,246.92a209.07,209.07,0,0,0-53.56-60.63c-21-16-46.46-29-73.16-30.6-17.56-1-35.41.13-52.85,2.2-3.73.44-4,6,0,6-.46,0-.9-.33-.91-.26a8,8,0,0,0,.81.85,22.6,22.6,0,0,1,1.63,2.25c1.28,1.93,2.45,3.94,3.59,6a59.77,59.77,0,0,1,6.34,16.1c3.15,14.13.86,31.56-8.81,42.87a17,17,0,0,1-8.45,5.77,9.44,9.44,0,0,1-4.66.17c-1.28-.34-2.46-1.08-3.71-1.54-2.56-.93-5.43-.86-7.33,1.31-1.7,1.94-1.92,4.79-1.92,7.25,0,2.64.39,5.27.55,7.9a14.32,14.32,0,0,1-1.44,7.18,19.87,19.87,0,0,1-14.92,11.72c-7.57,1.26-15.34-1.32-21.71-5.29-5.68-3.54-11.34-8.88-18-10.54-4.58-1.16-5.86,3.46-6.57,6.91a87.34,87.34,0,0,1-6.24,19.38c-4.7,10.11-15.34,18-26.95,15-5.7-1.47-10.67-5.23-14.91-9.18-2-1.89-6.41-6.83-8.9-2.54-1.68,2.88,1.78,7.31,3,9.81A44,44,0,0,1,328,313.75c0,5.29-1.52,9.4-6.3,12.22a14.14,14.14,0,0,1-8.74,2c-2.59-.32-4.57-1.7-6.74-3-2.74-1.63-6.49-1.65-7.67,1.81-.77,2.26-.26,4.9.08,7.19a185.48,185.48,0,0,0,4.09,18.35,71.69,71.69,0,0,1,2,8.41,7,7,0,0,1-.31,3.72c-1.71,4.12-6.55,6.72-10.75,7.15-6.05.62-11-2.64-15.93-5.72-2.37-1.49-4.61-3.2-7-4.68-1.51-.94-3.27-1.63-5-.71-4.12,2.23-.85,8.42.38,11.4.45,1.09.91,2.18,1.32,3.29.15.41.3.83.43,1.25,0,.13.32,1.34.28.9a22.92,22.92,0,0,1-.64,5.33c-.78,4.84-1.8,9.63-2.82,14.42-2.38,11.23-4.81,22.47-6.12,33.88-1.21,10.55-1.64,21.85,1.73,32.08,3,9.05,12.94,23.69,23.71,15.17a21.3,21.3,0,0,0,5.81-8.11c1.25-2.69,2.6-6.91,5.48-8.3,5.13-2.47,6.56,13.07,6.83,15.85.69,7,.84,14.09,1.52,21.11.81,8.28,1.69,16.58,3.25,24.76a118.8,118.8,0,0,0,2.82,11.75c.86,2.9,1.86,6.34,4.91,7.64a3.09,3.09,0,0,0,4.1-1.08c1.49-2.39,2.74-4.92,4.13-7.37a20.92,20.92,0,0,1,2-3.15,7.39,7.39,0,0,1,.67-.7s.68-.63.39-.29c.05-.06-.24.2-.33,0a8.11,8.11,0,0,0,.92.83,18.82,18.82,0,0,1,2.6,4.55c2,4.24,3.94,8.44,6.19,12.53,3.1,5.62,6.71,11.72,12.73,14.62,4.52,2.18,9.75,1.8,13.17-2.15,4.64-5.35,3.56-12.47,5.62-18.77,1-3.18,3.29-5.86,6.91-5.6,3.87.29,6.83,3.12,9.21,5.91,10.45,12.3,13.24,29.21,23.57,41.67,3.46,4.17,9.23,11.23,15.51,9.5,4.66-1.29,6.8-6.59,8.14-10.74,1.61-5,2.21-10.27,4.31-15.08,1.47-3.36,4.16-7,8.15-7.19s7.1,3.42,9.44,6.08a57.22,57.22,0,0,1,7.48,10.72,60.92,60.92,0,0,0,4.78,8.39c2,2.69,4.7,4.62,8.18,4.75,3.23.12,5.63-1.78,8-3.74,5.8-4.86,14.62-4,19.9,1.24,4.86,4.83,7,12,8.3,18.59,1,5.09,1.7,10.24,3.3,15.19,1.52,4.67,4,10.32,9.11,11.91,8.67,2.7,14.11-6.2,17.25-12.64,3.66-7.5,8.72-15.55,15.38-20.77,1.65-1.29,3.68-2.43,5.66-1.71s3.38,2.26,4.8,3.57c4.13,3.8,9,8,15,7.5,8.81-.75,13-9.12,15.57-16.51,2.43-7.07,4.11-14.37,6-21.61,1.9-7.42,3.87-15,7-22,2.75-6,6.15-12,12.85-14.17a17.78,17.78,0,0,1,9.43-.46c3.06.73,5.3,2.65,8.12,3.85a9.6,9.6,0,0,0,11.64-2.76c3-3.71,4.43-8.6,5.66-13.15,1.16-4.34,2.16-9.19,3.85-12.91a250.33,250.33,0,0,0,17-51c6.82-31.89,7.59-65,3.56-97.34a313.46,313.46,0,0,0-26.79-94.26q-4.89-10.39-10.65-20.33c-1.94-3.34-7.12-.33-5.18,3,16.14,27.84,27,58.59,33.16,90.11A303.45,303.45,0,0,1,674,437.42,243.74,243.74,0,0,1,662.5,486q-2.36,6.72-5.08,13.3c-1.49,3.59-3.31,7.08-4.65,10.73-1.57,4.24-2.35,8.76-3.61,13.09-1,3.34-2.42,8.55-5.28,10.11-.94.51-2.2.45-3.82-.35-2.84-1.4-5.2-3.17-8.38-3.92a23.81,23.81,0,0,0-19.36,3.87c-5.66,4.18-8.82,11.08-11.36,17.45-5.65,14.15-7.45,29.49-12.91,43.69-1.39,3.63-3.5,7.54-7.32,9-2.85,1.11-5.57,0-8-1.62-4-2.68-6.81-7-11.43-8.67-6.29-2.28-11.8,2.63-15.75,6.92-6,6.46-10,13.72-14,21.44-1.51,2.91-4.37,7.54-8.33,6.79-1.75-.34-2.93-2.18-3.75-3.72-2.5-4.63-3.37-10.17-4.29-15.29-2.26-12.68-7-28.78-21.85-31.17a22.18,22.18,0,0,0-12,1.26c-2.79,1.17-4.58,3.61-7.18,5s-4.64-1.2-5.91-3.21c-1.75-2.78-3-5.83-4.69-8.64a66.52,66.52,0,0,0-8.08-10.8c-2.6-2.82-5.76-5.54-9.57-6.51-8.44-2.15-14.76,4.83-17.51,12-1.81,4.72-2.49,9.75-4.07,14.54a16.26,16.26,0,0,1-2.61,5.37c-1,1.18-1.5,1.32-3,.56-3.19-1.62-6-5.14-8.18-7.86a59.13,59.13,0,0,1-6.59-10.45c-3.59-7-6.36-14.46-10.2-21.37-3.62-6.52-8.47-13.79-15.81-16.39-7.72-2.75-14.46,1.81-16.87,9.17-1.14,3.49-1.12,7.13-1.88,10.68-.47,2.2-1.22,4.9-3.06,6.37-3.26,2.62-7.73-1-10.14-3.72-2.54-2.83-4.3-6.29-6.09-9.6-2.16-4-4-8.1-5.93-12.16-2.26-4.63-7-10.37-12.26-5.85-3.77,3.24-5.54,8.65-8.11,12.79l4.1-1.08c-1.27-.54-1.51-2-1.89-3.2q-.92-3-1.66-6.05c-1-4.06-1.77-8.16-2.4-12.29-1.24-8-2.12-16.19-2.64-24.31-.46-7-.61-14.07-1.82-21-1-5.8-2.95-14.55-10.1-15.3-7.89-.82-10.71,8.41-13.63,13.85-1.31,2.43-3.69,5.84-6.9,5.28-2.52-.44-4.65-2.89-6.16-4.82-6-7.69-6.91-18.33-6.69-27.73.27-11.43,2.39-22.74,4.7-33.91,2-9.79,4.59-19.61,5.62-29.58.43-4.2-2.32-8.3-3.67-12.13-.2-.56-.64-2.16-.66-2.19-.23-.34.15-.05,0-.1.34.1-1.81,1.46-2.46,1.79-.37.18-.8-.46-.13,0,2,1.54,4.29,2.94,6.44,4.32,5.07,3.27,10.05,6.39,16.15,7.13A20.49,20.49,0,0,0,304,373.88c4-2.84,7.09-7.2,6.81-12.27-.34-6.21-2.71-12.44-4.13-18.45-1-4.29-2.26-8.88-2.44-13.06,0-.46,0-.93,0-1.39,0,.07-.19.47.1-.21-.13.3-.55.86-.38.74-.57.4-.74.16-1.38.53-.26.14-.23-.13.32.22,5.12,3.27,10.39,5,16.47,3.42,5.34-1.4,10.56-5.09,12.89-10.19,2.64-5.79,2-12.83.72-18.88a65.08,65.08,0,0,0-6-15.52c-.34-.66-.7-1.31-1-2,.11.26.09-.19-.09-.26-.72-.25,2.1,0,0,.35.06,0-4.07,3.05-3.84,2.32,0,0,.45.37.18.11.26.25.54.48.81.73.72.67,1.42,1.36,2.14,2A46.28,46.28,0,0,0,340.59,302c11.27,4.12,23.78-.76,31.17-9.72,4.35-5.29,7-12.17,9.08-18.63a93.47,93.47,0,0,0,2.32-9.33c.19-.92.38-1.83.61-2.74.06-.24.11-1,.15-.61a2.55,2.55,0,0,1,.17-.33c.13,0-.72.56-1,.68-.45.17-.82-.22-.58.07a11.2,11.2,0,0,0,2.38,1,46.25,46.25,0,0,1,4.89,2.78c3,1.91,5.83,4,8.83,5.92a40.18,40.18,0,0,0,21.31,6.59,25.86,25.86,0,0,0,19.21-8.08c3.88-4.22,7.09-10.25,6.95-16.12-.07-2.59-.47-5.16-.57-7.75a16,16,0,0,1,.1-3.39c.05-.27.11-.87.3-1-.17.16-.36.13,0,.16a12.7,12.7,0,0,1,3.56,1.38,12,12,0,0,0,4.58.95,18.8,18.8,0,0,0,10.18-3c6-3.86,9.95-10.29,12.69-16.72a59.23,59.23,0,0,0,4.7-22.12c.27-12.94-3.9-24.93-10.53-35.86-1.71-2.81-4.34-8.15-8.21-8.18v6a344.44,344.44,0,0,1,45.63-2.45,100.86,100.86,0,0,1,21.57,2.2,122.79,122.79,0,0,1,18.66,6.16c23.22,9.56,43.83,25.09,61,43.3a203.75,203.75,0,0,1,27.56,36.84C639.24,253.28,644.43,250.26,642.47,246.92Z"/><path class="cls-3" d="M465.7,167.08a4.09,4.09,0,0,1-1-.27c.63.3-.24-.3,0-.05.36.42.79.78,1.15,1.21l.34.42c.27.33-.32-.43,0-.07l.65.9c.46.65.9,1.31,1.33,2,1.54,2.4,3,4.88,4.32,7.39a54.51,54.51,0,0,1,6.43,27.87c-.35,9.84-3.39,20.07-9.4,28-2.73,3.58-6.46,6.61-11,7.34a11.6,11.6,0,0,1-1.57.12h-.86c-.11,0-1-.11-.5,0a6.32,6.32,0,0,1-1-.29l-.55-.21c.48.19-.34-.15-.43-.18-2-.85-4-1.85-6.22-1.64-4.66.43-5.82,5.11-5.84,9,0,3.47.77,6.93.62,10.39a2.93,2.93,0,0,0,0,.41c0,.41.2-.74,0-.18s-.2.95-.33,1.42a23.16,23.16,0,0,1-.95,2.88,22.26,22.26,0,0,1-3.18,5.29,19.91,19.91,0,0,1-10.71,6.77,29,29,0,0,1-15.13-.78,48.14,48.14,0,0,1-12.91-6.58c-4.16-2.78-8.25-5.62-12.89-7.54-1.54-.64-3-1.25-4.69-.75a5.13,5.13,0,0,0-3.13,3.38c-1.1,2.85-1.39,6-2.14,9A79.35,79.35,0,0,1,371,286.12a28.65,28.65,0,0,1-6.36,9.15c-.39.38-.8.75-1.21,1.1l-.79.67-.18.14c.3-.24-.35.26-.42.32a29,29,0,0,1-4.74,2.82,16.43,16.43,0,0,1-2.38.93,25,25,0,0,1-3.51.86,21.08,21.08,0,0,1-7-.05,29.68,29.68,0,0,1-11.46-5.21,78.89,78.89,0,0,1-7.36-6.25,12.22,12.22,0,0,0-2.49-1.93,3.62,3.62,0,0,0-4.89,1.23c-1.45,2.52.77,5.7,1.83,8l.51,1.12c.05.12.51,1.19.33.75.36.88.7,1.78,1,2.69a27.65,27.65,0,0,1,1.3,5.76,21.51,21.51,0,0,1-.28,5.9c-.16.81-.34,1.62-.56,2.41-.12.4-.25.79-.39,1.18a5,5,0,0,1-.47,1.06,7.66,7.66,0,0,1-3.41,3.48c.32-.14-.22.09-.3.11s-.44.15-.67.21-.73.17-1.1.24c.6-.11-.55,0-.74,0-.49,0-1,0-1.45,0s-.88-.06-1.32-.11c.57.06-.46-.08-.65-.12-.94-.16-1.86-.38-2.78-.61-1.68-.42-3.33-.92-5-1.35-2.93-.74-6.54-1.5-9.22.39-4.91,3.47-1.35,10.34,0,14.77a147.75,147.75,0,0,1,3.77,14.94c.2,1.05.38,2.11.54,3.17.09.64.16,1.15.25,2.17a29.47,29.47,0,0,1,.12,4.2c0,.28,0,.56-.07.85-.07.86.06-.19,0,.12s-.16.9-.28,1.34-.26.76-.38,1.15.38-.77.07-.17l-.26.52c-.16.32-.34.64-.53.94s-.27.44-.42.65-.22.31-.33.46.31-.34-.08.09-.64.73-1,1.07l-.46.42s-.44.35-.14.13a6.92,6.92,0,0,1-2.49,1.24l-.54.13c-.65.15.55,0,.17,0-.2,0-.43,0-.63,0h-.47c.57,0-.35-.06-.5-.1s-.55-.12-.82-.2A22.4,22.4,0,0,1,288,368c-.54-.21.69.31-.29-.12l-.63-.28-1.35-.65c-1.29-.63-2.56-1.29-3.81-2-1.09-.61-2.15-1.27-3.18-2s-1.62-1.15-2.36-1.75c-2.24-1.84-4.45-4.49-7.39-5.17a8.6,8.6,0,0,0-7.59,2.37c-3.11,2.77-4.87,6.94-6.35,10.71a3.08,3.08,0,0,0,2.14,3.78,3.14,3.14,0,0,0,3.78-2.14,30.76,30.76,0,0,1,3.08-6.05c.1-.16.82-1.08.42-.61.21-.25.42-.5.64-.73s.47-.45.71-.68.56-.39-.09.05c.15-.1.29-.21.44-.3s.4-.2.57-.32-.71.18,0,0a5.47,5.47,0,0,0,.58-.15c.45-.17-.68.46-.45.05a1.85,1.85,0,0,1,.47,0c.78.13-.45-.26,0,0,.24.12,1,.51.18,0,.19.12.41.21.6.34s.9.66.31.18c3.13,2.54,6.05,5.21,9.55,7.27s7.62,4.4,11.72,5.21c6.19,1.22,11.86-2.89,14.42-8.4s1.46-11.88.37-17.56a147,147,0,0,0-3.76-14.94c-.51-1.67-1-3.32-1.55-5-.11-.35-1.11-2.95-.82-3.21-.06.05,0,.91,0,.17a2.92,2.92,0,0,0,0-.51c0,.15-.21.82,0,.25s-.4.74-.09.2-.12.11-.17.17c.54-.62-.27.11.06-.11.6-.39-.38,0,0,0a1.54,1.54,0,0,0,.35-.1c.53-.22-.64,0-.08,0,.3,0,.61,0,.91,0s1.24.16.4,0c.79.13,1.56.29,2.33.48,1.71.43,3.4.94,5.11,1.38,3.7.94,7.69,1.63,11.45.61,4.6-1.26,7.66-4.94,9.2-9.31a27.52,27.52,0,0,0,1.17-12.89,41.27,41.27,0,0,0-3.81-11.62l-.87-1.82-.41-.9c-.1-.2-.12-.49.11.27-.05-.15-.12-.28-.16-.42a1.8,1.8,0,0,0-.15-.48c-.17-.25.07.44.07.53,0-.44-.18.86-.09.55a2.76,2.76,0,0,1-3.28,1.86c.52.13-.85-.18-.26-.11.08,0,.76.45.19.11s.15.14.27.24c.44.38.87.78,1.3,1.18,1.2,1.12,2.41,2.24,3.66,3.3a46.88,46.88,0,0,0,12,7.5,27.71,27.71,0,0,0,14.58,1.72,31.51,31.51,0,0,0,18.92-10.83c3.18-3.7,5.15-8,7-12.46A79.85,79.85,0,0,0,382.66,271c.33-1.54.61-3.09,1-4.62.07-.27.15-.53.23-.8.14-.48.26-.48,0,0a2.21,2.21,0,0,0,.28-.52c0,.17-.45.5-.54.56a2.47,2.47,0,0,1-1,.27c.42,0-.53,0-.48-.08a1,1,0,0,1,.3.08c1,.43,2,.78,3,1.27a58.53,58.53,0,0,1,6.26,3.67c4.14,2.71,8.15,5.69,12.68,7.75a41,41,0,0,0,16.18,3.83,27.88,27.88,0,0,0,15.26-3.92,27.06,27.06,0,0,0,9.57-10.35,21.5,21.5,0,0,0,2.76-11.57c-.12-1.8-.33-3.59-.45-5.38-.06-.9-.1-1.8-.09-2.71,0-.42,0-.84.05-1.26,0-.18,0-.35.05-.53-.08.74,0-.06,0-.18.08-.3.17-.59.25-.89-.24.94.3-.46,0,0s0-.08.13-.12c-.19.09-.31.21-.52.29.48-.19.12-.06-.05,0,.11,0,.91.07.29,0a8.43,8.43,0,0,1,1.33.37l.76.29c-.13-.05-.41-.18.17.07,1,.42,2,.91,3,1.24a15.48,15.48,0,0,0,8-.12,20.47,20.47,0,0,0,7.26-3.47c8.34-6.18,13.17-17,15.28-26.87a61.21,61.21,0,0,0-1.79-32.1,75.69,75.69,0,0,0-9.74-18.81c-1.43-2-3.59-5.43-6.49-5.29a3.15,3.15,0,0,0-3.08,3.07,3.11,3.11,0,0,0,3.08,3.08Z"/><path class="cls-3" d="M566.19,327.15c17.23,5.31,28.58,21.06,34.84,37.21A106,106,0,0,1,608.16,394c.41,5.24.45,10.51.82,15.76s1,10.55,1.14,15.88c.35,18.69-4,38.25-13.58,54.39-2,3.41-4.16,7.35-7.67,9.25a5.93,5.93,0,0,1-4.18.7,7.86,7.86,0,0,1-4.21-3.26,30.86,30.86,0,0,1-4.73-13.21c-.34-2.63-.28-5.27-.62-7.9-.3-2.3-.47-5.2-1.94-7.1a3.35,3.35,0,0,0-5.06-.4,8.13,8.13,0,0,0-1.72,4.05c-1.93,8.5-2.1,17.29-1.89,26,.4,16.69,2.75,34.93-4.82,50.44-1.85,3.77-4.16,7.64-7.57,10.21a12.9,12.9,0,0,1-9.44,2.67,10.14,10.14,0,0,1-7.24-4.38c-2.52-4-3.12-9.2-3.92-13.74-.89-5-1.34-10.11-2-15.18A50.92,50.92,0,0,0,526.79,506c-1.34-3.43-3.07-7-6.18-9.17a6.83,6.83,0,0,0-5.73-1.05,9.33,9.33,0,0,0-5.27,4.81c-1.82,3.42-2.7,7.48-4.35,10.72a9.28,9.28,0,0,1-7.18,5.39c-.06,0-.7.1-.38.06l-.38,0c-.42,0-.84,0-1.26,0a8.43,8.43,0,0,1-2.18-.23,12.26,12.26,0,0,1-4.29-1.65,11.89,11.89,0,0,1-5.64-7.89c-1.06-4.4-.49-9-1-13.49s-1.83-10.37-6.47-12.47a7.11,7.11,0,0,0-7.34.81c-1.62,1.19-3.17,2.5-4.71,3.79a52.35,52.35,0,0,1-9.68,6.92c-3.07,1.56-6.29,2.18-9.62.43a3,3,0,0,0-3,5.18,15.44,15.44,0,0,0,13.14.7,43.15,43.15,0,0,0,11.12-7.09c1.54-1.25,3.05-2.55,4.59-3.8,1-.84,2.17-2.31,3.52-1.21s1.85,3.38,2.19,5a36.15,36.15,0,0,1,.55,6.66c.12,5,.26,10,2.54,14.56a17.67,17.67,0,0,0,8,7.74c7.37,3.55,16.78,2.43,21.59-4.69,2.28-3.36,3.12-7.43,4.71-11.11.46-1.07,1.47-3.31,2.69-3.51-.43.07-.15,0,.17.14-.6-.23.22.15.39.25s.43.34,0,0a4.48,4.48,0,0,1,.4.36c.21.2.72.75.71.75a22.08,22.08,0,0,1,3.66,8.09c1.36,4.82,1.65,9.81,2.26,14.76a147.22,147.22,0,0,0,2.73,16c1.05,4.48,2.78,9,6.48,12,6.9,5.5,16.52,4.28,23.06-1.12a33,33,0,0,0,8.1-11A55.05,55.05,0,0,0,569.21,529c1.91-8.77,2-17.8,1.78-26.73s-.85-17.87-.35-26.8a68.24,68.24,0,0,1,1.69-12.34c.08-.35.18-.69.27-1,.17-.58.19-.41,0-.09.13-.24.21-.11-.08.07l-.17.22a1.85,1.85,0,0,1-2.18.53,2.1,2.1,0,0,1-1.71-.73c-.35-.29-.18-.23-.07,0s-.23-.74,0-.08c.06.21.14.43.19.65a18,18,0,0,1,.38,1.77c.11.58.19,1.16.28,1.74-.1-.68,0,0,0,.26l.09.89c.1.95.14,1.88.17,2.84A41.3,41.3,0,0,0,573,485.48c1.94,4.39,5,8.83,9.89,10.18,4.57,1.27,9.24-.73,12.53-3.9a31.63,31.63,0,0,0,4.24-5.52q1.93-2.92,3.62-6a97.72,97.72,0,0,0,5.91-13.17,118.2,118.2,0,0,0,6.34-28.34,108,108,0,0,0,.47-16.08c-.23-5.38-1-10.72-1.24-16.09s-.34-10.85-1-16.23a113,113,0,0,0-3.1-15.58c-5-18.54-14.39-37.37-31.06-47.94a49,49,0,0,0-11.86-5.44c-3.7-1.14-5.28,4.65-1.6,5.78Z"/><path class="cls-3" d="M431,482.75c-.48-1-.14-.26-.06,0l.21.56c.15.41.3.82.47,1.22.35.89.73,1.78,1.13,2.66a30.77,30.77,0,0,0,2.36,4.24,20.66,20.66,0,0,0,7.05,6.83,3,3,0,1,0,3-5.18c-.29-.16-.57-.33-.85-.51s-.72-.36-.82-.57l.21.17-.24-.2-.3-.26c-.26-.23-.51-.46-.75-.7a20.76,20.76,0,0,1-1.4-1.56c-.46-.56.38.53-.05-.07-.09-.11-.17-.23-.26-.35-.23-.32-.46-.65-.67-1a31.31,31.31,0,0,1-2.16-4,5.05,5.05,0,0,1-.24-.53c0-.08-.3-.69-.13-.29s-.09-.21-.12-.29-.14-.37-.22-.55a27,27,0,0,0-1-2.64,3,3,0,0,0-4.1-1.08,3.07,3.07,0,0,0-1.08,4.1Z"/><path class="cls-3" d="M595.73,471.85a22.41,22.41,0,0,1-3.64,6.69,7.8,7.8,0,0,1-5.24,3,2.9,2.9,0,0,1-2.4-.68,5.69,5.69,0,0,1-1.17-2.28,59.34,59.34,0,0,1-1.49-9.18c-.4-3.24-.74-6.49-1.08-9.74-.28-2.73-.29-5.68-1.15-8.3-.72-2.21-2-4.5-4.16-5.58a6.37,6.37,0,0,0-7.17,1.12,15.79,15.79,0,0,0-3.67,5.47,68.3,68.3,0,0,0-2.63,6.75,87.93,87.93,0,0,0-3.69,18.53c-1.26,12.26-.77,24.59-1.37,36.88a60.29,60.29,0,0,1-3,17.46,22,22,0,0,1-3.62,6.84,8.81,8.81,0,0,1-5.23,3.26c.6-.11-.31,0-.37,0H544c-.81,0,.46.16-.32,0-.17,0-.35-.07-.53-.13,0,0-.81-.29-.42-.12s-.41-.23-.38-.22-.72-.46-.39-.23c.18.14-.47-.42-.56-.51a6.71,6.71,0,0,1-1.1-1.73,23.82,23.82,0,0,1-1-4.1c-1.17-5.89-1.87-11.85-2.78-17.78a95.6,95.6,0,0,0-3.93-17.13c-1.77-5.05-4.1-11.05-9.24-13.53s-11.14-.29-14.8,3.95c-3.44,4-4.89,9.13-6.87,13.72-.9,2.08-2.06,4.36-3.9,5.66a5.64,5.64,0,0,1-2.64,1,5.28,5.28,0,0,1-2.46-.4,7.84,7.84,0,0,1-3.92-4.34,15.56,15.56,0,0,1-.3-7.93c.19-1.09.12-1.88,1.06-2.33,1.24-.6,2.62-1,3.9-1.52q4.52-1.8,8.94-3.8,6.77-3,13.27-6.56c18-9.75,34.75-22.61,46.59-39.45A83.79,83.79,0,0,0,575,417.16c3.23-12.67,2.75-25.86.15-38.6a158.1,158.1,0,0,0-5.31-19.07,143.8,143.8,0,0,0-5.15-13.8,58.38,58.38,0,0,1-3.91-9.75c-.11-.39-.21-.78-.29-1.18,0-.18-.06-.37-.1-.55-.08-.45,0,.74,0,.07a7.32,7.32,0,0,0,0-.94c0-.18.14-.65,0,.3,0-.12.22-.77,0-.21s0,.12,0,0l-.31.41.09-.09c.06.1-.8.2.24,0,0,0,.56-.11.27-.07a9.58,9.58,0,0,1,3.64.38c9.71,2.19,16.92,10.22,22.2,18.35a106.94,106.94,0,0,1,13.73,32.37,140.68,140.68,0,0,1,3.86,35.06,176.51,176.51,0,0,1-3.58,35.52,116.68,116.68,0,0,1-4.8,16.53,3,3,0,0,0,2.09,3.69,3.05,3.05,0,0,0,3.69-2.09c4.41-11.69,6.64-24.12,7.77-36.53a176.3,176.3,0,0,0-.2-36.89,127.88,127.88,0,0,0-9.73-36.39c-4.47-10.16-10.5-20.53-19.07-27.8a34.12,34.12,0,0,0-14.37-7.61c-2.86-.64-6.11-1.11-8.79.4a5.47,5.47,0,0,0-2.73,5.07c0,3.89,1.92,7.8,3.45,11.29.69,1.57,1.42,3.12,2.12,4.68l.36.8c-.42-.93-.08-.18,0,0,.64,1.67,1.23,3.36,1.83,5,4.45,12.48,8.39,25.31,9.06,38.62a72.51,72.51,0,0,1-6.29,33.76c-8.58,18.8-24.1,33.4-41.28,44.43A188.53,188.53,0,0,1,495.82,487c-3,1.29-6.16,2.29-9.11,3.68-3.38,1.58-3.93,5-4.34,8.38-.74,6,.76,12.12,5.87,15.78a11.45,11.45,0,0,0,15.42-2.23c3.55-4.18,4.62-9.72,7-14.43a13.64,13.64,0,0,1,4.44-5.47,6.84,6.84,0,0,1,2.94-1.23c-.44.07.22,0,.33,0s.52,0,.79,0c-.57,0,.39.08.43.09a7,7,0,0,1,.89.27c-.41-.16.19.11.28.16s.47.27.69.42a6,6,0,0,1,.95.81,11.78,11.78,0,0,1,2.11,3,48.54,48.54,0,0,1,3.18,8.14,122.89,122.89,0,0,1,3.58,17.93c.44,3,.86,6.09,1.34,9.13a65.86,65.86,0,0,0,1.7,8.61c1.48,4.86,5.75,8.53,11,8,5.93-.62,10.25-5.35,12.65-10.51,5.42-11.66,4.9-24.66,5.18-37.21s.33-25.62,4-37.86c.44-1.47.93-2.92,1.48-4.36l.48-1.25c.06-.16.13-.32.19-.47s.13-.34.2-.5c-.12.28-.1.25,0-.08A25.44,25.44,0,0,1,571,453l.33-.53s.58-.81.23-.37c.12-.15.25-.29.38-.43s.88-.88.38-.42a1.9,1.9,0,0,1,.43-.26c-.79.35.54,0-.4.07a2.18,2.18,0,0,1,.57,0l-.27,0c.33.11.33.1,0,0,0,0,.54.42,0,0,0,0,.64.68.25.2a4.73,4.73,0,0,1,.32.46c0,.1.55,1.08.33.57a9,9,0,0,1,.43,1.33c.06.23.28,1.48.17.67.23,1.7.37,3.42.55,5.12.35,3.42.7,6.83,1.13,10.24a87.86,87.86,0,0,0,1.52,9.95c.7,2.86,2.24,5.62,5,7a10.6,10.6,0,0,0,8.48.18c5.72-2.25,8.63-7.84,10.72-13.26a3,3,0,0,0-2.09-3.69A3.05,3.05,0,0,0,595.73,471.85Z"/><path class="cls-3" d="M483.24,479.38c-1.15-1.24-1.86-2.85-3.07-4.06a9.14,9.14,0,0,0-5-2.52c-4.16-.67-7.88,1.13-11.06,3.67-2,1.59-3.78,3.44-5.62,5.21a27.26,27.26,0,0,1-5.78,4.66l-.7.37c-.49.27.31-.06-.21.09l-.7.23c-.3.07-1,.12-.36.1-.23,0-.47,0-.69,0-.5.06.37.16-.12,0-.26-.08-.52-.13-.79-.22l.16.06-.44-.24c-.14-.09-.63-.46-.27-.17a7.45,7.45,0,0,1-.65-.6,7.76,7.76,0,0,1-1.22-1.61,23.24,23.24,0,0,1-2.1-4.42c-2.42-6.78-2.86-14.13-3.19-21.26a97.93,97.93,0,0,1,1.66-24.29,79.66,79.66,0,0,1,7.43-20.79c6.76-13,16.36-24.29,26.39-34.91,10.27-10.88,20.89-21.79,33.21-30.38A87,87,0,0,1,530,337.68a53,53,0,0,1,10.13-2.81,14.66,14.66,0,0,1,2.29-.13,5.51,5.51,0,0,1,1.87.29,4.23,4.23,0,0,1,1.41.69A7,7,0,0,1,547,337c2,2.77,2.82,6.33,3.66,9.6.92,3.57,1.93,7.12,2.85,10.7,1.87,7.28,3.55,14.62,4.73,22.06,2.31,14.61,2.6,29.92-2.14,44.1a50.64,50.64,0,0,1-11.26,18.6,110.13,110.13,0,0,1-17.1,14.8,207.85,207.85,0,0,1-20.25,12.46c-3.68,2-7.41,4-11.14,5.91-2.61,1.35-5,3.09-7.69,4.29a10.76,10.76,0,0,1-3,.81c-.14,0-.88,0-.41,0a4.53,4.53,0,0,1-.88-.22c-.61-.2-.24-.1-.14-.05a3.38,3.38,0,0,1-.41-.24,3.75,3.75,0,0,1-.6-.5c-2.78-2.68-7,1.55-4.24,4.24,5.75,5.55,12.84,1.2,18.44-2.11,3.42-2,7.05-3.71,10.54-5.59,3.81-2.05,7.59-4.16,11.3-6.39a159.21,159.21,0,0,0,20-14,83.89,83.89,0,0,0,16.57-17.71c8.81-13.25,10.74-30.52,9.76-46a164.53,164.53,0,0,0-3.44-23.88c-1.61-7.57-3.71-15-5.63-22.49-1-3.74-1.93-7.63-4-10.92a11.9,11.9,0,0,0-9.4-5.73c-3.61-.3-7.39.79-10.82,1.82a82.62,82.62,0,0,0-11.69,4.58c-14.44,6.9-26.69,17.74-37.92,28.95-11,11-21.91,22.44-30.69,35.35a102.93,102.93,0,0,0-10.85,20.34,86.75,86.75,0,0,0-5.5,24.73,125.75,125.75,0,0,0,.55,24.38,58.39,58.39,0,0,0,2.31,11.64c1.13,3.49,2.71,7.27,5.4,9.86A9.08,9.08,0,0,0,452,493c2.75-.48,5.15-2.22,7.28-3.94s4.18-3.83,6.23-5.78c.92-.88,1.85-1.74,2.84-2.53.27-.22-.07.06-.11.08l.7-.5c.36-.24.72-.47,1.1-.68a7.47,7.47,0,0,1,2.46-.92,3.92,3.92,0,0,1,3.27.74c1.3,1.13,2,2.92,3.22,4.19C481.63,486.45,485.87,482.2,483.24,479.38Z"/><path class="cls-3" d="M565.29,320.7c-13.11-3.15-27.34-.84-39.88,3.59a101.73,101.73,0,0,0-18.65,8.7c-3,1.79-6.13,3.16-9,5.12s-5.64,3.83-8.42,5.8A152.28,152.28,0,0,0,461,370.33a169.94,169.94,0,0,0-21.73,32,117.72,117.72,0,0,0-11.78,38.79c-1.6,13.06-1.18,27,2.78,39.57.14.44.27.89.44,1.32.55,1.45.24.7.14.41.28.78.57,1.56.88,2.33a43.18,43.18,0,0,0,2.22,4.72,23.67,23.67,0,0,0,5.58,6.92,16.06,16.06,0,0,0,9.12,3.7,17.61,17.61,0,0,0,8.53-2c5.29-2.49,9.59-6.66,14.1-10.29.59-.47,1.45-1.43,2.24-1.44s1.6,1.06,2,1.85c1.36,2.55,1.57,5.69,1.68,8.53.24,6.37,0,13.21,4,18.56a19.23,19.23,0,0,0,14,7.47,15.71,15.71,0,0,0,14.33-7A37.78,37.78,0,0,0,513,508c.39-1.1.86-2.41,1.26-3.29a7.63,7.63,0,0,1,2-3c.16-.1.87-.33.29-.21.12,0,.87.31.2,0,.23.11.44.25.65.37.65.36-.31-.38.22.17l.4.38a8.39,8.39,0,0,1,.56.63c-.32-.39.35.49.41.58a21.2,21.2,0,0,1,1.63,3,29,29,0,0,1,1.08,2.83c2.09,6.32,2.26,13,3.17,19.59q.76,5.58,1.93,11.08a30.28,30.28,0,0,0,3.41,9.75,16.31,16.31,0,0,0,13.8,7.57c13.3.16,20.95-13.31,24.23-24.5,3.48-11.9,3-24.53,2.58-36.78-.23-6.17-.48-12.36-.25-18.54.11-2.86.31-5.85.69-8.6.19-1.42.43-2.82.72-4.21q.19-1,.42-1.89c.06-.25.13-.5.2-.74s.5-.92,0-.14c0-.07.08-.15.13-.22a2.64,2.64,0,0,1-3.57.85c-.1-.06-.94-1-.8-.74.29.44,0-.18-.09-.27.36.25.48,1.69.55,2.08.16.79.28,1.58.4,2.37-.13-.87,0,.26,0,.47,0,.43.1.86.13,1.29.21,2.31.22,4.62.55,6.92a39.91,39.91,0,0,0,2.91,10.23c2.65,6.18,7.59,12,15,10.81,6.53-1.06,10.39-7.09,13.56-12.31a103.23,103.23,0,0,0,13.16-37.26,116.58,116.58,0,0,0,1.54-21.68c-.1-3.78-.42-7.53-.81-11.28s-.54-7.42-.69-11.14A122.89,122.89,0,0,0,612,380a119.16,119.16,0,0,0-6.45-20.38,83.51,83.51,0,0,0-10-17.72,3.09,3.09,0,0,0-4.1-1.08c-1.28.75-2.06,2.8-1.08,4.1,8.27,11,13.13,24.19,16,37.58a123.28,123.28,0,0,1,2.26,21.18c.3,7.33,1.33,14.6,1.46,21.94a110.86,110.86,0,0,1-6.32,38.87,86.3,86.3,0,0,1-8,16.79c-1.55,2.49-3.08,5.19-5.39,7-1.67,1.32-3.87,2.16-5.69,1.67-2.64-.71-4.34-3.18-5.56-5.54a33.83,33.83,0,0,1-3.07-9.12c-.77-4-.6-8-1.27-12a12.39,12.39,0,0,0-1.26-4.31,3.45,3.45,0,0,0-6.06,0c-1.16,2.05-1.42,4.72-1.8,7a91.9,91.9,0,0,0-1,9.37c-.69,12,.61,23.91.41,35.87-.18,11.52-1.91,23.44-8.72,33.12a18.56,18.56,0,0,1-6,5.58,12.79,12.79,0,0,1-6.41,1.62,10.45,10.45,0,0,1-5.79-1.7,9.83,9.83,0,0,1-2.31-2.11A15.19,15.19,0,0,1,534,544.1a63.91,63.91,0,0,1-2.32-9.86q-1-5.36-1.55-10.76c-.64-5.91-1.19-11.88-3.36-17.46-1.71-4.36-4.63-10.32-10.07-10.47-6.71-.19-8.66,8.76-10.5,13.6a13.69,13.69,0,0,1-3.49,5.6,9.91,9.91,0,0,1-1.35.86,6.1,6.1,0,0,1-1,.49,12.91,12.91,0,0,1-1.81.53,5.89,5.89,0,0,1-1.39.19,13.71,13.71,0,0,1-1.57,0c-.32,0-.63,0-.95-.07.57.07-.45-.08-.45-.08-.52-.1-1-.22-1.54-.37-.31-.09-.61-.19-.91-.3,0,0-.88-.35-.46-.17a14.6,14.6,0,0,1-3-1.75c.39.3-.41-.34-.39-.32l-.58-.53c-.19-.19-.37-.37-.55-.57s-.76-.88-.54-.6c-3.68-4.79-2.72-11.36-3.11-17a24.44,24.44,0,0,0-2.32-9.67c-1.64-3.2-5-5.55-8.67-4.86-2.77.53-5.15,3.07-7.25,4.82s-4.05,3.41-6.23,4.92c-4.24,3-9,5.39-13.78,2.61a15.44,15.44,0,0,1-5.17-5.41,33.56,33.56,0,0,1-1.85-3.51c-.3-.64-.56-1.29-.8-1.94-.13-.32-.25-.65-.36-1s-.66-1.94-.37-1.05a76,76,0,0,1-3.44-18.43,108.48,108.48,0,0,1,4.43-38.33c3.68-12.24,9.62-23.34,16.78-33.88a170.78,170.78,0,0,1,24.05-28.52,132.52,132.52,0,0,1,14.25-11.75c2.65-1.88,5.35-3.7,8-5.54,2.87-2,6-3.34,9-5.14a89.26,89.26,0,0,1,35.89-12.69,53.71,53.71,0,0,1,18.41.76c3.76.9,5.36-4.88,1.6-5.78Z"/><path class="cls-3" d="M595.73,471.85a22.41,22.41,0,0,1-3.64,6.69,7.8,7.8,0,0,1-5.24,3,2.9,2.9,0,0,1-2.4-.68,5.69,5.69,0,0,1-1.17-2.28,59.34,59.34,0,0,1-1.49-9.18c-.4-3.24-.74-6.49-1.08-9.74-.28-2.73-.29-5.68-1.15-8.3-.72-2.21-2-4.5-4.16-5.58a6.37,6.37,0,0,0-7.17,1.12,15.79,15.79,0,0,0-3.67,5.47,68.3,68.3,0,0,0-2.63,6.75,87.93,87.93,0,0,0-3.69,18.53c-1.26,12.26-.77,24.59-1.37,36.88a60.29,60.29,0,0,1-3,17.46,22,22,0,0,1-3.62,6.84,8.81,8.81,0,0,1-5.23,3.26c.6-.11-.31,0-.37,0H544c-.81,0,.46.16-.32,0-.17,0-.35-.07-.53-.13,0,0-.81-.29-.42-.12s-.41-.23-.38-.22-.72-.46-.39-.23c.18.14-.47-.42-.56-.51a6.71,6.71,0,0,1-1.1-1.73,23.82,23.82,0,0,1-1-4.1c-1.17-5.89-1.87-11.85-2.78-17.78a95.6,95.6,0,0,0-3.93-17.13c-1.77-5.05-4.1-11.05-9.24-13.53s-11.14-.29-14.8,3.95c-3.44,4-4.89,9.13-6.87,13.72-.9,2.08-2.06,4.36-3.9,5.66a5.64,5.64,0,0,1-2.64,1,5.28,5.28,0,0,1-2.46-.4,7.84,7.84,0,0,1-3.92-4.34,15.56,15.56,0,0,1-.3-7.93c.19-1.09.12-1.88,1.06-2.33,1.24-.6,2.62-1,3.9-1.52q4.52-1.8,8.94-3.8,6.77-3,13.27-6.56c18-9.75,34.75-22.61,46.59-39.45A83.79,83.79,0,0,0,575,417.16c3.23-12.67,2.75-25.86.15-38.6a158.1,158.1,0,0,0-5.31-19.07,143.8,143.8,0,0,0-5.15-13.8,58.38,58.38,0,0,1-3.91-9.75c-.11-.39-.21-.78-.29-1.18,0-.18-.06-.37-.1-.55-.08-.45,0,.74,0,.07a7.32,7.32,0,0,0,0-.94c0-.18.14-.65,0,.3,0-.12.22-.77,0-.21s0,.12,0,0l-.31.41.09-.09c.06.1-.8.2.24,0,0,0,.56-.11.27-.07a9.58,9.58,0,0,1,3.64.38c9.71,2.19,16.92,10.22,22.2,18.35a106.94,106.94,0,0,1,13.73,32.37,140.68,140.68,0,0,1,3.86,35.06,176.51,176.51,0,0,1-3.58,35.52,116.68,116.68,0,0,1-4.8,16.53,3,3,0,0,0,2.09,3.69,3.05,3.05,0,0,0,3.69-2.09c4.41-11.69,6.64-24.12,7.77-36.53a176.3,176.3,0,0,0-.2-36.89,127.88,127.88,0,0,0-9.73-36.39c-4.47-10.16-10.5-20.53-19.07-27.8a34.12,34.12,0,0,0-14.37-7.61c-2.86-.64-6.11-1.11-8.79.4a5.47,5.47,0,0,0-2.73,5.07c0,3.89,1.92,7.8,3.45,11.29.69,1.57,1.42,3.12,2.12,4.68l.36.8c-.42-.93-.08-.18,0,0,.64,1.67,1.23,3.36,1.83,5,4.45,12.48,8.39,25.31,9.06,38.62a72.51,72.51,0,0,1-6.29,33.76c-8.58,18.8-24.1,33.4-41.28,44.43A188.53,188.53,0,0,1,495.82,487c-3,1.29-6.16,2.29-9.11,3.68-3.38,1.58-3.93,5-4.34,8.38-.74,6,.76,12.12,5.87,15.78a11.45,11.45,0,0,0,15.42-2.23c3.55-4.18,4.62-9.72,7-14.43a13.64,13.64,0,0,1,4.44-5.47,6.84,6.84,0,0,1,2.94-1.23c-.44.07.22,0,.33,0s.52,0,.79,0c-.57,0,.39.08.43.09a7,7,0,0,1,.89.27c-.41-.16.19.11.28.16s.47.27.69.42a6,6,0,0,1,.95.81,11.78,11.78,0,0,1,2.11,3,48.54,48.54,0,0,1,3.18,8.14,122.89,122.89,0,0,1,3.58,17.93c.44,3,.86,6.09,1.34,9.13a65.86,65.86,0,0,0,1.7,8.61c1.48,4.86,5.75,8.53,11,8,5.93-.62,10.25-5.35,12.65-10.51,5.42-11.66,4.9-24.66,5.18-37.21s.33-25.62,4-37.86c.44-1.47.93-2.92,1.48-4.36l.48-1.25c.06-.16.13-.32.19-.47s.13-.34.2-.5c-.12.28-.1.25,0-.08A25.44,25.44,0,0,1,571,453l.33-.53s.58-.81.23-.37c.12-.15.25-.29.38-.43s.88-.88.38-.42a1.9,1.9,0,0,1,.43-.26c-.79.35.54,0-.4.07a2.18,2.18,0,0,1,.57,0l-.27,0c.33.11.33.1,0,0,0,0,.54.42,0,0,0,0,.64.68.25.2a4.73,4.73,0,0,1,.32.46c0,.1.55,1.08.33.57a9,9,0,0,1,.43,1.33c.06.23.28,1.48.17.67.23,1.7.37,3.42.55,5.12.35,3.42.7,6.83,1.13,10.24a87.86,87.86,0,0,0,1.52,9.95c.7,2.86,2.24,5.62,5,7a10.6,10.6,0,0,0,8.48.18c5.72-2.25,8.63-7.84,10.72-13.26a3,3,0,0,0-2.09-3.69A3.05,3.05,0,0,0,595.73,471.85Z"/><path class="cls-3" d="M483.24,479.38c-1.15-1.24-1.86-2.85-3.07-4.06a9.14,9.14,0,0,0-5-2.52c-4.16-.67-7.88,1.13-11.06,3.67-2,1.59-3.78,3.44-5.62,5.21a27.26,27.26,0,0,1-5.78,4.66l-.7.37c-.49.27.31-.06-.21.09l-.7.23c-.3.07-1,.12-.36.1-.23,0-.47,0-.69,0-.5.06.37.16-.12,0-.26-.08-.52-.13-.79-.22l.16.06-.44-.24c-.14-.09-.63-.46-.27-.17a7.45,7.45,0,0,1-.65-.6,7.76,7.76,0,0,1-1.22-1.61,23.24,23.24,0,0,1-2.1-4.42c-2.42-6.78-2.86-14.13-3.19-21.26a97.93,97.93,0,0,1,1.66-24.29,79.66,79.66,0,0,1,7.43-20.79c6.76-13,16.36-24.29,26.39-34.91,10.27-10.88,20.89-21.79,33.21-30.38A87,87,0,0,1,530,337.68a53,53,0,0,1,10.13-2.81,14.66,14.66,0,0,1,2.29-.13,5.51,5.51,0,0,1,1.87.29,4.23,4.23,0,0,1,1.41.69A7,7,0,0,1,547,337c2,2.77,2.82,6.33,3.66,9.6.92,3.57,1.93,7.12,2.85,10.7,1.87,7.28,3.55,14.62,4.73,22.06,2.31,14.61,2.6,29.92-2.14,44.1a50.64,50.64,0,0,1-11.26,18.6,110.13,110.13,0,0,1-17.1,14.8,207.85,207.85,0,0,1-20.25,12.46c-3.68,2-7.41,4-11.14,5.91-2.61,1.35-5,3.09-7.69,4.29a10.76,10.76,0,0,1-3,.81c-.14,0-.88,0-.41,0a4.53,4.53,0,0,1-.88-.22c-.61-.2-.24-.1-.14-.05a3.38,3.38,0,0,1-.41-.24,3.75,3.75,0,0,1-.6-.5c-2.78-2.68-7,1.55-4.24,4.24,5.75,5.55,12.84,1.2,18.44-2.11,3.42-2,7.05-3.71,10.54-5.59,3.81-2.05,7.59-4.16,11.3-6.39a159.21,159.21,0,0,0,20-14,83.89,83.89,0,0,0,16.57-17.71c8.81-13.25,10.74-30.52,9.76-46a164.53,164.53,0,0,0-3.44-23.88c-1.61-7.57-3.71-15-5.63-22.49-1-3.74-1.93-7.63-4-10.92a11.9,11.9,0,0,0-9.4-5.73c-3.61-.3-7.39.79-10.82,1.82a82.62,82.62,0,0,0-11.69,4.58c-14.44,6.9-26.69,17.74-37.92,28.95-11,11-21.91,22.44-30.69,35.35a102.93,102.93,0,0,0-10.85,20.34,86.75,86.75,0,0,0-5.5,24.73,125.75,125.75,0,0,0,.55,24.38,58.39,58.39,0,0,0,2.31,11.64c1.13,3.49,2.71,7.27,5.4,9.86A9.08,9.08,0,0,0,452,493c2.75-.48,5.15-2.22,7.28-3.94s4.18-3.83,6.23-5.78c.92-.88,1.85-1.74,2.84-2.53.27-.22-.07.06-.11.08l.7-.5c.36-.24.72-.47,1.1-.68a7.47,7.47,0,0,1,2.46-.92,3.92,3.92,0,0,1,3.27.74c1.3,1.13,2,2.92,3.22,4.19C481.63,486.45,485.87,482.2,483.24,479.38Z"/><path class="cls-3" d="M565.29,320.7c-13.11-3.15-27.34-.84-39.88,3.59a101.73,101.73,0,0,0-18.65,8.7c-3,1.79-6.13,3.16-9,5.12s-5.64,3.83-8.42,5.8A152.28,152.28,0,0,0,461,370.33a169.94,169.94,0,0,0-21.73,32,117.72,117.72,0,0,0-11.78,38.79c-1.6,13.06-1.18,27,2.78,39.57.14.44.27.89.44,1.32.55,1.45.24.7.14.41.28.78.57,1.56.88,2.33a43.18,43.18,0,0,0,2.22,4.72,23.67,23.67,0,0,0,5.58,6.92,16.06,16.06,0,0,0,9.12,3.7,17.61,17.61,0,0,0,8.53-2c5.29-2.49,9.59-6.66,14.1-10.29.59-.47,1.45-1.43,2.24-1.44s1.6,1.06,2,1.85c1.36,2.55,1.57,5.69,1.68,8.53.24,6.37,0,13.21,4,18.56a19.23,19.23,0,0,0,14,7.47,15.71,15.71,0,0,0,14.33-7A37.78,37.78,0,0,0,513,508c.39-1.1.86-2.41,1.26-3.29a7.63,7.63,0,0,1,2-3c.16-.1.87-.33.29-.21.12,0,.87.31.2,0,.23.11.44.25.65.37.65.36-.31-.38.22.17l.4.38a8.39,8.39,0,0,1,.56.63c-.32-.39.35.49.41.58a21.2,21.2,0,0,1,1.63,3,29,29,0,0,1,1.08,2.83c2.09,6.32,2.26,13,3.17,19.59q.76,5.58,1.93,11.08a30.28,30.28,0,0,0,3.41,9.75,16.31,16.31,0,0,0,13.8,7.57c13.3.16,20.95-13.31,24.23-24.5,3.48-11.9,3-24.53,2.58-36.78-.23-6.17-.48-12.36-.25-18.54.11-2.86.31-5.85.69-8.6.19-1.42.43-2.82.72-4.21q.19-1,.42-1.89c.06-.25.13-.5.2-.74s.5-.92,0-.14c0-.07.08-.15.13-.22a2.64,2.64,0,0,1-3.57.85c-.1-.06-.94-1-.8-.74.29.44,0-.18-.09-.27.36.25.48,1.69.55,2.08.16.79.28,1.58.4,2.37-.13-.87,0,.26,0,.47,0,.43.1.86.13,1.29.21,2.31.22,4.62.55,6.92a39.91,39.91,0,0,0,2.91,10.23c2.65,6.18,7.59,12,15,10.81,6.53-1.06,10.39-7.09,13.56-12.31a103.23,103.23,0,0,0,13.16-37.26,116.58,116.58,0,0,0,1.54-21.68c-.1-3.78-.42-7.53-.81-11.28s-.54-7.42-.69-11.14A122.89,122.89,0,0,0,612,380a119.16,119.16,0,0,0-6.45-20.38,83.51,83.51,0,0,0-10-17.72,3.09,3.09,0,0,0-4.1-1.08c-1.28.75-2.06,2.8-1.08,4.1,8.27,11,13.13,24.19,16,37.58a123.28,123.28,0,0,1,2.26,21.18c.3,7.33,1.33,14.6,1.46,21.94a110.86,110.86,0,0,1-6.32,38.87,86.3,86.3,0,0,1-8,16.79c-1.55,2.49-3.08,5.19-5.39,7-1.67,1.32-3.87,2.16-5.69,1.67-2.64-.71-4.34-3.18-5.56-5.54a33.83,33.83,0,0,1-3.07-9.12c-.77-4-.6-8-1.27-12a12.39,12.39,0,0,0-1.26-4.31,3.45,3.45,0,0,0-6.06,0c-1.16,2.05-1.42,4.72-1.8,7a91.9,91.9,0,0,0-1,9.37c-.69,12,.61,23.91.41,35.87-.18,11.52-1.91,23.44-8.72,33.12a18.56,18.56,0,0,1-6,5.58,12.79,12.79,0,0,1-6.41,1.62,10.45,10.45,0,0,1-5.79-1.7,9.83,9.83,0,0,1-2.31-2.11A15.19,15.19,0,0,1,534,544.1a63.91,63.91,0,0,1-2.32-9.86q-1-5.36-1.55-10.76c-.64-5.91-1.19-11.88-3.36-17.46-1.71-4.36-4.63-10.32-10.07-10.47-6.71-.19-8.66,8.76-10.5,13.6a13.69,13.69,0,0,1-3.49,5.6,9.91,9.91,0,0,1-1.35.86,6.1,6.1,0,0,1-1,.49,12.91,12.91,0,0,1-1.81.53,5.89,5.89,0,0,1-1.39.19,13.71,13.71,0,0,1-1.57,0c-.32,0-.63,0-.95-.07.57.07-.45-.08-.45-.08-.52-.1-1-.22-1.54-.37-.31-.09-.61-.19-.91-.3,0,0-.88-.35-.46-.17a14.6,14.6,0,0,1-3-1.75c.39.3-.41-.34-.39-.32l-.58-.53c-.19-.19-.37-.37-.55-.57s-.76-.88-.54-.6c-3.68-4.79-2.72-11.36-3.11-17a24.44,24.44,0,0,0-2.32-9.67c-1.64-3.2-5-5.55-8.67-4.86-2.77.53-5.15,3.07-7.25,4.82s-4.05,3.41-6.23,4.92c-4.24,3-9,5.39-13.78,2.61a15.44,15.44,0,0,1-5.17-5.41,33.56,33.56,0,0,1-1.85-3.51c-.3-.64-.56-1.29-.8-1.94-.13-.32-.25-.65-.36-1s-.66-1.94-.37-1.05a76,76,0,0,1-3.44-18.43,108.48,108.48,0,0,1,4.43-38.33c3.68-12.24,9.62-23.34,16.78-33.88a170.78,170.78,0,0,1,24.05-28.52,132.52,132.52,0,0,1,14.25-11.75c2.65-1.88,5.35-3.7,8-5.54,2.87-2,6-3.34,9-5.14a89.26,89.26,0,0,1,35.89-12.69,53.71,53.71,0,0,1,18.41.76c3.76.9,5.36-4.88,1.6-5.78Z"/><path class="cls-3" d="M177.16,365.68c2.41,10,10,18.39,20.23,20.49,11.85,2.43,23.57-2.64,32.07-10.77A52.46,52.46,0,0,0,241,359c.95-2.1.68-4.84-1.58-6-1.92-1-5-.66-6,1.58a50.78,50.78,0,0,1-3.86,7.1q-.47.72-1,1.41l-.62.87-.3.4c.35-.46-.51.64-.45.56l-.54.66q-.69.81-1.41,1.59c-.83.91-1.7,1.78-2.6,2.61-.45.41-.9.81-1.36,1.19l-.77.65c-.71.59.44-.3-.38.29a39.52,39.52,0,0,1-6.16,3.74c-.3.15-.61.28-.91.42-.62.3.6-.22,0,0s-1.11.43-1.68.62a29.59,29.59,0,0,1-3.83,1l-.79.14c-.17,0-.86.1,0,0-.6.06-1.19.12-1.79.15a25.89,25.89,0,0,1-3.84-.08c-.26,0-.52-.05-.77-.09,1,.13.2,0-.06,0-.51-.09-1-.2-1.53-.33s-1-.27-1.49-.43l-.8-.28c-.12-.05-1-.43-.4-.16s-.35-.17-.39-.19l-.59-.3c-.44-.23-.87-.48-1.29-.74s-.82-.54-1.23-.82c-.65-.44,0,0,.11.1-.25-.21-.51-.41-.75-.63a26.66,26.66,0,0,1-2.41-2.46c-.17-.19-.61-.82,0,0-.17-.22-.33-.44-.49-.67-.35-.5-.67-1-1-1.54s-.55-1-.8-1.49c-.1-.2-.19-.41-.29-.61-.45-.9.24.66-.09-.21a31.22,31.22,0,0,1-1.15-3.67,4.45,4.45,0,0,0-5.42-3.08,4.52,4.52,0,0,0-3.08,5.43Z"/><path class="cls-3" d="M173.11,353.21c-3.1,11.82-2.06,26.57,8.19,34.73a27.28,27.28,0,0,0,21.55,5.44c7.2-1.06,13.9-4.71,19.43-9.34a52.29,52.29,0,0,0,14.77-20.62c.86-2.14-.94-4.93-3.08-5.42-2.55-.58-4.49.78-5.42,3.08-.5,1.25.37-.77-.19.46l-.51,1.11c-.35.74-.73,1.47-1.12,2.19a46.07,46.07,0,0,1-2.57,4.19c-.23.34-.47.67-.71,1,0,0-.85,1.13-.3.41-.5.65-1,1.28-1.56,1.9a47.63,47.63,0,0,1-3.41,3.55c-.59.56-1.2,1.11-1.82,1.64l-.9.75c-1,.8.71-.5-.31.24a45.32,45.32,0,0,1-3.87,2.55,38.27,38.27,0,0,1-3.84,1.93c.91-.39-.29.1-.39.14l-1.1.4c-.86.29-1.73.55-2.61.77-.69.17-1.38.32-2.08.44-.23,0-1.1.17-.16.05l-1.14.12a23.4,23.4,0,0,1-5-.1c.94.13.09,0-.15-.05l-.94-.19a21.66,21.66,0,0,1-2.22-.65c-.11,0-1.3-.52-.41-.13l-1.08-.51c-.64-.33-1.27-.7-1.89-1.09l-.86-.58c-1-.62.67.59-.19-.14-.51-.43-1-.86-1.48-1.33s-.89-1-1.32-1.44,0,0,.09.13c-.26-.35-.51-.69-.74-1.05a13.14,13.14,0,0,1-1.83-3.37c.33,1.15-.14-.42-.25-.74-.25-.71-.46-1.43-.64-2.16s-.34-1.48-.47-2.23c0-.24-.31-1.29,0-.12a7.94,7.94,0,0,1-.11-1,35.91,35.91,0,0,1-.12-4.64c0-.72.07-1.44.14-2.16,0-.28.05-.56.09-.83s.05-.44.08-.66c-.09.62-.09.68,0,.18.26-1.53.56-3,1-4.54a4.41,4.41,0,1,0-8.5-2.34Z"/></g></svg>