<svg xmlns="http://www.w3.org/2000/svg" viewBox="0 0 800 800"><defs><style>.cls-1,.cls-2{fill:none;}.cls-2,.cls-3{stroke:#e2d8e1;stroke-miterlimit:10;stroke-width:2px;}.cls-3,.cls-4{fill:#e2d8e1;}</style></defs><g id="clean"><path class="cls-1" d="M474.4,468.2c5.75-3,11.47-6,17.07-9.22,11.36-6.56,22.31-14,31.43-23.54a54.3,54.3,0,0,0,10.87-15.36c11.35-25.74,4.53-55.74-2.58-81.58-1.2-4.34-2.07-9.28-4.75-13-3.37-4.69-8.56-3.93-13.74-2.59a75.27,75.27,0,0,0-13.62,5c-16.35,7.83-30.2,21-43,34.24-15.5,16-30.83,33.4-37.24,54.74-3.26,10.84-4.06,22.3-3.4,33.59.47,8,1.15,17.29,5,24.48,7,13.12,16.3-1.46,23.21-6.62a12.25,12.25,0,0,1,5.39-2.48,6.92,6.92,0,0,1,5.63,1.45c1.37,1.21,2.07,3,3.36,4.33C462.88,476.5,469.93,470.52,474.4,468.2Z"/><path class="cls-1" d="M539.84,320.86c-1.68-.23-3.56-.22-4.84.9-2.79,2.43,4.07,15.09,5.16,18.08,2.52,6.87,5,13.78,6.94,20.84,4,14.4,5.77,29.45,2.38,44.17-8.25,35.77-41.2,60-73.64,74.17q-4.9,2.14-9.76,4a5.79,5.79,0,0,0-2.34,1.33,5.49,5.49,0,0,0-1.1,2.79,21.82,21.82,0,0,0-.17,8.63c1.14,5.22,6.22,9.76,11.82,7.87,3-1,5.08-3.73,6.44-6.58,2.6-5.44,3.84-12.12,8.81-16.08,5.76-4.6,11.43-2.22,14.53,3.89,6.76,13.37,6.58,29,9.87,43.65,1.55,6.89,8,8.77,13.56,4.28a19,19,0,0,0,5.19-7.41c4.88-11.23,4.14-23.86,4.45-35.82.38-14.3.46-29,5.73-42.57,1-2.49,3.21-8.49,6.38-8.77s4.58,3.83,4.84,6.18c.83,7.48,1.46,15,2.68,22.4.38,2.29.89,4.74,2.58,6.32,2.5,2.34,6.68,1.78,9.48-.2,3.36-2.37,5.27-6.28,6.74-10.13,6.52-17.18,8.58-37.56,8.49-55.85-.11-21.8-4.86-43.78-16-62.68C561.64,333.34,552.39,322.53,539.84,320.86Z"/><path class="cls-2" d="M196.34,514.18C212,540,233,559,258,578c2,1,4,1,6,2,7,4,12,9,20,13,32,12,65,22,99,27,21,2,42,3,61.95-1.87-2.19-3.15-3.63.86,0,0C443,617,441,615,439,614c-5-2-11-3-16-6-6-3-12-2-18-3-28-1-57-2-82-20a56.91,56.91,0,0,0-6.69-2.56,4.7,4.7,0,0,1,2.92.65,4.33,4.33,0,0,1-2.92-.65C319,583,322,584,325,584c16-1,30,7,45,11,4,2,9,2,13,3,9,0,18-1,27,0,22,3,44,6,66,6,4-7-1-17-8-20-7-2-12,2-18,6-5,4-9-2-11-6-3-10-5-24-17-26-10,3-8,15-9,23-1,4-3,8-7,10s-8,1-12-1c-20-10-27-32-36-51-1-2-2-4-4-5a4.81,4.81,0,0,0-6,2c-2,6,1,12,0,18-1,5-6,8-10,8-18-2-33-18-36.13-35.78l0,2.14,0-2.14C301,532,306,546,296,545c-5-1-8-6-11-10-11-17-10-35-11.57-53.49"/><path class="cls-2" d="M589.6,428c-1.72,17.58-7.17,35.56-17.61,49.79-3.21,4.37-8.93,7.33-13.93,3.85a16.33,16.33,0,0,1-5.11-6.73,37.65,37.65,0,0,1-3.52-15.59c0-1.61-1.33-14-3-7.06-6.35,26.44,5.7,58-9.64,82.27a23.1,23.1,0,0,1-7.94,8c-6.56,3.68-15.39,2.42-19.31-4.35a29.26,29.26,0,0,1-2.93-8.74q-1.51-7.17-2.36-14.47c-.55-4.83-.89-9.71-2.19-14.39-1-3.52-3.73-11.26-8-11.91-2.07-.32-3.81,1.55-4.8,3.39-2.83,5.25-3.38,12.16-8.28,15.55-7.27,5-18.25,1.45-21.84-6.4-3.34-7.3-.55-15.75-3.49-23.15a8.54,8.54,0,0,0-2.35-3.49,4.38,4.38,0,0,0-4-.92,7,7,0,0,0-2,1.18c-5.94,4.51-14.26,13.37-22.43,12.31a12,12,0,0,1-4.3-1.4,66,66,0,0,1-10.07-14.39v0a61.35,61.35,0,0,1-1.85-6.68c0-.08,0-.15-.05-.23s0-.11,0-.17c-.18-.82-.34-1.63-.49-2.43l-.24-1.36c-.23-1.34-.41-2.64-.56-3.87-.06-.41-.1-.82-.14-1.21-.13-1.19-.23-2.29-.3-3.29A112.44,112.44,0,0,1,423.22,386c12.27-20,28-38.46,47.69-51.53,2.42-1.61,4.78-3.38,7.23-4.94,2-1.29,4.25-2.09,6.3-3.37a97.49,97.49,0,0,1,9.74-5.18c12.51-5.94,28.17-9.84,42.06-8.22.8.09,1.59.21,2.38.35.32.05.65.11,1,.18.62.11,1.24.25,1.85.4.43.1.84.2,1.26.32l1.24.35c10.65,3.23,19.32,10.28,26,19.12a78.1,78.1,0,0,1,8.51,14.38,119.22,119.22,0,0,1,8.73,28.49c1.66,9.08,1.12,18.41,2.14,27.56A114.68,114.68,0,0,1,589.6,428Z"/><path class="cls-3" d="M657,315.27c-2.18-13.6-8.39-27.38-12.68-40.49a201.16,201.16,0,0,0-17.46-38.66c-.72-1.23-1.47-2.46-2.21-3.68-.74-.74-1.45-1.49-2.2-2.21-1.62-1.54-3.27-3-5-4.51-.68-.59-1.37-1.15-2-1.73l-.12-.1a109.87,109.87,0,0,0-9.88-6.35c-.82-.22-1.63-.45-2.45-.65l-1-.23a203.35,203.35,0,0,1,14.78,21.9c37,63.53,49.78,150.72,30.64,221.82a249.19,249.19,0,0,1-14.31,39.27c-4,8.68-5.08,34.68-19.4,25-8.26-5.61-20.82-3.38-26.65,4.73-9.93,13.82-12.58,36.31-18,52.23-1.28,3.76-2.63,7.6-5.19,10.64s-6.61,5.14-10.48,4.28c-11.43-2.52-14.26-19.27-27.06-6.33a72.45,72.45,0,0,0-13.31,18.65c-1.42,2.87-2.68,5.88-4.75,8.33s-5.18,4.29-8.36,3.9c-8.52-1-10.27-20.35-11.67-26.49-1.86-8.15-5-16.73-12-21.27A18.92,18.92,0,0,0,460,571.63c-5.33,1.85-6.87,7.5-12.69,5.4-4-1.43-6.69-8.47-8.58-11.82a63.31,63.31,0,0,0-8.46-11.66c-2.78-3-6.25-6-10.36-6-3.49-.06-6.75,2.07-8.87,4.86a28.42,28.42,0,0,0-4.21,9.54c-1.82,6.42-4.36,25.5-14.85,16.52a54.15,54.15,0,0,1-11.22-13.33c-7.18-12-10.71-26.83-20.79-37.08-3.6-3.66-9.35-6-13.91-3.63-4.79,2.48-6,8.67-6.54,14-1.79,18-14.6,15.84-22.54,2.2a155.19,155.19,0,0,1-8-15.5c-7.1-16.17-10.69-2.93-15.92,5.34-1.69-.53-2.46-2.44-3-4.13-4.18-13.16-5.47-26.88-6.79-40.55-.57-5.88-.63-13-1.42-19.8-.78-.51-1.56-1-2.36-1.48l-1.6-.46h0l-.53.25-.47.19c-.16,1.14-.34,2.29-.57,3.42a57.36,57.36,0,0,1-3.41,11c.05.89.1,1.78.16,2.67,1,15.63,3.76,31.2,9.63,45.8,2.78,6.89,7.08,13.49,13.51,17.17h.7l.73.7c1.34.5,2.83.61,3.72-.4a4.31,4.31,0,0,0,.69-2.94q-.1-7.87-.2-15.74c.16,12.38,24.36,40.1,39.36,35a11.51,11.51,0,0,0,4.46-2.83c5.54-5.57,1.22-12,1.5-18.56.26-6.14,5.23-7,9.26-2.91a24,24,0,0,1,4.16,6.68c7.77,16.28,22.26,49,45.06,46.73,11-1.09,5.41-19.23,9.18-26,1.93-3.45,5.64-6.54,9.49-5.64,2.84.66,4.76,3.26,6.34,5.72,4.91,7.68,7.32,17.82,12.52,25,1.17,1.61,3.28,2.72,5.17,2.11,1.65-.53,2.66-2.11,3.83-3.38,3.55-3.85,12.55-5.24,18.71-.92,5.11,3.59,7.45,10.51,5.68,17.17-3.2,0-6.4,0-9.6,0-2.33,0-4.17-.74-6.43-.77-5.54-.08-11.22.52-16.57-.69-2.95-.67-5.82-.57-8.75-1.06-2.67-.44-5.3-.91-8-1.33-1.25-.19-2.49,0-3.76-.22s-2.52-1-3.79-1.26a39.41,39.41,0,0,0-8.54-.94,40.22,40.22,0,0,0-7,.18,24.56,24.56,0,0,1-8.67.54,49.11,49.11,0,0,0-9.26-.72c-2.56,0-4.89-.68-7.42-.78a21.15,21.15,0,0,1-6-1.55c-2.65-.88-5.25-1.37-7.93-2.15-3-.85-5.67-1.39-8.6-2.39-2.16-.74-4.25-1.53-6.38-2.33-3-1.11-6.19-1.91-9.23-2.74a51.71,51.71,0,0,0-8.66-1.33c-5.31-.57-10.28-2.36-15.68-2.4,5.21,2.49,11.33,3.6,15.57,7.62s10.53,6.15,16,8a35.92,35.92,0,0,0,4.88,1.33c2.74.52,5.53.64,8.28,1.07,4.57.72,9,2.13,13.54,3a116.94,116.94,0,0,0,15.27,1.7c3.87.19,7.75-.16,11.62,0a77.69,77.69,0,0,1,8.77.44,55.39,55.39,0,0,1,5.89,1.65c5.16,1.43,11,1.77,15.28,5.07a19.39,19.39,0,0,0,7.34,3.23c2.07.52,3.89,1.76,6.1,1.4l.3,1.91-1,.16c-37.23,5.67-71.07-2.31-107.11-8.41a40.24,40.24,0,0,1-6.9-2.05c-19-6.8-39.59-11.1-57.09-21.77a250.68,250.68,0,0,1-76.8-74A76.22,76.22,0,0,1,184.81,509c1.46,2.26,2.94,4.5,4.46,6.71,2.76,4,6.06,8.06,9.17,11.85,2.85,3.47,5.33,6.6,8.85,9.4,3.79,3,6.79,6.69,10.18,10.1,3.69,3.71,7.57,7.18,11.27,10.89a111.43,111.43,0,0,0,9.93,9.12c3.21,2.5,6.16,5.1,9.46,7.51a59.36,59.36,0,0,1,7.84,6.27c4.6,4.71,10.75,8,16.42,11.12,31.36,17.45,66.95,23.82,101.11,33.52,21.39,6.08,46.46,4.36,68.39,3.1,8.83-.5,18.1-.78,26.82-2.44,4.25-.81,12.93-5.3,16.93-3.23,1.77.92,3,2.6,4.39,4,3.69,3.57,8.65,5.13,13.55,3.42,5.21-1.81,10.33-4.27,14.1-8.28,6.73-7.16,8.25-18.27,15.55-24.84s14.29,9.41,24.42,7.62c5.75-1,10.7-4.84,14.28-9.44,5.52-7.09,8.88-15.8,11-24.47,2.4-10,3.87-20.46,8.4-29.74A27.34,27.34,0,0,1,599,531.11c2.15-1.61,4.87-2.78,7.5-2.22,8.32,1.76,11.57,18.58,22.38,6.15,3.41-3.92,4.67-9.19,6.25-14.13,5.72-17.89,15.33-33.71,19.32-52.22a401.53,401.53,0,0,0,8-56.28C664.76,380,662.17,347.33,657,315.27Z"/><path class="cls-4" d="M587.15,376.38a119.22,119.22,0,0,0-8.73-28.49,78.1,78.1,0,0,0-8.51-14.38c-6.65-8.84-15.32-15.89-26-19.12L542.7,314c-.42-.12-.83-.22-1.26-.32-.61-.15-1.23-.29-1.85-.4-.32-.07-.65-.13-1-.18-.79-.14-1.58-.26-2.38-.35-13.89-1.62-29.55,2.28-42.06,8.22a97.49,97.49,0,0,0-9.74,5.18c-2.05,1.28-4.27,2.08-6.3,3.37-2.45,1.56-4.81,3.33-7.23,4.94-19.64,13.07-35.42,31.57-47.69,51.53a112.44,112.44,0,0,0-16.38,66.1c.07,1,.17,2.1.3,3.29,0,.39.08.8.14,1.21.15,1.23.33,2.53.56,3.87l.24,1.36c.15.8.31,1.61.49,2.43,0,.06,0,.12,0,.17s0,.15.05.23a61.35,61.35,0,0,0,1.85,6.68v0a66,66,0,0,0,10.07,14.39,12,12,0,0,0,4.3,1.4c8.17,1.06,16.49-7.8,22.43-12.31a7,7,0,0,1,2-1.18,4.38,4.38,0,0,1,4,.92,8.54,8.54,0,0,1,2.35,3.49c2.94,7.4.15,15.85,3.49,23.15,3.59,7.85,14.57,11.42,21.84,6.4,4.9-3.39,5.45-10.3,8.28-15.55,1-1.84,2.73-3.71,4.8-3.39,4.3.65,7.06,8.39,8,11.91,1.3,4.68,1.64,9.56,2.19,14.39s1.35,9.69,2.36,14.47a29.26,29.26,0,0,0,2.93,8.74c3.92,6.77,12.75,8,19.31,4.35a23.1,23.1,0,0,0,7.94-8c15.34-24.27,3.29-55.83,9.64-82.27,1.67-6.93,3,5.45,3,7.06A37.65,37.65,0,0,0,553,474.93a16.33,16.33,0,0,0,5.11,6.73c5,3.48,10.72.52,13.93-3.85,10.44-14.23,15.89-32.21,17.61-49.79a114.68,114.68,0,0,0-.31-24.08C588.27,394.79,588.81,385.46,587.15,376.38ZM458.07,471.63c-1.29-1.31-2-3.12-3.36-4.33a6.92,6.92,0,0,0-5.63-1.45,12.25,12.25,0,0,0-5.39,2.48c-6.91,5.16-16.19,19.74-23.21,6.62-3.85-7.19-4.53-16.47-5-24.48-.66-11.29.14-22.75,3.4-33.59,6.41-21.34,21.74-38.72,37.24-54.74,12.76-13.21,26.61-26.41,43-34.24a75.27,75.27,0,0,1,13.62-5c5.18-1.34,10.37-2.1,13.74,2.59,2.68,3.74,3.55,8.68,4.75,13,7.11,25.84,13.93,55.84,2.58,81.58a54.3,54.3,0,0,1-10.87,15.36c-9.12,9.5-20.07,17-31.43,23.54-5.6,3.24-11.32,6.25-17.07,9.22C469.93,470.52,462.88,476.5,458.07,471.63Zm117.5-8.85c-1.47,3.85-3.38,7.76-6.74,10.13-2.8,2-7,2.54-9.48.2-1.69-1.58-2.2-4-2.58-6.32-1.22-7.43-1.85-14.92-2.68-22.4-.26-2.35-1.71-6.47-4.84-6.18s-5.41,6.28-6.38,8.77c-5.27,13.53-5.35,28.27-5.73,42.57-.31,12,.43,24.59-4.45,35.82a19,19,0,0,1-5.19,7.41c-5.58,4.49-12,2.61-13.56-4.28-3.29-14.61-3.11-30.28-9.87-43.65-3.1-6.11-8.77-8.49-14.53-3.89-5,4-6.21,10.64-8.81,16.08-1.36,2.85-3.46,5.57-6.44,6.58-5.6,1.89-10.68-2.65-11.82-7.87a21.82,21.82,0,0,1,.17-8.63,5.49,5.49,0,0,1,1.1-2.79,5.79,5.79,0,0,1,2.34-1.33q4.85-1.83,9.76-4c32.44-14.16,65.39-38.4,73.64-74.17,3.39-14.72,1.63-29.77-2.38-44.17-2-7.06-4.42-14-6.94-20.84-1.09-3-7.95-15.65-5.16-18.08,1.28-1.12,3.16-1.13,4.84-.9,12.55,1.67,21.8,12.48,28.23,23.39,11.13,18.9,15.88,40.88,16,62.68C584.15,425.22,582.09,445.6,575.57,462.78Z"/><path class="cls-4" d="M446.38,615.6l-2.05.34a2.2,2.2,0,0,0-1,.54,2.23,2.23,0,0,0-.77.84,2.25,2.25,0,0,0-.36,1.12,2.3,2.3,0,0,0,.05,1.19l.31.72a2.89,2.89,0,0,0,1.07,1.07l.72.31a3.06,3.06,0,0,0,1.59,0l2.05-.34a3.44,3.44,0,0,0,1.8-1.38,2.17,2.17,0,0,0,.35-1.12,2.29,2.29,0,0,0-.05-1.19l-.3-.72a3.1,3.1,0,0,0-1.08-1.08l-.72-.3a3.06,3.06,0,0,0-1.59,0Z"/><path class="cls-4" d="M473.69,603.6c-.14.51-.3,1-.49,1.53a3.37,3.37,0,0,0,.31,2.31,2.23,2.23,0,0,0,.77.84,2.29,2.29,0,0,0,1,.54l.8.1a2.88,2.88,0,0,0,1.51-.41l.61-.46a3,3,0,0,0,.77-1.33,16,16,0,0,0,.49-1.53,2.3,2.3,0,0,0,0-1.19,2.14,2.14,0,0,0-.35-1.12,2.25,2.25,0,0,0-.78-.84,2.15,2.15,0,0,0-1-.54l-.79-.11a3.12,3.12,0,0,0-1.52.41l-.6.47a3,3,0,0,0-.78,1.33Z"/><path class="cls-4" d="M297.74,542c-6.36-3.71-10.23-10.35-12.82-17.06A132.38,132.38,0,0,1,278,498.7c-.9-5.43-1.47-10.91-1.84-16.4a3.07,3.07,0,0,0-3-3,3,3,0,0,0-3,3A166.4,166.4,0,0,0,275,513.52c2.15,8.19,4.79,16.8,9.56,23.88a31.53,31.53,0,0,0,10.17,9.8c3.35,1.95,6.37-3.23,3-5.18Z"/><path class="cls-4" d="M477,601.39h-.37a2.41,2.41,0,0,0-1.16.26,2.25,2.25,0,0,0-1,.62,3.38,3.38,0,0,0-.88,2.12l.1.8a3,3,0,0,0,.78,1.33l.6.46a2.92,2.92,0,0,0,1.52.41H477a3.3,3.3,0,0,0,2.12-.87,2.34,2.34,0,0,0,.62-1,2.3,2.3,0,0,0,.26-1.16l-.11-.79a3,3,0,0,0-.77-1.33l-.61-.47a3.08,3.08,0,0,0-1.51-.41Z"/><path class="cls-4" d="M264.54,544.6a168.83,168.83,0,0,1-27.7-25.31,3,3,0,0,0-4.24,4.24,175.25,175.25,0,0,0,28.91,26.25,3,3,0,0,0,4.1-1.08,3.06,3.06,0,0,0-1.07-4.1Z"/><path class="cls-4" d="M303,569.43a28.65,28.65,0,0,1-10.44-4.08c-.81-.5-1.59-1-2.36-1.61.25.18-.07-.06-.14-.11l-.62-.51c-.36-.3-.72-.61-1.07-.93-.74-.68-1.45-1.39-2.13-2.14s-1.21-1.4-1.64-2a3.08,3.08,0,0,0-4.1-1.07c-1.28.75-2.05,2.79-1.08,4.1a36.14,36.14,0,0,0,22,14.11,3.09,3.09,0,0,0,3.69-2.1,3,3,0,0,0-2.1-3.69Z"/><path class="cls-4" d="M193.12,515.49a223.73,223.73,0,0,0,33.71,41.9c13.46,13,28.53,24.62,45.17,33.3s34.62,14.71,52.81,19.42c9.16,2.37,18.4,4.45,27.63,6.5,10.17,2.26,20.35,4.49,30.63,6.17a185.28,185.28,0,0,0,30.83,2.74q3.74,0,7.47-.24c2.48-.16,4.93-.59,7.41-.71s4.81,0,7.21-.09,5.05-.06,7.19-.93c1.72-.69,2.63-2.06,3.89-3.29a3,3,0,0,0-1.33-5,5.34,5.34,0,0,0-4.54.17,3.55,3.55,0,0,0-1.35,4.45,3.93,3.93,0,0,0,3.56,2.36,5.16,5.16,0,0,0,4.13-2.57c1.12-1.56,0-4-1.8-4.41-7.73-1.86-15.45-4.53-21.71-9.6A5.86,5.86,0,0,0,420.5,604c-1.16-.12-2.32-.21-3.48-.31l-6.71-.61c-4.39-.41-8.78-.84-13.15-1.33-17.58-2-35.14-4.91-51.9-10.7a144.41,144.41,0,0,1-13.74-5.54c-2.32-1.09-4.61-2.23-6.87-3.44a9.39,9.39,0,0,0-1.85-.92,9.66,9.66,0,0,0-2.08-.13,3.63,3.63,0,0,1-2.29-.66l-2.12,5.12a1.81,1.81,0,0,1,1.41.35l1.51-5.59a2.51,2.51,0,0,1-1.41-.35l-2.31,5.49c5,1.55,10.32.7,15.25,2.38,5.67,1.94,11.5,3.52,17.28,5.09a291.19,291.19,0,0,0,34.69,7.4,186.11,186.11,0,0,0,35.61,1.94c.69,0,1.44-.16,2.13-.12a11,11,0,0,1,1.87.43c1.51.39,3,.74,4.55,1.07,2.92.63,5.86,1.14,8.82,1.58,5.94.86,11.91,1.42,17.9,1.8s11.77.6,17.65.89c1.39.07,3.18.47,4.54.09s2.54-1.9,3.35-3a11.69,11.69,0,0,0,2.09-6.15c.3-4.36-1.78-8.73-4.73-11.83-3.28-3.43-8.05-5.06-12.72-5.27a21,21,0,0,0-13.39,4.11c-1.41,1.06-2.87,3-4.49,2.35a6.82,6.82,0,0,1-3.35-3.73c-2.59-6.82-4.1-14.39-8.51-20.37a19.56,19.56,0,0,0-9.2-7.1,10.31,10.31,0,0,0-7-.36,10.19,10.19,0,0,0-5.32,4.53c-2.2,3.72-2.18,8.33-2.42,12.52-.2,3.62-.34,7.41-2,10.38a9.19,9.19,0,0,1-3.56,3.46L406,587a28.4,28.4,0,0,1-10.22-1.74,12.86,12.86,0,0,1-1.8-.75c-.77-.36-1.51-.75-2.24-1.18s-1.35-.82-2-1.27a18.12,18.12,0,0,1-1.63-1.23c-5.35-4.42-8.8-9.66-12.26-15.67-3.63-6.33-6.74-12.93-10.26-19.32a101.88,101.88,0,0,0-5.57-9.09,21.22,21.22,0,0,0-3.51-4.41,6.46,6.46,0,0,0-7.15-.93c-4.83,2.42-5.64,8.66-5.66,13.44,0,3,.43,6,.14,9a6.58,6.58,0,0,1-.88,3.29,3.57,3.57,0,0,1-2.53,1.11c-1.61.22-2.48,2.28-2.1,3.69a3.09,3.09,0,0,0,3.69,2.1,9,9,0,0,0,6.15-3.87c1.62-2.39,1.77-6,1.76-8.78s-.34-5.4-.18-8.11c.12-2.14.18-3.65,1.2-5.34a3.37,3.37,0,0,1,1.18-1.26c-.55.26.81-.33.15-.05-.36.15-.11-.18.09,0-.22-.23.17.1.2.12a6,6,0,0,1,1.35,1.66c.57.77,1.11,1.55,1.64,2.33,2,3,3.78,6.07,5.48,9.21,6.72,12.38,12.31,26.86,23.75,35.78A33.21,33.21,0,0,0,405.64,593c2.37-.06,4.65-2.11,6.1-3.89a16.85,16.85,0,0,0,3-5.76c1.19-3.92,1.19-8.13,1.45-12.18.21-3.14.35-7.88,3.55-9,1.44-.49,3.36.35,4.43.9a11.49,11.49,0,0,1,3.84,3,18.47,18.47,0,0,1,2.71,4,35.66,35.66,0,0,1,2.15,4.74c1.31,3.46,2.33,7,3.6,10.48,1.63,4.44,5.14,9.2,10.44,9a8.49,8.49,0,0,0,3.8-1.11,27.85,27.85,0,0,0,3-2.42,15.59,15.59,0,0,1,5.73-2.67c3.67-.89,8.54-.47,11.62,2a12.48,12.48,0,0,1,3.23,4.11,8.65,8.65,0,0,1,.92,4.71,6.36,6.36,0,0,1-2.36,4L475,602c-10.52-.58-21.06-.83-31.54-1.92A142.15,142.15,0,0,1,428,597.63c-2.72-.6-5.49-1.71-8.28-1.55-2.57.15-5.15.24-7.72.26-21.12.18-42-3.79-62.32-9.31-5.7-1.55-11.47-3.09-17.05-5-5-1.73-10.45-.89-15.48-2.47-3.22-1-5.33,3.89-2.31,5.48a8.7,8.7,0,0,0,4.44,1.17,3,3,0,0,0,1.52-5.59,7.32,7.32,0,0,0-4.44-1.17c-2.4.08-4.22,3.36-2.12,5.13C316.5,586.52,319,587,322,587l-1.51-.41c24,13.08,50.78,18.29,77.66,21.23,7.6.84,15.23,1.51,22.85,2.18l-2.12-.88c7.31,6.2,16,9.69,25.27,11.91l-1.79-4.41c.16-.23.06-.06-.08,0a2.31,2.31,0,0,1,.64-.38,2.06,2.06,0,0,1,2.42,1.26,2.56,2.56,0,0,1-1.65,3.22c-.31.08-.5-.13-.37,0a5.24,5.24,0,0,0,.83.25l-1.32-5c-.49.48-.89,1-1.36,1.53a2.33,2.33,0,0,1-.52.46l0,0a8.5,8.5,0,0,0-.94.13,41.93,41.93,0,0,1-6.72.35c-4.86,0-9.62.71-14.46.91a159.6,159.6,0,0,1-29.22-1.66c-10.16-1.46-20.23-3.53-30.25-5.75-9.07-2-18.13-4-27.15-6.22-17.62-4.34-35.09-9.58-51.49-17.44a161.69,161.69,0,0,1-24.48-14.27,222.49,222.49,0,0,1-20.67-16.73,213.7,213.7,0,0,1-33.59-39.24q-1.86-2.79-3.64-5.64c-2-3.26-7.24-.25-5.18,3Z"/><path class="cls-4" d="M294.71,547.2a6.8,6.8,0,0,0,.7.38,15.41,15.41,0,0,0,1.45.62,2.33,2.33,0,0,0,1.2,0,2.21,2.21,0,0,0,1.11-.36,2.15,2.15,0,0,0,.84-.77,2.2,2.2,0,0,0,.54-1l.11-.8a3,3,0,0,0-.41-1.51l-.47-.61a3,3,0,0,0-1.33-.77l-.35-.14.72.31a9.21,9.21,0,0,1-1.08-.56,2.2,2.2,0,0,0-1.11-.35,2.33,2.33,0,0,0-1.2.05,2.2,2.2,0,0,0-1,.54,2.23,2.23,0,0,0-.77.84l-.31.72a3.06,3.06,0,0,0,0,1.59l.31.72a2.89,2.89,0,0,0,1.07,1.07Z"/><path class="cls-4" d="M659.93,314.48a133.73,133.73,0,0,0-6.45-23c-2.67-7.51-5.26-15.05-8-22.55a205.28,205.28,0,0,0-9.32-21.88c-3.35-6.76-6.69-14.31-12.21-19.55-6-5.63-13-11.85-21.15-13.77-2.27-.53-5.1,2.19-3.39,4.41,20.73,27,34.55,58.9,43.24,91.64a311.65,311.65,0,0,1,10,99.86,256.23,256.23,0,0,1-7.53,47.76,240.33,240.33,0,0,1-8.78,27.09c-2.53,6.47-6,12.68-7.79,19.4-1.3,4.77-2.21,9.73-4.13,14.32a13.15,13.15,0,0,1-2.85,4.6,3.07,3.07,0,0,1-3.27.73c-2.74-.77-5-2.88-7.71-3.85a22.41,22.41,0,0,0-10.15-1,23.35,23.35,0,0,0-17.24,11.05c-8.37,13.12-10.77,29.21-14.86,43.95a102.91,102.91,0,0,1-3.5,10.84c-1.47,3.69-3.79,7.75-7.89,8.9-5.39,1.51-9.83-4.13-13.44-7.2-4.1-3.49-8.71-5.13-13.78-2.49-3.38,1.76-6.11,4.78-8.58,7.62a76.49,76.49,0,0,0-7.94,10.9c-2.23,3.7-3.75,7.82-6.1,11.44-1.5,2.32-4.85,5.58-7.8,4.06-3.93-2-5.13-8.92-6-12.75-2.8-12.33-3.88-27.2-15.88-34.52-6.62-4-16.29-4.13-22.57.66-1.88,1.44-4.07,4.31-6.74,3-2.45-1.2-3.91-4.84-5.07-7.11-3.57-7-8.14-14.25-14.45-19.12-3.23-2.49-7.09-3.92-11.19-3.12a15.29,15.29,0,0,0-9.18,6.42c-3.62,5.06-4.51,11.39-6.09,17.26a30.28,30.28,0,0,1-2.35,6.55,8.65,8.65,0,0,1-1.42,2.09,2.29,2.29,0,0,1-1.24.7c-2.25,0-4.88-3.09-6.49-4.74A51.25,51.25,0,0,1,383,563c-4-6.93-6.83-14.47-10.4-21.62-3.4-6.82-7.9-14.84-14.76-18.7s-15.36-2.23-18.84,5.29a33.63,33.63,0,0,0-2.45,10.51c-.32,2.78-.88,6-2.7,8.25-2.85,3.51-7.22.82-9.9-1.81a37.83,37.83,0,0,1-6.08-8.78c-2.34-4.2-4.44-8.51-6.43-12.89-2.08-4.57-6.6-11.71-12.36-7.37-4.09,3.09-5.92,8.9-8.55,13.13l4.1-1.08c-2-.85-2.38-4.78-2.88-6.64-.86-3.17-1.57-6.38-2.18-9.6-1.24-6.64-2-13.34-2.68-20.05-.63-6.3-1-12.59-1.4-18.9-.17-2.58.31-7.23-1.76-9s-4.95-3.09-7.63-2.05a3,3,0,0,0-2.09,2.1,59.08,59.08,0,0,1-3.14,12.37,11.75,11.75,0,0,0-.79,5.56c.14,2.22.31,4.43.53,6.63a161.49,161.49,0,0,0,4.24,24.8c2,7.69,4.44,15.74,8.58,22.58a35.39,35.39,0,0,0,6.5,8.07c2.39,2.13,5.4,4.48,8.68,4.87,4.56.55,6.47-3.11,6.44-7.09,0-5.09-.13-10.18-.19-15.28h-6c.23,8.09,5.87,15.82,10.88,21.74,5.83,6.89,13.57,13.8,22.49,16.16a16.37,16.37,0,0,0,12.5-1.25c6-3.52,7.38-9.53,6.31-16-.41-2.48-2.45-13.18,3-8.11,2.14,2,3.28,4.92,4.5,7.5l2.72,5.7c4.27,8.81,8.92,17.48,15,25.2,5.66,7.23,13.21,14.16,22.56,15.8,4.25.74,9.42.95,12.86-2.09,3-2.68,3.83-6.88,4.21-10.71s0-8.07.8-12a8.68,8.68,0,0,1,2.91-5.09c2.46-2.19,4.9-1.76,6.94.65,4.07,4.81,6.14,11.36,8.63,17,2.17,5,5.17,13.38,11.59,13.84,3.31.23,5.28-1.9,7.33-4.14a9.76,9.76,0,0,1,6-2.84c5.65-.77,11.19,2,13.23,7.47a14.28,14.28,0,0,1,.37,8.46l2.9-2.21c-2.62,0-5.24,0-7.86,0s-5.13-.59-7.76-.74c-5.43-.33-10.79.43-16.19-.61-2.58-.5-5.18-.63-7.79-.93-2.85-.33-5.66-1-8.49-1.39-2.28-.34-4.29-.28-6.49-1.05a31,31,0,0,0-8.27-1.46,68.19,68.19,0,0,0-7.43-.13c-2.77.12-5.45,1-8.24,1-2.54,0-5.07-.64-7.6-.81-2.69-.18-5.33-.08-8-.47a38.75,38.75,0,0,1-7-1.23c-2.65-.88-5.31-1.6-8-2.3a153.93,153.93,0,0,1-15.16-4.61,74,74,0,0,0-17.65-4.5c-6.13-.68-12.14-2.52-18.31-2.68-2.84-.07-4.27,4.32-1.52,5.59,3.79,1.76,7.9,2.84,11.59,4.82,3.52,1.89,6.19,4.93,9.79,6.78a76.37,76.37,0,0,0,11.69,4.62c4.6,1.48,9.36,1.53,14.07,2.44s9.31,2.27,14.06,3a119.91,119.91,0,0,0,14.28,1.44c4.78.18,9.57,0,14.35,0a28.68,28.68,0,0,1,6.07.53c2.31.56,4.54,1.41,6.86,1.95s4.59.92,6.84,1.58a21.83,21.83,0,0,1,6.15,3.1,24.07,24.07,0,0,0,7,2.95c2.46.69,4.68,1.82,7.3,1.61l-2.9-2.2.3,1.91,2.1-3.69c-19.89,3.4-40.54,2.19-60.43-.52-10-1.37-20-3.14-30-4.91l-15.18-2.67c-4.86-.84-9.44-2.82-14.1-4.36-18.11-6-36.48-10.73-52.78-21a241.69,241.69,0,0,1-42.35-34A255,255,0,0,1,209,525.34c-3.14-4-6.15-8.18-9-12.4a8.7,8.7,0,0,0-2.21-2.74,17.53,17.53,0,0,0-4.07-1.2,79,79,0,0,1-8.08-2.86c-2.45-1-4.72,2.34-3.39,4.4a197.5,197.5,0,0,0,13,17.83c2.07,2.52,4.09,5.11,6.36,7.46,2.5,2.59,5.43,4.7,8,7.27,10.22,10.39,20.39,20.71,31.71,29.91,2.42,2,4.89,3.84,7.41,5.67,2.92,2.13,5.34,4.71,8.13,7,5.19,4.24,11.21,7.44,17.12,10.57A232.15,232.15,0,0,0,312.52,612c13.32,4.21,26.87,7.63,40.39,11.14,13.32,3.45,26.39,7.63,40.14,9s27.7.75,41.51,0c7.23-.41,14.47-.7,21.68-1.28,6.05-.49,12.1-1.11,17.86-3.08a44.36,44.36,0,0,1,7.31-2.14c3-.46,4,.94,6,3,4.26,4.32,10.25,6.6,16.26,5s12.43-5.06,16.63-9.8c3.8-4.3,6-9.56,8.48-14.65a40.1,40.1,0,0,1,4.22-7.15c1.06-1.34,2.55-3.3,4.21-3.19,2.75.18,6.15,3.65,8.46,5.28,3.63,2.57,7.75,4.53,12.3,3.85,5.72-.85,10.9-4.36,14.7-8.6,9.17-10.24,12.34-23.71,15.18-36.74,1.52-7,3.13-14.06,6.39-20.44,2-3.84,7.08-12.23,12.51-10,3.09,1.29,5.13,4.68,7.49,6.91,2.76,2.61,6.21,4.4,10,3.17,5.11-1.63,8.77-6.88,10.76-11.56,2.66-6.25,4.27-12.93,6.79-19.25,5.09-12.78,11.37-25.14,14.77-38.52,3.71-14.56,5.81-29.7,7.44-44.61a400.33,400.33,0,0,0-1-91.6q-1.34-11.1-3.11-22.14c-.61-3.81-6.39-2.19-5.79,1.59,4.73,29.66,7.24,59.76,5.71,89.79a388.5,388.5,0,0,1-4.92,44.62c-1.22,7.21-2.48,14.5-4.35,21.58a149.83,149.83,0,0,1-6.7,19.08c-2.59,6.22-5.36,12.36-7.86,18.61-2.42,6.07-3.9,12.55-6.49,18.54-1.22,2.84-5.09,9.23-8.58,8.18-2.59-.78-4.78-4.23-6.74-6.17-3.16-3.13-7-5.35-11.64-4.22-6,1.46-10.42,7.06-13.2,12.26-6.46,12.12-7.13,26-11.38,38.88-2,6.11-4.9,12.26-9.11,17.21-3.13,3.67-8.47,8.18-13.7,7.53-7.32-.92-11.88-10.8-19.88-9.1-4.69,1-7.94,6.13-10.11,10-2.75,4.92-4.6,10.38-7.9,15-3.54,4.92-9.47,8.27-15.25,9.84a9.78,9.78,0,0,1-8.14-1.46c-2.5-1.67-4.06-4.44-6.75-5.87-4.31-2.28-9.83-.1-14,1.34-5.78,2-11.68,2.68-17.76,3.14-13.62,1-27.36,1.82-41,2-13.46.17-27-.58-40-4.2-13.18-3.66-26.45-7-39.66-10.52a360.28,360.28,0,0,1-39-12.46,189,189,0,0,1-18.7-8.59c-5.64-3-11.62-6-16.51-10.14-2.5-2.13-4.74-4.45-7.38-6.43s-5.54-4.08-8.21-6.26c-5.58-4.55-10.77-9.29-15.94-14.31s-10.11-10-15.11-15.06c-2.34-2.38-5-4.35-7.4-6.71A96.82,96.82,0,0,1,200,524.8a189.08,189.08,0,0,1-12.61-17.29L184,511.92a83.68,83.68,0,0,0,11.44,3.77l-1.8-1.38c20,29.56,45.85,55.15,76.19,74,15.92,9.89,34,14.7,51.61,20.44,4.6,1.49,9.17,3.53,13.89,4.56,4.87,1.05,9.86,1.72,14.77,2.59,9.83,1.75,19.67,3.51,29.56,4.93,21.89,3.14,44.33,4.65,66.25.9,1.72-.3,2.33-2.23,2.1-3.69l-.3-1.91a3,3,0,0,0-2.89-2.21c-2.09.17-4.11-.93-6.1-1.49a19.32,19.32,0,0,1-5.83-2.73c-3.5-2.37-7.37-3.44-11.47-4.32-4.27-.91-8.41-2.59-12.77-3a115.42,115.42,0,0,0-13-.23,108.83,108.83,0,0,1-27.89-3.31c-4.71-1.13-9.48-1.4-14.22-2.31a58.66,58.66,0,0,1-11.92-3.94,31.13,31.13,0,0,1-6-3.27c-1.81-1.31-3.33-2.93-5.26-4.1-3.92-2.36-8.44-3.45-12.57-5.37l-1.51,5.59c5.45.14,10.71,1.86,16.12,2.45a70.67,70.67,0,0,1,15.84,3.62c5.11,1.8,10.12,3.45,15.35,4.89,2.49.69,5,1.24,7.49,2a38.24,38.24,0,0,0,7.68,1.93c2.33.23,4.65.71,7,.78a72,72,0,0,1,8,.48,27.44,27.44,0,0,0,7.68.16,54.42,54.42,0,0,1,8.35-.65,46.38,46.38,0,0,1,7.81.6c2.53.47,4.73,1.64,7.35,1.74,5.15.2,10.32,1.42,15.47,2,3,.33,6,1.08,9.1,1.23s6.15,0,9.22,0c2.78,0,5.42.69,8.19.77,3.19.1,6.4,0,9.6,0a3,3,0,0,0,2.89-2.2,19.75,19.75,0,0,0-3.33-17.05,18,18,0,0,0-15.58-6.52,18.46,18.46,0,0,0-7.61,2.19,12.4,12.4,0,0,0-2.88,2.21c-.7.72-1.68,2.54-2.75,2.64-2.2.2-4.22-5-5-6.61-1.53-3.06-2.81-6.24-4.16-9.38-2.33-5.43-5-12.29-10.22-15.64-5.67-3.66-12.15.13-15.33,5.2-2.12,3.36-2.23,7.58-2.38,11.43-.14,3.63.15,7.94-1.48,11.29s-6.07,2.73-9.09,2.1a26,26,0,0,1-11.34-5.82c-7.54-6.38-12.87-15.06-17.48-23.67-2.15-4-4.14-8.1-6.09-12.21-2.29-4.81-4.44-10.55-9.53-13s-10.08.51-10.88,6c-.45,3.06.18,6.12.73,9.13s.94,6.05-1.23,8.5c-6.16,7-16.82,0-22.15-4.49-6.55-5.51-13.11-12.91-16-21.14a13.72,13.72,0,0,1-.87-4.08c-.12-3.85-6.05-3.87-6,0q.09,6.94.17,13.89c0,.43.34,2.6,0,2.92.53-.48-.93-.83-1.28-1a18.66,18.66,0,0,1-4.09-3c-5.92-5.59-8.79-13.54-11.17-21.12A142.3,142.3,0,0,1,277,491.8q-.37-3.3-.65-6.62c-.17-2.15-.68-4.59,0-6.66a79.1,79.1,0,0,0,3.46-13.22l-2.09,2.1c.28-.1.55-.22.83-.34.66-.26.47-.22-.58.13,0,.06,2.33,1.33,2.45,1.41L278.92,466c.66,5.93.79,11.9,1.25,17.84s1.11,12,1.88,18a168.14,168.14,0,0,0,3,17.53c1,4.25,1.89,11.73,6.52,13.7a3.1,3.1,0,0,0,4.11-1.07c1.56-2.51,2.85-5.17,4.32-7.73a20.87,20.87,0,0,1,1.69-2.65,8.24,8.24,0,0,1,1-1.09s.21,0,.18-.06c-.89-.47.6.89.83,1.2a29,29,0,0,1,3,5.79c1.91,4.24,4,8.38,6.32,12.43,3.14,5.59,7.09,11.35,13.34,13.72a10.53,10.53,0,0,0,12.91-4.38c3.83-5.91,2-13.44,5.39-19.4,1.9-3.32,5.37-4.06,8.81-2.63S359.78,532,362,535c4.71,6.66,7.76,14.29,11.15,21.66,3.52,7.65,7.62,14.88,13.59,20.9,3.74,3.79,9.27,8.63,14.67,4.81,4-2.81,5.52-8.32,6.69-12.78,1.5-5.71,2.21-12.76,6.8-16.93,7.26-6.59,15,4.27,18.64,9.71,2,3,3.55,6.15,5.25,9.3,1.54,2.86,3.47,6,6.41,7.62a9.2,9.2,0,0,0,9.19-.19c2.8-1.7,4.65-4.18,7.95-5,8.34-2.2,15.38,2.43,19.15,9.67,2.85,5.48,3.95,11.57,5,17.58,1.67,9.2,6,28.23,19.56,21.4,3.77-1.89,6.18-5.5,8-9.16a101.56,101.56,0,0,1,6.55-11.76,63.56,63.56,0,0,1,8.43-10.09c1.67-1.6,4.07-3.81,6.61-3.39,1.62.28,3.33,1.84,4.63,3a67.74,67.74,0,0,0,6,5.11c6.17,4.37,13.91,4.12,19.24-1.58s7.3-14.58,9.26-22c2.06-7.72,3.8-15.52,6.19-23.14,2.1-6.71,4.66-14.44,9.44-19.78a17.44,17.44,0,0,1,18.6-4.47c2.72,1,4.87,3.06,7.7,3.85a9.34,9.34,0,0,0,6.64-.52c4.13-2,6.15-6.79,7.57-10.9,1.61-4.64,2.5-9.49,3.93-14.19a78.29,78.29,0,0,1,3.43-8.28c1.92-4.46,3.75-9,5.43-13.52a244.32,244.32,0,0,0,12.64-50.17c4.78-33.41,3.53-67.53-2.7-100.66-6.11-32.51-17.15-64.4-33.69-93.11a207.29,207.29,0,0,0-15.33-22.87l-3.39,4.41c6.72,1.58,12.62,6.76,17.59,11.37a29.33,29.33,0,0,1,3.44,3.43,40.58,40.58,0,0,1,2.91,4.82q2.87,5,5.44,10.15c6.78,13.53,11.34,27.89,16.46,42.09,2.91,8,5.65,16.2,7,24.66C654.78,319.87,660.56,318.26,659.93,314.48Z"/><path class="cls-4" d="M546.43,459.34c.1,7.27,2,15.43,6.42,21.32a11.94,11.94,0,0,0,17.82,2.68c2.77-2.1,4.69-5,6.55-7.85a83.42,83.42,0,0,0,5-8.91,104.6,104.6,0,0,0,7.14-19.64,123.19,123.19,0,0,0,3.43-20.89,136.23,136.23,0,0,0-.63-23.55c-.73-7.73-.52-15.53-1.54-23.24a116.06,116.06,0,0,0-5.47-22.64c-4.58-13.21-11.63-26.09-22.46-35.2a51.4,51.4,0,0,0-16.8-9.56,53.93,53.93,0,0,0-20.63-2.28c-14.24,1-28.24,5.83-40.55,13-3.18,1.85-6.56,3.39-9.6,5.44s-5.9,4-8.8,6.07a143,143,0,0,0-15.77,13,180.09,180.09,0,0,0-25.85,31.18A124.83,124.83,0,0,0,407.28,416a110.16,110.16,0,0,0-2.84,41.92,84.1,84.1,0,0,0,2,10.29c.22.82.45,1.64.7,2.45.12.37.23.74.36,1.1.06.18.64,1.86.29.86a50.38,50.38,0,0,0,2.18,5.27c2.79,5.78,7.48,11.23,14.15,12.22s12.36-2.71,17.3-6.54c2.31-1.8,4.52-3.73,6.8-5.56.54-.44,1.59-1.48,2.2-1.47,1.15,0,1.92,1.49,2.33,2.4,1.28,2.86,1.38,6.2,1.46,9.3a50.82,50.82,0,0,0,.93,10.59,18.35,18.35,0,0,0,11.69,13c5.14,1.95,11.43,1.51,15.94-1.77,5.09-3.69,6.08-10,8.45-15.16a7.21,7.21,0,0,1,2-3s.92-.32.27-.19c.12,0,.87.31.2,0a5.73,5.73,0,0,1,.86.51c-.53-.38.15.15.21.21s.39.4.58.61c.61.68-.3-.46.25.3l.34.5a22.83,22.83,0,0,1,1.88,3.56c-.22-.51.16.4.16.4.1.28.21.55.31.82.18.51.35,1,.51,1.54a37.62,37.62,0,0,1,1.05,4.05c.73,3.58,1,7.23,1.43,10.85q.69,6,1.79,11.92A49.92,49.92,0,0,0,506,537.77a16.26,16.26,0,0,0,14,9.79c14,1.07,22.19-13.61,25.41-25.21,3.46-12.49,2.73-25.65,2.27-38.46a190.55,190.55,0,0,1,0-19.27,69.42,69.42,0,0,1,1.1-8.89c.24-1.28.61-2.52.9-3.79.14-.62-.3.6,0,.15l.06-.1a2.44,2.44,0,0,1-1.48,1.11,3.74,3.74,0,0,1-2.57-.63c-.64-.64-.37-.51-.2-.17-.48-1,0,0,0,.29s.19.74.27,1.12c.16.77.28,1.56.4,2.35s-.07-.68,0,.06c0,.21,0,.41.08.62l.12,1.13c0,.49.09,1,.1,1.47.06,3.86,6.06,3.87,6,0a39.25,39.25,0,0,0-.46-4.45,23.26,23.26,0,0,0-.93-4.52,4.7,4.7,0,0,0-1.86-2.67,3.34,3.34,0,0,0-4,.44c-1.61,1.53-1.87,4.33-2.25,6.38-2.35,12.5-1.3,25.26-1,37.89.33,12,.21,24.63-5,35.71-2.39,5.07-6.08,10.81-11.29,12.67a17.93,17.93,0,0,1-1.9.55,6.8,6.8,0,0,1-1.48.22,14.73,14.73,0,0,1-1.63,0,7.56,7.56,0,0,1-1.76-.2,9.83,9.83,0,0,1-2.88-1,8.48,8.48,0,0,1-2.7-2.1c-1.86-2-2.82-5.4-3.48-8.31-.82-3.6-1.47-7.26-2-10.91-1-6.85-1.12-13.92-3.22-20.56-1.39-4.39-3.6-10.07-8.09-12.13-3.65-1.68-7.1.13-9.24,3.25-1.63,2.37-2.49,5.28-3.45,8-.84,2.36-1.75,4.88-3.39,6.6a8.66,8.66,0,0,1-2.63,1.84,13.13,13.13,0,0,1-3.2.89c.58-.07-.45,0-.45,0-.31,0-.63,0-.94,0-.53,0-1.06,0-1.58-.09.57.06-.45-.08-.45-.08l-.93-.21a14.06,14.06,0,0,1-2.11-.69c.12.06.39.19-.16-.07l-.85-.43a16.87,16.87,0,0,1-1.62-1,14.52,14.52,0,0,1-2.4-2.32c.31.39-.3-.43-.28-.4-.18-.27-.35-.53-.51-.81a11.5,11.5,0,0,1-.62-1.21,17.3,17.3,0,0,1-1.2-5c-.35-3.28-.18-6.59-.44-9.87-.27-3.49-.89-7.28-2.88-10.25-2.13-3.18-6.05-5-9.72-3.29-2.52,1.22-4.74,3.53-6.87,5.31a58.17,58.17,0,0,1-6.88,5.12,15.63,15.63,0,0,1-6.93,2.59,9.87,9.87,0,0,1-6.87-2.63,21.65,21.65,0,0,1-4.75-6.8c-.67-1.38-1.16-2.81-1.71-4.23l-.3-.72q.3.6,0-.18c-.07-.3-.19-.6-.28-.89-.32-1-.6-2.08-.86-3.12a85.68,85.68,0,0,1-2.38-19.21,109.81,109.81,0,0,1,6.85-39.71c4.6-12.48,11.75-23.83,19.67-34.44a158.46,158.46,0,0,1,26.82-28.25,180.89,180.89,0,0,1,16.34-11.68,46,46,0,0,1,4.32-2.33c1.63-.81,3.15-1.79,4.73-2.69,3.12-1.77,6.35-3.36,9.63-4.81,11.82-5.22,25.5-8.4,38.45-6.76,12.34,1.56,22.88,8.95,30.42,18.58,8.74,11.14,13.7,24.95,16.62,38.67,1.57,7.35,1.9,14.69,2.23,22.18s1.43,15.09,1.42,22.69A109.93,109.93,0,0,1,579.47,458a82.7,82.7,0,0,1-9.33,17.26c-1.51,2.13-3.45,4.07-5.92,4.73a5.34,5.34,0,0,1-2.94,0,7.45,7.45,0,0,1-3.2-2.31,22.82,22.82,0,0,1-4.06-8.23,35.14,35.14,0,0,1-1.59-10.08C552.37,455.49,546.37,455.48,546.43,459.34Z"/><path class="cls-4" d="M460.19,469.51c-1.15-1.23-1.87-2.85-3.08-4.06a9.15,9.15,0,0,0-5-2.52c-4.16-.66-7.89,1.13-11.07,3.67-2,1.6-3.77,3.45-5.61,5.21a27.25,27.25,0,0,1-5.78,4.67c-.23.13-.47.24-.7.36-.5.27.31-.06-.22.1-.23.07-.46.16-.7.22s-1,.13-.36.1c-.22,0-.46,0-.68,0-.5.07.36.16-.12,0-.26-.09-.53-.14-.79-.23s.13.05.16.06c-.15-.08-.3-.15-.44-.24s-.63-.46-.27-.16a7.55,7.55,0,0,1-.65-.61,7.44,7.44,0,0,1-1.22-1.6,23.33,23.33,0,0,1-2.1-4.43c-2.43-6.77-2.86-14.12-3.19-21.25a98.48,98.48,0,0,1,1.65-24.3,80.52,80.52,0,0,1,7.43-20.79c6.77-13,16.37-24.28,26.39-34.9,10.28-10.89,20.89-21.8,33.22-30.39A87.53,87.53,0,0,1,507,327.81,53.7,53.7,0,0,1,517.1,325a14.59,14.59,0,0,1,2.29-.12,5.54,5.54,0,0,1,1.87.29,4.13,4.13,0,0,1,1.41.69,6.69,6.69,0,0,1,1.29,1.31c2,2.76,2.83,6.32,3.67,9.59.91,3.57,1.92,7.13,2.85,10.7,1.87,7.28,3.54,14.63,4.72,22.06,2.32,14.61,2.61,29.93-2.14,44.1a50.52,50.52,0,0,1-11.25,18.61A110.06,110.06,0,0,1,504.71,447a207.94,207.94,0,0,1-20.25,12.47c-3.69,2-7.41,4-11.15,5.9-2.6,1.35-5,3.1-7.68,4.3a11.08,11.08,0,0,1-3,.8c-.14,0-.88,0-.41,0a4.34,4.34,0,0,1-.88-.21c-.62-.21-.24-.11-.14-.06a3.5,3.5,0,0,1-.42-.24,4.39,4.39,0,0,1-.59-.5c-2.78-2.68-7,1.56-4.24,4.25,5.75,5.54,12.84,1.19,18.44-2.11,3.42-2,7-3.71,10.54-5.59,3.81-2.05,7.58-4.17,11.29-6.39a159.6,159.6,0,0,0,20-14A83.46,83.46,0,0,0,532.83,428c8.8-13.25,10.74-30.51,9.76-46a167.33,167.33,0,0,0-3.44-23.88c-1.61-7.57-3.71-15-5.64-22.49-1-3.74-1.92-7.63-4-10.92a11.92,11.92,0,0,0-9.4-5.73c-3.62-.29-7.39.8-10.82,1.83a82,82,0,0,0-11.7,4.57c-14.43,6.9-26.68,17.74-37.91,29-11,11-21.92,22.43-30.69,35.34A102.73,102.73,0,0,0,418.11,410a87,87,0,0,0-5.51,24.72,126.52,126.52,0,0,0,.56,24.38,59.33,59.33,0,0,0,2.3,11.65c1.14,3.48,2.72,7.27,5.41,9.86A9.08,9.08,0,0,0,429,483.1c2.76-.49,5.16-2.22,7.28-3.94s4.19-3.83,6.24-5.79c.91-.87,1.85-1.74,2.84-2.53.27-.21-.07.06-.11.08l.7-.49c.36-.25.72-.47,1.1-.69a7.65,7.65,0,0,1,2.45-.92,3.94,3.94,0,0,1,3.28.74c1.3,1.13,2,2.92,3.22,4.2C458.58,476.59,462.82,472.34,460.19,469.51Z"/><path class="cls-4" d="M540,446.19c-4.58,11.9-5.32,24.79-5.68,37.41-.17,6-.19,12.09-.36,18.14a71.85,71.85,0,0,1-2.21,17.4c-1.3,4.63-3.69,10.65-8,12.53a13.68,13.68,0,0,1-1.5.47c-.08,0-.59.1-.08,0a8.44,8.44,0,0,1-.87,0l-.57,0c.58,0,0,0-.16,0l-.67-.18c-.68-.18.31.24-.29-.13-.24-.14-.48-.27-.71-.43.1.07.38.35-.06,0-.18-.16-.35-.33-.52-.51s-.46-.56-.19-.2a6.56,6.56,0,0,1-1.23-2.77c-2.83-11.54-3-23.57-6.43-35-1.63-5.42-3.74-11.69-8.46-15.19s-10.33-2.32-14.56,1.12-6.1,8.74-8,13.68a22.09,22.09,0,0,1-3,6,7.38,7.38,0,0,1-2.56,2.12,5.64,5.64,0,0,1-2.61.46,6.48,6.48,0,0,1-4.51-3,11.22,11.22,0,0,1-1.55-7.09,22.39,22.39,0,0,1,.54-3.82c0-.07.23-.84.15-.75.36-.44,1.46-.68,1.93-.86,3.07-1.18,6.12-2.44,9.15-3.75a187.9,187.9,0,0,0,26.86-14.23c17-10.95,32.61-25.28,41.85-43.52a78.46,78.46,0,0,0,8.61-32.89c.43-13-2.38-25.95-6.35-38.3A159.56,159.56,0,0,0,542.17,337c-.65-1.46-1.33-2.89-2-4.35-.19-.42-.37-.85-.56-1.28-.35-.83.13.31-.08-.2l-.27-.66c-.37-.91-.72-1.83-1-2.76-.26-.77-.5-1.55-.69-2.34-.08-.38-.15-.75-.22-1.13.17.88,0-.34,0-.58-.05-.79-.23.5,0-.17.16-.44-.15.31-.15.32.22-.36-.05-.35-.17.17,0-.08.18-.1.5-.17a7.29,7.29,0,0,1,1.58,0c4.46.37,9.08,2.7,12.71,5.48,8.45,6.48,14.2,16.42,18.58,25.93a117.51,117.51,0,0,1,9.52,34.09,175.36,175.36,0,0,1,.5,35.56,137.32,137.32,0,0,1-7,35.14c-1.45,4.1-3.55,9.86-7.95,11.33-1.92.63-3.68.59-4.68-1.21-1.24-2.23-1.35-5.45-1.71-8-.43-3.14-.77-6.29-1.1-9.43s-.49-6.59-1.09-9.8c-.88-4.61-5-9.62-10.16-7-3.7,1.92-5.33,6.64-6.75,10.28a3,3,0,0,0,2.1,3.69,3.07,3.07,0,0,0,3.69-2.1l.41-1,.3-.74c-.19.47,0,0,0-.08a25.44,25.44,0,0,1,1.55-3c.16-.25.33-.51.51-.76-.26.35,0,0,.07-.09s1-1,.58-.63c.4-.36.49,0,.14-.14.28.1.2-.08-.11-.05h.29c.36,0,.37,0,0,0l.12,0c-.2-.08-.16-.05.1.09l-.19-.15a4.44,4.44,0,0,1,.38.37c-.07-.08-.3-.46,0,0,.1.16.68,1.26.48.8a9,9,0,0,1,.44,1.33c.06.26.11.52.17.77.2.83-.11-1.1,0,.39.36,3.42.71,6.83,1.09,10.25s.81,7,1.34,10.52c.44,2.92.85,6,2.67,8.42,4,5.35,11.53,4,15.94,0s6.37-10.23,8.12-15.74a129.38,129.38,0,0,0,4.25-18A192.86,192.86,0,0,0,587,403.4a137.52,137.52,0,0,0-5.92-36.92c-3.55-11.39-8.73-22.58-16-32.07a50.67,50.67,0,0,0-12-11.62,33,33,0,0,0-7.32-3.6,21.17,21.17,0,0,0-7.9-1.43c-2.59.15-5.46,1.33-6.22,4.05a10.43,10.43,0,0,0,.22,5.26A61.29,61.29,0,0,0,536.09,338l.9,2c.17.39.36.94.09.2.17.46.35.92.52,1.39,1.17,3.21,2.33,6.42,3.42,9.66a155.63,155.63,0,0,1,5.41,19.53c2.49,12.49,2.63,25.38-1,37.66-5.73,19.48-19.52,35.59-35.59,47.65A169.63,169.63,0,0,1,483,472.41q-7.59,3.75-15.49,6.85a31.88,31.88,0,0,0-4.36,1.78A6.9,6.9,0,0,0,460,485.2a24.65,24.65,0,0,0-.65,10c.77,5.38,4.7,10.64,10.27,11.65,6.23,1.13,11.25-3.09,13.78-8.46,2.13-4.5,3.22-9.92,6.51-13.63a11.33,11.33,0,0,1,2.67-2.26,7.24,7.24,0,0,1,2.61-.93,5.09,5.09,0,0,1,2.27.38,6.5,6.5,0,0,1,2.39,1.89c1.62,1.82,2.7,4.6,3.58,7a67.23,67.23,0,0,1,2.55,8.7c1.37,6,2.13,12.07,3,18.13.45,3,.92,6.08,1.52,9.09.56,2.83,1.22,5.51,3.07,7.8,3.3,4.1,8.89,4.52,13.36,2.2,5.55-2.87,8.42-9,10.2-14.74a71.71,71.71,0,0,0,2.74-18.48c.5-12.61,0-25.27,1.55-37.82a75.16,75.16,0,0,1,4.34-17.92,3,3,0,0,0-2.1-3.69A3.08,3.08,0,0,0,540,446.19Z"/><path class="cls-4" d="M340.43,558.3c-.34.11-.68.22-1,.3s-1.27.21-.48.12a13.88,13.88,0,0,1-2.41.08c-.21,0-1.38-.16-.56,0-.39-.06-.77-.13-1.15-.21a20.85,20.85,0,0,1-2.57-.72c-.39-.14-.79-.29-1.18-.45-.76-.3.35.16-.11,0-.2-.09-.4-.17-.59-.27-.9-.42-1.77-.88-2.62-1.38s-1.6-1-2.38-1.49l-1.17-.82-.47-.34c-.08-.06-.95-.73-.56-.42a62.9,62.9,0,0,1-8.86-8.56c-.65-.75-1.28-1.52-1.89-2.3s.33.44-.25-.33l-.35-.46-1-1.41a52.27,52.27,0,0,1-3-4.88c-.46-.84-.9-1.7-1.3-2.58l-.24-.54c.29.65,0,0-.06-.15-.16-.42-.32-.84-.46-1.26a19.65,19.65,0,0,1-.66-2.39c0-.12,0-.25-.07-.38-.18-.84,0,.4,0-.11,0-.35-.06-.7-.06-1-.09-3.85-6.05-3.87-6,0q.08,5.41.13,10.82c0,1.77.1,3.55.07,5.31a4.91,4.91,0,0,1-.05.77c-.08,0,.29-.33.3-.36.09-.28.61.28-.18-.1a6.47,6.47,0,0,1-.69-.25,3,3,0,1,0-1.59,5.79c2.23.76,4.93.67,6.64-1.17s1.58-4.25,1.55-6.54l-.18-14.27h-6a24,24,0,0,0,3,10.13,57.89,57.89,0,0,0,7,10.58c5.54,6.81,12.55,13.09,20.8,16.34,3.87,1.53,8.32,2.15,12.33.82a3.07,3.07,0,0,0,2.1-3.69,3,3,0,0,0-3.69-2.1Z"/><path class="cls-4" d="M619.42,237.05c-2.74-3.82-5.66-7.52-8.75-11.05-2.14-2.45-4.4-5.26-7.15-7.05s-6.43-.09-5.53,3.47c.57,2.22,2,4.32,3.07,6.35,1.25,2.48,2.64,5.3,2.87,8.06s-1.26,3.86-4.11,4.28a10.43,10.43,0,0,1-6.71-1c-3.56-2.06-6.32-5.24-10-7.22a72.83,72.83,0,0,0-8.23-3.78c-3-1.17-6.42-2.29-9.69-2-2.78.28-5.32,1.86-5.9,4.74-.48,2.44.48,4.94,1.28,7.21a76.08,76.08,0,0,1,4.72,21.21,37.14,37.14,0,0,1-.43,9.88c-.57,2.64-1.66,5.85-4.45,6.87-1.59.58-3.44.31-5.08.19a38.81,38.81,0,0,1-7.43-1.23,41.73,41.73,0,0,1-10.69-4.62,35.49,35.49,0,0,1-10.8-9.66c-2.93-3.95-7.66-13.3-13.74-8.23-3,2.49-4.74,6.67-6.21,10.15a73.84,73.84,0,0,0-3.21,10.69c-.66,2.66-1.44,4.54-4.25,5.76a12.85,12.85,0,0,1-10.19-.25c-3.44-1.69-5.85-5.61-8.26-8.45-3-3.49-5.92-7-9.07-10.37s-8.38-8.68-12.82-4.4c-1.86,1.79-2.37,4.59-2.8,7a56.93,56.93,0,0,1-2.18,9.57c-2.38,6.55-11.43,12.89-18,7.87-3-2.26-4.64-6.16-5.94-9.53a91.6,91.6,0,0,1-3.95-12.71c-.62-2.73-1-6.19-3.52-7.89s-5.36-.75-7.48,1.11c-2.4,2.09-4.24,4.74-6.87,6.59a19.61,19.61,0,0,1-13.15,3.17,33.5,33.5,0,0,1-13-3.91c-4.21-2.25-8-5.21-12-7.78a45.94,45.94,0,0,0-6.2-3.38c-1.55-.68-3.24-1.54-5-1.11-2.57.63-3.4,3.32-3.92,5.59-1.62,7.16-3.28,14.26-6.58,20.88a32.34,32.34,0,0,1-8.89,11.27,44.14,44.14,0,0,1-9.84,5.44c-2,.87-4.64,1.77-5.24,4.17-.65,2.59,1.45,4.4,3.76,4.81a38.6,38.6,0,0,0,7.29.23,73.34,73.34,0,0,1,10,.43c7.33.93,14,4,17.48,10.8s3.82,16.12,0,23c-3.5,6.34-9.61,11.06-15.72,14.74-4.85,2.91-16,6.45-12.41,14.31,1.45,3.15,4.75,5.4,6.92,8a47.29,47.29,0,0,1,5.27,7.93c4.1,7.79,4.57,16.56-.28,24.13a28.5,28.5,0,0,1-21.93,12.68c-3.89.16-7.43-.79-11.22-1.43-3-.5-6.51.28-6.51,4,0,3.49,3.32,6.67,5.54,9a90.57,90.57,0,0,0,18.19,14.58,28.32,28.32,0,0,1,12.09,13.87c3.18,7.69,3.4,16.94-3.44,22.68-3.14,2.64-7.1,4.3-10.89,5.76a71.1,71.1,0,0,1-12.29,4,30.19,30.19,0,0,1-21-3.78,23.59,23.59,0,0,1-7.95-9.09,36.3,36.3,0,0,1-2.35-5.57c-.62-1.88-.78-4.42-2.6-5.52-2.44-1.47-4.79,1-4.41,3.39,1.85,11.63,2.73,23.34,4.19,35A175.22,175.22,0,0,0,285,519.06c1.17,5,2,12.13,7.32,14.33a3,3,0,0,0,3.39-1.38c1.62-2.6,2.94-5.36,4.49-8a19.79,19.79,0,0,1,1.75-2.66c.14-.16,1.07-1,.71-.72a3,3,0,0,0,.45-.26c-.33.14-.34.17,0,.07a.86.86,0,0,1-.65,0c0-.29.48.64,0,0-.08-.11.69.52.46.29a11.67,11.67,0,0,1,.84,1,33.37,33.37,0,0,1,3.31,6.39,150.27,150.27,0,0,0,7,13.46c3.07,5.31,7.63,11.15,13.95,12.59,6.15,1.4,10.82-2.58,12.94-8.07,1.4-3.6,1.38-7.43,2.14-11.16.61-3,1.71-6.78,4.89-8,3.51-1.37,7.49.91,9.92,3.33a45.29,45.29,0,0,1,7.29,10c4.21,7.4,7.1,15.45,11.06,23a62.48,62.48,0,0,0,7.51,11.25c2.5,3,5.47,6.34,8.93,8.22,11.74,6.38,15-11.82,16.91-19.23,1-3.71,2.22-7.73,5.06-10.46,3.17-3,7-2.82,10.37-.24,6.68,5.13,10.21,12.92,14.26,20,1.71,3,3.9,6.07,7.27,7.26,3.58,1.25,6.78.14,9.62-2.13s5.35-4,9.26-4.23a15.22,15.22,0,0,1,11.49,4c9.63,9,8.27,23.87,12.45,35.44,1.9,5.28,5.34,11.27,11.76,11.06,9.95-.32,13-11.65,17.19-18.66a68.3,68.3,0,0,1,8.25-11.12c2-2.25,4.7-5.49,7.93-6,1.35-.2,2.89.61,4.35,1.77,2.08,1.66,3.9,3.63,6,5.28a18.77,18.77,0,0,0,8.36,4.11,13.87,13.87,0,0,0,11.57-3.86c3.29-3,5.09-7.26,6.56-11.38,1.31-3.67,2.41-7.41,3.41-11.17,2.15-8.06,4-16.22,6.5-24.17a80.81,80.81,0,0,1,4.42-11.27c1.57-3.17,3.35-6.49,6-8.89A17.44,17.44,0,0,1,610,525.9c2.65,1.22,4.79,3.18,7.76,3.67a8.94,8.94,0,0,0,6.83-1.47c4.13-2.94,5.9-8.34,7.26-13s2.1-9.47,3.91-13.92c-.28.67.17-.38.16-.36l.78-1.7c.51-1.14,1-2.28,1.51-3.42,1-2.3,2-4.61,2.89-6.93q2.79-6.91,5.17-14a185.56,185.56,0,0,0,6-21.47,242.71,242.71,0,0,0,4.32-35.13,412.53,412.53,0,0,0-4.41-86.28c-4.23-27.46-11-55.34-23.83-80.14a124,124,0,0,0-8.88-14.7c-2.22-3.13-7.42-.13-5.18,3,15.18,21.43,23,47.68,28.41,73.1a405.57,405.57,0,0,1,8.48,86.46,315.28,315.28,0,0,1-2.42,38.48,190.17,190.17,0,0,1-9.46,38.59q-2.47,7.05-5.38,13.93c-1.44,3.44-3.23,6.79-4.42,10.32-1.59,4.73-2.44,9.68-4,14.42a24.23,24.23,0,0,1-2.74,6.12,3.42,3.42,0,0,1-.65.84c-.15.16-1.05,1-.64.67-.21.15-1,.59-.8.51s-1.36.28-.66.21a3.91,3.91,0,0,1-2.55-.46c-1.13-.48-2.33-1.43-3.5-2.08a22.36,22.36,0,0,0-10.5-2.69,23.06,23.06,0,0,0-18.91,9.32c-4.7,6.46-7.5,14.27-9.79,21.85-2.37,7.86-4.12,15.89-6.31,23.79a100.46,100.46,0,0,1-3.68,11.37c-1.5,3.66-3.92,7.67-8,8.66-5.35,1.28-9.73-4.4-13.32-7.41a14.47,14.47,0,0,0-6.56-3.59,11.42,11.42,0,0,0-8.4,2c-3.6,2.43-6.56,5.86-9.25,9.24a76.84,76.84,0,0,0-7.74,11.66c-2,3.72-3.4,8.51-6.84,11.18a6,6,0,0,1-4.46,1.42,3.23,3.23,0,0,1-1.94-1.18c-3.5-3.55-4.54-10.05-5.48-14.87-1.16-5.94-2.06-11.83-4.36-17.49-3.16-7.78-8.86-15-17.58-16.55a22,22,0,0,0-13,1.4,19,19,0,0,0-4.11,2.76,10.64,10.64,0,0,1-3.13,2.26c-2.92.92-4.9-2.66-6.08-4.72-1.83-3.21-3.32-6.54-5.36-9.64-4.34-6.59-11.32-16.34-20.37-15.4s-13.07,9.86-15,17.56c-1.15,4.54-1.87,9.54-4.27,13.54a8.9,8.9,0,0,1-.65,1c-.16.18-1,1-.69.72a4.71,4.71,0,0,1-.48.29c-.78.36.34-.1-.16,0-.22.07-.67,0-.15.06-.08,0-.86-.11-.37,0-2.93-.77-5.53-3.89-7.61-6.19-5.82-6.4-9.37-14.26-12.88-22.07s-7.11-15.57-12.81-22c-5.29-6-14.79-10.25-21.58-3.89-2.74,2.56-4.12,6.29-4.81,9.9s-.62,7.39-2,10.81a9.36,9.36,0,0,1-1.7,2.73,3.91,3.91,0,0,1-2.3,1.28,4.71,4.71,0,0,1-1.93-.14,10.7,10.7,0,0,1-3.35-1.66,22.92,22.92,0,0,1-6-6.94,141.71,141.71,0,0,1-7-13.23c-2.11-4.52-6.25-15.34-13.25-10.95-2.1,1.32-3.51,3.61-4.72,5.71-1.5,2.59-2.8,5.28-4.38,7.82l3.38-1.38c-.37-.15-.76-1.61-.9-2-.44-1.33-.82-2.69-1.19-4-.74-2.7-1.37-5.42-1.92-8.17-1.11-5.59-1.88-11.24-2.5-16.91-1.18-10.72-2.18-21.41-3.87-32.06l-4.41,3.38.17.11-1.38-1.8c2.12,8.19,6,16.14,13.06,21.16,5.77,4.11,13.46,5.89,20.5,5.77a41.44,41.44,0,0,0,13.33-2.75,112.72,112.72,0,0,0,11.9-4.84c7.82-3.88,13.34-10.25,14.07-19.19.69-8.54-3-17.43-8.32-23.94-3.66-4.48-8.75-6.92-13.44-10.11a76.08,76.08,0,0,1-9.69-8.05c-1.31-1.26-2.6-2.54-3.82-3.88a22.84,22.84,0,0,1-1.5-1.76c-.31-.41-.91-1.58-1.12-1.74-.4-.3.23-.26-.18.35-.31.46-.94.9-1.19,1.29s-.54-.08.13.06.24,0,.1,0c1.65.2,3.28.72,4.92,1a34.71,34.71,0,0,0,13.92-.19c12.63-2.89,23.73-13.48,25.33-26.61,1-8.25-2.21-16.4-6.83-23.1a60,60,0,0,0-7-8.36,10.47,10.47,0,0,1-2.18-2.56s-.07-.18.12-.5a4.21,4.21,0,0,1,.71-.8c2.62-2,6.3-3.39,9.26-5.16a72.41,72.41,0,0,0,8.49-6c6.25-5.14,11.27-11.9,12.51-20.05s-.51-17.12-5.69-23.76c-4.71-6-11.86-8.78-19.24-9.76-5.66-.75-11.34-.06-17-.61.6.06-.2.14-.44-.12s-.13-.36.31.13a8,8,0,0,1,.95,1.31c.19.75-.19,2.19-.67,2.21.32,0,1.08-.59,1.37-.72a87.57,87.57,0,0,0,8.45-4.08c7.77-4.67,12.92-11.86,16.23-20.17,2.57-6.46,4.05-13,5.71-19.74-.16.66-.09.07.08-.07a5.49,5.49,0,0,1-.84.67c-.13.07-1,.35-.55.14-.34.16-.71-.17.36.23a34.69,34.69,0,0,1,6.12,3.22c3.86,2.42,7.46,5.22,11.41,7.49,7.89,4.54,18.23,7.12,27.15,4.36a25.7,25.7,0,0,0,10.65-6.8c1-1,1.88-2,2.87-3,.16-.16,1.08-1,.85-.79.62-.53.49,0-.2-.26.51.2-.3,0-.31-.39,0,.15.31.52.37.68-.19-.49,0,.17.07.29.49,1.62.79,3.3,1.17,4.95a88.73,88.73,0,0,0,3.92,12.19c3,7.62,7.88,15.33,17.11,15,8.76-.28,15.64-6.3,18.4-14.34a64.57,64.57,0,0,0,2.05-9.32,20,20,0,0,1,.84-3.52c.07-.2.31-.17.4-.73,0,.17-.38.35-.19.22-1.3.91-.23-.29-.23.06,0,.15-.57-.3-.18,0,.63.46-.26-.31.47.21a17.17,17.17,0,0,1,2.33,1.86,110.61,110.61,0,0,1,7.87,8.61c3,3.48,5.77,7.27,9.06,10.48a16.45,16.45,0,0,0,9.73,4.56c7.44.94,14.79-2.29,17-9.79.91-3.12,1.43-6.3,2.54-9.37a40.79,40.79,0,0,1,3.23-6.81,19.84,19.84,0,0,1,1.17-1.85c.14-.18.3-.35.45-.52s.27-.27.41-.4.24-.22-.09.05c0,0,.25-.17.3-.17-.94.07-.42.27-.23.12s-.2,0-.17.05-.27,0-.3-.09c.06.19.2.06.4.26s.34.33.5.51a15.54,15.54,0,0,1,1.35,1.79,66.63,66.63,0,0,0,7.55,9.73,48.64,48.64,0,0,0,23.44,12.19c4.06.77,9.15,1.65,13.14.19,7.09-2.61,8.77-11,8.94-17.66a68.34,68.34,0,0,0-3-21.69c-.88-2.85-2.07-5.61-2.88-8.48a13,13,0,0,1-.33-1.37c.13.74,0-.41,0-.6.1.74-.16.27,0,0-.37.47-.15.42-.05.2-.2.45-.32.15.16.06,2.41-.44,5.88.89,8.4,1.9a53.87,53.87,0,0,1,7.6,3.7c3.31,2,5.9,5.1,9.35,6.85a15.74,15.74,0,0,0,7.93,1.58c3.6-.16,7.41-1.17,9.66-4.19,1.88-2.54,1.92-5.77,1.3-8.75a35.63,35.63,0,0,0-3.42-8.71c-.56-1.08-1.15-2.16-1.7-3.24-.21-.41-.43-.82-.61-1.24.37.86,0,0,0,0l-.05-.15c-.23-1.17-.65-.23-1.26,2.8l-1.51.41a1.69,1.69,0,0,1-.83-.19c-.27-.13-.3-.14-.06,0,0,0,.72.48.17.09a13.68,13.68,0,0,1,1.28,1.12c1.36,1.28,2.64,2.66,3.89,4.05a129.86,129.86,0,0,1,8.77,10.93C616.47,243.19,621.67,240.2,619.42,237.05Z"/><path class="cls-4" d="M605.88,225.13a39.91,39.91,0,0,1-1.9,12.38c-.93,2.71-2.52,5.69-4.76,7.09s-4.93,1-7.8,0a70.71,70.71,0,0,1-12.07-6.38c-3.55-2.16-6.92-4.59-10.26-7.08-1.66-1.23-3.73-3.19-6-3.15a3.42,3.42,0,0,0-3.34,3.59c.06,2,1.6,3.87,2.57,5.51a44.36,44.36,0,0,1,5.17,13,120.19,120.19,0,0,1,1.84,12.08c.42,3.44,1,7.1.51,10.56.08-.56-.11.46-.1.46-.08.3-.14.6-.23.89s-.18.58-.29.86c.22-.56-.16.32-.18.35a10.4,10.4,0,0,1-2.82,3.3,18.4,18.4,0,0,1-8.64,3.13c.61-.08-.34,0-.38,0l-.8.08-1.28.08a23.14,23.14,0,0,1-6.38-.5,39.55,39.55,0,0,1-10.55-4.52,55.52,55.52,0,0,1-9.17-5.9,31.5,31.5,0,0,1-7.7-10.07c-1.14-2.28-2.39-5-5.37-5a5.47,5.47,0,0,0-4.71,3.31c-2.23,4.29-2.86,9.39-4.32,14a30.52,30.52,0,0,1-3.14,7.28,11.15,11.15,0,0,1-4.86,4.73c-5.2,2.4-11.77-.61-16.19-3.55-5.34-3.55-8.46-9.23-11-14.94-.9-2-1.67-4.25-3.15-5.94a4.38,4.38,0,0,0-6.48-.49c-1.91,1.91-2.06,5.33-2.68,7.8a48.73,48.73,0,0,1-4,10.3c-1.49,2.94-3.27,6-5.9,8-2.94,2.29-6.48,2.44-9.93,1.28-7.3-2.47-12-9-14-16.16-.82-3-1.23-6-2-9-.55-2.28-1.47-4.8-3.69-5.95-2.89-1.49-5.62.09-7.49,2.34-2.15,2.6-4.14,5.13-7.32,6.53-6,2.64-13.21.95-19-1.41-7.27-3-13.13-8.28-20.06-11.84-2.72-1.4-6.72-3.8-9.49-1.25-1.67,1.54-2,4.12-2.48,6.23A80,80,0,0,1,347,278.46a22.47,22.47,0,0,1-8.5,9.06c-2.78,1.64-5.84,2.38-8.74,3.71s-4.08,5-1,6.87c2.21,1.3,5.32,1,7.79,1.25a35,35,0,0,1,12.34,3,31.55,31.55,0,0,1,9.15,6.81c4.95,5.28,8,12.82,4,19.54-2.15,3.6-5.36,6.51-8.37,9.38a77.28,77.28,0,0,1-9.41,8.22,29.31,29.31,0,0,1-11.44,4.41c-3.09.59-5.68,2.82-4.95,6.22.46,2.16,2.09,3.89,3.57,5.44,2.06,2.16,4.23,4.21,6.2,6.47a36.1,36.1,0,0,1,8.6,17.26A24.23,24.23,0,0,1,345,399.18c-.1.25-.2.49-.29.74-.24.6.31-.69,0,0-.09.21-.18.42-.28.63a30.45,30.45,0,0,1-1.84,3.42,17,17,0,0,1-6.09,6.16,9.23,9.23,0,0,1-2,.81c-.33.1-.66.17-1,.26-.07,0-1,.15-.33.07a14.18,14.18,0,0,1-3.32-.05c.56.07-.93-.15-1.2-.19l-1.87-.34c-1.73-.3-3.48-.57-5.23-.73a40.86,40.86,0,0,0-12.87.56c-2.65.62-4.94,2.43-5.08,5.29a9.54,9.54,0,0,0,1.72,5.31,55.81,55.81,0,0,0,6.73,8.29c3,3.24,6.17,6.37,9.48,9.31,4.08,3.61,8.49,6.82,12,11a57.63,57.63,0,0,1,6.81,9.61c1.6,3,2.8,6.84,1.2,9.73-1.44,2.6-4.87,4.35-7.61,5.87a71,71,0,0,1-8.71,4.39c-7.4,2.86-16.07,3.76-23.73,1.35a27.88,27.88,0,0,1-10.05-5.72,35.28,35.28,0,0,1-3.2-3.27,21.1,21.1,0,0,1-1.7-2.22,3.14,3.14,0,0,0-4.2-1.1,3.09,3.09,0,0,0-1.1,4.2A36,36,0,0,0,295.92,485c7.55,3.4,16,3.81,24.08,2.23,7-1.36,13.37-4.72,19.42-8.32,2.81-1.68,5.64-3.63,7.36-6.48A14,14,0,0,0,348,461.61,32.64,32.64,0,0,0,342.35,451a75.22,75.22,0,0,0-6.39-7.85c-3.58-3.71-7.81-6.74-11.6-10.22-3.14-2.88-6.14-5.92-9-9.08a34,34,0,0,1-5.08-6.58l-.26-.5c-.33-.62.2.64,0,0a6.54,6.54,0,0,0-.26-.92c.32.63,0,.62.06.06-.12,1.12-.11.63,0,.39.18-.63-.32.68-.13.26s-.07.39,0,.05c0,0-.4.06,0,0-.64.05.3-.08.4-.1.38-.1.76-.18,1.15-.25a37.83,37.83,0,0,1,6.29-.39,47.36,47.36,0,0,1,8.7.89,25.91,25.91,0,0,0,7.07.62c6.65-.66,11.75-5.37,15-10.92a30.89,30.89,0,0,0,4.41-17.79A39.07,39.07,0,0,0,346.22,370c-3.31-5-7.72-8.7-11.56-13.17l-.46-.56c.48.62,0,0,0-.09a2.91,2.91,0,0,0-.25-.42c-.34-.45.21-.11,0,.16a3.37,3.37,0,0,0-.14-.46c.18.88.08.52.07.23,0,.68.05.28-.23.85a1.15,1.15,0,0,1-.34.32c-.21.13-.18.12.08,0l-.24.11a5.66,5.66,0,0,1,.59-.15c.37-.07.73-.15,1.1-.21.9-.17,1.8-.34,2.69-.56a31.21,31.21,0,0,0,6.42-2.4,43,43,0,0,0,9.32-6.75c3.14-2.84,6.26-5.75,9.16-8.83a30.24,30.24,0,0,0,6.38-9.26,19.09,19.09,0,0,0,.85-10.89c-1.55-7.71-7.38-14.19-13.7-18.51-6.65-4.55-14.27-5.8-22.12-6.39l-1-.08c-.1,0-1.07-.14-.29,0a5,5,0,0,0-1-.23l.44.19c-.46-.28-.22,0,.74.78.27.46.61,3.26-.75,3.32.13,0,.33-.22.46-.26.5-.15-.53.17.24-.09a48.21,48.21,0,0,0,8.9-3.79c7.11-4.17,10.84-10.8,13.75-18.23a90.87,90.87,0,0,0,3.71-11c.65-2.66,1.11-5.36,1.83-8,.23-.82-.29.27.14-.32s-.53.53-.13.16c-.42.39-.23.31-.81.48-.39.11-1.16-.23-.63.08.92.55,2.14.84,3.12,1.33a94.59,94.59,0,0,1,10.31,6.4c10.52,7,26.53,13.84,38.25,5.43,2.55-1.83,4.22-4.22,6.32-6.5a7.23,7.23,0,0,1,.55-.56c.46-.43-.44.06.11-.06-.58.13-.13.16-.78.1.63.06-.7-.18-.11,0l-.34-.27a3.07,3.07,0,0,1,.25.26c-.27,0-.32-.58,0,0,.06.12.37.79.07.07,1,2.33,1.21,5,1.73,7.44a42.64,42.64,0,0,0,3.11,9.67c3.28,7,10,12.92,17.54,14.77a16.08,16.08,0,0,0,11.72-1.4A22.23,22.23,0,0,0,458.8,285a57.62,57.62,0,0,0,7.36-18.71c.13-.56.27-1.11.42-1.66.23-.81-.24.14.19-.39a2,2,0,0,1-2.19.85c.26.07-1.11-.71-.5-.23.43.35-.39-.63-.08-.1l.31.48c.21.35.39.71.58,1.08.52,1,1,2.12,1.45,3.19,2.53,5.71,5.66,11.29,10.54,15.34a31.37,31.37,0,0,0,15.1,7,16.42,16.42,0,0,0,16.63-7.51c2.93-4.36,4.4-9.63,5.74-14.65.57-2.12,1.07-4.26,1.8-6.32.07-.22.59-1.42.19-.58.16-.33.34-.65.51-1,0-.09.12-.18.17-.27.29-.5-.51.53-.11.16s-.5.25-.44.23a1.82,1.82,0,0,1-1.76-.47c.18.13.44.6,0,0,.13.2.24.4.36.61.68,1.21,1.22,2.5,1.9,3.71a34.74,34.74,0,0,0,8.14,9.87,59.17,59.17,0,0,0,8.94,5.92,61.54,61.54,0,0,0,10.18,4.91,31.68,31.68,0,0,0,18.86.32c6.11-1.81,11.68-6.22,12.74-12.79a36.21,36.21,0,0,0-.08-9.81c-.44-4-.92-8-1.56-11.9a52.5,52.5,0,0,0-3-11.09,51.1,51.1,0,0,0-3-6.21c-.55-1-1.14-1.92-1.71-2.88-.21-.34-.39-.77-.63-1.09l-.16-.31a1.85,1.85,0,0,1-.19,1.93l-1.1,1.11c.23-.18-1.31.34-1.27.33s-1-.13-.51,0c-.57-.12-.45-.23,0,0s1.11.72,1.64,1.11c1.71,1.23,3.38,2.51,5.08,3.73a115.86,115.86,0,0,0,15.38,9.34c4.27,2.16,9,4.15,13.91,3.08,4.31-.94,7.59-4.46,9.52-8.26,2.8-5.53,3.7-11.86,3.78-18,.05-3.95-6.09-3.95-6.14,0Z"/><path class="cls-4" d="M543.14,317.29c17.23,5.31,28.58,21,34.84,37.2a106.38,106.38,0,0,1,7.13,29.59c.41,5.25.45,10.51.81,15.76s1.05,10.56,1.15,15.88c.34,18.7-4,38.25-13.58,54.39-2,3.42-4.16,7.35-7.68,9.26a6,6,0,0,1-4.18.69,7.81,7.81,0,0,1-4.2-3.25,30.82,30.82,0,0,1-4.73-13.22c-.34-2.62-.28-5.27-.62-7.9-.3-2.29-.47-5.2-1.94-7.1a3.35,3.35,0,0,0-5.06-.39,8,8,0,0,0-1.72,4c-1.93,8.51-2.1,17.3-1.89,26,.4,16.68,2.75,34.92-4.83,50.43-1.84,3.78-4.15,7.65-7.56,10.22a12.85,12.85,0,0,1-9.44,2.66,10.13,10.13,0,0,1-7.24-4.37c-2.52-4-3.12-9.21-3.92-13.75-.89-5-1.34-10.11-2-15.18a50.36,50.36,0,0,0-2.76-12.07c-1.34-3.44-3.06-7-6.17-9.17a6.85,6.85,0,0,0-5.73-1.06,9.39,9.39,0,0,0-5.28,4.82c-1.81,3.42-2.69,7.47-4.34,10.71a9.31,9.31,0,0,1-7.18,5.4c-.06,0-.7.09-.38.06s-.32,0-.38,0c-.42,0-.84,0-1.26,0a7.93,7.93,0,0,1-2.18-.23,12.19,12.19,0,0,1-4.3-1.65,11.87,11.87,0,0,1-5.63-7.88c-1.06-4.41-.49-9-1-13.5s-1.83-10.36-6.48-12.46a7.09,7.09,0,0,0-7.33.8c-1.63,1.19-3.17,2.5-4.72,3.79a52.67,52.67,0,0,1-9.67,6.93c-3.08,1.56-6.3,2.18-9.62.42a3.07,3.07,0,0,0-4.1,1.08,3,3,0,0,0,1.07,4.1,15.43,15.43,0,0,0,13.15.7A43.29,43.29,0,0,0,443.34,482c1.54-1.26,3.05-2.55,4.59-3.8,1-.84,2.17-2.31,3.51-1.22s1.86,3.38,2.2,5a37.19,37.19,0,0,1,.55,6.66c.11,5,.26,10,2.53,14.56a17.71,17.71,0,0,0,8,7.75c7.37,3.54,16.78,2.42,21.59-4.69,2.28-3.37,3.11-7.43,4.71-11.12.46-1.07,1.47-3.31,2.69-3.51-.44.07-.16,0,.17.15-.6-.23.22.15.39.24s.43.34,0,0l.4.36c.21.2.71.76.71.75a22.15,22.15,0,0,1,3.66,8.09c1.36,4.82,1.65,9.82,2.25,14.77a147.25,147.25,0,0,0,2.74,16c1,4.48,2.78,9,6.48,12,6.9,5.51,16.52,4.28,23.05-1.11a33.12,33.12,0,0,0,8.11-11,55.6,55.6,0,0,0,4.42-12.72c1.91-8.77,2-17.8,1.77-26.73s-.84-17.87-.34-26.8a67.48,67.48,0,0,1,1.69-12.34c.08-.35.17-.69.27-1,.17-.58.18-.41,0-.1.12-.23.21-.11-.08.07l-.17.23a1.87,1.87,0,0,1-2.18.53,2.09,2.09,0,0,1-1.71-.74c-.35-.28-.19-.22-.08,0s-.22-.74,0-.08c.06.22.13.43.19.65.16.59.27,1.18.38,1.78s.19,1.15.27,1.73c-.1-.68,0,0,0,.27s.07.59.1.88c.1.95.13,1.89.17,2.84A41.26,41.26,0,0,0,550,475.61c1.93,4.4,5,8.83,9.88,10.19,4.57,1.27,9.25-.74,12.54-3.91a32.12,32.12,0,0,0,4.24-5.52c1.29-1.94,2.49-3.95,3.61-6a97.22,97.22,0,0,0,5.92-13.17,118,118,0,0,0,6.34-28.33,109.4,109.4,0,0,0,.47-16.09c-.23-5.38-1-10.71-1.24-16.09s-.34-10.84-1-16.23a111.86,111.86,0,0,0-3.11-15.58c-4.95-18.54-14.39-37.36-31.06-47.94a49.58,49.58,0,0,0-11.86-5.44c-3.69-1.14-5.28,4.65-1.59,5.79Z"/><path class="cls-4" d="M407.92,472.89c-.48-1-.15-.26-.06,0l.2.56c.15.41.31.81.47,1.22.36.89.74,1.78,1.14,2.65a30.42,30.42,0,0,0,2.36,4.25,20.69,20.69,0,0,0,7,6.82,3,3,0,1,0,3-5.18c-.29-.16-.58-.32-.85-.5s-.72-.37-.82-.57c.31.25.38.3.21.16l-.24-.19-.31-.27c-.25-.22-.5-.46-.74-.7a18.65,18.65,0,0,1-1.4-1.55c-.47-.57.38.52-.06-.07l-.25-.35c-.23-.33-.46-.66-.68-1a31.88,31.88,0,0,1-2.16-4l-.24-.54-.12-.28-.12-.3c-.08-.18-.15-.37-.22-.55-.34-.87-.58-1.8-1-2.64a3,3,0,0,0-4.11-1.08,3.07,3.07,0,0,0-1.07,4.11Z"/><path class="cls-4" d="M572.67,462a22.31,22.31,0,0,1-3.64,6.69,7.71,7.71,0,0,1-5.23,3,2.88,2.88,0,0,1-2.4-.67,5.68,5.68,0,0,1-1.18-2.29,61.5,61.5,0,0,1-1.49-9.17c-.4-3.25-.73-6.5-1.07-9.75-.29-2.72-.3-5.67-1.15-8.29-.72-2.22-2-4.51-4.16-5.58a6.36,6.36,0,0,0-7.17,1.12,15.56,15.56,0,0,0-3.67,5.47,67.35,67.35,0,0,0-2.63,6.75,87.84,87.84,0,0,0-3.69,18.52c-1.26,12.26-.78,24.59-1.37,36.88a60.23,60.23,0,0,1-3,17.46,21.91,21.91,0,0,1-3.63,6.85,8.83,8.83,0,0,1-5.22,3.26c.6-.12-.31,0-.37,0H521c-.81,0,.45.17-.32,0l-.53-.13s-.81-.29-.42-.13-.41-.23-.39-.21-.71-.47-.39-.23-.46-.43-.55-.52a6.3,6.3,0,0,1-1.1-1.73,22.93,22.93,0,0,1-1-4.1c-1.17-5.88-1.87-11.85-2.79-17.78a95.47,95.47,0,0,0-3.92-17.12c-1.78-5.05-4.1-11.05-9.25-13.54s-11.13-.28-14.8,4c-3.43,4-4.89,9.12-6.87,13.71-.89,2.08-2.06,4.37-3.89,5.66a5.7,5.7,0,0,1-2.64,1,5.38,5.38,0,0,1-2.46-.41,7.8,7.8,0,0,1-3.93-4.34,15.67,15.67,0,0,1-.29-7.93c.19-1.09.12-1.88,1.06-2.33,1.24-.59,2.62-1,3.9-1.52q4.51-1.8,8.94-3.79,6.75-3,13.27-6.56c18-9.76,34.75-22.61,46.59-39.46A84.15,84.15,0,0,0,552,407.3c3.22-12.68,2.75-25.87.15-38.61a159.28,159.28,0,0,0-5.31-19.06,144,144,0,0,0-5.15-13.81,56.88,56.88,0,0,1-3.91-9.75c-.11-.39-.21-.78-.29-1.17,0-.19-.07-.37-.1-.56-.09-.44,0,.75,0,.07,0-.3,0-.64,0-.94s.13-.65-.05.31c0-.12.21-.78,0-.21s0,.11,0,0l-.3.4.09-.08c.06.09-.8.19.24-.05,0,0,.55-.11.27-.07a9.7,9.7,0,0,1,3.63.38c9.71,2.2,16.93,10.22,22.2,18.36a106.75,106.75,0,0,1,13.74,32.37,140.12,140.12,0,0,1,3.85,35.05,175.88,175.88,0,0,1-3.57,35.53A116.17,116.17,0,0,1,572.67,462a3,3,0,0,0,2.1,3.69,3.07,3.07,0,0,0,3.69-2.1c4.41-11.69,6.64-24.11,7.77-36.52a176.4,176.4,0,0,0-.2-36.9,128.15,128.15,0,0,0-9.73-36.38c-4.47-10.17-10.51-20.54-19.07-27.81a34.1,34.1,0,0,0-14.37-7.6c-2.86-.65-6.12-1.12-8.79.39a5.47,5.47,0,0,0-2.73,5.07c0,3.89,1.92,7.81,3.45,11.29.69,1.57,1.42,3.12,2.12,4.68l.35.81c-.42-.94-.08-.18,0,0,.65,1.67,1.23,3.36,1.84,5.05,4.45,12.47,8.38,25.3,9.06,38.61a72.61,72.61,0,0,1-6.29,33.76c-8.59,18.8-24.1,33.4-41.29,44.44a189.94,189.94,0,0,1-27.82,14.61c-3,1.28-6.15,2.28-9.1,3.67-3.38,1.59-3.93,5.05-4.35,8.38-.73,6,.77,12.12,5.88,15.79a11.45,11.45,0,0,0,15.42-2.23c3.55-4.19,4.62-9.73,7-14.44a13.62,13.62,0,0,1,4.44-5.47,6.92,6.92,0,0,1,2.94-1.23c-.44.07.22,0,.32,0a6.91,6.91,0,0,1,.79,0c-.56,0,.4.07.43.08a5.41,5.41,0,0,1,.89.28c-.4-.17.2.11.29.16s.46.26.69.41a6.68,6.68,0,0,1,.94.81,11.87,11.87,0,0,1,2.12,3.05,48.1,48.1,0,0,1,3.18,8.13,124.2,124.2,0,0,1,3.57,17.93c.44,3.05.86,6.1,1.35,9.13a64.71,64.71,0,0,0,1.7,8.62c1.48,4.85,5.74,8.53,11,8,5.94-.62,10.26-5.36,12.66-10.51,5.42-11.67,4.9-24.67,5.18-37.22s.33-25.62,4-37.85c.45-1.47.94-2.93,1.48-4.37.16-.41.33-.83.49-1.25.06-.16.12-.31.19-.47l.2-.5c-.12.28-.11.26,0-.08a26.39,26.39,0,0,1,1.39-2.76l.33-.53s.58-.81.23-.36c.12-.15.24-.3.37-.44s.89-.88.39-.42a2,2,0,0,1,.42-.25c-.78.34.55,0-.39.06a3.49,3.49,0,0,1,.56,0l-.26,0c.33.11.33.11,0,0,0,0,.54.42,0,0,0,0,.65.67.26.19a3.46,3.46,0,0,1,.31.47c.06.09.55,1.08.33.56a9,9,0,0,1,.44,1.33c.06.24.28,1.49.17.67.23,1.7.37,3.42.54,5.13.36,3.41.71,6.83,1.13,10.23a90.37,90.37,0,0,0,1.53,10c.7,2.85,2.24,5.61,5,7a10.6,10.6,0,0,0,8.48.18c5.71-2.25,8.63-7.84,10.72-13.26a3,3,0,0,0-2.1-3.69A3.08,3.08,0,0,0,572.67,462Z"/><path class="cls-4" d="M460.19,469.51c-1.15-1.23-1.87-2.85-3.08-4.06a9.15,9.15,0,0,0-5-2.52c-4.16-.66-7.89,1.13-11.07,3.67-2,1.6-3.77,3.45-5.61,5.21a27.25,27.25,0,0,1-5.78,4.67c-.23.13-.47.24-.7.36-.5.27.31-.06-.22.1-.23.07-.46.16-.7.22s-1,.13-.36.1c-.22,0-.46,0-.68,0-.5.07.36.16-.12,0-.26-.09-.53-.14-.79-.23s.13.05.16.06c-.15-.08-.3-.15-.44-.24s-.63-.46-.28-.16c-.22-.19-.44-.4-.64-.61a7.44,7.44,0,0,1-1.22-1.6,23.33,23.33,0,0,1-2.1-4.43c-2.43-6.77-2.86-14.12-3.19-21.25a98.48,98.48,0,0,1,1.65-24.3,80.52,80.52,0,0,1,7.43-20.79c6.77-13,16.37-24.28,26.39-34.9,10.28-10.89,20.89-21.8,33.22-30.39A87.53,87.53,0,0,1,507,327.81,53.7,53.7,0,0,1,517.1,325a14.59,14.59,0,0,1,2.29-.12,5.54,5.54,0,0,1,1.87.29,4.13,4.13,0,0,1,1.41.69,6.69,6.69,0,0,1,1.29,1.31c2,2.76,2.83,6.32,3.67,9.59.91,3.57,1.92,7.13,2.85,10.7,1.87,7.28,3.54,14.63,4.72,22.06,2.32,14.61,2.61,29.93-2.14,44.1a50.52,50.52,0,0,1-11.25,18.61A110.06,110.06,0,0,1,504.71,447a207.94,207.94,0,0,1-20.25,12.47c-3.69,2-7.41,4-11.15,5.9-2.6,1.35-5,3.1-7.68,4.3a11.08,11.08,0,0,1-3,.8c-.14,0-.88,0-.41,0a4.34,4.34,0,0,1-.88-.21c-.62-.21-.24-.11-.14-.06a3.5,3.5,0,0,1-.42-.24,4.39,4.39,0,0,1-.59-.5c-2.78-2.68-7,1.56-4.24,4.25,5.75,5.54,12.84,1.19,18.44-2.11,3.42-2,7-3.71,10.54-5.59,3.81-2.05,7.58-4.17,11.29-6.39a159.6,159.6,0,0,0,20-14A83.46,83.46,0,0,0,532.83,428c8.8-13.25,10.74-30.51,9.76-46a167.33,167.33,0,0,0-3.44-23.88c-1.61-7.57-3.71-15-5.64-22.49-1-3.74-1.92-7.63-4-10.92a11.92,11.92,0,0,0-9.4-5.73c-3.62-.29-7.39.8-10.82,1.83a82,82,0,0,0-11.7,4.57c-14.43,6.9-26.68,17.74-37.91,29-11,11-21.92,22.43-30.69,35.34A102.73,102.73,0,0,0,418.11,410a86.68,86.68,0,0,0-5.5,24.72,125.72,125.72,0,0,0,.55,24.38,59.33,59.33,0,0,0,2.3,11.65c1.14,3.48,2.72,7.27,5.41,9.86A9.08,9.08,0,0,0,429,483.1c2.76-.49,5.16-2.22,7.28-3.94s4.19-3.83,6.24-5.79c.91-.87,1.85-1.74,2.84-2.53.27-.21-.07.06-.11.08l.7-.49c.36-.25.72-.47,1.1-.69a7.65,7.65,0,0,1,2.45-.92,3.94,3.94,0,0,1,3.28.74c1.3,1.13,2,2.92,3.22,4.2C458.58,476.59,462.82,472.34,460.19,469.51Z"/><path class="cls-4" d="M542.23,310.83c-13.1-3.15-27.34-.83-39.87,3.59a102.52,102.52,0,0,0-18.66,8.71c-3,1.79-6.12,3.16-9,5.11s-5.63,3.84-8.41,5.81a151.67,151.67,0,0,0-28.39,26.42c-8.24,9.83-15.92,20.55-21.73,32a117.69,117.69,0,0,0-11.77,38.8c-1.6,13-1.18,26.94,2.78,39.56.14.44.27.89.43,1.32.55,1.45.25.71.15.42.27.78.57,1.55.88,2.32a45,45,0,0,0,2.21,4.72,23.91,23.91,0,0,0,5.59,6.93,16.05,16.05,0,0,0,9.12,3.69,17.63,17.63,0,0,0,8.53-2c5.29-2.49,9.59-6.66,14.1-10.29.59-.48,1.44-1.43,2.24-1.45s1.6,1.06,2,1.86c1.36,2.54,1.57,5.68,1.68,8.53.24,6.36,0,13.2,4,18.55a19.22,19.22,0,0,0,14.06,7.47,15.69,15.69,0,0,0,14.33-7,37.3,37.3,0,0,0,3.37-7.81c.4-1.1.87-2.41,1.27-3.29a7.53,7.53,0,0,1,2-3c.16-.1.87-.34.29-.22.12,0,.87.31.2,0,.23.1.43.24.65.36.65.37-.32-.37.22.18l.4.37.56.63c-.32-.38.35.5.41.59a21.66,21.66,0,0,1,1.63,3c.29.65.71,1.74,1.08,2.84,2.08,6.31,2.26,13,3.16,19.59.52,3.71,1.16,7.41,1.93,11.07a30.35,30.35,0,0,0,3.42,9.76,16.32,16.32,0,0,0,13.8,7.56c13.29.16,21-13.31,24.22-24.5,3.49-11.9,3-24.52,2.58-36.77-.22-6.18-.47-12.36-.24-18.54.1-2.86.31-5.85.68-8.61.2-1.41.44-2.82.73-4.21.13-.63.26-1.26.42-1.89.06-.25.12-.49.2-.74s.5-.92,0-.14l.12-.21a2.65,2.65,0,0,1-3.56.85c-.1-.06-.94-1-.8-.75.28.44,0-.18-.09-.26.36.25.47,1.69.55,2.08.16.78.28,1.57.39,2.36-.12-.87,0,.27.06.47,0,.43.09.86.13,1.3.21,2.31.22,4.61.54,6.92a40.57,40.57,0,0,0,2.92,10.23c2.64,6.17,7.58,12,15,10.81,6.53-1.07,10.39-7.1,13.55-12.31,6.88-11.32,11.08-24.22,13.17-37.26a117.61,117.61,0,0,0,1.54-21.69c-.1-3.77-.42-7.52-.82-11.28s-.53-7.42-.68-11.14a124.92,124.92,0,0,0-2.62-22.22,119.09,119.09,0,0,0-6.46-20.37,83.11,83.11,0,0,0-10-17.73,3.11,3.11,0,0,0-4.11-1.08c-1.27.75-2,2.8-1.07,4.11,8.26,11,13.13,24.19,16,37.58a123.28,123.28,0,0,1,2.27,21.17c.3,7.33,1.33,14.61,1.46,21.94a110.92,110.92,0,0,1-6.32,38.88,86.8,86.8,0,0,1-8,16.78c-1.55,2.5-3.08,5.19-5.39,7-1.67,1.31-3.87,2.15-5.7,1.66-2.63-.71-4.33-3.17-5.55-5.54a33.65,33.65,0,0,1-3.07-9.11c-.77-4-.6-8.05-1.27-12a12.46,12.46,0,0,0-1.26-4.31,3.45,3.45,0,0,0-6.06,0c-1.16,2-1.43,4.71-1.8,7a89.25,89.25,0,0,0-1,9.36c-.69,12,.6,23.91.41,35.87-.19,11.53-1.92,23.45-8.72,33.12a18.38,18.38,0,0,1-6,5.58,12.55,12.55,0,0,1-6.4,1.62,10.48,10.48,0,0,1-5.8-1.69,10.09,10.09,0,0,1-2.31-2.12,15.18,15.18,0,0,1-1.85-3.56,62.52,62.52,0,0,1-2.32-9.86q-1-5.36-1.56-10.76c-.63-5.9-1.18-11.87-3.36-17.45-1.7-4.36-4.63-10.33-10.06-10.48-6.72-.18-8.67,8.77-10.51,13.6a13.67,13.67,0,0,1-3.48,5.6,11,11,0,0,1-1.35.87,7.6,7.6,0,0,1-1,.49,12.62,12.62,0,0,1-1.82.52,5.28,5.28,0,0,1-1.38.19c-.52,0-1.05,0-1.57,0l-1-.07c.57.06-.45-.08-.45-.08a15.73,15.73,0,0,1-1.54-.38c-.31-.09-.61-.18-.91-.29,0,0-.89-.36-.46-.17a15.42,15.42,0,0,1-3-1.75c.4.29-.41-.35-.38-.32l-.58-.54-.56-.56c-.08-.09-.75-.88-.54-.61-3.67-4.78-2.71-11.36-3.1-17a24.7,24.7,0,0,0-2.32-9.67c-1.65-3.2-5-5.55-8.67-4.85-2.77.52-5.15,3.06-7.25,4.82s-4.05,3.41-6.23,4.92c-4.24,2.94-9,5.39-13.78,2.61a15.44,15.44,0,0,1-5.17-5.41,33.79,33.79,0,0,1-1.86-3.52c-.29-.64-.55-1.28-.8-1.94-.12-.32-.24-.65-.35-1s-.66-1.95-.37-1.05a76.18,76.18,0,0,1-3.44-18.44,108.07,108.07,0,0,1,4.43-38.33c3.68-12.24,9.62-23.34,16.77-33.88A171.72,171.72,0,0,1,455.07,351a132.43,132.43,0,0,1,14.25-11.74c2.65-1.88,5.35-3.7,8-5.55,2.88-2,6-3.33,9-5.14a89.36,89.36,0,0,1,35.89-12.69,53.48,53.48,0,0,1,18.41.77c3.75.9,5.35-4.89,1.59-5.79Z"/><path class="cls-4" d="M572.67,462a22.31,22.31,0,0,1-3.64,6.69,7.71,7.71,0,0,1-5.23,3,2.88,2.88,0,0,1-2.4-.67,5.68,5.68,0,0,1-1.18-2.29,61.5,61.5,0,0,1-1.49-9.17c-.4-3.25-.73-6.5-1.07-9.75-.29-2.72-.3-5.67-1.15-8.29-.72-2.22-2-4.51-4.16-5.58a6.36,6.36,0,0,0-7.17,1.12,15.56,15.56,0,0,0-3.67,5.47,67.35,67.35,0,0,0-2.63,6.75,87.84,87.84,0,0,0-3.69,18.52c-1.26,12.26-.78,24.59-1.37,36.88a60.23,60.23,0,0,1-3,17.46,21.91,21.91,0,0,1-3.63,6.85,8.83,8.83,0,0,1-5.22,3.26c.6-.12-.31,0-.37,0H521c-.81,0,.45.17-.32,0l-.53-.13s-.81-.29-.42-.13-.41-.23-.39-.21-.71-.47-.39-.23-.46-.43-.55-.52a6.3,6.3,0,0,1-1.1-1.73,22.93,22.93,0,0,1-1-4.1c-1.17-5.88-1.87-11.85-2.79-17.78a95.47,95.47,0,0,0-3.92-17.12c-1.78-5.05-4.1-11.05-9.25-13.54s-11.13-.28-14.8,4c-3.43,4-4.89,9.12-6.87,13.71-.89,2.08-2.06,4.37-3.89,5.66a5.7,5.7,0,0,1-2.64,1,5.38,5.38,0,0,1-2.46-.41,7.8,7.8,0,0,1-3.93-4.34,15.67,15.67,0,0,1-.29-7.93c.19-1.09.12-1.88,1.06-2.33,1.24-.59,2.62-1,3.9-1.52q4.51-1.8,8.94-3.79,6.75-3,13.27-6.56c18-9.76,34.75-22.61,46.59-39.46A84.15,84.15,0,0,0,552,407.3c3.22-12.68,2.75-25.87.15-38.61a159.28,159.28,0,0,0-5.31-19.06,144,144,0,0,0-5.15-13.81,56.88,56.88,0,0,1-3.91-9.75c-.11-.39-.21-.78-.29-1.17,0-.19-.07-.37-.1-.56-.09-.44,0,.75,0,.07,0-.3,0-.64,0-.94s.13-.65-.05.31c0-.12.21-.78,0-.21s0,.11,0,0l-.3.4.09-.08c.06.09-.8.19.24-.05,0,0,.55-.11.27-.07a9.7,9.7,0,0,1,3.63.38c9.71,2.2,16.93,10.22,22.2,18.36a106.75,106.75,0,0,1,13.74,32.37,140.12,140.12,0,0,1,3.85,35.05,175.88,175.88,0,0,1-3.57,35.53A116.17,116.17,0,0,1,572.67,462a3,3,0,0,0,2.1,3.69,3.07,3.07,0,0,0,3.69-2.1c4.41-11.69,6.64-24.11,7.77-36.52a176.4,176.4,0,0,0-.2-36.9,128.15,128.15,0,0,0-9.73-36.38c-4.47-10.17-10.51-20.54-19.07-27.81a34.1,34.1,0,0,0-14.37-7.6c-2.86-.65-6.12-1.12-8.79.39a5.47,5.47,0,0,0-2.73,5.07c0,3.89,1.92,7.81,3.45,11.29.69,1.57,1.42,3.12,2.12,4.68l.35.81c-.42-.94-.08-.18,0,0,.65,1.67,1.23,3.36,1.84,5.05,4.45,12.47,8.38,25.3,9.06,38.61a72.61,72.61,0,0,1-6.29,33.76c-8.59,18.8-24.1,33.4-41.29,44.44a189.94,189.94,0,0,1-27.82,14.61c-3,1.28-6.15,2.28-9.1,3.67-3.38,1.59-3.93,5.05-4.35,8.38-.73,6,.77,12.12,5.88,15.79a11.45,11.45,0,0,0,15.42-2.23c3.55-4.19,4.62-9.73,7-14.44a13.62,13.62,0,0,1,4.44-5.47,6.92,6.92,0,0,1,2.94-1.23c-.44.07.22,0,.32,0a6.91,6.91,0,0,1,.79,0c-.56,0,.4.07.43.08a5.41,5.41,0,0,1,.89.28c-.4-.17.2.11.29.16s.46.26.69.41a6.68,6.68,0,0,1,.94.81,11.87,11.87,0,0,1,2.12,3.05,48.1,48.1,0,0,1,3.18,8.13,124.2,124.2,0,0,1,3.57,17.93c.44,3.05.86,6.1,1.35,9.13a64.71,64.71,0,0,0,1.7,8.62c1.48,4.85,5.74,8.53,11,8,5.94-.62,10.26-5.36,12.66-10.51,5.42-11.67,4.9-24.67,5.18-37.22s.33-25.62,4-37.85c.45-1.47.94-2.93,1.48-4.37.16-.41.33-.83.49-1.25.06-.16.12-.31.19-.47l.2-.5c-.12.28-.11.26,0-.08a26.39,26.39,0,0,1,1.39-2.76l.33-.53s.58-.81.23-.36c.12-.15.24-.3.37-.44s.89-.88.39-.42a2,2,0,0,1,.42-.25c-.78.34.55,0-.39.06a3.49,3.49,0,0,1,.56,0l-.26,0c.33.11.33.11,0,0,0,0,.54.42,0,0,0,0,.65.67.26.19a3.46,3.46,0,0,1,.31.47c.06.09.55,1.08.33.56a9,9,0,0,1,.44,1.33c.06.24.28,1.49.17.67.23,1.7.37,3.42.54,5.13.36,3.41.71,6.83,1.13,10.23a90.37,90.37,0,0,0,1.53,10c.7,2.85,2.24,5.61,5,7a10.6,10.6,0,0,0,8.48.18c5.71-2.25,8.63-7.84,10.72-13.26a3,3,0,0,0-2.1-3.69A3.08,3.08,0,0,0,572.67,462Z"/><path class="cls-4" d="M460.19,469.51c-1.15-1.23-1.87-2.85-3.08-4.06a9.15,9.15,0,0,0-5-2.52c-4.16-.66-7.89,1.13-11.07,3.67-2,1.6-3.77,3.45-5.61,5.21a27.25,27.25,0,0,1-5.78,4.67c-.23.13-.47.24-.7.36-.5.27.31-.06-.22.1-.23.07-.46.16-.7.22s-1,.13-.36.1c-.22,0-.46,0-.68,0-.5.07.36.16-.12,0-.26-.09-.53-.14-.79-.23s.13.05.16.06c-.15-.08-.3-.15-.44-.24s-.63-.46-.28-.16c-.22-.19-.44-.4-.64-.61a7.44,7.44,0,0,1-1.22-1.6,23.33,23.33,0,0,1-2.1-4.43c-2.43-6.77-2.86-14.12-3.19-21.25a98.48,98.48,0,0,1,1.65-24.3,80.52,80.52,0,0,1,7.43-20.79c6.77-13,16.37-24.28,26.39-34.9,10.28-10.89,20.89-21.8,33.22-30.39A87.53,87.53,0,0,1,507,327.81,53.7,53.7,0,0,1,517.1,325a14.59,14.59,0,0,1,2.29-.12,5.54,5.54,0,0,1,1.87.29,4.13,4.13,0,0,1,1.41.69,6.69,6.69,0,0,1,1.29,1.31c2,2.76,2.83,6.32,3.67,9.59.91,3.57,1.92,7.13,2.85,10.7,1.87,7.28,3.54,14.63,4.72,22.06,2.32,14.61,2.61,29.93-2.14,44.1a50.52,50.52,0,0,1-11.25,18.61A110.06,110.06,0,0,1,504.71,447a207.94,207.94,0,0,1-20.25,12.47c-3.69,2-7.41,4-11.15,5.9-2.6,1.35-5,3.1-7.68,4.3a11.08,11.08,0,0,1-3,.8c-.14,0-.88,0-.41,0a4.34,4.34,0,0,1-.88-.21c-.62-.21-.24-.11-.14-.06a3.5,3.5,0,0,1-.42-.24,4.39,4.39,0,0,1-.59-.5c-2.78-2.68-7,1.56-4.24,4.25,5.75,5.54,12.84,1.19,18.44-2.11,3.42-2,7-3.71,10.54-5.59,3.81-2.05,7.58-4.17,11.29-6.39a159.6,159.6,0,0,0,20-14A83.46,83.46,0,0,0,532.83,428c8.8-13.25,10.74-30.51,9.76-46a167.33,167.33,0,0,0-3.44-23.88c-1.61-7.57-3.71-15-5.64-22.49-1-3.74-1.92-7.63-4-10.92a11.92,11.92,0,0,0-9.4-5.73c-3.62-.29-7.39.8-10.82,1.83a82,82,0,0,0-11.7,4.57c-14.43,6.9-26.68,17.74-37.91,29-11,11-21.92,22.43-30.69,35.34A102.73,102.73,0,0,0,418.11,410a86.68,86.68,0,0,0-5.5,24.72,125.72,125.72,0,0,0,.55,24.38,59.33,59.33,0,0,0,2.3,11.65c1.14,3.48,2.72,7.27,5.41,9.86A9.08,9.08,0,0,0,429,483.1c2.76-.49,5.16-2.22,7.28-3.94s4.19-3.83,6.24-5.79c.91-.87,1.85-1.74,2.84-2.53.27-.21-.07.06-.11.08l.7-.49c.36-.25.72-.47,1.1-.69a7.65,7.65,0,0,1,2.45-.92,3.94,3.94,0,0,1,3.28.74c1.3,1.13,2,2.92,3.22,4.2C458.58,476.59,462.82,472.34,460.19,469.51Z"/><path class="cls-4" d="M542.23,310.83c-13.1-3.15-27.34-.83-39.87,3.59a102.52,102.52,0,0,0-18.66,8.71c-3,1.79-6.12,3.16-9,5.11s-5.63,3.84-8.41,5.81a151.67,151.67,0,0,0-28.39,26.42c-8.24,9.83-15.92,20.55-21.73,32a117.69,117.69,0,0,0-11.77,38.8c-1.6,13-1.18,26.94,2.78,39.56.14.44.27.89.43,1.32.55,1.45.25.71.15.42.27.78.57,1.55.88,2.32a45,45,0,0,0,2.21,4.72,23.91,23.91,0,0,0,5.59,6.93,16.05,16.05,0,0,0,9.12,3.69,17.63,17.63,0,0,0,8.53-2c5.29-2.49,9.59-6.66,14.1-10.29.59-.48,1.44-1.43,2.24-1.45s1.6,1.06,2,1.86c1.36,2.54,1.57,5.68,1.68,8.53.24,6.36,0,13.2,4,18.55a19.22,19.22,0,0,0,14.06,7.47,15.69,15.69,0,0,0,14.33-7,37.3,37.3,0,0,0,3.37-7.81c.4-1.1.87-2.41,1.27-3.29a7.53,7.53,0,0,1,2-3c.16-.1.87-.34.29-.22.12,0,.87.31.2,0,.23.1.43.24.65.36.65.37-.32-.37.22.18l.4.37.56.63c-.32-.38.35.5.41.59a21.66,21.66,0,0,1,1.63,3c.29.65.71,1.74,1.08,2.84,2.08,6.31,2.26,13,3.16,19.59.52,3.71,1.16,7.41,1.93,11.07a30.35,30.35,0,0,0,3.42,9.76,16.32,16.32,0,0,0,13.8,7.56c13.29.16,21-13.31,24.22-24.5,3.49-11.9,3-24.52,2.58-36.77-.22-6.18-.47-12.36-.24-18.54.1-2.86.31-5.85.68-8.61.2-1.41.44-2.82.73-4.21.13-.63.26-1.26.42-1.89.06-.25.12-.49.2-.74s.5-.92,0-.14l.12-.21a2.65,2.65,0,0,1-3.56.85c-.1-.06-.94-1-.8-.75.28.44,0-.18-.09-.26.36.25.47,1.69.55,2.08.16.78.28,1.57.39,2.36-.12-.87,0,.27.06.47,0,.43.09.86.13,1.3.21,2.31.22,4.61.54,6.92a40.57,40.57,0,0,0,2.92,10.23c2.64,6.17,7.58,12,15,10.81,6.53-1.07,10.39-7.1,13.55-12.31,6.88-11.32,11.08-24.22,13.17-37.26a117.61,117.61,0,0,0,1.54-21.69c-.1-3.77-.42-7.52-.82-11.28s-.53-7.42-.68-11.14a124.92,124.92,0,0,0-2.62-22.22,119.09,119.09,0,0,0-6.46-20.37,83.11,83.11,0,0,0-10-17.73,3.11,3.11,0,0,0-4.11-1.08c-1.27.75-2,2.8-1.07,4.11,8.26,11,13.13,24.19,16,37.58a123.28,123.28,0,0,1,2.27,21.17c.3,7.33,1.33,14.61,1.46,21.94a110.92,110.92,0,0,1-6.32,38.88,86.8,86.8,0,0,1-8,16.78c-1.55,2.5-3.08,5.19-5.39,7-1.67,1.31-3.87,2.15-5.7,1.66-2.63-.71-4.33-3.17-5.55-5.54a33.65,33.65,0,0,1-3.07-9.11c-.77-4-.6-8.05-1.27-12a12.46,12.46,0,0,0-1.26-4.31,3.45,3.45,0,0,0-6.06,0c-1.16,2-1.43,4.71-1.8,7a89.25,89.25,0,0,0-1,9.36c-.69,12,.6,23.91.41,35.87-.19,11.53-1.92,23.45-8.72,33.12a18.38,18.38,0,0,1-6,5.58,12.55,12.55,0,0,1-6.4,1.62,10.48,10.48,0,0,1-5.8-1.69,10.09,10.09,0,0,1-2.31-2.12,15.18,15.18,0,0,1-1.85-3.56,62.52,62.52,0,0,1-2.32-9.86q-1-5.36-1.56-10.76c-.63-5.9-1.18-11.87-3.36-17.45-1.7-4.36-4.63-10.33-10.06-10.48-6.72-.18-8.67,8.77-10.51,13.6a13.67,13.67,0,0,1-3.48,5.6,11,11,0,0,1-1.35.87,7.6,7.6,0,0,1-1,.49,12.62,12.62,0,0,1-1.82.52,5.28,5.28,0,0,1-1.38.19c-.52,0-1.05,0-1.57,0l-1-.07c.57.06-.45-.08-.45-.08a15.73,15.73,0,0,1-1.54-.38c-.31-.09-.61-.18-.91-.29,0,0-.89-.36-.46-.17a15.42,15.42,0,0,1-3-1.75c.4.29-.41-.35-.38-.32l-.58-.54-.56-.56c-.08-.09-.75-.88-.54-.61-3.67-4.78-2.71-11.36-3.1-17a24.7,24.7,0,0,0-2.32-9.67c-1.65-3.2-5-5.55-8.67-4.85-2.77.52-5.15,3.06-7.25,4.82s-4.05,3.41-6.23,4.92c-4.24,2.94-9,5.39-13.78,2.61a15.44,15.44,0,0,1-5.17-5.41,33.79,33.79,0,0,1-1.86-3.52c-.29-.64-.55-1.28-.8-1.94-.12-.32-.24-.65-.35-1s-.66-1.95-.37-1.05a76.18,76.18,0,0,1-3.44-18.44,108.07,108.07,0,0,1,4.43-38.33c3.68-12.24,9.62-23.34,16.77-33.88A171.72,171.72,0,0,1,455.07,351a132.43,132.43,0,0,1,14.25-11.74c2.65-1.88,5.35-3.7,8-5.55,2.88-2,6-3.33,9-5.14a89.36,89.36,0,0,1,35.89-12.69,53.48,53.48,0,0,1,18.41.77c3.75.9,5.35-4.89,1.59-5.79Z"/><path class="cls-4" d="M188.15,517.88a69.7,69.7,0,0,0,53.48,6.33c18.49-5.76,33.22-19.74,40.87-37.41A64.92,64.92,0,0,0,287,473.26c.55-2.9-.81-6.24-3.95-7-2.79-.63-6.37.84-6.95,3.95a55.2,55.2,0,0,1-3,9.88c-.12.32-.25.63-.38.95l-.15.38c-.36.87.62-1.43.23-.56s-.66,1.49-1,2.23q-1.1,2.31-2.34,4.53c-.91,1.62-1.88,3.19-2.92,4.73-.52.77-1.06,1.53-1.61,2.28-.27.37-1.38,1.67-.16.22-.37.45-.72.91-1.1,1.36a59.31,59.31,0,0,1-4.3,4.67c-.75.73-1.52,1.45-2.31,2.14q-.66.58-1.35,1.14l-.63.51c-.7.56-.46.27.11-.07-2.07,1.26-4,2.82-6.07,4q-1.62.94-3.3,1.77-.81.41-1.65.78l-.67.3-.68.3c.73-.31.88-.37.43-.19a65.85,65.85,0,0,1-9.42,2.93,25.49,25.49,0,0,1-4.24.77c1.31-.05.57-.07.25,0l-1.24.14c-.82.08-1.63.14-2.45.19a61.73,61.73,0,0,1-8.16-.09l-1.84-.17-.9-.11c-.48-.06-1.1-.37.26,0-1.18-.35-2.53-.4-3.75-.64a81.51,81.51,0,0,1-12.85-3.95c2,.76.44.18-.05,0l-1.08-.5c-.61-.28-1.21-.58-1.81-.89s-1.44-.75-2.14-1.16a5.65,5.65,0,1,0-5.7,9.76Z"/><path class="cls-4" d="M186.61,515.47c3.81,7.93,10.65,15.26,19.57,17.14a60.23,60.23,0,0,0,25.08-.1c16.22-3.44,30.54-13.41,40.35-26.62a62.56,62.56,0,0,0,11-24.67c.58-2.89-.83-6.25-4-7-2.82-.64-6.34.85-7,3.95a70.41,70.41,0,0,1-3.23,10.63c0-.1.56-1.27.17-.4l-.29.63c-.16.37-.33.73-.5,1.1-.42.88-.87,1.75-1.33,2.61-.87,1.62-1.82,3.19-2.83,4.72-.45.67-.9,1.33-1.37,2-.27.38-.55.74-.82,1.11-.57.77.18-.26.25-.33a6.9,6.9,0,0,0-.53.68q-1.73,2.15-3.63,4.13t-4,3.81c-.64.56-1.3,1.12-2,1.66-.36.29-1.55,1-.2.17-.38.24-.73.56-1.1.83a63.22,63.22,0,0,1-9.35,5.69c-.76.38-1.54.74-2.32,1.09l-.62.27c-.68.3,1.09-.44.41-.17l-1.43.57c-1.69.65-3.42,1.22-5.17,1.71s-3.4.87-5.13,1.19l-1.33.23-.68.1c-.63.11.73-.09.67-.08-1,.1-1.92.22-2.88.3a52.13,52.13,0,0,1-5.45.14c-.85,0-1.71-.06-2.56-.12l-1.37-.12-.68-.08c-.22,0-1.27-.16-.28,0s-.67-.11-1-.16l-1.36-.25a19.55,19.55,0,0,1-3-.83,3.27,3.27,0,0,0-.64-.25c.41,0,1.11.49.26.09-.46-.22-.91-.45-1.35-.7s-.87-.51-1.29-.79c-.19-.12-.37-.25-.55-.38-.45-.31-.53-.71.2.18-.61-.75-1.58-1.34-2.27-2-.32-.33-.64-.67-.94-1l-.45-.54c-.82-.94.75,1.05,0,0a37.31,37.31,0,0,1-3.44-5.81c-1.29-2.68-5.32-3.6-7.75-2a5.81,5.81,0,0,0-2,7.74Z"/></g></svg>