<svg xmlns="http://www.w3.org/2000/svg" viewBox="0 0 800 800"><defs><style>.cls-1,.cls-2{fill:none;}.cls-2,.cls-3{stroke:#e2d8e1;stroke-miterlimit:10;stroke-width:2px;}.cls-3,.cls-4{fill:#e2d8e1;}</style></defs><g id="clean"><path class="cls-1" d="M413.76,406.49a81.73,81.73,0,0,0-4,10.52c-3.26,10.84-4.06,22.3-3.4,33.59.47,8,1.15,17.29,5,24.48,7,13.12,16.3-1.46,23.21-6.62A12.25,12.25,0,0,1,440,466a6.92,6.92,0,0,1,5.63,1.45c1.37,1.21,2.07,3,3.36,4.33,4.81,4.87,11.86-1.11,16.33-3.43,5.75-3,11.47-6,17.07-9.22,11.36-6.56,22.31-14,31.43-23.54a54.3,54.3,0,0,0,10.87-15.36c11-24.87,5-53.71-1.86-78.94"/><path class="cls-1" d="M558.94,344.38c-3.74-6.35-8.44-12.64-14.17-17.14a22.68,22.68,0,0,1-8.87-1.17c-3.29.27-6.63.3-10,.28h0l-.31.1c1.17,4.74,4.69,11.44,5.44,13.52,2.52,6.87,5,13.78,6.94,20.84,4,14.4,5.77,29.45,2.38,44.17-8.25,35.77-41.2,60-73.64,74.17q-4.9,2.14-9.76,4a5.79,5.79,0,0,0-2.34,1.33,5.49,5.49,0,0,0-1.1,2.79,21.82,21.82,0,0,0-.17,8.63c1.14,5.22,6.22,9.76,11.82,7.87,3-1,5.08-3.73,6.44-6.58,2.6-5.44,3.84-12.12,8.81-16.08,5.76-4.6,11.43-2.22,14.53,3.89,6.76,13.37,6.58,29,9.87,43.65,1.55,6.89,8,8.77,13.56,4.28a19,19,0,0,0,5.19-7.41c4.88-11.23,4.14-23.86,4.45-35.82.38-14.3.46-29,5.73-42.57,1-2.49,3.21-8.49,6.38-8.77s4.58,3.83,4.84,6.18c.83,7.48,1.46,15,2.68,22.4.38,2.29.89,4.74,2.58,6.32,2.5,2.34,6.68,1.78,9.48-.2,3.36-2.37,5.27-6.28,6.74-10.13,6.52-17.18,8.58-37.56,8.49-55.85C574.82,385.26,570.07,363.28,558.94,344.38Z"/><path class="cls-2" d="M187.21,514.3c15.66,25.82,36.66,44.82,61.66,63.82,2,1,4,1,6,2,7,4,12,9,20,13,32,12,65,22,99,27,21,2,42,3,61.95-1.86-2.19-3.15-3.63.86,0,0-1.95-1.14-3.95-3.14-5.95-4.14-5-2-11-3-16-6-6-3-12-2-18-3-28-1-57-2-82-20a55,55,0,0,0-6.69-2.55,4.67,4.67,0,0,1,2.93.64,4.4,4.4,0,0,1-2.93-.64c2.69.55,5.69,1.55,8.69,1.55,16-1,30,7,45,11,4,2,9,2,13,3,9,0,18-1,27,0,22,3,44,6,66,6,4-7-1-17-8-20-7-2-12,2-18,6-5,4-9-2-11-6-3-10-5-24-17-26-10,3-8,15-9,23-1,4-3,8-7,10s-8,1-12-1c-20-10-27-32-36-51-1-2-2-4-4-5a4.81,4.81,0,0,0-6,2c-2,6,1,12,0,18-1,5-6,8-10,8-18-2-33-18-36.13-35.77l0,2.13q0-1.07,0-2.13c-.87,5.77,4.13,19.77-5.87,18.77-5-1-8-6-11-10-11-17-10-35-11.57-53.49"/><path class="cls-2" d="M411,404.36a42.09,42.09,0,0,1-4.23-4.11,111.75,111.75,0,0,0-9.08,52c.07,1,.17,2.1.3,3.29,0,.39.08.8.14,1.21.15,1.23.33,2.53.56,3.87L399,462c.15.8.31,1.61.49,2.43,0,.06,0,.12,0,.17s0,.15,0,.23a61.35,61.35,0,0,0,1.85,6.68v0a66,66,0,0,0,10.07,14.39,12,12,0,0,0,4.3,1.4c8.17,1.06,16.49-7.8,22.43-12.31a7,7,0,0,1,2-1.18,4.38,4.38,0,0,1,4,.92,8.54,8.54,0,0,1,2.35,3.49c2.94,7.4.15,15.85,3.49,23.15,3.59,7.85,14.57,11.42,21.84,6.4,4.9-3.39,5.45-10.3,8.28-15.55,1-1.84,2.73-3.71,4.8-3.39,4.3.65,7.06,8.39,8,11.91,1.3,4.68,1.64,9.56,2.19,14.39s1.35,9.69,2.36,14.47a29.26,29.26,0,0,0,2.93,8.74c3.92,6.77,12.75,8,19.31,4.35a23.1,23.1,0,0,0,7.94-8c15.34-24.27,3.29-55.83,9.64-82.27,1.67-6.93,3,5.45,3,7.06a37.65,37.65,0,0,0,3.52,15.59,16.33,16.33,0,0,0,5.11,6.73c5,3.48,10.72.52,13.93-3.85,10.44-14.23,15.89-32.21,17.61-49.79a114.68,114.68,0,0,0-.31-24.08c-1-9.15-.48-18.48-2.14-27.56A119.22,119.22,0,0,0,569.29,348a78.1,78.1,0,0,0-8.51-14.38,61.06,61.06,0,0,0-7.9-8.69,21.58,21.58,0,0,1-17,1.12c-3.28.27-6.62.3-10,.28h0c-.6.17-1.19.35-1.77.55l-.64.35c-.32.17-1.34.65-2.33,1.17.38,1.29.77,2.56,1.19,3.83"/><path class="cls-3" d="M647.91,315.4c-2.18-13.6-8.39-27.38-12.68-40.49a201.16,201.16,0,0,0-17.46-38.66c-.72-1.24-1.46-2.47-2.21-3.69-.73-.73-1.45-1.49-2.2-2.2q-2.42-2.33-5-4.52c-.68-.59-1.37-1.15-2-1.73l-.12-.1a109.87,109.87,0,0,0-9.88-6.35l-2.45-.65-1-.23a202,202,0,0,1,14.78,21.91c37,63.53,49.78,150.72,30.64,221.82A249.19,249.19,0,0,1,624,499.78c-4,8.68-5.08,34.68-19.4,25-8.26-5.61-20.82-3.38-26.65,4.73-9.93,13.82-12.58,36.31-18,52.23-1.28,3.76-2.63,7.6-5.19,10.64s-6.61,5.14-10.48,4.28c-11.43-2.52-14.26-19.27-27.06-6.33a72.45,72.45,0,0,0-13.31,18.65c-1.42,2.87-2.68,5.88-4.75,8.33s-5.18,4.29-8.36,3.9c-8.52-1-10.27-20.35-11.67-26.49-1.86-8.15-5-16.73-12-21.27a18.92,18.92,0,0,0-16.23-1.64c-5.33,1.85-6.87,7.5-12.69,5.4-4-1.43-6.69-8.47-8.58-11.82a63.31,63.31,0,0,0-8.46-11.66c-2.78-3-6.25-6-10.36-6-3.49-.06-6.75,2.07-8.87,4.86a28.42,28.42,0,0,0-4.21,9.54c-1.82,6.42-4.36,25.5-14.85,16.52a54.15,54.15,0,0,1-11.22-13.33c-7.18-12-10.71-26.83-20.79-37.08-3.6-3.66-9.35-6-13.91-3.63-4.79,2.48-6,8.67-6.54,14-1.79,18-14.6,15.84-22.54,2.2a155.19,155.19,0,0,1-8-15.5c-7.1-16.17-10.69-2.93-15.92,5.34-1.69-.53-2.46-2.44-3-4.13-4.18-13.16-5.47-26.88-6.79-40.55-.57-5.89-.63-13-1.41-19.8-.78-.52-1.57-1-2.37-1.49l-1.59-.46h0a5.77,5.77,0,0,1-.54.25l-.47.19c-.16,1.15-.33,2.29-.57,3.42a57.82,57.82,0,0,1-3.4,11c.05.89.09,1.79.15,2.68,1,15.63,3.76,31.2,9.63,45.8,2.78,6.89,7.08,13.49,13.51,17.17h.7l.73.7c1.34.5,2.83.61,3.72-.4a4.31,4.31,0,0,0,.69-2.94q-.1-7.87-.2-15.74c.16,12.38,24.36,40.1,39.36,35a11.51,11.51,0,0,0,4.46-2.83c5.54-5.57,1.22-12,1.5-18.56.26-6.14,5.23-7,9.26-2.91a24,24,0,0,1,4.16,6.68c7.77,16.28,22.26,49,45.06,46.73,11-1.09,5.41-19.23,9.18-26,1.93-3.45,5.64-6.54,9.49-5.64,2.84.66,4.76,3.26,6.34,5.72,4.91,7.68,7.32,17.82,12.52,25,1.17,1.61,3.28,2.72,5.17,2.11,1.65-.53,2.66-2.11,3.83-3.38,3.55-3.85,12.55-5.24,18.71-.92,5.11,3.59,7.45,10.51,5.68,17.17-3.2,0-6.4,0-9.6,0-2.33,0-4.17-.74-6.43-.77-5.54-.08-11.22.52-16.57-.69-2.95-.67-5.82-.57-8.75-1.06-2.67-.44-5.3-.91-8-1.33-1.25-.19-2.49,0-3.76-.22s-2.52-1-3.79-1.26a39.41,39.41,0,0,0-8.54-.94,40.22,40.22,0,0,0-7,.18,24.56,24.56,0,0,1-8.67.54,49.11,49.11,0,0,0-9.26-.72c-2.56,0-4.89-.68-7.42-.78a21.15,21.15,0,0,1-6-1.55c-2.65-.88-5.25-1.37-7.93-2.15-3-.85-5.67-1.39-8.6-2.39-2.16-.74-4.25-1.53-6.38-2.33-3-1.11-6.19-1.91-9.23-2.74a51.71,51.71,0,0,0-8.66-1.33c-5.31-.57-10.28-2.36-15.68-2.4,5.21,2.49,11.33,3.6,15.57,7.62s10.53,6.15,16,8a35.92,35.92,0,0,0,4.88,1.33c2.74.52,5.53.64,8.28,1.07,4.57.72,9,2.13,13.54,3a116.94,116.94,0,0,0,15.27,1.7c3.87.19,7.75-.16,11.62,0a77.69,77.69,0,0,1,8.77.44,55.39,55.39,0,0,1,5.89,1.65c5.16,1.43,11,1.77,15.28,5.07a19.39,19.39,0,0,0,7.34,3.23c2.07.52,3.89,1.76,6.1,1.4L436,619l-1,.16c-37.23,5.67-71.07-2.31-107.11-8.41a40.24,40.24,0,0,1-6.9-2.05c-19-6.8-39.59-11.1-57.09-21.77a251,251,0,0,1-76.8-74,76.09,76.09,0,0,1-11.43-3.76c1.45,2.26,2.94,4.5,4.45,6.72,2.76,4,6.06,8.06,9.17,11.85,2.85,3.47,5.33,6.6,8.85,9.4,3.79,3,6.79,6.69,10.18,10.1,3.69,3.71,7.57,7.18,11.27,10.89a111.43,111.43,0,0,0,9.93,9.12c3.21,2.5,6.16,5.1,9.46,7.51a59.36,59.36,0,0,1,7.84,6.27c4.6,4.71,10.75,8,16.42,11.12,31.36,17.45,66.95,23.82,101.11,33.52,21.39,6.08,46.46,4.36,68.39,3.1,8.83-.5,18.1-.78,26.82-2.44,4.25-.81,12.93-5.3,16.93-3.23,1.77.92,3,2.6,4.39,4,3.69,3.57,8.65,5.13,13.55,3.42,5.21-1.81,10.33-4.27,14.1-8.28,6.73-7.16,8.25-18.27,15.55-24.84s14.29,9.41,24.42,7.62c5.75-1,10.7-4.84,14.28-9.44,5.52-7.09,8.88-15.8,11-24.47,2.4-10,3.87-20.46,8.4-29.74a27.34,27.34,0,0,1,7.75-10.09c2.15-1.61,4.87-2.78,7.5-2.22,8.32,1.76,11.57,18.58,22.38,6.15,3.41-3.92,4.67-9.19,6.25-14.13,5.72-17.89,15.33-33.71,19.32-52.22a401.53,401.53,0,0,0,8-56.28C655.63,380.09,653,347.46,647.91,315.4Z"/><path class="cls-4" d="M580.16,404.07c-1-9.15-.48-18.48-2.14-27.56A119.22,119.22,0,0,0,569.29,348a78.1,78.1,0,0,0-8.51-14.38,61.06,61.06,0,0,0-7.9-8.69,20.9,20.9,0,0,1-8.11,2.29c5.73,4.5,10.43,10.79,14.17,17.14,11.13,18.9,15.88,40.88,16,62.68.09,18.29-2,38.67-8.49,55.85-1.47,3.85-3.38,7.76-6.74,10.13-2.8,2-7,2.54-9.48.2-1.69-1.58-2.2-4-2.58-6.32-1.22-7.43-1.85-14.92-2.68-22.4-.26-2.35-1.71-6.47-4.84-6.18s-5.41,6.28-6.38,8.77c-5.27,13.53-5.35,28.27-5.73,42.57-.31,12,.43,24.59-4.45,35.82a19,19,0,0,1-5.19,7.41c-5.58,4.49-12,2.61-13.56-4.28-3.29-14.61-3.11-30.28-9.87-43.65-3.1-6.11-8.77-8.49-14.53-3.89-5,4-6.21,10.64-8.81,16.08-1.36,2.85-3.46,5.57-6.44,6.58-5.6,1.89-10.68-2.65-11.82-7.87a21.82,21.82,0,0,1,.17-8.63,5.49,5.49,0,0,1,1.1-2.79,5.79,5.79,0,0,1,2.34-1.33q4.85-1.83,9.76-4C499.15,465,532.1,440.75,540.35,405c3.39-14.72,1.63-29.77-2.38-44.17-2-7.06-4.42-14-6.94-20.84-.75-2.08-4.27-8.78-5.44-13.52-.49.14-1,.29-1.46.45l-.64.35c-.32.17-1.34.65-2.33,1.17.38,1.29.77,2.56,1.19,3.83a16.93,16.93,0,0,1,.43,9c6.83,25.23,12.83,54.07,1.86,78.94a54.3,54.3,0,0,1-10.87,15.36c-9.12,9.5-20.07,17-31.43,23.54-5.6,3.24-11.32,6.25-17.07,9.22-4.47,2.32-11.52,8.3-16.33,3.43-1.29-1.31-2-3.12-3.36-4.33A6.92,6.92,0,0,0,440,466a12.25,12.25,0,0,0-5.39,2.48c-6.91,5.16-16.19,19.74-23.21,6.62-3.85-7.19-4.53-16.47-5-24.48-.66-11.29.14-22.75,3.4-33.59a81.73,81.73,0,0,1,4-10.52c-.94-.68-1.85-1.39-2.74-2.13a42.09,42.09,0,0,1-4.23-4.11,111.75,111.75,0,0,0-9.08,52c.07,1,.17,2.1.3,3.29,0,.39.08.8.14,1.21.15,1.23.33,2.53.56,3.87L399,462c.15.8.31,1.61.49,2.43,0,.06,0,.12,0,.17s0,.15,0,.23a61.35,61.35,0,0,0,1.85,6.68v0a66,66,0,0,0,10.07,14.39,12,12,0,0,0,4.3,1.4c8.17,1.06,16.49-7.8,22.43-12.31a7,7,0,0,1,2-1.18,4.38,4.38,0,0,1,4,.92,8.54,8.54,0,0,1,2.35,3.49c2.94,7.4.15,15.85,3.49,23.15,3.59,7.85,14.57,11.42,21.84,6.4,4.9-3.39,5.45-10.3,8.28-15.55,1-1.84,2.73-3.71,4.8-3.39,4.3.65,7.06,8.39,8,11.91,1.3,4.68,1.64,9.56,2.19,14.39s1.35,9.69,2.36,14.47a29.26,29.26,0,0,0,2.93,8.74c3.92,6.77,12.75,8,19.31,4.35a23.1,23.1,0,0,0,7.94-8c15.34-24.27,3.29-55.83,9.64-82.27,1.67-6.93,3,5.45,3,7.06a37.65,37.65,0,0,0,3.52,15.59,16.33,16.33,0,0,0,5.11,6.73c5,3.48,10.72.52,13.93-3.85,10.44-14.23,15.89-32.21,17.61-49.79A114.68,114.68,0,0,0,580.16,404.07Z"/><path class="cls-4" d="M437.25,615.72l-2.05.34a2.39,2.39,0,0,0-1,.54,2.31,2.31,0,0,0-.77.84,3.29,3.29,0,0,0-.3,2.31l.3.72a3.1,3.1,0,0,0,1.08,1.08l.71.3a3.1,3.1,0,0,0,1.6,0l2.05-.34a2.2,2.2,0,0,0,1-.54,2.23,2.23,0,0,0,.77-.84A2.25,2.25,0,0,0,441,619a2.2,2.2,0,0,0-.06-1.19l-.3-.72a3,3,0,0,0-1.07-1.07l-.72-.31a3.1,3.1,0,0,0-1.6,0Z"/><path class="cls-4" d="M464.57,603.72c-.14.52-.31,1-.49,1.53a2.3,2.3,0,0,0-.06,1.19,2.25,2.25,0,0,0,.36,1.12,2.31,2.31,0,0,0,.77.84,2.2,2.2,0,0,0,1,.54l.8.11a3.12,3.12,0,0,0,1.52-.41l.6-.47a3,3,0,0,0,.77-1.33,16,16,0,0,0,.49-1.53,2.19,2.19,0,0,0,.06-1.19,2.28,2.28,0,0,0-.36-1.12,2.23,2.23,0,0,0-.77-.84,2.39,2.39,0,0,0-1-.54l-.8-.1a2.86,2.86,0,0,0-1.51.41l-.61.46a3,3,0,0,0-.77,1.33Z"/><path class="cls-4" d="M288.62,542.15c-6.37-3.72-10.23-10.36-12.83-17.07a132.47,132.47,0,0,1-7-26.25c-.9-5.44-1.47-10.92-1.84-16.41a3.07,3.07,0,0,0-3-3,3,3,0,0,0-3,3,168.05,168.05,0,0,0,4.85,31.22c2.15,8.19,4.8,16.8,9.56,23.88a31.59,31.59,0,0,0,10.18,9.81c3.34,1.95,6.36-3.24,3-5.18Z"/><path class="cls-4" d="M467.83,601.52h-.37a2.26,2.26,0,0,0-1.15.25,2.31,2.31,0,0,0-1,.62,2.34,2.34,0,0,0-.62,1,2.3,2.3,0,0,0-.26,1.16l.11.79a3,3,0,0,0,.77,1.33l.61.47a3.05,3.05,0,0,0,1.51.41h.37a2.32,2.32,0,0,0,1.16-.26,2.25,2.25,0,0,0,1-.62,2.28,2.28,0,0,0,.62-1,2.19,2.19,0,0,0,.26-1.15l-.11-.8a3,3,0,0,0-.77-1.33l-.6-.46a2.92,2.92,0,0,0-1.52-.41Z"/><path class="cls-4" d="M255.41,544.72a168.8,168.8,0,0,1-27.7-25.31,3,3,0,0,0-4.24,0,3.06,3.06,0,0,0,0,4.24,175.25,175.25,0,0,0,28.91,26.25,3,3,0,0,0,4.11-1.08,3.07,3.07,0,0,0-1.08-4.1Z"/><path class="cls-4" d="M293.86,569.55a28.82,28.82,0,0,1-10.44-4.07c-.8-.51-1.59-1.05-2.35-1.62l-.15-.11-.61-.5c-.37-.31-.73-.62-1.08-.94-.74-.68-1.45-1.39-2.12-2.13a23.49,23.49,0,0,1-1.64-2,3.1,3.1,0,0,0-4.11-1.07,3,3,0,0,0-1.07,4.1,36,36,0,0,0,22,14.11,3.08,3.08,0,0,0,3.69-2.1,3,3,0,0,0-2.1-3.69Z"/><path class="cls-4" d="M184,515.61a223,223,0,0,0,33.7,41.9c13.46,13,28.53,24.62,45.17,33.3s34.62,14.71,52.81,19.42c9.17,2.37,18.4,4.45,27.64,6.51,10.16,2.26,20.34,4.49,30.62,6.16a186.46,186.46,0,0,0,30.83,2.75c2.49,0,5-.1,7.47-.25s4.94-.59,7.42-.71,4.8,0,7.2-.09,5.05-.06,7.2-.93c1.71-.69,2.62-2.06,3.88-3.29a3,3,0,0,0-1.32-5,5.33,5.33,0,0,0-4.55.18,3.53,3.53,0,0,0-1.34,4.44,3.91,3.91,0,0,0,3.56,2.36,5.14,5.14,0,0,0,4.12-2.57c1.12-1.56,0-4-1.79-4.41-7.74-1.86-15.45-4.53-21.71-9.6a5.92,5.92,0,0,0-3.53-1.68l-3.49-.31-6.71-.61c-4.39-.41-8.77-.84-13.15-1.33-17.57-2-35.14-4.9-51.89-10.7a144.59,144.59,0,0,1-13.75-5.54c-2.32-1.09-4.61-2.23-6.87-3.44a9.39,9.39,0,0,0-1.85-.92,9,9,0,0,0-2.08-.12,3.71,3.71,0,0,1-2.29-.67l-2.12,5.13a1.81,1.81,0,0,1,1.41.34l1.52-5.59a2.55,2.55,0,0,1-1.41-.34l-2.32,5.48c5,1.55,10.32.7,15.25,2.39,5.67,1.93,11.5,3.51,17.28,5.09a291.58,291.58,0,0,0,34.69,7.39,186.93,186.93,0,0,0,35.61,1.95,16.9,16.9,0,0,1,2.13-.12,9.38,9.38,0,0,1,1.87.43c1.51.38,3,.74,4.55,1.06,2.92.63,5.86,1.15,8.82,1.58,5.94.86,11.92,1.42,17.91,1.8s11.76.6,17.64.9c1.4.07,3.18.46,4.54.08s2.54-1.9,3.35-3a11.85,11.85,0,0,0,2.1-6.16c.29-4.36-1.78-8.73-4.74-11.83-3.27-3.43-8-5-12.71-5.27a21.08,21.08,0,0,0-13.39,4.12c-1.41,1-2.88,2.95-4.49,2.35a6.85,6.85,0,0,1-3.36-3.74c-2.59-6.82-4.1-14.39-8.51-20.37a19.66,19.66,0,0,0-9.19-7.1,10.34,10.34,0,0,0-7-.36,10.23,10.23,0,0,0-5.32,4.53c-2.2,3.72-2.18,8.33-2.41,12.52-.21,3.62-.34,7.41-2,10.39a9.13,9.13,0,0,1-3.57,3.45l1.51-.41a28.22,28.22,0,0,1-10.22-1.74,14,14,0,0,1-1.8-.74c-.76-.37-1.51-.76-2.24-1.19s-1.35-.82-2-1.27A15.64,15.64,0,0,1,379,581c-5.35-4.42-8.81-9.66-12.26-15.67C363.1,559,360,552.35,356.46,546a100.63,100.63,0,0,0-5.57-9.1,21.22,21.22,0,0,0-3.51-4.41,6.44,6.44,0,0,0-7.14-.93c-4.83,2.42-5.65,8.66-5.66,13.44,0,3,.42,6,.13,9.06a6.61,6.61,0,0,1-.88,3.29,3.59,3.59,0,0,1-2.53,1.1c-1.6.22-2.48,2.28-2.09,3.69.47,1.74,2.08,2.32,3.69,2.1a9,9,0,0,0,6.14-3.87c1.63-2.39,1.78-6,1.76-8.77s-.34-5.41-.18-8.11c.12-2.15.18-3.66,1.21-5.35a3.36,3.36,0,0,1,1.17-1.26c-.54.26.81-.33.15-.05-.35.15-.11-.18.09,0-.22-.23.17.1.2.12a6.1,6.1,0,0,1,1.36,1.67c.56.76,1.1,1.54,1.63,2.32,2,3,3.78,6.07,5.48,9.21,6.72,12.39,12.31,26.86,23.76,35.78a33.1,33.1,0,0,0,20.84,7.19c2.37,0,4.66-2.11,6.1-3.88a16.82,16.82,0,0,0,3-5.77c1.19-3.92,1.19-8.13,1.46-12.18.2-3.13.34-7.88,3.55-9,1.44-.49,3.35.36,4.42.9a11.63,11.63,0,0,1,3.85,3,19.1,19.1,0,0,1,2.71,4,35.55,35.55,0,0,1,2.14,4.74c1.32,3.46,2.34,7,3.61,10.48,1.63,4.44,5.14,9.21,10.43,9a8.46,8.46,0,0,0,3.8-1.11,27.76,27.76,0,0,0,3-2.41,15.53,15.53,0,0,1,5.73-2.68c3.68-.89,8.54-.46,11.62,2a12.37,12.37,0,0,1,3.24,4.1,8.74,8.74,0,0,1,.92,4.71,6.3,6.3,0,0,1-2.37,4l2.12-.88c-10.51-.58-21.06-.83-31.54-1.92a142.53,142.53,0,0,1-15.51-2.45c-2.72-.59-5.49-1.71-8.28-1.55q-3.85.22-7.72.26c-21.12.18-42-3.79-62.31-9.31-5.71-1.55-11.47-3.08-17.06-5-5-1.72-10.45-.89-15.47-2.47-3.22-1-5.33,3.89-2.31,5.49a8.74,8.74,0,0,0,4.44,1.16,3,3,0,0,0,1.51-5.59,7.31,7.31,0,0,0-4.44-1.16c-2.4.07-4.21,3.35-2.12,5.12,2.31,1.95,4.86,2.43,7.81,2.43l-1.51-.41c24,13.09,50.78,18.29,77.66,21.23,7.61.84,15.23,1.51,22.85,2.18l-2.12-.88c7.31,6.2,16,9.69,25.27,11.91l-1.79-4.41c.17-.23.06-.06-.07,0a2,2,0,0,1,.64-.37,2.06,2.06,0,0,1,2.42,1.25,2.57,2.57,0,0,1-1.66,3.22c-.31.08-.49-.13-.36,0a5.13,5.13,0,0,0,.82.25l-1.32-5c-.49.48-.88,1-1.35,1.53a2.58,2.58,0,0,1-.52.46c-.34.18-.09,0-.05,0a8.44,8.44,0,0,0-.93.13,42,42,0,0,1-6.73.35c-4.85,0-9.61.71-14.46.91a159.65,159.65,0,0,1-29.22-1.66c-10.16-1.46-20.23-3.53-30.25-5.75-9.06-2-18.13-4-27.15-6.22-17.61-4.33-35.09-9.58-51.49-17.44a163,163,0,0,1-24.48-14.26,224.31,224.31,0,0,1-20.66-16.73,213.32,213.32,0,0,1-33.59-39.25c-1.24-1.86-2.46-3.74-3.64-5.64-2.05-3.26-7.24-.25-5.18,3Z"/><path class="cls-4" d="M285.59,547.33l.69.38c.48.22,1,.43,1.45.61a2.33,2.33,0,0,0,1.2,0,2.27,2.27,0,0,0,1.12-.35,2.33,2.33,0,0,0,.84-.78,2.27,2.27,0,0,0,.53-1l.11-.79a3,3,0,0,0-.41-1.52l-.47-.61a3,3,0,0,0-1.32-.77l-.35-.13.71.3a9.8,9.8,0,0,1-1.07-.55,2.28,2.28,0,0,0-1.12-.36,2.33,2.33,0,0,0-1.2.05,2.39,2.39,0,0,0-1,.54,2.31,2.31,0,0,0-.77.84l-.3.72a3.06,3.06,0,0,0,0,1.59l.3.72a3.1,3.1,0,0,0,1.08,1.08Z"/><path class="cls-4" d="M650.8,314.6a134.86,134.86,0,0,0-6.44-23c-2.68-7.51-5.27-15-8-22.55a205.28,205.28,0,0,0-9.32-21.88c-3.35-6.75-6.68-14.31-12.2-19.54-6-5.64-13-11.86-21.16-13.77-2.27-.54-5.1,2.18-3.39,4.4,20.73,27,34.56,58.9,43.24,91.64a312,312,0,0,1,10,99.86A257.29,257.29,0,0,1,636,457.56a242.93,242.93,0,0,1-8.79,27.08c-2.52,6.47-6,12.68-7.79,19.4-1.3,4.77-2.21,9.74-4.12,14.32a13.22,13.22,0,0,1-2.86,4.61,3.08,3.08,0,0,1-3.27.72c-2.74-.77-5-2.88-7.7-3.85a22.44,22.44,0,0,0-10.15-1,23.35,23.35,0,0,0-17.24,11.05c-8.37,13.12-10.77,29.21-14.86,43.95a103,103,0,0,1-3.51,10.84c-1.47,3.69-3.78,7.75-7.88,8.9-5.4,1.51-9.84-4.13-13.44-7.2-4.11-3.49-8.72-5.13-13.79-2.49-3.38,1.76-6.1,4.79-8.57,7.62a77.34,77.34,0,0,0-7.95,10.9c-2.22,3.7-3.74,7.82-6.09,11.44-1.51,2.32-4.86,5.58-7.81,4.06-3.93-2-5.12-8.92-6-12.74-2.81-12.34-3.89-27.21-15.88-34.52-6.63-4.05-16.3-4.13-22.57.65-1.89,1.44-4.08,4.31-6.74,3-2.46-1.2-3.91-4.84-5.07-7.11-3.57-7-8.14-14.25-14.45-19.11-3.24-2.5-7.09-3.93-11.2-3.12a15.24,15.24,0,0,0-9.17,6.41c-3.62,5.06-4.52,11.39-6.1,17.26a31.07,31.07,0,0,1-2.34,6.56,8.53,8.53,0,0,1-1.43,2.08,2.4,2.4,0,0,1-1.24.71c-2.25,0-4.88-3.1-6.49-4.75a51.44,51.44,0,0,1-7.64-10.09c-4-6.93-6.84-14.48-10.41-21.63-3.4-6.82-7.9-14.84-14.75-18.7s-15.36-2.23-18.84,5.29a33.64,33.64,0,0,0-2.46,10.52c-.32,2.77-.88,6-2.7,8.24-2.85,3.51-7.22.82-9.89-1.81a37,37,0,0,1-6.08-8.78c-2.35-4.2-4.44-8.51-6.44-12.89-2.08-4.57-6.59-11.71-12.35-7.36-4.1,3.09-5.92,8.89-8.56,13.12l4.1-1.07c-2-.86-2.38-4.79-2.88-6.65-.86-3.17-1.57-6.38-2.17-9.6-1.24-6.63-2-13.34-2.68-20-.63-6.3-1-12.59-1.4-18.9-.17-2.58.3-7.23-1.77-9.05s-4.95-3.09-7.62-2a3,3,0,0,0-2.1,2.09,58.71,58.71,0,0,1-3.14,12.38,12,12,0,0,0-.79,5.56c.14,2.21.31,4.42.53,6.63a160.18,160.18,0,0,0,4.25,24.79c2,7.69,4.43,15.74,8.57,22.59a35.38,35.38,0,0,0,6.51,8.06c2.39,2.14,5.39,4.48,8.67,4.88,4.56.54,6.47-3.12,6.44-7.1,0-5.09-.12-10.18-.19-15.27h-6c.24,8.09,5.88,15.81,10.89,21.73,5.83,6.89,13.56,13.8,22.49,16.16a16.37,16.37,0,0,0,12.5-1.25c6-3.52,7.37-9.53,6.3-16-.41-2.49-2.45-13.19,3-8.12,2.13,2,3.27,4.92,4.5,7.5.9,1.9,1.8,3.81,2.72,5.7,4.26,8.81,8.92,17.48,15,25.21,5.66,7.22,13.2,14.15,22.56,15.79,4.24.74,9.41.95,12.85-2.09,3-2.67,3.83-6.88,4.21-10.71s0-8.07.81-12a8.61,8.61,0,0,1,2.9-5.09c2.46-2.19,4.9-1.76,6.94.66,4.07,4.81,6.15,11.35,8.63,17,2.17,5,5.18,13.38,11.59,13.84,3.31.24,5.28-1.9,7.34-4.14a9.73,9.73,0,0,1,6-2.84c5.65-.77,11.2,2,13.23,7.47a14.29,14.29,0,0,1,.38,8.46l2.89-2.2-7.85,0c-2.65,0-5.14-.59-7.76-.74-5.44-.32-10.8.43-16.19-.61-2.59-.5-5.19-.63-7.8-.93-2.84-.33-5.66-1-8.49-1.39-2.28-.34-4.29-.28-6.49-1.05a30.81,30.81,0,0,0-8.26-1.46,68.28,68.28,0,0,0-7.43-.13c-2.78.12-5.46,1-8.25,1-2.54,0-5.06-.64-7.6-.81s-5.33-.08-8-.47a39.67,39.67,0,0,1-7-1.22c-2.65-.89-5.31-1.61-8-2.31a153.93,153.93,0,0,1-15.16-4.61,73.83,73.83,0,0,0-17.65-4.5c-6.13-.68-12.13-2.52-18.31-2.67-2.84-.07-4.27,4.31-1.51,5.59,3.79,1.75,7.9,2.83,11.58,4.81,3.53,1.89,6.19,4.93,9.79,6.78a77.16,77.16,0,0,0,11.7,4.63c4.6,1.47,9.35,1.53,14.06,2.43s9.32,2.27,14.06,3a118.23,118.23,0,0,0,14.29,1.44c4.77.18,9.57,0,14.35.05a28.58,28.58,0,0,1,6.06.52c2.32.56,4.54,1.42,6.87,1.95s4.59.92,6.83,1.58a21.83,21.83,0,0,1,6.15,3.1,24.31,24.31,0,0,0,7,3c2.45.68,4.68,1.81,7.29,1.61l-2.89-2.21.3,1.91,2.09-3.69c-19.89,3.4-40.53,2.19-60.42-.52-10-1.37-20-3.13-30-4.91q-7.59-1.35-15.19-2.66c-4.86-.85-9.43-2.83-14.1-4.36-18.1-6-36.48-10.74-52.78-21a241.69,241.69,0,0,1-42.35-34,255,255,0,0,1-20.49-23.21q-4.72-6-9-12.39a8.6,8.6,0,0,0-2.21-2.75,17.53,17.53,0,0,0-4.07-1.2,79.89,79.89,0,0,1-8.08-2.86c-2.45-1-4.72,2.34-3.38,4.4a193.7,193.7,0,0,0,13,17.83c2.06,2.53,4.09,5.11,6.35,7.46,2.51,2.59,5.43,4.71,8,7.28,10.22,10.39,20.39,20.7,31.72,29.91,2.41,2,4.89,3.83,7.4,5.66,2.93,2.13,5.34,4.72,8.13,7,5.2,4.24,11.21,7.44,17.12,10.57a230.45,230.45,0,0,0,38.62,15.72c13.32,4.22,26.87,7.63,40.39,11.14,13.32,3.46,26.39,7.63,40.15,9s27.69.75,41.51,0c7.22-.41,14.46-.7,21.67-1.28,6.05-.48,12.11-1.1,17.87-3.08a44.53,44.53,0,0,1,7.3-2.14c3-.46,4,1,6,3,4.25,4.32,10.25,6.6,16.25,5s12.44-5.06,16.63-9.8c3.81-4.3,6-9.56,8.49-14.65a39.47,39.47,0,0,1,4.21-7.15c1.06-1.34,2.55-3.3,4.22-3.19,2.75.18,6.14,3.65,8.45,5.29,3.63,2.56,7.76,4.52,12.3,3.84,5.72-.85,10.91-4.36,14.71-8.6,9.17-10.23,12.33-23.7,15.18-36.74,1.51-7,3.12-14.06,6.38-20.44,2-3.84,7.08-12.22,12.52-10,3.09,1.29,5.12,4.69,7.48,6.91,2.76,2.61,6.21,4.41,10.06,3.17,5.1-1.63,8.76-6.88,10.75-11.56,2.66-6.25,4.27-12.93,6.79-19.25,5.1-12.78,11.37-25.14,14.78-38.52,3.7-14.56,5.8-29.7,7.44-44.61a400.33,400.33,0,0,0-1-91.6q-1.35-11.1-3.12-22.14c-.6-3.8-6.38-2.19-5.78,1.59,4.72,29.66,7.24,59.76,5.7,89.79a386.28,386.28,0,0,1-4.92,44.62c-1.22,7.22-2.47,14.5-4.34,21.58a148.35,148.35,0,0,1-6.71,19.08c-2.58,6.22-5.36,12.36-7.85,18.61-2.42,6.07-3.91,12.55-6.49,18.54-1.23,2.84-5.1,9.24-8.59,8.18-2.59-.77-4.78-4.23-6.73-6.17-3.17-3.13-7-5.34-11.64-4.22-6,1.46-10.43,7.06-13.2,12.26-6.46,12.12-7.13,26-11.39,38.88-2,6.12-4.89,12.27-9.1,17.21-3.13,3.67-8.47,8.19-13.71,7.53-7.32-.92-11.87-10.8-19.87-9.1-4.7,1-7.94,6.13-10.11,10-2.75,4.92-4.6,10.37-7.91,15-3.53,4.92-9.46,8.27-15.24,9.85a9.87,9.87,0,0,1-8.15-1.46c-2.5-1.68-4-4.44-6.75-5.87-4.3-2.29-9.83-.11-14,1.33-5.78,2-11.67,2.68-17.76,3.14-13.61,1-27.35,1.82-41,2-13.46.17-27-.57-40-4.2-13.18-3.66-26.46-7-39.67-10.51a359.47,359.47,0,0,1-39-12.47,188,188,0,0,1-18.7-8.59c-5.64-3-11.63-6-16.52-10.14-2.5-2.12-4.74-4.45-7.38-6.43s-5.53-4.08-8.21-6.26c-5.58-4.55-10.76-9.29-15.93-14.31s-10.12-10-15.12-15.06c-2.34-2.38-5-4.35-7.4-6.71a96.82,96.82,0,0,1-6.36-7.35,190.21,190.21,0,0,1-12.6-17.28l-3.39,4.4a82.2,82.2,0,0,0,11.43,3.77l-1.79-1.38a254.92,254.92,0,0,0,76.19,74c15.91,9.9,33.95,14.71,51.61,20.44,4.6,1.5,9.16,3.53,13.89,4.56s9.85,1.72,14.76,2.59c9.84,1.75,19.67,3.52,29.56,4.93,21.89,3.15,44.33,4.65,66.26.9,1.72-.3,2.32-2.23,2.09-3.69l-.3-1.91a3,3,0,0,0-2.89-2.2c-2.09.16-4.11-.94-6.09-1.5a19.71,19.71,0,0,1-5.84-2.72c-3.49-2.38-7.37-3.44-11.46-4.32-4.27-.92-8.41-2.6-12.77-3a111.08,111.08,0,0,0-13-.23A108.84,108.84,0,0,1,358.62,599c-4.71-1.13-9.48-1.4-14.21-2.31a58.46,58.46,0,0,1-11.92-3.94,31.33,31.33,0,0,1-6-3.26c-1.82-1.32-3.33-2.94-5.27-4.11-3.92-2.36-8.44-3.45-12.57-5.36l-1.51,5.59c5.46.13,10.72,1.85,16.13,2.44a71.26,71.26,0,0,1,15.83,3.62c5.11,1.8,10.13,3.45,15.35,4.9,2.49.68,5,1.23,7.49,2a39.12,39.12,0,0,0,7.68,1.94c2.33.22,4.66.7,7,.77a71.8,71.8,0,0,1,8,.48,27.14,27.14,0,0,0,7.69.16,54.23,54.23,0,0,1,8.35-.65,46.26,46.26,0,0,1,7.8.6c2.54.47,4.74,1.64,7.35,1.74,5.15.21,10.33,1.42,15.47,2,3.06.33,6,1.08,9.1,1.23s6.15,0,9.23,0c2.77,0,5.42.69,8.18.78,3.19.1,6.41,0,9.6,0a3,3,0,0,0,2.89-2.21,19.78,19.78,0,0,0-3.32-17,18,18,0,0,0-15.58-6.52,18.51,18.51,0,0,0-7.62,2.19,12.68,12.68,0,0,0-2.88,2.21c-.69.73-1.67,2.55-2.75,2.64-2.19.2-4.22-5-5-6.61-1.52-3.06-2.8-6.24-4.15-9.38-2.34-5.43-5-12.29-10.22-15.63-5.67-3.67-12.16.12-15.34,5.19-2.11,3.36-2.23,7.58-2.38,11.43-.14,3.63.16,7.94-1.48,11.29s-6.07,2.73-9.09,2.1a26.05,26.05,0,0,1-11.34-5.82c-7.54-6.37-12.86-15.05-17.48-23.66-2.15-4-4.13-8.11-6.09-12.22-2.28-4.81-4.44-10.54-9.53-13s-10.08.52-10.88,6c-.45,3.06.19,6.12.73,9.13s.94,6.05-1.22,8.5c-6.17,7-16.82,0-22.15-4.49-6.56-5.51-13.12-12.91-16-21.14a13.7,13.7,0,0,1-.88-4.07c-.11-3.85-6.05-3.88-6,0l.18,13.88c0,.43.34,2.6,0,2.92.52-.48-.94-.82-1.28-1a18.85,18.85,0,0,1-4.1-3c-5.91-5.59-8.79-13.53-11.17-21.12a142.1,142.1,0,0,1-5.48-26.06q-.39-3.3-.66-6.62c-.17-2.15-.67-4.59,0-6.66a79.27,79.27,0,0,0,3.47-13.21l-2.1,2.09c.28-.1.56-.21.83-.33.66-.27.47-.22-.57.13,0,.05,2.32,1.33,2.44,1.41l-1.48-2.59c.65,5.93.78,11.89,1.24,17.83s1.12,12,1.88,18a173.58,173.58,0,0,0,3,17.53c1,4.26,1.89,11.73,6.53,13.71a3.09,3.09,0,0,0,4.1-1.08c1.56-2.51,2.86-5.16,4.33-7.72a22.91,22.91,0,0,1,1.68-2.66,8.18,8.18,0,0,1,1-1.08s.21,0,.18-.07c-.89-.47.6.89.84,1.2a29,29,0,0,1,3,5.79c1.91,4.24,4,8.38,6.32,12.43,3.15,5.59,7.1,11.35,13.34,13.72a10.54,10.54,0,0,0,12.92-4.38c3.82-5.91,2-13.44,5.38-19.4,1.9-3.32,5.37-4.06,8.81-2.63s6.2,4.74,8.38,7.82c4.72,6.66,7.76,14.29,11.15,21.66,3.52,7.65,7.62,14.88,13.59,20.91,3.75,3.78,9.27,8.62,14.68,4.8,4-2.81,5.51-8.31,6.68-12.78,1.51-5.71,2.22-12.76,6.8-16.92,7.26-6.6,15,4.26,18.64,9.7a105,105,0,0,1,5.25,9.3c1.55,2.86,3.47,6,6.41,7.62a9.22,9.22,0,0,0,9.19-.18c2.81-1.71,4.66-4.19,7.95-5.06,8.34-2.2,15.38,2.43,19.15,9.67,2.86,5.48,4,11.57,5.05,17.58,1.66,9.2,6,28.23,19.56,21.41,3.76-1.9,6.17-5.51,8-9.17a102.39,102.39,0,0,1,6.55-11.76,63.62,63.62,0,0,1,8.44-10.09c1.66-1.6,4.07-3.81,6.6-3.38,1.63.27,3.34,1.84,4.64,3a63.48,63.48,0,0,0,6,5.11c6.17,4.37,13.91,4.13,19.24-1.57s7.29-14.59,9.26-22c2.05-7.71,3.8-15.51,6.18-23.14,2.1-6.71,4.66-14.44,9.45-19.78a17.44,17.44,0,0,1,18.59-4.47c2.72,1,4.87,3.06,7.71,3.85a9.32,9.32,0,0,0,6.63-.52c4.13-2,6.15-6.79,7.57-10.89,1.61-4.65,2.51-9.5,3.93-14.2a78.29,78.29,0,0,1,3.43-8.28q2.9-6.69,5.44-13.52a244.3,244.3,0,0,0,12.63-50.17c4.79-33.41,3.54-67.52-2.69-100.66-6.11-32.51-17.16-64.4-33.69-93.11a207.38,207.38,0,0,0-15.34-22.87l-3.38,4.41c6.71,1.59,12.61,6.76,17.58,11.37a31,31,0,0,1,3.45,3.43,42,42,0,0,1,2.91,4.82q2.85,5,5.43,10.15c6.78,13.53,11.34,27.89,16.47,42.09,2.9,8.05,5.64,16.2,7,24.66C645.65,320,651.43,318.38,650.8,314.6Z"/><path class="cls-4" d="M583.16,404.07c-.64-5.88-.67-11.79-1-17.69a104.54,104.54,0,0,0-2.64-17.52c-2.58-11-6.53-21.92-12.54-31.53a69.07,69.07,0,0,0-12-14.5,3.1,3.1,0,0,0-3.63-.47,18,18,0,0,1-6.6,1.88,3,3,0,0,0-2.74,1.84,3,3,0,0,0,.62,3.28c8.65,6.86,14.51,16.82,19,26.76a118.64,118.64,0,0,1,9,32.33,165.82,165.82,0,0,1,.85,33.41,147.94,147.94,0,0,1-5.61,33.3c-1.37,4.57-2.8,10-6,13.64a7.9,7.9,0,0,1-5.06,2.95,3.1,3.1,0,0,1-3.58-2.39,44.39,44.39,0,0,1-1.48-8.27c-.4-3.08-.73-6.17-1-9.26-.31-2.92-.45-5.93-1-8.81a11.23,11.23,0,0,0-2.76-5.69,6.26,6.26,0,0,0-6.57-1.65,10,10,0,0,0-4.83,4.56,51.57,51.57,0,0,0-5,13.07c-3,11.55-3.24,23.59-3.55,35.45-.28,11.17.45,22.76-3.38,33.45a23.11,23.11,0,0,1-3.36,6.53,9.61,9.61,0,0,1-5,3.48c-.12,0-.77.15-.23.08l-.58,0c-.24,0-.47,0-.71,0-.51,0,.65.18-.17,0a9.22,9.22,0,0,1-1.06-.3c.63.24-1.05-.69-.59-.34a4.1,4.1,0,0,1-1.42-1.67,11.18,11.18,0,0,1-1-3c-2.37-11-2.86-22.31-6-33.12a63.79,63.79,0,0,0-2.92-8,21,21,0,0,0-4.16-6.62,11.31,11.31,0,0,0-13.89-1.86c-4.67,2.65-7.16,7.36-9.09,12.16-1.53,3.8-2.74,9.1-6.65,11.13-3.33,1.73-7-.87-8.23-4.21a15.12,15.12,0,0,1-.37-7.47c.11-.72.23-2.14.62-2.51a4.49,4.49,0,0,1,1.32-.59l2.43-.94c18.5-7.32,36.26-17,51.32-30.13,14.47-12.58,26.23-28.76,30.95-47.54,3-12,2.73-24.46.47-36.56A144.6,144.6,0,0,0,538.75,353a156.5,156.5,0,0,0-5.7-15.89c-1.69-3.81-3.53-7.39-4.56-11.45a3,3,0,0,0-3.69-2.09,27.51,27.51,0,0,0-5.15,2.27,3,3,0,0,0-1.38,3.39c.73,2.48,1.8,5,1.91,7.57a18.26,18.26,0,0,1-.29,3.69c-.24,1.5.38,3,.77,4.46,1.32,5,2.56,10,3.63,15.11a138.13,138.13,0,0,1,3.39,30.58c-.16,9.93-1.82,20.22-6.17,29.23-4.48,9.29-12.39,16.75-20.34,23.1-8.26,6.6-17.42,12.06-26.69,17.11-4.53,2.47-9.2,4.69-13.62,7.35a32.14,32.14,0,0,1-5.05,2.66,11.22,11.22,0,0,1-1.25.38c.08,0-.94.18-.54.12s-.3,0-.37,0h-.76c.13,0,.52.14-.09,0a5.69,5.69,0,0,1-.59-.16c-.73-.24.26.21-.42-.21-1.53-.94-2.54-3.51-4.09-4.92a9.73,9.73,0,0,0-7.38-2.37c-4.69.43-8.29,3.5-11.55,6.63-1.35,1.3-2.67,2.62-4,3.88a20.92,20.92,0,0,1-3.71,2.89c-.34.21-.69.39-1.05.58-.14.07-.68.28-.1.06a3.75,3.75,0,0,1-.47.17l-.93.25c-.5.16,0,0,.11,0a5.23,5.23,0,0,0-.69,0c-.46.07-.07,0,.11,0a5.05,5.05,0,0,1-.56-.12,3,3,0,0,1-.45-.15c-.41-.14.54.38-.07-.05-.14-.1-.89-.62-.49-.29a8.48,8.48,0,0,1-1.08-1.08c-2.73-3.22-4-8.51-4.76-12.79a110.17,110.17,0,0,1-1.35-14.73c-.44-11,.6-22.16,4.13-32.68a76.59,76.59,0,0,1,3-7.56,3.12,3.12,0,0,0-1.08-4.1,43.51,43.51,0,0,1-6.36-5.77c-1.19-1.3-4-1.15-4.72.61-7.84,18.21-11.53,38.65-9,58.43a78.87,78.87,0,0,0,2.93,14c.09.3.18.59.28.88s.5,1.4.3.79.09.32.13.44.2.52.29.77c.46,1.2,1,2.39,1.51,3.55a29.46,29.46,0,0,0,3.19,5.34c2.71,3.57,6.38,6.5,10.92,7.21,4.32.68,8.45-.66,12.17-2.81a73.73,73.73,0,0,0,10.14-7.61c.67-.56,1.33-1.11,2-1.65a6.08,6.08,0,0,1,1.91-1.39,1.33,1.33,0,0,1,1.34.39A5.42,5.42,0,0,1,443.6,479c1.86,4.12,1.36,9,1.57,13.4s.95,9.2,3.68,12.92c4.5,6.15,12.94,9.35,20.33,7a15.19,15.19,0,0,0,9-7.58c1.78-3.44,2.65-7.47,4.34-10.72a5.85,5.85,0,0,1,1.41-2,1.71,1.71,0,0,1,.53-.3c.32-.11.1,0,0,0-.31,0,.3.09.37.11-.63-.2.22.15.39.25s.42.34,0,0l.4.36a5.23,5.23,0,0,1,1.17,1.41,19.88,19.88,0,0,1,1.23,2.15c.18.37.36.75.53,1.13,0,.05.22.53.06.13l.27.69a38.78,38.78,0,0,1,1.41,4.44c1.2,4.79,1.45,9.75,2.08,14.63A134.14,134.14,0,0,0,495.18,533c1.07,4.25,2.87,8.43,6.4,11.2a16.79,16.79,0,0,0,11.2,3.51c9.22-.47,15.6-7.42,19.56-15.19,8.13-15.94,6.61-34.24,6.07-51.54-.26-8.43-.37-17.06,1.25-25.31.18-.91.36-1.83.6-2.72.08-.3.19-.58.26-.87.13-.49-.07.2-.11.26.22-.36.23-.17-.22.23a2.84,2.84,0,0,1-3.89-.2c-.54-.49.19.38-.12-.17s0,.12.08.27.14.52.2.78c.13.54.24,1.09.33,1.63.05.29.1.58.14.87s.14,1,.05.29c.12,1,.24,1.94.3,2.92A49,49,0,0,0,539.39,472c1.55,4.62,3.8,9.35,7.86,12.25a11.75,11.75,0,0,0,12.78.23c4-2.3,6.5-6.33,8.85-10.14,10-16.12,14.74-35.73,15.07-54.58a122.86,122.86,0,0,0-.79-15.7,3.09,3.09,0,0,0-3-3c-1.48,0-3.18,1.38-3,3,2.08,18.84-.09,38.39-7.58,55.92a86,86,0,0,1-6.21,11.88c-2,3.11-4.18,6.83-7.6,8a5.25,5.25,0,0,1-4.29-.09,9.8,9.8,0,0,1-3.94-4.1,32.17,32.17,0,0,1-4-12.81c-.27-2.64-.28-5.26-.65-7.89-.29-2.09-.5-5-2.06-6.61a3.37,3.37,0,0,0-4.83-.09,8.14,8.14,0,0,0-1.72,4,79.65,79.65,0,0,0-1.73,12.78c-1,16.74,2.18,33.87-.83,50.42-1.42,7.77-4.3,16.28-10,22a13.9,13.9,0,0,1-8.84,4.19,10.5,10.5,0,0,1-8.19-2.81c-2.83-2.78-3.7-7.51-4.51-11.52-1-4.9-1.71-9.84-2.24-14.81-.81-7.65-1.74-16.29-6.57-22.64-2.49-3.27-6.68-5.62-10.54-2.9-3.57,2.5-4.8,7.14-6.2,11-1.12,3.12-2.34,6.12-5.19,7.73a6.33,6.33,0,0,1-1.76.77c-.4.13-.8.24-1.21.33l-.62.11c-.51.09,0,0-.29,0a11.59,11.59,0,0,1-4.53-.36,12,12,0,0,1-4.19-1.89,14.26,14.26,0,0,1-2.9-2.73c-2.4-3.39-2.64-7.56-2.74-11.58-.12-4.79-.18-9.66-2.17-14.12s-7.27-7.53-11.79-4.3c-3.13,2.24-5.91,4.92-9,7.24s-6.18,4.45-9.85,5c.37-.06-.18,0-.21,0l-.67,0a8.58,8.58,0,0,1-1.34-.05,9.2,9.2,0,0,1-2.4-.66,11.72,11.72,0,0,1-4.22-3.21,22.29,22.29,0,0,1-3.13-4.8c-.41-.79-.79-1.6-1.13-2.42-.21-.51-.4-1-.59-1.55l-.21-.59c-.05-.14-.52-1.61-.29-.85a89.68,89.68,0,0,1-3.67-27,111,111,0,0,1,8.92-41.54l-4.72.61a50.85,50.85,0,0,0,7.58,6.71l-1.07-4.1a90,90,0,0,0-7.92,33.36,136.09,136.09,0,0,0,.36,16.28,73.31,73.31,0,0,0,2.36,15c1.3,4.47,3.34,9.61,7.36,12.32,3.19,2.14,7,1.6,10.24-.19s6-4.64,8.67-7.23c1.25-1.21,2.5-2.4,3.84-3.5.44-.37.09-.07,0,0,.29-.22.58-.42.88-.62a12.75,12.75,0,0,1,1.68-1,6.27,6.27,0,0,1,2.82-.59c1.95.09,2.76,1.55,3.91,3.17a9.89,9.89,0,0,0,5.84,4.32c4.47,1,8.7-1.37,12.4-3.6,4.31-2.59,8.85-4.77,13.27-7.17,4.87-2.64,9.69-5.4,14.38-8.36a129.63,129.63,0,0,0,24.94-19.86A55,55,0,0,0,531.29,410c5.05-20.47,1.39-42-3.67-62.05-.62-2.48-1.28-5-1.94-7.42v1.59a22,22,0,0,0,.25-7.67,50,50,0,0,0-1.88-6.77L522.68,331a20.21,20.21,0,0,1,3.71-1.67l-3.69-2.09c1.14,4.49,3.3,8.66,5.17,12.87.08.18.16.35.23.53,0-.06-.23-.64-.08-.18s.42,1.11.62,1.67q.84,2.3,1.66,4.59,1.59,4.49,3,9c3.72,11.81,6.29,24,5.73,36.48-.91,20.11-10.92,38.16-24.84,52.2-13.67,13.79-30.65,24-48.37,31.83q-3.93,1.74-7.94,3.3a22.08,22.08,0,0,0-4.24,1.81,6.85,6.85,0,0,0-2.81,3.95,24.4,24.4,0,0,0-.81,8.75,15.22,15.22,0,0,0,2.73,7.74c3.19,4.32,8.66,6.68,13.87,4.55s7.61-7.47,9.54-12.47c1.58-4.09,3.14-8.75,7.08-11.17,1.82-1.12,3.24-1.38,5-.66-.14-.05-.39-.19.14.08.24.13.47.27.7.41a3.43,3.43,0,0,1,.83.66,9.69,9.69,0,0,1,2,2.58c2.73,4.8,4.18,10.4,5.29,15.76,1.17,5.66,1.88,11.39,2.73,17.1.41,2.74.85,5.49,1.39,8.21.5,2.53,1,5.08,2.59,7.2a10.34,10.34,0,0,0,12.21,3.52c5.56-2.18,8.68-7.2,10.79-12.52a59.14,59.14,0,0,0,3.53-17.2c.44-5.76.36-11.54.49-17.31.13-5.95.25-11.92.66-17.86a95.52,95.52,0,0,1,2.66-17.56,67.54,67.54,0,0,1,2.56-7.83c.15-.39.31-.79.47-1.19-.2.49.21-.46.29-.62a24.12,24.12,0,0,1,1.56-2.87c.06-.1.44-.62.14-.24.12-.15.25-.3.38-.44a5.44,5.44,0,0,1,.48-.48c.22-.2-.44,0,.11-.07.73-.14-.14,0-.06,0l.22-.07c-.44,0-.45,0-.05,0s0,.06,0,0c.29.1.33.11.13,0s-.17-.05.1.09l-.19-.15.28.28c.34.4-.36-.6.14.14.1.16.2.32.29.49,0-.05.39.78.22.41s.18.48.17.44c.06.17.11.35.16.53s.12.43.17.65.18,1.11.07.29c.87,6.42,1.31,12.89,2.2,19.31.75,5.36,1.59,12.32,8,13.68,5.77,1.24,10.87-2.34,13.91-7s4.64-10.23,6.12-15.46a135.31,135.31,0,0,0,3.6-16.89,195.86,195.86,0,0,0,2.1-34.89c-.69-23-6.52-46.81-19.82-65.87a56.84,56.84,0,0,0-11.16-12.31l-2.12,5.12a25.79,25.79,0,0,0,9.63-2.7l-3.64-.47c7.76,7.07,13.45,16.13,17.4,25.81A106.34,106.34,0,0,1,576,384.69c.48,6.45.44,12.94,1.14,19.38a3.09,3.09,0,0,0,3,3C581.65,407.07,583.34,405.69,583.16,404.07Z"/><path class="cls-4" d="M331.3,558.42a9.32,9.32,0,0,1-1,.3c-.27.07-1.26.22-.47.12a14,14,0,0,1-2.42.08c-.2,0-1.38-.15-.56,0-.38-.06-.77-.13-1.15-.21a20.7,20.7,0,0,1-2.56-.72l-1.18-.44c-.77-.31.35.16-.12,0l-.59-.28c-.89-.41-1.77-.88-2.62-1.37s-1.6-1-2.37-1.5c-.4-.26-.79-.54-1.18-.82l-.47-.34-.55-.42a63,63,0,0,1-8.87-8.56c-.64-.75-1.28-1.52-1.89-2.3s.33.44-.25-.33l-.35-.46-1-1.41a53.08,53.08,0,0,1-3-4.88q-.69-1.26-1.29-2.58c-.09-.18-.17-.36-.25-.54.3.66,0,0-.05-.15-.16-.42-.32-.84-.47-1.26a21.65,21.65,0,0,1-.66-2.39c0-.12,0-.25-.07-.37-.18-.85,0,.4,0-.12,0-.35-.06-.69-.07-1-.08-3.86-6.05-3.87-6,0,.05,3.6.09,7.21.14,10.81,0,1.77.1,3.55.06,5.32a4,4,0,0,1-.05.77c-.08,0,.3-.34.31-.37.09-.28.61.28-.18-.1a5.76,5.76,0,0,1-.69-.25,3,3,0,0,0-1.6,5.79c2.24.76,4.93.67,6.64-1.17s1.58-4.25,1.55-6.54l-.18-14.26h-6a24.27,24.27,0,0,0,3,10.12,58.46,58.46,0,0,0,7,10.58c5.54,6.81,12.54,13.1,20.8,16.35,3.86,1.52,8.32,2.14,12.33.81a3.06,3.06,0,0,0,2.09-3.69,3,3,0,0,0-3.69-2.1Z"/><path class="cls-4" d="M413.14,402.24c-8.22-7-13.17-16.79-17.14-26.63a3,3,0,0,0-5.79,0c-2.12,5.4-6.25,10.08-12,11.58a18.41,18.41,0,0,1-7.85.38,17.11,17.11,0,0,1-7.21-3.45,101.56,101.56,0,0,1-16.14-14.44q-1.85-2.06-3.59-4.21a31.5,31.5,0,0,0-3.53-4.32c-2.91-2.53-5.91-4.85-8.61-7.62a3,3,0,0,0-4.24,0c-3.2,3.51-2.6,7.48.42,10.76A78,78,0,0,1,335,373c5.15,7.58,8.18,17,3.9,25.77a28.26,28.26,0,0,1-24.16,15.43c-4.13.08-7.88-1.36-11.94-1.64a4.42,4.42,0,0,0-4.7,6.18c1.39,3.89,5.13,7.09,8,9.87a82.85,82.85,0,0,0,11.13,9.09c2.53,1.7,5.26,3.13,7.72,4.93,6.24,4.54,10.56,13.44,10.74,21.32a15.75,15.75,0,0,1-4.44,11.84c-3.31,3.28-7.81,5.2-12.09,6.85-4.95,1.92-10.06,4.05-15.41,4.39a32.91,32.91,0,0,1-11.21-1.27,22.57,22.57,0,0,1-12.78-9,33.11,33.11,0,0,1-3.6-7c-.8-2.17-1.07-5.84-3.16-7.09-2.44-1.48-4.79.95-4.4,3.38,1.84,11.63,2.73,23.34,4.18,35a175.26,175.26,0,0,0,3.08,18.07c1.16,5,2,12.13,7.31,14.33a3,3,0,0,0,3.39-1.38c2-3.21,3.52-6.73,5.65-9.86a7.91,7.91,0,0,1,1-1.26c.42-.44.58-.5.7-.44s-.46,0-.49,0c-.45.08.1-.1.09,0s-.43-.31-.1,0a4,4,0,0,1,.38.24,13.86,13.86,0,0,1,1.22,1.57,74.24,74.24,0,0,1,4,8.16q2.13,4.44,4.54,8.75c2.35,4.2,4.89,8.38,8.69,11.44,2.71,2.18,6.06,4,9.64,3.74a10.71,10.71,0,0,0,8.52-5.48c2.53-4.16,2.53-8.86,3.38-13.49.75-4.08,2.53-9.23,7.58-8.95s8.78,4.82,11.47,8.64a88.66,88.66,0,0,1,7.81,14.32c4.66,10.2,9,20.34,17.11,28.4,2.79,2.79,6.34,6.3,10.64,6,3.4-.27,5.84-2.81,7.38-5.67,3.37-6.25,3.66-13.52,6.33-20,1.87-4.52,6.18-9.37,11.5-6.85a20.31,20.31,0,0,1,6.12,5.22,58.81,58.81,0,0,1,5.6,7.46c4.07,6.43,8.57,20.52,18.92,15.69,1.85-.86,3.26-2.35,4.85-3.58a12.27,12.27,0,0,1,6.18-2.4,15.6,15.6,0,0,1,13.88,5.4c5.63,6.41,6.86,15.4,8.38,23.49,1.26,6.7,2.83,15.68,8.83,19.9,3.87,2.73,9,1.72,12.54-1,4.81-3.67,6.63-9.72,9.53-14.79a68.93,68.93,0,0,1,10.63-14.1,15.78,15.78,0,0,1,5-3.85,3.87,3.87,0,0,1,3.34,0,14.31,14.31,0,0,1,2.95,2c1.27,1.11,2.47,2.29,3.74,3.4,2.85,2.48,6.12,4.77,9.93,5.41,12.59,2.09,17.53-12.53,20.28-21.92,3-10.09,5-20.45,8.33-30.42,2.78-8.25,6.6-18.81,15.7-21.74a17.42,17.42,0,0,1,12.45.49c3.37,1.55,6,4.09,10,3.83,6.76-.43,9.71-7.77,11.44-13.31,1-3.22,1.77-6.52,2.63-9.78.37-1.42.75-2.84,1.23-4.22.58-1.71,1.49-3.49,2.45-5.68,7.81-17.83,13.89-36.38,16.58-55.68a327.81,327.81,0,0,0,2.77-50.3,432,432,0,0,0-4.63-56.68A320.74,320.74,0,0,0,630.83,280c-5.15-15.49-11.77-30.86-21.46-44.08a134.78,134.78,0,0,0-10.08-12.28c-1.82-2-5-6.15-8.19-5.29-4,1.08-1.87,5.4-.66,7.7a42.15,42.15,0,0,1,4.08,9.34c.79,3.21,0,5.2-3.59,5.81a10.31,10.31,0,0,1-8.09-1.69c-3.58-2.59-6.68-5.43-10.69-7.42a52.06,52.06,0,0,0-10.87-4.28c-3.44-.82-8.1-1.17-10.31,2.25-1.54,2.39-.83,5.28,0,7.79,1.29,3.86,2.75,7.63,3.68,11.6a63.07,63.07,0,0,1,1.63,14.49,28.43,28.43,0,0,1-.88,7.69,5.53,5.53,0,0,0,0,4c.62,1.63,1.24,3.25,1.84,4.88,2.07,5.6,4.58,11.71,5,17.71s-.14,12.07-3.5,17.39a18.54,18.54,0,0,1-10.26,7.91,19,19,0,0,1-6.27.73c-2.27-.11-4.45-1.18-6.66-1.17-3.13,0-6.46,0-9.58.25-2.23.17-4.34,1.47-6.27,2.48a3,3,0,0,0-1.38,3.39c.38,1.28.77,2.56,1.19,3.83,1.2,3.65,7,2.09,5.78-1.59-.41-1.27-.81-2.55-1.19-3.83L522.68,331c.93-.48,1.91-.91,2.83-1.41s2.77-.24,4.26-.26c1.76,0,3.6-.31,5.35-.21,1.35.07,2.72.62,4.07.82a24.64,24.64,0,0,0,15.41-2.51c11.42-6.09,15-19.64,13.33-31.68-1.08-7.79-4.39-15.45-7.19-22.74v1.59c1.7-4.88,1.74-10.28,1.35-15.38a71.31,71.31,0,0,0-2.61-15c-1-3.4-2.4-6.68-3.34-10.1-.06-.24-.12-.78-.07-.22a5.18,5.18,0,0,1,0-.79s-.26.37,0,0a3.92,3.92,0,0,0-.27.4c.09-.14.2-.25.68-.29a10.6,10.6,0,0,1,1.9.07c3.64.53,7.18,2.2,10.45,3.81a38.46,38.46,0,0,1,5.52,3.2c1.82,1.33,3.45,2.9,5.28,4.23,5.5,4,16.88,4.42,20.28-2.69,2-4.14.38-8.94-1.33-12.88-.79-1.83-1.71-3.59-2.63-5.35-.35-.65-.68-1.31-1-2-.08-.15-.15-.3-.22-.46.1.24.26.34.06.14,0,0-.06-.24-.08-.24s0-.1,0-.14c-.23-1.11-.65-.15-1.24,2.87l-1.52.4c-.8.07-1.27-.63-.53,0-.43-.39.65.56.81.71,1.27,1.16,2.45,2.42,3.61,3.69,2.83,3.12,5.52,6.38,8,9.76a121,121,0,0,1,10,16.08A199.36,199.36,0,0,1,628.26,292c8.25,28.81,12.25,58.87,13.43,88.77a378.87,378.87,0,0,1-.57,42.09,206.45,206.45,0,0,1-5,34.1,220.39,220.39,0,0,1-8.35,26.2c-2.7,7.06-6.46,13.83-8.43,21.15-1.33,4.91-2.31,10.37-4.41,14.84a17.1,17.1,0,0,1-1.64,2.88s-.28.36-.57.66a2.67,2.67,0,0,1-.9.76,2.46,2.46,0,0,1-1.57.44,6.84,6.84,0,0,1-2.66-.83c-3.1-1.69-5.84-3.43-9.41-4a24,24,0,0,0-11.42.75c-7.71,2.48-12.28,8.45-15.69,15.49-7.38,15.25-9.13,32.36-14.91,48.16-1.38,3.76-3.31,7.89-7.14,9.68-3,1.43-6,.31-8.56-1.46-4.17-2.85-7.3-7.82-12.5-9-7.62-1.66-13.82,6-18,11.22A76.22,76.22,0,0,0,502,606.17c-2,3.76-3.46,8.74-7.28,11.07a5.11,5.11,0,0,1-4,.83,4.51,4.51,0,0,1-2.1-1.6,20.93,20.93,0,0,1-3.25-7c-1.55-5.11-2.14-10.39-3.3-15.58-1.76-7.89-4.83-16.34-11.33-21.56s-17.32-6.6-24.44-1.44c-2,1.44-4.44,4.8-7.25,3.39-2.57-1.28-4-5.09-5.26-7.49A67.24,67.24,0,0,0,427,556c-2.79-3.62-6-7.51-10.07-9.68a12.77,12.77,0,0,0-12.33-.06c-4.16,2.24-6.69,6.33-8.35,10.6-2,5.19-2.65,10.78-4.58,16a17.56,17.56,0,0,1-1.39,3,7.46,7.46,0,0,1-.66,1c-.16.19-.34.37-.52.55-.47.45,0,.07-.4.32-.6.37-.13.26-.8.29.4,0-.39-.08-.43-.09a8.76,8.76,0,0,1-3.25-2.09c-6.87-6.13-11.31-13.79-15.11-22.07-3.58-7.79-6.8-15.87-12-22.78-4.9-6.52-13.1-13.46-21.69-9-3.58,1.85-5.68,5.54-6.77,9.28s-1,7.52-2,11.19c-.64,2.38-1.74,4.94-3.89,5.88.23-.1-.82.22-1.07.25.35,0-.87,0-1.11-.06a11.28,11.28,0,0,1-2.68-1,19.91,19.91,0,0,1-6.32-6.3,105,105,0,0,1-7.24-13.26c-2.24-4.63-6.21-16.62-13.68-12.46-2.23,1.24-3.71,3.71-4.95,5.85-1.49,2.59-2.8,5.28-4.38,7.82l3.39-1.38c-.38-.15-.77-1.61-.91-2-.43-1.33-.82-2.69-1.19-4-.73-2.7-1.36-5.42-1.91-8.16-1.12-5.6-1.88-11.25-2.51-16.92-1.18-10.72-2.18-21.41-3.87-32.06L270,467.9l.16.1-1.37-1.79c2.48,9.6,7.58,19,16.92,23.4a37.57,37.57,0,0,0,25.73,2.16,104.7,104.7,0,0,0,14-5.22c4.29-1.91,8.51-4.38,11.51-8.07,6.73-8.28,5.45-19.68,1.08-28.74a32.32,32.32,0,0,0-7.5-10.25,55,55,0,0,0-7.72-5.3,69.83,69.83,0,0,1-10.15-7.64c-3.12-2.82-6.55-5.79-8.75-9.4,0,0-.32-.55-.25-.58l0,.24a1.88,1.88,0,0,1-.94,1.54l-.37.16c-.45.05-.49.06-.13.05,0,0,.95.09.36,0,1.93.24,3.81.84,5.73,1.14a33.55,33.55,0,0,0,16-1.13,34.66,34.66,0,0,0,15.39-10.27,29.72,29.72,0,0,0,6.73-13.44,30,30,0,0,0-2.26-17.56,50.3,50.3,0,0,0-6.69-10.94c-1.69-2.16-3.62-4.05-5.5-6a5,5,0,0,1-1.27-1.67c.15.39.2-.4.06.07a1.88,1.88,0,0,1,.5-1h-4.24a76.38,76.38,0,0,0,7.5,6.77,12.75,12.75,0,0,1,2.89,2.93c1,1.3,2,2.59,3.07,3.84a102.23,102.23,0,0,0,13.81,13.55c4.31,3.5,8.84,7.44,14.45,8.5A25,25,0,0,0,384,391.43c5.7-2.67,9.74-8.52,12-14.23h-5.79c4.35,10.78,9.67,21.63,18.69,29.28,2.93,2.49,7.19-1.73,4.24-4.24Z"/><path class="cls-4" d="M324.37,350.73a6.56,6.56,0,0,0-4.95,3,5.84,5.84,0,0,0,.31,5.5c1.43,2.8,4.06,4.93,6.28,7.09,6.55,6.38,11.61,15.4,11.45,24.7a25.44,25.44,0,0,1-4.21,13.52,21.15,21.15,0,0,1-2,2.61,14.44,14.44,0,0,1-2.32,2.08,14.16,14.16,0,0,1-1.29.77,3.32,3.32,0,0,1-.89.38c-.45.15-.89.29-1.35.4l-.61.13c-.08,0-1,.13-.43.08-3.78.41-7.12-.33-10.74-.8a52,52,0,0,0-8.55-.53c-3,.11-6.56.51-8.76,2.77-3.46,3.55-.71,8.42,1.82,11.58,5.75,7.18,12.7,13.19,19.49,19.35,2.68,2.43,5.29,4.93,7.72,7.61a38,38,0,0,1,6.2,8.53q.25.48.48,1l.27.6c.21.47-.24-.67,0,.11s.5,1.41.68,2.14c.1.4.17.79.24,1.19-.13-.68,0,.06,0,.35a9,9,0,0,1,0,1.16c0,.15,0,.31,0,.46,0,.71.15-.6,0,.1a16.25,16.25,0,0,1-.56,2c.27-.72-.16.28-.26.45a12.83,12.83,0,0,1-.74,1.17c.35-.5-.22.25-.37.4a10.81,10.81,0,0,1-.89.9,11.48,11.48,0,0,1-2,1.53,60.08,60.08,0,0,1-11.5,5.88,48.26,48.26,0,0,1-12,2.89,31.77,31.77,0,0,1-11.85-.95,27,27,0,0,1-10.57-5.73,31.34,31.34,0,0,1-5-5.53,3.15,3.15,0,0,0-4.21-1.1,3.11,3.11,0,0,0-1.1,4.2,34.89,34.89,0,0,0,24.27,15.08c9,1.18,18-1,26.21-4.65,7.18-3.2,15.81-7.7,16.67-16.42.72-7.32-4.55-14.25-9.1-19.4-4.83-5.46-10.48-10-15.8-15a135.58,135.58,0,0,1-11.64-12.21,12.43,12.43,0,0,1-1.74-2.62,9,9,0,0,1-.36-1.16s.08.77,0,.26c0-.25.09-.81-.06.15,0-.1,0-.2.08-.3.16-.55-.27.59-.1.24.27-.54-.52.46.05,0,.35-.31-.22.16-.25.17.15-.08.28-.19.43-.27l.32-.16c.49-.3-.63.15,0,0s1.21-.34,1.83-.45l.45-.07c-.76.11-.2,0,0,0l1.32-.09a39,39,0,0,1,4.71.09c1.34.09,2.67.25,4,.41-1-.12.25,0,.62.09,1.22.18,2.44.36,3.67.51,4.41.55,8.88.46,12.91-1.62,4.53-2.34,7.93-7,10-11.56A31.54,31.54,0,0,0,343.49,388a38.3,38.3,0,0,0-5-15.37,48.84,48.84,0,0,0-8.53-11c-1.12-1.07-2.26-2.12-3.31-3.26l-.76-.87c-.38-.42-.05-.05,0,0l-.34-.48c-.19-.28-.35-.57-.53-.85-.07-.12-.12-.24-.18-.37.38.74.1.26.06,0-.13-.64,0,.77,0,.15,0-.23.12-.51-.05.36.09-.45-.11.26-.13.31-.27.47-.35.19-.34.35s-.23.14.17-.08c-.11.06-.64.18-.08,0a14.66,14.66,0,0,1,1.46-.33c1.64-.26,2.55-2.3,2.14-3.77a3.15,3.15,0,0,0-3.78-2.15Z"/><path class="cls-4" d="M596.75,225.26a26.08,26.08,0,0,1-6,19.69l1.36-.79c-6.56,1.69-12.77-.38-18.6-3.84s-11.21-8.12-17-11.85a3.09,3.09,0,0,0-4.62,2.65c0,3.1,2.38,7,6,5.9a3.63,3.63,0,0,0,2.39-4.54c-.55-1.83-2.24-3-3.79-4-2.68-1.67-5.64,1.59-4.2,4.2a64.39,64.39,0,0,1,6.18,45.26,3.07,3.07,0,1,0,5.92,1.64,69.64,69.64,0,0,0-6.79-50l-4.21,4.2a4.2,4.2,0,0,1,1.39,1.11c-.26-.36-.32-.42-.17-.16a1.43,1.43,0,0,1-.21-1.14,2.5,2.5,0,0,1,2.38-2.55,1.2,1.2,0,0,1,.94.23c-.25-.16-.17-.09.25.21-.21-.23-.16-.16.14.21-.22-.51,0,.64,0,0-.07-.33-.08-.31,0,.07a3.88,3.88,0,0,1,0-.59l-4.63,2.65c7.18,4.6,13.51,10.54,21.32,14.12a29.91,29.91,0,0,0,13.1,3.05c2.29-.06,6-.13,7.57-2a31.67,31.67,0,0,0,4.29-6.52,30.31,30.31,0,0,0,3.29-17.2,3.17,3.17,0,0,0-3.07-3.08c-1.5,0-3.28,1.42-3.07,3.08Z"/><path class="cls-4" d="M551.74,328a80.4,80.4,0,0,1,12.19,16,73.29,73.29,0,0,1,4.31,8.87c.62,1.51,1.33,3,1.88,4.55.71,1.95,1.19,4,1.73,6a189.25,189.25,0,0,1,6.34,46.87,214.77,214.77,0,0,1-1.11,23.93A85.83,85.83,0,0,1,572,455.08a97.91,97.91,0,0,1-4.29,9.86,66,66,0,0,1-5.62,10c-1.59,2.13-3.86,4.5-6.32,5.18a5,5,0,0,1-3.28-.27s-.92-.39-.41-.16c-.27-.12-.53-.25-.79-.39a13.69,13.69,0,0,1-1.67-1c.51.37-.19-.16-.24-.21q-.4-.34-.78-.72l-.54-.58-.33-.4c.19.26.19.25,0,0a18.2,18.2,0,0,1-1.81-3.22c.26.61-.08-.22-.1-.28-.13-.34-.25-.69-.36-1-.2-.62-.38-1.24-.54-1.87-.33-1.29-.58-2.6-.79-3.92s-.28-1.88-.47-3.54c-.15-1.35-.3-2.7-.46-4.05a58.29,58.29,0,0,0-1.38-8.08,3,3,0,0,0-3.69-2.09,6,6,0,0,0-4.53,4.06,10.48,10.48,0,0,0,.34,4.78c0-.06,0-.54,0-.26s.08-.53-.05.24c-.09.57-.24,1.14-.35,1.7-.28,1.48-.5,3-.7,4.44q-.48,3.75-.63,7.53c-.4,10.3.87,20.56.91,30.84,0,2.41,0,4.82-.22,7.21q-.11,1.32-.24,2.64c0,.39-.09.77-.13,1.16,0,.22-.05.45-.08.67s-.1.74,0,.37a60.89,60.89,0,0,1-2.26,10.44c-2,6.46-5.78,12.41-11.74,15.94a12.23,12.23,0,0,1-10,1.21,9.48,9.48,0,0,1-4.25-2.8,20.4,20.4,0,0,1-1.57-2.48c-.7-1.1-1.44-2.15-2-3.31l.41,1.51c-.09-3.27-1.81-6.13-2-9.34q-.27-4.12-.49-8.25c-.31-5.64-.73-11.39-2.28-16.85a32.13,32.13,0,0,0-3.34-7.87,26.19,26.19,0,0,0-2.53-3.48,5.78,5.78,0,0,0-4.07-2.43,10.06,10.06,0,0,0-7.76,3.22c-1.9,2-2.36,5.28-3.33,7.83-1.66,4.35-4.43,9.59-9.53,10.64a10.45,10.45,0,0,1-6.73-1.2,14.15,14.15,0,0,1-5.33-4.78c-1.46-2.47-1.93-5.75-2.18-8.56-.29-3.21-.31-6.43-.61-9.64s-.52-6.88-2.64-9.51a8.89,8.89,0,0,0-7.21-3.13,8.06,8.06,0,0,0-4.46,1.42c-1.16.79-2.27,1.65-3.37,2.51-2.23,1.75-4.3,3.55-6.42,5.06a34,34,0,0,1-3.32,2.13,13.9,13.9,0,0,1-3.39,1.46,11.58,11.58,0,0,1-7.6-.34,3,3,0,0,0-1.6,5.79,18.25,18.25,0,0,0,13.89-.86c4-1.8,7.4-4.73,10.78-7.47,1.65-1.34,2.9-2,4.56-3.44.06,0,.51-.29.05-.1a3.39,3.39,0,0,1,.55-.13c.77-.19-.47-.06.33,0h.57c.54,0,.23,0,.06,0a6.34,6.34,0,0,1,.84.19c.09,0,.52.22.08,0a5,5,0,0,1,.75.43c-.42-.3.62.78.38.41a2.36,2.36,0,0,1,.39.78,21.3,21.3,0,0,1,.7,4c.3,2.74.36,5.5.52,8.25.33,5.54,1.09,11.49,4.72,15.91a19.19,19.19,0,0,0,13.25,7c5.53.35,10.18-2.6,13.42-6.86,2.91-3.82,4.45-8.45,5.94-13,.07-.21.14-.44.22-.65-.19.47.26-.12,0,0s.86-.7.52-.46a7.45,7.45,0,0,1,.71-.43c.07,0,.69-.34.35-.19a4.52,4.52,0,0,1,.62-.21c.1,0,.94-.16.42-.12h.29c.32,0,.37,0,.15,0,0,0-1.12-.89-.48-.09.33.42.72.8,1.05,1.22a24.13,24.13,0,0,1,1.7,2.61A35.87,35.87,0,0,1,491.66,508c.6,4.75.72,9.55,1,14.32a30.64,30.64,0,0,0,1.17,7.68,20.37,20.37,0,0,1,1,3.29,7.17,7.17,0,0,0,.67,2.75,19.64,19.64,0,0,0,1.07,1.76c1.42,2.17,2.58,4.45,4.62,6.13a16.22,16.22,0,0,0,6.49,3.31,18.59,18.59,0,0,0,13.82-2.17c8.1-4.86,12.84-13.25,15.14-22.2,2.62-10.23,2.61-20.8,2.07-31.27-.32-6.23-.74-12.46-.64-18.7a81,81,0,0,1,.66-9.47c.38-2.72,1.42-5.45.91-8.19-.07-.34-.14-.69-.22-1s0-.71,0,0a3,3,0,0,1,0-.45v-.23c-.07.4-.07.49,0,.26.25-.39-.31.53-.29.45.13-.51.25,0,0,0a2.87,2.87,0,0,0,.58-.2L536,451.92c.3,1.11.54,2.24.73,3.38.1.59.19,1.19.28,1.78,0,.36,0,0,0-.09l.06.42c.05.38.09.76.14,1.14.32,2.68.59,5.36,1,8,.75,5.13,2.11,10.28,5.56,14.29a16.87,16.87,0,0,0,6.73,4.58,11.25,11.25,0,0,0,10.24-1.06,24.2,24.2,0,0,0,7.65-8.16c2.07-3.47,4-7,5.71-10.69a102.91,102.91,0,0,0,7.55-22,137.18,137.18,0,0,0,2.52-24.68,198.89,198.89,0,0,0-4.79-50.32q-1.42-6.21-3.26-12.31c-.52-1.72-1.35-3.35-2-5s-1.47-3.46-2.27-5.17a79.92,79.92,0,0,0-12-18.24c-1.22-1.4-2.48-2.76-3.76-4.1-2.68-2.79-6.92,1.46-4.24,4.24Z"/><path class="cls-4" d="M398.79,473c-.48-1-.14-.26-.06,0l.21.56c.15.41.3.81.47,1.22.36.89.73,1.78,1.13,2.65a31.48,31.48,0,0,0,2.36,4.25A20.75,20.75,0,0,0,410,488.5a3,3,0,0,0,3-5.18c-.3-.16-.58-.33-.86-.51s-.72-.37-.82-.57c.31.25.38.3.21.16l-.24-.19L411,482c-.26-.23-.51-.46-.75-.7-.5-.5-1-1-1.4-1.56s.38.53-.05-.07l-.26-.35c-.23-.33-.45-.66-.67-1a31.88,31.88,0,0,1-2.16-4l-.24-.53c0-.08-.3-.69-.13-.29s-.09-.22-.12-.3l-.21-.55c-.34-.87-.59-1.8-1-2.64a3,3,0,0,0-4.1-1.07,3.07,3.07,0,0,0-1.08,4.1Z"/><path class="cls-4" d="M561.53,342.86c-3.65-6.17-8-12.16-13.5-16.81a6.17,6.17,0,0,0-2.86-1.76c-1-.14-2.13,0-3.17,0a32,32,0,0,1-5.31-1.08,11.88,11.88,0,0,0-3.15,0c-.95,0-1.9.08-2.85.1-1.87,0-4.1-.32-5.89.24a3.05,3.05,0,0,0-2.1,3.69c1.11,4.36,3.18,8.44,5,12.53a6.24,6.24,0,0,0,.31.69,6.37,6.37,0,0,0,.28.75q.84,2.29,1.66,4.59c1,2.91,2,5.84,3,8.78,3.65,11.34,6.31,23.06,6.17,35-.23,19.79-9.11,37.86-22.35,52.13-12.74,13.73-28.74,24.05-45.59,32.06q-7.18,3.42-14.61,6.25a11,11,0,0,0-3.82,2,7.39,7.39,0,0,0-2.08,4,26.68,26.68,0,0,0-.47,9.25A14,14,0,0,0,459,506.58c5.39,2,10.71-1,13.75-5.41,2.68-3.87,3.66-8.69,5.74-12.77a14.18,14.18,0,0,1,4-5.19,8.06,8.06,0,0,1,2.37-1.27,5.09,5.09,0,0,1,1.15-.25h.63c.88,0-.41-.13.44,0a6.39,6.39,0,0,1,4,2.77,28.11,28.11,0,0,1,3.3,6.85,88.13,88.13,0,0,1,3.87,16c.88,5.42,1.53,10.87,2.46,16.28.84,4.84,1.54,10.12,5.93,13.09,3.84,2.6,9,1.8,12.58-.77,4.73-3.35,7.21-8.86,8.84-14.25,3.3-10.91,2.64-22.59,2.93-33.85s.49-22.83,3.55-33.83a70.31,70.31,0,0,1,2.43-7.17c.09-.2.17-.41.25-.61.21-.49-.3.65.09-.2.17-.37.33-.74.51-1.11a16.81,16.81,0,0,1,1.56-2.69c-.28.38.08-.11.16-.19s.33-.33.48-.5.44-.4,0,0a2,2,0,0,1,.43-.25c-.51.2,0,.18-.23.05s.24,0,.4,0c-.49-.06,0,0,0,.06-.28-.12-.32-.12-.13,0s.15.09-.08-.08l.38.38c-.36-.38,0,0,.11.16s.24.41.35.62.25.52.06.06a9.09,9.09,0,0,1,.43,1.34c.07.24.28,1.46.17.67.83,6.26,1.27,12.57,2.13,18.83.74,5.33,1.31,11.87,7.23,13.93,5.37,1.87,10.78-1.45,13.92-5.61s4.81-9.54,6.32-14.5a153.15,153.15,0,0,0,5.83-33.54c1.61-22.21-.17-44.94-8.54-65.76a113.12,113.12,0,0,0-7.32-15c-1.95-3.33-7.14-.31-5.18,3,11.06,18.87,15.6,40.72,15.58,62.45a183.64,183.64,0,0,1-2.64,32.44,126.89,126.89,0,0,1-3.84,15.84c-1.41,4.46-2.89,9.69-6.35,13a6.89,6.89,0,0,1-4.78,2.12,2.51,2.51,0,0,1-1.24-.22c.13.05-.62-.31-.8-.46a5.5,5.5,0,0,1-1.18-2.29,54.53,54.53,0,0,1-1.34-7.95c-.38-3-.71-6-1-9s-.45-5.92-1-8.81a11.82,11.82,0,0,0-2.49-5.39,6.39,6.39,0,0,0-6.39-2.11c-2.13.53-3.7,2.33-4.86,4.07-2.42,3.62-3.88,8.25-5.07,12.4a94.46,94.46,0,0,0-3,17c-1.05,11.14-.8,22.34-1.17,33.51a72,72,0,0,1-2,16.09c-1.19,4.46-3.06,10-7.1,12.55a6.14,6.14,0,0,1-2.13,1c-.24.07-.49.12-.74.17.14,0,.52,0-.08,0l-.58,0c-.16,0-.86-.06-.32,0a6.06,6.06,0,0,1-1.33-.35c.51.19-.35-.22-.52-.31-.73-.43.21.21-.18-.12a3.88,3.88,0,0,1-.42-.39,2.5,2.5,0,0,1-.73-.92,7.23,7.23,0,0,1-.94-2.44c-.32-1.35-.57-2.71-.83-4.07-.49-2.66-.9-5.34-1.29-8-1.57-10.81-2.91-21.77-7.76-31.7-2.12-4.35-5.89-8.14-11-8.36s-9.77,3.57-12.43,7.76c-2.48,3.9-3.57,8.56-5.57,12.54a9.91,9.91,0,0,1-4,4.64,5,5,0,0,1-4.61,0,8.11,8.11,0,0,1-3.5-3.86,14.12,14.12,0,0,1-.58-7.24,8.31,8.31,0,0,1,.61-2.93c.41-.59,2-.93,2.74-1.24q4.29-1.66,8.49-3.51c17-7.42,33.34-17.11,47-29.8s24.49-28.81,28.45-47.2c2.55-11.81,2-24-.41-35.78a150.38,150.38,0,0,0-4.66-17.22,152.52,152.52,0,0,0-5.48-15.08c-1.66-3.68-3.41-7.16-4.41-11.1l-2.1,3.69c-.55,0-.63,0-.24,0h1.68c.79,0,1.59,0,2.38,0,1.65,0,3.34-.25,5-.21,1.48,0,3,.7,4.54.9a25,25,0,0,0,5,.22l-2.12-.88c5.68,4.51,10,10.33,13.7,16.53C558.32,349.21,563.51,346.19,561.53,342.86Z"/><path class="cls-4" d="M403.15,401.16c-5.48,15.3-9.36,31.51-8.73,47.86.14,3.57.52,7.15.89,10.71a80.1,80.1,0,0,0,1.48,9.62c1.41,6.16,4.18,12.16,9,16.37a18.33,18.33,0,0,0,9.3,4.58,17.75,17.75,0,0,0,9.86-1.57,35.78,35.78,0,0,0,8-5.27c2.36-1.93,4.54-4.33,6.93-6.1.19-.13.7-.42.73-.44-.14.06.74-.16.43-.12s.83.13.21,0l.39.11c.44.14-.35-.21.06,0,.12.06.67.4.53.3s.37.33.48.44a4.69,4.69,0,0,1,1,1.33c.25.4.69,1.25.76,1.42-.06-.14.17.46.22.6s.3.93.2.45a27.2,27.2,0,0,1,.28,4.42c.23,6.08.15,12.49,3.06,18,3.1,5.92,10.51,10.31,17.25,9.66,7.58-.73,12.12-7.15,14.81-13.67.58-1.43,1.1-2.88,1.59-4.34.22-.66.45-1.31.65-2,0,0,.21-.52.07-.23s.07-.09.08-.12.28-.35.09-.12.2-.19.24-.23a3.2,3.2,0,0,1,1.31-.9c-.29.12.41-.1.51-.12-.22,0,.16,0,.18,0,.17,0,.15,0,.41.13a3.33,3.33,0,0,1,.51.63c.46.66.94,1.3,1.4,2a16.46,16.46,0,0,1,2.19,3.9,23.6,23.6,0,0,1,1,4.71c.39,2.75.66,6.11.91,9.11.52,6.26,1,12.65,2.79,18.7a34.71,34.71,0,0,0,3.77,8.57,31.41,31.41,0,0,0,3,4c1.09,1.24,2.51,2.94,4.1,3.48a20.63,20.63,0,0,0,15.3-1c4.22-2,7.5-5.72,9.93-9.66,5.12-8.28,7.33-18.31,8.52-27.86,1.9-15.29-2.5-30.64-.71-46a44.24,44.24,0,0,1,2.65-10.61l-.77,1.32.21-.17-1.32.77L537,453.3c-.2-.27-.2-.24,0,.06-.32-.28,0,.42-.08-.24.09.62.11,1.26.16,1.88.1,1.4.18,2.8.27,4.2.18,2.89.41,5.78.83,8.66.75,5.21,2.42,10.55,6.23,14.37a13.83,13.83,0,0,0,8.39,4.3,12.93,12.93,0,0,0,9.12-3.21,28.59,28.59,0,0,0,6.29-7.83c1.86-3.07,3.61-6.2,5.21-9.42A105.56,105.56,0,0,0,584,424.41a188.33,188.33,0,0,0-.55-24c-.29-3.85-.61-7.7-.91-11.55-.32-4.07-.41-8.19-1-12.23a98.15,98.15,0,0,0-18.17-44.52,3.07,3.07,0,0,0-4.1-1.07c-1.28.74-2,2.79-1.08,4.1a92.9,92.9,0,0,1,15,30.94c.75,2.75,1.39,5.55,1.9,8.36a75,75,0,0,1,1,8.59c.42,6.44,1,12.86,1.47,19.3.87,12.58.89,25.15-1.51,37.58a97.22,97.22,0,0,1-12,30.65c-2.26,3.86-5.05,9.07-9.65,9.94a5.83,5.83,0,0,1-2.38-.12,7.94,7.94,0,0,1-1.43-.78l-.53-.35s-.76-.56-.39-.26a11.33,11.33,0,0,1-3.43-4.23c-1.63-3.11-2.36-7.68-2.69-11.3-.2-2.18-.32-4.36-.46-6.55s0-4.83-1.16-6.83a4.16,4.16,0,0,0-3.69-2.22c-2.26.07-3.13,1.86-3.79,3.72a46.57,46.57,0,0,0-2.08,8.61,88.73,88.73,0,0,0-.49,18.14c.37,6,1,12.06,1.23,18.1.11,3,.12,6-.07,9-.05.75-.11,1.49-.18,2.24,0,.11-.21,1.65-.1.86-.11.84-.24,1.68-.37,2.52A86.52,86.52,0,0,1,530,521.84c-.54,1.82-1.14,3.62-1.84,5.39l-.32.78c0-.11.21-.48,0,.06l-.57,1.28c-.4.83-.81,1.65-1.25,2.45s-.9,1.56-1.39,2.3c-.24.37-.49.73-.75,1.09l-.31.42c-.41.57.24-.27-.17.21-.55.65-1.09,1.29-1.7,1.89-.29.29-.59.58-.91.86-.17.15-1,.86-.53.47a17,17,0,0,1-2,1.33c-.36.2-.73.36-1.09.56-.11.06-.53.22,0,0l-.69.26a15.6,15.6,0,0,1-2.41.65l-.51.09c.73-.12-.12,0-.23,0-.44,0-.89.07-1.33.07s-.92,0-1.38,0a9.21,9.21,0,0,0-.93-.08,24.44,24.44,0,0,1-3-.66L508,542a25.42,25.42,0,0,1-6.81-9.2,46.85,46.85,0,0,1-2.87-11.43c-.57-4.18-.82-8.4-1.2-12.59-.41-4.51-.62-9.39-2.46-13.58a32.32,32.32,0,0,0-3.42-5.47,9.26,9.26,0,0,0-2.78-2.93,7.1,7.1,0,0,0-3.77-.94,9.14,9.14,0,0,0-6,2.88c-1.56,1.62-2,3.64-2.74,5.7-1.23,3.64-2.68,7.36-5.33,10.15a8.88,8.88,0,0,1-4.92,2.94,10.42,10.42,0,0,1-5.71-.88,14,14,0,0,1-4.94-3.42,13,13,0,0,1-2.39-4.21,20.64,20.64,0,0,1-.67-2.57,19.84,19.84,0,0,1-.39-2.57c-.2-2-.27-4.06-.34-6.09s-.12-4-.31-6a13.59,13.59,0,0,0-1.95-5.7c-2.34-3.89-6.57-6.57-11.07-4.5-2,.91-3.55,2.65-5.15,4.08s-3.32,3-5.1,4.37a30.45,30.45,0,0,1-4.8,3.07,13.36,13.36,0,0,1-4.77,1.38c-3.82.2-7.31-1.92-10-4.92a24.32,24.32,0,0,1-5.1-10.09,67.24,67.24,0,0,1-1.88-11.7,117.07,117.07,0,0,1-.7-15.55,121.84,121.84,0,0,1,5.93-31.8q1.22-3.85,2.58-7.66a3,3,0,0,0-2.09-3.69,3.06,3.06,0,0,0-3.69,2.09Z"/><path class="cls-4" d="M561.53,342.86c-3.65-6.17-8-12.16-13.5-16.81a6.17,6.17,0,0,0-2.86-1.76c-1-.14-2.13,0-3.17,0a32,32,0,0,1-5.31-1.08,11.88,11.88,0,0,0-3.15,0c-.95,0-1.9.08-2.85.1-1.87,0-4.1-.32-5.89.24a3.05,3.05,0,0,0-2.1,3.69c1.11,4.36,3.18,8.44,5,12.53a6.24,6.24,0,0,0,.31.69,6.37,6.37,0,0,0,.28.75q.84,2.29,1.66,4.59c1,2.91,2,5.84,3,8.78,3.65,11.34,6.31,23.06,6.17,35-.23,19.79-9.11,37.86-22.35,52.13-12.74,13.73-28.74,24.05-45.59,32.06q-7.18,3.42-14.61,6.25a11,11,0,0,0-3.82,2,7.39,7.39,0,0,0-2.08,4,26.68,26.68,0,0,0-.47,9.25A14,14,0,0,0,459,506.58c5.39,2,10.71-1,13.75-5.41,2.68-3.87,3.66-8.69,5.74-12.77a14.18,14.18,0,0,1,4-5.19,8.06,8.06,0,0,1,2.37-1.27,5.09,5.09,0,0,1,1.15-.25h.63c.88,0-.41-.13.44,0a6.39,6.39,0,0,1,4,2.77,28.11,28.11,0,0,1,3.3,6.85,88.13,88.13,0,0,1,3.87,16c.88,5.42,1.53,10.87,2.46,16.28.84,4.84,1.54,10.12,5.93,13.09,3.84,2.6,9,1.8,12.58-.77,4.73-3.35,7.21-8.86,8.84-14.25,3.3-10.91,2.64-22.59,2.93-33.85s.49-22.83,3.55-33.83a70.31,70.31,0,0,1,2.43-7.17c.09-.2.17-.41.25-.61.21-.49-.3.65.09-.2.17-.37.33-.74.51-1.11a16.81,16.81,0,0,1,1.56-2.69c-.28.38.08-.11.16-.19s.33-.33.48-.5.44-.4,0,0a2,2,0,0,1,.43-.25c-.51.2,0,.18-.23.05s.24,0,.4,0c-.49-.06,0,0,0,.06-.28-.12-.32-.12-.13,0s.15.09-.08-.08l.38.38c-.36-.38,0,0,.11.16s.24.41.35.62.25.52.06.06a9.09,9.09,0,0,1,.43,1.34c.07.24.28,1.46.17.67.83,6.26,1.27,12.57,2.13,18.83.74,5.33,1.31,11.87,7.23,13.93,5.37,1.87,10.78-1.45,13.92-5.61s4.81-9.54,6.32-14.5a153.15,153.15,0,0,0,5.83-33.54c1.61-22.21-.17-44.94-8.54-65.76a113.12,113.12,0,0,0-7.32-15c-1.95-3.33-7.14-.31-5.18,3,11.06,18.87,15.6,40.72,15.58,62.45a183.64,183.64,0,0,1-2.64,32.44,126.89,126.89,0,0,1-3.84,15.84c-1.41,4.46-2.89,9.69-6.35,13a6.89,6.89,0,0,1-4.78,2.12,2.51,2.51,0,0,1-1.24-.22c.13.05-.62-.31-.8-.46a5.5,5.5,0,0,1-1.18-2.29,54.53,54.53,0,0,1-1.34-7.95c-.38-3-.71-6-1-9s-.45-5.92-1-8.81a11.82,11.82,0,0,0-2.49-5.39,6.39,6.39,0,0,0-6.39-2.11c-2.13.53-3.7,2.33-4.86,4.07-2.42,3.62-3.88,8.25-5.07,12.4a94.46,94.46,0,0,0-3,17c-1.05,11.14-.8,22.34-1.17,33.51a72,72,0,0,1-2,16.09c-1.19,4.46-3.06,10-7.1,12.55a6.14,6.14,0,0,1-2.13,1c-.24.07-.49.12-.74.17.14,0,.52,0-.08,0l-.58,0c-.16,0-.86-.06-.32,0a6.06,6.06,0,0,1-1.33-.35c.51.19-.35-.22-.52-.31-.73-.43.21.21-.18-.12a3.88,3.88,0,0,1-.42-.39,2.5,2.5,0,0,1-.73-.92,7.23,7.23,0,0,1-.94-2.44c-.32-1.35-.57-2.71-.83-4.07-.49-2.66-.9-5.34-1.29-8-1.57-10.81-2.91-21.77-7.76-31.7-2.12-4.35-5.89-8.14-11-8.36s-9.77,3.57-12.43,7.76c-2.48,3.9-3.57,8.56-5.57,12.54a9.91,9.91,0,0,1-4,4.64,5,5,0,0,1-4.61,0,8.11,8.11,0,0,1-3.5-3.86,14.12,14.12,0,0,1-.58-7.24,8.31,8.31,0,0,1,.61-2.93c.41-.59,2-.93,2.74-1.24q4.29-1.66,8.49-3.51c17-7.42,33.34-17.11,47-29.8s24.49-28.81,28.45-47.2c2.55-11.81,2-24-.41-35.78a150.38,150.38,0,0,0-4.66-17.22,152.52,152.52,0,0,0-5.48-15.08c-1.66-3.68-3.41-7.16-4.41-11.1l-2.1,3.69c-.55,0-.63,0-.24,0h1.68c.79,0,1.59,0,2.38,0,1.65,0,3.34-.25,5-.21,1.48,0,3,.7,4.54.9a25,25,0,0,0,5,.22l-2.12-.88c5.68,4.51,10,10.33,13.7,16.53C558.32,349.21,563.51,346.19,561.53,342.86Z"/><path class="cls-4" d="M403.15,401.16c-5.48,15.3-9.36,31.51-8.73,47.86.14,3.57.52,7.15.89,10.71a80.1,80.1,0,0,0,1.48,9.62c1.41,6.16,4.18,12.16,9,16.37a18.33,18.33,0,0,0,9.3,4.58,17.75,17.75,0,0,0,9.86-1.57,35.78,35.78,0,0,0,8-5.27c2.36-1.93,4.54-4.33,6.93-6.1.19-.13.7-.42.73-.44-.14.06.74-.16.43-.12s.83.13.21,0l.39.11c.44.14-.35-.21.06,0,.12.06.67.4.53.3s.37.33.48.44a4.69,4.69,0,0,1,1,1.33c.25.4.69,1.25.76,1.42-.06-.14.17.46.22.6s.3.93.2.45a27.2,27.2,0,0,1,.28,4.42c.23,6.08.15,12.49,3.06,18,3.1,5.92,10.51,10.31,17.25,9.66,7.58-.73,12.12-7.15,14.81-13.67.58-1.43,1.1-2.88,1.59-4.34.22-.66.45-1.31.65-2,0,0,.21-.52.07-.23s.07-.09.08-.12.28-.35.09-.12.2-.19.24-.23a3.2,3.2,0,0,1,1.31-.9c-.29.12.41-.1.51-.12-.22,0,.16,0,.18,0,.17,0,.15,0,.41.13a3.33,3.33,0,0,1,.51.63c.46.66.94,1.3,1.4,2a16.46,16.46,0,0,1,2.19,3.9,23.6,23.6,0,0,1,1,4.71c.39,2.75.66,6.11.91,9.11.52,6.26,1,12.65,2.79,18.7a34.71,34.71,0,0,0,3.77,8.57,31.41,31.41,0,0,0,3,4c1.09,1.24,2.51,2.94,4.1,3.48a20.63,20.63,0,0,0,15.3-1c4.22-2,7.5-5.72,9.93-9.66,5.12-8.28,7.33-18.31,8.52-27.86,1.9-15.29-2.5-30.64-.71-46a44.24,44.24,0,0,1,2.65-10.61l-.77,1.32.21-.17-1.32.77L537,453.3c-.2-.27-.2-.24,0,.06-.32-.28,0,.42-.08-.24.09.62.11,1.26.16,1.88.1,1.4.18,2.8.27,4.2.18,2.89.41,5.78.83,8.66.75,5.21,2.42,10.55,6.23,14.37a13.83,13.83,0,0,0,8.39,4.3,12.93,12.93,0,0,0,9.12-3.21,28.59,28.59,0,0,0,6.29-7.83c1.86-3.07,3.61-6.2,5.21-9.42A105.56,105.56,0,0,0,584,424.41a188.33,188.33,0,0,0-.55-24c-.29-3.85-.61-7.7-.91-11.55-.32-4.07-.41-8.19-1-12.23a98.15,98.15,0,0,0-18.17-44.52,3.07,3.07,0,0,0-4.1-1.07c-1.28.74-2,2.79-1.08,4.1a92.9,92.9,0,0,1,15,30.94c.75,2.75,1.39,5.55,1.9,8.36a75,75,0,0,1,1,8.59c.42,6.44,1,12.86,1.47,19.3.87,12.58.89,25.15-1.51,37.58a97.22,97.22,0,0,1-12,30.65c-2.26,3.86-5.05,9.07-9.65,9.94a5.83,5.83,0,0,1-2.38-.12,7.94,7.94,0,0,1-1.43-.78l-.53-.35s-.76-.56-.39-.26a11.33,11.33,0,0,1-3.43-4.23c-1.63-3.11-2.36-7.68-2.69-11.3-.2-2.18-.32-4.36-.46-6.55s0-4.83-1.16-6.83a4.16,4.16,0,0,0-3.69-2.22c-2.26.07-3.13,1.86-3.79,3.72a46.57,46.57,0,0,0-2.08,8.61,88.73,88.73,0,0,0-.49,18.14c.37,6,1,12.06,1.23,18.1.11,3,.12,6-.07,9-.05.75-.11,1.49-.18,2.24,0,.11-.21,1.65-.1.86-.11.84-.24,1.68-.37,2.52A86.52,86.52,0,0,1,530,521.84c-.54,1.82-1.14,3.62-1.84,5.39l-.32.78c0-.11.21-.48,0,.06l-.57,1.28c-.4.83-.81,1.65-1.25,2.45s-.9,1.56-1.39,2.3c-.24.37-.49.73-.75,1.09l-.31.42c-.41.57.24-.27-.17.21-.55.65-1.09,1.29-1.7,1.89-.29.29-.59.58-.91.86-.17.15-1,.86-.53.47a17,17,0,0,1-2,1.33c-.36.2-.73.36-1.09.56-.11.06-.53.22,0,0l-.69.26a15.6,15.6,0,0,1-2.41.65l-.51.09c.73-.12-.12,0-.23,0-.44,0-.89.07-1.33.07s-.92,0-1.38,0a9.21,9.21,0,0,0-.93-.08,24.44,24.44,0,0,1-3-.66L508,542a25.42,25.42,0,0,1-6.81-9.2,46.85,46.85,0,0,1-2.87-11.43c-.57-4.18-.82-8.4-1.2-12.59-.41-4.51-.62-9.39-2.46-13.58a32.32,32.32,0,0,0-3.42-5.47,9.26,9.26,0,0,0-2.78-2.93,7.1,7.1,0,0,0-3.77-.94,9.14,9.14,0,0,0-6,2.88c-1.56,1.62-2,3.64-2.74,5.7-1.23,3.64-2.68,7.36-5.33,10.15a8.88,8.88,0,0,1-4.92,2.94,10.42,10.42,0,0,1-5.71-.88,14,14,0,0,1-4.94-3.42,13,13,0,0,1-2.39-4.21,20.64,20.64,0,0,1-.67-2.57,19.84,19.84,0,0,1-.39-2.57c-.2-2-.27-4.06-.34-6.09s-.12-4-.31-6a13.59,13.59,0,0,0-1.95-5.7c-2.34-3.89-6.57-6.57-11.07-4.5-2,.91-3.55,2.65-5.15,4.08s-3.32,3-5.1,4.37a30.45,30.45,0,0,1-4.8,3.07,13.36,13.36,0,0,1-4.77,1.38c-3.82.2-7.31-1.92-10-4.92a24.32,24.32,0,0,1-5.1-10.09,67.24,67.24,0,0,1-1.88-11.7,117.07,117.07,0,0,1-.7-15.55,121.84,121.84,0,0,1,5.93-31.8q1.22-3.85,2.58-7.66a3,3,0,0,0-2.09-3.69,3.06,3.06,0,0,0-3.69,2.09Z"/><path class="cls-4" d="M179,518a69.75,69.75,0,0,0,53.49,6.33c18.49-5.76,33.21-19.74,40.87-37.41a64.7,64.7,0,0,0,4.52-13.54c.55-2.9-.8-6.24-3.95-7-2.78-.63-6.36.84-6.95,3.95a55.74,55.74,0,0,1-3,9.88l-.38.95c-.05.13-.11.26-.16.38-.35.87.62-1.42.24-.56s-.66,1.5-1,2.24q-1.08,2.3-2.33,4.52c-.91,1.62-1.89,3.2-2.92,4.73-.53.77-1.06,1.53-1.62,2.28-.27.37-1.38,1.67-.15.22-.38.45-.73.91-1.1,1.36a61.29,61.29,0,0,1-4.3,4.67c-.75.73-1.52,1.45-2.31,2.14l-1.35,1.14-.63.52c-.7.56-.46.26.11-.08-2.08,1.26-4,2.82-6.07,4q-1.62.94-3.3,1.77l-1.65.78c-.23.1-.45.21-.68.3l-.68.3.44-.19a66.25,66.25,0,0,1-9.42,2.93,24.61,24.61,0,0,1-4.25.77c1.31-.05.58-.07.25,0l-1.24.14c-.81.08-1.63.14-2.44.19a61.71,61.71,0,0,1-8.16-.09l-1.84-.17-.9-.11c-.49-.06-1.11-.36.26,0-1.19-.35-2.53-.4-3.75-.64a80.87,80.87,0,0,1-12.85-3.95c2,.76.43.18-.05,0l-1.09-.49-1.81-.89q-1.08-.56-2.13-1.17A5.65,5.65,0,1,0,179,518Z"/><path class="cls-4" d="M177.48,515.6c3.81,7.93,10.65,15.25,19.57,17.13a60.44,60.44,0,0,0,25.09-.09c16.21-3.45,30.53-13.42,40.34-26.62a62.41,62.41,0,0,0,11-24.67c.58-2.9-.83-6.26-4-7-2.81-.64-6.34.85-7,4A70.68,70.68,0,0,1,259.36,489c0-.1.56-1.27.17-.4-.1.21-.19.42-.28.63l-.51,1.1c-.42.88-.86,1.75-1.33,2.61q-1.31,2.43-2.83,4.72c-.44.67-.9,1.33-1.37,2l-.82,1.1c-.56.77.18-.26.26-.32a5,5,0,0,0-.54.67q-1.73,2.15-3.63,4.13c-1.27,1.33-2.6,2.6-4,3.81-.65.56-1.31,1.12-2,1.66-.37.3-1.56,1-.21.18-.38.23-.73.55-1.09.82a63.32,63.32,0,0,1-9.36,5.69c-.76.38-1.53.74-2.31,1.09l-.63.28c-.67.29,1.1-.45.41-.18l-1.42.57q-2.55,1-5.17,1.71c-1.69.48-3.4.87-5.13,1.19l-1.34.23-.67.11c-.64.1.72-.1.66-.09-1,.1-1.91.22-2.87.3a52.27,52.27,0,0,1-5.45.14c-.86,0-1.71-.06-2.57-.12l-1.37-.12-.68-.07c-.22,0-1.26-.16-.27,0s-.67-.11-1-.16l-1.37-.25a18.77,18.77,0,0,1-3-.83,3.71,3.71,0,0,0-.64-.25c.41,0,1.12.49.27.09-.46-.22-.91-.45-1.35-.7s-.87-.51-1.29-.79l-.56-.38c-.45-.31-.53-.71.2.19-.61-.76-1.58-1.35-2.27-2.06q-.48-.5-.93-1c-.16-.17-.3-.36-.46-.53-.82-.94.75,1.05,0,0a38.11,38.11,0,0,1-3.44-5.81c-1.28-2.68-5.32-3.59-7.74-2a5.82,5.82,0,0,0-2,7.75Z"/></g></svg>