<svg xmlns="http://www.w3.org/2000/svg" viewBox="0 0 800 800"><defs><style>.cls-1,.cls-2{fill:none;}.cls-2,.cls-4{stroke:#e2d8e1;stroke-miterlimit:10;stroke-width:2px;}.cls-3,.cls-4{fill:#e2d8e1;}</style></defs><g id="Layer_5" data-name="Layer 5"><path class="cls-1" d="M409.45,482.07c5.75-3,11.47-6,17.07-9.22,11.36-6.56,22.31-14,31.43-23.54A54.3,54.3,0,0,0,468.82,434c11.35-25.74,4.53-55.74-2.58-81.58-1.2-4.34-2.07-9.28-4.75-13-3.37-4.69-8.56-3.93-13.74-2.59a75.27,75.27,0,0,0-13.62,5c-16.35,7.83-30.2,21-43,34.24-15.5,16-30.83,33.4-37.24,54.74-3.26,10.84-4.06,22.3-3.4,33.59.47,8,1.15,17.29,5,24.48,7,13.12,16.3-1.46,23.21-6.62a12.25,12.25,0,0,1,5.39-2.48,6.92,6.92,0,0,1,5.63,1.45c1.37,1.21,2.07,3,3.36,4.33C397.93,490.37,405,484.39,409.45,482.07Z"/><path class="cls-1" d="M474.89,334.73c-1.68-.23-3.56-.22-4.84.9-2.79,2.43,4.07,15.09,5.16,18.08,2.52,6.87,5,13.78,6.94,20.84,4,14.4,5.77,29.45,2.38,44.17-8.25,35.77-41.2,60-73.64,74.17q-4.9,2.14-9.76,4a5.79,5.79,0,0,0-2.34,1.33,5.49,5.49,0,0,0-1.1,2.79,21.82,21.82,0,0,0-.17,8.63c1.14,5.22,6.22,9.76,11.82,7.87,3-1,5.08-3.73,6.44-6.58,2.6-5.44,3.84-12.12,8.81-16.08,5.76-4.6,11.43-2.22,14.53,3.89,6.76,13.37,6.58,29,9.87,43.65,1.55,6.89,8,8.77,13.56,4.28a19,19,0,0,0,5.19-7.41c4.88-11.23,4.14-23.86,4.45-35.82.38-14.3.46-29,5.73-42.57,1-2.49,3.21-8.49,6.38-8.77s4.58,3.83,4.84,6.18c.83,7.48,1.46,15,2.68,22.4.38,2.29.89,4.74,2.58,6.32,2.5,2.34,6.68,1.78,9.48-.2,3.36-2.37,5.27-6.28,6.74-10.13,6.52-17.18,8.58-37.56,8.49-55.85-.11-21.8-4.86-43.78-16-62.68C496.69,347.21,487.44,336.4,474.89,334.73Z"/><path class="cls-2" d="M143.4,481.9c-.51-1.91-.31-3.69-.94-5.46a24.56,24.56,0,0,1-1.59-5.49,71.07,71.07,0,0,0-2-10.91c-.24-.9-.53-2.32-1.28-3-2-1.74-2.89,1.28-3,2.88a19.38,19.38,0,0,0,.2,5.49c.95,3.67,2.22,7.27,3.36,11A74.19,74.19,0,0,0,142.52,487a35.5,35.5,0,0,1,1.27,3.35c.67,1.73,1.69,3.15,2.37,4.86.42,1,.85,2.08,1.31,3.11l.45-.14.23-.11a24.17,24.17,0,0,1-1.62-4.2C145.41,489.79,144.43,485.84,143.4,481.9Z"/><path class="cls-2" d="M121.62,458.72c-.47-.73-.9-1.47-1.3-2.21-.52-1.2-.9-2.51-1.39-3.61-.84-1.88-1.7-3.77-2.39-5.71a50.92,50.92,0,0,0-1.49-4.88c-.82-1.72-2-3.22-2.72-5-1-2.28-1.42-4.71-2.2-7.05-.49-1.51-.6-2.63-1.77-3.69-1.6,8.29,1.73,18.67,5.08,26.35.53,1.24,11.57,19.67,12.71,17.78,2.72-4.53-2.1-8.17-4.48-11.89A.41.41,0,0,1,121.62,458.72Z"/><path class="cls-2" d="M149.88,425.53a17.48,17.48,0,0,0-3-.46,5.83,5.83,0,0,0-1.72,2.41c-4.39,10.49-.89,22.44,2.64,33.25,2.12,6.5,4.27,13.06,7.43,19.11l.56-.29c-5.3-15.11-3-35-4.92-51.05A6.48,6.48,0,0,0,149.88,425.53Z"/><path class="cls-2" d="M92,366.33C89,381,87,396,90,412c2,15,4,29,8,44,7,23,15,44,28,65l3,3c16,28,39,49,65,68,2,1,3,1,5,2,6,4,10,8,16,11,30,12,60,22,92,27,25,4,49,5,73,0-2.59-3.32-4,.71,0,0-2.59-3.32-7.6-4.25-11.55-5.66-4.45-1.6-8.85-3.64-13.37-5-8.48-2.55-17.55-2.23-26.28-2.54-18.25-.65-36.64-3.11-53.65-10a62,62,0,0,1-12-6.41c-3.68-2.52-7.4-5.08-11.82-6.06a4.59,4.59,0,0,1,2.93.65,4.36,4.36,0,0,1-2.93-.65C257,598,264,598,270,598c11,1,20,5,30,10,7,3,14,2,21,4,8,1,15-1,23,0,23,3,44,6,67,6,4-6,0-12-4-17-5-6-13-3-18,0-2,2-5,3-7,4-2,0-4-2-6-4-5-10-5-23-16-29a7.78,7.78,0,0,0-8,2c-6,8-2,18-6,26-3,7-12,7-19,3-18-13-25-32-34-50-2-5-8-8-10-3-3,7,3,15-2,22s-16,2-24-2c-11-6-18-18-20.08-29.91l0,2.13c0-.71,0-1.42,0-2.13C236,546,240,554,235,558c-4,3-8-2-11-5-7-8-11-18-13-28-2-15-2-29-3.9-43.73-.71.81.89,7.63,0,0-.71.81-2.08,4.32-.67,5.19s.75-4.54.67-5.19c-5.71,6.9-11.13,12.66-20.76,10-9.16-2.5-12.54-9.93-15.12-18.34-6.54-21.29-3.76-42.46-.61-64.1.9-6.19,2-12.36,3.24-18.49,1.12-5.33,3.54-11.25,1.11-16.58-4.76,5.36,1.7,4.29,0,0C170,382,170,398,158,393c-11-4-11-18-11.29-29"/><path class="cls-2" d="M524.65,441.89c-1.72,17.58-7.17,35.56-17.61,49.79-3.21,4.37-8.93,7.33-13.93,3.85A16.33,16.33,0,0,1,488,488.8a37.65,37.65,0,0,1-3.52-15.59c0-1.61-1.33-14-3-7.06-6.35,26.44,5.7,58-9.64,82.27a23.1,23.1,0,0,1-7.94,8c-6.56,3.68-15.39,2.42-19.31-4.35a29.26,29.26,0,0,1-2.93-8.74q-1.52-7.17-2.36-14.47c-.55-4.83-.89-9.71-2.19-14.39-1-3.52-3.73-11.26-8-11.91-2.07-.32-3.81,1.55-4.8,3.39-2.83,5.25-3.38,12.16-8.28,15.55-7.27,5-18.25,1.45-21.84-6.4-3.34-7.3-.55-15.75-3.49-23.15a8.54,8.54,0,0,0-2.35-3.49,4.38,4.38,0,0,0-4-.92,7,7,0,0,0-2,1.18c-5.94,4.51-14.26,13.37-22.43,12.31a12,12,0,0,1-4.3-1.4,66,66,0,0,1-10.07-14.39v0a61.35,61.35,0,0,1-1.85-6.68c0-.08,0-.15,0-.23s0-.11,0-.17c-.18-.82-.34-1.63-.49-2.43l-.24-1.36c-.23-1.34-.41-2.64-.56-3.87-.06-.41-.1-.82-.14-1.21-.13-1.19-.23-2.29-.3-3.29a112.44,112.44,0,0,1,16.38-66.1c12.27-20,28.05-38.46,47.69-51.53,2.42-1.61,4.78-3.38,7.23-4.94,2-1.29,4.25-2.09,6.3-3.37a97.49,97.49,0,0,1,9.74-5.18c12.51-5.94,28.17-9.84,42.06-8.22.8.09,1.59.21,2.38.35.32.05.65.11,1,.18.62.11,1.24.25,1.85.4.43.1.84.2,1.26.32l1.24.35c10.65,3.23,19.32,10.28,26,19.12a78.1,78.1,0,0,1,8.51,14.38,119.22,119.22,0,0,1,8.73,28.49c1.66,9.08,1.12,18.41,2.14,27.56A114.68,114.68,0,0,1,524.65,441.89Z"/><path class="cls-3" d="M121.62,458.72c-.47-.73-.9-1.47-1.3-2.21-.52-1.2-.9-2.51-1.39-3.61-.84-1.88-1.7-3.77-2.39-5.71a50.92,50.92,0,0,0-1.49-4.88c-.82-1.72-2-3.22-2.72-5-1-2.28-1.42-4.71-2.2-7.05-.49-1.51-.6-2.63-1.77-3.69-1.6,8.29,1.73,18.67,5.08,26.35.53,1.24,11.57,19.67,12.71,17.78,2.72-4.53-2.1-8.17-4.48-11.89A.41.41,0,0,1,121.62,458.72Z"/><path class="cls-4" d="M579.41,288.65A201.16,201.16,0,0,0,562,250c-.72-1.24-1.46-2.46-2.21-3.69-.73-.73-1.45-1.48-2.2-2.2-1.62-1.55-3.27-3.06-5-4.52l-2.05-1.73-.12-.1a107.61,107.61,0,0,0-9.88-6.34c-.81-.23-1.63-.45-2.45-.66l-1-.23a202,202,0,0,1,14.78,21.91c37,63.53,49.78,150.72,30.64,221.82a249.19,249.19,0,0,1-14.31,39.27c-4,8.68-5.08,34.68-19.4,25-8.26-5.61-20.82-3.38-26.65,4.73-9.93,13.82-12.58,36.31-18,52.23-1.28,3.76-2.63,7.6-5.19,10.64s-6.61,5.14-10.48,4.28c-11.43-2.52-14.26-19.27-27.06-6.33a72.45,72.45,0,0,0-13.31,18.65c-1.42,2.87-2.68,5.88-4.75,8.33s-5.18,4.29-8.36,3.9c-8.52-1-10.27-20.35-11.67-26.49-1.86-8.15-5-16.73-12-21.27a18.92,18.92,0,0,0-16.23-1.64c-5.33,1.85-6.87,7.5-12.69,5.4-4-1.43-6.69-8.47-8.58-11.82a63.31,63.31,0,0,0-8.46-11.66c-2.78-3-6.25-6-10.36-6-3.49-.06-6.75,2.07-8.87,4.86a28.42,28.42,0,0,0-4.21,9.54c-1.82,6.42-4.36,25.5-14.85,16.52A54.15,54.15,0,0,1,315.85,579c-7.18-12-10.71-26.83-20.79-37.08-3.6-3.66-9.35-6-13.91-3.63-4.79,2.48-6,8.67-6.54,14-1.79,18-14.6,15.84-22.54,2.2a155.19,155.19,0,0,1-8-15.5c-7.1-16.17-10.69-2.93-15.92,5.34-1.69-.53-2.46-2.44-3-4.13-4.18-13.16-5.47-26.88-6.79-40.55-1-10.07-.45-23.79-4.62-33.16-1-2.24-3.2-4.14-5.65-4a6.72,6.72,0,0,0-4.23,2.22c-2.73,2.81-3.92,6.73-5.75,10.2s-4.93,6.85-8.85,6.83a9.29,9.29,0,0,1-5.9-2.58c-22.52-20-2.59-72.83-.19-97.33.65-6.64-.13-17.82-9.47-14.7-4.92,1.64-6.69,11.44-12.32,11s-5.37-12.4-2.62-27.67a17.55,17.55,0,0,1-3-.53l-.07.08c-3,3.25-5.72,6.68-8.46,10.12l-.21.27A84,84,0,0,0,150.7,385c.74,2.44,1.66,5,3.55,6.65,3.35,3,8.91,2.36,12.36-.52,5-4.2,4-12.44,8.35-17.37a10.44,10.44,0,0,1,.38,4.85c-2.77,32-15.24,67.52-2.49,98.76,1.61,4,3.64,7.86,6.86,10.66a15.77,15.77,0,0,0,2.47,1.75,2.83,2.83,0,0,1,0-.29,33.62,33.62,0,0,0,12.65,2.06c.35-.08.7-.19,1-.3,5-1.66,7.88-6.39,11.21-10,.6,4.69.74,9.5,1,14.24,1,15.63,3.76,31.2,9.63,45.8,2.78,6.89,7.08,13.49,13.51,17.17h.7l.73.7c1.34.5,2.83.61,3.72-.4a4.31,4.31,0,0,0,.69-2.94q-.1-7.87-.2-15.74c.16,12.38,24.36,40.1,39.36,35a11.51,11.51,0,0,0,4.46-2.83c5.54-5.57,1.22-12,1.5-18.56.26-6.14,5.23-7,9.26-2.91a24,24,0,0,1,4.16,6.68c7.77,16.28,22.26,49,45.06,46.73,11-1.09,5.41-19.23,9.18-26,1.93-3.45,5.64-6.54,9.49-5.64,2.84.66,4.76,3.26,6.34,5.72,4.91,7.68,7.32,17.82,12.52,25,1.17,1.61,3.28,2.72,5.17,2.11,1.65-.53,2.66-2.11,3.83-3.38,3.55-3.85,12.55-5.24,18.71-.92,5.11,3.59,7.45,10.51,5.68,17.17-3.2,0-6.4,0-9.6,0-2.33,0-4.17-.74-6.43-.77-5.54-.08-11.22.52-16.57-.69-3-.67-5.82-.57-8.75-1.06-2.67-.44-5.3-.91-8-1.33-1.25-.19-2.49,0-3.76-.22s-2.52-1-3.79-1.26a39.41,39.41,0,0,0-8.54-.94,40.22,40.22,0,0,0-7,.18,24.56,24.56,0,0,1-8.67.54,49.11,49.11,0,0,0-9.26-.72c-2.56,0-4.89-.68-7.42-.78a21.15,21.15,0,0,1-6-1.55c-2.65-.88-5.25-1.37-7.93-2.15-3-.85-5.67-1.39-8.6-2.39-2.16-.74-4.25-1.53-6.38-2.33-3-1.11-6.19-1.91-9.23-2.74a51.71,51.71,0,0,0-8.66-1.33c-5.31-.57-10.28-2.36-15.68-2.4,5.21,2.49,11.33,3.6,15.57,7.62s10.53,6.15,16,8a35.92,35.92,0,0,0,4.88,1.33c2.74.52,5.53.64,8.28,1.07,4.57.72,9,2.13,13.54,2.95a116.94,116.94,0,0,0,15.27,1.7c3.87.19,7.75-.16,11.62,0a77.69,77.69,0,0,1,8.77.44,55.39,55.39,0,0,1,5.89,1.65c5.16,1.43,11,1.77,15.28,5.07a19.39,19.39,0,0,0,7.34,3.23c2.07.52,3.89,1.76,6.1,1.4l.3,1.91-1,.16c-37.23,5.67-71.07-2.31-107.11-8.41a40.24,40.24,0,0,1-6.9-2.05c-19-6.8-39.59-11.1-57.09-21.77-60.76-37-105.85-102.91-115.83-173.73-.82-5.83-.73-12.12-2.51-17.75a16.67,16.67,0,0,1-.58-5.55c.07-5.11.25-10.22.57-15.32a242,242,0,0,1,2.86-24.85,61.47,61.47,0,0,1-3.09-8.25,19.45,19.45,0,0,1-2.38-1.95A18.13,18.13,0,0,1,86,354.81c-.88,7.42-1.53,14.87-3.24,21.93a18.71,18.71,0,0,0-.61,5c0,4.49,0,9,0,13.47,0,4.95.78,9.63.78,14.56a30.38,30.38,0,0,0,.61,7.84c.37,1.43,0,2.86.35,4.33,4,18.57,5,36.4,12,54.56a263.09,263.09,0,0,0,28.43,53.07c2.76,4,6.06,8.06,9.17,11.85,2.85,3.47,5.33,6.6,8.85,9.4,3.79,3,6.79,6.69,10.18,10.1,3.69,3.71,7.57,7.18,11.27,10.89a111.43,111.43,0,0,0,9.93,9.12c3.21,2.5,6.16,5.1,9.46,7.51a59.36,59.36,0,0,1,7.84,6.27c4.6,4.71,10.75,8,16.42,11.12,31.36,17.45,66.95,23.82,101.11,33.52,21.39,6.08,46.46,4.36,68.39,3.1,8.83-.5,18.1-.78,26.82-2.44,4.25-.81,12.93-5.3,16.93-3.23,1.77.92,3,2.6,4.39,4,3.69,3.57,8.65,5.13,13.55,3.42,5.21-1.81,10.33-4.27,14.1-8.28,6.73-7.16,8.25-18.27,15.55-24.84s14.29,9.41,24.42,7.62c5.75-1,10.7-4.84,14.28-9.44,5.52-7.09,8.88-15.8,10.95-24.47,2.4-10,3.87-20.46,8.4-29.74A27.34,27.34,0,0,1,534.08,545c2.15-1.61,4.87-2.78,7.5-2.22,8.32,1.76,11.57,18.58,22.38,6.15,3.41-3.92,4.67-9.19,6.25-14.13,5.72-17.89,15.33-33.71,19.32-52.22a401.53,401.53,0,0,0,8-56.28c2.31-32.45-.28-65.08-5.41-97.14C589.91,315.54,583.7,301.76,579.41,288.65Z"/><path class="cls-3" d="M522.2,390.25a119.22,119.22,0,0,0-8.73-28.49A78.1,78.1,0,0,0,505,347.38c-6.65-8.84-15.32-15.89-26-19.12l-1.24-.35c-.42-.12-.83-.22-1.26-.32-.61-.15-1.23-.29-1.85-.4-.32-.07-.65-.13-1-.18-.79-.14-1.58-.26-2.38-.35-13.89-1.62-29.55,2.28-42.06,8.22a97.49,97.49,0,0,0-9.74,5.18c-2.05,1.28-4.27,2.08-6.3,3.37-2.45,1.56-4.81,3.33-7.23,4.94-19.64,13.07-35.42,31.57-47.69,51.53A112.44,112.44,0,0,0,341.89,466c.07,1,.17,2.1.3,3.29,0,.39.08.8.14,1.21.15,1.23.33,2.53.56,3.87l.24,1.36c.15.8.31,1.61.49,2.43,0,.06,0,.12,0,.17s0,.15,0,.23a61.35,61.35,0,0,0,1.85,6.68v0a66,66,0,0,0,10.07,14.39,12,12,0,0,0,4.3,1.4c8.17,1.06,16.49-7.8,22.43-12.31a7,7,0,0,1,2-1.18,4.38,4.38,0,0,1,4,.92,8.54,8.54,0,0,1,2.35,3.49c2.94,7.4.15,15.85,3.49,23.15,3.59,7.85,14.57,11.42,21.84,6.4,4.9-3.39,5.45-10.3,8.28-15.55,1-1.84,2.73-3.71,4.8-3.39,4.3.65,7.06,8.39,8,11.91,1.3,4.68,1.64,9.56,2.19,14.39s1.35,9.69,2.36,14.47a29.26,29.26,0,0,0,2.93,8.74c3.92,6.77,12.75,8,19.31,4.35a23.1,23.1,0,0,0,7.94-8c15.34-24.27,3.29-55.83,9.64-82.27,1.67-6.93,3,5.45,3,7.06A37.65,37.65,0,0,0,488,488.8a16.33,16.33,0,0,0,5.11,6.73c5,3.48,10.72.52,13.93-3.85,10.44-14.23,15.89-32.21,17.61-49.79a114.68,114.68,0,0,0-.31-24.08C523.32,408.66,523.86,399.33,522.2,390.25ZM393.12,485.5c-1.29-1.31-2-3.12-3.36-4.33a6.92,6.92,0,0,0-5.63-1.45,12.25,12.25,0,0,0-5.39,2.48c-6.91,5.16-16.19,19.74-23.21,6.62-3.85-7.19-4.53-16.47-5-24.48-.66-11.29.14-22.75,3.4-33.59,6.41-21.34,21.74-38.72,37.24-54.74,12.76-13.21,26.61-26.41,43-34.24a75.27,75.27,0,0,1,13.62-5c5.18-1.34,10.37-2.1,13.74,2.59,2.68,3.74,3.55,8.68,4.75,13,7.11,25.84,13.93,55.84,2.58,81.58A54.3,54.3,0,0,1,458,449.31c-9.12,9.5-20.07,17-31.43,23.54-5.6,3.24-11.32,6.25-17.07,9.22C405,484.39,397.93,490.37,393.12,485.5Zm117.5-8.85c-1.47,3.85-3.38,7.76-6.74,10.13-2.8,2-7,2.54-9.48.2-1.69-1.58-2.2-4-2.58-6.32-1.22-7.43-1.85-14.92-2.68-22.4-.26-2.35-1.71-6.47-4.84-6.18s-5.41,6.28-6.38,8.77c-5.27,13.53-5.35,28.27-5.73,42.57-.31,12,.43,24.59-4.45,35.82a19,19,0,0,1-5.19,7.41c-5.58,4.49-12,2.61-13.56-4.28-3.29-14.61-3.11-30.28-9.87-43.65-3.1-6.11-8.77-8.49-14.53-3.89-5,4-6.21,10.64-8.81,16.08-1.36,2.85-3.46,5.57-6.44,6.58-5.6,1.89-10.68-2.65-11.82-7.87a21.82,21.82,0,0,1,.17-8.63,5.49,5.49,0,0,1,1.1-2.79,5.79,5.79,0,0,1,2.34-1.33q4.85-1.83,9.76-4c32.44-14.16,65.39-38.4,73.64-74.17,3.39-14.72,1.63-29.77-2.38-44.17-2-7.06-4.42-14-6.94-20.84-1.09-3-7.95-15.65-5.16-18.08,1.28-1.12,3.16-1.13,4.84-.9,12.55,1.67,21.8,12.48,28.23,23.39C514.25,377,519,399,519.11,420.8,519.2,439.09,517.14,459.47,510.62,476.65Z"/><path class="cls-3" d="M143.4,481.9c-.51-1.91-.31-3.69-.94-5.46a24.56,24.56,0,0,1-1.59-5.49,71.07,71.07,0,0,0-2-10.91c-.24-.9-.53-2.32-1.28-3-2-1.74-2.89,1.28-3,2.88a19.38,19.38,0,0,0,.2,5.49c.95,3.67,2.22,7.27,3.36,11A74.19,74.19,0,0,0,142.52,487a35.5,35.5,0,0,1,1.27,3.35c.67,1.73,1.69,3.15,2.37,4.86.42,1,.85,2.08,1.31,3.11l.45-.14.23-.11a24.17,24.17,0,0,1-1.62-4.2C145.41,489.79,144.43,485.84,143.4,481.9Z"/><path class="cls-3" d="M149.88,425.53a17.48,17.48,0,0,0-3-.46,5.83,5.83,0,0,0-1.72,2.41c-4.39,10.49-.89,22.44,2.64,33.25,2.12,6.5,4.27,13.06,7.43,19.11l.56-.29c-5.3-15.11-3-35-4.92-51.05A6.48,6.48,0,0,0,149.88,425.53Z"/></g><g id="clean"><path class="cls-3" d="M381.43,629.47l-2.05.34a2.27,2.27,0,0,0-1,.53,2.42,2.42,0,0,0-.77.85,3.28,3.28,0,0,0-.3,2.31l.3.71a3.1,3.1,0,0,0,1.08,1.08l.71.3a2.9,2.9,0,0,0,1.6,0l2-.34a2.27,2.27,0,0,0,1-.53,2.42,2.42,0,0,0,.77-.85,3.28,3.28,0,0,0,.3-2.31l-.3-.71a3.1,3.1,0,0,0-1.08-1.08l-.71-.3a2.9,2.9,0,0,0-1.6,0Z"/><path class="cls-3" d="M408.75,617.46c-.15.52-.31,1-.49,1.53a3.28,3.28,0,0,0,.3,2.31,2.42,2.42,0,0,0,.77.85,2.27,2.27,0,0,0,1,.53l.8.11a3,3,0,0,0,1.51-.41l.61-.47a2.94,2.94,0,0,0,.77-1.32c.19-.5.35-1,.49-1.53a3.28,3.28,0,0,0-.3-2.31,2.42,2.42,0,0,0-.77-.85,2.27,2.27,0,0,0-1-.53l-.8-.11a3,3,0,0,0-1.51.41l-.61.47a2.94,2.94,0,0,0-.77,1.32Z"/><path class="cls-3" d="M232.79,555.89c-8.39-4.9-12.14-14.46-15-23.27a146.26,146.26,0,0,1-6.3-32.24c-.56-6.36-.62-12.77-1.41-19.11a3.07,3.07,0,0,0-1.84-2.74,3,3,0,0,0-3.28.62c-3.31,3.63-6.09,8.31-10.93,9.54-3.74.95-2.15,6.74,1.6,5.78,6.16-1.57,9.54-6.65,13.57-11.08l-5.12-2.12c.73,5.88.81,11.82,1.29,17.72a177.59,177.59,0,0,0,2.27,17.64,136.89,136.89,0,0,0,4.08,16.7,77.31,77.31,0,0,0,6.35,15.51,33,33,0,0,0,11.68,12.23c3.34,1.95,6.36-3.23,3-5.18Z"/><path class="cls-3" d="M412,615.26h-.37a2.22,2.22,0,0,0-1.16.26,2.72,2.72,0,0,0-1.58,1.58,2.22,2.22,0,0,0-.26,1.16l.11.8a2.94,2.94,0,0,0,.77,1.32l.61.47a3,3,0,0,0,1.51.41H412a2.22,2.22,0,0,0,1.16-.26,2.72,2.72,0,0,0,1.58-1.58,2.22,2.22,0,0,0,.26-1.16l-.11-.8a2.94,2.94,0,0,0-.77-1.32l-.61-.47a3,3,0,0,0-1.51-.41Z"/><path class="cls-3" d="M199.59,558.46a168.8,168.8,0,0,1-27.7-25.31,3,3,0,1,0-4.24,4.24,175.25,175.25,0,0,0,28.91,26.25,3,3,0,0,0,4.11-1.07,3.08,3.08,0,0,0-1.08-4.11Z"/><path class="cls-3" d="M238,583.3a29,29,0,0,1-10.44-4.08c-.8-.5-1.59-1-2.35-1.61.24.18-.08-.06-.15-.12s-.41-.33-.61-.5c-.37-.3-.73-.62-1.08-.94q-1.11-1-2.13-2.13c-.68-.76-1.21-1.4-1.63-2a3.1,3.1,0,0,0-4.11-1.08c-1.28.75-2,2.8-1.07,4.11a36.08,36.08,0,0,0,22,14.1,3.08,3.08,0,0,0,3.69-2.09,3,3,0,0,0-2.1-3.69Z"/><path class="cls-3" d="M124.21,457.21a57.56,57.56,0,0,1-3.75-8.22c-1.21-2.8-1.64-5.87-3-8.59-.66-1.3-1.52-2.49-2.16-3.8a23.88,23.88,0,0,1-1.36-4c-.77-2.77-1.33-6-3.45-8.12-1.5-1.47-4.59-1-5,1.32-1.28,7,.1,14.12,2.31,20.76a54,54,0,0,0,4.79,10.92c2,3.33,4.05,6.62,6.26,9.8a48.36,48.36,0,0,0,3.27,4.31c1,1.14,2.23,2.28,3.83,2.28,3.85,0,4.52-5.68,3.63-8.41-1.09-3.29-3.8-5.43-5.35-8.22-1.87-3.38-7.06-.36-5.18,3,1.25,2.26,3.15,3.84,4.37,6a3.16,3.16,0,0,1,.46,1.07c.25.83.06-.42.09.44a3.32,3.32,0,0,1,0,.63c.06-.41-.38.77-.38.79-.31-1.07,2.52-1.41,3.07-1.26-.36-.09.82.39.48.21-.61-.32.46.51.12.11-.15-.17-.34-.32-.49-.48-.42-.44-.79-.92-1.18-1.39s.32.42.06.06c-.11-.13-.21-.27-.31-.41l-.64-.87L123.19,463c-1.9-2.82-3.7-5.69-5.44-8.61a42.9,42.9,0,0,1-3.64-7.9c-2.13-6-4-12.86-2.86-19.15l-5,1.32c.7.69,0-.06.32.35.06.1.28.65.16.31.2.55.34,1.14.52,1.71.45,1.47.85,3,1.29,4.43a24.78,24.78,0,0,0,1.78,4.53c.68,1.28,1.58,2.47,2.15,3.8s.66,2.53,1.05,3.76a47.17,47.17,0,0,0,1.77,4.44c1.2,2.77,2.13,5.65,3.75,8.21C121.09,463.49,126.28,460.48,124.21,457.21Z"/><path class="cls-3" d="M152,423.41a5.08,5.08,0,0,0-6.51-1c-2,1.18-3,3.45-3.73,5.54a32.5,32.5,0,0,0-1.59,13c.59,8.92,3.61,17.53,6.47,25.94a104,104,0,0,0,6,14.5,3.05,3.05,0,0,0,4.1,1.08l.56-.29a3,3,0,0,0,1.38-3.39c-4.68-13.54-3.44-28.35-4.17-42.43q-.15-2.94-.43-5.86c-.21-2.21-.34-4.53-1.58-6.44a3,3,0,1,0-5.18,3c.75,1.17.71,2.81.84,4.21.15,1.69.26,3.38.35,5.07.18,3.58.26,7.17.35,10.75a187.94,187.94,0,0,0,1.41,22,60.59,60.59,0,0,0,2.63,11.28l1.38-3.39-.56.29,4.1,1.08a98,98,0,0,1-5.52-13.52c-1.55-4.6-3.1-9.22-4.33-13.92a47.73,47.73,0,0,1-1.84-13.69,24.69,24.69,0,0,1,1-6.44,10.06,10.06,0,0,1,1.09-2.77c.1-.15.35-.55.44-.52a1,1,0,0,1-1,0c-.19-.13-.15-.06.11.2a3,3,0,0,0,4.24,0A3.07,3.07,0,0,0,152,423.41Z"/><path class="cls-3" d="M150.74,496.52c-1.5-3.12-2.17-6.62-3-9.95-.4-1.52-.79-3-1.18-4.56-.44-1.71-.52-3.41-.85-5.14-.31-1.57-1-3-1.48-4.58a37.71,37.71,0,0,1-.78-4.87,55,55,0,0,0-2.09-9.59,6.28,6.28,0,0,0-2.79-3.7,4.22,4.22,0,0,0-5,.66c-2,2-2,5.14-2,7.72,0,3.49,1.24,6.84,2.3,10.12,1.12,3.52,2.21,7,3.65,10.43.72,1.69,1.46,3.37,2.29,5s1.25,3.45,2.07,5.1c1.74,3.46,3.18,7.06,4.93,10.52,1.51,3,6.63.91,5.48-2.31-.48-1.34-.94-2.69-1.4-4l-1.38,3.39.23-.11a3,3,0,0,0,1.08-4.1,3.06,3.06,0,0,0-4.1-1.08l-.23.11a3,3,0,0,0-1.38,3.39c.46,1.35.92,2.69,1.4,4l5.48-2.31c-1.41-2.79-2.44-5.76-3.86-8.53a26.35,26.35,0,0,1-1.67-3.47,43,43,0,0,0-1.86-4.44,112,112,0,0,1-6.22-17.29,15.3,15.3,0,0,1-.81-4c0-.66,0-1.31,0-2a8.77,8.77,0,0,0,.05-1c0-.64-.16.53,0-.18.05-.22.1-.44.16-.65.12-.47.27-.22,0-.14l.06-.1c.12-.2.08-.15-.12.14-.64.28-1.07.81-1.87.46-.62-.28-.35-.72-.35-.14,0-.26.06.19.08.24.24.69.39,1.43.57,2.13a66.91,66.91,0,0,1,1.65,8.78,21,21,0,0,0,.93,4.44,21.35,21.35,0,0,1,1.2,4,84.14,84.14,0,0,0,2.21,10.17,55.35,55.35,0,0,0,3.4,10.46,3,3,0,0,0,4.1,1.08A3.06,3.06,0,0,0,150.74,496.52Z"/><path class="cls-3" d="M88.39,364.08a235.82,235.82,0,0,0,6.11,92.69,250.52,250.52,0,0,0,39.25,80.55,268.21,268.21,0,0,0,28.93,33.84A214.26,214.26,0,0,0,179.56,586a166.74,166.74,0,0,0,18.88,13.36c25.55,14.95,54.12,22.81,82.83,29.11,7.37,1.61,14.76,3.16,22.14,4.74a238.54,238.54,0,0,0,23.89,4.14,224,224,0,0,0,24.16,1.21c4.05,0,8.11-.1,12.16-.24q3.08-.11,6.14-.26c1.53-.07,2.95-.46,4.46-.62,3.42-.35,6.24-1,8.37-3.93,1.25-1.69-.17-3.8-1.79-4.4-4.2-1.57-8.49-2.9-12.65-4.56a49.35,49.35,0,0,1-5.32-2.47c-2.13-1.15-4-2.78-6.31-3.64a19.13,19.13,0,0,0-5.68-.87c-2.2-.13-4.34-.53-6.53-.68-4.51-.3-9-.65-13.51-1.08-17.53-1.66-35.08-4.58-51.67-10.65A126.39,126.39,0,0,1,266,599.48q-3.29-1.65-6.47-3.49a7.42,7.42,0,0,0-1.7-.88,10.6,10.6,0,0,0-2.18-.13,3.15,3.15,0,0,1-2.14-.79l-2.12,5.12c.28,0,1.27.26.8-.12l2.13-5.12a2.32,2.32,0,0,1-1.42-.35l-2.31,5.48c3.87,1.1,7.93,1.16,11.91,1.48,4.19.33,7.87,1.65,11.82,3,8.27,2.8,16.66,5.24,25.17,7.21A201.22,201.22,0,0,0,351,616.3c1.93-.07,4.23-.54,6.1-.16,2.26.47,4.47,1.18,6.73,1.66,4.39.93,8.84,1.59,13.29,2.1,8.69,1,17.43,1.35,26.16,1.76,2.2.1,4.55.45,6.75.34s3.72-2.3,4.73-4a12.27,12.27,0,0,0,1.16-9.71,19.38,19.38,0,0,0-5.2-8.38,13.07,13.07,0,0,0-3.89-2.85,20.46,20.46,0,0,0-6.07-1.44,22.75,22.75,0,0,0-10.8,1.85,25.71,25.71,0,0,0-4.8,2.63c-.93.65-2.26,2.2-3.35,2.24-2.49.1-3.71-3.53-4.51-5.35s-1.8-4.65-2.61-6.93c-1.76-5-3.55-10.05-6.89-14.18A16,16,0,0,0,354.39,570c-3.48.18-6.23,4.33-7.49,7.26A27.67,27.67,0,0,0,345,587.3c-.09,3,.64,6.51-.59,9.31-1,2.27-2.92,4.33-5.52,4.51s-5.69-.9-8.12-1.81A29.69,29.69,0,0,1,324,595.6a42.41,42.41,0,0,1-10.17-11.36c-6.25-9.64-10.4-20.45-16.44-30.2-2.41-3.89-6.34-10.89-12-9.31-3.55,1-5.23,5.77-5.92,9-.83,3.78-.61,7.62-.63,11.46,0,2.15.39,6.68-2.5,6.89a3.07,3.07,0,0,0-3,3,3,3,0,0,0,3,3,8.72,8.72,0,0,0,7.31-4.55c1.43-2.84,1.21-6.8,1.18-9.9s-.17-6.12.61-9.07c.36-1.37,1.27-2.55,1.62-3.88.07-.26.34-.53-.34-.12.31-.19.29.3,0,0l.26.08c-.27-.14-.25-.12.07,0a7.59,7.59,0,0,1,1,.62c-.43-.32.33.33.45.43.59.49,0-.07.45.47s.76,1.06,1.14,1.6c1.35,2,2.6,4,3.79,6,2.41,4.16,4.55,8.47,6.71,12.76,4.21,8.36,8.54,17,15.17,23.73a36.25,36.25,0,0,0,11,7.79c4.53,2,10.65,4.17,15.53,2.43a13.18,13.18,0,0,0,7-6.25,15.46,15.46,0,0,0,1.65-4.46,26.28,26.28,0,0,0,.07-4.86c0-5.26-.15-11.86,4.55-15.35L354,576a10.64,10.64,0,0,1,6.56,1.4,13,13,0,0,1,3.94,4.24c2.69,4.36,4,9.22,5.84,14.12a52,52,0,0,0,3.4,7.63c1.85,3.27,5.8,5.67,9.63,4.82,1.82-.39,2.95-1.51,4.37-2.58a20.46,20.46,0,0,1,5.08-2.84,16.46,16.46,0,0,1,10-.71,8.21,8.21,0,0,1,4.2,2.73,13.53,13.53,0,0,1,2.64,3.92,6.61,6.61,0,0,1-1.8,8.15L410,616c-10.77-.59-21.58-.83-32.3-2a121.48,121.48,0,0,1-15.53-2.69c-1.18-.29-2.34-.59-3.5-.92a12.94,12.94,0,0,0-4.39-.2q-3.9.2-7.81.22c-21,.12-41.74-3.62-61.78-9.68q-4.14-1.26-8.24-2.63a69.31,69.31,0,0,0-8.28-2.65c-5.28-1.07-10.81-.52-16-2-3.19-.91-5.43,4-2.31,5.48a8.58,8.58,0,0,0,4.44,1.17c2.3-.17,4.32-3.34,2.12-5.12a7.36,7.36,0,0,0-5.05-1.64c-2.53,0-4,3.32-2.12,5.12,2.22,2.08,4.81,2.57,7.76,2.57l-1.51-.41c14.73,8.68,31.08,14.13,47.82,17.4,8.34,1.62,16.79,2.75,25.24,3.6,4.31.44,8.62.79,12.94,1.1,2.07.15,4.09.36,6.14.62s4,.11,5.92.51,3.54,1.91,5.27,2.9a58,58,0,0,0,6.71,3.2c4.48,1.85,9.13,3.28,13.67,5l-1.79-4.4c-.48.65-1.62.76-2.36.87-1.49.21-3,.4-4.47.63a46,46,0,0,1-5.12.26q-3.21.13-6.42.21c-8,.19-15.93.12-23.88-.42-15.26-1-30.06-4.58-45-7.78-27.88-6-55.89-12.63-81.3-26C183,584.7,161.51,563.54,143.7,540.64a249.6,249.6,0,0,1-40.56-75.91A228.57,228.57,0,0,1,93.2,375q.47-5.47,1.19-10.92c.21-1.61-1.53-3-3-3a3.07,3.07,0,0,0-3,3Z"/><path class="cls-3" d="M183.69,487.22C173.56,480,170.6,465.75,169.86,454c-1.11-17.7,1.62-35.33,5-52.65.94-4.86,1.85-9.74,2.91-14.59s1.93-9.66-.2-14.45c-.77-1.73-3.52-1.94-4.71-.61s-2.63,3-2.64,4.85a3.36,3.36,0,0,0,3.45,3.39c3.33-.09,5.21-4,4.2-6.92a3,3,0,0,0-5.78,0c-.38,1.16-.76,2.31-1.17,3.46-.22.61-.45,1.23-.68,1.84-.14.36-.28.72-.43,1.07,0,.09-.34.83-.14.36a36.19,36.19,0,0,1-4,7.19q-.18.25.06-.06l-.34.42c-.2.24-.41.48-.62.7-.41.45-.85.85-1.3,1.26s.19-.07-.28.22c-.24.14-.47.31-.72.46s-.5.26-.74.39c-.5.28.44-.09-.28.1l-.81.23-.47.09c.35,0,.42-.05.19,0a8.43,8.43,0,0,1-.87,0c-.09,0-1-.08-.63,0s-.56-.12-.66-.14c-.33-.08-.64-.19-1-.29a10.23,10.23,0,0,1-1.75-.85l1.08,1.08a44.21,44.21,0,0,1-6.82-26.37,3,3,0,0,0-3-3,3.06,3.06,0,0,0-3,3,46.74,46.74,0,0,0,2,17.1A53.07,53.07,0,0,0,149,389.1c.62,1.26,1.29,2.5,2,3.7a6.27,6.27,0,0,0,3.27,2.67,12.16,12.16,0,0,0,11.49-.51c3.23-2,5.56-5.22,7.33-8.51a70.4,70.4,0,0,0,4.79-11.86h-5.78c.28.82.07-.22.08.21.09-.49.1-.58,0-.26s-.06.22.13-.25c-.18.24-.41.46.12-.09-.52.54.47-.26.09,0a2.55,2.55,0,0,1,3.31,1.1l.36,1.26c-.1.6-.11.74,0,.42-.2.44-.21.5-.05.19l.28-.44a7.88,7.88,0,0,1,.66-.78l-4.71-.61c1.5,3.39.07,7.5-.63,10.89-.93,4.51-1.81,9-2.69,13.54-1.74,9-3.3,18-4.31,27a157.39,157.39,0,0,0-.89,27,75,75,0,0,0,3.57,19.77c2.55,7.47,6.74,14.22,13.25,18.83a3,3,0,0,0,4.1-1.08,3.06,3.06,0,0,0-1.08-4.1Z"/><path class="cls-3" d="M229.77,561.07a7.62,7.62,0,0,0,.69.38,15.33,15.33,0,0,0,1.45.61,3.28,3.28,0,0,0,2.31-.3,2.42,2.42,0,0,0,.85-.77,2.27,2.27,0,0,0,.53-1l.11-.8a3,3,0,0,0-.41-1.51l-.47-.61a2.94,2.94,0,0,0-1.32-.77l-.36-.14.72.3a9.14,9.14,0,0,1-1.08-.55,3.28,3.28,0,0,0-2.31-.3,2.27,2.27,0,0,0-1,.53,2.42,2.42,0,0,0-.77.85l-.3.71a2.9,2.9,0,0,0,0,1.6l.3.71a3.1,3.1,0,0,0,1.08,1.08Z"/><path class="cls-3" d="M582.3,287.85A206.92,206.92,0,0,0,566,250.93c-1.46-2.58-2.81-5.46-4.91-7.58s-4.6-4.41-7-6.47c-4.68-4-10.11-7.82-16.11-9.25-2.27-.54-5.1,2.19-3.39,4.41C555.22,259,569,290.87,577.72,323.58a311.86,311.86,0,0,1,10,99.52,257.36,257.36,0,0,1-7.51,48,241.29,241.29,0,0,1-8.83,27.26c-2.56,6.56-6,12.84-7.86,19.65-1.28,4.76-2.19,9.73-4.14,14.28a12.11,12.11,0,0,1-2.86,4.47,3.19,3.19,0,0,1-3.52.54c-2.81-1-5.08-3-8-4a23.47,23.47,0,0,0-26.69,10.08c-8.48,13.16-10.86,29.38-15,44.2-1.81,6.48-3.87,17.61-11.46,19.64-5.4,1.45-9.82-4.25-13.44-7.3-4.14-3.49-8.78-5-13.84-2.33-3.28,1.77-5.94,4.7-8.36,7.47a77.5,77.5,0,0,0-7.78,10.59c-2.29,3.76-3.84,7.95-6.21,11.64-1.53,2.39-4.94,5.92-8.08,4.15-4-2.23-5.1-9.28-6-13.24-2.67-12.17-4-26.77-15.76-33.94-6.28-3.82-15.67-4.2-21.82.12-1.9,1.32-4.16,4.45-6.77,3.77-2.81-.74-4.42-4.69-5.61-7-3.63-7.07-8.12-14.37-14.47-19.32-6.62-5.16-14.92-4.15-20.05,2.55-3.84,5-4.86,11.39-6.42,17.35-.67,2.55-2.31,9.8-5.21,9.91-2.06.08-4.73-3.05-6.15-4.48A51.67,51.67,0,0,1,318,576.79c-4.06-7-6.87-14.6-10.49-21.81-3.39-6.75-7.89-14.71-14.71-18.5s-15-2.32-18.59,4.94a31.21,31.21,0,0,0-2.6,10.55c-.33,2.91-.85,6.3-2.78,8.65-2.89,3.52-7.38.57-9.88-1.9-2.66-2.62-4.45-5.85-6.24-9.08-2.36-4.26-4.4-8.63-6.47-13-2.17-4.64-6.82-11.24-12.4-6.69-3.9,3.19-5.69,8.75-8.29,12.93l4.1-1.08c-2.14-.94-2.6-5.56-3.12-7.54-.9-3.47-1.64-7-2.26-10.53-1.19-6.82-1.92-13.71-2.59-20.6-1.11-11.39-.35-23.61-4-34.59-1.61-4.85-5.23-10.27-11.2-8.76s-8.14,8.05-10.6,12.94c-1.08,2.14-2.48,4.54-4.73,5.62-2.64,1.26-5-.5-6.85-2.33a25.52,25.52,0,0,1-5.69-9c-3-7.85-3.19-16.51-2.69-24.8A204.46,204.46,0,0,1,180.14,414c1.7-8.4,3.7-16.74,5.11-25.19,1.11-6.68,2.63-15.33-1.43-21.34-2.67-4-7.85-4.85-12-2.75-4,2-5.26,6.42-8.24,9.4a3.29,3.29,0,0,1-1.63,1.07c-.45.1-.42.08-.72-.27-.83-1-1.07-3-1.19-4.4-.56-6.38.57-13,1.68-19.22a3.05,3.05,0,0,0-2.89-3.79,20.15,20.15,0,0,1-2.19-.42,3,3,0,0,0-2.92.77c-2.82,3-5.39,6.24-8,9.46a6.45,6.45,0,0,0-1.65,5c0,2.18.18,4.37.4,6.55a89.48,89.48,0,0,0,2.26,13.1c.93,3.67,1.9,7.71,4.36,10.69,4.57,5.51,13.23,4.88,18.13.14s3.77-12,7.85-16.92l-5-1.32c.78,2.38.19,5.11-.07,7.56-.29,2.69-.63,5.39-1,8.07-.75,5.28-1.63,10.54-2.49,15.81-1.73,10.56-3.43,21.17-4.05,31.88s-.09,21.37,2.63,31.67c2.43,9.21,6.41,20,15.86,23.92a19.55,19.55,0,0,0,15.84-.18c4.44-2.15,7.23-6.37,10.44-9.93l-5.12-2.12c1,8.22,1,16.52,2,24.75a153,153,0,0,0,4.74,24.28c2,7.1,4.46,14.49,8.59,20.68,3.1,4.65,8.81,11.48,15,11.54,4.51.05,5.73-3.88,5.7-7.67q-.08-7.38-.19-14.76h-6c.25,8.14,5.94,15.92,11,21.87,5.81,6.84,13.55,13.73,22.45,16a16.61,16.61,0,0,0,11.77-.91c6.2-3.16,8.06-9.22,7.06-15.71-.37-2.4-2.77-13.49,2.65-9,2.3,1.91,3.48,5,4.73,7.65.93,2,1.86,3.94,2.81,5.9,4.27,8.81,8.94,17.49,15,25.22,5.6,7.14,13.07,14,22.31,15.68,4,.72,8.88,1,12.34-1.53s4.43-6.89,4.87-10.93.08-8.07.78-12c.82-4.57,5.69-9.5,9.71-4.94,4.62,5.23,6.72,12.68,9.55,18.92,2.37,5.22,7.13,15.57,14.64,11.36,2.48-1.38,3.64-4.13,6.29-5.28a13.56,13.56,0,0,1,8.6-.56c6.92,1.81,9.85,9,8.26,15.61l2.89-2.2-8.16,0c-2.41,0-4.65-.53-7-.72-5.75-.45-11.36.35-17.09-.72-2.55-.48-5.12-.56-7.69-.89-3-.38-6-1.08-9-1.46-1.21-.15-2.48,0-3.68-.26s-2.29-.85-3.47-1.16a37.06,37.06,0,0,0-8.39-1,54.56,54.56,0,0,0-7.12,0c-2.62.27-5.14,1-7.8.86-2.42-.13-4.81-.69-7.23-.83-2.87-.16-5.65-.2-8.52-.58a36.49,36.49,0,0,1-7-1.43c-2.59-.88-5.25-1.48-7.89-2.19-5.07-1.38-10-2.8-15-4.63a71.56,71.56,0,0,0-17-4.25c-6.13-.68-12.14-2.51-18.31-2.67-2.84-.07-4.27,4.31-1.51,5.59,3.72,1.73,7.75,2.8,11.39,4.71s6.45,5.09,10.19,7a77.53,77.53,0,0,0,11.48,4.52c4.53,1.45,9.2,1.52,13.83,2.39,5,.93,9.88,2.4,14.92,3.17a112.71,112.71,0,0,0,14.67,1.38c4.86.09,9.71-.11,14.57,0,4.42.13,8.34,1.7,12.62,2.64,2.26.5,4.54.92,6.75,1.64s4,2.06,6,3.28a27.43,27.43,0,0,0,6.71,2.62c2.34.68,4.4,1.71,6.9,1.51l-2.89-2.2.3,1.91,2.09-3.69c-33.87,5.53-67.84-1.53-101.15-7.33a70.59,70.59,0,0,1-11.82-2.82c-3.79-1.36-7.62-2.62-11.46-3.84-7.46-2.37-15-4.6-22.34-7.22-14.08-5-26.63-12.27-38.7-21A248.61,248.61,0,0,1,136,528.2a243.34,243.34,0,0,1-35.16-74.67q-2.7-9.91-4.48-20c-1.29-7.33-1.39-14.86-2.91-22.14A40.85,40.85,0,0,1,92.21,406a57.2,57.2,0,0,1,0-6c.11-4.58.31-9.16.63-13.73q.47-6.5,1.28-13c.49-3.91,2.22-8.64.64-12.33-.8-1.86-1.48-3.76-2.11-5.69-.7-2.1-1.86-2.76-3.43-4.21a3,3,0,0,0-4.71.61,8.85,8.85,0,0,0-1.82,5c-.28,2.41-.54,4.83-.84,7.24-.57,4.61-1.64,9.07-2.43,13.63-.72,4.18-.35,8.59-.35,12.82,0,4.7.18,9.33.53,14,.31,4.22-.06,8.53.68,12.7.37,2,.35,4.07.73,6.1.44,2.39,1,4.77,1.4,7.16,1.62,8.93,2.87,17.92,4.75,26.8,3.79,17.9,11.3,34.72,20.15,50.66,4.34,7.83,9.07,15.46,14.11,22.85,2.53,3.71,5.31,7.23,8.14,10.7a105.12,105.12,0,0,0,8,9.24c3.1,3,6.42,5.67,9.39,8.84,3.14,3.35,6.42,6.53,9.75,9.69s6.44,6.38,9.75,9.48,7,5.91,10.52,8.78,7.29,5.17,10.57,8.15a73.17,73.17,0,0,0,9.37,7.64,169.46,169.46,0,0,0,23,12.21c15.93,7.12,32.66,12.17,49.49,16.67,8.61,2.31,17.26,4.48,25.87,6.76,8.31,2.2,16.51,4.79,25,6.08,17.3,2.61,34.83,1.77,52.22.77,9-.51,18-.76,26.87-2a50.86,50.86,0,0,0,9.77-2.22c2.72-.93,6.1-2.53,9-2.26,1.4.13,2.2,1,3.16,2a26,26,0,0,0,4.45,3.93,15.7,15.7,0,0,0,10.72,2.52c3.84-.51,7.79-2.38,11.15-4.25a28.93,28.93,0,0,0,8.82-7.46C461,630.29,463,623.16,467,617.16c1.08-1.62,3-4.7,5.19-4.61,1.84.07,3.83,1.86,5.24,2.89,4.18,3.07,8.65,6.69,14.17,6.41,7.61-.39,14.15-5.91,18.49-11.75,4.92-6.62,8.1-14.46,10.2-22.4,2.19-8.34,3.39-16.93,6.18-25.11A40.14,40.14,0,0,1,532.25,551c2-2.58,5.72-6.46,9.36-5.15s6.13,5.93,9.23,8.32c4.35,3.36,9.15,2.47,13.14-1,6.21-5.45,7.69-13.65,10.3-21.09,5.74-16.37,14.4-31.66,18.14-48.72a396.9,396.9,0,0,0,8-56.58,377.16,377.16,0,0,0-.44-57.24c-.78-9.62-1.87-19.21-3.19-28.78-1.27-9.26-2.71-18.35-5.54-27.28-2.74-8.63-6.15-17-9-25.63-1.2-3.65-7-2.08-5.78,1.6,2.83,8.59,6.25,17,9,25.62s4.21,17.7,5.47,26.79a443.32,443.32,0,0,1,4.35,55.79,372.23,372.23,0,0,1-3.71,56.11c-1.3,9.22-2.92,18.41-4.88,27.51a137.65,137.65,0,0,1-7.88,23.9c-3.27,7.86-6.83,15.59-9.75,23.59-2.5,6.86-3.61,15.93-9.86,20.59-3.53,2.63-5.93-.85-8.34-3.46-3.54-3.82-7.69-7.3-13.28-5.95-7.6,1.83-12.35,9.8-15.17,16.46-3.33,7.84-4.86,16.22-6.71,24.5-1.79,8-4.21,15.92-8.62,23-3.32,5.28-9.64,12.71-16.72,12-4.72-.48-8.42-4.8-12.25-7.19-4.64-2.88-9.22-2.63-13.08,1.37-5,5.17-7.19,12.11-10.61,18.26A27.64,27.64,0,0,1,437,641.58c-3.94,1-7.59-.62-10.34-3.43-2.31-2.36-4.42-4.59-7.89-4.84-6-.43-11.49,3.11-17.23,4.1-8.84,1.53-17.86,1.69-26.79,2.21-8.43.48-16.87,1-25.31,1.07a179.09,179.09,0,0,1-25.68-1.25c-8.26-1.09-16.16-3.48-24.18-5.62-16.62-4.45-33.37-8.42-49.78-13.57A224.64,224.64,0,0,1,203,599.9a50.29,50.29,0,0,1-9.81-7.27c-3-2.88-6.37-5.13-9.64-7.63a230.45,230.45,0,0,1-20-17.68c-3.26-3.14-6.62-6.19-9.76-9.45a112.48,112.48,0,0,0-8.89-8.85c-6.39-5.29-11.73-12.32-16.57-19a252.33,252.33,0,0,1-25.8-45.38,144.23,144.23,0,0,1-8.73-25.71c-2-8.68-3.3-17.5-4.81-26.28-.75-4.38-2-8.82-2.22-13.25-.1-1.89-.64-3.69-.74-5.58-.13-2.3,0-4.61-.14-6.91-.23-4.53-.7-9-.7-13.55,0-4.39-.34-8.94.06-13.31.35-4,1.62-7.92,2.18-11.88.63-4.43,1.09-8.88,1.61-13.33l-.88,2.12c.58-.71,1.14-1.43,1.66-2.19l-4.71.61a31.58,31.58,0,0,0,3,2.43L86.62,356a75.17,75.17,0,0,0,3.4,9l-.3-2.31a253.76,253.76,0,0,0-3,25.64c-.28,4.42-.45,8.85-.54,13.28a43.92,43.92,0,0,0,1.34,11c.89,4,1,8.11,1.45,12.17.38,3.49.94,7,1.55,10.41q1.78,10.11,4.49,20a248.25,248.25,0,0,0,34.85,74.8,258.41,258.41,0,0,0,56.56,59.55c11.61,8.83,23.83,16.74,37.39,22.21,7.27,2.93,14.73,5.3,22.2,7.63s14.74,5.06,22.18,7.29c4,1.19,8.21,1.62,12.28,2.34L293,631.15c8.39,1.48,16.79,2.89,25.24,4,16.57,2.24,33.31,3.4,50,2,4.26-.36,8.52-.88,12.75-1.57,1.72-.28,2.32-2.23,2.09-3.69l-.3-1.91a3,3,0,0,0-2.89-2.2c-1.89.15-3.53-.78-5.3-1.29a21,21,0,0,1-6-2.45,31.58,31.58,0,0,0-11.1-4.58c-4.1-.9-8.16-2.46-12.3-3a86.43,86.43,0,0,0-13.56-.43,114.12,114.12,0,0,1-29-3.33c-4.67-1.11-9.4-1.38-14.09-2.27a58.46,58.46,0,0,1-11.86-3.91,30.36,30.36,0,0,1-6.14-3.39,64,64,0,0,0-5.3-4.1c-3.89-2.3-8.34-3.39-12.42-5.28l-1.51,5.59c5.31.14,10.42,1.79,15.68,2.4a74.59,74.59,0,0,1,15.74,3.49c5,1.7,9.9,3.45,15,4.83,2.49.67,5,1.27,7.48,2s5,1.81,7.66,2.11c2.44.29,4.92.7,7.37.84,2.84.16,5.65.06,8.48.48a26.25,26.25,0,0,0,7,.28,60.22,60.22,0,0,1,7.82-.79,63.92,63.92,0,0,1,7.58.37c2.56.36,4.87,1.54,7.39,1.88s5.29.49,7.95.94c2.88.49,5.74.83,8.64,1.11,3.25.32,6.39,1.12,9.67,1.27,2.94.14,5.89,0,8.84,0s5.56.69,8.39.77c3.19.09,6.41,0,9.6,0a3,3,0,0,0,2.89-2.2c3-12.32-5.68-24.63-18.9-23.57a18.91,18.91,0,0,0-7.18,1.94,13.45,13.45,0,0,0-2.95,2.08c-.72.67-1.89,2.78-2.92,3-2.32.49-4.6-5.38-5.38-7-1.48-3-2.72-6.12-4.05-9.19-2.29-5.32-5-12.43-10.28-15.55-5.45-3.26-11.46-.12-14.76,4.62-2.43,3.49-2.64,7.78-2.81,11.9-.15,3.68.22,8.2-1.53,11.56-1.64,3.17-6,2.65-9,2a26.16,26.16,0,0,1-11.56-6c-7.46-6.38-12.74-15-17.33-23.58-2.17-4.06-4.18-8.2-6.15-12.36-2.26-4.74-4.41-10.35-9.41-12.81s-10.06.47-10.9,5.9c-.87,5.62,3.72,13.42-.79,18-7.23,7.36-19.16-2.09-24.57-7.23a60.4,60.4,0,0,1-9.85-12c-2-3.2-4.17-7.12-4.28-10.84s-6-3.87-6,0q.09,6.88.17,13.77a12.66,12.66,0,0,1,0,2.75c.12-.09-1-.58-1.32-.72a18.4,18.4,0,0,1-3.82-2.8c-5.81-5.34-8.71-12.92-11.09-20.26a140.25,140.25,0,0,1-5.62-25.39c-1.12-8.69-1.1-17.47-2.16-26.17-.28-2.34-3.2-4.25-5.12-2.12-2.52,2.79-4.71,6.26-8,8.29-3.7,2.3-8.73,2.11-12.56.2-4.13-2.07-6.55-6.08-8.35-10.18a68,68,0,0,1-4.35-14.3c-3.78-19.26-.15-39.18,3-58.27.88-5.37,1.75-10.75,2.47-16.15.65-4.89,2.23-10.93.65-15.75-.64-2-3.48-3.16-5-1.32-3.44,4.12-3.84,9.07-5.86,13.83-1.88,4.45-8.6,7.69-11.8,2.62-1.66-2.64-2.3-6.15-3-9.14a77.1,77.1,0,0,1-1.74-10.55c-.16-1.71-.27-3.43-.33-5.15-.07-2,0-1.83,1.34-3.53,2.09-2.59,4.19-5.2,6.47-7.62l-2.92.77a28.84,28.84,0,0,0,3.79.64l-2.89-3.8a100.07,100.07,0,0,0-2,18.25c0,3.67.3,8.22,2.94,11.07s6.89,2.65,9.83.32a19.23,19.23,0,0,0,3.77-4.41c1-1.49,2-3.53,3.55-4.57,7.39-5,6.39,10.49,6,13.73-1.08,8.11-3,16.1-4.72,24.1-3.73,17.8-8.15,37.47-3.81,55.56,1.83,7.65,6.57,17.78,14.69,20.44,5.52,1.81,10.41-1.42,13.47-5.85,1.66-2.4,6-15.87,10.36-12.15,2.1,1.79,2.68,5.86,3.21,8.41a78.15,78.15,0,0,1,1.28,9.87c.5,6.69.78,13.38,1.45,20.05.76,7.75,1.63,15.5,3.09,23.14a117.54,117.54,0,0,0,2.75,11.44c.88,3,1.84,6.44,5,7.81a3.08,3.08,0,0,0,4.1-1.08c1.53-2.46,2.8-5,4.24-7.57a20.36,20.36,0,0,1,1.85-2.9c.3-.36.7-.65,1-1s.34.06-.06,0c-.55-.09,0-.09.12.13.15.39.85.93,1.1,1.29a31.87,31.87,0,0,1,2.9,5.63c2,4.42,4.22,8.72,6.61,12.94,3.08,5.4,7.09,11,13.18,13.19a10.54,10.54,0,0,0,12.71-4.38c3.9-6,2-13.65,5.52-19.63,2-3.41,5.78-3.87,9.2-2.25,3.59,1.7,6.24,5.16,8.42,8.37,4.57,6.69,7.55,14.28,10.94,21.59,3.56,7.67,7.8,14.87,13.89,20.83,3.87,3.78,9.38,8,14.55,3.8,3.7-3,5.14-8.31,6.28-12.73,1.48-5.72,2.24-13,7.13-17,7.59-6.12,15.5,5.8,19,11.31,3.31,5.16,5.46,13.34,11.52,16a9.19,9.19,0,0,0,9.11-.88c2.94-2.05,4.9-4.25,8.6-4.94,16.45-3.09,20.83,16,23,28.12,1.7,9.2,6.39,28,19.81,20.62,3.75-2,6.07-5.74,7.9-9.47a92.42,92.42,0,0,1,6.49-11.52,61.85,61.85,0,0,1,8.6-10.16c1.61-1.5,3.88-3.46,6.27-3,1.94.35,3.58,2,5,3.3a54.42,54.42,0,0,0,6.12,5.12c6.22,4.17,13.89,3.55,19-2.16s7.1-14.46,9.05-21.81c2.05-7.72,3.8-15.52,6.19-23.14,2.13-6.78,4.74-14.76,9.74-20a17.45,17.45,0,0,1,18.3-4.11c2.73,1,4.89,3.08,7.75,3.85a9.24,9.24,0,0,0,6.6-.56c4.09-2,6.09-6.73,7.51-10.79,1.61-4.64,2.51-9.48,3.92-14.18a76.44,76.44,0,0,1,3.5-8.46q2.85-6.6,5.37-13.36a244.5,244.5,0,0,0,12.71-50.61,308.77,308.77,0,0,0-2.73-100.22c-6.1-32.51-17.13-64.39-33.66-93.11A207.64,207.64,0,0,0,539.69,229l-3.39,4.41c5.4,1.28,10.36,5,14.51,8.6a56.81,56.81,0,0,1,6.26,5.85c1.89,2.23,3.21,5.19,4.62,7.74a197.77,197.77,0,0,1,14.83,33.84C577.72,293.1,583.52,291.53,582.3,287.85Z"/><path class="cls-3" d="M481.48,473.21c.1,7.27,2,15.42,6.42,21.31a11.95,11.95,0,0,0,17.83,2.68c2.76-2.09,4.68-5,6.54-7.85a84.26,84.26,0,0,0,5-8.9,104,104,0,0,0,7.14-19.65,122.86,122.86,0,0,0,3.43-20.89,135.26,135.26,0,0,0-.63-23.55c-.73-7.73-.52-15.52-1.53-23.23a115.91,115.91,0,0,0-5.48-22.64c-4.57-13.21-11.62-26.1-22.46-35.2a51.3,51.3,0,0,0-16.8-9.56,53.68,53.68,0,0,0-20.62-2.28c-14.25,1-28.25,5.82-40.56,13-3.18,1.84-6.55,3.38-9.6,5.44s-5.9,4-8.8,6.06a145,145,0,0,0-15.77,13,180.47,180.47,0,0,0-25.85,31.17,125.07,125.07,0,0,0-17.39,37.77,110.17,110.17,0,0,0-2.84,41.92,83.38,83.38,0,0,0,2,10.29c.22.82.45,1.64.71,2.45.11.37.22.74.35,1.11.06.18.64,1.86.29.85a49.66,49.66,0,0,0,2.18,5.28c2.79,5.77,7.48,11.22,14.15,12.21s12.36-2.71,17.3-6.54c2.32-1.79,4.52-3.72,6.8-5.56.54-.43,1.59-1.48,2.2-1.47,1.15,0,1.92,1.49,2.33,2.4,1.29,2.87,1.38,6.2,1.46,9.3a50.92,50.92,0,0,0,.93,10.6,18.37,18.37,0,0,0,11.69,13c5.14,2,11.44,1.5,15.95-1.77,5.08-3.69,6.07-10,8.44-15.16a7.18,7.18,0,0,1,2-3s.92-.32.27-.19c.12,0,.87.31.2,0a5.83,5.83,0,0,1,.87.51c-.54-.37.14.15.2.22s.39.39.58.6c.61.68-.3-.45.25.31.12.16.23.33.34.49a22,22,0,0,1,1.88,3.56c-.21-.5.16.41.16.41.11.27.21.55.31.82.18.51.36,1,.52,1.53a40.26,40.26,0,0,1,1,4.06c.74,3.58,1,7.22,1.43,10.85.46,4,1.05,8,1.8,11.91A49.58,49.58,0,0,0,441,551.64a16.23,16.23,0,0,0,14,9.78c14,1.07,22.19-13.61,25.41-25.2,3.47-12.49,2.73-25.66,2.28-38.46a190.55,190.55,0,0,1,0-19.27,71,71,0,0,1,1.1-8.89c.25-1.28.61-2.53.9-3.79.15-.62-.3.6-.05.14l.07-.1a2.39,2.39,0,0,1-1.49,1.11,3.69,3.69,0,0,1-2.57-.63c-.64-.63-.37-.51-.2-.16-.48-1,0,0,.05.28s.18.75.26,1.12c.17.78.28,1.57.41,2.35s-.08-.68,0,.06c0,.21.06.42.08.63l.12,1.12c0,.49.09,1,.1,1.48.06,3.86,6.06,3.87,6,0a37.08,37.08,0,0,0-.46-4.45,23.09,23.09,0,0,0-.92-4.52,4.74,4.74,0,0,0-1.86-2.68,3.35,3.35,0,0,0-4.05.45c-1.6,1.53-1.87,4.33-2.25,6.37-2.34,12.51-1.3,25.27-.95,37.9.32,12,.2,24.63-5,35.7-2.39,5.07-6.07,10.82-11.28,12.67a14.33,14.33,0,0,1-1.91.55,6.78,6.78,0,0,1-1.48.23,14.6,14.6,0,0,1-1.62,0,7.42,7.42,0,0,1-1.76-.2,9.91,9.91,0,0,1-2.88-1,8.54,8.54,0,0,1-2.71-2.1c-1.86-2-2.82-5.41-3.47-8.31-.82-3.61-1.47-7.26-2-10.92-1-6.84-1.12-13.91-3.22-20.55-1.39-4.4-3.6-10.07-8.09-12.13-3.65-1.68-7.1.12-9.24,3.24-1.63,2.37-2.49,5.28-3.45,8-.84,2.36-1.74,4.89-3.39,6.6a8.56,8.56,0,0,1-2.63,1.85,13,13,0,0,1-3.19.89c.57-.08-.46,0-.46,0-.31,0-.63,0-.94,0a14,14,0,0,1-1.58-.09c.57.07-.45-.08-.45-.08l-.93-.2a15.76,15.76,0,0,1-2.11-.69c.13.05.39.18-.16-.08-.29-.13-.57-.28-.85-.43a16.78,16.78,0,0,1-1.62-1,15.36,15.36,0,0,1-2.4-2.32c.31.39-.3-.44-.28-.41-.18-.26-.35-.53-.51-.8s-.44-.8-.62-1.22a17.63,17.63,0,0,1-1.2-5c-.34-3.28-.18-6.59-.44-9.87-.27-3.49-.89-7.28-2.88-10.24-2.13-3.19-6.05-5.06-9.72-3.29-2.51,1.21-4.73,3.53-6.87,5.31a59.3,59.3,0,0,1-6.88,5.12,15.75,15.75,0,0,1-6.93,2.59,9.79,9.79,0,0,1-6.86-2.64,21.59,21.59,0,0,1-4.76-6.79c-.67-1.38-1.16-2.81-1.71-4.24l-.3-.71c.2.4.2.34,0-.19-.07-.29-.19-.59-.28-.88-.31-1-.6-2.08-.86-3.13a85.08,85.08,0,0,1-2.37-19.2,109.43,109.43,0,0,1,6.85-39.72c4.6-12.47,11.74-23.82,19.66-34.44A158.51,158.51,0,0,1,398,357.94a180.63,180.63,0,0,1,16.33-11.67,42.84,42.84,0,0,1,4.33-2.33c1.62-.81,3.14-1.8,4.72-2.69,3.12-1.77,6.36-3.37,9.64-4.82,11.81-5.22,25.49-8.4,38.44-6.76,12.34,1.57,22.88,9,30.42,18.58,8.75,11.15,13.71,24.95,16.63,38.68,1.56,7.35,1.89,14.69,2.22,22.17s1.43,15.09,1.42,22.7a109.92,109.92,0,0,1-7.62,40.07,82.45,82.45,0,0,1-9.33,17.26c-1.5,2.13-3.44,4.07-5.92,4.73a5.31,5.31,0,0,1-2.93,0,7.5,7.5,0,0,1-3.21-2.32,22.85,22.85,0,0,1-4.06-8.22,35.55,35.55,0,0,1-1.59-10.08C487.43,469.35,481.43,469.34,481.48,473.21Z"/><path class="cls-3" d="M395.24,483.38c-1.15-1.24-1.86-2.85-3.07-4.06a9.14,9.14,0,0,0-5-2.52c-4.16-.67-7.88,1.13-11.06,3.67-2,1.59-3.78,3.44-5.62,5.21a27.26,27.26,0,0,1-5.78,4.66l-.7.37c-.49.27.31-.06-.21.09l-.7.23c-.3.07-1,.12-.36.1-.23,0-.47,0-.69,0-.5.06.37.16-.12,0-.26-.08-.52-.13-.79-.22l.16.06-.44-.24c-.14-.09-.63-.46-.27-.17-.23-.19-.44-.39-.65-.6a7.76,7.76,0,0,1-1.22-1.61,23.24,23.24,0,0,1-2.1-4.42c-2.42-6.78-2.86-14.13-3.19-21.26a97.93,97.93,0,0,1,1.66-24.29,79.66,79.66,0,0,1,7.43-20.79c6.76-13,16.36-24.29,26.39-34.91,10.27-10.88,20.89-21.79,33.21-30.38A87,87,0,0,1,442,341.68a53,53,0,0,1,10.13-2.81,14.66,14.66,0,0,1,2.29-.13,5.51,5.51,0,0,1,1.87.29,4.23,4.23,0,0,1,1.41.69A7,7,0,0,1,459,341c2,2.77,2.82,6.33,3.66,9.6.92,3.57,1.93,7.12,2.85,10.7,1.87,7.28,3.55,14.62,4.73,22.06,2.31,14.61,2.6,29.92-2.14,44.1a50.64,50.64,0,0,1-11.26,18.6,110.13,110.13,0,0,1-17.1,14.8,207.85,207.85,0,0,1-20.25,12.46c-3.68,2-7.41,4-11.14,5.91-2.61,1.35-5,3.09-7.69,4.29a10.76,10.76,0,0,1-3,.81c-.14,0-.88,0-.41,0a4.53,4.53,0,0,1-.88-.22c-.61-.2-.24-.1-.14-.05a3.38,3.38,0,0,1-.41-.24,3.75,3.75,0,0,1-.6-.5c-2.78-2.68-7,1.55-4.24,4.24,5.75,5.55,12.84,1.2,18.44-2.11,3.42-2,7.05-3.71,10.54-5.59,3.81-2.05,7.59-4.16,11.3-6.39a159.21,159.21,0,0,0,20-14,83.89,83.89,0,0,0,16.57-17.71c8.81-13.25,10.74-30.52,9.76-46a164.53,164.53,0,0,0-3.44-23.88c-1.61-7.57-3.71-15-5.63-22.49-1-3.74-1.93-7.63-4-10.92a11.9,11.9,0,0,0-9.4-5.73c-3.61-.3-7.39.79-10.82,1.82a82.62,82.62,0,0,0-11.69,4.58c-14.44,6.9-26.69,17.74-37.92,28.95-11,11-21.91,22.44-30.69,35.35a102.93,102.93,0,0,0-10.85,20.34,86.75,86.75,0,0,0-5.5,24.73,125.75,125.75,0,0,0,.55,24.38,58.39,58.39,0,0,0,2.31,11.64c1.13,3.49,2.71,7.27,5.4,9.86A9.08,9.08,0,0,0,364,497c2.75-.48,5.15-2.22,7.28-3.94s4.18-3.83,6.23-5.78c.92-.88,1.85-1.74,2.84-2.53.27-.22-.07.06-.11.08l.7-.5c.36-.24.72-.47,1.1-.68a7.47,7.47,0,0,1,2.46-.92,3.92,3.92,0,0,1,3.27.74c1.3,1.13,2,2.92,3.22,4.19C393.63,490.45,397.87,486.2,395.24,483.38Z"/><path class="cls-3" d="M475,460.05c-4.59,11.9-5.33,24.8-5.69,37.42-.16,6-.18,12.09-.36,18.13a71.85,71.85,0,0,1-2.21,17.4c-1.3,4.64-3.69,10.66-8,12.54a11.15,11.15,0,0,1-1.49.46c-.09,0-.6.11-.09,0a6.35,6.35,0,0,1-.87.05c-.19,0-.37,0-.56,0,.57,0,0,0-.17,0l-.66-.18c-.68-.17.3.24-.3-.12-.24-.15-.48-.28-.71-.43.1.07.38.34-.06-.06-.18-.16-.35-.33-.52-.5s-.46-.57-.19-.2a6.41,6.41,0,0,1-1.22-2.78c-2.84-11.53-3-23.57-6.43-35-1.64-5.42-3.75-11.69-8.47-15.19s-10.33-2.32-14.56,1.13-6.09,8.74-8,13.67a22,22,0,0,1-3,6,7.16,7.16,0,0,1-2.56,2.12,5.52,5.52,0,0,1-2.6.47,6.51,6.51,0,0,1-4.51-3,11.17,11.17,0,0,1-1.55-7.09,22.23,22.23,0,0,1,.53-3.82c0-.07.24-.85.16-.75.35-.45,1.45-.68,1.92-.86,3.08-1.18,6.12-2.44,9.15-3.76a187.9,187.9,0,0,0,26.86-14.23c17-10.94,32.61-25.27,41.85-43.51a78.5,78.5,0,0,0,8.61-32.9c.43-13-2.38-25.95-6.35-38.29a154.87,154.87,0,0,0-5.71-15.93c-.65-1.45-1.33-2.89-2-4.34-.19-.43-.38-.85-.56-1.28-.36-.84.12.3-.09-.2l-.27-.66c-.37-.92-.72-1.83-1-2.76-.26-.78-.5-1.56-.68-2.35-.09-.37-.16-.74-.23-1.12.17.88,0-.35,0-.59-.05-.79-.23.51,0-.17.16-.44-.15.32-.16.32.23-.36-.05-.34-.17.18,0-.09.18-.1.51-.17a6.6,6.6,0,0,1,1.57,0c4.47.37,9.08,2.69,12.71,5.47,8.45,6.48,14.2,16.42,18.58,25.94A116.8,116.8,0,0,1,515,403.15a175.25,175.25,0,0,1,.5,35.55,137.57,137.57,0,0,1-7,35.14c-1.46,4.11-3.56,9.87-8,11.33-1.92.64-3.68.6-4.68-1.2-1.24-2.24-1.35-5.45-1.7-8-.44-3.13-.78-6.28-1.11-9.43s-.49-6.58-1.09-9.79c-.87-4.62-5.05-9.63-10.15-7-3.71,1.92-5.34,6.64-6.75,10.27a3,3,0,0,0,2.09,3.69,3.07,3.07,0,0,0,3.69-2.09l.41-1,.3-.74c-.19.46,0,0,0-.08a24.77,24.77,0,0,1,1.56-3c.16-.26.32-.52.5-.76-.25.35,0,0,.08-.09s1-1.06.57-.63c.4-.37.5,0,.15-.15.28.1.19-.07-.12,0h.29c.37,0,.37,0,0,0,.29.09.33.1.13,0s-.17,0,.1.09l-.19-.15c.13.12.26.25.38.38-.08-.08-.31-.46,0,0,.11.15.68,1.25.49.8a9,9,0,0,1,.43,1.33c.07.25.11.51.17.77.2.83-.1-1.11.05.39.36,3.41.72,6.83,1.09,10.24s.81,7,1.34,10.53c.44,2.92.85,6,2.67,8.42,4,5.35,11.54,4,15.94,0s6.37-10.24,8.12-15.75a129.57,129.57,0,0,0,4.25-18,193,193,0,0,0,2.45-36.88,137.19,137.19,0,0,0-5.92-36.92c-3.54-11.38-8.72-22.58-16-32.06a50.1,50.1,0,0,0-12-11.62,33.15,33.15,0,0,0-7.31-3.61,21.44,21.44,0,0,0-7.9-1.42c-2.6.14-5.47,1.32-6.23,4.05a10.51,10.51,0,0,0,.22,5.25,61.45,61.45,0,0,0,4.28,10.94l.9,2c.17.38.36.93.09.2l.52,1.38q1.77,4.81,3.43,9.67a157.31,157.31,0,0,1,5.4,19.53c2.5,12.48,2.63,25.37-1,37.65-5.73,19.48-19.53,35.59-35.59,47.66A170.83,170.83,0,0,1,418,486.28q-7.6,3.75-15.5,6.85a30.07,30.07,0,0,0-4.35,1.78,6.85,6.85,0,0,0-3.15,4.16,24.47,24.47,0,0,0-.64,10c.77,5.37,4.69,10.64,10.26,11.64,6.23,1.13,11.26-3.09,13.79-8.45,2.12-4.5,3.21-9.93,6.5-13.63a11,11,0,0,1,2.68-2.26,6.79,6.79,0,0,1,2.6-.93,5,5,0,0,1,2.27.38,6.69,6.69,0,0,1,2.4,1.88c1.61,1.83,2.69,4.61,3.58,7a71.2,71.2,0,0,1,2.55,8.71c1.36,6,2.12,12.07,3,18.13.44,3,.92,6.07,1.52,9.08.56,2.84,1.22,5.51,3.06,7.81,3.3,4.1,8.89,4.51,13.36,2.2,5.55-2.88,8.42-9.05,10.2-14.74a71.72,71.72,0,0,0,2.74-18.49c.51-12.6,0-25.27,1.55-37.82a75.08,75.08,0,0,1,4.34-17.91,3,3,0,0,0-2.09-3.69A3.05,3.05,0,0,0,475,460.05Z"/><path class="cls-3" d="M275.48,572.17c-.34.11-.68.21-1,.3s-1.26.21-.47.12a14,14,0,0,1-2.42.07c-.2,0-1.38-.15-.56,0-.38,0-.77-.12-1.15-.2a22.6,22.6,0,0,1-2.56-.72c-.4-.14-.79-.3-1.18-.45-.77-.3.35.16-.12,0l-.59-.27c-.9-.42-1.77-.88-2.62-1.38s-1.6-1-2.37-1.49c-.4-.27-.79-.55-1.18-.83l-.47-.34-.55-.42a62.35,62.35,0,0,1-8.87-8.55c-.65-.76-1.28-1.52-1.89-2.31s.33.45-.25-.32c-.11-.16-.23-.31-.35-.47-.34-.46-.68-.93-1-1.4a53.62,53.62,0,0,1-3-4.88c-.46-.85-.9-1.71-1.29-2.58-.09-.18-.17-.37-.25-.55.3.66,0,0,0-.15-.16-.41-.32-.83-.47-1.26a21.48,21.48,0,0,1-.66-2.38c0-.13,0-.26-.07-.38-.18-.85,0,.4,0-.12,0-.35-.06-.69-.07-1-.08-3.85-6-3.87-6,0,.05,3.61.09,7.21.14,10.82,0,1.77.1,3.54.06,5.31a4,4,0,0,1-.05.77c-.08,0,.3-.34.31-.37.09-.27.61.29-.18-.09a7.23,7.23,0,0,1-.69-.25,3,3,0,1,0-1.6,5.78c2.24.77,4.93.67,6.64-1.17s1.58-4.24,1.55-6.54l-.18-14.26h-6a24.36,24.36,0,0,0,3,10.13,57.87,57.87,0,0,0,7,10.57c5.54,6.82,12.54,13.1,20.8,16.35,3.86,1.52,8.31,2.14,12.33.81a3.06,3.06,0,0,0,2.09-3.69,3,3,0,0,0-3.69-2.09Z"/><path class="cls-3" d="M554.47,250.92a139.64,139.64,0,0,0-9.7-12.13c-1.95-2.19-4.59-5.77-7.57-6.66a3.31,3.31,0,0,0-3.87,1.47c-.82,1.47-.26,3,.38,4.37,1.18,2.58,2.7,5,3.8,7.61a19.56,19.56,0,0,1,1.4,4.54,4.57,4.57,0,0,1-.31,3.07c-1.34,2.09-5.18,2.1-7.39,1.83-3.53-.43-6-3.4-8.71-5.44a46.39,46.39,0,0,0-9.71-5.42c-4.73-2.06-15.91-6.64-18.3,1-.76,2.45.21,5.11,1,7.42A98.14,98.14,0,0,1,499,264.08c1.47,6.76,2.49,15.06.41,21.79-1,3.33-3,5.4-6.63,5.37a41.2,41.2,0,0,1-27.64-11.31c-3.1-3.05-5.22-6.77-7.84-10.2-1.85-2.42-4.47-4.56-7.71-3.46-3.66,1.23-5.76,6.1-7.23,9.25a61.3,61.3,0,0,0-3.9,11.94c-.71,3-1.34,5.16-4.44,6.52a12.65,12.65,0,0,1-10.92-.67A16.22,16.22,0,0,1,419.6,290c-2-2.3-4-4.67-5.94-7-2.8-3.29-5.58-6.64-8.66-9.67-1.78-1.75-3.86-3.7-6.38-4.24-3.12-.67-5.52,1.46-6.61,4.19-2.45,6.14-1.39,13.34-6,18.64-2.84,3.24-7.65,5.37-12,4.52s-6.49-4.83-8.14-8.39a73.73,73.73,0,0,1-4.67-13.72c-.72-2.93-.95-6.83-3.29-9-2.52-2.36-5.86-1.33-8.17.71-2.79,2.47-4.89,5.49-8.17,7.41-9,5.27-20.62,1.25-28.66-3.95-4.16-2.7-8.09-5.79-12.55-8-3-1.51-7.09-3.56-9.39.12-1.57,2.5-1.73,6.06-2.37,8.86a79.05,79.05,0,0,1-5.18,15c-3,6.53-8,12.27-14.85,14.79-9.4,3.45-18.33-.65-25.45-6.86-1.93-1.69-3.76-4.1-6.06-5.31-3.07-1.62-5.73,1.25-4.84,4.29.76,2.63,2.48,5.12,3.62,7.61a46.35,46.35,0,0,1,3.88,12.87c.52,3.7.59,8.91-.8,11.78a13.83,13.83,0,0,1-8.4,6.86c-4.24,1.3-7.85.36-11.49-1.93-2.26-1.42-5.12-2.67-7.36-.44-2.56,2.55-1.26,7.52-.73,10.54.79,4.52,1.88,9,3,13.44,1,4,2.57,8.49,2.86,12.35a10.28,10.28,0,0,1,0,1.84c.06-.54-.17.67-.24.88a10.49,10.49,0,0,1-3.21,4.32,14,14,0,0,1-7.63,3.21c-8.66.9-16-5.86-22.73-10.25-2.36-1.53-5.9-2.06-7,1.37-.89,2.83.95,6.25,2,8.79.59,1.43,1.21,2.86,1.71,4.33a9.38,9.38,0,0,1,.53,1.88c-.08-.65-.12.89-.15,1.17-.33,2.86-.91,6.08-1.49,9.09-1.49,7.74-3.27,15.42-4.8,23.15-3.08,15.64-6.16,32.65-2.44,48.45,1.56,6.62,4.71,13.18,9.91,17.71,4.15,3.62,9.65,4.69,14.29,1.31,4.38-3.19,5.82-8.13,8.31-12.68.82-1.51,2.28-4.16,4.25-4.42,2.27-.3,3.26,2.88,3.8,4.5a59.73,59.73,0,0,1,2.47,14.11c.86,11,1.44,22,2.9,33a160.24,160.24,0,0,0,3.13,17.27c1.16,4.68,2,10.8,7,12.85a3,3,0,0,0,3.39-1.38c1.61-2.57,2.92-5.3,4.45-7.93a17.13,17.13,0,0,1,1.9-2.84c.14-.15.29-.31.44-.45.7-.65-.24.15.18-.16.12-.09.66-.39.09-.1.45-.23-.35-.08.15,0-.84-.12-.24,0-.09.11a8.34,8.34,0,0,1,1.18,1.4,38.8,38.8,0,0,1,3.06,6c2.09,4.6,4.44,9.08,7,13.46,3.07,5.31,7.63,11.15,14,12.58,6,1.37,10.71-2.44,12.85-7.85,1.39-3.49,1.44-7.18,2.11-10.83.57-3.06,1.55-6.95,4.64-8.41,3.25-1.53,7.19.32,9.63,2.54a41.47,41.47,0,0,1,7.57,9.94c4.29,7.38,7.2,15.44,11.11,23a64.76,64.76,0,0,0,7.16,11.06c2.6,3.21,5.68,6.72,9.28,8.84,11.79,6.94,15.25-11.43,17.2-18.9,1-3.83,2.28-8.08,5.32-10.82,3.31-3,7.17-2.45,10.47.25a45.43,45.43,0,0,1,9,10.71c2,3.06,3.39,6.38,5.23,9.5s4.06,6,7.55,7,6.65-.32,9.42-2.58,5.22-3.74,8.92-3.95a15.14,15.14,0,0,1,11.27,3.8c9.8,9,8.47,23.86,12.6,35.46,1.83,5.17,5.06,11.07,11.27,11.25,10.24.3,13.55-11.63,17.74-18.66a68.53,68.53,0,0,1,8.25-11.13c2.08-2.27,4.74-5.52,8-6a4.49,4.49,0,0,1,1.92.3,12.34,12.34,0,0,1,2.5,1.61c2.05,1.67,3.86,3.6,5.94,5.23a18.75,18.75,0,0,0,8.3,4,14,14,0,0,0,11.94-4.23c3.12-3.09,4.84-7.25,6.27-11.32,1.3-3.71,2.4-7.47,3.41-11.27,2.11-7.95,3.9-16,6.42-23.83a80.52,80.52,0,0,1,4.36-11.13c1.58-3.21,3.38-6.59,6.07-9,4.85-4.37,12.86-5.59,18.7-2.58,2.74,1.4,5,3.24,8.17,3.57a8.92,8.92,0,0,0,6.56-2c3.8-3,5.45-8.3,6.76-12.8.73-2.53,1.34-5.09,2-7.63.27-1,.54-2.08.85-3.12.15-.51.31-1,.48-1.55.08-.23.17-.47.25-.71s.41-1,.16-.46c3.88-9.23,7.88-18.3,11-27.83a182.39,182.39,0,0,0,5.63-20.54,244.84,244.84,0,0,0,4.29-35.29,412.55,412.55,0,0,0-4.51-86.28c-4.22-27.26-11-54.93-23.68-79.58a125.36,125.36,0,0,0-9-14.83c-2.21-3.13-7.42-.14-5.18,3,15.12,21.35,23,47.47,28.35,72.79a405.63,405.63,0,0,1,8.54,86.67,316,316,0,0,1-2.36,38.15,189.59,189.59,0,0,1-9.24,38.26q-2.45,7-5.3,13.85c-1.51,3.64-3.39,7.17-4.69,10.9-1.64,4.73-2.47,9.71-4,14.48a26,26,0,0,1-2.74,6.22,7.27,7.27,0,0,1-1.47,1.69c-.68.57.27-.17-.17.11-.19.12-.38.24-.58.34l-.67.21a4.11,4.11,0,0,1-2.12-.34,23.77,23.77,0,0,1-3.42-2,22.05,22.05,0,0,0-10.6-2.94,23.07,23.07,0,0,0-19.25,9.32c-4.62,6.37-7.41,14-9.68,21.5-2.39,7.85-4.14,15.87-6.31,23.77a111.77,111.77,0,0,1-3.67,11.43c-1.47,3.72-3.83,7.79-8,8.91-5.42,1.48-9.89-4.29-13.52-7.34a14.76,14.76,0,0,0-6.47-3.59,11.29,11.29,0,0,0-8.45,2c-3.63,2.42-6.6,5.88-9.3,9.26a76.87,76.87,0,0,0-7.73,11.67c-2,3.76-3.46,8.66-7,11.3a5.8,5.8,0,0,1-4.31,1.29,3.6,3.6,0,0,1-2.08-1.34c-3.42-3.65-4.45-10.15-5.39-15-1.16-6-2.13-12-4.53-17.75-3.17-7.57-8.87-14.47-17.35-16a22,22,0,0,0-13,1.4,19.21,19.21,0,0,0-4.11,2.76,13,13,0,0,1-2.93,2.19c-2.79,1.16-4.85-2.24-6-4.19-1.84-3.12-3.27-6.44-5.23-9.49-4.38-6.82-11.49-16.92-20.77-16-8.95.87-13.08,9.92-15,17.57-1.16,4.58-1.86,9.64-4.36,13.69a7.26,7.26,0,0,1-.69,1c-.29.32-.67.65-.61.6a1.25,1.25,0,0,1-1.37.34c-3-.77-5.94-4.51-8-6.86-5.67-6.47-9.1-14.38-12.6-22.14s-7.22-15.58-13.06-21.92c-5.39-5.85-15.26-9.44-21.51-2.66a19.35,19.35,0,0,0-4.37,9.9c-.6,3.42-.59,7-1.94,10.26-2,4.75-5.37,5-9.28,2.21a22.81,22.81,0,0,1-6-6.94,140.3,140.3,0,0,1-7-13.22c-2.13-4.56-6.22-15.29-13.23-11-2.14,1.32-3.56,3.67-4.78,5.79-1.48,2.57-2.77,5.23-4.34,7.75l3.39-1.38c-.39-.16-.78-1.64-.91-2-.4-1.21-.75-2.44-1.09-3.67-.81-2.94-1.5-5.91-2.09-8.9-1.13-5.73-1.88-11.51-2.51-17.31-.57-5.25-1.11-10.51-1.41-15.79-.29-4.94-.48-9.89-1.1-14.81-.59-4.72-1.41-9.62-3.51-13.94-2.2-4.52-7.45-7-12.05-4.36s-6.23,7.81-8.46,12.2c-1.89,3.73-5.28,7.8-9.63,4.77-5.14-3.57-7.85-10.17-9.17-16-1.62-7.19-1.49-14.72-.89-22,1.28-15.55,5.28-30.68,8.22-46,.61-3.12,1.15-6.26,1.55-9.42a14.31,14.31,0,0,0-1.14-7.79c-.6-1.5-1.24-3-1.83-4.49-.3-.74-.58-1.49-.82-2.26-.1-.33-.19-.66-.28-1-.17-.64-.17-.36-.07-.3v-.24a1.83,1.83,0,0,1-.61,1.29c-.82.82-1.21.53-2.1.62.36,0-.42-.37-.05,0a3,3,0,0,0,.42.24c1.35.92,2.7,1.85,4.05,2.76,7.61,5.14,15.93,10.49,25.53,8.09,6-1.49,12.38-6.14,13.56-12.51.58-3.14-.18-6.33-.92-9.37-1.2-4.93-2.52-9.83-3.64-14.78-.41-1.81-.8-3.62-1.14-5.44-.23-1.26-.47-2.72-.55-3.44s-.1-1.55-.13-2.34.12-.25,0-.16a2.47,2.47,0,0,0,.15-.57,1.33,1.33,0,0,1-.83,1.1c-.72.29-1.58-.17-.71.34.63.38,1.25.79,1.88,1.18a18.45,18.45,0,0,0,12.56,2.72c7.75-1.14,14.93-6.89,16.34-14.8,1.63-9.2-1-18.7-5-27-.61-1.28-1.26-2.54-1.9-3.81-.21-.42-.42-.85-.62-1.27s-.46-.5,0-.09c-.26-.26.06-.67-.12-.19l0,.28q0-2.25-3.34,2.49l-.49-.2a1.81,1.81,0,0,1,.27.18c-.16.07-.46-.42.07.07.16.16.34.31.5.46,1.07,1,2.11,2,3.19,3,6.77,6.08,15.15,11.08,24.56,10.52,7.66-.46,14.61-4.27,19.82-9.78A38.07,38.07,0,0,0,289.64,286a85.47,85.47,0,0,0,4.86-14.5c.35-1.59.64-3.2,1-4.79.12-.52.26-1,.4-1.55.08-.33,0-.73,0-.21,0-.54.28-.16-.42.23a2.63,2.63,0,0,1-.94.22c.49-.11-.61-.24-.07,0,1.12.52,2.28.92,3.39,1.5a64.77,64.77,0,0,1,6.31,3.89c4,2.74,8,5.63,12.49,7.58a40.18,40.18,0,0,0,14.42,3.39,24.56,24.56,0,0,0,14.46-3.8c3.15-2.09,5.46-4.91,8.15-7.5l.37-.34c.5-.45.26-.14.24-.21s.84.05-.08,0c-.61,0,.14.24-.35-.14.48.37-.23-.19-.26-.32.06.23.29.45.38.68-.11-.29.31,1.2.39,1.53a133,133,0,0,0,3.61,12.8c2.89,8.17,7.12,17.55,17,18.12,9.18.53,16.79-6,19.64-14.33a72.16,72.16,0,0,0,2.15-9.88c.14-.69.28-1.39.47-2.06.05-.21.49-1.44.29-1,.28-.69.52-.69.1-.4.49-.33-.66.28-.05,0-.91.4-.28-.35-.08.05s-.4-.22.07,0a9.73,9.73,0,0,1,1.1.7,38.36,38.36,0,0,1,2.92,2.74c3.23,3.33,6.2,6.92,9.21,10.45,2.81,3.31,5.47,7.25,9.24,9.56a18.4,18.4,0,0,0,11.66,2.19c4.11-.51,8.15-2.41,10.43-6,1.63-2.57,2.05-5.68,2.77-8.57a40.9,40.9,0,0,1,5.29-12.49,8.58,8.58,0,0,1,1.27-1.61c.62-.61-.36.39.11-.1s-.13.15-.28.09a2.46,2.46,0,0,0,.34-.09c-.88.33-.26-.09-.34.07s0,0,0,0a5,5,0,0,1,.76.77,41.82,41.82,0,0,1,3,4.22,56.05,56.05,0,0,0,5.22,6.58,31.76,31.76,0,0,0,3.4,3.05A47.93,47.93,0,0,0,485,296.48c4.31.74,9.57,1.61,13.66-.42,3.41-1.68,5.49-5.07,6.58-8.6,2.06-6.68,1.32-14.29.3-21.1a69.78,69.78,0,0,0-3.27-12.63c-.48-1.36-1-2.71-1.44-4.08-.19-.59-.34-1.18-.51-1.77,0-.13-.14-1-.07-.22a4,4,0,0,1,0-.69c0-.18-.05.13,0,0-.42,1-.22.07-.1.15-.12-.08.17-.08,0,0a7,7,0,0,1,3.78.19,44.18,44.18,0,0,1,9.15,3.53,52.12,52.12,0,0,1,9.45,6.39,15.91,15.91,0,0,0,9.36,3.82c3.45.19,7.28-.41,10-2.63,2.92-2.36,3.49-6,2.93-9.51a32,32,0,0,0-3.29-8.95c-.62-1.23-1.28-2.43-1.91-3.66-.23-.45-.48-.9-.68-1.37.37.85,0,0,0,0l0-.15q-.36-1.75-1.26,2.8l-1.52.41a1.73,1.73,0,0,1-.81-.19c-.28-.13-.3-.13-.06,0,0,0,.59.43.29.18.09.07.88.77,1.23,1.1,1.34,1.26,2.59,2.61,3.81,4a131.08,131.08,0,0,1,8.76,10.91C551.52,257.06,556.72,254.06,554.47,250.92Z"/><path class="cls-3" d="M540.93,239c-.09,6.08-.84,13.95-5.45,18.48-4.29,4.22-10.61.48-15-1.89a179.7,179.7,0,0,1-18.15-11.88c-1.48-1.06-3.22-2.28-5.13-1.72-4.29,1.25-1.68,5.86-.27,8.21,4,6.73,5.92,13.82,6.92,21.54.68,5.36,2.35,12.36.18,17.34-2,4.64-6.74,7.5-11.43,8.66-.46.11-.91.21-1.38.28.64-.1-.27,0-.61,0a13.08,13.08,0,0,1-2.58-.07,22.46,22.46,0,0,1-7.5-2.84c-6.4-3.47-13.07-7.38-18.42-12.36a96.44,96.44,0,0,1-6.81-7.62,5.59,5.59,0,0,0-5.69-2.05c-3.91,1-5.28,5.92-6.33,9.24-1.42,4.45-2.57,9.07-5.19,13-6.2,9.28-19.52,2.43-25.26-4.31-3.37-4-5.2-8.8-7.4-13.43a8.7,8.7,0,0,0-3.16-4.1,4.33,4.33,0,0,0-5.89,1.67c-1.19,1.94-1.36,4.56-1.9,6.72a48,48,0,0,1-3.3,9c-2.25,4.75-5.64,11-11.55,11.42-6.84.53-13.54-5.18-16.62-10.84-2.66-4.89-3-10.33-4.46-15.6-.55-2-1.42-4.15-3.3-5.24a5.56,5.56,0,0,0-6.69,1.06c-1.86,1.75-3.13,4-5.1,5.66a15,15,0,0,1-9.06,3.28,33,33,0,0,1-13.92-3c-7-2.88-12.6-8.05-19.26-11.49-2.4-1.25-5.91-3.43-8.66-2-1.72.92-2.44,2.81-2.9,4.59-.68,2.67-1.12,5.4-1.82,8.07A79.3,79.3,0,0,1,283.94,288c-2.24,5.2-5.08,9.81-9.61,13.3a23.16,23.16,0,0,1-17.85,4.8c-6.17-1.06-11.62-4.85-16.18-9a38.11,38.11,0,0,0-4.69-4.12c-2-1.3-4.94-1-5.73,1.64-.57,1.88.52,3.8,1.29,5.45a53.32,53.32,0,0,1,2.89,6.95,22.54,22.54,0,0,1,1,9.78c-.34,2.51-.95,5.35-2.54,7.39-3.45,4.4-9.83,2.24-14.29,1-4.15-1.15-10.31-3-13.15,1.53-1.93,3.09-.15,7.11.82,10.21a128.15,128.15,0,0,1,5.26,21.47,31.89,31.89,0,0,1,.25,6.33c0,.22,0,.45-.06.67,0-.11.11-.64,0-.08-.06.34-.12.67-.21,1s-.17.59-.26.88-.11.3-.16.45.34-.67,0-.06a13.62,13.62,0,0,1-2.66,3.73,8,8,0,0,1-3.11,1.73c-.14.05-.3.06-.45.1-.41.1.82,0,.15,0-.36,0-.72,0-1.09,0-.55,0,0,0,.07,0L203,373c-.48-.12-1-.25-1.43-.41a29.82,29.82,0,0,1-4.07-1.74,47.23,47.23,0,0,1-9.51-5.94c-3.19-2.66-6.34-6.14-10.92-4.67-5.45,1.75-8.11,8.08-10,12.91a3.09,3.09,0,0,0,2.14,3.78,3.14,3.14,0,0,0,3.78-2.14,23.34,23.34,0,0,1,4-7.27,4.49,4.49,0,0,1,1.51-1.25c.58-.36-.37,0,.39-.16.12,0,.27-.06.38-.1.53-.17-.6,0-.14,0a1.67,1.67,0,0,1,.5,0c.41.15-.54-.06-.11,0,.19,0,.66.27,0,0a2.46,2.46,0,0,1,.45.25,12.9,12.9,0,0,1,1.65,1.29,61.1,61.1,0,0,0,6.86,5.33,58.06,58.06,0,0,0,9.46,4.9,17.34,17.34,0,0,0,5.87,1.49c4.75.18,8.89-3.15,11.33-7,4.48-7,2-16.56.28-24.06-1.33-5.64-3.25-11.09-4.74-16.68-.08-.33-.15-.66-.24-1-.16-.63-.07-.46-.06-.22,0-.26,0-.53,0-.78,0,.08-.21.75,0,.36,0-.13.22-.54,0-.05s.44-.4,0,.06c-.24.23.16.07-.25.14.2,0,1.11-.2.52-.16a9.17,9.17,0,0,1,1.57.06c4.19.54,9.21,2.78,14,2.93a13.65,13.65,0,0,0,13.48-9,27.84,27.84,0,0,0,.67-17.58,48.5,48.5,0,0,0-3-7.79c-.38-.82-.77-1.63-1.15-2.44-.2-.45.13.25-.16-.4a1.73,1.73,0,0,0-.11-.37c0-.25,0-.21,0,.11a1.57,1.57,0,0,1,0,.86l-1.28,1a1.54,1.54,0,0,1-1.9.91c.06,0-.87-.27-.37-.13s-.19-.21.15.08c.66.56,1.29,1.15,1.92,1.73,1.86,1.73,3.76,3.4,5.78,4.94,5.08,3.89,10.88,6.81,17.3,7.49,11.41,1.21,22.77-5.4,28.71-15a61.11,61.11,0,0,0,4.18-8.71A75.26,75.26,0,0,0,294,278c.61-2.39,1-4.82,1.61-7.22.11-.42.23-.84.35-1.25,0-.16.12-.31.16-.46-.06.22-.32.4,0,.16s-.33.33-.45.39a3.24,3.24,0,0,1-1,.27c-.66.13-.52-.19-.12,0,1.36.7,2.86,1.16,4.23,1.89,1.6.86,3.15,1.82,4.67,2.81,2.91,1.89,5.72,3.91,8.7,5.68A49,49,0,0,0,325,285.65c6.3,1.59,13.17,1.72,19.06-1.32a21.35,21.35,0,0,0,6.68-5.64c.61-.75,1.18-1.54,1.84-2.24.14-.15.27-.29.42-.43.57-.53,0,0,0,0s.43-.13-.08,0,0,.16-.5,0c-.2-.07-.56-.39-.34-.19.37.35,0,0-.07-.12a2.33,2.33,0,0,1,.24.41c.19.52.05.08,0,0,.09.22.17.45.24.67.14.46.26.92.37,1.38.55,2.24.89,4.52,1.41,6.77,1.39,6,3.95,11.84,8.49,16.18,5,4.74,11.92,8.32,18.93,7.13,5.89-1,10.17-5.75,13-10.69A56.69,56.69,0,0,0,401,281.26c.21-1,.41-1.92.69-2.85.11-.34-.06-.29,0,0a1.3,1.3,0,0,1,.21-.35c-.84.59-1.49,1.05-2.13.89l-.36-.12s-.66-.49-.26-.17-.27-.54.11.16.76,1.38,1.1,2.1c2,4.29,3.79,8.61,6.66,12.42A32,32,0,0,0,418,302.76c5.2,2.64,11.58,4.5,17.3,2.4,4.58-1.67,7.77-5.46,9.83-9.76,2-4.08,3.08-8.44,4.52-12.71a12.54,12.54,0,0,1,1.58-3.56c-.28.35.06,0,.1-.08.24-.48.35.16-.12,0,0,0,.32-.2.31-.18s-.73.34-.25.12c.14-.06-.25.07-.52,0s-.38,0-.2-.07c-.22.06-.39-.44.07.12a70,70,0,0,0,13.51,13.13,97.63,97.63,0,0,0,16.8,9.93,20.79,20.79,0,0,0,13,1.59,24,24,0,0,0,12.31-7c3.66-4.07,5.05-9,4.87-14.37a111.4,111.4,0,0,0-2.52-19.59,50.93,50.93,0,0,0-3.36-10.12,49.91,49.91,0,0,0-2.65-5c-.44-.74-.89-1.46-1.32-2.2a3.65,3.65,0,0,0-.4-.76c-.26-.25.15.08.11.44l-.42,1.55.07-.13-1.1,1.1a3.19,3.19,0,0,1-1.62.3c-.23,0-.28-.16-.39-.1s-.16-.11.23.15c.6.4,1.2.79,1.79,1.22,1.67,1.2,3.29,2.45,5,3.65a114.13,114.13,0,0,0,15.73,9.5c4.21,2.1,9,4,13.76,2.83,4.2-1,7.37-4.46,9.27-8.2,2.82-5.52,3.71-11.87,3.79-18,.06-3.95-6.09-4-6.14,0Z"/><path class="cls-3" d="M478.19,331.15c17.23,5.31,28.58,21.06,34.84,37.21A106,106,0,0,1,520.16,398c.41,5.24.45,10.51.82,15.76s1,10.55,1.14,15.88c.35,18.69-4,38.25-13.58,54.39-2,3.41-4.16,7.35-7.67,9.25a5.93,5.93,0,0,1-4.18.7,7.86,7.86,0,0,1-4.21-3.26,30.86,30.86,0,0,1-4.73-13.21c-.34-2.63-.28-5.27-.62-7.9-.3-2.3-.47-5.2-1.94-7.1a3.35,3.35,0,0,0-5.06-.4,8.13,8.13,0,0,0-1.72,4.05c-1.93,8.5-2.1,17.29-1.89,26,.4,16.69,2.75,34.93-4.82,50.44-1.85,3.77-4.16,7.64-7.57,10.21a12.9,12.9,0,0,1-9.44,2.67,10.14,10.14,0,0,1-7.24-4.38c-2.52-4-3.12-9.2-3.92-13.74-.89-5-1.34-10.11-2-15.18A50.92,50.92,0,0,0,438.79,510c-1.34-3.43-3.07-7-6.18-9.17a6.83,6.83,0,0,0-5.73-1.05,9.33,9.33,0,0,0-5.27,4.81c-1.82,3.42-2.7,7.48-4.35,10.72a9.28,9.28,0,0,1-7.18,5.39c-.06,0-.7.1-.38.06l-.38,0c-.42,0-.84,0-1.26,0a8.43,8.43,0,0,1-2.18-.23,12.26,12.26,0,0,1-4.29-1.65,11.89,11.89,0,0,1-5.64-7.89c-1.06-4.4-.49-9-1-13.49s-1.83-10.37-6.47-12.47a7.11,7.11,0,0,0-7.34.81c-1.62,1.19-3.17,2.5-4.71,3.79a52.35,52.35,0,0,1-9.68,6.92c-3.07,1.56-6.29,2.18-9.62.43a3,3,0,0,0-3,5.18,15.44,15.44,0,0,0,13.14.7,43.15,43.15,0,0,0,11.12-7.09c1.54-1.25,3.05-2.55,4.59-3.8,1-.84,2.17-2.31,3.52-1.21s1.85,3.38,2.19,5a36.15,36.15,0,0,1,.55,6.66c.12,5,.26,10,2.54,14.56a17.67,17.67,0,0,0,8,7.74c7.37,3.55,16.78,2.43,21.59-4.69,2.28-3.36,3.12-7.43,4.71-11.11.46-1.07,1.47-3.31,2.69-3.51-.43.07-.15,0,.17.14-.6-.23.22.15.39.25s.43.34,0,0a4.48,4.48,0,0,1,.4.36c.21.2.72.75.71.75a22.08,22.08,0,0,1,3.66,8.09c1.36,4.82,1.65,9.81,2.26,14.76a147.22,147.22,0,0,0,2.73,16c1.05,4.48,2.78,9,6.48,12,6.9,5.5,16.52,4.28,23.06-1.12a33,33,0,0,0,8.1-11A55.05,55.05,0,0,0,481.21,533c1.91-8.77,2-17.8,1.78-26.73s-.85-17.87-.35-26.8a68.24,68.24,0,0,1,1.69-12.34c.08-.35.18-.69.27-1,.17-.58.19-.41,0-.09.13-.24.21-.11-.08.07l-.17.22a1.85,1.85,0,0,1-2.18.53,2.1,2.1,0,0,1-1.71-.73c-.35-.29-.18-.23-.07,0s-.23-.74-.05-.08c.06.21.14.43.19.65a18,18,0,0,1,.38,1.77c.11.58.19,1.16.28,1.74-.1-.68,0,0,0,.26l.09.89c.1.95.14,1.88.17,2.84A41.3,41.3,0,0,0,485,489.48c1.94,4.39,5,8.83,9.89,10.18,4.57,1.27,9.24-.73,12.53-3.9a31.63,31.63,0,0,0,4.24-5.52q1.94-2.92,3.62-6a97.72,97.72,0,0,0,5.91-13.17,118.2,118.2,0,0,0,6.34-28.34,108,108,0,0,0,.47-16.08c-.23-5.38-1-10.72-1.24-16.09s-.34-10.85-1-16.23a113,113,0,0,0-3.1-15.58c-5-18.54-14.39-37.37-31.06-47.94a49,49,0,0,0-11.86-5.44c-3.7-1.14-5.28,4.65-1.6,5.78Z"/><path class="cls-3" d="M343,486.75c-.48-1-.14-.26-.06,0l.21.56c.15.41.3.82.47,1.22.35.89.73,1.78,1.13,2.66a30.77,30.77,0,0,0,2.36,4.24,20.66,20.66,0,0,0,7.05,6.83,3,3,0,1,0,3-5.18c-.29-.16-.57-.33-.85-.51s-.72-.36-.82-.57l.21.17-.24-.2-.3-.26c-.26-.23-.51-.46-.75-.7a20.76,20.76,0,0,1-1.4-1.56c-.46-.56.38.53-.05-.07-.09-.11-.17-.23-.26-.35-.23-.32-.46-.65-.67-1a31.31,31.31,0,0,1-2.16-4,5.05,5.05,0,0,1-.24-.53c0-.08-.3-.69-.13-.29s-.09-.21-.12-.29-.14-.37-.22-.55a27,27,0,0,0-1-2.64,3,3,0,0,0-4.1-1.08,3.07,3.07,0,0,0-1.08,4.1Z"/><path class="cls-3" d="M507.73,475.85a22.41,22.41,0,0,1-3.64,6.69,7.8,7.8,0,0,1-5.24,3,2.9,2.9,0,0,1-2.4-.68,5.69,5.69,0,0,1-1.17-2.28,59.34,59.34,0,0,1-1.49-9.18c-.4-3.24-.74-6.49-1.08-9.74-.28-2.73-.29-5.68-1.15-8.3-.72-2.21-2-4.5-4.16-5.58a6.37,6.37,0,0,0-7.17,1.12,15.79,15.79,0,0,0-3.67,5.47,68.3,68.3,0,0,0-2.63,6.75,87.93,87.93,0,0,0-3.69,18.53c-1.26,12.26-.77,24.59-1.37,36.88a60.29,60.29,0,0,1-3,17.46,22,22,0,0,1-3.62,6.84,8.81,8.81,0,0,1-5.23,3.26c.6-.11-.31,0-.37,0H456c-.81,0,.46.16-.32,0-.17,0-.35-.07-.53-.13,0,0-.81-.29-.42-.12s-.41-.23-.38-.22-.72-.46-.39-.23-.47-.42-.56-.51a6.71,6.71,0,0,1-1.1-1.73,23.82,23.82,0,0,1-1-4.1c-1.17-5.89-1.87-11.85-2.78-17.78a95.6,95.6,0,0,0-3.93-17.13c-1.77-5.05-4.1-11.05-9.24-13.53s-11.14-.29-14.8,3.95c-3.44,4-4.89,9.13-6.87,13.72-.9,2.08-2.06,4.36-3.9,5.66a5.64,5.64,0,0,1-2.64,1,5.28,5.28,0,0,1-2.46-.4,7.84,7.84,0,0,1-3.92-4.34,15.56,15.56,0,0,1-.3-7.93c.19-1.09.12-1.88,1.06-2.33,1.24-.6,2.62-1,3.9-1.52q4.52-1.8,8.94-3.8,6.77-3,13.27-6.56c18-9.75,34.75-22.61,46.59-39.45A83.79,83.79,0,0,0,487,421.16c3.23-12.67,2.75-25.86.15-38.6a158.1,158.1,0,0,0-5.31-19.07,143.8,143.8,0,0,0-5.15-13.8,58.38,58.38,0,0,1-3.91-9.75c-.11-.39-.21-.78-.29-1.18,0-.18-.06-.37-.1-.55-.08-.45,0,.74,0,.07a7.32,7.32,0,0,0,0-.94c0-.18.14-.65-.05.3,0-.12.22-.77,0-.21s0,.12,0,0l-.31.41.09-.09c.06.1-.8.2.24,0,0,0,.56-.11.27-.07a9.58,9.58,0,0,1,3.64.38c9.71,2.19,16.92,10.22,22.2,18.35a106.94,106.94,0,0,1,13.73,32.37,140.68,140.68,0,0,1,3.86,35.06,176.51,176.51,0,0,1-3.58,35.52,116.68,116.68,0,0,1-4.8,16.53,3,3,0,0,0,2.09,3.69,3.05,3.05,0,0,0,3.69-2.09c4.41-11.69,6.64-24.12,7.77-36.53a176.3,176.3,0,0,0-.2-36.89,127.88,127.88,0,0,0-9.73-36.39c-4.47-10.16-10.5-20.53-19.07-27.8a34.12,34.12,0,0,0-14.37-7.61c-2.86-.64-6.11-1.11-8.79.4a5.47,5.47,0,0,0-2.73,5.07c0,3.89,1.92,7.8,3.45,11.29.69,1.57,1.42,3.12,2.12,4.68l.36.8c-.42-.93-.08-.18,0,0,.64,1.67,1.23,3.36,1.83,5,4.45,12.48,8.39,25.31,9.06,38.62a72.51,72.51,0,0,1-6.29,33.76c-8.58,18.8-24.1,33.4-41.28,44.43A188.53,188.53,0,0,1,407.82,491c-3,1.29-6.16,2.29-9.11,3.68-3.38,1.58-3.93,5-4.34,8.38-.74,6,.76,12.12,5.87,15.78a11.45,11.45,0,0,0,15.42-2.23c3.55-4.18,4.62-9.72,7-14.43a13.64,13.64,0,0,1,4.44-5.47,6.84,6.84,0,0,1,2.94-1.23c-.44.07.22,0,.33,0s.52,0,.79,0c-.57,0,.39.08.43.09a7,7,0,0,1,.89.27c-.41-.16.19.11.28.16s.47.27.69.42a6,6,0,0,1,.95.81,11.78,11.78,0,0,1,2.11,3,48.54,48.54,0,0,1,3.18,8.14,122.89,122.89,0,0,1,3.58,17.93c.44,3,.86,6.09,1.34,9.13a65.86,65.86,0,0,0,1.7,8.61c1.48,4.86,5.75,8.53,11,8,5.93-.62,10.25-5.35,12.65-10.51,5.42-11.66,4.9-24.66,5.18-37.21s.33-25.62,4-37.86c.44-1.47.93-2.92,1.48-4.36l.48-1.25c.06-.16.13-.32.19-.47s.13-.34.2-.5c-.12.28-.1.25,0-.08A25.44,25.44,0,0,1,483,457l.33-.53s.58-.81.23-.37c.12-.15.25-.29.38-.43s.88-.88.38-.42a1.9,1.9,0,0,1,.43-.26c-.79.35.54,0-.4.07a2.18,2.18,0,0,1,.57,0l-.27,0c.33.11.33.1,0,0,0,0,.54.42,0,0,0,0,.64.68.25.2a4.73,4.73,0,0,1,.32.46c.05.1.55,1.08.33.57a9,9,0,0,1,.43,1.33c.06.23.28,1.48.17.67.23,1.7.37,3.42.55,5.12.35,3.42.7,6.83,1.13,10.24a87.86,87.86,0,0,0,1.52,9.95c.7,2.86,2.24,5.62,5,7a10.6,10.6,0,0,0,8.48.18c5.72-2.25,8.63-7.84,10.72-13.26a3,3,0,0,0-2.09-3.69A3.05,3.05,0,0,0,507.73,475.85Z"/><path class="cls-3" d="M395.24,483.38c-1.15-1.24-1.86-2.85-3.07-4.06a9.14,9.14,0,0,0-5-2.52c-4.16-.67-7.88,1.13-11.06,3.67-2,1.59-3.78,3.44-5.62,5.21a27.26,27.26,0,0,1-5.78,4.66l-.7.37c-.49.27.31-.06-.21.09l-.7.23c-.3.07-1,.12-.36.1-.23,0-.47,0-.69,0-.5.06.37.16-.12,0-.26-.08-.52-.13-.79-.22l.16.06-.44-.24c-.14-.09-.63-.46-.27-.17a7.45,7.45,0,0,1-.65-.6,7.76,7.76,0,0,1-1.22-1.61,23.24,23.24,0,0,1-2.1-4.42c-2.42-6.78-2.86-14.13-3.19-21.26a97.93,97.93,0,0,1,1.66-24.29,79.66,79.66,0,0,1,7.43-20.79c6.76-13,16.36-24.29,26.39-34.91,10.27-10.88,20.89-21.79,33.21-30.38A87,87,0,0,1,442,341.68a53,53,0,0,1,10.13-2.81,14.66,14.66,0,0,1,2.29-.13,5.51,5.51,0,0,1,1.87.29,4.23,4.23,0,0,1,1.41.69A7,7,0,0,1,459,341c2,2.77,2.82,6.33,3.66,9.6.92,3.57,1.93,7.12,2.85,10.7,1.87,7.28,3.55,14.62,4.73,22.06,2.31,14.61,2.6,29.92-2.14,44.1a50.64,50.64,0,0,1-11.26,18.6,110.13,110.13,0,0,1-17.1,14.8,207.85,207.85,0,0,1-20.25,12.46c-3.68,2-7.41,4-11.14,5.91-2.61,1.35-5,3.09-7.69,4.29a10.76,10.76,0,0,1-3,.81c-.14,0-.88,0-.41,0a4.53,4.53,0,0,1-.88-.22c-.61-.2-.24-.1-.14-.05a3.38,3.38,0,0,1-.41-.24,3.75,3.75,0,0,1-.6-.5c-2.78-2.68-7,1.55-4.24,4.24,5.75,5.55,12.84,1.2,18.44-2.11,3.42-2,7.05-3.71,10.54-5.59,3.81-2.05,7.59-4.16,11.3-6.39a159.21,159.21,0,0,0,20-14,83.89,83.89,0,0,0,16.57-17.71c8.81-13.25,10.74-30.52,9.76-46a164.53,164.53,0,0,0-3.44-23.88c-1.61-7.57-3.71-15-5.63-22.49-1-3.74-1.93-7.63-4-10.92a11.9,11.9,0,0,0-9.4-5.73c-3.61-.3-7.39.79-10.82,1.82a82.62,82.62,0,0,0-11.69,4.58c-14.44,6.9-26.69,17.74-37.92,28.95-11,11-21.91,22.44-30.69,35.35a102.93,102.93,0,0,0-10.85,20.34,86.75,86.75,0,0,0-5.5,24.73,125.75,125.75,0,0,0,.55,24.38,58.39,58.39,0,0,0,2.31,11.64c1.13,3.49,2.71,7.27,5.4,9.86A9.08,9.08,0,0,0,364,497c2.75-.48,5.15-2.22,7.28-3.94s4.18-3.83,6.23-5.78c.92-.88,1.85-1.74,2.84-2.53.27-.22-.07.06-.11.08l.7-.5c.36-.24.72-.47,1.1-.68a7.47,7.47,0,0,1,2.46-.92,3.92,3.92,0,0,1,3.27.74c1.3,1.13,2,2.92,3.22,4.19C393.63,490.45,397.87,486.2,395.24,483.38Z"/><path class="cls-3" d="M477.29,324.7c-13.11-3.15-27.34-.84-39.88,3.59a101.73,101.73,0,0,0-18.65,8.7c-3,1.79-6.13,3.16-9,5.12s-5.64,3.83-8.42,5.8A152.28,152.28,0,0,0,373,374.33a169.94,169.94,0,0,0-21.73,32,117.72,117.72,0,0,0-11.78,38.79c-1.6,13.06-1.18,27,2.78,39.57.14.44.27.89.44,1.32.55,1.45.24.7.14.41.28.78.57,1.56.88,2.33a43.18,43.18,0,0,0,2.22,4.72,23.67,23.67,0,0,0,5.58,6.92,16.06,16.06,0,0,0,9.12,3.7,17.61,17.61,0,0,0,8.53-2c5.29-2.49,9.59-6.66,14.1-10.29.59-.47,1.45-1.43,2.24-1.44s1.6,1.06,2,1.85c1.36,2.55,1.57,5.69,1.68,8.53.24,6.37,0,13.21,4,18.56a19.23,19.23,0,0,0,14,7.47,15.71,15.71,0,0,0,14.33-7A37.78,37.78,0,0,0,425,512c.39-1.1.86-2.41,1.26-3.29a7.63,7.63,0,0,1,2-3c.16-.1.87-.33.29-.21.12,0,.87.31.2,0,.23.11.44.25.65.37.65.36-.31-.38.22.17l.4.38a8.39,8.39,0,0,1,.56.63c-.32-.39.35.49.41.58a21.2,21.2,0,0,1,1.63,3,29,29,0,0,1,1.08,2.83c2.09,6.32,2.26,13,3.17,19.59q.77,5.58,1.93,11.08a30.28,30.28,0,0,0,3.41,9.75,16.31,16.31,0,0,0,13.8,7.57c13.3.16,20.95-13.31,24.23-24.5,3.48-11.9,3-24.53,2.58-36.78-.23-6.17-.48-12.36-.25-18.54.11-2.86.31-5.85.69-8.6.19-1.42.43-2.82.72-4.21q.19-1,.42-1.89c.06-.25.13-.5.2-.74s.5-.92,0-.14c.05-.07.08-.15.13-.22a2.64,2.64,0,0,1-3.57.85c-.1-.06-.94-1-.8-.74.29.44,0-.18-.09-.27.36.25.48,1.69.55,2.08.16.79.28,1.58.4,2.37-.13-.87,0,.26.05.47.05.43.1.86.13,1.29.21,2.31.22,4.62.55,6.92a39.91,39.91,0,0,0,2.91,10.23c2.65,6.18,7.59,12,15,10.81,6.53-1.06,10.39-7.09,13.56-12.31a103.23,103.23,0,0,0,13.16-37.26,116.58,116.58,0,0,0,1.54-21.68c-.1-3.78-.42-7.53-.81-11.28s-.54-7.42-.69-11.14A122.89,122.89,0,0,0,524,384a119.16,119.16,0,0,0-6.45-20.38,83.51,83.51,0,0,0-10-17.72,3.09,3.09,0,0,0-4.1-1.08c-1.28.75-2.06,2.8-1.08,4.1,8.27,11,13.13,24.19,16,37.58a123.28,123.28,0,0,1,2.26,21.18c.3,7.33,1.33,14.6,1.46,21.94a110.86,110.86,0,0,1-6.32,38.87,86.3,86.3,0,0,1-8,16.79c-1.55,2.49-3.08,5.19-5.39,7-1.67,1.32-3.87,2.16-5.69,1.67-2.64-.71-4.34-3.18-5.56-5.54a33.83,33.83,0,0,1-3.07-9.12c-.77-4-.6-8-1.27-12a12.39,12.39,0,0,0-1.26-4.31,3.45,3.45,0,0,0-6.06,0c-1.16,2.05-1.42,4.72-1.8,7a91.9,91.9,0,0,0-1,9.37c-.69,12,.61,23.91.41,35.87-.18,11.52-1.91,23.44-8.72,33.12a18.56,18.56,0,0,1-5.95,5.58,12.79,12.79,0,0,1-6.41,1.62,10.45,10.45,0,0,1-5.79-1.7,9.83,9.83,0,0,1-2.31-2.11A15.19,15.19,0,0,1,446,548.1a63.91,63.91,0,0,1-2.32-9.86q-1-5.36-1.55-10.76c-.64-5.91-1.19-11.88-3.36-17.46-1.71-4.36-4.63-10.32-10.07-10.47-6.71-.19-8.66,8.76-10.5,13.6a13.69,13.69,0,0,1-3.49,5.6,9.91,9.91,0,0,1-1.35.86,6.1,6.1,0,0,1-1,.49,12.91,12.91,0,0,1-1.81.53,5.89,5.89,0,0,1-1.39.19,13.71,13.71,0,0,1-1.57,0c-.32,0-.63,0-.95-.07.57.07-.45-.08-.45-.08-.52-.1-1-.22-1.54-.37-.31-.09-.61-.19-.91-.3,0,0-.88-.35-.46-.17a14.6,14.6,0,0,1-3-1.75c.39.3-.41-.34-.39-.32l-.58-.53c-.19-.19-.37-.37-.55-.57s-.76-.88-.54-.6c-3.68-4.79-2.72-11.36-3.11-17a24.44,24.44,0,0,0-2.32-9.67c-1.64-3.2-5-5.55-8.67-4.86-2.77.53-5.15,3.07-7.25,4.82s-4.05,3.41-6.23,4.92c-4.24,3-9,5.39-13.78,2.61a15.44,15.44,0,0,1-5.17-5.41,33.56,33.56,0,0,1-1.85-3.51c-.3-.64-.56-1.29-.8-1.94-.13-.32-.25-.65-.36-1s-.66-1.94-.37-1.05a76,76,0,0,1-3.44-18.43,108.48,108.48,0,0,1,4.43-38.33c3.68-12.24,9.62-23.34,16.78-33.88a170.78,170.78,0,0,1,24.05-28.52,132.52,132.52,0,0,1,14.25-11.75c2.65-1.88,5.35-3.7,8-5.54,2.87-2,6-3.34,9-5.14a89.26,89.26,0,0,1,35.89-12.69,53.71,53.71,0,0,1,18.41.76c3.76.9,5.36-4.88,1.6-5.78Z"/><path class="cls-3" d="M507.73,475.85a22.41,22.41,0,0,1-3.64,6.69,7.8,7.8,0,0,1-5.24,3,2.9,2.9,0,0,1-2.4-.68,5.69,5.69,0,0,1-1.17-2.28,59.34,59.34,0,0,1-1.49-9.18c-.4-3.24-.74-6.49-1.08-9.74-.28-2.73-.29-5.68-1.15-8.3-.72-2.21-2-4.5-4.16-5.58a6.37,6.37,0,0,0-7.17,1.12,15.79,15.79,0,0,0-3.67,5.47,68.3,68.3,0,0,0-2.63,6.75,87.93,87.93,0,0,0-3.69,18.53c-1.26,12.26-.77,24.59-1.37,36.88a60.29,60.29,0,0,1-3,17.46,22,22,0,0,1-3.62,6.84,8.81,8.81,0,0,1-5.23,3.26c.6-.11-.31,0-.37,0H456c-.81,0,.46.16-.32,0-.17,0-.35-.07-.53-.13,0,0-.81-.29-.42-.12s-.41-.23-.38-.22-.72-.46-.39-.23-.47-.42-.56-.51a6.71,6.71,0,0,1-1.1-1.73,23.82,23.82,0,0,1-1-4.1c-1.17-5.89-1.87-11.85-2.78-17.78a95.6,95.6,0,0,0-3.93-17.13c-1.77-5.05-4.1-11.05-9.24-13.53s-11.14-.29-14.8,3.95c-3.44,4-4.89,9.13-6.87,13.72-.9,2.08-2.06,4.36-3.9,5.66a5.64,5.64,0,0,1-2.64,1,5.28,5.28,0,0,1-2.46-.4,7.84,7.84,0,0,1-3.92-4.34,15.56,15.56,0,0,1-.3-7.93c.19-1.09.12-1.88,1.06-2.33,1.24-.6,2.62-1,3.9-1.52q4.52-1.8,8.94-3.8,6.77-3,13.27-6.56c18-9.75,34.75-22.61,46.59-39.45A83.79,83.79,0,0,0,487,421.16c3.23-12.67,2.75-25.86.15-38.6a158.1,158.1,0,0,0-5.31-19.07,143.8,143.8,0,0,0-5.15-13.8,58.38,58.38,0,0,1-3.91-9.75c-.11-.39-.21-.78-.29-1.18,0-.18-.06-.37-.1-.55-.08-.45,0,.74,0,.07a7.32,7.32,0,0,0,0-.94c0-.18.14-.65-.05.3,0-.12.22-.77,0-.21s0,.12,0,0l-.31.41.09-.09c.06.1-.8.2.24,0,0,0,.56-.11.27-.07a9.58,9.58,0,0,1,3.64.38c9.71,2.19,16.92,10.22,22.2,18.35a106.94,106.94,0,0,1,13.73,32.37,140.68,140.68,0,0,1,3.86,35.06,176.51,176.51,0,0,1-3.58,35.52,116.68,116.68,0,0,1-4.8,16.53,3,3,0,0,0,2.09,3.69,3.05,3.05,0,0,0,3.69-2.09c4.41-11.69,6.64-24.12,7.77-36.53a176.3,176.3,0,0,0-.2-36.89,127.88,127.88,0,0,0-9.73-36.39c-4.47-10.16-10.5-20.53-19.07-27.8a34.12,34.12,0,0,0-14.37-7.61c-2.86-.64-6.11-1.11-8.79.4a5.47,5.47,0,0,0-2.73,5.07c0,3.89,1.92,7.8,3.45,11.29.69,1.57,1.42,3.12,2.12,4.68l.36.8c-.42-.93-.08-.18,0,0,.64,1.67,1.23,3.36,1.83,5,4.45,12.48,8.39,25.31,9.06,38.62a72.51,72.51,0,0,1-6.29,33.76c-8.58,18.8-24.1,33.4-41.28,44.43A188.53,188.53,0,0,1,407.82,491c-3,1.29-6.16,2.29-9.11,3.68-3.38,1.58-3.93,5-4.34,8.38-.74,6,.76,12.12,5.87,15.78a11.45,11.45,0,0,0,15.42-2.23c3.55-4.18,4.62-9.72,7-14.43a13.64,13.64,0,0,1,4.44-5.47,6.84,6.84,0,0,1,2.94-1.23c-.44.07.22,0,.33,0s.52,0,.79,0c-.57,0,.39.08.43.09a7,7,0,0,1,.89.27c-.41-.16.19.11.28.16s.47.27.69.42a6,6,0,0,1,.95.81,11.78,11.78,0,0,1,2.11,3,48.54,48.54,0,0,1,3.18,8.14,122.89,122.89,0,0,1,3.58,17.93c.44,3,.86,6.09,1.34,9.13a65.86,65.86,0,0,0,1.7,8.61c1.48,4.86,5.75,8.53,11,8,5.93-.62,10.25-5.35,12.65-10.51,5.42-11.66,4.9-24.66,5.18-37.21s.33-25.62,4-37.86c.44-1.47.93-2.92,1.48-4.36l.48-1.25c.06-.16.13-.32.19-.47s.13-.34.2-.5c-.12.28-.1.25,0-.08A25.44,25.44,0,0,1,483,457l.33-.53s.58-.81.23-.37c.12-.15.25-.29.38-.43s.88-.88.38-.42a1.9,1.9,0,0,1,.43-.26c-.79.35.54,0-.4.07a2.18,2.18,0,0,1,.57,0l-.27,0c.33.11.33.1,0,0,0,0,.54.42,0,0,0,0,.64.68.25.2a4.73,4.73,0,0,1,.32.46c.05.1.55,1.08.33.57a9,9,0,0,1,.43,1.33c.06.23.28,1.48.17.67.23,1.7.37,3.42.55,5.12.35,3.42.7,6.83,1.13,10.24a87.86,87.86,0,0,0,1.52,9.95c.7,2.86,2.24,5.62,5,7a10.6,10.6,0,0,0,8.48.18c5.72-2.25,8.63-7.84,10.72-13.26a3,3,0,0,0-2.09-3.69A3.05,3.05,0,0,0,507.73,475.85Z"/><path class="cls-3" d="M395.24,483.38c-1.15-1.24-1.86-2.85-3.07-4.06a9.14,9.14,0,0,0-5-2.52c-4.16-.67-7.88,1.13-11.06,3.67-2,1.59-3.78,3.44-5.62,5.21a27.26,27.26,0,0,1-5.78,4.66l-.7.37c-.49.27.31-.06-.21.09l-.7.23c-.3.07-1,.12-.36.1-.23,0-.47,0-.69,0-.5.06.37.16-.12,0-.26-.08-.52-.13-.79-.22l.16.06-.44-.24c-.14-.09-.63-.46-.27-.17a7.45,7.45,0,0,1-.65-.6,7.76,7.76,0,0,1-1.22-1.61,23.24,23.24,0,0,1-2.1-4.42c-2.42-6.78-2.86-14.13-3.19-21.26a97.93,97.93,0,0,1,1.66-24.29,79.66,79.66,0,0,1,7.43-20.79c6.76-13,16.36-24.29,26.39-34.91,10.27-10.88,20.89-21.79,33.21-30.38A87,87,0,0,1,442,341.68a53,53,0,0,1,10.13-2.81,14.66,14.66,0,0,1,2.29-.13,5.51,5.51,0,0,1,1.87.29,4.23,4.23,0,0,1,1.41.69A7,7,0,0,1,459,341c2,2.77,2.82,6.33,3.66,9.6.92,3.57,1.93,7.12,2.85,10.7,1.87,7.28,3.55,14.62,4.73,22.06,2.31,14.61,2.6,29.92-2.14,44.1a50.64,50.64,0,0,1-11.26,18.6,110.13,110.13,0,0,1-17.1,14.8,207.85,207.85,0,0,1-20.25,12.46c-3.68,2-7.41,4-11.14,5.91-2.61,1.35-5,3.09-7.69,4.29a10.76,10.76,0,0,1-3,.81c-.14,0-.88,0-.41,0a4.53,4.53,0,0,1-.88-.22c-.61-.2-.24-.1-.14-.05a3.38,3.38,0,0,1-.41-.24,3.75,3.75,0,0,1-.6-.5c-2.78-2.68-7,1.55-4.24,4.24,5.75,5.55,12.84,1.2,18.44-2.11,3.42-2,7.05-3.71,10.54-5.59,3.81-2.05,7.59-4.16,11.3-6.39a159.21,159.21,0,0,0,20-14,83.89,83.89,0,0,0,16.57-17.71c8.81-13.25,10.74-30.52,9.76-46a164.53,164.53,0,0,0-3.44-23.88c-1.61-7.57-3.71-15-5.63-22.49-1-3.74-1.93-7.63-4-10.92a11.9,11.9,0,0,0-9.4-5.73c-3.61-.3-7.39.79-10.82,1.82a82.62,82.62,0,0,0-11.69,4.58c-14.44,6.9-26.69,17.74-37.92,28.95-11,11-21.91,22.44-30.69,35.35a102.93,102.93,0,0,0-10.85,20.34,86.75,86.75,0,0,0-5.5,24.73,125.75,125.75,0,0,0,.55,24.38,58.39,58.39,0,0,0,2.31,11.64c1.13,3.49,2.71,7.27,5.4,9.86A9.08,9.08,0,0,0,364,497c2.75-.48,5.15-2.22,7.28-3.94s4.18-3.83,6.23-5.78c.92-.88,1.85-1.74,2.84-2.53.27-.22-.07.06-.11.08l.7-.5c.36-.24.72-.47,1.1-.68a7.47,7.47,0,0,1,2.46-.92,3.92,3.92,0,0,1,3.27.74c1.3,1.13,2,2.92,3.22,4.19C393.63,490.45,397.87,486.2,395.24,483.38Z"/><path class="cls-3" d="M477.29,324.7c-13.11-3.15-27.34-.84-39.88,3.59a101.73,101.73,0,0,0-18.65,8.7c-3,1.79-6.13,3.16-9,5.12s-5.64,3.83-8.42,5.8A152.28,152.28,0,0,0,373,374.33a169.94,169.94,0,0,0-21.73,32,117.72,117.72,0,0,0-11.78,38.79c-1.6,13.06-1.18,27,2.78,39.57.14.44.27.89.44,1.32.55,1.45.24.7.14.41.28.78.57,1.56.88,2.33a43.18,43.18,0,0,0,2.22,4.72,23.67,23.67,0,0,0,5.58,6.92,16.06,16.06,0,0,0,9.12,3.7,17.61,17.61,0,0,0,8.53-2c5.29-2.49,9.59-6.66,14.1-10.29.59-.47,1.45-1.43,2.24-1.44s1.6,1.06,2,1.85c1.36,2.55,1.57,5.69,1.68,8.53.24,6.37,0,13.21,4,18.56a19.23,19.23,0,0,0,14,7.47,15.71,15.71,0,0,0,14.33-7A37.78,37.78,0,0,0,425,512c.39-1.1.86-2.41,1.26-3.29a7.63,7.63,0,0,1,2-3c.16-.1.87-.33.29-.21.12,0,.87.31.2,0,.23.11.44.25.65.37.65.36-.31-.38.22.17l.4.38a8.39,8.39,0,0,1,.56.63c-.32-.39.35.49.41.58a21.2,21.2,0,0,1,1.63,3,29,29,0,0,1,1.08,2.83c2.09,6.32,2.26,13,3.17,19.59q.77,5.58,1.93,11.08a30.28,30.28,0,0,0,3.41,9.75,16.31,16.31,0,0,0,13.8,7.57c13.3.16,20.95-13.31,24.23-24.5,3.48-11.9,3-24.53,2.58-36.78-.23-6.17-.48-12.36-.25-18.54.11-2.86.31-5.85.69-8.6.19-1.42.43-2.82.72-4.21q.19-1,.42-1.89c.06-.25.13-.5.2-.74s.5-.92,0-.14c.05-.07.08-.15.13-.22a2.64,2.64,0,0,1-3.57.85c-.1-.06-.94-1-.8-.74.29.44,0-.18-.09-.27.36.25.48,1.69.55,2.08.16.79.28,1.58.4,2.37-.13-.87,0,.26.05.47.05.43.1.86.13,1.29.21,2.31.22,4.62.55,6.92a39.91,39.91,0,0,0,2.91,10.23c2.65,6.18,7.59,12,15,10.81,6.53-1.06,10.39-7.09,13.56-12.31a103.23,103.23,0,0,0,13.16-37.26,116.58,116.58,0,0,0,1.54-21.68c-.1-3.78-.42-7.53-.81-11.28s-.54-7.42-.69-11.14A122.89,122.89,0,0,0,524,384a119.16,119.16,0,0,0-6.45-20.38,83.51,83.51,0,0,0-10-17.72,3.09,3.09,0,0,0-4.1-1.08c-1.28.75-2.06,2.8-1.08,4.1,8.27,11,13.13,24.19,16,37.58a123.28,123.28,0,0,1,2.26,21.18c.3,7.33,1.33,14.6,1.46,21.94a110.86,110.86,0,0,1-6.32,38.87,86.3,86.3,0,0,1-8,16.79c-1.55,2.49-3.08,5.19-5.39,7-1.67,1.32-3.87,2.16-5.69,1.67-2.64-.71-4.34-3.18-5.56-5.54a33.83,33.83,0,0,1-3.07-9.12c-.77-4-.6-8-1.27-12a12.39,12.39,0,0,0-1.26-4.31,3.45,3.45,0,0,0-6.06,0c-1.16,2.05-1.42,4.72-1.8,7a91.9,91.9,0,0,0-1,9.37c-.69,12,.61,23.91.41,35.87-.18,11.52-1.91,23.44-8.72,33.12a18.56,18.56,0,0,1-5.95,5.58,12.79,12.79,0,0,1-6.41,1.62,10.45,10.45,0,0,1-5.79-1.7,9.83,9.83,0,0,1-2.31-2.11A15.19,15.19,0,0,1,446,548.1a63.91,63.91,0,0,1-2.32-9.86q-1-5.36-1.55-10.76c-.64-5.91-1.19-11.88-3.36-17.46-1.71-4.36-4.63-10.32-10.07-10.47-6.71-.19-8.66,8.76-10.5,13.6a13.69,13.69,0,0,1-3.49,5.6,9.91,9.91,0,0,1-1.35.86,6.1,6.1,0,0,1-1,.49,12.91,12.91,0,0,1-1.81.53,5.89,5.89,0,0,1-1.39.19,13.71,13.71,0,0,1-1.57,0c-.32,0-.63,0-.95-.07.57.07-.45-.08-.45-.08-.52-.1-1-.22-1.54-.37-.31-.09-.61-.19-.91-.3,0,0-.88-.35-.46-.17a14.6,14.6,0,0,1-3-1.75c.39.3-.41-.34-.39-.32l-.58-.53c-.19-.19-.37-.37-.55-.57s-.76-.88-.54-.6c-3.68-4.79-2.72-11.36-3.11-17a24.44,24.44,0,0,0-2.32-9.67c-1.64-3.2-5-5.55-8.67-4.86-2.77.53-5.15,3.07-7.25,4.82s-4.05,3.41-6.23,4.92c-4.24,3-9,5.39-13.78,2.61a15.44,15.44,0,0,1-5.17-5.41,33.56,33.56,0,0,1-1.85-3.51c-.3-.64-.56-1.29-.8-1.94-.13-.32-.25-.65-.36-1s-.66-1.94-.37-1.05a76,76,0,0,1-3.44-18.43,108.48,108.48,0,0,1,4.43-38.33c3.68-12.24,9.62-23.34,16.78-33.88a170.78,170.78,0,0,1,24.05-28.52,132.52,132.52,0,0,1,14.25-11.75c2.65-1.88,5.35-3.7,8-5.54,2.87-2,6-3.34,9-5.14a89.26,89.26,0,0,1,35.89-12.69,53.71,53.71,0,0,1,18.41.76c3.76.9,5.36-4.88,1.6-5.78Z"/><path class="cls-3" d="M89.16,369.68c2.41,10,10,18.39,20.23,20.49,11.85,2.43,23.57-2.64,32.07-10.77A52.46,52.46,0,0,0,153,363c.95-2.1.68-4.84-1.58-6-1.92-1-5-.66-6,1.58a50.78,50.78,0,0,1-3.86,7.1q-.47.72-1,1.41l-.62.87-.3.4c.35-.46-.51.64-.45.56l-.54.66q-.69.81-1.41,1.59c-.83.91-1.7,1.78-2.6,2.61-.45.41-.9.81-1.36,1.19l-.77.65c-.71.59.44-.3-.38.29a39.52,39.52,0,0,1-6.16,3.74c-.3.15-.61.28-.91.42-.62.3.6-.22,0,0s-1.11.43-1.68.62a29.59,29.59,0,0,1-3.83,1l-.79.14c-.17,0-.86.1,0,0-.6.06-1.19.12-1.79.15a25.89,25.89,0,0,1-3.84-.08c-.26,0-.52-.05-.77-.09,1,.13.2,0-.06,0-.51-.09-1-.2-1.53-.33s-1-.27-1.49-.43l-.8-.28c-.12-.05-1-.43-.4-.16s-.35-.17-.39-.19l-.59-.3c-.44-.23-.87-.48-1.29-.74s-.82-.54-1.23-.82c-.65-.44,0,0,.11.1-.25-.21-.51-.41-.75-.63a26.66,26.66,0,0,1-2.41-2.46c-.17-.19-.61-.82,0,0-.17-.22-.33-.44-.49-.67-.35-.5-.67-1-1-1.54s-.55-1-.8-1.49c-.1-.2-.19-.41-.29-.61-.45-.9.24.66-.09-.21a31.22,31.22,0,0,1-1.15-3.67,4.45,4.45,0,0,0-5.42-3.08,4.52,4.52,0,0,0-3.08,5.43Z"/><path class="cls-3" d="M85.11,357.21C82,369,83.05,383.78,93.3,391.94a27.28,27.28,0,0,0,21.55,5.44c7.2-1.06,13.9-4.71,19.43-9.34a52.29,52.29,0,0,0,14.77-20.62c.86-2.14-.94-4.93-3.08-5.42-2.55-.58-4.49.78-5.42,3.08-.5,1.25.37-.77-.19.46l-.51,1.11c-.35.74-.73,1.47-1.12,2.19a46.07,46.07,0,0,1-2.57,4.19c-.23.34-.47.67-.71,1,0,0-.85,1.13-.3.41-.5.65-1,1.28-1.56,1.9a47.63,47.63,0,0,1-3.41,3.55c-.59.56-1.2,1.11-1.82,1.64l-.9.75c-.95.8.71-.5-.31.24a45.32,45.32,0,0,1-3.87,2.55,38.27,38.27,0,0,1-3.84,1.93c.91-.39-.29.1-.39.14l-1.1.4c-.86.29-1.73.55-2.61.77-.69.17-1.38.32-2.08.44-.23,0-1.1.17-.16.05l-1.14.12a23.4,23.4,0,0,1-4.95-.1c.94.13.09,0-.15-.05l-.94-.19a21.66,21.66,0,0,1-2.22-.65c-.11,0-1.3-.52-.41-.13l-1.08-.51c-.64-.33-1.27-.7-1.89-1.09l-.86-.58c-.95-.62.67.59-.19-.14-.51-.43-1-.86-1.48-1.33s-.89-1-1.32-1.44,0,0,.09.13c-.26-.35-.51-.69-.74-1.05A13.14,13.14,0,0,1,94,378.43c.33,1.15-.14-.42-.25-.74-.25-.71-.46-1.43-.64-2.16s-.34-1.48-.47-2.23c0-.24-.31-1.29,0-.12a7.94,7.94,0,0,1-.11-1,35.91,35.91,0,0,1-.12-4.64c0-.72.07-1.44.14-2.16,0-.28,0-.56.09-.83s.05-.44.08-.66c-.09.62-.09.68,0,.18.26-1.53.56-3,1-4.54a4.41,4.41,0,0,0-8.5-2.34Z"/></g></svg>