<svg xmlns="http://www.w3.org/2000/svg" viewBox="0 0 800 800"><defs><style>.cls-1,.cls-2{fill:#e2d8e1;}.cls-1{stroke:#e2d8e1;stroke-miterlimit:10;stroke-width:2px;}</style></defs><g id="clean"><path class="cls-1" d="M535.05,589.05c-8-4.9-11.62-15.5-22.56-4.45a72.45,72.45,0,0,0-13.31,18.65c-1.42,2.87-2.68,5.88-4.75,8.33s-5.18,4.29-8.36,3.9c-8.52-1.05-10.27-20.35-11.67-26.49-1.86-8.15-5-16.73-12-21.27a17,17,0,0,0-5.94-2.37,101.89,101.89,0,0,1,11.35,24.74c2.62,8.51,4.06,18,2.92,26.95a4.72,4.72,0,0,1,1,.36c1.77.92,3,2.6,4.39,4,3.69,3.57,8.65,5.13,13.55,3.42,5.21-1.81,10.33-4.27,14.1-8.28,6.73-7.16,8.25-18.27,15.55-24.84s14.29,9.41,24.42,7.62a18.45,18.45,0,0,0,3.8-1.12A109.54,109.54,0,0,1,535.05,589.05Z"/><path class="cls-2" d="M536.56,586.46a20.61,20.61,0,0,1-2-1.44c-.75-.61-1.47-1.26-2.18-1.92a55.54,55.54,0,0,0-4.51-3.88,10.61,10.61,0,0,0-10.58-1.67c-5.18,2.12-9.11,7-12.47,11.29a81.06,81.06,0,0,0-9.15,14.87c-1.15,2.38-2.32,4.88-4.26,6.74a7.07,7.07,0,0,1-3.79,2.06c-.25,0-.51,0-.76,0-1,.06.2.1-.36,0-.33-.07-.63-.18-1-.28.79.24-.1-.07-.34-.22s-.68-.56-.22-.13a12.6,12.6,0,0,1-.91-.88l-.29-.33c-.5-.52.24.36,0,0s-.4-.58-.59-.88a21.23,21.23,0,0,1-1.23-2.31c-.09-.19-.18-.39-.26-.59.22.51,0,.08,0,0-.16-.43-.33-.85-.48-1.28-.31-.87-.58-1.76-.84-2.66-.51-1.8-.93-3.63-1.31-5.47-.6-2.93-1-5.89-1.64-8.82-2.34-11.09-7.89-23.6-20.14-26.19-2.43-.51-4.86,2.07-3.39,4.41a100,100,0,0,1,10.91,23.58c2.69,8.6,4,17.6,3,26.59a3,3,0,0,0,2.2,2.89c1.42.38,2.6,2,3.69,3.15a18.32,18.32,0,0,0,5,3.69,15.88,15.88,0,0,0,12.51.72,42.19,42.19,0,0,0,11-5.52,30,30,0,0,0,7.9-8.79c3.58-6,5.59-13.34,10.43-18.36.3-.31.61-.6.92-.89l.32-.29c-.42.38-.16.1,0,0l.66-.4c.29-.17-.22.08-.24.09l.48-.16c.38-.12.63-.05.07-.05h.67c.65,0-.4-.16.07,0,.25.08.52.12.78.2s.8.31.42.15.33.17.43.22c.52.27,1,.57,1.5.88,1,.67,2,1.4,3,2.14a34.25,34.25,0,0,0,7.92,4.8,14.75,14.75,0,0,0,11-.45c2.36-.94,3-4,.72-5.49a107.69,107.69,0,0,1-11.91-8.66,3.08,3.08,0,0,0-4.24,0,3,3,0,0,0,0,4.24,119.49,119.49,0,0,0,13.12,9.6l.72-5.48a20.38,20.38,0,0,1-2.93.94l-.65.14c-.69.15.41,0-.09,0a7.31,7.31,0,0,1-1.05.05c-.3,0-.6,0-.9-.05.6.05-.11,0-.34-.08a13.48,13.48,0,0,1-1.84-.57c.49.18-.05,0-.24-.11s-.62-.31-.93-.48c-.55-.29-1.08-.62-1.6-.95-1.09-.71-2.14-1.48-3.18-2.26-3.95-3-8.58-6.41-13.66-3.9-3,1.47-5.26,4.74-7,7.46a96.77,96.77,0,0,0-4.82,9.4,40,40,0,0,1-5.27,8.82,26.62,26.62,0,0,1-9.1,6.49c-3.62,1.68-7.39,3.14-11.23,1.55-4.13-1.72-6-6.45-10.45-7.61l2.2,2.89c1.15-9.45-.34-19.15-3.16-28.18a106.11,106.11,0,0,0-11.52-25l-3.38,4.41c10,2.12,13.89,12.67,15.88,21.69,1.41,6.38,2,12.92,4.53,19,1.33,3.22,3.13,6.55,6.25,8.35,4.49,2.59,10,.67,13.44-2.75a26.46,26.46,0,0,0,4.87-7.43c1.24-2.55,2.5-5.07,4-7.5A67.18,67.18,0,0,1,515,586.38a17.76,17.76,0,0,1,3.2-2.6,6.14,6.14,0,0,1,2.53-1c-.66.15.41,0,.66,0,0,0,.79.09.3,0s.42.12.5.14.3.11.44.14c.66.16-.45-.28.15.06.42.24.85.45,1.25.72.19.12,1.09.79.63.42.38.3.75.62,1.11.94.77.67,1.52,1.37,2.27,2.06a38.28,38.28,0,0,0,5.53,4.4C536.82,593.7,539.83,588.51,536.56,586.46Z"/><path class="cls-2" d="M458.23,568.46a22.46,22.46,0,0,1,2.63,1.35,13.15,13.15,0,0,1,2,1.46,15.81,15.81,0,0,1,3.29,3.81c.46.72.88,1.46,1.27,2.21.2.41.4.82.58,1.23a7.85,7.85,0,0,1,.41,1,50.18,50.18,0,0,1,1.7,5.34c1.88,7.26,2.83,14.7,4.92,21.92,1.1,3.77,2.69,7.54,6,9.92a11.39,11.39,0,0,0,11.56.92c3.3-1.67,5.68-4.91,7.53-8s3.2-6.25,4.71-9.43a49.57,49.57,0,0,1,6.49-10.32,29.83,29.83,0,0,1,4.77-4.66,16.57,16.57,0,0,1,2.84-1.68c-.38.17.22-.09.32-.12.29-.11.59-.2.89-.29l.6-.15.46-.09h.12a3.09,3.09,0,0,0,3-3,3,3,0,0,0-3-3c-8.89.87-15.24,9-19.47,16.16-1.66,2.8-2.94,5.79-4.35,8.73-.79,1.64-1.62,3.26-2.56,4.83-.44.73-.9,1.45-1.39,2.14l-.35.48c-.55.75.2-.23-.15.19s-.6.72-.92,1.06-.57.58-.88.86l-.4.34c.41-.35.1-.06,0,0-.32.21-.63.42-1,.6l-.44.23c-.2.09-.15.07.16-.06l-.34.12a10.23,10.23,0,0,1-1.06.26c.66-.12-.16,0-.42,0a6.86,6.86,0,0,1-2.27-.4c.37.14-.46-.23-.42-.21l-.48-.27-.45-.31c.41.31.05,0,0,0a11.77,11.77,0,0,1-.85-.88c-.34-.38.38.57-.11-.14l-.38-.58c-.23-.36-.43-.73-.62-1.1-.08-.16-.48-1.06-.29-.6-.35-.86-.64-1.75-.91-2.65-2.15-7.14-3.1-14.51-4.9-21.73-2.15-8.55-6.31-16.87-14.8-20.57a3.08,3.08,0,0,0-4.1,1.08c-.75,1.27-.42,3.45,1.07,4.1Z"/><path class="cls-2" d="M488,536.38c-3,13.9-12.48,26.68-27.91,26.32-5.79-.14-5.79,8.86,0,9,19.31.45,32.71-15.16,36.59-32.92,1.24-5.65-7.44-8.06-8.68-2.4Z"/><path class="cls-2" d="M492.26,540.55c1.09.58,2.23,4.81,2.76,6a101.66,101.66,0,0,0,5,9.63,159.32,159.32,0,0,0,11.49,16.73A115.64,115.64,0,0,0,524.6,587.1c2.35,2.15,4.37,4.63,6.73,6.76,1.34,1.2,4.37,2.3,5.3,3.61,2.22,3.12,7.42.13,5.18-3-1.43-2-3.38-2.65-5.32-4.11-2.63-2-4.65-4.72-7.06-6.94a121.18,121.18,0,0,1-14.95-16.34,130.53,130.53,0,0,1-11.93-18.65c-1.87-3.68-3.3-11-7.27-13-3.42-1.78-6.45,3.4-3,5.18Z"/></g></svg>