<svg xmlns="http://www.w3.org/2000/svg" viewBox="0 0 800 800"><defs><style>.cls-1,.cls-2{fill:none;}.cls-2,.cls-3{stroke:#e2d8e1;stroke-miterlimit:10;stroke-width:2px;}.cls-3,.cls-4{fill:#e2d8e1;}</style></defs><g id="clean"><path class="cls-1" d="M445.76,408.49C437,426,437,446,439,465c1,7,3,14,9,16,8,4,12-6,18-11s12,0,17,5c2,1,5,0,8-1,20-10,40-21,55.59-37.29"/><path class="cls-1" d="M553.29,461.53a137.75,137.75,0,0,1-3.68-14.28c-14.1,14.69-32.58,25.9-50.9,33.9q-4.9,2.14-9.76,4a5.79,5.79,0,0,0-2.34,1.33,5.49,5.49,0,0,0-1.1,2.79,21.82,21.82,0,0,0-.17,8.63c1.14,5.22,6.22,9.76,11.82,7.87,3-1,5.08-3.73,6.44-6.58,2.6-5.44,3.84-12.12,8.81-16.08,5.76-4.6,11.43-2.22,14.53,3.89,6.76,13.37,6.58,29,9.87,43.65,1.55,6.89,8,8.77,13.56,4.28a19,19,0,0,0,5.19-7.41c4.88-11.23,4.14-23.86,4.45-35.82.12-4.59.22-9.22.46-13.84A72.5,72.5,0,0,1,553.29,461.53Z"/><path class="cls-2" d="M219.21,516.3c15.66,25.82,36.66,44.82,61.66,63.82,2,1,4,1,6,2,7,4,12,9,20,13,32,12,65,22,99,27,21,2,42,3,61.95-1.86-2.19-3.15-3.63.86,0,0-1.95-1.14-3.95-3.14-5.95-4.14-5-2-11-3-16-6-6-3-12-2-18-3-28-1-57-2-82-20a55,55,0,0,0-6.69-2.55,4.67,4.67,0,0,1,2.93.64,4.4,4.4,0,0,1-2.93-.64c2.69.55,5.69,1.55,8.69,1.55,16-1,30,7,45,11,4,2,9,2,13,3,9,0,18-1,27,0,22,3,44,6,66,6,4-7-1-17-8-20-7-2-12,2-18,6-5,4-9-2-11-6-3-10-5-24-17-26-10,3-8,15-9,23-1,4-3,8-7,10s-8,1-12-1c-20-10-27-32-36-51-1-2-2-4-4-5a4.81,4.81,0,0,0-6,2c-2,6,1,12,0,18-1,5-6,8-10,8-18-2-33-18-36.13-35.77l0,2.13q0-1.07,0-2.13c-.87,5.77,4.13,19.77-5.87,18.77-5-1-8-6-11-10-11-17-10-35-11.57-53.49"/><path class="cls-2" d="M443,406.36a41.05,41.05,0,0,1-4.23-4.11,113.11,113.11,0,0,0-9.15,38.21C427,448,430,455,430,463c1,10,6,19,14,24,10,6,18-4,25-10,3-2,9-2,10,3,2,9-2,19,5,27,4,4,10,7,16,5,7-2,10-9,11-16,1-4,5-6,8-5,3,2,4,5,5,8a251.23,251.23,0,0,1,4,27c1,7,2,15,8,19a15.35,15.35,0,0,0,16,0c18-14,16-37,15.59-56.86"/><path class="cls-3" d="M674,467.82a17.24,17.24,0,0,1-5.42.84A252.09,252.09,0,0,1,656,501.78c-4,8.68-5.08,34.68-19.4,25-8.26-5.61-20.82-3.38-26.65,4.73-9.93,13.82-12.58,36.31-18,52.23-1.28,3.76-2.63,7.6-5.19,10.64s-6.61,5.14-10.48,4.28c-11.43-2.52-14.26-19.27-27.06-6.33a72.45,72.45,0,0,0-13.31,18.65c-1.42,2.87-2.68,5.88-4.75,8.33s-5.18,4.29-8.36,3.9c-8.52-1-10.27-20.35-11.67-26.49-1.86-8.15-5-16.73-12-21.27a18.92,18.92,0,0,0-16.23-1.64c-5.33,1.85-6.87,7.5-12.69,5.4-4-1.43-6.69-8.47-8.58-11.82a63.31,63.31,0,0,0-8.46-11.66c-2.78-3-6.25-6-10.36-6-3.49-.06-6.75,2.07-8.87,4.86a28.42,28.42,0,0,0-4.21,9.54c-1.82,6.42-4.36,25.5-14.85,16.52a54.15,54.15,0,0,1-11.22-13.33c-7.18-12-10.71-26.83-20.79-37.08-3.6-3.66-9.35-6-13.91-3.63-4.79,2.48-6,8.67-6.54,14-1.79,18-14.6,15.84-22.54,2.2a155.19,155.19,0,0,1-8-15.5c-7.1-16.17-10.69-2.93-15.92,5.34-1.69-.53-2.46-2.44-3-4.13-4.18-13.16-5.47-26.88-6.79-40.55-.57-5.89-.63-13-1.41-19.8-.78-.52-1.57-1-2.37-1.49l-1.59-.46h0a5.77,5.77,0,0,1-.54.25l-.47.19c-.16,1.15-.33,2.29-.57,3.42a57.82,57.82,0,0,1-3.4,11c.05.89.09,1.79.15,2.68,1,15.63,3.76,31.2,9.63,45.8,2.78,6.89,7.08,13.49,13.51,17.17h.7l.73.7c1.34.5,2.83.61,3.72-.4a4.31,4.31,0,0,0,.69-2.94q-.1-7.87-.2-15.74c.16,12.38,24.36,40.1,39.36,35a11.51,11.51,0,0,0,4.46-2.83c5.54-5.57,1.22-12,1.5-18.56.26-6.14,5.23-7,9.26-2.91a24,24,0,0,1,4.16,6.68c7.77,16.28,22.26,49,45.06,46.73,11-1.09,5.41-19.23,9.18-26,1.93-3.45,5.64-6.54,9.49-5.64,2.84.66,4.76,3.26,6.34,5.72,4.91,7.68,7.32,17.82,12.52,25,1.17,1.61,3.28,2.72,5.17,2.11,1.65-.53,2.66-2.11,3.83-3.38,3.55-3.85,12.55-5.24,18.71-.92,5.11,3.59,7.45,10.51,5.68,17.17-3.2,0-6.4,0-9.6,0-2.33,0-4.17-.74-6.43-.77-5.54-.08-11.22.52-16.57-.69-2.95-.67-5.82-.57-8.75-1.06-2.67-.44-5.3-.91-8-1.33-1.25-.19-2.49,0-3.76-.22s-2.52-1-3.79-1.26a39.41,39.41,0,0,0-8.54-.94,40.22,40.22,0,0,0-7,.18,24.56,24.56,0,0,1-8.67.54,49.11,49.11,0,0,0-9.26-.72c-2.56,0-4.89-.68-7.42-.78a21.15,21.15,0,0,1-6-1.55c-2.65-.88-5.25-1.37-7.93-2.15-3-.85-5.67-1.39-8.6-2.39-2.16-.74-4.25-1.53-6.38-2.33-3-1.11-6.19-1.91-9.23-2.74a51.71,51.71,0,0,0-8.66-1.33c-5.31-.57-10.28-2.36-15.68-2.4,5.21,2.49,11.33,3.6,15.57,7.62s10.53,6.15,16,8a35.92,35.92,0,0,0,4.88,1.33c2.74.52,5.53.64,8.28,1.07,4.57.72,9,2.13,13.54,3a116.94,116.94,0,0,0,15.27,1.7c3.87.19,7.75-.16,11.62,0a77.69,77.69,0,0,1,8.77.44,55.39,55.39,0,0,1,5.89,1.65c5.16,1.43,11,1.77,15.28,5.07a19.39,19.39,0,0,0,7.34,3.23c2.07.52,3.89,1.76,6.1,1.4L468,621l-1,.16c-37.23,5.67-71.07-2.31-107.11-8.41a40.24,40.24,0,0,1-6.9-2.05c-19-6.8-39.59-11.1-57.09-21.77a251,251,0,0,1-76.8-74,76.09,76.09,0,0,1-11.43-3.76c1.45,2.26,2.94,4.5,4.45,6.72,2.76,4,6.06,8.06,9.17,11.85,2.85,3.47,5.33,6.6,8.85,9.4,3.79,3,6.79,6.69,10.18,10.1,3.69,3.71,7.57,7.18,11.27,10.89a111.43,111.43,0,0,0,9.93,9.12c3.21,2.5,6.16,5.1,9.46,7.51a59.36,59.36,0,0,1,7.84,6.27c4.6,4.71,10.75,8,16.42,11.12,31.36,17.45,66.95,23.82,101.11,33.52,21.39,6.08,46.46,4.36,68.39,3.1,8.83-.5,18.1-.78,26.82-2.44,4.25-.81,12.93-5.3,16.93-3.23,1.77.92,3,2.6,4.39,4,3.69,3.57,8.65,5.13,13.55,3.42,5.21-1.81,10.33-4.27,14.1-8.28,6.73-7.16,8.25-18.27,15.55-24.84s14.29,9.41,24.42,7.62c5.75-1,10.7-4.84,14.28-9.44,5.52-7.09,8.88-15.8,11-24.47,2.4-10,3.87-20.46,8.4-29.74a27.34,27.34,0,0,1,7.75-10.09c2.15-1.61,4.87-2.78,7.5-2.22,8.32,1.76,11.57,18.58,22.38,6.15,3.41-3.92,4.67-9.19,6.25-14.13,5.72-17.89,15.33-33.71,19.32-52.22q.54-2.51,1-5A21.93,21.93,0,0,1,674,467.82Z"/><path class="cls-4" d="M560.47,477.84c-.24,4.62-.34,9.25-.46,13.84-.31,12,.43,24.59-4.45,35.82a19,19,0,0,1-5.19,7.41c-5.58,4.49-12,2.61-13.56-4.28-3.29-14.61-3.11-30.28-9.87-43.65-3.1-6.11-8.77-8.49-14.53-3.89-5,4-6.21,10.64-8.81,16.08-1.36,2.85-3.46,5.57-6.44,6.58-5.6,1.89-10.68-2.65-11.82-7.87a21.82,21.82,0,0,1,.17-8.63,5.49,5.49,0,0,1,1.1-2.79,5.79,5.79,0,0,1,2.34-1.33q4.85-1.83,9.76-4c18.32-8,36.8-19.21,50.9-33.9-.79-3.86-1.44-7.77-2-11.69q-.92,1-1.86,2c-9.12,9.5-20.07,17-31.43,23.54-5.6,3.24-11.32,6.25-17.07,9.22-4.47,2.32-11.52,8.3-16.33,3.43-1.29-1.31-2-3.12-3.36-4.33A6.92,6.92,0,0,0,472,468a12.25,12.25,0,0,0-5.39,2.48c-6.91,5.16-16.19,19.74-23.21,6.62-3.85-7.19-4.53-16.47-5-24.48-.66-11.29.14-22.75,3.4-33.59a81.73,81.73,0,0,1,4-10.52c-.94-.68-1.85-1.39-2.74-2.13a42.09,42.09,0,0,1-4.23-4.11,111.75,111.75,0,0,0-9.08,52c.07,1,.17,2.1.3,3.29,0,.39.08.8.14,1.21.15,1.23.33,2.53.56,3.87L431,464c.15.8.31,1.61.49,2.43,0,.06,0,.12,0,.17s0,.15,0,.23a61.35,61.35,0,0,0,1.85,6.68v0a66,66,0,0,0,10.07,14.39,12,12,0,0,0,4.3,1.4c8.17,1.06,16.49-7.8,22.43-12.31a7,7,0,0,1,2-1.18,4.38,4.38,0,0,1,4,.92,8.54,8.54,0,0,1,2.35,3.49c2.94,7.4.15,15.85,3.49,23.15,3.59,7.85,14.57,11.42,21.84,6.4,4.9-3.39,5.45-10.3,8.28-15.55,1-1.84,2.73-3.71,4.8-3.39,4.3.65,7.06,8.39,8,11.91,1.3,4.68,1.64,9.56,2.19,14.39s1.35,9.69,2.36,14.47a29.26,29.26,0,0,0,2.93,8.74c3.92,6.77,12.75,8,19.31,4.35a23.1,23.1,0,0,0,7.94-8c9.47-15,8.5-32.76,7.87-50.38A37.3,37.3,0,0,1,560.47,477.84Z"/><path class="cls-4" d="M469.25,617.72l-2.05.34a2.39,2.39,0,0,0-1,.54,2.31,2.31,0,0,0-.77.84,3.29,3.29,0,0,0-.3,2.31l.3.72a3.1,3.1,0,0,0,1.08,1.08l.71.3a3.1,3.1,0,0,0,1.6,0l2.05-.34a2.2,2.2,0,0,0,1-.54,2.23,2.23,0,0,0,.77-.84A2.25,2.25,0,0,0,473,621a2.2,2.2,0,0,0-.06-1.19l-.3-.72a3,3,0,0,0-1.07-1.07l-.72-.31a3.1,3.1,0,0,0-1.6,0Z"/><path class="cls-4" d="M496.57,605.72c-.14.52-.31,1-.49,1.53a2.3,2.3,0,0,0-.06,1.19,2.25,2.25,0,0,0,.36,1.12,2.31,2.31,0,0,0,.77.84,2.2,2.2,0,0,0,1,.54l.8.11a3.12,3.12,0,0,0,1.52-.41l.6-.47a3,3,0,0,0,.77-1.33,16,16,0,0,0,.49-1.53,2.19,2.19,0,0,0,.06-1.19,2.28,2.28,0,0,0-.36-1.12,2.23,2.23,0,0,0-.77-.84,2.39,2.39,0,0,0-1-.54l-.8-.1a2.86,2.86,0,0,0-1.51.41l-.61.46a3,3,0,0,0-.77,1.33Z"/><path class="cls-4" d="M320.62,544.15c-6.37-3.72-10.23-10.36-12.83-17.07a132.47,132.47,0,0,1-7-26.25c-.9-5.44-1.47-10.92-1.84-16.41a3.07,3.07,0,0,0-3-3,3,3,0,0,0-3,3,168.05,168.05,0,0,0,4.85,31.22c2.15,8.19,4.8,16.8,9.56,23.88a31.59,31.59,0,0,0,10.18,9.81c3.34,1.95,6.36-3.24,3-5.18Z"/><path class="cls-4" d="M499.83,603.52h-.37a2.26,2.26,0,0,0-1.15.25,2.31,2.31,0,0,0-1,.62,2.34,2.34,0,0,0-.62,1,2.3,2.3,0,0,0-.26,1.16l.11.79a3,3,0,0,0,.77,1.33l.61.47a3.05,3.05,0,0,0,1.51.41h.37a2.32,2.32,0,0,0,1.16-.26,2.25,2.25,0,0,0,1-.62,2.28,2.28,0,0,0,.62-1,2.19,2.19,0,0,0,.26-1.15l-.11-.8a3,3,0,0,0-.77-1.33l-.6-.46a2.92,2.92,0,0,0-1.52-.41Z"/><path class="cls-4" d="M287.41,546.72a168.8,168.8,0,0,1-27.7-25.31,3,3,0,0,0-4.24,0,3.06,3.06,0,0,0,0,4.24,175.25,175.25,0,0,0,28.91,26.25,3,3,0,0,0,4.11-1.08,3.07,3.07,0,0,0-1.08-4.1Z"/><path class="cls-4" d="M325.86,571.55a28.82,28.82,0,0,1-10.44-4.07c-.8-.51-1.59-1.05-2.35-1.62l-.15-.11-.61-.5c-.37-.31-.73-.62-1.08-.94-.74-.68-1.45-1.39-2.12-2.13a23.49,23.49,0,0,1-1.64-2,3.1,3.1,0,0,0-4.11-1.07,3,3,0,0,0-1.07,4.1,36,36,0,0,0,22,14.11,3.08,3.08,0,0,0,3.69-2.1,3,3,0,0,0-2.1-3.69Z"/><path class="cls-4" d="M216,517.61a223,223,0,0,0,33.7,41.9c13.46,13,28.53,24.62,45.17,33.3s34.62,14.71,52.81,19.42c9.17,2.37,18.4,4.45,27.64,6.51,10.16,2.26,20.34,4.49,30.62,6.16a186.46,186.46,0,0,0,30.83,2.75c2.49,0,5-.1,7.47-.25s4.94-.59,7.42-.71,4.8,0,7.2-.09,5.05-.06,7.2-.93c1.71-.69,2.62-2.06,3.88-3.29a3,3,0,0,0-1.32-5,5.33,5.33,0,0,0-4.55.18,3.53,3.53,0,0,0-1.34,4.44,3.91,3.91,0,0,0,3.56,2.36,5.14,5.14,0,0,0,4.12-2.57c1.12-1.56,0-4-1.79-4.41-7.74-1.86-15.45-4.53-21.71-9.6a5.92,5.92,0,0,0-3.53-1.68l-3.49-.31-6.71-.61c-4.39-.41-8.77-.84-13.15-1.33-17.57-2-35.14-4.9-51.89-10.7a144.59,144.59,0,0,1-13.75-5.54c-2.32-1.09-4.61-2.23-6.87-3.44a9.39,9.39,0,0,0-1.85-.92,9,9,0,0,0-2.08-.12,3.71,3.71,0,0,1-2.29-.67l-2.12,5.13a1.81,1.81,0,0,1,1.41.34l1.52-5.59a2.55,2.55,0,0,1-1.41-.34l-2.32,5.48c5,1.55,10.32.7,15.25,2.39,5.67,1.93,11.5,3.51,17.28,5.09a291.58,291.58,0,0,0,34.69,7.39,186.93,186.93,0,0,0,35.61,1.95,16.9,16.9,0,0,1,2.13-.12,9.38,9.38,0,0,1,1.87.43c1.51.38,3,.74,4.55,1.06,2.92.63,5.86,1.15,8.82,1.58,5.94.86,11.92,1.42,17.91,1.8s11.76.6,17.64.9c1.4.07,3.18.46,4.54.08s2.54-1.9,3.35-3a11.85,11.85,0,0,0,2.1-6.16c.29-4.36-1.78-8.73-4.74-11.83-3.27-3.43-8-5-12.71-5.27a21.08,21.08,0,0,0-13.39,4.12c-1.41,1-2.88,2.95-4.49,2.35a6.85,6.85,0,0,1-3.36-3.74c-2.59-6.82-4.1-14.39-8.51-20.37a19.66,19.66,0,0,0-9.19-7.1,10.34,10.34,0,0,0-7-.36,10.23,10.23,0,0,0-5.32,4.53c-2.2,3.72-2.18,8.33-2.41,12.52-.21,3.62-.34,7.41-2,10.39a9.13,9.13,0,0,1-3.57,3.45l1.51-.41a28.22,28.22,0,0,1-10.22-1.74,14,14,0,0,1-1.8-.74c-.76-.37-1.51-.76-2.24-1.19s-1.35-.82-2-1.27A15.64,15.64,0,0,1,411,583c-5.35-4.42-8.81-9.66-12.26-15.67C395.1,561,392,554.35,388.46,548a100.63,100.63,0,0,0-5.57-9.1,21.22,21.22,0,0,0-3.51-4.41,6.44,6.44,0,0,0-7.14-.93c-4.83,2.42-5.65,8.66-5.66,13.44,0,3,.42,6,.13,9.06a6.61,6.61,0,0,1-.88,3.29,3.59,3.59,0,0,1-2.53,1.1c-1.6.22-2.48,2.28-2.09,3.69.47,1.74,2.08,2.32,3.69,2.1a9,9,0,0,0,6.14-3.87c1.63-2.39,1.78-6,1.76-8.77s-.34-5.41-.18-8.11c.12-2.15.18-3.66,1.21-5.35a3.36,3.36,0,0,1,1.17-1.26c-.54.26.81-.33.15-.05-.35.15-.11-.18.09,0-.22-.23.17.1.2.12a6.1,6.1,0,0,1,1.36,1.67c.56.76,1.1,1.54,1.63,2.32,2,3,3.78,6.07,5.48,9.21,6.72,12.39,12.31,26.86,23.76,35.78a33.1,33.1,0,0,0,20.84,7.19c2.37,0,4.66-2.11,6.1-3.88a16.82,16.82,0,0,0,3-5.77c1.19-3.92,1.19-8.13,1.46-12.18.2-3.13.34-7.88,3.55-9,1.44-.49,3.35.36,4.42.9a11.63,11.63,0,0,1,3.85,3,19.1,19.1,0,0,1,2.71,4,35.55,35.55,0,0,1,2.14,4.74c1.32,3.46,2.34,7,3.61,10.48,1.63,4.44,5.14,9.21,10.43,9a8.46,8.46,0,0,0,3.8-1.11,27.76,27.76,0,0,0,3-2.41,15.53,15.53,0,0,1,5.73-2.68c3.68-.89,8.54-.46,11.62,2a12.37,12.37,0,0,1,3.24,4.1,8.74,8.74,0,0,1,.92,4.71,6.3,6.3,0,0,1-2.37,4l2.12-.88c-10.51-.58-21.06-.83-31.54-1.92a142.53,142.53,0,0,1-15.51-2.45c-2.72-.59-5.49-1.71-8.28-1.55q-3.85.22-7.72.26c-21.12.18-42-3.79-62.31-9.31-5.71-1.55-11.47-3.08-17.06-5-5-1.72-10.45-.89-15.47-2.47-3.22-1-5.33,3.89-2.31,5.49a8.74,8.74,0,0,0,4.44,1.16,3,3,0,0,0,1.51-5.59,7.31,7.31,0,0,0-4.44-1.16c-2.4.07-4.21,3.35-2.12,5.12,2.31,1.95,4.86,2.43,7.81,2.43l-1.51-.41c24,13.09,50.78,18.29,77.66,21.23,7.61.84,15.23,1.51,22.85,2.18l-2.12-.88c7.31,6.2,16,9.69,25.27,11.91l-1.79-4.41c.17-.23.06-.06-.07,0a2,2,0,0,1,.64-.37,2.06,2.06,0,0,1,2.42,1.25,2.57,2.57,0,0,1-1.66,3.22c-.31.08-.49-.13-.36,0a5.13,5.13,0,0,0,.82.25l-1.32-5c-.49.48-.88,1-1.35,1.53a2.58,2.58,0,0,1-.52.46c-.34.18-.09,0-.05,0a8.44,8.44,0,0,0-.93.13,42,42,0,0,1-6.73.35c-4.85,0-9.61.71-14.46.91a159.65,159.65,0,0,1-29.22-1.66c-10.16-1.46-20.23-3.53-30.25-5.75-9.06-2-18.13-4-27.15-6.22-17.61-4.33-35.09-9.58-51.49-17.44a163,163,0,0,1-24.48-14.26,224.31,224.31,0,0,1-20.66-16.73,213.32,213.32,0,0,1-33.59-39.25c-1.24-1.86-2.46-3.74-3.64-5.64-2.05-3.26-7.24-.25-5.18,3Z"/><path class="cls-4" d="M317.59,549.33l.69.38c.48.22,1,.43,1.45.61a2.33,2.33,0,0,0,1.2,0,2.27,2.27,0,0,0,1.12-.35,2.33,2.33,0,0,0,.84-.78,2.27,2.27,0,0,0,.53-1l.11-.79a3,3,0,0,0-.41-1.52l-.47-.61a3,3,0,0,0-1.32-.77l-.35-.13.71.3a9.8,9.8,0,0,1-1.07-.55,2.28,2.28,0,0,0-1.12-.36,2.33,2.33,0,0,0-1.2.05,2.39,2.39,0,0,0-1,.54,2.31,2.31,0,0,0-.77.84l-.3.72a3.06,3.06,0,0,0,0,1.59l.3.72a3.1,3.1,0,0,0,1.08,1.08Z"/><path class="cls-4" d="M673.2,464.92a16.83,16.83,0,0,1-4.62.74,3.07,3.07,0,0,0-2.89,2.2q-3.2,10.61-7.3,20.9c-2,5-4.69,9.92-6.32,15.11-2,6.44-2.57,14.26-6.57,19.9-1.42,2-2.74,2.63-5.12,1.65-2-.82-3.66-2.25-5.66-3.09a22.38,22.38,0,0,0-8-1.7,23.56,23.56,0,0,0-14.35,4.31c-4.48,3.24-7.33,8.15-9.64,13.08-4.92,10.53-7.37,22-10.26,33.14-1.47,5.68-2.9,11.63-5.38,17-2.19,4.72-6.52,9.38-12.12,6.93-6.62-2.91-10.62-12-18.92-10.44-5.11.94-9.06,5.42-12.28,9.17a78.66,78.66,0,0,0-11.14,17.08c-1.6,3.3-5.79,12-10.73,8.84-2.77-1.76-3.93-6-4.77-8.93-2.41-8.34-2.87-17-6.3-25.06-2.27-5.32-5.72-10.33-10.81-13.29a21.93,21.93,0,0,0-17.22-1.78,18.74,18.74,0,0,0-6.53,3.8c-1.36,1.14-2.7,2.55-4.61,2s-3.27-2.87-4.25-4.57c-1.29-2.22-2.32-4.59-3.61-6.81-5.41-9.34-16.86-24.67-28.91-15.68-7.75,5.79-8,16.16-10.89,24.59a17.62,17.62,0,0,1-2,4.35,5.44,5.44,0,0,1-1.19,1.31,1.18,1.18,0,0,1-.83.28c-1.26-.14-2.69-1.24-3.84-2.27a51.4,51.4,0,0,1-6.76-7.31c-7.37-9.78-10.62-21.89-16.83-32.34C389.64,533.15,386,527.89,381,525c-5.12-3-11.71-3.38-16.23.92-4,3.79-4.77,9.54-5.38,14.71-.38,3.22-1.27,8.58-4.77,9.76-2.69.91-5.89-1.41-7.89-3.4-4.11-4.08-6.71-9.76-9.28-14.87-2.33-4.63-4.13-12-9-14.67-3.57-2-6.83.3-8.94,3.18-2.4,3.27-4,7.08-6.12,10.52l4.11-1.07c-2.07-.88-2.5-5.2-3-7.08-.84-3.18-1.54-6.38-2.13-9.61-1.23-6.64-2-13.34-2.65-20.05-.63-6.3-1-12.6-1.38-18.91-.19-2.73.28-7-2-8.83-2.13-1.7-4.73-2.83-7.32-1.81a3,3,0,0,0-2.1,2.09,58.71,58.71,0,0,1-3.14,12.38,12.3,12.3,0,0,0-.76,6q.21,3.26.53,6.51a159.69,159.69,0,0,0,4.29,24.76c2,7.54,4.38,15.37,8.38,22.1,3.1,5.22,8.51,12,14.91,13.09,4.4.76,6.8-2.54,6.84-6.57.05-5.25-.13-10.5-.2-15.74h-6c.24,8.12,5.92,15.88,10.95,21.81,5.81,6.84,13.49,13.68,22.36,16.06,4.18,1.12,8.76,1,12.57-1.23,6-3.51,7.38-9.48,6.31-15.91-.36-2.2-2.59-12.76,2.63-8.54,2.28,1.84,3.47,4.87,4.7,7.45.88,1.84,1.75,3.69,2.64,5.54,4.24,8.79,8.83,17.48,14.82,25.23,5.63,7.27,13,14.32,22.33,16.22,4.12.84,9.3,1.18,12.86-1.46,3.4-2.52,4.37-6.77,4.81-10.76s.1-8.11.79-12.08c.72-4.14,5.37-9.64,9.46-5.3,4.32,4.59,6.44,11.47,8.9,17.14,2.16,5,5,13.06,11.05,14.15,3.24.58,5.63-1.24,7.63-3.54a9.65,9.65,0,0,1,6.1-3.28c5.58-.91,11.27,1.72,13.43,7.09a14.33,14.33,0,0,1,.49,8.78l2.89-2.2-7.85,0c-2.78,0-5.42-.64-8.18-.76-5.3-.24-10.5.4-15.77-.59-2.59-.48-5.19-.63-7.8-.93-3-.35-5.94-1.05-8.93-1.46-1-.14-2-.13-3.05-.2a12.24,12.24,0,0,1-3.37-.92,30.1,30.1,0,0,0-7.89-1.32,59.09,59.09,0,0,0-7.87-.11c-2.92.19-5.73,1.11-8.68.93-2.39-.14-4.75-.67-7.15-.82-2.69-.15-5.3-.12-8-.5a37.59,37.59,0,0,1-7-1.29c-2.67-.91-5.37-1.57-8.09-2.3-5.26-1.4-10.41-2.88-15.51-4.79a72.79,72.79,0,0,0-17.72-4.29c-5.86-.62-11.54-2.44-17.45-2.58-2.84-.07-4.27,4.31-1.51,5.59,3.74,1.73,7.79,2.81,11.45,4.74s6.28,5,9.92,6.85a75.78,75.78,0,0,0,12.1,4.75c4.47,1.39,9.1,1.43,13.66,2.31,4.87.93,9.61,2.34,14.51,3.1a111.92,111.92,0,0,0,14.73,1.4c4.76.1,9.51-.09,14.27,0s8.89,1.77,13.47,2.75a59.34,59.34,0,0,1,6.83,1.72c2.26.78,3.94,2.26,6,3.4a29.35,29.35,0,0,0,6.2,2.33c2.33.67,4.41,1.73,6.9,1.51l-2.89-2.21.3,1.91,2.09-3.69c-20,3.42-40.75,2.18-60.74-.57-10-1.37-20-3.13-29.93-4.9-5-.89-10-1.75-14.94-2.63-4.69-.82-9.09-2.7-13.6-4.2-18.24-6-36.78-10.79-53.22-21.11a241.51,241.51,0,0,1-42.34-33.93A255.44,255.44,0,0,1,232,527.56c-3.1-4-6.07-8-8.92-12.19-.7-1-1.34-2.39-2.42-3s-2.8-.83-4.07-1.2a79.89,79.89,0,0,1-8.08-2.86c-2.45-1-4.72,2.34-3.38,4.4a177.91,177.91,0,0,0,10.76,15.09c3.6,4.48,7.12,9.23,11.53,13,4.56,3.85,8.42,8.31,12.69,12.46s8.65,8.42,13,12.6a177.23,177.23,0,0,0,13.71,11.51c2.23,1.75,4.58,3.32,6.8,5.07s4.33,4.09,6.67,5.94a101,101,0,0,0,14.22,8.84c5.17,2.83,10.49,5.4,15.91,7.73,21.53,9.26,44.3,14.87,66.91,20.76,11.09,2.88,22,6.45,33.43,8,11.67,1.55,23.47,1.58,35.21,1.13s23.6-.93,35.31-2c5.06-.47,10.17-1,15-2.65,1.95-.66,3.89-1.37,5.88-1.9,1.42-.38,3.41-1,4.87-.49,2.11.78,3.73,3.61,5.53,5a16.45,16.45,0,0,0,7.3,3.27c5.37.89,10.75-1.46,15.38-4a29.85,29.85,0,0,0,11.22-10.58c2.5-4,4.19-8.46,6.43-12.62,1.25-2.32,4.1-8,7-7.93,2.34,0,5.26,2.8,7.2,4.24,2.77,2.06,5.77,4.11,9.22,4.79,4.54.89,9.28-.8,13.08-3.25,9.3-6,14.6-17,17.76-27.22,3.45-11.14,4.26-23.12,9.24-33.77,2-4.34,5.25-10.12,10.24-11.5,3.15-.88,5.4,1.66,7.36,3.75s4,4.56,6.65,5.89a9.09,9.09,0,0,0,9.37-.9c8.83-6.08,10.27-18,13.86-27.28,4.13-10.7,9.24-21,13-31.87a134.08,134.08,0,0,0,4.45-17.09,3,3,0,0,0-4.41-3.38,21.44,21.44,0,0,1-3.67,1.7c-3.62,1.26-2.06,7.06,1.6,5.79a29.63,29.63,0,0,0,5.1-2.31L675.49,465a165.77,165.77,0,0,1-10.55,32.54c-2.28,5.32-4.62,10.62-6.71,16-1.93,5-3.34,10.07-5.14,15.07-1.28,3.55-3.84,8.82-7.86,10-1.76.5-3.46-1.22-4.94-2.76-2.15-2.24-4.12-4.72-6.81-6.35-3.76-2.29-8.15-1.89-11.87.33-9.31,5.55-13.05,17.84-15.45,27.7-2.68,11-4.27,22.33-9.9,32.37-3.65,6.52-12.1,17.39-20.86,13.37-5.52-2.52-10.47-9.67-17.22-8.28-4,.82-6.91,4.84-9,8.08-2.47,3.89-4.15,8.21-6.28,12.28-2.36,4.51-5.29,8.22-9.73,10.84-4.19,2.47-9.64,5.25-14.51,3.24-4.46-1.83-6.43-7.13-11.49-7.78-4.07-.52-8.22,1.15-12,2.44-10.15,3.48-21.45,3.15-32.05,3.76-22.63,1.31-45.54,2.65-67.62-3.54s-44.65-11.08-66.4-18.59A205,205,0,0,1,297.52,592c-4.66-2.56-9.48-5.06-13.63-8.4-2.11-1.71-3.92-3.75-6.05-5.45-2.43-1.94-5-3.66-7.47-5.59-9.25-7.29-17.63-15.37-26.05-23.58-4-3.95-7.68-8.3-12-11.94s-8-8.3-11.62-12.79a170.85,170.85,0,0,1-10.38-14.56l-3.39,4.4a82.2,82.2,0,0,0,11.43,3.77l-1.79-1.38c20,29.67,46,55.35,76.54,74.23,16.07,10,34.36,14.68,52.15,20.5,4.21,1.38,8.38,3.22,12.71,4.2,4.87,1.1,9.9,1.75,14.82,2.62,9.82,1.75,19.65,3.51,29.52,4.93,22,3.17,44.51,4.7,66.53.94,1.72-.3,2.32-2.23,2.09-3.69l-.3-1.91a3,3,0,0,0-2.89-2.2c-1.88.16-3.53-.78-5.3-1.3a20.52,20.52,0,0,1-5.71-2.29,32.19,32.19,0,0,0-11.13-4.68c-4.13-.92-8.27-2.49-12.44-3.08a84.91,84.91,0,0,0-13.72-.44,113,113,0,0,1-28.78-3.3c-4.58-1.1-9.18-1.42-13.8-2.23a57,57,0,0,1-12.33-4,31,31,0,0,1-6-3.26c-1.77-1.29-3.25-2.88-5.13-4-4-2.41-8.53-3.51-12.71-5.44l-1.51,5.59c5.31.12,10.42,1.79,15.68,2.4a75.71,75.71,0,0,1,15.45,3.38c5.27,1.76,10.38,3.59,15.74,5,2.49.68,5,1.26,7.49,2s4.77,1.73,7.33,2,4.92.71,7.37.83c2.84.14,5.62.09,8.45.49a27,27,0,0,0,7.29.22,56.38,56.38,0,0,1,8.31-.72,49.89,49.89,0,0,1,7.82.53c2.54.44,4.81,1.66,7.4,1.81,5.29.3,10.55,1.43,15.84,2,3.06.32,6,1.08,9.1,1.23s6.15,0,9.23,0c2.78,0,5.42.71,8.18.78,3.2.08,6.41,0,9.6,0a3,3,0,0,0,2.89-2.21A19.75,19.75,0,0,0,498.79,590a18,18,0,0,0-15.67-6.18,17.58,17.58,0,0,0-7.76,2.43,12.92,12.92,0,0,0-2.84,2.42c-.7.79-1.54,2.33-2.74,2.12s-2.16-2.23-2.71-3.15c-.84-1.39-1.58-2.82-2.28-4.28-1.45-3-2.69-6.1-4-9.16-2.29-5.28-5.12-12.46-10.51-15.34-5.82-3.1-12.26.84-15.13,6.13-1.9,3.51-1.91,7.77-2.05,11.65-.12,3.44.21,8.07-1.79,11.08-1.84,2.79-6.55,2-9.38,1.35a26.88,26.88,0,0,1-11.27-6.16c-7.46-6.53-12.73-15.28-17.32-24-2.08-3.92-4-7.92-5.91-11.93-2.34-4.92-4.68-10.79-10.16-12.91s-9.64,1.91-10.14,7.16,3.57,12.36-.39,16.82c-6.2,7-16.87,0-22.21-4.55-6.5-5.49-13-12.83-15.86-21a14.28,14.28,0,0,1-.91-4.17c-.11-3.85-6.05-3.88-6,0q.11,7.39.19,14.81c0,.52,0,1,0,1.55s-.06.59.07,0a3.92,3.92,0,0,1-1.39-.6,19.83,19.83,0,0,1-4.47-3.41c-5.64-5.53-8.42-13.23-10.75-20.59a141.49,141.49,0,0,1-5.5-26q-.42-3.46-.69-6.93c-.15-1.92-.68-4.33-.16-6.18.64-2.29,1.64-4.48,2.25-6.79a61.35,61.35,0,0,0,1.38-6.84l-2.1,2.09c.4-.15.8-.31,1.19-.48-1,.09-1.24.23-.59.42a10.56,10.56,0,0,0,2.1,1.27l-1.48-2.59c.65,5.93.78,11.89,1.24,17.83s1.12,12,1.88,18a173.58,173.58,0,0,0,3,17.53c1,4.26,1.89,11.73,6.53,13.71a3.09,3.09,0,0,0,4.1-1.08c2.12-3.4,3.58-7.47,6.15-10.55.46-.54.91-.64,1.21-1.06-.28.38-.63-.15-.22.24,1.69,1.61,2.66,4,3.6,6,2.81,6.19,5.75,12.66,9.71,18.21,2.57,3.59,5.79,6.93,10,8.6a10.45,10.45,0,0,0,10.28-1c3.68-2.71,5.22-7.4,5.87-11.75s.62-12.09,5.89-13.94c5.57-2,10.66,3.92,13.51,7.85,7.1,9.8,10.36,21.69,16.53,32a54.62,54.62,0,0,0,12.13,14.31c3.06,2.47,7.06,4,10.68,1.7,6-3.72,6.91-12.85,8.51-19,1.25-4.87,3.41-11.91,9.16-13,5.94-1.11,11.19,6.61,14.09,10.71,3.15,4.47,5.06,9.7,8.29,14.08,2.95,4,7.82,6.52,12.64,4.07,1.93-1,3.38-2.64,5.13-3.87a13.88,13.88,0,0,1,8.42-2.08c5.87.21,10.44,3.8,13.35,8.7,4.68,7.86,5.12,17,7.26,25.69,1.82,7.42,6,18.4,15.77,15.76,6.45-1.74,9.3-7.92,12-13.38a69.7,69.7,0,0,1,11.7-16.86c2.24-2.37,5.78-6.24,9.2-4.83,3.2,1.31,5.59,4.6,8.25,6.7,3.65,2.89,8.08,5,12.85,4.09,6.43-1.29,10.38-6.86,12.7-12.56,4.43-10.88,6.4-22.63,9.66-33.87a90.46,90.46,0,0,1,5.94-15.9c2.31-4.54,5-8.79,9.78-11a17.4,17.4,0,0,1,14.37-.15c3.68,1.73,6.6,4.41,11,3.63,7.08-1.26,9.58-10.14,11.2-16,1-3.52,1.71-7.1,2.83-10.57,1.6-4.93,4.46-10.35,6.53-15.57q3.91-9.88,7-20.07l-2.9,2.2a23.37,23.37,0,0,0,6.22-1C678.49,469.61,676.92,463.81,673.2,464.92Z"/><path class="cls-4" d="M557.47,477.84c-.52,10.22-.23,20.48-.88,30.69a58.79,58.79,0,0,1-2.38,14c-1.21,3.88-3,8.41-6.54,10.64a9.92,9.92,0,0,1-1.2.66l-.18.08-.6.2a4.38,4.38,0,0,1-2,.22c-.48,0,.43.09,0,0l-.54-.12-.52-.17c-.45-.14.36.21,0,0-.16-.09-.86-.5-.75-.42.27.2-.19-.17-.25-.22s-.34-.33-.5-.51c-.4-.43-.17-.2-.09-.1a4.11,4.11,0,0,1-.34-.51c-.12-.2-.48-.89-.42-.74a16.85,16.85,0,0,1-.84-3.19c-.49-2.36-.9-4.74-1.28-7.12-1.48-9.46-2.35-19.12-5.44-28.25-1.44-4.27-3.21-9.17-6.68-12.24a11.05,11.05,0,0,0-11.67-2.2C510,480.3,507,483.93,505,488c-1.79,3.75-2.77,7.81-4.89,11.29a8.29,8.29,0,0,1-3.56,3.46,5,5,0,0,1-4.3-.18,7.66,7.66,0,0,1-3.29-3.46,12.15,12.15,0,0,1-.95-5.81,26.3,26.3,0,0,1,.4-3.3c.14-.75.17-1.34.63-1.7a12.46,12.46,0,0,1,2.93-1.17c1.33-.52,2.66-1.06,4-1.61,4.58-1.91,9.11-3.94,13.56-6.15a173.32,173.32,0,0,0,24.59-14.82,144.39,144.39,0,0,0,11.43-9.22q2.57-2.31,5-4.77c1.22-1.23,2.3-2.25,2-4.15-.24-1.4-.55-2.79-.8-4.18-.45-2.5-.84-5-1.19-7.51-.31-2.24-3.62-2.86-5-1.32-9.4,10.4-21,18.36-33.1,25.32-3.37,1.93-6.77,3.79-10.2,5.61-2.84,1.5-5.76,2.89-8.51,4.54-2.27,1.36-4.5,2.84-6.83,3.47-.31.08-.62.16-.94.21.57-.09-.41,0-.43,0-.2,0-.4,0-.61,0,.58,0-.32-.06-.39-.08s-.87-.37-.43-.14c.06,0-.81-.51-.48-.26a6.57,6.57,0,0,1-1.49-1.75,13.85,13.85,0,0,0-3.29-3.77,9.56,9.56,0,0,0-5-1.69c-3.67-.27-7,1.52-9.79,3.73-1.75,1.39-3.33,3-4.93,4.53-.9.87-1.8,1.74-2.74,2.58a22.21,22.21,0,0,1-2.42,2,15.75,15.75,0,0,1-1.4.89c-.18.1-1.3.61-.69.37-.46.18-.93.27-1.4.42-.65.2.55.08-.12,0-.17,0-1.18-.09-.35.05a5.13,5.13,0,0,1-1.13-.31c.82.33-.95-.72-.44-.3a9.13,9.13,0,0,1-2.28-2.91c-3.12-5.55-4-12.23-4.46-18.48a121.9,121.9,0,0,1,.15-24.16A78.72,78.72,0,0,1,448.35,410a3.12,3.12,0,0,0-1.08-4.1,43.51,43.51,0,0,1-6.36-5.77c-1.19-1.3-4-1.15-4.72.61a117.66,117.66,0,0,0-9.6,40.66,104,104,0,0,0,1,20.26,77.27,77.27,0,0,0,1.93,9.31c.22.82.46,1.63.73,2.44.13.42.3.83.44,1.24.41,1.22-.26-.85.13.45a34.2,34.2,0,0,0,2,4.88c2.59,5.36,6.85,10.57,12.91,12s11.64-1.28,16.39-4.69c2.36-1.7,4.59-3.56,6.82-5.42.95-.8,1.9-1.6,2.89-2.36-.45.34.56-.41.51-.37a3,3,0,0,1,.65-.41.86.86,0,0,1,.84.07c2.13,1,2.69,4.81,2.95,6.83.4,3.13.25,6.3.43,9.44.35,6.06,2.07,11.92,7,15.8a19.24,19.24,0,0,0,15.14,3.93,15.34,15.34,0,0,0,7.42-3.53,18.05,18.05,0,0,0,4.54-6.95c1-2.31,1.75-5.05,2.69-7.14a8.81,8.81,0,0,1,1.81-3,1.29,1.29,0,0,1,.57-.4c-.25.11.49,0,.17,0s-.2.09,0,0c.32.11.31.09,0-.05l.44.23c.08.05.72.55.23.13l.4.36c.21.2.39.4.58.61.61.68-.3-.46.25.31a19.75,19.75,0,0,1,1.71,2.92,32.54,32.54,0,0,1,2,5.66c1.82,6.89,1.93,14.18,3.08,21.2,1.06,6.5,2,14,6.43,19.21a16.5,16.5,0,0,0,14.09,5.21c13.2-1.42,20.17-15.46,23-27a87.87,87.87,0,0,0,2.17-19.34c.05-3.25,0-6.52-.11-9.77,0-1.53-.1-3.06-.16-4.59,0-.87,0-1.76-.09-2.62-.12-1.39-.86-2.07-1.82-3a35.9,35.9,0,0,1-5.65-7c-2.06-3.25-7.25-.25-5.18,3a41.51,41.51,0,0,0,7.53,9.07l-.88-2.12c.43,11.95,1.19,24.26-1.9,35.95a41.24,41.24,0,0,1-7.23,15.3,17.81,17.81,0,0,1-6.09,5,12.89,12.89,0,0,1-5.83,1.15A10.63,10.63,0,0,1,538,542a10.16,10.16,0,0,1-2.1-1.86,13.87,13.87,0,0,1-1.75-3,45.2,45.2,0,0,1-2.37-9.25c-.62-3.25-1.15-6.53-1.55-9.82-.74-6-1-12.17-3-18-1.36-4.09-3.4-9.16-7.38-11.37a6.88,6.88,0,0,0-8.35,1.2c-2,2-3.09,4.78-4.05,7.37-1.62,4.38-2.63,8.75-6.87,10.82a13.73,13.73,0,0,1-2.57.79,3.94,3.94,0,0,1-1.08.12,13.11,13.11,0,0,1-1.88,0,14,14,0,0,1-5.42-1.69,12,12,0,0,1-4.19-3.84,15.71,15.71,0,0,1-2.2-7.19c-.55-6.18.23-12.55-2.52-18.34-1.37-2.9-4.11-5.33-7.47-5.35-3,0-5.34,2.25-7.53,4.06-3.8,3.14-7.84,6.86-12.28,8.7a9.59,9.59,0,0,1-6.58.68,11.27,11.27,0,0,1-5.67-3.9,25.52,25.52,0,0,1-3.92-6.71c-.22-.52-.42-1.05-.62-1.58-.09-.26-.18-.53-.28-.79s-.57-1.76-.29-.85c-.5-1.63-1-3.25-1.4-4.9a84.81,84.81,0,0,1-2.23-17.23,109.3,109.3,0,0,1,5.57-37.64c1-2.95,2.07-5.87,3.31-8.73l-4.72.61a51.41,51.41,0,0,0,7.58,6.71l-1.07-4.1a84.77,84.77,0,0,0-6.86,22.71,112.09,112.09,0,0,0-.94,23.3c.42,7,.92,14.18,3.3,20.81,1.85,5.19,5.37,12,11.9,11.58,5.27-.37,9.44-4.72,13-8.18.8-.78,1.59-1.56,2.41-2.32.42-.39.84-.77,1.27-1.14l.61-.53.41-.32c-.32.24-.27.21.14-.1,2.2-1.47,5.23-2.94,7.32-1,1.13,1.05,1.77,2.61,2.81,3.77a9.08,9.08,0,0,0,4.36,2.71c3,.81,6-.11,8.77-1.38,2.48-1.14,4.7-2.73,7.1-4,3.58-1.89,7.18-3.73,10.73-5.67,14.62-8,29-17.13,40.24-29.57l-5-1.32c.55,3.91,1.2,7.81,2,11.69l.77-2.92c-13.2,13.69-29.6,24-46.81,31.87-2.24,1-4.5,2-6.77,3s-4.85,1.8-7.2,2.86c-2.58,1.16-3.71,3.41-4.17,6.08a26.43,26.43,0,0,0-.43,7.63,14.45,14.45,0,0,0,7,11.18A11.32,11.32,0,0,0,502,506.3c6.54-5.48,5.76-15.81,12.37-21a9.49,9.49,0,0,1,2-1.21,4.84,4.84,0,0,1,2.28-.44c.07,0,.6,0,.14,0l.61.12a5.76,5.76,0,0,1,.59.18c.05,0,.53.21.16,0a5.7,5.7,0,0,1,1.93,1.33c2.89,2.8,4.33,7.63,5.48,11.5,2.75,9.24,3.51,18.9,5.12,28.37.72,4.24,1.21,9,4.41,12.24a10.32,10.32,0,0,0,10.61,2.31c9.37-3.25,12.74-14.77,14.06-23.59,1.48-9.95,1.09-20.12,1.37-30.15q.11-4.1.31-8.17a3,3,0,1,0-6,0Z"/><path class="cls-4" d="M363.3,560.42a9.32,9.32,0,0,1-1,.3c-.27.07-1.26.22-.47.12a14,14,0,0,1-2.42.08c-.2,0-1.38-.15-.56,0-.38-.06-.77-.13-1.15-.21a20.7,20.7,0,0,1-2.56-.72l-1.18-.44c-.77-.31.35.16-.12,0l-.59-.28c-.89-.41-1.77-.88-2.62-1.37s-1.6-1-2.37-1.5c-.4-.26-.79-.54-1.18-.82l-.47-.34-.55-.42a63,63,0,0,1-8.87-8.56c-.64-.75-1.28-1.52-1.89-2.3s.33.44-.25-.33l-.35-.46-1-1.41a53.08,53.08,0,0,1-3-4.88q-.69-1.26-1.29-2.58c-.09-.18-.17-.36-.25-.54.3.66,0,0-.05-.15-.16-.42-.32-.84-.47-1.26a21.65,21.65,0,0,1-.66-2.39c0-.12,0-.25-.07-.37-.18-.85,0,.4,0-.12,0-.35-.06-.69-.07-1-.08-3.86-6.05-3.87-6,0,.05,3.6.09,7.21.14,10.81,0,1.77.1,3.55.06,5.32a4,4,0,0,1-.05.77c-.08,0,.3-.34.31-.37.09-.28.61.28-.18-.1a5.76,5.76,0,0,1-.69-.25,3,3,0,0,0-1.6,5.79c2.24.76,4.93.67,6.64-1.17s1.58-4.25,1.55-6.54l-.18-14.26h-6a24.27,24.27,0,0,0,3,10.12,58.46,58.46,0,0,0,7,10.58c5.54,6.81,12.54,13.1,20.8,16.35,3.86,1.52,8.32,2.14,12.33.81a3.06,3.06,0,0,0,2.09-3.69,3,3,0,0,0-3.69-2.1Z"/><path class="cls-4" d="M445.14,404.24c-8.24-7-13.17-16.77-17.14-26.63a3,3,0,0,0-5.79,0c-3.06,7.86-12.4,15-21.08,11.34-10-4.25-17.37-12.94-24.4-20.9-1.06-1.21-2.12-2.41-3.2-3.6a35.49,35.49,0,0,0-3.31-3.06c-2.49-2.17-4.7-4.53-7.51-6.33a3,3,0,0,0-3.63.47c-1.22,1.24-2.23,2.85-1.73,4.67a3.71,3.71,0,0,0,3.64,2.63,4,4,0,0,0,3.46-2.08c1-1.88.16-3.77-1.13-5.22a3,3,0,0,0-4.71.6,8.72,8.72,0,0,0,.29,9.6c1.68,2.46,4.11,4.28,6,6.57a34.36,34.36,0,0,1,7.51,15.93,24.13,24.13,0,0,1,0,8.6,20.25,20.25,0,0,1-3.61,7.49,30.55,30.55,0,0,1-13.37,10.56c-7.13,2.75-15.08.19-22.43.12a3,3,0,0,0-2.89,3.8c3.13,9,11.11,14.35,18.66,19.48,7.81,5.31,15.14,11.35,18.34,20.6,1.44,4.18,2,8.88.26,13.07-1.88,4.48-6.32,7.66-10.31,10.16a43.63,43.63,0,0,1-29,6.44,22,22,0,0,1-7.95-2.35,25.76,25.76,0,0,1-6.16-5.05,34.9,34.9,0,0,1-7.56-14.64c-1-3.81-6.38-2.13-5.78,1.59.4,2.53.36,6.27,2.06,8.38.87,1.09,2.52,1,3.63.47,2.23-1.07,1.39-4.15,1.11-6a17.4,17.4,0,0,0-1.32-5.18c-1.28-2.56-5.93-1.45-5.59,1.52,2.49,22,2.69,44.53,10.59,65.49A3.1,3.1,0,0,0,314,535a15.07,15.07,0,0,0,3.8-.11c2.14-.59,3.14-3.72,3.93-5.55a54.45,54.45,0,0,1,2.55-5.34,15.3,15.3,0,0,0,.91-1.44s.39-.34.25-.2c-.54.57-.51-.27-.21.22s1.06,1,1.46,1.49.69.93,1,1.42a38.57,38.57,0,0,1,2.34,4c1.35,2.64,2.48,5.38,3.68,8.09,2.43,5.5,5.25,11,10.13,14.7a18.05,18.05,0,0,0,8.65,3.76,10.79,10.79,0,0,0,9.41-4.06c4.56-5.61,3.2-13.06,5.64-19.44,2.06-5.4,9.59-3.32,13.13-.6a25.19,25.19,0,0,1,6.22,7.47,35.83,35.83,0,0,1,2,3.91c.6,1.4.85,3.1,1.59,4.43a4.27,4.27,0,0,0,1.72,1.65c.65.31.5.57.25-.17-.44-1.37,0,.36.17.69.75,1.67,1.49,3.33,2.22,5,1.36,3.11,2.71,6.24,4.21,9.29,3,6.21,6.81,12.4,12.22,16.83a34.67,34.67,0,0,0,4.05,2.89c1.85,1.1,4.05,2.58,6.2,1.61a15.5,15.5,0,0,0,6.91-6.68,33.75,33.75,0,0,0,3.45-9.75c.71-3.4.8-6.89,2.3-10.07,1.18-2.52,3-5.18,5.64-6.31,3.25-1.36,6.09.37,8.53,2.46,5.76,4.94,9.39,11.78,13,18.33,1.57,2.86,3.42,6,6.43,7.57a9.68,9.68,0,0,0,5,1,15.21,15.21,0,0,0,6-2.15c3.23-1.65,6.45-3.56,10.08-4.19a12.11,12.11,0,0,1,9.54,2.6c4.85,3.67,7.38,9.36,8.95,15.07,1.7,6.19,2.45,12.59,3.87,18.85,1.55,6.8,6.17,15.18,14.47,13.69,7.12-1.27,11.08-9.52,14.3-15.2s6.26-11.56,11-16.07a22.81,22.81,0,0,1,7.78-4.88h-1.6c5.4,1.67,8.88,7,13.52,10a12.4,12.4,0,0,0,9.39,2,18,18,0,0,0,8.74-5.14c2.68-2.65,4.13-5.83,5.56-9.27a90.82,90.82,0,0,0,3.65-10.64c2-7,3.31-14.24,5-21.35,1.52-6.42,3.09-13.53,6.68-19.16,3.11-4.86,8.15-8.74,13.91-9.74a12.9,12.9,0,0,1,8,1.09c1.41.66,2.85,1.27,4.31,1.8.08,0,1.41.57,1.1.37.65.43,1.12,1.13,1.81,1.55,2.2,1.36,6.49.71,8.67-.47,3.31-1.8,3.87-5.86,5-9.12,5.73-17.1,12.89-33.68,18.5-50.82,1.2-3.68-4.59-5.26-5.79-1.6-5.64,17.26-12.86,33.94-18.61,51.16-.37,1.11-.74,2.22-1.1,3.33-.15.5-.21,1.24-.59,1.61a2.58,2.58,0,0,1-1.36.46c-.19,0-.4,0-.6,0s-1.77-.1-1.27.13-.6-.71-.69-.79a6,6,0,0,0-2.22-1.2,47.16,47.16,0,0,1-5-2.06c-6.51-3.17-14.49-1.58-20.39,2.27-6.43,4.18-10.16,10.34-12.67,17.43-2.71,7.66-4.26,15.66-6,23.57-1.81,8.09-3.85,16.24-7.56,23.7-1.53,3.08-4.68,6.09-8.1,6.94-2.94.73-5.55-1.26-7.67-3.07-2.62-2.22-5-4.71-7.91-6.6a16.9,16.9,0,0,0-4.21-2c-1.95-.6-3.88.5-5.6,1.36-5.83,2.92-10.16,7.95-13.64,13.33s-6.18,11.12-9.79,16.37c-1.42,2.06-3.69,5.16-6.55,4.9-3.08-.28-5-3.77-5.93-6.38a54.56,54.56,0,0,1-1.75-8c-.58-3.1-1.1-6.21-1.76-9.3-1.24-5.83-3-11.82-6.46-16.75-4-5.66-10.12-10.29-17.33-10.06a26,26,0,0,0-10.42,3c-1.44.69-2.85,1.45-4.28,2.18s-2.62,1.58-4.2,1.33c-2.68-.42-4.17-4-5.31-6.11-1.72-3.12-3.45-6.24-5.4-9.22a48.77,48.77,0,0,0-7.06-8.75c-2.5-2.37-5.52-4.88-9-5.54-7-1.33-12.92,3.42-15.82,9.51s-2.25,12.84-5.19,18.79a11,11,0,0,1-5.3,5.56h3c-11.92-5.24-16.92-18-21.8-29.16-.59-1.37-1.23-2.72-1.81-4.1a5.22,5.22,0,0,0-1-1.77c-.15-.16-1.46-1.27-1.69-1.12.53-.35.8,1.87.48.32a8.08,8.08,0,0,0-.35-1.05c-.21-.57-.43-1.13-.66-1.7a45.14,45.14,0,0,0-2.13-4.57c-3-5.45-7.35-10.51-13.22-12.86-5.37-2.15-12.84-1.5-16.22,3.68s-2.48,12-4.4,17.59c-.77,2.26-2.67,4.52-5.25,4.48-2.25,0-4.77-1.56-6.46-2.94-4-3.25-6.17-8.22-8.19-12.81-2.39-5.41-4.66-11.93-9.19-16-3.2-2.85-7.41-2.33-9.74,1.25-2.23,3.41-3.29,7.39-5.48,10.82L317,529h-3l2.89,2.2c-7.71-20.48-7.94-42.41-10.37-63.89l-5.59,1.51c0,.08-.18-.72,0,0,.05.29.15.57.21.85.17.73.3,1.46.43,2.2.06.35.11.7.16,1.06.13.83,0-.26.05.32s-.14,1.57.18.33l1.38-1.8h0l3.64.47c1.26,1.57.69,1.49.6.7,0-.43-.17-.86-.25-1.28-.32-1.71-.59-3.43-.87-5.15l-5.78,1.59a41.78,41.78,0,0,0,7.08,14.84c3.27,4.28,7.8,8.47,13,10.12,10.91,3.44,23.07,2,33.39-2.6a50.18,50.18,0,0,0,14.17-9.54,20.26,20.26,0,0,0,6.15-14.68c0-10.78-6.78-21-14.95-27.57-4.5-3.6-9.45-6.56-14.06-10-4-3-7.87-6.64-9.55-11.46L333,421c7,.06,14,1.92,21,.51,6.25-1.25,12.34-5.49,16.66-10.08s7.54-10.35,8-16.83a35.46,35.46,0,0,0-4.37-19,43.2,43.2,0,0,0-6.27-8.86c-1.81-2-6.08-4.55-4.27-7.63l-4.71.61c-.24-.27,0-.91,0-1.1.14-1,.7-1.92,1.9-1.84,1.55.11.94,2.54,2.15,2.94.19.07-.72.92.18,0l-3.64.47c2.51,1.61,4.43,3.85,6.7,5.75a59,59,0,0,1,6.31,6.53,141.78,141.78,0,0,0,12.85,13.32,49.55,49.55,0,0,0,15.11,9.34c4.9,1.82,11.4.24,15.83-2.18A26.1,26.1,0,0,0,428,379.2h-5.79c4.35,10.8,9.65,21.61,18.69,29.28,2.93,2.49,7.19-1.74,4.24-4.24Z"/><path class="cls-4" d="M356.37,352.73a6.56,6.56,0,0,0-4.95,3,5.84,5.84,0,0,0,.31,5.5c1.43,2.8,4.06,4.93,6.28,7.09,6.55,6.38,11.61,15.4,11.45,24.7a25.44,25.44,0,0,1-4.21,13.52,21.15,21.15,0,0,1-2,2.61,14.44,14.44,0,0,1-2.32,2.08,14.16,14.16,0,0,1-1.29.77,3.32,3.32,0,0,1-.89.38c-.45.15-.89.29-1.35.4l-.61.13c-.08,0-1,.13-.43.08-3.78.41-7.12-.33-10.74-.8a52,52,0,0,0-8.55-.53c-3,.11-6.56.51-8.76,2.77-3.46,3.55-.71,8.42,1.82,11.58,5.75,7.18,12.7,13.19,19.49,19.35,2.68,2.43,5.29,4.93,7.72,7.61a38,38,0,0,1,6.2,8.53q.25.48.48,1l.27.6c.21.47-.24-.67,0,.11s.5,1.41.68,2.14c.1.4.17.79.24,1.19-.13-.68,0,.06,0,.35a9,9,0,0,1,0,1.16c0,.15,0,.31,0,.46,0,.71.15-.6,0,.1a16.25,16.25,0,0,1-.56,2c.27-.72-.16.28-.26.45a12.83,12.83,0,0,1-.74,1.17c.35-.5-.22.25-.37.4a10.81,10.81,0,0,1-.89.9,11.48,11.48,0,0,1-2,1.53,60.08,60.08,0,0,1-11.5,5.88,48.26,48.26,0,0,1-12,2.89,31.77,31.77,0,0,1-11.85-.95,27,27,0,0,1-10.57-5.73,31.34,31.34,0,0,1-5-5.53,3.15,3.15,0,0,0-4.21-1.1,3.11,3.11,0,0,0-1.1,4.2,34.89,34.89,0,0,0,24.27,15.08c9,1.18,18-1,26.21-4.65,7.18-3.2,15.81-7.7,16.67-16.42.72-7.32-4.55-14.25-9.1-19.4-4.83-5.46-10.48-10-15.8-15a135.58,135.58,0,0,1-11.64-12.21,12.43,12.43,0,0,1-1.74-2.62,9,9,0,0,1-.36-1.16s.08.77,0,.26c0-.25.09-.81-.06.15,0-.1,0-.2.08-.3.16-.55-.27.59-.1.24.27-.54-.52.46.05,0,.35-.31-.22.16-.25.17.15-.08.28-.19.43-.27l.32-.16c.49-.3-.63.15,0,0s1.21-.34,1.83-.45l.45-.07c-.76.11-.2,0,0,0l1.32-.09a39,39,0,0,1,4.71.09c1.34.09,2.67.25,4,.41-1-.12.25,0,.62.09,1.22.18,2.44.36,3.67.51,4.41.55,8.88.46,12.91-1.62,4.53-2.34,7.93-7,10-11.56A31.54,31.54,0,0,0,375.49,390a38.3,38.3,0,0,0-5-15.37,48.84,48.84,0,0,0-8.53-11c-1.12-1.07-2.26-2.12-3.31-3.26l-.76-.87c-.38-.42-.05-.05,0,0l-.34-.48c-.19-.28-.35-.57-.53-.85-.07-.12-.12-.24-.18-.37.38.74.1.26.06,0-.13-.64,0,.77,0,.15,0-.23.12-.51-.05.36.09-.45-.11.26-.13.31-.27.47-.35.19-.34.35s-.23.14.17-.08c-.11.06-.64.18-.08,0a14.66,14.66,0,0,1,1.46-.33c1.64-.26,2.55-2.3,2.14-3.77a3.15,3.15,0,0,0-3.78-2.15Z"/><path class="cls-4" d="M564.43,488.36c1.15,10.07,1.53,20.44-.39,30.44-1.59,8.27-4.78,16.8-11.44,22.1a14.58,14.58,0,0,1-9.84,3.15,10.62,10.62,0,0,1-7.9-4.55,22.89,22.89,0,0,1-3.73-9.73c0-.26-.09-.52-.13-.79-.08-.55,0,.53,0-.21s-.1-1.23-.15-1.85c-.09-1.36-.17-2.73-.23-4.09-.12-2.59-.2-5.17-.35-7.75A62,62,0,0,0,527.87,500a12.22,12.22,0,0,0-1.75-4.07,18.3,18.3,0,0,1-1.67-2.7c-1.14-2.17-2.14-4-4.53-4.93a8.8,8.8,0,0,0-10,3.35c-1.07,1.61-1.33,3.75-2,5.53a32.12,32.12,0,0,1-2.63,5c-1.95,3-4.44,5.83-7.78,7.27.44-.19-.6.2-.69.22-.37.12-.76.2-1.14.29-.57.14-.21,0-.07,0l-.58,0a9,9,0,0,1-1.47,0c.47.05-.49-.11-.69-.16s-1-.32-1.13-.37a12.74,12.74,0,0,1-2.19-1.32c-6.55-5.09-6.45-14.5-6.46-22.23a14.54,14.54,0,0,0-3.57-10.17c-3.09-3.31-7.74-3.53-11.6-1.47-3.47,1.86-6.39,4.8-9.5,7.18-.37.28-1.34,1-2,1.42a26.83,26.83,0,0,1-2.52,1.53c-.42.22-.85.44-1.29.63.36-.15-.67.25-.76.28-.39.13-.79.25-1.2.35l-.61.13c-1,.19.52,0-.46.07a10.27,10.27,0,0,1-5.26-.8,3,3,0,0,0-3.69,2.1,3.07,3.07,0,0,0,2.09,3.69,16.86,16.86,0,0,0,13.5-.91c3.84-1.86,7.09-4.8,10.4-7.45a23.32,23.32,0,0,1,4.6-3.2,6,6,0,0,1,1.43-.42c.53-.09-.64,0,.24,0h.57c-.58,0,.43.13.64.2.43.15-.51-.36.12.08.21.15.45.26.65.42-.46-.35.24.26.38.41,0,0,.53.64.28.31s.25.39.23.36c.2.32.36.64.54,1,.41.75-.1-.31.08.17.1.25.19.52.27.78a9.91,9.91,0,0,1,.31,1.19l.09.53c-.09-.63,0-.05,0,.12,0,1,0,2.05,0,3.08.07,9.64,1.25,20.45,10,26.24a13.41,13.41,0,0,0,12.42,1.3c4.3-1.74,7.62-5.06,10.24-8.81a36.13,36.13,0,0,0,3.73-7,35.25,35.25,0,0,0,1.21-3.45,6.16,6.16,0,0,0,.18-.65c.17-.86-.28.28.05-.2s-.32.3,0-.05c.17-.17.34-.34.52-.5s-.58.29.1-.05c.23-.11.44-.25.68-.37-.55.27.55-.13.76-.18-.54.13-.2,0,0,0s.51,0,.76,0c-.64,0-.11,0,.08,0a3.59,3.59,0,0,1,.35.12q-.44-.18-.15,0c.36.22-.36-.52.12.07s-.1-.36.21.27.66,1.31,1,2a17.67,17.67,0,0,0,2.61,3.91l-.77-1.32c3.6,9.16,3,18.95,3.76,28.58.57,7.62,3.28,16,10.1,20.31,7.31,4.59,16.7,2.12,22.78-3.32,6.43-5.76,10-14.18,11.76-22.45,2.38-11,2.19-22.41.92-33.56a3.09,3.09,0,0,0-3-3c-1.48,0-3.18,1.38-3,3Z"/><path class="cls-4" d="M430.79,475c-.48-1-.14-.26-.06,0l.21.56c.15.41.3.81.47,1.22.36.89.73,1.78,1.13,2.65a31.48,31.48,0,0,0,2.36,4.25A20.75,20.75,0,0,0,442,490.5a3,3,0,0,0,3-5.18c-.3-.16-.58-.33-.86-.51s-.72-.37-.82-.57c.31.25.38.3.21.16l-.24-.19L443,484c-.26-.23-.51-.46-.75-.7-.5-.5-1-1-1.4-1.56s.38.53-.05-.07l-.26-.35c-.23-.33-.45-.66-.67-1a31.88,31.88,0,0,1-2.16-4l-.24-.53c0-.08-.3-.69-.13-.29s-.09-.22-.12-.3l-.21-.55c-.34-.87-.59-1.8-1-2.64a3,3,0,0,0-4.1-1.07,3.07,3.07,0,0,0-1.08,4.1Z"/><path class="cls-4" d="M556.18,460.73a143,143,0,0,1-3.67-14.28c-.46-2.22-3.52-2.88-5-1.32-14,14.51-31.55,25.19-49.91,33.26-2.53,1.11-5.08,2.16-7.66,3.17s-5.22,1.72-6.5,4.33c-1.2,2.45-1.43,5.68-1.44,8.36a17.25,17.25,0,0,0,1.55,7.46c2,4.19,6.22,7.42,11,7.47,5.15.05,9.22-3.62,11.46-8,2-3.9,3-8.17,5.18-11.92a12.31,12.31,0,0,1,3.82-4.33,7.08,7.08,0,0,1,2.29-1.09,4.68,4.68,0,0,1,2-.1,6.46,6.46,0,0,1,3.66,2.44,23.57,23.57,0,0,1,3.13,6.14A78.81,78.81,0,0,1,529.92,507c.89,5,1.52,10.13,2.3,15.19.39,2.52.81,5,1.33,7.55a15.88,15.88,0,0,0,2.33,6.21,10.3,10.3,0,0,0,11,4.08c4.77-1.12,8.37-5.1,10.51-9.3,4.84-9.5,5.38-20.41,5.53-30.86.09-5.52.18-11,.36-16.56,0-1.32.09-2.65.15-4a7.26,7.26,0,0,0,0-2.28,10.68,10.68,0,0,0-1.22-2.25,58.21,58.21,0,0,1-3.41-7c-1-2.33-1.78-4.7-2.55-7.1a3,3,0,1,0-5.78,1.6,76.64,76.64,0,0,0,7.48,17l-.41-1.51c-.5,9.78-.29,19.58-.8,29.36a64.58,64.58,0,0,1-2,13.63c-1.08,4-2.61,8.37-5.68,11.27a8.62,8.62,0,0,1-3.93,2.16c-.54.16-.26.06-.09,0l-.58,0c-.2,0-1.18-.06-.61,0a7.54,7.54,0,0,1-.94-.22c-.08,0-.61-.23-.29-.09s-.39-.22-.38-.21a4.66,4.66,0,0,1-.47-.3c.1.07.39.35-.06,0a8,8,0,0,1-.71-.72,4,4,0,0,1-.33-.5,5.61,5.61,0,0,1-.54-1.07,38.46,38.46,0,0,1-1.38-6.3c-1.62-9-2.35-18.25-4.65-27.17a52.72,52.72,0,0,0-4.92-13c-2.1-3.69-5.51-6.61-9.84-7-4.16-.41-8.26,2-10.9,5-2.82,3.24-4.34,7.21-5.86,11.16-1.2,3.11-2.53,7.05-5.7,8.69-2.67,1.39-5.69,0-7.28-2.42a9.39,9.39,0,0,1-1.57-5,21.82,21.82,0,0,1,.13-3.43,11.31,11.31,0,0,1,.58-3c.15-.33.52-.51,1-.72,1.24-.51,2.51-1,3.75-1.46q3.58-1.44,7.11-3c16.8-7.38,32.87-17,46.36-29.51q2.44-2.28,4.77-4.69l-5-1.32a140.41,140.41,0,0,0,3.68,14.28,3.05,3.05,0,0,0,3.69,2.09A3,3,0,0,0,556.18,460.73Z"/><path class="cls-4" d="M435.15,403.16A139.62,139.62,0,0,0,428,428.22,106.72,106.72,0,0,0,426,442.56a108.08,108.08,0,0,0,.2,13.94c.32,4.52.5,9.11,1.71,13.49a47.36,47.36,0,0,0,4,10.28c3.45,6.3,9.66,12.69,17.4,12.18,6.93-.46,12.12-5.18,17.58-8.93a38,38,0,0,1,4.19-2.54,12.62,12.62,0,0,1,1.78-.79c.42-.15.85-.27,1.27-.45.19-.08.39-.21.59-.29-.79.32.37-.12-.16.06s.39.08-.06,0,.1,0,.09.05-.4-.24,0,0c.16.1.32.18.48.29-.38-.25.28.26.39.37s.21.21.31.32c.63.68-.11-.19.2.23a10.4,10.4,0,0,1,.56.9c.09.17.18.35.26.53-.05-.13-.15-.46,0,.07,0,.15.21,1,.18.62s0,.55,0,.74c0,10.8.85,25.82,12.73,30.31a19.62,19.62,0,0,0,9.73.87,12.53,12.53,0,0,0,7.42-4.54c4-4.88,5.5-11.14,9-16.31-.33.49.38-.46.19-.2s.38-.14.07-.05.16-.06.18-.07c.47-.16.29-.07.11-.05a3,3,0,0,1,.67,0s.83.19,1.09.27l-1.32-.77c3.51,2.87,4.82,6.28,5.7,10.7s.78,9.08,1.08,13.64c.65,10.11,2.41,20.24,9,28.33,6.37,7.88,17.21,4.25,24.1-.79,7.58-5.55,11.48-15.4,13-24.39,1.81-10.6,1.09-21.36.82-32.05-.1-3.85-6.1-3.87-6,0,.29,11.84,1.4,24.11-1.73,35.56a37.23,37.23,0,0,1-3.08,7.9,26.69,26.69,0,0,1-4.86,6.86,19.87,19.87,0,0,1-2.74,2,30,30,0,0,1-3.8,2.12,13.7,13.7,0,0,1-6.51,1.42,6.38,6.38,0,0,1-1.36-.25,6.68,6.68,0,0,1-.89-.31c.36.16-.11-.08-.15-.09a8.32,8.32,0,0,1-2.87-2.63,29.72,29.72,0,0,1-4.14-7.81c-2-5.77-2.54-11.8-2.88-17.86s-.32-12.28-2.46-18.05a19.82,19.82,0,0,0-4.77-7.51,7.51,7.51,0,0,0-5.2-2.3,7.07,7.07,0,0,0-4.37,1.22c-2.12,1.49-3.28,4.16-4.4,6.43s-2.1,4.54-3.25,6.76c-.5,1-1,1.91-1.61,2.82-.16.24-.31.47-.48.71,0,0-.58.77-.19.28a13.61,13.61,0,0,1-1.07,1.21,7.27,7.27,0,0,1-.57.54c-.07.06-.74.56-.2.18a12,12,0,0,1-1.2.73c-.13.08-.66.28-.1.07-.25.09-.5.18-.75.25l-.78.19c-.36.05-.37.06,0,0l-.58,0a26,26,0,0,1-3.42-.15c-.94-.08.52.14-.38-.06l-.84-.17c-.53-.13-1-.31-1.56-.49-.8-.27.48.28-.25-.1-.23-.12-.46-.23-.68-.36s-.71-.44-1.07-.67c-.67-.43.4.4-.18-.13l-.56-.5c-.42-.39-.8-.83-1.18-1.26s-.06-.08,0,0c-.15-.2-.29-.41-.43-.62-.28-.42-.55-.86-.79-1.31s-.43-.85-.63-1.28c-.06-.13-.27-.68-.06-.13-.13-.34-.26-.67-.38-1a37.45,37.45,0,0,1-1.54-6.52c0-.1-.08-.59,0-.06,0-.28-.07-.57-.11-.86-.06-.57-.12-1.15-.17-1.72-.09-1.14-.16-2.29-.21-3.44-.09-2.23.19-4.68-.29-6.87a11.23,11.23,0,0,0-4.66-6.65,6.72,6.72,0,0,0-3.7-1.16,6.48,6.48,0,0,0-2.49.62c-.81.33.62-.18-.36.14l-.9.33c-5,2-9,5.45-13.37,8.39a20.53,20.53,0,0,1-6.23,3.11,7.88,7.88,0,0,1-5.87-.36c-4.53-2.43-7.61-6.88-9.55-11.49a51.8,51.8,0,0,1-2.55-8.07,31.25,31.25,0,0,1-.51-4.53q-.25-2.82-.45-5.64a87.66,87.66,0,0,1,.82-21.71,181.1,181.1,0,0,1,4.6-20q1.47-4.85,3.35-9.53c.61-1.51-.65-3.3-2.09-3.69a3.07,3.07,0,0,0-3.69,2.09Z"/><path class="cls-4" d="M556.18,460.73a143,143,0,0,1-3.67-14.28c-.46-2.22-3.52-2.88-5-1.32-14,14.51-31.55,25.19-49.91,33.26-2.53,1.11-5.08,2.16-7.66,3.17s-5.22,1.72-6.5,4.33c-1.2,2.45-1.43,5.68-1.44,8.36a17.25,17.25,0,0,0,1.55,7.46c2,4.19,6.22,7.42,11,7.47,5.15.05,9.22-3.62,11.46-8,2-3.9,3-8.17,5.18-11.92a12.31,12.31,0,0,1,3.82-4.33,7.08,7.08,0,0,1,2.29-1.09,4.68,4.68,0,0,1,2-.1,6.46,6.46,0,0,1,3.66,2.44,23.57,23.57,0,0,1,3.13,6.14A78.81,78.81,0,0,1,529.92,507c.89,5,1.52,10.13,2.3,15.19.39,2.52.81,5,1.33,7.55a15.88,15.88,0,0,0,2.33,6.21,10.3,10.3,0,0,0,11,4.08c4.77-1.12,8.37-5.1,10.51-9.3,4.84-9.5,5.38-20.41,5.53-30.86.09-5.52.18-11,.36-16.56,0-1.32.09-2.65.15-4a7.26,7.26,0,0,0,0-2.28,10.68,10.68,0,0,0-1.22-2.25,58.21,58.21,0,0,1-3.41-7c-1-2.33-1.78-4.7-2.55-7.1a3,3,0,1,0-5.78,1.6,76.64,76.64,0,0,0,7.48,17l-.41-1.51c-.5,9.78-.29,19.58-.8,29.36a64.58,64.58,0,0,1-2,13.63c-1.08,4-2.61,8.37-5.68,11.27a8.62,8.62,0,0,1-3.93,2.16c-.54.16-.26.06-.09,0l-.58,0c-.2,0-1.18-.06-.61,0a7.54,7.54,0,0,1-.94-.22c-.08,0-.61-.23-.29-.09s-.39-.22-.38-.21a4.66,4.66,0,0,1-.47-.3c.1.07.39.35-.06,0a8,8,0,0,1-.71-.72,4,4,0,0,1-.33-.5,5.61,5.61,0,0,1-.54-1.07,38.46,38.46,0,0,1-1.38-6.3c-1.62-9-2.35-18.25-4.65-27.17a52.72,52.72,0,0,0-4.92-13c-2.1-3.69-5.51-6.61-9.84-7-4.16-.41-8.26,2-10.9,5-2.82,3.24-4.34,7.21-5.86,11.16-1.2,3.11-2.53,7.05-5.7,8.69-2.67,1.39-5.69,0-7.28-2.42a9.39,9.39,0,0,1-1.57-5,21.82,21.82,0,0,1,.13-3.43,11.31,11.31,0,0,1,.58-3c.15-.33.52-.51,1-.72,1.24-.51,2.51-1,3.75-1.46q3.58-1.44,7.11-3c16.8-7.38,32.87-17,46.36-29.51q2.44-2.28,4.77-4.69l-5-1.32a140.41,140.41,0,0,0,3.68,14.28,3.05,3.05,0,0,0,3.69,2.09A3,3,0,0,0,556.18,460.73Z"/><path class="cls-4" d="M435.15,403.16A139.62,139.62,0,0,0,428,428.22,106.72,106.72,0,0,0,426,442.56a108.08,108.08,0,0,0,.2,13.94c.32,4.52.5,9.11,1.71,13.49a47.36,47.36,0,0,0,4,10.28c3.45,6.3,9.66,12.69,17.4,12.18,6.93-.46,12.12-5.18,17.58-8.93a38,38,0,0,1,4.19-2.54,12.62,12.62,0,0,1,1.78-.79c.42-.15.85-.27,1.27-.45.19-.08.39-.21.59-.29-.79.32.37-.12-.16.06s.39.08-.06,0,.1,0,.09.05-.4-.24,0,0c.16.1.32.18.48.29-.38-.25.28.26.39.37s.21.21.31.32c.63.68-.11-.19.2.23a10.4,10.4,0,0,1,.56.9c.09.17.18.35.26.53-.05-.13-.15-.46,0,.07,0,.15.21,1,.18.62s0,.55,0,.74c0,10.8.85,25.82,12.73,30.31a19.62,19.62,0,0,0,9.73.87,12.53,12.53,0,0,0,7.42-4.54c4-4.88,5.5-11.14,9-16.31-.33.49.38-.46.19-.2s.38-.14.07-.05.16-.06.18-.07c.47-.16.29-.07.11-.05a3,3,0,0,1,.67,0s.83.19,1.09.27l-1.32-.77c3.51,2.87,4.82,6.28,5.7,10.7s.78,9.08,1.08,13.64c.65,10.11,2.41,20.24,9,28.33,6.37,7.88,17.21,4.25,24.1-.79,7.58-5.55,11.48-15.4,13-24.39,1.81-10.6,1.09-21.36.82-32.05-.1-3.85-6.1-3.87-6,0,.29,11.84,1.4,24.11-1.73,35.56a37.23,37.23,0,0,1-3.08,7.9,26.69,26.69,0,0,1-4.86,6.86,19.87,19.87,0,0,1-2.74,2,30,30,0,0,1-3.8,2.12,13.7,13.7,0,0,1-6.51,1.42,6.38,6.38,0,0,1-1.36-.25,6.68,6.68,0,0,1-.89-.31c.36.16-.11-.08-.15-.09a8.32,8.32,0,0,1-2.87-2.63,29.72,29.72,0,0,1-4.14-7.81c-2-5.77-2.54-11.8-2.88-17.86s-.32-12.28-2.46-18.05a19.82,19.82,0,0,0-4.77-7.51,7.51,7.51,0,0,0-5.2-2.3,7.07,7.07,0,0,0-4.37,1.22c-2.12,1.49-3.28,4.16-4.4,6.43s-2.1,4.54-3.25,6.76c-.5,1-1,1.91-1.61,2.82-.16.24-.31.47-.48.71,0,0-.58.77-.19.28a13.61,13.61,0,0,1-1.07,1.21,7.27,7.27,0,0,1-.57.54c-.07.06-.74.56-.2.18a12,12,0,0,1-1.2.73c-.13.08-.66.28-.1.07-.25.09-.5.18-.75.25l-.78.19c-.36.05-.37.06,0,0l-.58,0a26,26,0,0,1-3.42-.15c-.94-.08.52.14-.38-.06l-.84-.17c-.53-.13-1-.31-1.56-.49-.8-.27.48.28-.25-.1-.23-.12-.46-.23-.68-.36s-.71-.44-1.07-.67c-.67-.43.4.4-.18-.13l-.56-.5c-.42-.39-.8-.83-1.18-1.26s-.06-.08,0,0c-.15-.2-.29-.41-.43-.62-.28-.42-.55-.86-.79-1.31s-.43-.85-.63-1.28c-.06-.13-.27-.68-.06-.13-.13-.34-.26-.67-.38-1a37.45,37.45,0,0,1-1.54-6.52c0-.1-.08-.59,0-.06,0-.28-.07-.57-.11-.86-.06-.57-.12-1.15-.17-1.72-.09-1.14-.16-2.29-.21-3.44-.09-2.23.19-4.68-.29-6.87a11.23,11.23,0,0,0-4.66-6.65,6.72,6.72,0,0,0-3.7-1.16,6.48,6.48,0,0,0-2.49.62c-.81.33.62-.18-.36.14l-.9.33c-5,2-9,5.45-13.37,8.39a20.53,20.53,0,0,1-6.23,3.11,7.88,7.88,0,0,1-5.87-.36c-4.53-2.43-7.61-6.88-9.55-11.49a51.8,51.8,0,0,1-2.55-8.07,31.25,31.25,0,0,1-.51-4.53q-.25-2.82-.45-5.64a87.66,87.66,0,0,1,.82-21.71,181.1,181.1,0,0,1,4.6-20q1.47-4.85,3.35-9.53c.61-1.51-.65-3.3-2.09-3.69a3.07,3.07,0,0,0-3.69,2.09Z"/><path class="cls-4" d="M211,520a69.75,69.75,0,0,0,53.49,6.33c18.49-5.76,33.21-19.74,40.87-37.41a64.7,64.7,0,0,0,4.52-13.54c.55-2.9-.8-6.24-3.95-7-2.78-.63-6.36.84-6.95,3.95a55.74,55.74,0,0,1-3,9.88l-.38.95c-.05.13-.11.26-.16.38-.35.87.62-1.42.24-.56s-.66,1.5-1,2.24q-1.08,2.3-2.33,4.52c-.91,1.62-1.89,3.2-2.92,4.73-.53.77-1.06,1.53-1.62,2.28-.27.37-1.38,1.67-.15.22-.38.45-.73.91-1.1,1.36a61.29,61.29,0,0,1-4.3,4.67c-.75.73-1.52,1.45-2.31,2.14l-1.35,1.14-.63.52c-.7.56-.46.26.11-.08-2.08,1.26-4,2.82-6.07,4q-1.62.94-3.3,1.77l-1.65.78c-.23.1-.45.21-.68.3l-.68.3c.74-.31.88-.37.44-.19a66.25,66.25,0,0,1-9.42,2.93,24.61,24.61,0,0,1-4.25.77c1.31-.05.58-.07.25,0l-1.24.14c-.81.08-1.63.14-2.44.19a61.71,61.71,0,0,1-8.16-.09l-1.84-.17-.9-.11c-.49-.06-1.11-.36.26,0-1.19-.35-2.53-.4-3.75-.64a80.87,80.87,0,0,1-12.85-3.95c2,.76.43.18-.05,0l-1.09-.49-1.81-.89q-1.08-.56-2.13-1.17A5.65,5.65,0,1,0,211,520Z"/><path class="cls-4" d="M209.48,517.6c3.81,7.93,10.65,15.25,19.57,17.13a60.44,60.44,0,0,0,25.09-.09c16.21-3.45,30.53-13.42,40.34-26.62a62.41,62.41,0,0,0,11-24.67c.58-2.9-.83-6.26-4-7-2.81-.64-6.34.85-7,4A70.68,70.68,0,0,1,291.36,491c0-.1.56-1.27.17-.4-.1.21-.19.42-.28.63l-.51,1.1c-.42.88-.86,1.75-1.33,2.61q-1.31,2.43-2.83,4.72c-.44.67-.9,1.33-1.37,2l-.82,1.1c-.56.77.18-.26.26-.32a5,5,0,0,0-.54.67q-1.73,2.15-3.63,4.13c-1.27,1.33-2.6,2.6-4,3.81-.65.56-1.31,1.12-2,1.66-.37.3-1.56,1-.21.18-.38.23-.73.55-1.09.82a63.32,63.32,0,0,1-9.36,5.69c-.76.38-1.53.74-2.31,1.09l-.63.28c-.67.29,1.1-.45.41-.18l-1.42.57q-2.55,1-5.17,1.71c-1.69.48-3.4.87-5.13,1.19l-1.34.23-.67.11c-.64.1.72-.1.66-.09-1,.1-1.91.22-2.87.3a52.27,52.27,0,0,1-5.45.14c-.86,0-1.71-.06-2.57-.12l-1.37-.12-.68-.07c-.22,0-1.26-.16-.27,0s-.67-.11-1-.16l-1.37-.25a18.77,18.77,0,0,1-3-.83,3.71,3.71,0,0,0-.64-.25c.41,0,1.12.49.27.09-.46-.22-.91-.45-1.35-.7s-.87-.51-1.29-.79l-.56-.38c-.45-.31-.53-.71.2.19-.61-.76-1.58-1.35-2.27-2.06q-.48-.5-.93-1c-.16-.17-.3-.36-.46-.53-.82-.94.75,1.05,0,0a38.11,38.11,0,0,1-3.44-5.81c-1.28-2.68-5.32-3.59-7.74-2a5.82,5.82,0,0,0-2,7.75Z"/><path class="cls-4" d="M543.75,439.76c-.51,13.19,5.33,25.71,12.72,36.3,6.73,9.64,15.61,19.92,27.88,21.88,7.06,1.13,14.09-.57,19.29-5.65,4.09-4,6.42-9.32,8.43-14.58.29-.76.56-1.51.85-2.27l.33-.82c-.32.77.22-.49.24-.54a24.76,24.76,0,0,0,1-2.61c.12-.38.24-.77.37-1.14-.3.85.17-.23.24-.36.59-1.08-.5.7.17-.22.43-.58,0,0-.17.1.61-.45-.59.18-.89.18l-.6-.1c.46.13.41.1-.13-.09.08.09.73.54,0,0a9.25,9.25,0,0,1,.81.72,19.79,19.79,0,0,1,1.46,1.58c.11.13.84,1.07.18.2l.42.57c.39.52.76,1,1.14,1.57,1,1.3,1.91,2.61,3,3.81a20.44,20.44,0,0,0,8.37,5.38,65.31,65.31,0,0,0,10.52,2.64,39.64,39.64,0,0,0,11.74.84,24.88,24.88,0,0,0,11.16-4c3.24-2.15,6.28-4.65,9.37-7,1.87-1.42,3-3.95,1.62-6.16-1.19-1.85-4.15-3.14-6.16-1.61-2.63,2-5.24,4.05-7.93,6a30.33,30.33,0,0,1-3.89,2.46c-.33.17-.65.34-1,.48.7-.3-.18.06-.35.12a18.35,18.35,0,0,1-2.52.67c-.21,0-1.14.19-.31.08l-1.08.1c-.73.05-1.45.07-2.18.06s-1.62-.06-2.43-.13l-.88-.09c-.55-.07-.59-.07-.13,0l-.66-.1a90.36,90.36,0,0,1-9.24-2c-.81-.21-1.61-.44-2.41-.71l-.85-.3c-1.34-.47.67.37-.61-.25a15.27,15.27,0,0,1-1.78-1l-.59-.41c.9.63-.29-.28-.45-.44-.42-.4-.82-.83-1.21-1.27-.15-.18-.29-.36-.45-.54-.76-.9.55.76-.15-.19s-1.52-2.1-2.3-3.13c-1.91-2.52-4.24-5.57-7.43-6.46-3.83-1.07-7.34,1.12-9.18,4.43a21.5,21.5,0,0,0-1.68,4.47c.22-.76,0-.09,0,.09-.26.64-.54,1.26-.8,1.9-.32.81-.62,1.62-.93,2.43-.21.56-.42,1.11-.64,1.67-.1.27-.8,1.94-.36.92-.52,1.21-1.08,2.42-1.7,3.58a30.65,30.65,0,0,1-1.86,3.05s-.71.94-.29.4-.3.35-.31.37a21.1,21.1,0,0,1-1.46,1.53c-.22.21-.44.4-.67.59s-.85.62-.07.08c-.5.34-1,.68-1.52,1l-.82.43c-.17.09-.92.41-.23.13a15.25,15.25,0,0,1-2.47.74c.06,0-1.33.22-.68.13s-.76.05-.69.05a17.46,17.46,0,0,1-2.17,0c-.43,0-.86-.05-1.29-.1.19,0,.8.14-.09,0s-1.51-.3-2.26-.51-1.22-.36-1.82-.58c-.13-.05-1.31-.53-.34-.11l-.69-.32a28.53,28.53,0,0,1-3.66-2.05c-.54-.35-1.06-.73-1.59-1.1-1-.75.67.57-.31-.25-.2-.16-.41-.32-.6-.49-1.11-.92-2.16-1.91-3.18-2.93s-1.82-1.91-2.68-2.9c-.43-.5-.85-1-1.27-1.52-.25-.3-.5-.61-.74-.92-.06-.07-.85-1.1-.27-.33a89.53,89.53,0,0,1-10.42-17.11c0-.05-.57-1.35-.22-.5l-.48-1.19c-.31-.8-.6-1.6-.87-2.41a45.53,45.53,0,0,1-1.36-4.9c-.19-.82-.35-1.65-.48-2.48-.05-.28-.09-.56-.13-.84.13,1-.07-.73-.08-.9a37.58,37.58,0,0,1-.12-5.09,4.54,4.54,0,0,0-4.5-4.5,4.59,4.59,0,0,0-4.5,4.5Z"/></g></svg>