<svg xmlns="http://www.w3.org/2000/svg" viewBox="0 0 800 800"><defs><style>.cls-1,.cls-2{fill:none;}.cls-2,.cls-3{stroke:#e2d8e1;stroke-miterlimit:10;stroke-width:2px;}.cls-3,.cls-4{fill:#e2d8e1;}</style></defs><g id="clean"><path class="cls-1" d="M369.08,478.74C374,476,377,472,381,468c6-7,13,1,19,4,2,1,5,0,8-1,20-10,39-22,54.59-37.29"/><path class="cls-1" d="M469.29,458.53a137.75,137.75,0,0,1-3.68-14.28c-14.1,14.69-32.58,25.9-50.9,33.9q-4.9,2.14-9.76,4a5.79,5.79,0,0,0-2.34,1.33,5.49,5.49,0,0,0-1.1,2.79,21.82,21.82,0,0,0-.17,8.63c1.14,5.22,6.22,9.76,11.82,7.87,3-1,5.08-3.73,6.44-6.58,2.6-5.44,3.84-12.12,8.81-16.08,5.76-4.6,11.43-2.22,14.53,3.89,6.76,13.37,6.58,29,9.87,43.65,1.55,6.89,8,8.77,13.56,4.28a19,19,0,0,0,5.19-7.41c4.88-11.23,4.14-23.86,4.45-35.82.12-4.59.22-9.22.46-13.84A72.5,72.5,0,0,1,469.29,458.53Z"/><path class="cls-2" d="M346.13,596.86C348,597,349,597,351,597c3,1,5,2,8,2h9c15,2,32,7,47,2,3-6,1-12-5-16-9-6-17,0-24,5-11-4-10-18-15-27-2-3-6-6-9.68-5.8"/><path class="cls-2" d="M307.71,593.8c8,4.24,18.35,3.21,27.15,3"/><path class="cls-2" d="M273.86,608.87C310,618,347,626,383.82,617.26c-1.77-3.14-3.35,1.13,0,0C375,611,365,610,356,605c-24-2-50-1-72.93-9.62"/><path class="cls-2" d="M370.09,485.19C371,485,373,485,374,484c6-4,14-17,21-8,2,12-2,28,12,33,8,3,16-2,19-10,0-3,0-6,2-8s5-5,8-2c9,11,6,27,9,41,2,10,10,17,19,14,11-4,17-16,19-27s1-21,.59-31.86"/><path class="cls-3" d="M590,464.82a17.24,17.24,0,0,1-5.42.84A252.09,252.09,0,0,1,572,498.78c-4,8.68-5.08,34.68-19.4,25-8.26-5.61-20.82-3.38-26.65,4.73-9.93,13.82-12.58,36.31-18,52.23-1.28,3.76-2.63,7.6-5.19,10.64s-6.61,5.14-10.48,4.28c-11.43-2.52-14.26-19.27-27.06-6.33a72.45,72.45,0,0,0-13.31,18.65c-1.42,2.87-2.68,5.88-4.75,8.33s-5.18,4.29-8.36,3.9c-8.52-1-10.27-20.35-11.67-26.49-1.86-8.15-5-16.73-12-21.27a18.92,18.92,0,0,0-16.23-1.64c-5.33,1.85-6.87,7.5-12.69,5.4-4-1.43-6.69-8.47-8.58-11.82a63.31,63.31,0,0,0-8.46-11.66c-2.21-2.41-4.85-4.74-7.9-5.64a35.12,35.12,0,0,1-2.3,11.29,6.49,6.49,0,0,1,4.23-.5c2.84.66,4.76,3.26,6.34,5.72,4.91,7.68,7.32,17.82,12.52,25,1.17,1.61,3.28,2.72,5.17,2.11,1.65-.53,2.66-2.11,3.83-3.38,3.55-3.85,12.55-5.24,18.71-.92,5.11,3.59,7.45,10.51,5.68,17.17-3.2,0-6.4,0-9.6,0-2.33,0-4.17-.74-6.43-.77-5.54-.08-11.22.52-16.57-.69-2.95-.67-5.82-.57-8.75-1.06-2.67-.44-5.3-.91-8-1.33-1.25-.19-2.49,0-3.76-.22s-2.52-1-3.79-1.26a39.41,39.41,0,0,0-8.54-.94,40.22,40.22,0,0,0-7,.18,24.56,24.56,0,0,1-8.67.54,49.11,49.11,0,0,0-9.26-.72c-2.56,0-4.89-.68-7.42-.78a21.15,21.15,0,0,1-6-1.55c-2.27-.76-4.5-1.23-6.78-1.84a30.9,30.9,0,0,1-3.66,1.39A29,29,0,0,1,279,592.07c-.13.68-.28,1.37-.44,2,2.7,1.22,5.54,2.2,8.17,3.11a35.92,35.92,0,0,0,4.88,1.33c2.74.52,5.53.64,8.28,1.07,4.57.72,9,2.13,13.54,3a116.94,116.94,0,0,0,15.27,1.7c3.87.19,7.75-.16,11.62,0a77.69,77.69,0,0,1,8.77.44,55.39,55.39,0,0,1,5.89,1.65c5.16,1.43,11,1.77,15.28,5.07a19.39,19.39,0,0,0,7.34,3.23c2.07.52,3.89,1.76,6.1,1.4L384,618l-1,.16c-37.23,5.67-71.07-2.31-107.11-8.41a27.18,27.18,0,0,1-3.92-1,40.26,40.26,0,0,1-3.53,4.28c14.6,4,29.39,7.55,43.91,11.68,21.39,6.08,46.46,4.36,68.39,3.1,8.83-.5,18.1-.78,26.82-2.44,4.25-.81,12.93-5.3,16.93-3.23,1.77.92,3,2.6,4.39,4,3.69,3.57,8.65,5.13,13.55,3.42,5.21-1.81,10.33-4.27,14.1-8.28,6.73-7.16,8.25-18.27,15.55-24.84s14.29,9.41,24.42,7.62c5.75-1,10.7-4.84,14.28-9.44,5.52-7.09,8.88-15.8,10.95-24.47,2.4-10,3.87-20.46,8.4-29.74a27.34,27.34,0,0,1,7.75-10.09c2.15-1.61,4.87-2.78,7.5-2.22,8.32,1.76,11.57,18.58,22.38,6.15,3.41-3.92,4.67-9.19,6.25-14.13,5.72-17.89,15.33-33.71,19.32-52.22q.54-2.51,1-5A21.93,21.93,0,0,1,590,464.82Z"/><path class="cls-4" d="M483.53,483.3a37.3,37.3,0,0,1-7.06-8.46c-.24,4.62-.34,9.25-.46,13.84-.31,12,.43,24.59-4.45,35.82a19,19,0,0,1-5.19,7.41c-5.58,4.49-12,2.61-13.56-4.28-3.29-14.61-3.11-30.28-9.87-43.65-3.1-6.11-8.77-8.49-14.53-3.89-5,4-6.21,10.64-8.81,16.08-1.36,2.85-3.46,5.57-6.44,6.58-5.6,1.89-10.68-2.65-11.82-7.87a21.82,21.82,0,0,1,.17-8.63,5.49,5.49,0,0,1,1.1-2.79,5.79,5.79,0,0,1,2.34-1.33q4.85-1.83,9.76-4c18.32-8,36.8-19.21,50.9-33.9-.79-3.86-1.44-7.77-2-11.69q-.92,1-1.86,2c-9.12,9.5-20.07,17-31.43,23.54-5.6,3.24-11.32,6.25-17.07,9.22-4.47,2.32-11.52,8.3-16.33,3.43-1.29-1.31-2-3.12-3.36-4.33A6.92,6.92,0,0,0,388,465a12.25,12.25,0,0,0-5.39,2.48c-4.54,3.39-10.11,10.85-15.39,11.84.46,2.2.84,4.42,1.16,6.66,6.62-1.75,13-8.29,17.86-12a7,7,0,0,1,2-1.18,4.38,4.38,0,0,1,4,.92,8.54,8.54,0,0,1,2.35,3.49c2.94,7.4.15,15.85,3.49,23.15,3.59,7.85,14.57,11.42,21.84,6.4,4.9-3.39,5.45-10.3,8.28-15.55,1-1.84,2.73-3.71,4.8-3.39,4.3.65,7.06,8.39,8,11.91,1.3,4.68,1.64,9.56,2.19,14.39s1.35,9.69,2.36,14.47a29.26,29.26,0,0,0,2.93,8.74c3.92,6.77,12.75,8,19.31,4.35a23.1,23.1,0,0,0,7.94-8C485.13,518.69,484.16,500.92,483.53,483.3Z"/><path class="cls-4" d="M385.25,614.72l-2.05.34a2.39,2.39,0,0,0-1,.54,2.31,2.31,0,0,0-.77.84,3.29,3.29,0,0,0-.3,2.31l.3.72a3.1,3.1,0,0,0,1.08,1.08l.71.3a3.1,3.1,0,0,0,1.6,0l2.05-.34a2.2,2.2,0,0,0,1-.54,2.23,2.23,0,0,0,.77-.84A2.25,2.25,0,0,0,389,618a2.2,2.2,0,0,0-.06-1.19l-.3-.72a3,3,0,0,0-1.07-1.07l-.72-.31a3.1,3.1,0,0,0-1.6,0Z"/><path class="cls-4" d="M412.57,602.72c-.14.52-.31,1-.49,1.53a2.3,2.3,0,0,0-.06,1.19,2.25,2.25,0,0,0,.36,1.12,2.31,2.31,0,0,0,.77.84,2.2,2.2,0,0,0,1,.54l.8.11a3.12,3.12,0,0,0,1.52-.41l.6-.47a3,3,0,0,0,.77-1.33,16,16,0,0,0,.49-1.53,2.19,2.19,0,0,0,.06-1.19,2.28,2.28,0,0,0-.36-1.12,2.23,2.23,0,0,0-.77-.84,2.39,2.39,0,0,0-1-.54l-.8-.1a2.86,2.86,0,0,0-1.51.41l-.61.46a3,3,0,0,0-.77,1.33Z"/><path class="cls-4" d="M415.83,600.52h-.37a2.26,2.26,0,0,0-1.15.25,2.31,2.31,0,0,0-1,.62,2.34,2.34,0,0,0-.62,1,2.3,2.3,0,0,0-.26,1.16l.11.79a3,3,0,0,0,.77,1.33l.61.47a3.05,3.05,0,0,0,1.51.41h.37a2.32,2.32,0,0,0,1.16-.26,2.25,2.25,0,0,0,1-.62,2.28,2.28,0,0,0,.62-1,2.19,2.19,0,0,0,.26-1.15l-.11-.8a3,3,0,0,0-.77-1.33l-.6-.46a2.92,2.92,0,0,0-1.52-.41Z"/><path class="cls-4" d="M305.89,596.38a28.46,28.46,0,0,0,10.4,2.6c4.12.19,8.23.61,12.34.9,8.37.61,16.75,1.08,25.14,1.12a68.9,68.9,0,0,1,11.86,1.54c4,.72,7.92,1.52,11.9,2.19q3.18.54,6.39.94c2.06.25,4.09.3,6.16.43,4.19.27,8.35,1,12.55,1.17A32.38,32.38,0,0,0,415,605.82a7.86,7.86,0,0,0,5-6.47,16.24,16.24,0,0,0-1-8.64c-1.28-3.11-4.28-5.67-7.15-7.3-5.91-3.36-12.89-3.39-19.18-1.18a11.55,11.55,0,0,0-3.82,2.29c-.4.34-.77.71-1.16,1.07l-.66.63a3.47,3.47,0,0,0-.29.25c-.34.3.36-.25,0,0-.21.15-.42.28-.64.42l-.34.17c.16-.07.49-.11,0,0-.19,0-.77.1-.29.08-.24,0-.82,0-.86,0,.32.09-.24-.15-.32-.2a1.65,1.65,0,0,1-.58-.43,8.85,8.85,0,0,1-1.11-1.27c-.5-.7-1-1.4-1.53-2.08l-.62-.76c-.28-.35-.09,0-.33-.53s-.59-1.17-.87-1.76l-.37-.84-.19-.42c-.2-.48.14.34-.05-.14-1.05-2.56-2-5.18-3-7.74-2.19-5.31-5-10.46-10-13.6a20.41,20.41,0,0,0-4.22-1.94,3,3,0,1,0-1.59,5.78,13,13,0,0,1,5.6,3.77c.43.48.71.83.84,1,.35.49.68,1,1,1.5a33.41,33.41,0,0,1,1.85,3.5c.93,2,1.8,4.42,2.74,6.85a49.93,49.93,0,0,0,3.27,7.45,30.6,30.6,0,0,0,2.37,3.11,13.37,13.37,0,0,0,3.59,3.64,7.94,7.94,0,0,0,8.56-.27,23.69,23.69,0,0,0,2.75-2.35l.58-.53c.06-.05.74-.58.21-.2.22-.15.44-.3.67-.43a4.23,4.23,0,0,1,.47-.25c-.3.12-.28.12,0,0,3-.81,5.21-1.5,8.33-1.26a15.39,15.39,0,0,1,7.29,2.62A14.65,14.65,0,0,1,413,592a5.7,5.7,0,0,1,1.16,2.89s.16,1,.09.42c0,.25,0,.51.07.76a15.32,15.32,0,0,1,0,1.66,3.93,3.93,0,0,1-.77,2.33c.41-.57,0,0-.17.1.7-.38-.12,0-.17,0,.81-.15-.45.1-.45.1-.47.14-.94.28-1.42.39a25.47,25.47,0,0,1-5.84.68,102.25,102.25,0,0,1-11.84-.92c-3.83-.4-7.67-.42-11.49-1-7.66-1.12-15.2-2.92-22.88-3.94-4.49-.59-9-.49-13.49-.64s-8.89-.39-13.33-.69-9-.65-13.47-1c-3.45-.26-7.05-.59-10.05-1.95a3.08,3.08,0,0,0-4.1,1.08,3,3,0,0,0,1.07,4.1Z"/><path class="cls-4" d="M274,611.77c14.91,3.55,29.76,7.44,44.87,10s30.26,3.8,45.53,2.26c4.19-.42,8.41-.24,12.6-.57a13,13,0,0,0,9-4.12c1.22-1.29,1.21-3.87-.6-4.71-1.56-.72-3.32-1.28-4.93-.34a3.6,3.6,0,0,0-1.57,4.2,3.94,3.94,0,0,0,3.63,2.79,4.55,4.55,0,0,0,3.94-2.55,3,3,0,0,0-1.79-4.41c-4.95-1.42-10-2.72-14.63-5a36.13,36.13,0,0,1-6.69-4.3c-2.31-1.88-5.76-2.62-8.65-2.93s-6.15-.14-9.2-.3-6.34-.43-9.5-.77c-6.09-.65-12.14-1.62-18.16-2.74-7-1.28-13.89-2.77-20.82-4.28a3.07,3.07,0,0,0-3.69,2.09,3,3,0,0,0,2.1,3.69c12.39,2.7,24.81,5.32,37.41,6.87A165.61,165.61,0,0,0,351.54,608c2.56,0,5.31.17,7.62,1.44,1.1.61,2.11,1.62,3.18,2.36A39.23,39.23,0,0,0,366,614c5.36,2.84,11.21,4.45,17,6.12l-1.79-4.41c-.37.64.37-.23-.07.13a2.33,2.33,0,0,1,.81-.46,2.12,2.12,0,0,1,2.53,1.22,2.42,2.42,0,0,1-1.64,3s-.87.27-.84.11.81.32.29.08l-.61-4.72c-.25.27-.51.54-.78.79,0,0-.8.68-.39.37-.23.17-.49.33-.74.48-.05,0-.88.42-.31.18a8.57,8.57,0,0,1-3.27.6c-3.71.21-7.43.13-11.14.45a156.62,156.62,0,0,1-22.09.65c-14.68-.76-29.14-3.61-43.43-6.91-8-1.84-16-3.85-24-5.75-3.76-.9-5.36,4.89-1.6,5.78Z"/><path class="cls-4" d="M589.2,461.92a16.05,16.05,0,0,1-4.62.74,3.07,3.07,0,0,0-2.89,2.2,246.63,246.63,0,0,1-9.23,25.57c-1.34,3.15-3,6.23-4.07,9.47-.65,1.87-1.13,3.8-1.62,5.72-.58,2.28-1.14,4.57-1.8,6.83a41.35,41.35,0,0,1-2.12,5.94,22,22,0,0,1-1.34,2.36c0,.08-.56.75-.12.21-.16.18-.31.37-.48.55s-1.18,1-.59.61c-.3.21-.61.39-.93.57-.61.34.43-.12,0,0-.18,0-.36.1-.53.15-.69.21.66,0-.08,0h-.46a5.53,5.53,0,0,1-.71,0c.73.09,0,0-.21-.08a9.07,9.07,0,0,1-2.66-1.21,27.69,27.69,0,0,0-4.36-2.34,21.91,21.91,0,0,0-9.64-1.54,23.06,23.06,0,0,0-17.24,9.11c-4.14,5.62-6.79,12.34-8.95,18.93-2.28,7-4,14.14-5.78,21.25-.85,3.33-1.73,6.65-2.74,9.94a48.22,48.22,0,0,1-4,10.27c-1.62,2.78-4.35,5.58-7.8,5.64-2.44,0-4.45-1.21-6.37-2.63-3.32-2.46-6.49-6.66-10.84-8.2-6-2.15-11.43,2.49-15.27,6.6A82.63,82.63,0,0,0,448.1,609c-1.54,3.16-3.44,7-7.12,8.06a5.42,5.42,0,0,1-1.62.21c-.22,0-1.33-.41-.75-.16a4,4,0,0,1-2-1.58,5,5,0,0,1-.67-1c-.28-.45-.54-.91-.79-1.38a20.09,20.09,0,0,1-1.28-3.07,60.83,60.83,0,0,1-2.05-7.74c-1-5-1.67-9.93-3.18-14.77-2.16-6.92-5.72-13.75-12-17.77s-16-4.52-22.2-.08c-1.14.82-2.18,1.75-3.27,2.64a10.3,10.3,0,0,1-1.1.77,4.56,4.56,0,0,1-1,.46c-2.5.35-4.05-2-5.31-4.15-1.58-2.64-2.79-5.48-4.38-8.12A67.45,67.45,0,0,0,371.69,551c-2.68-3-5.74-5.59-9.61-6.83a3,3,0,0,0-3.8,2.89,34.27,34.27,0,0,1-2.19,10.49c-.75,2,1.63,4.55,3.69,3.69,2.87-1.2,4.71.25,6.36,2.61a50.73,50.73,0,0,1,4.4,8c2.57,5.61,4.58,11.56,7.95,16.78,1.71,2.66,4,5.14,7.42,5.22s5.26-2.44,7.52-4.67c3-3,8.94-3.09,12.74-1.41,5.73,2.53,7.84,9.21,6.4,15l2.89-2.2-7,0a43.52,43.52,0,0,1-6.56-.52c-4.57-.68-9.26,0-13.86-.25-2.12-.13-4.14-.61-6.23-.91-2.48-.37-5-.42-7.48-.83-2.25-.37-4.49-.78-6.74-1.13a26.12,26.12,0,0,0-3.29-.3,11.18,11.18,0,0,1-3.8-.95c-4.2-1.47-9-1.35-13.35-1.43s-8.67,1.37-13.14.69c-4.21-.63-8.46-.38-12.66-1a39.84,39.84,0,0,1-6.16-.94c-2.22-.68-4.38-1.46-6.64-2a15.78,15.78,0,0,0-3.63-.83c-1.26,0-2.7.93-3.9,1.32a25.34,25.34,0,0,1-6.73,1.27,27.59,27.59,0,0,1-13.73-3.18c-1.61-.83-4-.22-4.41,1.79-.14.68-.29,1.37-.45,2.05A3,3,0,0,0,277,596.7a92,92,0,0,0,10.23,3.84,63.24,63.24,0,0,0,10.85,1.84,99.94,99.94,0,0,1,10.39,2.2,102.58,102.58,0,0,0,11.58,2c7.71.91,15.39.62,23.14.76a24.33,24.33,0,0,1,10.38,1.75c3.14.93,6.39,1.38,9.54,2.28a17.07,17.07,0,0,1,4.74,2,29,29,0,0,0,4.82,2.8c1.67.69,3.4,1.08,5.11,1.65,2,.66,3.76,1.42,5.88,1.2l-2.89-2.21.3,1.91,2.09-3.69c-28.59,4.89-57.88.32-86.11-4.67L285,608.24c-4.07-.71-8.24-1.18-12.18-2.44a3.09,3.09,0,0,0-3.39,1.38,39.66,39.66,0,0,1-3.06,3.67,3,3,0,0,0,1.32,5c9.26,2.55,18.58,4.9,27.87,7.34,8.63,2.25,17.19,5.06,26,6.59,17,3,34.28,2.36,51.39,1.41,8.74-.49,17.52-.76,26.22-1.68a58.65,58.65,0,0,0,11.71-2,82.16,82.16,0,0,1,9.05-2.78,8.52,8.52,0,0,1,3-.11,4.12,4.12,0,0,1,1.33.86c.81.71,1.49,1.56,2.25,2.33a17.51,17.51,0,0,0,10.49,5.25c4.07.45,7.89-1.15,11.53-2.78a32.33,32.33,0,0,0,9.85-6.6c5.09-5.16,7.35-12.11,10.76-18.34a32.19,32.19,0,0,1,2.6-4.13,21.69,21.69,0,0,1,1.54-1.77,13.45,13.45,0,0,1,1-1c.8-.68-.4.28.38-.29.07,0,.89-.42.28-.19a6.32,6.32,0,0,1,.62-.18c.46-.11-.71,0,.07,0,.25,0,.5,0,.75,0-.7-.07.53.18.72.24.82.27-.51-.26.3.12.26.13.52.26.77.4,4.51,2.51,8,6.5,13.1,8,7,2,14.54-2.32,19.33-7.2,5.79-5.9,9.55-13.73,12.12-21.5,2.67-8.07,3.84-16.53,6-24.72,1.94-7.23,4.75-16.09,11.15-20.65,1.34-1,3.06-1.86,4.75-1.6a4.26,4.26,0,0,1,2.28,1,15.58,15.58,0,0,1,2,1.81c.82.81,1.59,1.68,2.37,2.52,3.11,3.36,7.16,6.73,12,4.94,7.19-2.62,10.54-10.55,12.63-17.28a240,240,0,0,1,8.92-23.48,230.23,230.23,0,0,0,9.29-23.9c1.3-4.25,2.23-8.58,3.11-12.95a3,3,0,0,0-4.41-3.38,20,20,0,0,1-3.67,1.7c-3.63,1.24-2.07,7,1.6,5.79a28.89,28.89,0,0,0,5.1-2.31L591.49,462A141.82,141.82,0,0,1,584.1,487c-3.15,7.88-6.74,15.58-9.82,23.48-1.46,3.75-2.76,7.54-3.94,11.37-1.1,3.56-2.22,7.34-4.68,10.23a14.27,14.27,0,0,1-3.23,3l-.57.33c-.83.44.43-.09-.4.17a4.57,4.57,0,0,1-.66.18c-.22,0-.17,0,.16,0a4.26,4.26,0,0,1-.5,0c-.83,0,.13.19-.64-.12-.11,0-.83-.36-.19-.05a4.77,4.77,0,0,1-.55-.29c-.19-.12-1.2-.85-.78-.51-.43-.35-.84-.74-1.24-1.13-3.16-3.09-5.87-7.05-10.33-8.35-8.31-2.43-15.35,6.16-18.69,12.59-7.77,15-7.19,32.66-15,47.6-3.4,6.51-8.36,13.3-15.81,15.3a8.15,8.15,0,0,1-6.35-.75,45.63,45.63,0,0,1-6.16-4.17c-3.8-2.82-8.51-5.63-13.14-2.82-2.87,1.74-5.05,4.87-6.76,7.68-1.82,3-3.22,6.24-4.75,9.39a37,37,0,0,1-5.16,8.47,26.68,26.68,0,0,1-9,6.35c-3.19,1.48-6.6,2.91-10.13,1.89-3.74-1.09-5.57-4.28-8.52-6.49-5.32-4-12.54-.3-18,1.45a53.42,53.42,0,0,1-10.73,1.84c-4.49.45-9,.69-13.51.93-16.86.89-33.78,2.24-50.65.88a132.24,132.24,0,0,1-24.87-4.68c-9.05-2.5-18.15-4.8-27.23-7.17q-6.51-1.69-13-3.47l1.32,5a51.87,51.87,0,0,0,4-4.88l-3.39,1.38a83.11,83.11,0,0,0,11,2.22l10.93,1.94c7.3,1.3,14.61,2.58,21.95,3.69,14.66,2.22,29.45,3.8,44.29,3.6a166.08,166.08,0,0,0,25.48-2.19c1.72-.3,2.32-2.23,2.09-3.69l-.3-1.91a3,3,0,0,0-2.89-2.2c-1.57.16-2.83-.49-4.28-1s-3.14-.79-4.62-1.44a26.66,26.66,0,0,1-3.88-2.4,21.39,21.39,0,0,0-4.43-2.1,87.64,87.64,0,0,0-9.2-2.28c-3.55-.85-6.82-2.13-10.5-2.39-7.41-.53-14.84.14-22.24-.45a98.29,98.29,0,0,1-11.21-1.5c-3.55-.69-7-1.7-10.57-2.4-3.89-.77-7.89-.82-11.74-1.75a64.72,64.72,0,0,1-11-3.83l1.38,3.39c.16-.68.31-1.36.45-2l-4.41,1.8a32.76,32.76,0,0,0,28.91,1l-2.32.3c1.7.45,3.4.84,5.09,1.32s3.43,1.21,5.19,1.67a36.72,36.72,0,0,0,4.79.63,59.41,59.41,0,0,0,5.93.66c1.66,0,3.3,0,5,.16,1.83.15,3.62.55,5.45.7,3.64.31,7.12-.93,10.73-.93a52.29,52.29,0,0,1,11,.77c1.62.35,3.07,1.15,4.7,1.43,1.95.34,3.94.25,5.91.58,3.77.63,7.49,1.2,11.3,1.55s7.49,1.26,11.36,1.31,8-.36,11.88.32c4.28.73,8.79.38,13.12.39a3,3,0,0,0,2.89-2.21c1.62-6.46.23-13.57-4.5-18.42-4.56-4.68-11.6-6.14-17.83-4.61a14.62,14.62,0,0,0-7.07,3.86c-.7.74-1.51,2.27-2.51,2.61s-1.87-.83-2.36-1.55c-3.8-5.68-5.92-12.25-8.81-18.39-3-6.45-8.46-16-17.08-12.38l3.69,3.69a39.54,39.54,0,0,0,2.4-12.08l-3.79,2.89c3.7,1.2,6.45,4.58,8.84,7.49a55.06,55.06,0,0,1,6.43,9.76c2.75,5.35,6.08,12.85,13.29,12.42,3.24-.19,5.43-2.26,7.81-4.2a13.36,13.36,0,0,1,8.79-2.74c7.59.08,12.68,5.56,15.58,12.09,4.42,10,3.72,21.36,8.6,31.15,2.53,5.08,7.33,8.73,13.23,6.75,8.27-2.76,10.6-12.41,14.73-19.09a68.19,68.19,0,0,1,7.26-9.71c2-2.22,4.6-5.13,7.15-6.08a6.38,6.38,0,0,1,.88-.26s.88-.13.44-.09,1.49.13.67,0a7.58,7.58,0,0,1,1.24.34c-.5-.18.69.36,1,.52a10.83,10.83,0,0,1,2.14,1.63c.87.76,1.71,1.56,2.56,2.34,4.39,4,9.85,7.77,16.12,6.15,8.29-2.15,11.61-10.64,14-18,4.5-13.72,6.36-28.37,12.34-41.6,2.55-5.63,5.66-11.45,11.68-13.89a18.31,18.31,0,0,1,9-1.21c3,.36,5.28,1.66,7.83,3.17,4.13,2.46,9,2.76,12.62-.65,3.26-3,4.79-7.76,6-11.9s2.06-8.66,3.5-12.86c.14-.41.3-.81.45-1.22s-.3.66,0,0,.52-1.13.78-1.7q1.43-3.19,2.79-6.42c1.77-4.2,3.45-8.44,5-12.73s3-8.62,4.29-13l-2.9,2.2a22.59,22.59,0,0,0,6.22-1C594.48,466.59,592.91,460.8,589.2,461.92Z"/><path class="cls-4" d="M485.65,481.17a35.7,35.7,0,0,1-6.59-7.85,3,3,0,0,0-5.59,1.52c-.52,10.22-.23,20.48-.88,30.69a58.79,58.79,0,0,1-2.38,14c-1.21,3.88-3,8.41-6.54,10.64a9.92,9.92,0,0,1-1.2.66l-.18.08-.6.2a4.38,4.38,0,0,1-2,.22c-.48,0,.43.09,0,0l-.54-.12-.52-.17c-.45-.14.36.21-.05,0-.16-.09-.86-.5-.75-.42.27.2-.19-.17-.25-.22s-.34-.33-.5-.51c-.4-.43-.17-.2-.09-.1a4.11,4.11,0,0,1-.34-.51c-.12-.2-.48-.89-.42-.74a16.85,16.85,0,0,1-.84-3.19c-.49-2.36-.9-4.74-1.28-7.12-1.48-9.46-2.35-19.12-5.44-28.25-1.44-4.27-3.21-9.17-6.68-12.24a11.05,11.05,0,0,0-11.67-2.2C426,477.3,423,480.93,421,485c-1.79,3.75-2.77,7.81-4.89,11.29a8.29,8.29,0,0,1-3.56,3.46,5,5,0,0,1-4.3-.18,7.66,7.66,0,0,1-3.29-3.46,12.15,12.15,0,0,1-.95-5.81,26.3,26.3,0,0,1,.4-3.3c.14-.75.17-1.34.63-1.7a12.46,12.46,0,0,1,2.93-1.17c1.33-.52,2.66-1.06,4-1.61,4.58-1.91,9.11-3.94,13.56-6.15a173.32,173.32,0,0,0,24.59-14.82,144.39,144.39,0,0,0,11.43-9.22q2.57-2.31,5-4.77c1.22-1.23,2.3-2.25,2-4.15-.24-1.4-.55-2.79-.8-4.18-.45-2.5-.84-5-1.19-7.51-.31-2.24-3.62-2.86-5-1.32C450.14,443,435.58,452,420.78,460c-3.59,1.93-7.31,3.66-10.81,5.75-2.65,1.57-5.13,3.37-8,3.84.47-.08-.45,0-.58,0a3.53,3.53,0,0,1-.46,0c.13,0,.52.14-.09,0a5.24,5.24,0,0,1-.88-.26c.46.2-.59-.4-.33-.21-1.44-1.05-2.16-2.95-3.34-4.26-3-3.38-8-3.58-11.9-1.9s-6.72,4.79-9.66,7.62a47.09,47.09,0,0,1-4.18,3.73,17.93,17.93,0,0,1-2.15,1.39c-.18.1-.37.2-.57.29-.47.22.33-.12-.14.06a10.85,10.85,0,0,1-1.27.36,3.05,3.05,0,0,0-2.1,3.69c.45,2.2.84,4.42,1.15,6.65.23,1.61,2.29,2.49,3.69,2.1,4.28-1.18,8-3.71,11.42-6.4,1.66-1.3,3.27-2.66,4.9-4,.69-.57,1.38-1.14,2.08-1.7.31-.24.23-.19.65-.49a2.63,2.63,0,0,1,1.17-.63c1-.09,2,1.85,2.41,2.82a20.51,20.51,0,0,1,1.19,6.11c.29,4.6,0,9.29,1.15,13.79A18.66,18.66,0,0,0,410.78,512a16.49,16.49,0,0,0,10.42-2.58c3.49-2.35,5.31-6,6.75-9.8.65-1.74,1.2-3.52,1.92-5.23.44-1,1.27-3.07,2.5-3.62,0,0,.48,0,0,0a2.06,2.06,0,0,1,.47.13c-.13,0-.51-.29-.05,0,.15.09.74.48.55.33s.15.13.2.19.33.32.49.49l.38.43c-.09-.1-.29-.41.06.09.21.28.4.58.59.88a21.52,21.52,0,0,1,1.25,2.32,15,15,0,0,1,.7,1.67c.25.68.49,1.37.71,2.06a43.69,43.69,0,0,1,1.35,5.78c.84,5,1.14,10.11,1.9,15.14a82.31,82.31,0,0,0,3,14.26c1.38,4.08,3.69,7.72,7.47,9.93,7.12,4.16,16,2.22,21.88-3.15,6.58-6,10.22-15.39,12-23.94,1.82-9,1.83-18.18,1.55-27.3-.07-2.26-.16-4.52-.24-6.77-.14-3.85-6.14-3.87-6,0,.61,16.9,1.94,36.1-8.6,50.56a19.88,19.88,0,0,1-4,4.14,12.71,12.71,0,0,1-4.39,2.21,11.43,11.43,0,0,1-4.55.48,7.4,7.4,0,0,1-1.9-.32,9,9,0,0,1-2-.71c-3.12-1.57-4.76-4.33-5.81-8a104.58,104.58,0,0,1-2.8-14.46c-1.18-8.38-1.39-16.84-5.05-24.63-1.43-3-3.55-6.2-6.83-7.39-4.63-1.68-8.19,2.27-9.89,6.1-1.52,3.41-2.35,7.11-4.15,10.19a9.13,9.13,0,0,1-7.15,4.56c.42-.05-.49,0-.61,0-.37,0-.74,0-1.1,0a7.82,7.82,0,0,1-2-.23,12,12,0,0,1-4.29-1.65,11.62,11.62,0,0,1-3.26-2.76,12,12,0,0,1-2.17-4.3c-1.18-4.16-.76-8.56-1.06-12.83s-1.11-9.54-4.51-12.58a7.56,7.56,0,0,0-7-1.82c-2,.61-3.72,2.25-5.32,3.57a86.58,86.58,0,0,1-9.47,7.28,19.15,19.15,0,0,1-5.05,2.29l3.69,2.1q-.48-3.35-1.15-6.66l-2.1,3.69c3.43-.71,6.34-3.12,8.87-5.4,1.37-1.24,2.67-2.54,4-3.81.6-.59,1.21-1.17,1.84-1.73l.76-.67c.09-.08.91-.74.63-.53,2.46-1.87,6.08-3.43,8.19-.63,1.26,1.67,2.22,3.37,4,4.62a8.83,8.83,0,0,0,5.13,1.57c3.49,0,6.75-1.76,9.67-3.49,3.28-1.95,6.64-3.68,10-5.46a247.36,247.36,0,0,0,22.68-13.32,119.65,119.65,0,0,0,22.05-18.66l-5-1.32c.55,3.91,1.2,7.81,2,11.69l.77-2.92c-13.2,13.69-29.6,24-46.81,31.87-2.24,1-4.5,2-6.77,3s-4.85,1.8-7.2,2.86c-2.58,1.16-3.71,3.41-4.17,6.08a26.43,26.43,0,0,0-.43,7.63,14.45,14.45,0,0,0,7,11.18A11.32,11.32,0,0,0,418,503.3c6.54-5.48,5.76-15.81,12.37-21a9.49,9.49,0,0,1,2-1.21,4.84,4.84,0,0,1,2.28-.44c.07,0,.6,0,.14,0l.61.12a5.76,5.76,0,0,1,.59.18c.05,0,.53.21.16,0a5.7,5.7,0,0,1,1.93,1.33c2.89,2.8,4.33,7.63,5.48,11.5,2.75,9.24,3.51,18.9,5.12,28.37.72,4.24,1.21,9,4.41,12.24a10.32,10.32,0,0,0,10.61,2.31c9.37-3.25,12.74-14.77,14.06-23.59,1.48-9.95,1.09-20.12,1.37-30.15q.1-4.1.31-8.17l-5.59,1.51a41.51,41.51,0,0,0,7.53,9.07,3.08,3.08,0,0,0,4.24,0A3,3,0,0,0,485.65,481.17Z"/><path class="cls-4" d="M361.4,550.13c5.21,3.18,8.66,8.13,11.63,13.38,1.55,2.75,3,5.57,4.47,8.35,1.67,3.1,3.49,5.7,6.95,6.91a13.2,13.2,0,0,0,9.77-.8c2.66-1.26,5-3.68,7.54-4.75a13.11,13.11,0,0,1,8.44-.33,9.32,9.32,0,0,1,3.49,2c1.27,1.08,2.66,2,4,3a7.36,7.36,0,0,1,2.09,2.11,18.75,18.75,0,0,1,.65,1.8c.37,1.07.72,2.16,1.05,3.25,1.16,3.82,2,7.71,2.85,11.62.77,3.72,1.47,7.45,2.29,11.16.41,1.86.8,3.75,1.35,5.57a14.67,14.67,0,0,0,2.15,4.11,12.82,12.82,0,0,0,7.1,5.34,11.68,11.68,0,0,0,5.16.17,12.46,12.46,0,0,0,5.06-2.8,20.08,20.08,0,0,0,2.6-3.1q1.33-1.6,2.52-3.33c1.37-2,2.58-4.08,3.75-6.19,1.31-2.36,2.57-4.75,3.94-7.09.67-1.13,1.36-2.26,2.1-3.35.37-.53.74-1.06,1.13-1.58-.37.5.18-.21.21-.26.23-.28.46-.56.7-.83a24.93,24.93,0,0,1,2.68-2.66c.05,0,.74-.6.23-.21.29-.22.58-.43.88-.63a18.31,18.31,0,0,1,1.64-1l.74-.38.51-.24c-.29.12-.27.11.06,0a20.08,20.08,0,0,1,1.94-.65A16,16,0,0,1,477,588l-1.51-.41a11.73,11.73,0,0,1,3.05,2.16c1,.93,1.91,1.94,2.83,2.94a20.43,20.43,0,0,0,6.56,5.2c6.47,2.84,13.39.2,17.81-4.94a31.18,31.18,0,0,0,5-7.79,63.38,63.38,0,0,0,3-9c1.61-6.11,2.63-12.36,3.87-18.55.6-3,1.25-6,2.06-9a63.72,63.72,0,0,1,2.71-8.08,33.54,33.54,0,0,1,10.4-13.91c5.06-3.81,11.41-3.09,17.15-1.07a40.62,40.62,0,0,1,4.35,1.86c1.81.9,3.54,2.08,5.66,2a7.43,7.43,0,0,0,5.47-2.59,13.53,13.53,0,0,0,1.35-3.23l1.08-2.87c5.86-15.57,12.12-31,17.33-46.78q1-3,1.91-6c1.15-3.7-4.64-5.28-5.79-1.6-4.75,15.33-10.64,30.26-16.38,45.23q-2.42,6.28-4.75,12.6l.77-1.32c-.65.6-1.12.66-2,.15-1.28-.68-2.57-1.31-3.9-1.89a38.8,38.8,0,0,0-8.47-2.74c-5.82-1.07-12-.46-16.89,3.14-8.81,6.48-13.46,16.48-16.1,26.82s-3.65,20.78-6.91,30.83c-1.45,4.44-3.62,8.69-7.31,11.75a9.38,9.38,0,0,1-5.43,2.15,8.19,8.19,0,0,1-5.37-1.84c-1.75-1.46-3.18-3.24-4.77-4.86s-4.39-4.45-7-4.37a22.6,22.6,0,0,0-13.19,5c-6.71,5.3-9.93,13.67-14.21,20.78-.53.87-1.06,1.72-1.63,2.55q-.44.66-.9,1.29c-.14.19-.28.39-.43.57s-.11.16,0,0l-.36.44c-.74.92-1.45,2-2.22,2.82a5.31,5.31,0,0,1-1.2.9c-.28.16-.56.32-.85.47s-1.37.43-.51.33a5.51,5.51,0,0,1-5.2-1.88,11.91,11.91,0,0,1-1.69-2.39,14.17,14.17,0,0,1-1.25-3.89c-1.64-6.78-2.72-13.68-4.39-20.45-.83-3.38-1.84-6.69-3-10-1-2.83-3.14-4.62-5.52-6.28s-4.38-3.65-7.25-4.75a18.87,18.87,0,0,0-17,2.25c-2.17,1.52-4.16,3.22-6.76,3.57a7.2,7.2,0,0,1-2.79-.23,4.57,4.57,0,0,1-2.23-1.64,30.55,30.55,0,0,1-1.8-3.29c-.66-1.22-1.3-2.46-1.95-3.69-2.63-5-5.42-9.91-9.26-14.06a32,32,0,0,0-6.69-5.47c-3.3-2-6.32,3.17-3,5.19Z"/><path class="cls-4" d="M480.43,485.36c1.22,13,2.09,26.6-2.55,39.07a42.13,42.13,0,0,1-5.47,10.06l1.08-1.08a15.87,15.87,0,0,0-4.34,4.07,9.41,9.41,0,0,1-3.39,2.76c-.11,0-.91.41-.56.27q-.49.19-1,.36a16.31,16.31,0,0,1-2.09.5c-.36.06,0,0,0,0l-.61.07c-.31,0-.62,0-.92,0a17.1,17.1,0,0,1-2.15-.08c-.63-.07-.25,0-.12,0l-.45-.08c-.35-.07-.7-.14-1-.23a14.49,14.49,0,0,1-2-.67c.43.18-.41-.21-.51-.27-.27-.13-.53-.28-.79-.43s-.6-.37-.88-.57l-.18-.13c.23.18-.34-.28-.39-.33a12.75,12.75,0,0,1-1.36-1.39c-.22-.26,0,0,0,0-.12-.16-.23-.33-.34-.49a8.6,8.6,0,0,1-.55-.92,23.58,23.58,0,0,1-1.77-5.54c-1.79-7.89-1.07-16.06-2-24.06a56.08,56.08,0,0,0-1-6.44,33.85,33.85,0,0,0-1.27-3.67,28.33,28.33,0,0,0-3.48-7.3c-1.81-2.42-4.31-4.19-7.45-4.16-3.7,0-6.45,2.5-7.89,5.76-.69,1.58-1.18,3.21-1.71,4.84a15.41,15.41,0,0,1-1.89,3.9,23.26,23.26,0,0,1-5.72,6.5c-2.43,1.69-4.62,2.3-7.31,1.48s-4.75-3.13-6.11-5.5a15.92,15.92,0,0,1-1.64-3.87,32.75,32.75,0,0,1-1-4.49,70.07,70.07,0,0,1-.56-9.29c0-3.24,0-6.31-1.69-9.21a9.4,9.4,0,0,0-8.3-5c-3.51.15-7,2.07-9.77,4.1-2.51,1.82-5.08,4.26-7.34,5.91a21.66,21.66,0,0,1-4,2.37c-1.48.66-1.83,2.82-1.08,4.11a3.07,3.07,0,0,0,4.1,1.07c3.71-1.65,6.69-4.49,9.79-7a26.57,26.57,0,0,1,4.54-3.13,12.6,12.6,0,0,1,2.46-1.06l.73-.22s.61-.14.25-.09c.22,0,.44,0,.66,0,.56,0-.12-.09.44,0a5.36,5.36,0,0,1,.57.17c-.12-.05-.43-.23.09.06a5.24,5.24,0,0,1,.51.3c-.1-.07-.38-.34.08.07a4.31,4.31,0,0,1,1.33,1.75c0,.06.24.52.07.11a5.31,5.31,0,0,1,.2.56c.13.38.21.77.3,1.15.15.58,0,.22,0,.07,0,.19,0,.38,0,.57,0,.54,0,1.08,0,1.62a85,85,0,0,0,.73,12.25c1.19,8,5.72,17.33,14.57,18.75,4.58.74,8.69-.93,12.18-3.83a27.91,27.91,0,0,0,4.27-4.68,26.25,26.25,0,0,0,3.13-4.94c.86-1.91,1.4-3.91,2.09-5.88a8.78,8.78,0,0,1,1-2.05,3,3,0,0,1,1.22-1.18c-.26.09.32,0,.38-.06.49-.07-.43,0,0,0h.53c.11,0,.63.09.23,0s1.1.45.27.06l.42.21c.07,0,.63.4.29.17s.42.38.52.48.77,1,.43.47a17,17,0,0,1,1.18,2c.2.37.37.76.55,1.14,0,.08.23.52,0,.06.08.18.15.35.22.53.31.78.6,1.56.88,2.35a31.83,31.83,0,0,1,1.53,5.22c.89,4.83.88,9.78,1.07,14.67a68.58,68.58,0,0,0,2,15.64,20.28,20.28,0,0,0,2.74,6.52,17,17,0,0,0,4.28,4.18,18.88,18.88,0,0,0,21.91-.87c1.72-1.37,2.74-3.51,4.54-4.74,2-1.39,3.36-4,4.53-6.17a51.43,51.43,0,0,0,4.94-13.26c2-9,2-18.3,1.35-27.46-.16-2.18-.35-4.35-.56-6.53a3.08,3.08,0,0,0-3-3,3,3,0,0,0-3,3Z"/><path class="cls-4" d="M472.18,457.73a143,143,0,0,1-3.67-14.28c-.46-2.22-3.52-2.88-5-1.32-14,14.51-31.55,25.19-49.91,33.26-2.53,1.11-5.08,2.16-7.66,3.17s-5.22,1.72-6.5,4.33c-1.2,2.45-1.43,5.68-1.44,8.36a17.25,17.25,0,0,0,1.55,7.46c2,4.19,6.22,7.42,11,7.47,5.15.05,9.22-3.62,11.46-8,2-3.9,3-8.17,5.18-11.92a12.31,12.31,0,0,1,3.82-4.33,7.08,7.08,0,0,1,2.29-1.09,4.68,4.68,0,0,1,2-.1,6.46,6.46,0,0,1,3.66,2.44,23.57,23.57,0,0,1,3.13,6.14A78.81,78.81,0,0,1,445.92,504c.89,5,1.52,10.13,2.3,15.19.39,2.52.81,5,1.33,7.55a15.88,15.88,0,0,0,2.33,6.21,10.3,10.3,0,0,0,11,4.08c4.77-1.12,8.37-5.1,10.51-9.3,4.84-9.5,5.38-20.41,5.53-30.86.09-5.52.18-11,.36-16.56,0-1.32.09-2.65.15-4a7.26,7.26,0,0,0,0-2.28,10.68,10.68,0,0,0-1.22-2.25,58.21,58.21,0,0,1-3.41-7c-1-2.33-1.78-4.7-2.55-7.1a3,3,0,1,0-5.78,1.6,76.64,76.64,0,0,0,7.48,17l-.41-1.51c-.5,9.78-.29,19.58-.8,29.36a64.58,64.58,0,0,1-2,13.63c-1.08,4-2.61,8.37-5.68,11.27a8.62,8.62,0,0,1-3.93,2.16c-.54.16-.26.06-.09,0l-.58,0c-.2,0-1.18-.06-.61,0a7.54,7.54,0,0,1-.94-.22c-.08,0-.61-.23-.29-.09s-.39-.22-.38-.21a4.66,4.66,0,0,1-.47-.3c.1.07.39.35-.06,0a8,8,0,0,1-.71-.72,4,4,0,0,1-.33-.5,5.61,5.61,0,0,1-.54-1.07,38.46,38.46,0,0,1-1.38-6.3c-1.62-9-2.35-18.25-4.65-27.17a52.72,52.72,0,0,0-4.92-13c-2.1-3.69-5.51-6.61-9.84-7-4.16-.41-8.26,2-10.9,5-2.82,3.24-4.34,7.21-5.86,11.16-1.2,3.11-2.53,7.05-5.7,8.69-2.67,1.39-5.69,0-7.28-2.42a9.39,9.39,0,0,1-1.57-5,21.82,21.82,0,0,1,.13-3.43,11.31,11.31,0,0,1,.58-3c.15-.33.52-.51,1-.72,1.24-.51,2.51-1,3.75-1.46q3.58-1.44,7.11-3c16.8-7.38,32.87-17,46.36-29.51q2.44-2.28,4.77-4.69l-5-1.32a140.41,140.41,0,0,0,3.68,14.28,3.05,3.05,0,0,0,3.69,2.09A3,3,0,0,0,472.18,457.73Z"/><path class="cls-4" d="M370.81,488.19a20.47,20.47,0,0,0,6.24-3.35c1.11-.82,2.19-1.68,3.27-2.54l1.47-1.16s.74-.58.37-.3l.86-.64a27.86,27.86,0,0,1,3-1.95c.24-.14.49-.27.75-.4.09,0,.81-.36.52-.25s.45-.15.53-.18l.77-.22c.09,0,.89-.17.5-.11s.41,0,.5,0c.26,0,.52,0,.78,0s.18,0-.14,0l.39.08.79.22.4.14c-.23-.1-.25-.1-.06,0a12.3,12.3,0,0,1,1.75,1.11l-1.38-1.79a67.8,67.8,0,0,1,.71,7.05c.16,2.63.3,5.26.62,7.87.66,5.36,2,10.65,5.66,14.79a16.92,16.92,0,0,0,15.19,5.55c4.78-.83,8.37-4.47,11-8.32,3-4.42,5-9.46,7.32-14.23l-1.79,1.38a3.57,3.57,0,0,1,1.37-.17,5.91,5.91,0,0,1,.84,0c-.68-.09.18.07.26.1s.9.32.27.05a6.24,6.24,0,0,1,.68.35,5.5,5.5,0,0,1,.64.43c-.53-.4.29.29.37.38s.37.38.54.58c.56.66-.31-.47.19.25a15.77,15.77,0,0,1,.86,1.42c.14.25.27.5.39.76,0,0,.39.89.16.32.25.62.47,1.26.68,1.89a33.4,33.4,0,0,1,.82,3.24,18.15,18.15,0,0,1,.28,3.22c.12,2.67.19,5.35.3,8,.44,10.66,1.42,22.86,9.51,30.77a25.4,25.4,0,0,0,3.27,2.67,7.54,7.54,0,0,0,4.68,1.78,31.49,31.49,0,0,0,7.42-1.06,25.18,25.18,0,0,0,11.08-6.46c6.28-6.29,9.09-15.3,10.41-23.87,1.52-10,1.4-20,.73-30a3.08,3.08,0,0,0-3-3,3,3,0,0,0-3,3c.3,4.53.5,9.07.48,13.61,0,2.46-.08,4.93-.24,7.39-.08,1.25-.18,2.49-.3,3.73-.06.59-.12,1.19-.19,1.78,0,.28-.07.55-.11.82.08-.6-.05.4-.08.57a64.77,64.77,0,0,1-1.43,7.16c-.29,1.14-.63,2.28-1,3.4-.18.53-.36,1.06-.56,1.58-.09.24-.18.48-.28.71s-.13.32-.19.47c.1-.25.13-.29,0,0a33.78,33.78,0,0,1-3.22,5.79c-.13.2-.28.39-.42.58-.3.43.26-.29-.19.24s-.71.85-1.09,1.25a26.58,26.58,0,0,1-2.32,2.18s-.35.29-.06.06-.26.19-.27.19l-.68.48c-.5.33-1,.64-1.54.93s-1.08.56-1.63.82.45-.18,0,0l-.47.18c-.27.11-.55.21-.83.3a25.82,25.82,0,0,1-4,1l-.41.06c.32,0,.22,0,0,0l-1.14.11c-.8.06-1.59.09-2.39.09l1.51.41a20.45,20.45,0,0,1-3.4-2.27c-.5-.44-1-.91-1.45-1.39-.24-.26-.48-.52-.71-.79s-.72-.9-.48-.58a24.07,24.07,0,0,1-2.2-3.6l-.39-.83c-.08-.18-.17-.37-.24-.55,0,.06.13.33,0,0-.27-.67-.51-1.35-.74-2-1.88-5.81-2.19-11.16-2.45-17.28-.24-5.78.05-11.69-1.9-17.22-2-5.77-6.28-10.95-13-10a3.94,3.94,0,0,0-3.15,1.63,16.8,16.8,0,0,0-.88,1.81c-.57,1.2-1.12,2.4-1.68,3.6a77.73,77.73,0,0,1-3.69,7.14c-.34.56-.69,1.12-1.07,1.67q-.22.35-.48.69c-.1.15-.21.29-.32.44.18-.24.11-.14,0,0a21.11,21.11,0,0,1-2.55,2.63c-.42.37.28-.16-.19.14-.24.16-.48.33-.73.48s-.5.29-.75.43l-.33.16c-.39.2.65-.2-.08,0-.51.17-1,.32-1.55.44-.69.17.19,0-.34.07-.31,0-.62,0-.93,0s-.63,0-.95,0c0,0-.5,0-.17,0s-.24,0-.32-.06a16.91,16.91,0,0,1-2.12-.55,7.59,7.59,0,0,1-1.77-.82c-.28-.16-.56-.34-.83-.52s-.36-.24-.53-.37c-.42-.31.26.22-.13-.11a14.22,14.22,0,0,1-1.44-1.36,6.1,6.1,0,0,1-1.06-1.36,13.46,13.46,0,0,1-1.62-3.22,26.34,26.34,0,0,1-1.05-3.92,30,30,0,0,1-.54-3.82c-.29-2.93-.4-5.87-.63-8.8q-.18-2.37-.51-4.71a5,5,0,0,0-.77-2.47,7.42,7.42,0,0,0-2.46-1.81,11.16,11.16,0,0,0-8.68-.73,25.72,25.72,0,0,0-7.64,4.45c-1.16.9-2.31,1.83-3.47,2.74-.52.41-.6.48-1.33,1-.55.4-1.11.79-1.69,1.15a17.36,17.36,0,0,1-1.68,1c-.17.09-.73.32-.24.13-.32.12-.63.23-1,.33-3.69,1.11-2.11,6.9,1.6,5.78Z"/><path class="cls-4" d="M472.18,457.73a143,143,0,0,1-3.67-14.28c-.46-2.22-3.52-2.88-5-1.32-14,14.51-31.55,25.19-49.91,33.26-2.53,1.11-5.08,2.16-7.66,3.17s-5.22,1.72-6.5,4.33c-1.2,2.45-1.43,5.68-1.44,8.36a17.25,17.25,0,0,0,1.55,7.46c2,4.19,6.22,7.42,11,7.47,5.15.05,9.22-3.62,11.46-8,2-3.9,3-8.17,5.18-11.92a12.31,12.31,0,0,1,3.82-4.33,7.08,7.08,0,0,1,2.29-1.09,4.68,4.68,0,0,1,2-.1,6.46,6.46,0,0,1,3.66,2.44,23.57,23.57,0,0,1,3.13,6.14A78.81,78.81,0,0,1,445.92,504c.89,5,1.52,10.13,2.3,15.19.39,2.52.81,5,1.33,7.55a15.88,15.88,0,0,0,2.33,6.21,10.3,10.3,0,0,0,11,4.08c4.77-1.12,8.37-5.1,10.51-9.3,4.84-9.5,5.38-20.41,5.53-30.86.09-5.52.18-11,.36-16.56,0-1.32.09-2.65.15-4a7.26,7.26,0,0,0,0-2.28,10.68,10.68,0,0,0-1.22-2.25,58.21,58.21,0,0,1-3.41-7c-1-2.33-1.78-4.7-2.55-7.1a3,3,0,1,0-5.78,1.6,76.64,76.64,0,0,0,7.48,17l-.41-1.51c-.5,9.78-.29,19.58-.8,29.36a64.58,64.58,0,0,1-2,13.63c-1.08,4-2.61,8.37-5.68,11.27a8.62,8.62,0,0,1-3.93,2.16c-.54.16-.26.06-.09,0l-.58,0c-.2,0-1.18-.06-.61,0a7.54,7.54,0,0,1-.94-.22c-.08,0-.61-.23-.29-.09s-.39-.22-.38-.21a4.66,4.66,0,0,1-.47-.3c.1.07.39.35-.06,0a8,8,0,0,1-.71-.72,4,4,0,0,1-.33-.5,5.61,5.61,0,0,1-.54-1.07,38.46,38.46,0,0,1-1.38-6.3c-1.62-9-2.35-18.25-4.65-27.17a52.72,52.72,0,0,0-4.92-13c-2.1-3.69-5.51-6.61-9.84-7-4.16-.41-8.26,2-10.9,5-2.82,3.24-4.34,7.21-5.86,11.16-1.2,3.11-2.53,7.05-5.7,8.69-2.67,1.39-5.69,0-7.28-2.42a9.39,9.39,0,0,1-1.57-5,21.82,21.82,0,0,1,.13-3.43,11.31,11.31,0,0,1,.58-3c.15-.33.52-.51,1-.72,1.24-.51,2.51-1,3.75-1.46q3.58-1.44,7.11-3c16.8-7.38,32.87-17,46.36-29.51q2.44-2.28,4.77-4.69l-5-1.32a140.41,140.41,0,0,0,3.68,14.28,3.05,3.05,0,0,0,3.69,2.09A3,3,0,0,0,472.18,457.73Z"/><path class="cls-4" d="M370.81,488.19a20.47,20.47,0,0,0,6.24-3.35c1.11-.82,2.19-1.68,3.27-2.54l1.47-1.16s.74-.58.37-.3l.86-.64a27.86,27.86,0,0,1,3-1.95c.24-.14.49-.27.75-.4.09,0,.81-.36.52-.25s.45-.15.53-.18l.77-.22c.09,0,.89-.17.5-.11s.41,0,.5,0c.26,0,.52,0,.78,0s.18,0-.14,0l.39.08.79.22.4.14c-.23-.1-.25-.1-.06,0a12.3,12.3,0,0,1,1.75,1.11l-1.38-1.79a67.8,67.8,0,0,1,.71,7.05c.16,2.63.3,5.26.62,7.87.66,5.36,2,10.65,5.66,14.79a16.92,16.92,0,0,0,15.19,5.55c4.78-.83,8.37-4.47,11-8.32,3-4.42,5-9.46,7.32-14.23l-1.79,1.38a3.57,3.57,0,0,1,1.37-.17,5.91,5.91,0,0,1,.84,0c-.68-.09.18.07.26.1s.9.32.27.05a6.24,6.24,0,0,1,.68.35,5.5,5.5,0,0,1,.64.43c-.53-.4.29.29.37.38s.37.38.54.58c.56.66-.31-.47.19.25a15.77,15.77,0,0,1,.86,1.42c.14.25.27.5.39.76,0,0,.39.89.16.32.25.62.47,1.26.68,1.89a33.4,33.4,0,0,1,.82,3.24,18.15,18.15,0,0,1,.28,3.22c.12,2.67.19,5.35.3,8,.44,10.66,1.42,22.86,9.51,30.77a25.4,25.4,0,0,0,3.27,2.67,7.54,7.54,0,0,0,4.68,1.78,31.49,31.49,0,0,0,7.42-1.06,25.18,25.18,0,0,0,11.08-6.46c6.28-6.29,9.09-15.3,10.41-23.87,1.52-10,1.4-20,.73-30a3.08,3.08,0,0,0-3-3,3,3,0,0,0-3,3c.3,4.53.5,9.07.48,13.61,0,2.46-.08,4.93-.24,7.39-.08,1.25-.18,2.49-.3,3.73-.06.59-.12,1.19-.19,1.78,0,.28-.07.55-.11.82.08-.6-.05.4-.08.57a64.77,64.77,0,0,1-1.43,7.16c-.29,1.14-.63,2.28-1,3.4-.18.53-.36,1.06-.56,1.58-.09.24-.18.48-.28.71s-.13.32-.19.47c.1-.25.13-.29,0,0a33.78,33.78,0,0,1-3.22,5.79c-.13.2-.28.39-.42.58-.3.43.26-.29-.19.24s-.71.85-1.09,1.25a26.58,26.58,0,0,1-2.32,2.18s-.35.29-.06.06-.26.19-.27.19l-.68.48c-.5.33-1,.64-1.54.93s-1.08.56-1.63.82.45-.18,0,0l-.47.18c-.27.11-.55.21-.83.3a25.82,25.82,0,0,1-4,1l-.41.06c.32,0,.22,0,0,0l-1.14.11c-.8.06-1.59.09-2.39.09l1.51.41a20.45,20.45,0,0,1-3.4-2.27c-.5-.44-1-.91-1.45-1.39-.24-.26-.48-.52-.71-.79s-.72-.9-.48-.58a24.07,24.07,0,0,1-2.2-3.6l-.39-.83c-.08-.18-.17-.37-.24-.55,0,.06.13.33,0,0-.27-.67-.51-1.35-.74-2-1.88-5.81-2.19-11.16-2.45-17.28-.24-5.78.05-11.69-1.9-17.22-2-5.77-6.28-10.95-13-10a3.94,3.94,0,0,0-3.15,1.63,16.8,16.8,0,0,0-.88,1.81c-.57,1.2-1.12,2.4-1.68,3.6a77.73,77.73,0,0,1-3.69,7.14c-.34.56-.69,1.12-1.07,1.67q-.22.35-.48.69c-.1.15-.21.29-.32.44.18-.24.11-.14,0,0a21.11,21.11,0,0,1-2.55,2.63c-.42.37.28-.16-.19.14-.24.16-.48.33-.73.48s-.5.29-.75.43l-.33.16c-.39.2.65-.2-.08,0-.51.17-1,.32-1.55.44-.69.17.19,0-.34.07-.31,0-.62,0-.93,0s-.63,0-.95,0c0,0-.5,0-.17,0s-.24,0-.32-.06a16.91,16.91,0,0,1-2.12-.55,7.59,7.59,0,0,1-1.77-.82c-.28-.16-.56-.34-.83-.52s-.36-.24-.53-.37c-.42-.31.26.22-.13-.11a14.22,14.22,0,0,1-1.44-1.36,6.1,6.1,0,0,1-1.06-1.36,13.46,13.46,0,0,1-1.62-3.22,26.34,26.34,0,0,1-1.05-3.92,30,30,0,0,1-.54-3.82c-.29-2.93-.4-5.87-.63-8.8q-.18-2.37-.51-4.71a5,5,0,0,0-.77-2.47,7.42,7.42,0,0,0-2.46-1.81,11.16,11.16,0,0,0-8.68-.73,25.72,25.72,0,0,0-7.64,4.45c-1.16.9-2.31,1.83-3.47,2.74-.52.41-.6.48-1.33,1-.55.4-1.11.79-1.69,1.15a17.36,17.36,0,0,1-1.68,1c-.17.09-.73.32-.24.13-.32.12-.63.23-1,.33-3.69,1.11-2.11,6.9,1.6,5.78Z"/><path class="cls-4" d="M459.75,436.76c-.51,13.19,5.33,25.71,12.72,36.3,6.73,9.64,15.61,19.92,27.88,21.88,7.06,1.13,14.09-.57,19.29-5.65,4.09-4,6.42-9.32,8.43-14.58.29-.76.56-1.51.85-2.27l.33-.82c-.32.77.22-.49.24-.54a24.76,24.76,0,0,0,1-2.61c.12-.38.24-.77.37-1.14-.3.85.17-.23.24-.36.59-1.08-.5.7.17-.22.43-.58,0,0-.17.1.61-.45-.59.18-.89.18l-.6-.1c.46.13.41.1-.13-.09.08.09.73.54,0,0a9.25,9.25,0,0,1,.81.72,19.79,19.79,0,0,1,1.46,1.58c.11.13.84,1.07.18.2l.42.57c.39.52.76,1,1.14,1.57,1,1.3,1.91,2.61,3,3.81a20.44,20.44,0,0,0,8.37,5.38,65.31,65.31,0,0,0,10.52,2.64,39.64,39.64,0,0,0,11.74.84,24.88,24.88,0,0,0,11.16-4c3.24-2.15,6.28-4.65,9.37-7,1.87-1.42,3-3.95,1.62-6.16-1.19-1.85-4.15-3.14-6.16-1.61-2.63,2-5.24,4.05-7.93,6a30.33,30.33,0,0,1-3.89,2.46c-.33.17-.65.34-1,.48.7-.3-.18.06-.35.12a18.35,18.35,0,0,1-2.52.67c-.21,0-1.14.19-.31.08l-1.08.1c-.73.05-1.45.07-2.18.06s-1.62-.06-2.43-.13l-.88-.09c-.55-.07-.59-.07-.13,0l-.66-.1a90.36,90.36,0,0,1-9.24-2c-.81-.21-1.61-.44-2.41-.71l-.85-.3c-1.34-.47.67.37-.61-.25a15.27,15.27,0,0,1-1.78-1l-.59-.41c.9.63-.29-.28-.45-.44-.42-.4-.82-.83-1.21-1.27-.15-.18-.29-.36-.45-.54-.76-.9.55.76-.15-.19s-1.52-2.1-2.3-3.13c-1.91-2.52-4.24-5.57-7.43-6.46-3.83-1.07-7.34,1.12-9.18,4.43a21.5,21.5,0,0,0-1.68,4.47c.22-.76,0-.09,0,.09-.26.64-.54,1.26-.8,1.9-.32.81-.62,1.62-.93,2.43-.21.56-.42,1.11-.64,1.67-.1.27-.8,1.94-.36.92-.52,1.21-1.08,2.42-1.7,3.58a30.65,30.65,0,0,1-1.86,3.05s-.71.94-.29.4-.3.35-.31.37a21.1,21.1,0,0,1-1.46,1.53c-.22.21-.44.4-.67.59s-.85.62-.07.08c-.5.34-1,.68-1.52,1l-.82.43c-.17.09-.92.41-.23.13a15.25,15.25,0,0,1-2.47.74c.06,0-1.33.22-.68.13s-.76.05-.69.05a17.46,17.46,0,0,1-2.17,0c-.43,0-.86-.05-1.29-.1.19,0,.8.14-.09,0s-1.51-.3-2.26-.51-1.22-.36-1.82-.58c-.13-.05-1.31-.53-.34-.11l-.69-.32a28.53,28.53,0,0,1-3.66-2.05c-.54-.35-1.06-.73-1.59-1.1-1-.75.67.57-.31-.25-.2-.16-.41-.32-.6-.49-1.11-.92-2.16-1.91-3.18-2.93s-1.82-1.91-2.68-2.9c-.43-.5-.85-1-1.27-1.52-.25-.3-.5-.61-.74-.92-.06-.07-.85-1.1-.27-.33a89.53,89.53,0,0,1-10.42-17.11c0-.05-.57-1.35-.22-.5l-.48-1.19c-.31-.8-.6-1.6-.87-2.41a45.53,45.53,0,0,1-1.36-4.9c-.19-.82-.35-1.65-.48-2.48-.05-.28-.09-.56-.13-.84.13,1-.07-.73-.08-.9a37.58,37.58,0,0,1-.12-5.09,4.54,4.54,0,0,0-4.5-4.5,4.59,4.59,0,0,0-4.5,4.5Z"/><path class="cls-4" d="M271.89,617.22c1.67,0,3.5.15,5-.71a5.48,5.48,0,0,0,1.67-1.65,8,8,0,0,1-1.16,1.24c.42-.21.48-.25.17-.11s-.24.1.18,0c.25-.09.49-.17.73-.27a8.93,8.93,0,0,0,4.38-3.37,11,11,0,0,0,2-4.14,25.33,25.33,0,0,0,.67-10.24,13.93,13.93,0,0,0-1.5-4.3c-.21-.36-.48-.7-.72-1-.07-.1-.22-.49-.34-.54.3.13.3,1.91.38,1.33l-.62,2.27a3.31,3.31,0,0,1-2.79,1.66c-1.24,0-.81-.17-.47-.06a4.37,4.37,0,0,0,.7.22c.56.08-.71-.38-.19-.08.74.43,1.53.78,2.26,1.24a14.14,14.14,0,0,0,7,2.39,35.55,35.55,0,0,0,8.54-.87,55.16,55.16,0,0,0,7.58-1.47,14.91,14.91,0,0,0,6.91-4.54c.48-.6.92-1.23,1.38-1.85-.58.78.35-.34.52-.53a13.09,13.09,0,0,0,2.66-4.11,24.38,24.38,0,0,0,.76-3.17c.29-1.33.7-2.63,1-4a24.35,24.35,0,0,0,.64-8.54c-.34-3.24-1-6.41-1.45-9.63-.21-1.54-.41-3.1-.77-4.62-.17-.7-.41-1.37-.63-2.05-.08-.28-.15-.56-.24-.84-.29-.89-.05.52-.06-.47l-8.84,1.2a8.75,8.75,0,0,0,1.86,3.11c.25.26.52.49.78.74s.78,1,.2.14a10.4,10.4,0,0,0,4.38,3.93,30.08,30.08,0,0,0,10.62,2.44,90.18,90.18,0,0,0,10.78.13c1,0,1.95-.11,2.92-.22.73-.07,1.45-.18,2.18-.27,1.6-.21-.85.06.66-.08,2.09-.19,4.18-.38,6.25-.67a21.38,21.38,0,0,0,17.31-13.25A22.78,22.78,0,0,0,366.31,541a34.79,34.79,0,0,0-2.93-11.21c-1.73-3.67-4.44-6.86-7-9.94a44.19,44.19,0,0,0-4-4c-1.54-1.4-2.83-3.09-5-3.55a4.5,4.5,0,0,0-4.38,7.52c3.22,3.19,8.47,3.1,12.69,2.85,4.72-.28,9.69-1.11,13.57-4A19.73,19.73,0,0,0,377,507.17c1.17-5.45.62-11.25-.29-16.7a52.56,52.56,0,0,0-1.68-8.05c-.86-2.59-1.81-5.2-4.27-6.68a4.45,4.45,0,0,0-4.54,0,6.55,6.55,0,0,0-2.5,3.21c-.14.39-.78,2.1-.14.74L372,482a5.9,5.9,0,0,0-1.83-4.59,4.5,4.5,0,0,0-6.36,6.36q-.74-3.35-.81-1.77a4.51,4.51,0,0,0,3.3,4.34c1.83.42,4.22-.23,5.08-2.07a12.07,12.07,0,0,0,.72-1.8c.49-1.68.45-.18-1.31,1.08h-4.54s-.74-.66-.4-.31-.34-.77-.19-.23c0,.13.53,1,.26.44s.15.46.21.63c.11.33.22.66.32,1a43.84,43.84,0,0,1,1.33,6.22c.09.54.19,1.08.28,1.61,0,.19.19,1.31.11.66.14,1.09.24,2.18.32,3.28a42.64,42.64,0,0,1,.09,6.59s-.09.77,0,.35-.06.34-.06.34c-.09.49-.19,1-.32,1.45s-.24.81-.38,1.2c0,.09-.27.64,0,.14s-.1.19-.15.28a15.94,15.94,0,0,1-1.22,2c-.47.68-.07.07,0-.05l-.35.42c-.33.36-.66.7-1,1-.12.11-.9.8-.51.47s-.15.11-.27.19l-.45.3c-.3.19-.61.38-.93.55l-.64.32c-.46.23-.27.08.08,0-.8.25-1.58.52-2.4.71-.48.11-.95.2-1.43.29l-.63.1c-.75.14,1.06-.1-.28,0a44.77,44.77,0,0,1-5.79.21c-.42,0-.84,0-1.26-.07-.16,0-.33,0-.49,0-.6,0,1.05.25,0,0-.36-.09-.74-.22-1.1-.3-.6-.12.74.37.24.08s.78.74.12.09L344.94,521c.8.17-.52-.17-.62-.42.05.12.4.38.51.5.44.43.85.88,1.31,1.29a39.47,39.47,0,0,1,3.15,3c1,1.1,1.89,2.25,2.81,3.38.08.1.52.67.09.1.26.34.52.69.77,1,.46.64.9,1.29,1.31,2s.8,1.35,1.15,2c.13.25.25.51.36.76-.38-.85.14.42.17.5a36,36,0,0,1,1.14,4.49l.15.83c0,.11.17,1.48.07.47.07.69.13,1.38.16,2.08s0,1.38,0,2.07c0,.28-.05.55-.07.82.09-1-.13.65-.17.84a18,18,0,0,1-.58,2c-.28.82-.11.26,0,.09-.17.38-.37.77-.58,1.14s-.34.57-.53.85-.65.85-.09.17a17.33,17.33,0,0,1-1.62,1.7c-.24.22-.5.43-.75.65-.56.48.85-.52-.2.13-.57.35-1.1.72-1.69,1-.28.16-.59.28-.87.44-.62.36,1-.31-.16.07a19.82,19.82,0,0,1-2.39.7c-.37.08-.75.15-1.13.21-.18,0-1.15.16-.39.07-.77.09-1.53.16-2.3.23s-1.53.13-2.3.22l-2.11.27a5,5,0,0,1-.73.08,91,91,0,0,1-10.18.23c-1.56,0-3.12-.08-4.68-.24,0,0-1.26-.16-.57-.06s-.84-.14-1-.17A22.62,22.62,0,0,1,320,556l-.74-.23-.72-.26c.5.22.52.22.06,0-.2-.11-.43-.25-.64-.34-.41-.27-.41-.24,0,.09q-.51-.54.15.24s-.38-.58-.36-.54a13.17,13.17,0,0,0-1.36-1.72c-.16-.17-.34-.32-.51-.49a6,6,0,0,1-.51-.5,1.79,1.79,0,0,1,.45.86,4.55,4.55,0,0,0-4.94-3.22,4.48,4.48,0,0,0-3.9,4.42c0,2.06.78,3.8,1.25,5.75s.64,3.7.9,5.55.59,3.43.86,5.16c.24,1.5,0-.44.06.44,0,.39.09.79.13,1.18a25.16,25.16,0,0,1,.12,3.25c-.05,1.36.13-.38-.05.39-.08.38-.14.76-.22,1.13-.2.91-.45,1.81-.69,2.7-.45,1.64-.64,3.39-1.19,5,.34-1-.1,0-.22.21.4-.68.16-.2,0,0a27.41,27.41,0,0,0-2,2.35c-.22.3-.43.62-.66.91.6-.76-.27.23-.35.3s-.39.37-.59.54c.68-.59-.58.35-.76.44s-1.3.55-.37.21c-.4.15-.81.28-1.22.39-.7.18-1.41.31-2.12.43l-5.34.92-1.4.24c-1.49.24.82,0-.68.08-.8.06-1.58.13-2.38.13-.39,0-.78,0-1.17,0-1.11,0,.84.3-.14,0a4.11,4.11,0,0,1-.92-.29c1,.63,0-.06-.16-.16-2.45-1.43-5-3.26-8-3.2a5.39,5.39,0,0,0-5.49,5.06,7.07,7.07,0,0,0,1.57,4.3c.07.1.19.31.28.41.25.42.19.24-.17-.54.11.29.2.58.3.87s.23.86.38,1.27.13.57.08.1a7.16,7.16,0,0,1,0,.92c0,.32,0,.64,0,1,0,.16-.21,1.89-.09,1.06-.14,1-.28,1.93-.49,2.88-.05.23-.12.46-.17.69-.16.47-.13.44.1-.1a4.77,4.77,0,0,1-.34.63,5.69,5.69,0,0,1-.68,1c.4-.49.45-.57.16-.24a1.33,1.33,0,0,1,.65-.45c.34-.36-.36.12-.54.19a17.33,17.33,0,0,0-2.15.88,6.79,6.79,0,0,0-2.43,2.18l1.62-1.61c1-.35,1.25-.46.73-.36.53-.07.61-.09.24-.08a10.36,10.36,0,0,0-1.48,0,4.5,4.5,0,0,0,0,9Z"/><path class="cls-4" d="M385.49,579.37c-.54-.85.06.81-.08-.22a8.92,8.92,0,0,0-.25-1c-.25-.89-.58-1.76-.91-2.62a60,60,0,0,0-2.46-6.06c-.67-1.32-1.56-2.55-2.28-3.84a22.67,22.67,0,0,0-3.65-4.44,46,46,0,0,0-3.2-3.35c-1.73-1.49-3.09-3.16-5.28-4-.17-.06-1.31-.46-.23-.05-.63-.24-1.24-.56-1.88-.78a13,13,0,0,0-2.88-.6,8.32,8.32,0,0,0-6.43,2.23c-2.77,2.36-4.32,5.75-5.38,9.15s-2,7.08-3.23,10.58c-.3.89-.6,1.79-.92,2.68-.14.4-.29.81-.45,1.21.35-.84-.23.44-.26.49-.2.39-.43.75-.65,1.13-.62,1,.49-.42-.36.44a17.65,17.65,0,0,1-1.85,1.82c.73-.55-.37.15-.45.19-.36.19-.73.36-1.09.52-.76.34-1.51.69-2.25,1.08l-.38.18c.43-.18.4-.19-.08,0L339,584a8.81,8.81,0,0,1-.89,0c-.09,0-1.42-.18-.52,0-.43-.09-.85-.23-1.28-.32-.69-.15-1.39-.17-2.08-.29,1.17.21-1.31-.42-.28,0-.9-.34-1.72-.94-2.61-1.33a50.72,50.72,0,0,1-5-2.71c-.85-.48-1.71-.95-2.55-1.44s.36.57-.26-.28a8.62,8.62,0,0,0-1.11-1.15,15.35,15.35,0,0,1-1.81-2.06c.57.78,0-.07-.1-.25a8.08,8.08,0,0,0-1.19-1.61,4.54,4.54,0,0,0-7.52,2l0,.19a4.5,4.5,0,0,0,8.68,2.39l0-.19-7.52,2c-.77-.79-.29-.3-.09,0a17.36,17.36,0,0,0,1.14,1.53c.48.61.94,1.25,1.47,1.81a20,20,0,0,0,4.07,3.56c1.54.91,3.1,1.78,4.65,2.67s3,1.44,4.5,2.25A12.84,12.84,0,0,0,331.7,592c.67.16,1.38.21,2.06.31,1.36.21-.75-.28.56.13a13.38,13.38,0,0,0,6.68.3,32.33,32.33,0,0,0,5.23-2.3,15.35,15.35,0,0,0,4.55-3.46c2.87-3,4.09-6.83,5.4-10.69,1.19-3.48,2.08-7,3.2-10.53.13-.4.28-.79.41-1.19.39-1.23-.41.67.19-.47a19.82,19.82,0,0,1,1.12-1.88c.14-.21.52-.52-.06.07.26-.26.48-.56.74-.82l.27-.25-.07.06c.45-.25.39-.24-.18,0,.5-.12.41-.12-.27,0l.43,0c-.49-.06-.46,0,.08.07,0,0,1.43.44.57.13.58.21,1.13.53,1.71.73.75.25.07,0-.07-.08-.83-.5,0,.07.18.26s.58.59.88.87c.75.69,1.57,1.3,2.27,2s1.25,1.48,1.91,2.17,1.16,1,1.69,1.62c-.67-.74.08.18.17.33.27.44.5.89.75,1.34.46.85,1,1.62,1.52,2.44.22.37.4.74.59,1.13.61,1.26-.28-.77.24.56.38,1,.75,2,1.12,3,.73,1.93,1,4.26,2.15,6a4.5,4.5,0,1,0,7.77-4.54Z"/></g></svg>