<svg xmlns="http://www.w3.org/2000/svg" viewBox="0 0 800 800"><defs><style>.cls-1,.cls-2{fill:none;}.cls-2,.cls-3{stroke:#e2d8e1;stroke-miterlimit:10;stroke-width:2px;}.cls-3,.cls-4{fill:#e2d8e1;}</style></defs><g id="clean"><path class="cls-1" d="M481.41,455.45c14.6-8.3,28.48-18,40.49-29.79"/><path class="cls-1" d="M528.61,450.48a137.1,137.1,0,0,1-3.68-14.28c-11.23,11.69-25.23,21.17-39.71,28.59.18.26.36.5.53.76q1.8,2.71,3.35,5.54c5.27-3.23,10.3-.78,13.16,4.84,6.76,13.37,6.58,29,9.87,43.65,1.55,6.89,8,8.77,13.56,4.28a19,19,0,0,0,5.19-7.41c4.88-11.23,4.14-23.86,4.45-35.82.12-4.59.21-9.22.45-13.84A72.27,72.27,0,0,1,528.61,450.48Z"/><path class="cls-2" d="M496.22,481.47C505,492,501,507,504,521c2,8,7,15,15,16,5,0,9-3,13-6,14-15,13-35,10.91-53.91"/><path class="cls-3" d="M649.32,456.77a17.28,17.28,0,0,1-5.42.84,253,253,0,0,1-12.55,33.12c-4,8.68-5.08,34.68-19.4,24.95-8.26-5.61-20.82-3.38-26.65,4.73-9.93,13.82-12.58,36.31-18,52.23-1.28,3.76-2.63,7.6-5.19,10.64s-6.61,5.14-10.48,4.28c-11.43-2.52-14.26-19.27-27.06-6.33a72.45,72.45,0,0,0-13.31,18.65c-1.42,2.87-2.68,5.88-4.75,8.33s-5.18,4.29-8.36,3.9c-8.52-1.05-10.27-20.35-11.67-26.49-1.86-8.15-5-16.73-12-21.27a17.18,17.18,0,0,0-5.94-2.37,102.06,102.06,0,0,1,11.34,24.74c2.63,8.51,4.06,18,2.92,26.95a4.49,4.49,0,0,1,1.05.36c1.77.92,3,2.6,4.39,4,3.69,3.57,8.65,5.13,13.55,3.42,5.21-1.81,10.33-4.27,14.1-8.28,6.73-7.16,8.25-18.27,15.55-24.84s14.29,9.41,24.42,7.62c5.75-1,10.7-4.84,14.28-9.44,5.52-7.09,8.88-15.8,11-24.47,2.4-10,3.87-20.46,8.4-29.74a27.34,27.34,0,0,1,7.75-10.09c2.15-1.61,4.87-2.78,7.5-2.22,8.32,1.76,11.57,18.58,22.38,6.15,3.41-3.92,4.67-9.19,6.25-14.13,5.72-17.89,15.33-33.71,19.32-52.22.36-1.67.69-3.34,1-5A20.86,20.86,0,0,1,649.32,456.77Z"/><path class="cls-4" d="M523,424.51q-.91,1-1.86,2c-9.12,9.5-20.07,17-31.43,23.54-3.66,2.11-7.37,4.13-11.11,6.1a92.19,92.19,0,0,1,6.67,8.63c14.48-7.42,28.48-16.9,39.71-28.59C524.14,432.34,523.49,428.44,523,424.51Z"/><path class="cls-4" d="M542.84,475.25a37.83,37.83,0,0,1-7.06-8.46c-.24,4.62-.33,9.25-.45,13.84-.31,12,.43,24.59-4.45,35.82a19,19,0,0,1-5.19,7.41c-5.58,4.49-12,2.61-13.56-4.28-3.29-14.61-3.11-30.28-9.87-43.65-2.86-5.62-7.89-8.07-13.16-4.84a83.74,83.74,0,0,1,4.3,9.09c3.62,1.71,6,8.33,6.85,11.52,1.3,4.68,1.64,9.56,2.19,14.39s1.35,9.69,2.36,14.47a29.26,29.26,0,0,0,2.93,8.74c3.92,6.77,12.75,8,19.31,4.35a23.1,23.1,0,0,0,7.94-8C544.45,510.64,543.48,492.87,542.84,475.25Z"/><path class="cls-4" d="M648.52,453.88a15.76,15.76,0,0,1-4.62.73,3.09,3.09,0,0,0-2.9,2.2q-3.25,10.88-7.5,21.4c-1.37,3.41-2.83,6.79-4.35,10.14a39.92,39.92,0,0,0-2,5.27c-1.08,3.65-1.86,7.38-2.94,11-.26.9-.54,1.79-.84,2.68-.14.41-.29.82-.44,1.22-.09.22-.17.44-.26.65s-.11.29-.17.43c.16-.37.17-.4,0-.09-.34.71-.67,1.43-1.06,2.12-.21.35-.42.7-.65,1-.1.16-.22.32-.33.48.49-.72,0,0-.12.13s-.5.51-.76.76c-.58.56.46-.24-.21.17-.29.18-.59.32-.87.49.69-.41.36-.13.1-.06s-.44.1-.65.17c-.57.18.72,0,.12,0-.18,0-.36,0-.53,0s-.25,0-.36,0c-.63,0,.67.19,0,0l-1.19-.31c-.13,0-.82-.32-.12,0l-.87-.42c-1-.5-1.81-1.15-2.75-1.68a20.8,20.8,0,0,0-4.34-1.86,22.44,22.44,0,0,0-8.31-.89,23.33,23.33,0,0,0-15,6.86c-4.06,4.29-6.64,10.13-8.76,15.56-4.5,11.47-6.64,23.67-10.12,35.44a81.41,81.41,0,0,1-3,8.76c-1.12,2.64-2.65,5.37-5.08,7a7.09,7.09,0,0,1-6.85,1c-.08,0-.89-.36-.27-.09l-.59-.28a13.73,13.73,0,0,1-1.25-.69c-.45-.26-.87-.55-1.29-.85-.21-.15-.42-.3-.62-.46.54.42-.3-.25-.39-.33-3.11-2.59-5.82-5.87-9.66-7.43-4.61-1.86-9.08.36-12.6,3.38-5.22,4.47-9.56,10.42-13,16.32-1.78,3-3.15,6.22-4.82,9.28-1.35,2.47-3.17,5.08-6,5.89a4.77,4.77,0,0,1-1.82.19c.54,0-.07,0-.18,0s-.38-.13-.57-.16c-.47-.09.06,0,.17.08-.18-.09-.36-.17-.53-.27s-.33-.23-.51-.33c-.39-.22.38.4-.19-.17l-.89-.94c-.5-.53.32.52-.08-.11-.13-.2-.27-.38-.4-.58a19.51,19.51,0,0,1-1.41-2.63c0-.07-.36-.87-.11-.25-.1-.25-.2-.5-.29-.75-.16-.43-.32-.86-.46-1.29-.39-1.16-.73-2.33-1-3.51-.56-2.14-1-4.31-1.41-6.48-1.86-10-3.95-21.32-12.26-28.18a20.91,20.91,0,0,0-9.05-4.45c-2.43-.52-4.87,2.07-3.39,4.4a100.27,100.27,0,0,1,10.91,23.59c2.68,8.59,4,17.6,2.94,26.59a3,3,0,0,0,2.21,2.89,5.89,5.89,0,0,1,2.46,1.84,30.66,30.66,0,0,0,2.88,2.82,17,17,0,0,0,7.74,3.65,16.53,16.53,0,0,0,8.66-1,47.33,47.33,0,0,0,7.86-3.61,30.41,30.41,0,0,0,11-11.44c2.4-4.26,4.12-8.87,6.64-13.07a30.24,30.24,0,0,1,4.29-5.35c.53-.57-.31.18.06-.07.15-.1.32-.2.47-.31s.26-.13.38-.2c-.61.37-.19.06,0,0a2.11,2.11,0,0,0,.38-.09c.5-.2-.34-.1-.12,0a2,2,0,0,0,.48,0c.32,0,.62.19,0,0,.31.1.66.14,1,.24l.39.14c.67.19-.54-.33.07,0s1.35.72,2,1.14c1.44.94,2.79,2,4.17,3,3.08,2.27,6.39,4.28,10.28,4.69,5,.53,10.11-2.15,13.92-5.14,9-7.08,13.9-19,16.64-29.78,2.82-11.13,4-23.18,10-33.22a21.79,21.79,0,0,1,5.06-6c1.61-1.27,3.75-2.44,5.84-1.8l.5.17c.4.15-.61-.37,0,0,.3.19.64.34.94.53s.88.62.59.4.19.16.22.18l.51.45c1.15,1,2.18,2.2,3.23,3.34,2.08,2.25,4.47,4.73,7.61,5.38,4.2.86,7.87-1.68,10.59-4.63,4-4.31,5.6-9.8,7.31-15.27s3.85-10.9,6.09-16.23c4.59-10.86,9.63-21.61,12.6-33.06.74-2.88,1.32-5.8,1.91-8.72.5-2.49-2-4.79-4.41-3.39a19.67,19.67,0,0,1-3.66,1.71,3,3,0,1,0,1.6,5.78,26.51,26.51,0,0,0,5.09-2.31l-4.4-3.39a132.31,132.31,0,0,1-4.5,17.21c-1.85,5.38-4,10.63-6.28,15.86s-4.66,10.73-6.76,16.19c-1,2.63-2,5.29-2.82,8s-1.55,5.28-2.59,7.83a18.47,18.47,0,0,1-3.81,6c-.37.38-.75.75-1.14,1.1a3.89,3.89,0,0,1-.82.64c-.36.25-.75.43-1.12.66-.14.08-.53.17.07,0l-.63.2c-.06,0-.74.16-.2.06s-.11,0-.2,0-1-.1-.54,0-.36-.13-.51-.16c-.61-.1.45.23.1.06-.2-.1-.41-.2-.6-.31s-.5-.32-.75-.48c-.57-.38.34.33-.29-.24s-1.08-1-1.6-1.51c-2.22-2.28-4.22-4.82-7-6.53-4.83-3-10.28-1.31-14.42,2.1-4.43,3.66-7.19,8.94-9.33,14.17a102.94,102.94,0,0,0-4.8,16.8c-2.42,11.12-4.81,22.21-11.49,31.68-2.73,3.87-6.44,7.49-11,9.07-.54.19-1.1.35-1.66.49l-.95.21c-.66.13.65,0-.19,0a9.35,9.35,0,0,1-1.18,0l-.64,0c.71.06-.11,0-.22-.06a10.79,10.79,0,0,1-1.24-.33l-.48-.17c-.78-.25.33.16-.13,0a21.23,21.23,0,0,1-2.44-1.31c-5.18-3.21-11.47-10.37-18.05-6-4,2.65-6.61,7.34-8.69,11.53s-3.92,8.86-6.82,12.73-7.45,6.59-12,8.37c-2.23.87-4.5,1.66-6.83,1.27a11.54,11.54,0,0,1-6.22-3.41c-1.95-2-3.68-4.1-6.48-4.83l2.2,2.89c1.15-9.45-.33-19.15-3.16-28.19a106.6,106.6,0,0,0-11.51-25l-3.39,4.4C479,567.26,482.49,580,484.25,590a95.45,95.45,0,0,0,2.86,12.83c1.32,4.09,3.21,8.5,6.93,11,5.81,3.82,12.69-.45,16.1-5.39,2-2.88,3.24-6.2,4.9-9.26a73.16,73.16,0,0,1,5.6-8.77,62.64,62.64,0,0,1,6.63-7.55,16.34,16.34,0,0,1,3-2.36c.24-.14.49-.29.74-.42.08,0,.9-.4.24-.14a12.91,12.91,0,0,1,1.58-.46c-.1,0-.67,0-.15,0,.21,0,.42,0,.63,0l.61,0c-.84,0-.23,0,0,0,.39.11.76.22,1.14.36-.77-.3-.13,0,0,0l.72.41c.37.23.72.49,1.07.74s0,0-.08-.06c.18.14.36.28.53.43.79.66,1.55,1.37,2.31,2.07,3.25,3,6.78,6.07,11.24,7,7.49,1.6,13.78-4,16.76-10.32,2.65-5.64,4.27-11.78,5.83-17.79s3.06-12.34,4.84-18.45a86.49,86.49,0,0,1,6.32-16.57,30.64,30.64,0,0,1,4.32-6.57,12.93,12.93,0,0,1,2.68-2.26,18.31,18.31,0,0,1,3.42-1.76,17.08,17.08,0,0,1,14,.68c2,1.1,3.79,2.48,6.06,3.07a9.19,9.19,0,0,0,5.54-.18c3.55-1.33,5.73-4.6,7.19-7.94a74.85,74.85,0,0,0,3.66-11.61c.47-1.85.92-3.71,1.46-5.54.21-.7.42-1.39.67-2.08.12-.33.25-.66.38-1-.32.85-.13.3,0,.11.27-.56.52-1.14.78-1.72,3.15-7,6-14.1,8.57-21.33q1.88-5.34,3.5-10.78l-2.89,2.2a21.57,21.57,0,0,0,6.22-.95C653.79,458.53,652.22,452.73,648.52,453.88Z"/><path class="cls-4" d="M520.82,422.39c-12.15,13.44-27.92,22.79-43.78,31.18a3,3,0,0,0-.61,4.71,87.58,87.58,0,0,1,6.2,8,3.09,3.09,0,0,0,4.11,1.07c14.43-7.41,28.17-16.65,39.56-28.28a5.77,5.77,0,0,0,1.37-1.74,4.21,4.21,0,0,0,0-2.65c-.23-1.16-.45-2.33-.66-3.49-.44-2.49-.83-5-1.18-7.5-.23-1.61-2.27-2.49-3.69-2.1a3.09,3.09,0,0,0-2.1,3.69c.55,3.92,1.2,7.82,2,11.69l.77-2.92c-11.23,11.65-24.76,20.75-39.1,28.12l4.1,1.08a101.1,101.1,0,0,0-7.14-9.24l-.6,4.71c16.28-8.61,32.53-18.32,45-32.12a3,3,0,0,0-4.25-4.24Z"/><path class="cls-4" d="M545,473.13a36.45,36.45,0,0,1-6.59-7.85,3,3,0,0,0-5.59,1.51c-.52,10.15-.24,20.33-.86,30.47a60.28,60.28,0,0,1-2.26,13.8c-1.18,3.9-2.94,8.51-6.38,10.86a8.13,8.13,0,0,1-1.83,1,11.56,11.56,0,0,1-1.19.32c-.49.12.41,0-.08,0-.24,0-.48,0-.72,0l-.57,0c.53,0,.1,0,0,0a9.82,9.82,0,0,1-1.06-.3c.54.2-.39-.24-.51-.31s-.46-.32-.08,0c-.19-.15-.36-.32-.53-.48a4.25,4.25,0,0,1-1-1.48,14.16,14.16,0,0,1-.81-2.74c-.49-2.28-.9-4.58-1.27-6.89-1.52-9.39-2.34-19-5.25-28.09-1.49-4.68-3.38-10.21-7.27-13.47a11.28,11.28,0,0,0-13.45-1,3,3,0,0,0-1.08,4.1,79.07,79.07,0,0,1,3.62,7.47,6.57,6.57,0,0,0,1.15,2.23,7.15,7.15,0,0,0,1.3.86c.7.46-.22-.22.16.14.17.16.35.33.52.51a6.59,6.59,0,0,1,.68.83,28.31,28.31,0,0,1,4.11,10.82c1.14,5.68,1.4,11.52,2.28,17.24s1.68,11.74,4.19,16.95c4.19,8.69,14.82,11.05,23.14,7.05,4.74-2.27,8.23-6.59,10.81-11.05A53.24,53.24,0,0,0,544.18,511c2.7-11.7,2.09-23.81,1.66-35.71-.14-3.85-6.14-3.87-6,0,.34,9.4.86,18.92-.38,28.28a57.79,57.79,0,0,1-3.26,13.07,34.67,34.67,0,0,1-6.56,11.13,16.66,16.66,0,0,1-4.86,3.72,12.72,12.72,0,0,1-2.08.76,10.73,10.73,0,0,1-2.28.43A10.62,10.62,0,0,1,512,530c-3-2.86-3.86-7.72-4.69-11.87-1-5.06-1.71-10.15-2.26-15.28s-1.15-10.15-2.92-14.95c-1.41-3.81-3.43-8.34-7.25-10.28l1.38,1.8a94.09,94.09,0,0,0-4.6-9.81l-1.08,4.11a5.55,5.55,0,0,1,4.14-.93,4.22,4.22,0,0,1,1.86.85,9.09,9.09,0,0,1,1.65,1.57,21.91,21.91,0,0,1,2.89,5.51,66,66,0,0,1,2.29,7c2.52,9.46,3.21,19.27,5,28.87.8,4.29,1.75,8.56,5.59,11.16,3.43,2.32,7.89,1.91,11.39,0,4.34-2.41,6.89-6.78,8.7-11.24a55.2,55.2,0,0,0,3.43-14.74c.61-5.52.63-11.09.7-16.65.08-6.08.22-12.17.53-18.24l-5.59,1.52a42,42,0,0,0,7.53,9.06,3.08,3.08,0,0,0,4.24,0A3,3,0,0,0,545,473.13Z"/><path class="cls-4" d="M470.3,565.09a17.94,17.94,0,0,1,5.17,3.26,15.6,15.6,0,0,1,3.46,4.47,40.44,40.44,0,0,1,3.88,11.4c.94,4.29,1.63,8.63,2.65,12.9.5,2.11,1.21,4.14,1.81,6.22s1,4.45,2.18,6.44a11,11,0,0,0,6.08,4.6,10.67,10.67,0,0,0,7,.66c2.88-.88,5-3.14,6.85-5.44a46.78,46.78,0,0,0,4.53-7c2.44-4.54,4.41-9.52,7.54-13.62a46.91,46.91,0,0,1,4.51-4.75,20.4,20.4,0,0,1,5.16-4,3.36,3.36,0,0,1,1-.43l.59-.17s1-.2.39-.12a4.26,4.26,0,0,1,2.75.33c1.94.77,3.71,3.05,5.28,4.73a29.57,29.57,0,0,0,6.69,5.68c2.54,1.45,6.09,1.12,8.84.43a18.54,18.54,0,0,0,7.38-3.88,19.77,19.77,0,0,0,5-7.18,79.43,79.43,0,0,0,5.42-17.78c1.15-5.92,1.94-11.91,3.22-17.8,1.15-5.29,2.59-10.63,5.2-15.29a28.46,28.46,0,0,1,9.39-10.27,14.38,14.38,0,0,1,13.6-2.05c2.56.72,5,1.75,7.5,2.66s5.34,2.05,8,1.9c4-.21,4.57-4.27,5.55-7.2s2.09-6,3.21-9c4.46-12,9.54-23.69,13.53-35.82q1.47-4.45,2.72-9c1-3.73-4.76-5.32-5.78-1.59-3.36,12.17-8.11,23.87-12.72,35.61-2.26,5.74-4.48,11.51-6.46,17.36l-.72,2.16c-.11.37-.23.73-.35,1.09s-.16,1-.31,1.45c.15-.4.06-.65.45-.89l1-.05-.73-.12c-.67-.12-1.34-.28-2-.45-2.48-.67-4.87-1.66-7.28-2.55-5-1.88-10.8-3.36-16.09-1.55a30.42,30.42,0,0,0-12.72,8.46c-7.51,8.32-10.11,19.43-12,30.18-1,5.9-1.89,11.83-3.39,17.63a65.07,65.07,0,0,1-2.78,8.51c-1,2.53-2.16,5-4.14,6.87a12.17,12.17,0,0,1-5.84,3,21.1,21.1,0,0,1-3.33.15c-.37,0-.56-.25,0,.09l-1-.6a13.76,13.76,0,0,1-1.31-1c-4.17-3.4-7.11-9-12.83-10-5.15-.92-9.58,1.93-13.21,5.28A46.65,46.65,0,0,0,513.61,590c-2.59,4.57-4.55,9.49-7.49,13.87-1.25,1.87-2.88,4.3-5,5.27.18-.08-1.19.24-.63.2a5.93,5.93,0,0,1-.73,0c-.51,0,.65.18-.2,0a23.51,23.51,0,0,1-2.84-.92,3.57,3.57,0,0,1-1.83-1.27c.3.37-.28-.44-.27-.42-.11-.18-.2-.36-.3-.54-.43-.87.08.25-.12-.28q-.18-.49-.33-1c-.56-1.92-1.08-3.84-1.66-5.75a129.35,129.35,0,0,1-2.85-12.77c-1.6-8.17-3.68-17.22-10.33-22.88a22.83,22.83,0,0,0-5.71-3.6,3.1,3.1,0,0,0-4.11,1.07c-.74,1.27-.42,3.45,1.08,4.11Z"/><path class="cls-4" d="M539.75,477.31c.17,5.4,1,10.74,1.37,16.13a56.43,56.43,0,0,1,0,8.12,49.23,49.23,0,0,1-1.44,7.9c-2.1,8.53-5.55,17.8-13.46,22.2a12.75,12.75,0,0,1-10.87,1.13,13.68,13.68,0,0,1-7.07-6.88,26.18,26.18,0,0,1-2.24-9.32,112.67,112.67,0,0,1,0-11.33,52.76,52.76,0,0,0-.7-12.74c-1.06-5-2.89-10.07-7-13.41a3.1,3.1,0,0,0-4.24,0,3,3,0,0,0,0,4.25c3.48,2.84,4.62,6.78,5.52,11.1.11.56.21,1.12.34,1.68,0,.07.1.62,0,.15,0,.18,0,.38,0,.57.05,1,.08,2,.08,3,0,1.87,0,3.73-.09,5.6-.24,7.92-.62,16.4,3.13,23.65a19.87,19.87,0,0,0,8.83,8.77,18.08,18.08,0,0,0,14.12.44,26.52,26.52,0,0,0,11.32-8.62c3.14-4.08,5.15-9.09,6.72-14a58.33,58.33,0,0,0,3.09-19.29c-.15-6.39-1.3-12.71-1.51-19.1-.13-3.85-6.13-3.86-6,0Z"/><path class="cls-4" d="M531.5,449.69a146.79,146.79,0,0,1-3.68-14.29c-.46-2.22-3.51-2.87-5-1.32-11.23,11.65-24.76,20.75-39.1,28.12a3,3,0,0,0-1.08,4.11,69.87,69.87,0,0,1,3.88,6.29,3,3,0,0,0,4.1,1.08,6.78,6.78,0,0,1,2.6-1c-.44.07.22,0,.33,0s.52,0,.78,0c-.12,0-.51-.1.13,0a7,7,0,0,1,.9.24,3.32,3.32,0,0,1,.85.42,4.43,4.43,0,0,1,.86.6,9.64,9.64,0,0,1,2,2.47c2.64,4.39,4.06,9.64,5.17,14.61,1.19,5.34,1.91,10.77,2.69,16.19.39,2.68.79,5.36,1.26,8a33.14,33.14,0,0,0,2,7.87,10.23,10.23,0,0,0,10.29,6.13c5.32-.55,9.46-4.48,11.91-9,5.41-10,5.7-21.87,5.84-33,.08-6.57.2-13.15.52-19.72.1-1.95-1-3.32-1.94-5-.75-1.39-1.44-2.8-2.09-4.24a85.26,85.26,0,0,1-3.21-8.64,3,3,0,0,0-5.79,1.59,77,77,0,0,0,7.48,17l-.41-1.52c-.52,10.15-.24,20.33-.86,30.47a60.28,60.28,0,0,1-2.26,13.8c-1.18,3.9-2.94,8.51-6.38,10.86a8.13,8.13,0,0,1-1.83,1,11.56,11.56,0,0,1-1.19.32c-.49.12.41,0-.08,0-.24,0-.48,0-.72,0l-.57,0c.53,0,.1,0,0,0a9.82,9.82,0,0,1-1.06-.3c.54.2-.39-.24-.51-.31s-.46-.32-.08,0c-.19-.15-.36-.32-.53-.48a4.25,4.25,0,0,1-1-1.48,14.16,14.16,0,0,1-.81-2.74c-.49-2.28-.9-4.58-1.27-6.89-1.52-9.39-2.34-19-5.25-28.09-1.49-4.68-3.38-10.21-7.27-13.47a11.28,11.28,0,0,0-13.45-1l4.1,1.07a69.87,69.87,0,0,0-3.88-6.29l-1.07,4.1c14.76-7.58,28.75-17.07,40.31-29.06L522,437a143,143,0,0,0,3.67,14.28,3.06,3.06,0,0,0,3.69,2.1A3,3,0,0,0,531.5,449.69Z"/><path class="cls-4" d="M500.28,519.93a40.11,40.11,0,0,0,3.93,10.38c1.77,3.14,4.28,6.25,7.64,7.77,3.72,1.68,7.58,1.13,11.41.1a27.13,27.13,0,0,0,9-4.17c10.92-8,13.52-22.25,14.07-34.94.32-7.19-.06-14.38-.44-21.55a3.06,3.06,0,0,0-3-3,3,3,0,0,0-3,3c.32,5.92.63,11.85.55,17.78,0,3.14-.19,6.27-.51,9.39-.07.72-.15,1.43-.24,2.14-.07.49.06-.44,0,.05,0,.18-.06.37-.08.56-.07.42-.13.83-.2,1.25-.25,1.47-.55,2.92-.91,4.36s-.76,2.79-1.24,4.15c-.24.66-.49,1.32-.76,2,.25-.59-.17.37-.23.48-.16.36-.33.71-.5,1.05a29.52,29.52,0,0,1-2.09,3.51c-.19.28-.39.55-.59.82s.29-.36,0,0l-.32.39c-.45.55-.93,1.07-1.44,1.58s-.91.87-1.39,1.28l-.4.33c-.06,0-.49.38-.2.16s-.07,0-.1.07l-.63.45a24.57,24.57,0,0,1-3.72,2.06l-.05,0-.52.2-1.07.38c-.75.24-1.5.46-2.27.64s-1.61.34-2.42.48a5.73,5.73,0,0,1-1.93.17l-.57,0c.63.06-.23-.06-.3-.08a9.93,9.93,0,0,1-1.06-.32c.49.17.07,0,0,0s-.49-.24-.72-.38a9.93,9.93,0,0,1-.93-.61c.36.27-.54-.48-.7-.64-.32-.3-.62-.62-.91-.95-.09-.12-.19-.23-.28-.34-.62-.74.29.43-.27-.35-.27-.38-.53-.76-.78-1.15a31.33,31.33,0,0,1-4-10c-.89-3.76-6.67-2.17-5.78,1.6Z"/><path class="cls-4" d="M494.8,483.39c-.39-.3.09.1.16.17s.34.32.5.49l.47.52c.2.24-.16-.27.12.17s.51.79.73,1.21c.1.19.58,1.27.42.85a21.7,21.7,0,0,1,.85,2.85c.11.5.21,1,.29,1.5,0,0,.14,1,.07.44l.09.78c.42,4,.2,8,.29,12s6.08,3.87,6,0c-.21-9,1.07-20-7-26.16-1.29-1-3.36-.2-4.1,1.08a3.06,3.06,0,0,0,1.07,4.1Z"/><path class="cls-4" d="M531.5,449.69a146.79,146.79,0,0,1-3.68-14.29c-.46-2.22-3.51-2.87-5-1.32-11.23,11.65-24.76,20.75-39.1,28.12a3,3,0,0,0-1.08,4.11,69.87,69.87,0,0,1,3.88,6.29,3,3,0,0,0,4.1,1.08,6.78,6.78,0,0,1,2.6-1c-.44.07.22,0,.33,0s.52,0,.78,0c-.12,0-.51-.1.13,0a7,7,0,0,1,.9.24,3.32,3.32,0,0,1,.85.42,4.43,4.43,0,0,1,.86.6,9.64,9.64,0,0,1,2,2.47c2.64,4.39,4.06,9.64,5.17,14.61,1.19,5.34,1.91,10.77,2.69,16.19.39,2.68.79,5.36,1.26,8a33.14,33.14,0,0,0,2,7.87,10.23,10.23,0,0,0,10.29,6.13c5.32-.55,9.46-4.48,11.91-9,5.41-10,5.7-21.87,5.84-33,.08-6.57.2-13.15.52-19.72.1-1.95-1-3.32-1.94-5-.75-1.39-1.44-2.8-2.09-4.24a85.26,85.26,0,0,1-3.21-8.64,3,3,0,0,0-5.79,1.59,77,77,0,0,0,7.48,17l-.41-1.52c-.52,10.15-.24,20.33-.86,30.47a60.28,60.28,0,0,1-2.26,13.8c-1.18,3.9-2.94,8.51-6.38,10.86a8.13,8.13,0,0,1-1.83,1,11.56,11.56,0,0,1-1.19.32c-.49.12.41,0-.08,0-.24,0-.48,0-.72,0l-.57,0c.53,0,.1,0,0,0a9.82,9.82,0,0,1-1.06-.3c.54.2-.39-.24-.51-.31s-.46-.32-.08,0c-.19-.15-.36-.32-.53-.48a4.25,4.25,0,0,1-1-1.48,14.16,14.16,0,0,1-.81-2.74c-.49-2.28-.9-4.58-1.27-6.89-1.52-9.39-2.34-19-5.25-28.09-1.49-4.68-3.38-10.21-7.27-13.47a11.28,11.28,0,0,0-13.45-1l4.1,1.07a69.87,69.87,0,0,0-3.88-6.29l-1.07,4.1c14.76-7.58,28.75-17.07,40.31-29.06L522,437a143,143,0,0,0,3.67,14.28,3.06,3.06,0,0,0,3.69,2.1A3,3,0,0,0,531.5,449.69Z"/><path class="cls-4" d="M500.28,519.93a40.11,40.11,0,0,0,3.93,10.38c1.77,3.14,4.28,6.25,7.64,7.77,3.72,1.68,7.58,1.13,11.41.1a27.13,27.13,0,0,0,9-4.17c10.92-8,13.52-22.25,14.07-34.94.32-7.19-.06-14.38-.44-21.55a3.06,3.06,0,0,0-3-3,3,3,0,0,0-3,3c.32,5.92.63,11.85.55,17.78,0,3.14-.19,6.27-.51,9.39-.07.72-.15,1.43-.24,2.14-.07.49.06-.44,0,.05,0,.18-.06.37-.08.56-.07.42-.13.83-.2,1.25-.25,1.47-.55,2.92-.91,4.36s-.76,2.79-1.24,4.15c-.24.66-.49,1.32-.76,2,.25-.59-.17.37-.23.48-.16.36-.33.71-.5,1.05a29.52,29.52,0,0,1-2.09,3.51c-.19.28-.39.55-.59.82s.29-.36,0,0l-.32.39c-.45.55-.93,1.07-1.44,1.58s-.91.87-1.39,1.28l-.4.33c-.06,0-.49.38-.2.16s-.07,0-.1.07l-.63.45a24.57,24.57,0,0,1-3.72,2.06l-.05,0-.52.2-1.07.38c-.75.24-1.5.46-2.27.64s-1.61.34-2.42.48a5.73,5.73,0,0,1-1.93.17l-.57,0c.63.06-.23-.06-.3-.08a9.93,9.93,0,0,1-1.06-.32c.49.17.07,0,0,0s-.49-.24-.72-.38a9.93,9.93,0,0,1-.93-.61c.36.27-.54-.48-.7-.64-.32-.3-.62-.62-.91-.95-.09-.12-.19-.23-.28-.34-.62-.74.29.43-.27-.35-.27-.38-.53-.76-.78-1.15a31.33,31.33,0,0,1-4-10c-.89-3.76-6.67-2.17-5.78,1.6Z"/><path class="cls-4" d="M494.8,483.39c-.39-.3.09.1.16.17s.34.32.5.49l.47.52c.2.24-.16-.27.12.17s.51.79.73,1.21c.1.19.58,1.27.42.85a21.7,21.7,0,0,1,.85,2.85c.11.5.21,1,.29,1.5,0,0,.14,1,.07.44l.09.78c.42,4,.2,8,.29,12s6.08,3.87,6,0c-.21-9,1.07-20-7-26.16-1.29-1-3.36-.2-4.1,1.08a3.06,3.06,0,0,0,1.07,4.1Z"/><path class="cls-4" d="M519.06,428.71c-.5,13.19,5.33,25.71,12.73,36.3,6.73,9.64,15.6,19.92,27.88,21.88,7.06,1.14,14.09-.57,19.28-5.65,4.1-4,6.43-9.32,8.44-14.58.28-.75.56-1.51.85-2.26.11-.28.21-.56.33-.83-.32.77.21-.49.24-.54.37-.87.68-1.71,1-2.6.12-.39.23-.77.37-1.15-.31.85.17-.22.24-.35.59-1.09-.5.69.17-.23.42-.57,0,0-.17.1.6-.45-.6.19-.9.18l-.6-.1c.46.13.42.11-.12-.08.07.08.73.54,0,0,.28.23.55.48.81.73a19.67,19.67,0,0,1,1.45,1.57c.11.13.85,1.08.18.2l.43.57,1.14,1.57a45.4,45.4,0,0,0,3,3.81,20.34,20.34,0,0,0,8.37,5.38,65.45,65.45,0,0,0,10.51,2.64,39.71,39.71,0,0,0,11.75.84,24.72,24.72,0,0,0,11.15-4c3.25-2.15,6.28-4.65,9.38-7,1.87-1.42,3-3.94,1.61-6.16-1.19-1.84-4.15-3.13-6.15-1.61-2.64,2-5.25,4-7.93,6a31.65,31.65,0,0,1-3.9,2.47c-.32.17-.65.33-1,.48.69-.31-.18,0-.36.11a18,18,0,0,1-2.52.68c-.2,0-1.14.18-.3.07-.36.05-.72.08-1.08.1q-1.1.07-2.19.06c-.81,0-1.61-.06-2.42-.13l-.88-.09c-.55-.07-.59-.07-.14,0l-.66-.1a94.3,94.3,0,0,1-9.24-2c-.8-.22-1.61-.45-2.4-.72-.29-.09-.57-.2-.86-.3-1.34-.46.67.37-.6-.24a17,17,0,0,1-1.78-1l-.6-.41c.9.63-.28-.28-.45-.44-.42-.4-.82-.83-1.2-1.27l-.45-.53c-.76-.91.54.75-.16-.2s-1.52-2.1-2.3-3.13c-1.9-2.51-4.24-5.57-7.42-6.45-3.84-1.07-7.35,1.11-9.18,4.43a21.32,21.32,0,0,0-1.69,4.47c.22-.77,0-.1,0,.08-.26.64-.55,1.27-.8,1.91-.33.8-.63,1.61-.93,2.42-.21.56-.42,1.11-.64,1.67-.11.27-.8,2-.36.92-.53,1.22-1.08,2.42-1.71,3.58a27.9,27.9,0,0,1-1.86,3.05s-.71.95-.28.4-.3.35-.32.37a19.27,19.27,0,0,1-1.46,1.54c-.21.2-.44.39-.66.59s-.86.61-.07.07c-.5.35-1,.69-1.53,1-.27.15-.54.3-.82.44s-.92.4-.22.12a15.36,15.36,0,0,1-2.48.74c.06,0-1.32.22-.68.13s-.75.06-.69.05a19.46,19.46,0,0,1-2.16,0c-.44,0-.87-.06-1.3-.11.2,0,.8.14-.09,0s-1.51-.31-2.25-.51-1.22-.37-1.82-.59c-.14-.05-1.31-.53-.34-.11l-.7-.31a29.85,29.85,0,0,1-3.66-2.06c-.54-.35-1.06-.73-1.58-1.1-1-.75.67.57-.32-.24l-.6-.5c-1.1-.92-2.16-1.9-3.17-2.92s-1.82-1.91-2.68-2.91c-.43-.5-.86-1-1.28-1.51l-.74-.93c0-.07-.84-1.1-.26-.33A89,89,0,0,1,531.81,447s-.58-1.35-.22-.5c-.17-.39-.33-.79-.48-1.19-.31-.79-.6-1.6-.87-2.4a49.48,49.48,0,0,1-1.37-4.9q-.27-1.25-.48-2.49c0-.28-.09-.56-.13-.84.14,1-.06-.73-.08-.9a41.15,41.15,0,0,1-.12-5.09,4.53,4.53,0,0,0-4.5-4.5,4.6,4.6,0,0,0-4.5,4.5Z"/><path class="cls-4" d="M477.21,460.8c.91,3.94,3.4,6.74,6.09,9.62,3.29,3.52,5.38,7.61,7.65,11.8,5.24,9.7,9.67,19.86,11.35,30.9,1.63,10.76-2.26,22.52-6.95,32.11A27.26,27.26,0,0,1,486,555.59c-4.21,2.95-8.82,3.22-13.83,3.73-5.7.58-5.76,9.59,0,9,5-.5,10.55-.43,15.07-2.84a41.37,41.37,0,0,0,12.46-10.28c6.93-8.68,10.73-22.13,11.77-33,1.14-11.82-3.08-24.69-7.82-35.4a113.75,113.75,0,0,0-8.79-16c-2.53-3.87-7.91-7.89-8.94-12.36-1.31-5.64-10-3.25-8.68,2.4Z"/></g></svg>