<svg id="Layer_1" data-name="Layer 1" xmlns="http://www.w3.org/2000/svg" viewBox="0 0 288 306"><defs><style>.cls-1{fill:#fff;}.cls-2{fill:#ffbaf0;}.cls-3,.cls-4{fill:none;}.cls-4{stroke:#ffbaf0;stroke-miterlimit:10;}</style></defs><path class="cls-1" d="M90.6,273.7a.18.18,0,0,0,.07.16c.07.06,0-.12,0-.17Z"/><path class="cls-1" d="M74.09,272.23h0l.07.06h0a.78.78,0,0,0-.21-.16Z"/><path class="cls-1" d="M116.28,288.06h0a14.86,14.86,0,0,1-4.46.28,13.77,13.77,0,0,0,5.53-.32A4.28,4.28,0,0,1,116.28,288.06Z"/><path d="M205.38,259.56h-.24a.55.55,0,0,0,.22.1h.09Z"/><path d="M275.22,145.86c-5.84-25.67-9.46-62.07-36.85-73.43C210.22,40.88,163.66,23.92,121.64,32c-.5.07-1,.18-1.52.28h.11C92.85,39.36,64.63,52,45.76,73.72,33.4,89.11,11.21,121.88,18.49,141.9c1.37,2.52-.13,4.56-1.4,6.82-4.93,9.32-8.34,26.06,2.49,32.14.18,18.25,2.18,53.37,25.94,55.38,1.86-.37,2.4.51,3.08,2.52,1,4.2,3.38,7.9,5.08,11.84,4.2,6.84,16.08,21.54,26.41,23.76a10,10,0,0,0,6.36-.5,10.19,10.19,0,0,0,3.36-2.5c.12.49.22.91.33,1.31,0,0,.08.09.13.13a4.21,4.21,0,0,1-.25-1.21.4.4,0,0,1,.16-.38,1.4,1.4,0,0,1,.06-.41.5.5,0,0,1,.61-.35.52.52,0,0,1,.35.62v.08a.33.33,0,0,0,0,.14,1.31,1.31,0,0,0,0,.28h0v.15a.41.41,0,0,0,.07.28c.1.38.24.74.31,1.12a.67.67,0,0,1,0,.2,7.18,7.18,0,0,0,.81,1.17,19.59,19.59,0,0,0,6.21,4.61,15,15,0,0,0,6.45,2,.5.5,0,1,1,0,1,11.79,11.79,0,0,1-3.72-.75,25.57,25.57,0,0,1-7.52-4.14c-.24-.19-.49-.4-.73-.61.1.12.2.24.31.35a42.36,42.36,0,0,0,8.71,7.87,22.28,22.28,0,0,0,7.54,3.2,17.08,17.08,0,0,0,2.15.28,14.86,14.86,0,0,0,4.46-.28h0a4.7,4.7,0,0,0,1.06,0c3.86-.6,6.12-6.68,10.08-3.83,9.72,8.37,34.55,16.23,43.55,3.34l-.15,0c3.28-2.38,7.44,1.37,11.14.74,3.07-.06,6.7-.56,9-2.9,3.43-4.74,8.09-10.23,7.66-16.3,7.43,6.68,20.48,8.56,27.21-.06,5.94-5.84,12.81-11.16,16.89-18.53,10.25-13.38,13.93-29.67,19.17-45.32C280.3,213.3,277,155.68,275.22,145.86ZM48,217.77a6.11,6.11,0,0,1-.36.61,5.82,5.82,0,0,1-1.86,1.52H45.7l-.8.45a2.77,2.77,0,0,1-2.48.47c-3.8-.06-7.85-3.75-11-9.36a12.45,12.45,0,0,1-2.29-4.64v-.29c-.15-.39-.3-.78-.44-1.18A6.07,6.07,0,0,1,27,202.11a36.57,36.57,0,0,1-.86-5.4c-.33-3.24-.47-6.52-.51-9.78a1.3,1.3,0,0,1,.39-1,10.09,10.09,0,0,0,.18-1.47.74.74,0,0,1,0-.21,1.51,1.51,0,0,1,0-.52,1.55,1.55,0,0,1,.17-.79,1.65,1.65,0,0,1,.09-.88,1.36,1.36,0,0,1,.11-.44,1.48,1.48,0,0,1,.11-.62,1.28,1.28,0,0,1,.07-.34,13,13,0,0,1,1.1-4,11.32,11.32,0,0,1,.78-1.4,1.26,1.26,0,0,1,.17-.35,1.13,1.13,0,0,1,.23-.45,1.46,1.46,0,0,1,.22-.43,1.44,1.44,0,0,1,.27-.52,31.54,31.54,0,0,1,15.24-14.38,76.32,76.32,0,0,1,15.29-7.49,1.18,1.18,0,0,1,.28-.12h.06l.22-.1c.19-.75-.08-1.15-.68-1.28a8,8,0,0,0-1.38,0A33.79,33.79,0,0,0,51,153l-.41.2h0c-.63.31-1.26.62-1.87.94a1.37,1.37,0,0,1-1.27.74h-.12c-1.92,1-3.65,2-4.86,2.79a1.55,1.55,0,0,1-.32.2L42,158a1.36,1.36,0,0,1-.39.25l-.11.08a1.42,1.42,0,0,1-.41.28l-.27.22-.12.1a1.79,1.79,0,0,1-.31.25l-1.75,1.44h0l-1.42,1.16a1.44,1.44,0,0,1-.38.32h0l-.66.54a2.09,2.09,0,0,1-.28.24l-.15.13a1.85,1.85,0,0,1-.32.25,2,2,0,0,1-.36.29L33.5,164.8l-.17.14-.39.32-.1.08-1.4,1.16-.09.06-.29.25-.21.17-.32.26-.11.1a1.49,1.49,0,0,1-.23.27,2,2,0,0,1-.26.24,2.09,2.09,0,0,1-.2.22,1.48,1.48,0,0,1-.3.26,5.53,5.53,0,0,1-1.16.82,9.27,9.27,0,0,1-1.74.69l-.25.07-.47.11h0l-.44.09h-.18a1.94,1.94,0,0,1-.59,0h-.51a1.54,1.54,0,0,1-.56-.1h0a1.53,1.53,0,0,1-.47-.11,1.38,1.38,0,0,1-.62-.3,1.28,1.28,0,0,1-.73-.51,1,1,0,0,1-.24-.17c-2.25-1.58-3.16-5-2.7-9.15a1.09,1.09,0,0,1,0-.36,2.94,2.94,0,0,1,0-.42,1.58,1.58,0,0,1,.14-.71,1.52,1.52,0,0,1,.06-.42,1.41,1.41,0,0,1,.07-.54v-.15a1.53,1.53,0,0,1,.12-.6,1.05,1.05,0,0,1,.06-.24,1.63,1.63,0,0,1,.17-.57l.07-.14a1.36,1.36,0,0,1,.08-.49,1.29,1.29,0,0,1,.14-.51,1.07,1.07,0,0,1-.07-.39v-1a1.45,1.45,0,0,1,.21-.76l.23-.3a1.42,1.42,0,0,1,.67-.39h0l.05-.1a1.42,1.42,0,0,1,.4-.74.11.11,0,0,1,0-.08,15.75,15.75,0,0,1,1.76-3.35.93.93,0,0,1,.17-.53,7.52,7.52,0,0,1,.61-1.2,5.86,5.86,0,0,1,.59-.82,3,3,0,0,1,.46-.49,1.59,1.59,0,0,1,1.06-.44H26a.69.69,0,0,1,.13-.11,1.48,1.48,0,0,1,.26-.3,1.24,1.24,0,0,1,.44-.35,1.17,1.17,0,0,1,.36-.34,1.3,1.3,0,0,1,.48-.45,1.22,1.22,0,0,1,.56-.44,1.35,1.35,0,0,1,.35-.28l.09-.08.09-.08a28,28,0,0,1,11-5.64,1.52,1.52,0,0,1,.38-.2c3.76-1.39,7.83-1.35,11.68-2.35a1.39,1.39,0,0,1,1.24.23c2.35-.35,4.69-.67,7-.93a1.36,1.36,0,0,1,1.1-.48,1.47,1.47,0,0,1,.79.22l2.58-.18a1.14,1.14,0,0,1,.68-.4,66.91,66.91,0,0,1,8.13-.59,1.36,1.36,0,0,1,1.22.66A213.47,213.47,0,0,1,97.17,133a5,5,0,0,1,1.08.12,7.41,7.41,0,0,1,1.75.21,5.47,5.47,0,0,1,.64.23l.31.09h.14a12.69,12.69,0,0,1,3.43,1.42,5.08,5.08,0,0,1,1.38,1.06c1.62,1.56,2.44,3.82,1.87,7.09a51.33,51.33,0,0,0-13.06-1.53h0c-2.12.33-4.26.48-6.39.72a24.26,24.26,0,0,0-4.5,1.42c12.57,1.89,28.72-2,34.16,14.1a70.65,70.65,0,0,0-17.65,3.37,1.45,1.45,0,0,1-1.82.63,76.64,76.64,0,0,0-17.59,8.93l-.09.07a15.06,15.06,0,0,1-2,1.37l-1.07,1.07a21.62,21.62,0,0,1-2,2.06,17.91,17.91,0,0,1-1.47,1.13,5.9,5.9,0,0,0-.69.4c-.14.13-.28.36-.42.52a7.77,7.77,0,0,1-2.18,1.6,80.22,80.22,0,0,0-12.24,14.65l-.52,1a28.18,28.18,0,0,1-2.36,4.14L55,200l-.36.72a1.56,1.56,0,0,1-.2.92c-.61,1.09-1.21,2.19-1.79,3.29a73.61,73.61,0,0,0-4,11.72A6.29,6.29,0,0,1,48,217.77Zm63.54-82c6.15-30.65,30.21-38.36,53-16.83,8.14,9.08,5.76,23,10.75,33.26,1.37,1-.08,1.17-1.07,1.19a17.21,17.21,0,0,0-14.12,9.72c-9.83-4.56-7.82,4.13-13.07,2-2.59-.75-5.75,1.13-7.23,3.22-2.45,1.65-7.27-7.24-13.37-1.76a13.53,13.53,0,0,0-4.75-6.93,2.11,2.11,0,0,1-.65-1.28c-.28-4.05-3.43-6.81-5.66-9.91-1.59-4.09-4.1-8-3.83-12.65ZM90.31,249.3a44.42,44.42,0,0,0-.71,5.14,15,15,0,0,1-.14,2.92h0a2.43,2.43,0,0,1-1.28,2.09l-.09.05a4.23,4.23,0,0,1-.47.25,11.56,11.56,0,0,1-1.77.77,8.13,8.13,0,0,1-5.6.41l-.21-.07a24.48,24.48,0,0,1-10.81-5.5,44.87,44.87,0,0,1-10.39-10.73,40.17,40.17,0,0,1-6.43-13q-.44-1.37-.78-2.76c-.12-.89-.19-1.78-.24-2.68a31.36,31.36,0,0,1,.89-11.29c.29-.77.58-1.54.88-2.31A68.82,68.82,0,0,1,62,194.36a68.55,68.55,0,0,1,9.32-12c5.58-5.91,15.42-12.42,25.12-16.58,9.13-4.17,18.84-6.76,23.9-2.73,3.43,2.13,4.92,6.54,3.2,14-1.35,8.94-6.71,17.58-12.36,26-4.77,7.29-9.83,14.4-13.27,22.45h0c-1,3.3-2.2,6.57-3.37,9.86A129,129,0,0,0,90.31,249.3ZM122,265.81a.5.5,0,0,1,0-1,.5.5,0,1,1,0,1Zm49.46-1.39a23.33,23.33,0,0,1-3.18,10.3,12.23,12.23,0,0,1-2.35,3,11.78,11.78,0,0,1-9.57,3.64,5.24,5.24,0,0,1-1.12-.08h0a27,27,0,0,1-7.5-.57h0c-.45-.1-.91-.21-1.35-.33a28.69,28.69,0,0,1-6.15-2.38,36.07,36.07,0,0,1-17.53-20,59.25,59.25,0,0,1-1.81-7.29,44.35,44.35,0,0,1-.93-6.06c-.17-1.45-.31-2.91-.42-4.36a12.58,12.58,0,0,1-.16-2.21c-.06-1-.12-2.07-.16-3.1-.22-5.94,2-12.71,1.06-18.2a3.71,3.71,0,0,0-1,.8c-4.67,11.32-1.15,25,0,36.88a14.19,14.19,0,0,0,.94,3.73v-.48c-.09-.57-.19-1.14-.32-1.71s.82-.89,1-.26c.07.28.11.57.16.86a.42.42,0,0,1,.11.18c.11.53.22,1.06.32,1.59a.4.4,0,0,1,.08.16v.09l.08.05a.51.51,0,0,1,.15.35,3.53,3.53,0,0,0,0,.65v.11a.53.53,0,0,1-.13.48v1a.71.71,0,0,1-.17.36,51.58,51.58,0,0,1-1.48,11.2c-.15.62-1.11.36-1-.27.21-.9.39-1.81.57-2.73h-.1c-.57,1-1.14,2-1.8,2.93a12.86,12.86,0,0,1-3.34,3.44,11.91,11.91,0,0,1-4.62,1.57,12.29,12.29,0,0,1-9.38-2c-.51-.38,0-1.25.51-.86a10.23,10.23,0,0,0,3.91,1.78,19.22,19.22,0,0,1-10.68-10.56c-4.36-11.16,1.35-23,4.64-33.66,5-16.37,18-28.43,24-44.45A58.27,58.27,0,0,0,127,175.2c.52-2.56-1.78-6.86,2.25-7.19a.81.81,0,0,1,.4.07c2.63-.41,5.2,1.24,7.23,3.45a15.89,15.89,0,0,1,3.5,5.31c4.54,7.37,2.26,17,5.53,24.45,1.44-7.81,1.33-17.68-2.51-25-.65-1.77-3.43-4.31-1.55-6a5.93,5.93,0,0,1,2.57-1.69,3.67,3.67,0,0,1,.74-.2l.13-.09a1.61,1.61,0,0,1,1.16-.15,4.58,4.58,0,0,1,1.21.51,6.17,6.17,0,0,1,1.11.87,5.17,5.17,0,0,1,.58.73h0l.25.39h0a19.55,19.55,0,0,1,1.12,1.94,29,29,0,0,1,2.15,5.15.44.44,0,0,1-.21.53q.83,2.22,1.56,4.56c4,9.61,6.58,19.87,10.16,29.72,1.45,5.54,2.82,11.13,4,16.75a127.44,127.44,0,0,1,2.83,18.55,113,113,0,0,1,.31,16.56Zm17.07,3c-3.3,3.47-7.75,6.06-12.53,6.1a7.19,7.19,0,0,1-2.77-.21c.43-2.06.77-4.15,1-6.24v.2c.27-2.75.41-5.49.45-8.23a1.58,1.58,0,0,1-.23-.81v-.18a1.44,1.44,0,0,1,.24-.8v-1.86c-2.54-17.2-4.5-30.2-5.21-34.74-1.63-6.31-3.54-12.57-5.59-18.76-2.68-7-6.78-17.53-11.76-29.95-1.1-2.21-1.08-4.23,2.87-6.57.41.07.82.16,1.22.25a9.59,9.59,0,0,1,2.85.91c9.69,3.82,15.55,14.21,21.27,22.49.8,1.26,1.62,2.61,2.44,4,1.17,1.77,2.08,3.18,2.27,3.56,1.28,2.62,2.68,5.87,4,9.54,7.46,18.14,12.12,41.38,3.31,55.86a25.44,25.44,0,0,1-3.88,5.33Zm38.9-18.13h0a1.16,1.16,0,0,1-.37.36,1.24,1.24,0,0,1-.41.38,1.45,1.45,0,0,1-.4.34,1.36,1.36,0,0,1-.3.33,1.32,1.32,0,0,1-.41.37,1.58,1.58,0,0,1-.23.22,1.53,1.53,0,0,1-.41.31,1.31,1.31,0,0,1-.63.48l-.34.31a1.34,1.34,0,0,1-.61.61l-.17.14a1.34,1.34,0,0,1-.6.43L222,254a1.46,1.46,0,0,1-.64.59,1.27,1.27,0,0,1-.38.35l-.23.16-.3.18a1.55,1.55,0,0,1-.43.29,1.21,1.21,0,0,1-.3.2,1.64,1.64,0,0,1-.29.16,1.7,1.7,0,0,1-.39.27,1.46,1.46,0,0,1-.42.32,1.31,1.31,0,0,1-.36.21l-.23.12a1.74,1.74,0,0,1-.47.24,1.4,1.4,0,0,1-.5.29l-.24.13-.19.1a1.65,1.65,0,0,1-.42.21,4.71,4.71,0,0,1-1,.42,1.3,1.3,0,0,1-.52.21l-.15.06a1.31,1.31,0,0,1-.6.21,1.26,1.26,0,0,1-.48.2,1.66,1.66,0,0,1-.42.12,1.25,1.25,0,0,1-.46.12,1.33,1.33,0,0,1-.43.13l-.9.2a1.43,1.43,0,0,1-.41.09h-.67c-.49.1-1,.19-1.48.26a1.24,1.24,0,0,1-.46.29,1.16,1.16,0,0,1-.57.13h-.18a1.6,1.6,0,0,1-.39-.05,1.83,1.83,0,0,1-.4.05l-.4-.06a1.58,1.58,0,0,1-.47-.23c-3.12-.42-6.71-2.47-6.24-5.63v-.15C198,244,205.31,219.26,178.41,180.7c-.09-.26-.2-.53-.31-.8a99.82,99.82,0,0,0-7.69-9.11,47.94,47.94,0,0,1-5.52-5.33l-.37-.34c-.05-.13-.08-.24-.12-.36-1.19-1.91-.92-3.54,2.21-4.9a7.53,7.53,0,0,1,2.27-1.37,21.34,21.34,0,0,1,2.74-.88,18.85,18.85,0,0,1,3.61-1.11c.3-.1.6-.19.91-.27a21.4,21.4,0,0,1,3.29-.49h.49a34,34,0,0,1,15.6,0,27,27,0,0,1,11.72,6.8c4.41,3.62,5.07,6.82,3.87,13-1.56,10.49,5.26,24.05-3,32.31a1.34,1.34,0,0,0,0,1.11,1.8,1.8,0,0,0,2-.32,18.79,18.79,0,0,0,2.17-3.46,19.17,19.17,0,0,0,1.88-7,37.39,37.39,0,0,0-.26-4.61c-.28-3.16-.49-3.83-.67-6.31-.09-1.39-.15-3-.13-5a48.89,48.89,0,0,1,.59-7.83,39.66,39.66,0,0,1,1.71-6.7,7.33,7.33,0,0,1,.48-1.72,7.05,7.05,0,0,1,1.88-3.77c.25-.5.51-1,.8-1.53l1,.29a7.83,7.83,0,0,1,2.19-.55c5.1-.64,13.91,3.82,18.87,6.67,31.14,17.78,6.95,64-13.16,82.15Zm41.36-58.74c-1.8,2-4.8,3.73-7.55,2.94a4.29,4.29,0,0,1-1.16-.56,1.05,1.05,0,0,0,.11.31c.16.38-.28.68-.61.61h-.21a.45.45,0,0,1-.37-.52.37.37,0,0,1,.08-.18c-.74-1.92-1.2-3.94-1.76-5.92a.48.48,0,0,1,0-.29l-.09-.24c-.29-.58.58-1.08.86-.51,1,2.08.63,5.45,3.27,6.33,2.43.81,5.13-.92,6.72-2.64.44-.52,1.15.17.71.65Zm-.18-9.38a.37.37,0,0,0-.14.07c-.06.4-.13.8-.19,1.21a4.87,4.87,0,0,1-.1.65,3.34,3.34,0,0,1-.24,1.4,11.73,11.73,0,0,1-2.34,4.66,10.33,10.33,0,0,1-.79.83h0l-.09.12h0a1.61,1.61,0,0,1-.25.42,1.24,1.24,0,0,1-.25.35,3.56,3.56,0,0,1-.86.59,4.06,4.06,0,0,1-.63.24,3.9,3.9,0,0,1-.67.11h-.33a2.91,2.91,0,0,1-.59-.1h0a2.24,2.24,0,0,1-.7-.37,2.06,2.06,0,0,1-.54-.6,2.11,2.11,0,0,1-.21-.46.38.38,0,0,1,0-.15.29.29,0,0,1,0-.13l-.12-.27a3.3,3.3,0,0,1-.13-.52h0V189a10.56,10.56,0,0,1-.68-2.82v-.07h0a1.69,1.69,0,0,1-.12-.44,1.18,1.18,0,0,1-.13-.52,1.21,1.21,0,0,1-.05-.18,1.6,1.6,0,0,1-.11-.43h0a2.37,2.37,0,0,1-.09-.36V184a1.43,1.43,0,0,1-.16-.57h0v-.11a21.55,21.55,0,0,0-.14-.5,1.5,1.5,0,0,1-.15-.51,1.17,1.17,0,0,1-.08-.36h0a1,1,0,0,1-.08-.22,1.57,1.57,0,0,1-.08-.29,2,2,0,0,1-.08-.22v-.12a1.65,1.65,0,0,1-.18-.62,1.67,1.67,0,0,0-.08-.3.92.92,0,0,1-.09-.23,1.33,1.33,0,0,1-.05-.19l-.06-.16a1.29,1.29,0,0,1-.12-.38,1.22,1.22,0,0,1-.14-.36.82.82,0,0,1-.1-.26c-.86-1.29-1.74-2.56-2.66-3.8a.52.52,0,0,1-.68.25.38.38,0,0,1-.13-.09c-1.07-1.27-2.13-2.56-3.28-3.75a.43.43,0,0,1-.49-.35,1.17,1.17,0,0,0-.05-.2,18.16,18.16,0,0,0-2.63-2.17c-.39-.26-.28-1,.25-.94a3.91,3.91,0,0,1,.83.15,47.46,47.46,0,0,0-6.19-4.25.51.51,0,0,1-.16-.7.49.49,0,0,1,.26-.21c-.67-.45-1.36-.88-2.08-1.28a1.6,1.6,0,0,1-.35-.28,27.93,27.93,0,0,1-9.84-4.49,2.67,2.67,0,0,1-.44-.38q-.9-.44-1.74-.9c-.27-.14-.53-.28-.78-.43a5,5,0,0,1-3.28-2.3,8.26,8.26,0,0,1-2.16-2.85,5.48,5.48,0,0,1-.47-2.49c-.06-.28-.11-.57-.15-.86.7-9.34,11.67-12.42,16.8-19.07,3.48-3.88,8.13-9.59,4.95-14.91-1.82-2.44-4.64-3.59-5.92-1.42.83.4,2.37.63,3.09,1.57a2.48,2.48,0,0,1,.89,1.52c1.6,14.67-27.75,22.6-21.88,36.11a16.13,16.13,0,0,0,3.38,4.76c.45.43.93.87,1.45,1.32h-.06l.56.49c-5.32.15-9.18,2.21-10.37,8l-.48-.56v.06c-.38-.47-.77-.92-1.17-1.37a38.53,38.53,0,0,0-5.52-4.93c-.35-.25-.7-.51-1.07-.74l-.36-.23c-.46-.3-.93-.58-1.4-.85l-.67-.36h-.09c-10.38-5.38-18.67-1-23.34-5.41-3.71-3.2-4.66-10.12-4.94-16.11-.36-4.49-.25-9.08-.53-13-.09-1.19-.18-2.42-.3-3.66a33.3,33.3,0,0,0-1.56-5,30.43,30.43,0,0,0-5.35-8.63,5.61,5.61,0,0,1-1.17-.94l-.17-.11a22.4,22.4,0,0,1-3-2.49,4.08,4.08,0,0,1-1.65-1.25,7.25,7.25,0,0,0-2.93-1.31,57,57,0,0,0-7-2c-1.1-.23-2.22-.41-3.33-.55-11.39,0-23.29,6.3-30.56,16.76-5.46,5.39-4.07,18.43-13.32,19a22.5,22.5,0,0,0-8-1.39q-1.12.14-2.25.21a.46.46,0,0,1-.27.09,2.35,2.35,0,0,1-.53,0,2.9,2.9,0,0,1-1.06-.08.59.59,0,0,1-.3-1,.56.56,0,0,1,.25-.5,4.48,4.48,0,0,1,1.19-1.41l.07-.09c6.14-9.29,10.23-21.11,3.5-31.06a24.48,24.48,0,0,0-3.8-5.12c-5-5-11.94-8.42-17.42-4.3-7.31,7-7,19.12-15.86,25.37a1.82,1.82,0,0,1-2.32.42c-1.23-.73-2.11.74-1.6,1.72,9.32,2.55,14.44-14.51,17.46-21.1,3.51-8.34,12.32-6.28,18.26.46A27.16,27.16,0,0,1,97,104.15c.89,10-3.89,22.44-14.68,24.35-11.13,1.89-22.89.2-34,2.92-5.06.21-9.66,2.47-14.35,4a16,16,0,0,1-4.88,1.38,4.87,4.87,0,0,1-3.85-.29.49.49,0,0,1-.18-.66l0-.06a4.87,4.87,0,0,1-1.2-1.28c-8.63-9.3,14.22-50.16,21.05-56,15.64-20.75,40.82-32.15,64.76-40.64,33.14-10.14,69.52-3.75,98.9,14,.92.52,1.83,1.06,2.73,1.61a78.73,78.73,0,0,1,20.26,16c.35.37.71.72,1.06,1.1,1,1.35.86,1.55-.71,2a26.09,26.09,0,0,0-8.55,5.62c-10.63,10.16-9.9,39.67-23.21,42.79a1.49,1.49,0,0,0-.36,1.16,1.07,1.07,0,0,0,.47.14c3.53.73,6.47-2.22,8.39-5.08,8.46-12.65,6.69-31.49,19.75-40.89,8.09-3.06,14.45-.17,19.55,5.47,9.07,9.65,14.44,28.16,18,37.87,4.34,20.1,7.8,41.26,2.6,61.49Z"/><path d="M120.18,263.73a27.25,27.25,0,0,1-2.12,6.47c.53-.89,1-1.8,1.54-2.66A35,35,0,0,0,120.18,263.73Z"/><path d="M90.62,273.67h0v.24h0C90.7,273.83,90.66,273.75,90.62,273.67Z"/><path class="cls-2" d="M248,81.85c-5.28-5.61-11.8-8.22-20-4.33-13.36,10.78-9.84,32-21.89,43.77-.91,1.4-6,2.44-6.3.92a1.49,1.49,0,0,1,.36-1.16c13.31-3.12,12.58-32.63,23.21-42.79a26.09,26.09,0,0,1,8.55-5.62c1.57-.46,1.69-.66.71-2-.35-.38-.71-.73-1.06-1.1a100.38,100.38,0,0,0-20.26-16c-.9-.55-1.81-1.09-2.73-1.61a143,143,0,0,0-22.66-10.36C156.26,30,121.84,30.78,93.41,45.24,69.76,54.56,48.57,70.1,35.91,92.58c-4.28,5.63-17.42,33.69-12,42a4.87,4.87,0,0,0,1.2,1.28.48.48,0,0,0,.06.67.18.18,0,0,0,.07.05,4.87,4.87,0,0,0,3.85.29A16,16,0,0,0,34,135.44c4.69-1.55,9.29-3.81,14.35-4,11.15-2.72,22.91-1,34-2.92,10.79-1.91,15.57-14.36,14.68-24.35a27,27,0,0,0-6.24-10.94c-3.86-4.08-8.93-6.66-14.06-4.62-4,2.75-4.74,7.84-6.71,12-2,4.91-8,16.53-14.49,13.79a1.2,1.2,0,0,1-.46-.49c-.51-1,.37-2.45,1.6-1.72a1.82,1.82,0,0,0,2.32-.42c8.91-6.3,8.57-18.41,15.88-25.41,5.48-4.11,12.38-.7,17.15,4.06A25.82,25.82,0,0,1,96.29,96c5.66,8.4,3.66,18.1-.78,26.51a51.64,51.64,0,0,1-3.22,4.06l-.07.09c-.4.46-1,.84-1.19,1.41a.56.56,0,0,0-.25.5.59.59,0,0,0,.3,1,2.9,2.9,0,0,0,1.06.08,2.35,2.35,0,0,0,.53,0,.46.46,0,0,0,.27-.09q1.13-.07,2.25-.21a22.5,22.5,0,0,1,8,1.39c9.25-.61,7.86-13.65,13.32-19C123.78,101.29,135.68,95,147.07,95c1.11.14,2.23.32,3.33.55a57,57,0,0,1,7,2,7.25,7.25,0,0,1,2.93,1.31A4.08,4.08,0,0,0,162,100.1a22.4,22.4,0,0,0,3,2.49l.17.11a5.61,5.61,0,0,0,1.17.94,30.43,30.43,0,0,1,5.35,8.63,33.3,33.3,0,0,1,1.56,5c.12,1.24.21,2.47.3,3.66.28,4,.17,8.54.53,13a34.66,34.66,0,0,0,1.66,8.79c.7,3.69,1.81,5.94,3.28,7.32,4.67,4.38,13,0,23.34,5.41h.09l.67.36c.46.26.93.54,1.4.85l.36.23c.36.23.71.48,1.07.74a38.53,38.53,0,0,1,5.52,4.93c.39.42.79.86,1.18,1.31l.48.56c1.19-5.77,5-7.83,10.37-8l-.56-.49c-.5-.45-1-.9-1.39-1.33a16.13,16.13,0,0,1-3.38-4.76c-5.87-13.51,23.48-21.44,21.88-36.11a2.48,2.48,0,0,0-.89-1.52c-.9-.69-2.22-.7-3.16-1.46l.07-.11c1.28-2.17,4.1-1,5.92,1.42a7.07,7.07,0,0,1,.77,7.86c-3.78,9.69-22,18.64-22.37,27a5.48,5.48,0,0,0,.47,2.49,8.26,8.26,0,0,0,2.16,2.85,5,5,0,0,0,3.28,2.3c.25.15.51.29.78.43.52.28,1.08.55,1.68.83l.06.07a2.67,2.67,0,0,0,.44.38,27.93,27.93,0,0,0,9.84,4.49,1.6,1.6,0,0,0,.35.28c.72.4,1.41.83,2.08,1.28a42.72,42.72,0,0,1,8.53,7.58h0l.2.2c1.24,1.43,2.41,2.91,3.53,4.44.92,1.24,1.8,2.51,2.66,3.8a.82.82,0,0,0,.1.26,1.13,1.13,0,0,0,.14.36,1.29,1.29,0,0,0,.12.38l.06.16a1.33,1.33,0,0,0,0,.19.92.92,0,0,0,.09.23.43.43,0,0,0,.08.3,1.65,1.65,0,0,0,.18.62V181a2,2,0,0,0,.08.22,1.57,1.57,0,0,0,.08.29,1,1,0,0,0,.08.22h0a1.17,1.17,0,0,0,.08.36,1.5,1.5,0,0,0,.15.51,21.55,21.55,0,0,1,.14.5v.11h0a1.43,1.43,0,0,0,.16.57v.11a2.37,2.37,0,0,0,.09.36h0a1.6,1.6,0,0,0,.11.43,1.21,1.21,0,0,0,0,.18,1.18,1.18,0,0,0,.13.52,1.69,1.69,0,0,0,.12.44h0v.07a10.19,10.19,0,0,0,.68,2.82V189h0a3.3,3.3,0,0,0,.13.52l.12.27a.29.29,0,0,0,0,.13.38.38,0,0,0,0,.15,2.11,2.11,0,0,0,.21.46,2.06,2.06,0,0,0,.54.6,2.24,2.24,0,0,0,.7.37h0a2.91,2.91,0,0,0,.59.1h.28a3.9,3.9,0,0,0,.67-.11,4.06,4.06,0,0,0,.63-.24,3.56,3.56,0,0,0,.86-.59,1.24,1.24,0,0,0,.25-.35,1.61,1.61,0,0,0,.25-.42h0l.09-.12h0a8.89,8.89,0,0,0,.79-.83,11.73,11.73,0,0,0,2.34-4.66,3.34,3.34,0,0,0,.24-1.4,4.87,4.87,0,0,1,.1-.65c.06-.41.13-.81.19-1.21a.37.37,0,0,1,.14-.07c5.2-20.23,1.74-41.39-2.61-61.43C262.43,110,257.06,91.5,248,81.85Zm-76,28.56a1,1,0,0,1-.07-.15c-.23-.5-.47-1-.72-1.49.23.39.44.8.67,1.2a1.87,1.87,0,0,0,.14.5Z"/><path class="cls-2" d="M168.35,229.42c-1.15-5.62-2.52-11.21-4-16.75-3.58-9.85-6.19-20.11-10.16-29.72-.57-1.39-1.18-2.77-1.82-4.13a1.33,1.33,0,0,0,.18-.38l.08-.05a.44.44,0,0,0,.21-.53,29,29,0,0,0-2.15-5.15,19.55,19.55,0,0,0-1.12-1.94h0l-.25-.39h0a5.17,5.17,0,0,0-.58-.73,6.17,6.17,0,0,0-1.11-.87,4.58,4.58,0,0,0-1.21-.51,1.61,1.61,0,0,0-1.16.15l-.13.09a3.67,3.67,0,0,0-.74.2c-1.76.64-3.51,2.49-2.8,3.75,5.37,8.52,6.48,19.81,4.45,29.29-.06-.12-.11-.26-.16-.38-3.27-7.49-1-17.08-5.53-24.45l-.09-.16a20.41,20.41,0,0,0-3.41-5.15c-2-2.21-4.6-3.86-7.23-3.45a5.49,5.49,0,0,0-2.08.76,3,3,0,0,0-.51,2.7c.89,5.69-2,11.27-4,16.46-6,16-19,28.07-24,44.45-3.26,10.7-9,22.51-4.61,33.65,1.73,4.46,6.16,9.13,11,10.66a13.17,13.17,0,0,0,6.86-.7c2.76-1.07,4.41-3.4,5.85-5.86a27.25,27.25,0,0,0,2.12-6.47,32.15,32.15,0,0,0,0-5.55,14.19,14.19,0,0,1-.94-3.73c-1.17-11.9-4.69-25.56,0-36.88.08-.19.15-.39.23-.58,2.88-2.84-.15,13.71-.13,21.08a12.58,12.58,0,0,0,.16,2.21,2.68,2.68,0,0,0,.26.83c0,1.18.06,2.35.16,3.53a44.35,44.35,0,0,0,.93,6.06c2.52,11.44,9.37,22.12,19.34,27.32a28.65,28.65,0,0,0,6.1,2.26q.66.18,1.35.33h0a29.93,29.93,0,0,0,7.73.56h0l.89.09A11.78,11.78,0,0,0,166,277.7a17.09,17.09,0,0,0,2.35-3,23.33,23.33,0,0,0,3.18-10.3,111.54,111.54,0,0,0-.31-16.45A165.4,165.4,0,0,0,168.35,229.42Z"/><path class="cls-2" d="M240.67,167.08c-5-2.85-13.77-7.31-18.87-6.67a7.83,7.83,0,0,0-2.19.55,5.83,5.83,0,0,0-1.54,1,2.76,2.76,0,0,0-.3.29,7.05,7.05,0,0,0-1.88,3.77,7.33,7.33,0,0,0-.48,1.72c0,.19,0,.38-.07.58a14.66,14.66,0,0,0-.83,5.29,51.26,51.26,0,0,0-.47,11,1.55,1.55,0,0,0-.58,1.18v.55a1.46,1.46,0,0,0,.73,1.26v.17l.06.94a1.8,1.8,0,0,0,0,.73l.09.51c.19,2.81.37,5.62.36,8.41-.27,4-.47,8.06-4.08,10.85a1.57,1.57,0,0,1-2.21.21,1.41,1.41,0,0,1-.34-.39,1.34,1.34,0,0,1,0-1.11c8.28-8.26,1.46-21.82,3-32.31,1.2-6.15.54-9.35-3.87-13-.46-.38-.94-.75-1.48-1.14-5.72-5.11-13.2-6.6-20.54-5.89a9.82,9.82,0,0,0-3.82,0c-.43.07-.85.17-1.28.27h-.69a21.4,21.4,0,0,0-3.29.49c-.31.08-.61.17-.91.27a18.85,18.85,0,0,0-3.61,1.11,21.34,21.34,0,0,0-2.74.88,7.53,7.53,0,0,0-2.27,1.37,6.18,6.18,0,0,0-1.22,1.48,3.07,3.07,0,0,0-1,3.42,1.09,1.09,0,0,0,.12.36l.37.34c1.92,1.69,3.75,3.48,5.52,5.33a99.82,99.82,0,0,1,7.69,9.11,119.51,119.51,0,0,1,21.37,50.86c.32,6.27,1.25,12.58.79,18.84a.33.33,0,0,0,0,.14,1,1,0,0,0,0,.25,1.41,1.41,0,0,0-.14.57,1.49,1.49,0,0,0-.1.63,1.54,1.54,0,0,0-.1.56,1.52,1.52,0,0,0-.1.6,1.75,1.75,0,0,0-.06.56,2.54,2.54,0,0,0,0,.39,1.65,1.65,0,0,0,0,.7v.34c-.47,3.16,3.12,5.21,6.24,5.63a1.58,1.58,0,0,0,.47.23l.4.06a1.83,1.83,0,0,0,.4-.05,1.6,1.6,0,0,0,.39.05h.18a1.16,1.16,0,0,0,.57-.13,1.24,1.24,0,0,0,.46-.29c.5-.07,1-.16,1.48-.26H211a1.43,1.43,0,0,0,.41-.09l.9-.2a1.33,1.33,0,0,0,.43-.13,1.25,1.25,0,0,0,.46-.12,1.66,1.66,0,0,0,.42-.12,1.26,1.26,0,0,0,.48-.2,1.31,1.31,0,0,0,.6-.21l.15-.06a1.3,1.3,0,0,0,.52-.21,4.71,4.71,0,0,0,1-.42,1.65,1.65,0,0,0,.42-.21l.19-.1.24-.13a1.49,1.49,0,0,0,.5-.29,1.74,1.74,0,0,0,.47-.24l.23-.12a1.31,1.31,0,0,0,.36-.21,1.46,1.46,0,0,0,.42-.32,1.7,1.7,0,0,0,.39-.27,1.64,1.64,0,0,0,.29-.16,1.21,1.21,0,0,0,.3-.2,1.55,1.55,0,0,0,.43-.29l.3-.18.23-.16a1.27,1.27,0,0,0,.38-.35,1.46,1.46,0,0,0,.64-.59l.54-.43a1.34,1.34,0,0,0,.6-.43l.17-.14a1.34,1.34,0,0,0,.61-.61l.34-.31a1.31,1.31,0,0,0,.63-.48,1.53,1.53,0,0,0,.41-.31,1.58,1.58,0,0,0,.23-.22,1.32,1.32,0,0,0,.41-.37,1.36,1.36,0,0,0,.3-.33,1.45,1.45,0,0,0,.4-.34,1.24,1.24,0,0,0,.41-.38,1.16,1.16,0,0,0,.37-.36h0C247.57,231.08,271.76,184.9,240.67,167.08ZM214.16,186.8Zm-14.5-.31a96,96,0,0,0-14-16.11C181.42,159.76,206.18,187.2,199.66,186.49Zm5.47,73a.51.51,0,0,1-.21-.44,1.07,1.07,0,0,0,.32.16,1.14,1.14,0,0,0,.13.3h0l.06.09h-.09a.65.65,0,0,1-.21-.07Z"/><path class="cls-2" d="M97.85,225.57h0c2.79-7.34,8.15-14.81,13.27-22.45,5.65-8.43,11-17.07,12.36-26a27.35,27.35,0,0,0,.19-7c-.38-3.34-1.59-5.61-3.39-7-5.06-4-14.77-1.44-23.9,2.73a111.19,111.19,0,0,0-19.09,11.24,56.37,56.37,0,0,0-6,5.34,68.55,68.55,0,0,0-9.32,12,109.55,109.55,0,0,0-8.79,18.18c-.3.77-.59,1.54-.88,2.31a31.36,31.36,0,0,0-.89,11.29,33.39,33.39,0,0,0,1,5.44,40.17,40.17,0,0,0,6.43,13A49.64,49.64,0,0,0,67,253.36a24,24,0,0,0,2.22,2A24.53,24.53,0,0,0,80,260.89a11.69,11.69,0,0,0,5.81-.34,11.56,11.56,0,0,0,1.77-.77,4.23,4.23,0,0,0,.47-.25l.09,0a2.44,2.44,0,0,0,1.28-2.12h0c0-1,.06-2,.14-2.91a44.42,44.42,0,0,1,.71-5.14,97.08,97.08,0,0,1,4.17-13.87C95.65,232.14,96.85,228.87,97.85,225.57ZM90,191.85v-.11c-.15-.56.16-1.67,1.28-3.31,0-.06.07-.11.1-.16,1.78-3,4.79-5.19,7.93-7.28a59.49,59.49,0,0,0,7.64-5.67,2.92,2.92,0,0,1,.88.56l.08.08.12.13a.94.94,0,0,1,.26,1,1.14,1.14,0,0,1-.61.59c-1.18.95-2.4,1.86-3.62,2.77a33,33,0,0,1-5.13,3.91,41.54,41.54,0,0,0-3.67,3.34,24.25,24.25,0,0,1-3.49,3.94h0l-.26.17C90.76,192.29,90.18,192.29,90,191.85Z"/><path class="cls-2" d="M174.44,267.5v-.45A1.7,1.7,0,0,0,174.44,267.5Z"/><path class="cls-2" d="M189.13,206.15c-1.37-3.67-2.77-6.92-4-9.54-.19-.38-1.1-1.79-2.27-3.56-2.61-3.91-6.52-9.61-6.77-10l-.39-.57c-.14-.21-.22-.31-.29-.41l-.28-.4-.4-.56c-.36-.49-.63-.86-1-1.29l-.49-.54-.42-.47-.35-.39-.36-.41-.42-.47-.37-.41-.62-.69c-.56-.62-1-1.14-1.36-1.48l-.74-.78-.79-.82c-.46-.47-.79-.81-.88-.89s-.26-.27-.52-.51a27.69,27.69,0,0,0-7.24-5.44,9.59,9.59,0,0,0-2.85-.91,3.44,3.44,0,0,0-1.43.06c-.53.21-2.28,1.07-3.1,5.18.15.36.3.72.44,1.08,5,12.42,9.08,22.94,11.76,29.95,2.05,5.35,3.27,8.67,3.43,9.24.31,1.09.61,2.17.61,2.17.2.73.35,1.3.38,1.42.52,1.95.89,4.17.93,4.44s.13.78.24,1.49c.71,4.54,2.67,17.54,5.21,34.74.07.52.15,1.05.23,1.58h0a1.21,1.21,0,0,0-.2.26,1.42,1.42,0,0,0-.24.8v.18a1.58,1.58,0,0,0,.23.81,1.27,1.27,0,0,0,.21.25,2.85,2.85,0,0,0,.33.25.74.74,0,0,0,0,.21.49.49,0,0,0,0,.17,1.62,1.62,0,0,0,0,.44.38.38,0,0,0,0,.15,1.22,1.22,0,0,0,0,.27,1.89,1.89,0,0,0,0,.67v.09a.9.9,0,0,0-.22.46,24.19,24.19,0,0,0-.54,4.33,1.33,1.33,0,0,0,.22.77,1,1,0,0,0,0,.25h0v.06h0a1.7,1.7,0,0,0,0,.45,1.51,1.51,0,0,0,0,.52,1.67,1.67,0,0,1,0,.5h0a4.66,4.66,0,0,1-.17-1.44,55.2,55.2,0,0,1-1,5.79,13.58,13.58,0,0,0,2.55.21c4.78,0,9.23-2.63,12.53-6.1a25.45,25.45,0,0,0,3.88-5.39C200.66,246.79,195.19,222.36,189.13,206.15Zm-35.94-38.26a1.8,1.8,0,0,0-.35.38,2,2,0,0,0-.26.34A1.86,1.86,0,0,1,153.19,167.89Z"/><path d="M185.66,170.36a96,96,0,0,1,14,16.11C206.18,187.2,181.42,159.76,185.66,170.36Z"/><path d="M91.76,191.64a24.46,24.46,0,0,0,3.49-3.91c1.18-1.48,2.33-2.82,3.27-3.1l.4-.24a33.37,33.37,0,0,0,5.09-3.93,29.43,29.43,0,0,1,4-3.12,1.08,1.08,0,0,0,.18-.24.94.94,0,0,0-.26-1l-.12-.13-.08-.08a3.37,3.37,0,0,0-.88-.56A52.13,52.13,0,0,1,99.21,181c-3.14,2.09-6.15,4.29-7.93,7.28a11.11,11.11,0,0,0-1.38,3.47v.11a1.12,1.12,0,0,0,1.46,0l.26-.17a.09.09,0,0,0,.13,0Z"/><path class="cls-2" d="M49.86,210.93c.85-2,1.8-4,2.82-5.91.58-1.1,1.18-2.2,1.79-3.29a1.56,1.56,0,0,0,.2-.92v-.16c.12-.19.25-.37.38-.56l.85-1.18a28.18,28.18,0,0,0,2.36-4.14l.52-1a44.73,44.73,0,0,1,4.53-7.66,2.33,2.33,0,0,0,.36-.7,30.16,30.16,0,0,0,2.87-3l.15-.2a2,2,0,0,0,.58-.16,8,8,0,0,0,2-1.85l.69-.69a1.19,1.19,0,0,0,.37-.06l.65-.31a7.77,7.77,0,0,0,2.18-1.6c.14-.16.28-.39.42-.52a5.9,5.9,0,0,1,.69-.4,17,17,0,0,0,1.49-1.2,21.62,21.62,0,0,0,2-2.06l.39-.44c.2-.11.38-.23.58-.32l.28-.18a15.06,15.06,0,0,0,2-1.37l.09-.07a18.09,18.09,0,0,1,4.12-2.81,1.24,1.24,0,0,0,.67-.83,1.35,1.35,0,0,0,1.14-.15,23.07,23.07,0,0,1,3.69-1.92l.19-.08h0l.48-.2,1.2-.51c.63-.26,1.26-.54,1.88-.84h0c1.34-.51,2.68-1,4-1.57h.11a1.45,1.45,0,0,0,1.82-.63,1.55,1.55,0,0,0,.13-.36,7,7,0,0,0,3.06-1.32,4.58,4.58,0,0,0,.81-.14c.54-.12,1.07-.28,1.62-.4.79-.18,1.77-.17,2.68-.28,2.84-.34,5.65-.94,8.51-1a.5.5,0,0,0,.49-.51.49.49,0,0,0-.24-.42,3.5,3.5,0,0,1-.46-.39.47.47,0,0,0-.06-.4c-2.76-4.21-6.38-8.39-11.39-9.83a.46.46,0,0,0-.57.29,2.47,2.47,0,0,0-1.36-.41l-1-.27a.49.49,0,0,0-.23-.13l-.73-.16a8.07,8.07,0,0,0-2-.4,24.65,24.65,0,0,0-3.31-.37.45.45,0,0,0-.48.44v.05a54.51,54.51,0,0,0-7-.08,28.4,28.4,0,0,0-3.69,0,.38.38,0,0,0-.17-.08,2,2,0,0,1-1-.64,2.28,2.28,0,0,1-.38-.5,2.39,2.39,0,0,1-.13-.21.29.29,0,0,1,0-.13.09.09,0,0,1,0-.07h0v-.07a1.42,1.42,0,0,1,.26-.29l.08-.11h0l.08-.08a.48.48,0,0,0,.37.06,39.06,39.06,0,0,1,4.18-.65c2.13-.24,4.27-.39,6.39-.72h0a.41.41,0,0,0,.33-.48H99.8a.52.52,0,0,0,.46.45l2.82.37v.06c.44.33,1.2.26,1.71.37a9.55,9.55,0,0,0,2.44.38.52.52,0,0,0,.48-.54.61.61,0,0,0-.13-.31,6.89,6.89,0,0,0-.67-3.74.53.53,0,0,0,0-.35,4.09,4.09,0,0,0-1-1.75,5.08,5.08,0,0,0-1.38-1.06,4.06,4.06,0,0,0-.87-.35,12.72,12.72,0,0,0-2.56-1.07h-.3l-.19-.08a5.47,5.47,0,0,0-.64-.23,7.41,7.41,0,0,0-1.75-.21H98a.42.42,0,0,0-.41.25c-.67-.1-1.34-.17-2-.21-1.87-.11-3.75-.22-5.62-.37a67,67,0,0,0-11.41-.62,8.48,8.48,0,0,0-2.29-.31,7.93,7.93,0,0,0-1.46.13,1.18,1.18,0,0,0-.11-.19,1.36,1.36,0,0,0-1.22-.66,66.91,66.91,0,0,0-8.13.59,1.14,1.14,0,0,0-.68.4l-2.58.18a1.47,1.47,0,0,0-.79-.22,1.36,1.36,0,0,0-1.1.48h0c-2.12.19-4.29.69-6.25,1l-.58.1-.21-.19a1.39,1.39,0,0,0-1.24-.23c-3.85,1-7.92,1-11.68,2.35a1.52,1.52,0,0,0-.38.2,1.66,1.66,0,0,0-.54.58c-.33.07-.66.15-1,.2a1.3,1.3,0,0,0-1,.84c-.81.29-1.59.63-2.37,1a1.4,1.4,0,0,0-.29,0,1.42,1.42,0,0,0-.93.32,1.25,1.25,0,0,0-.61.3,1.27,1.27,0,0,0-.72.36,1.33,1.33,0,0,0-.83.51,11.71,11.71,0,0,0-2.2,1.33,1.26,1.26,0,0,0-.56.23l-.09.08-.07.06h0a1.35,1.35,0,0,0-.35.28,1.22,1.22,0,0,0-.56.44,1.3,1.3,0,0,0-.48.45,1.17,1.17,0,0,0-.36.34,1.24,1.24,0,0,0-.44.35,1.48,1.48,0,0,0-.26.3.69.69,0,0,0-.13.11h-.18a1.59,1.59,0,0,0-1.06.44,3,3,0,0,0-.46.49,5.86,5.86,0,0,0-.59.82,7.52,7.52,0,0,0-.61,1.2.93.93,0,0,0-.17.53,15.75,15.75,0,0,0-1.76,3.35.11.11,0,0,0,0,.08,1.42,1.42,0,0,0-.4.74l-.05.1h0a1.42,1.42,0,0,0-.67.39l-.23.3a1.45,1.45,0,0,0-.21.76v1a1.07,1.07,0,0,0,.07.39,1.29,1.29,0,0,0-.14.51,1.36,1.36,0,0,0-.08.49c0,.05,0,.1-.07.14a1.63,1.63,0,0,0-.17.57,1.05,1.05,0,0,0-.06.24,1.53,1.53,0,0,0-.12.6v.15a1.41,1.41,0,0,0-.07.54,1.52,1.52,0,0,0-.06.42,1.58,1.58,0,0,0-.14.71,2.94,2.94,0,0,0,0,.42,1.09,1.09,0,0,0,0,.36.74.74,0,0,0,0,.21,1.83,1.83,0,0,0,0,.66,1.71,1.71,0,0,0,0,.32,1.13,1.13,0,0,0,0,.26,1.42,1.42,0,0,0,0,.58,1.82,1.82,0,0,0,0,.57,1.51,1.51,0,0,0,.09.73,1.34,1.34,0,0,0,.1.59,1.52,1.52,0,0,0,.14.63v.12a1.67,1.67,0,0,0,.22.75,1.27,1.27,0,0,0,.11.38.61.61,0,0,0,.05.12,1.06,1.06,0,0,0,.09.25h0a1.42,1.42,0,0,0,.26.68,1.74,1.74,0,0,0,.14.27,1.4,1.4,0,0,0,.36.65,1,1,0,0,0,.26.42,1.36,1.36,0,0,0,.36.5,1.88,1.88,0,0,0,.26.22.83.83,0,0,0,.2.22,1,1,0,0,0,.24.17,1.28,1.28,0,0,0,.73.51,1.38,1.38,0,0,0,.62.3,1.53,1.53,0,0,0,.47.11h0a1.54,1.54,0,0,0,.56.1h.51a1.94,1.94,0,0,0,.59,0h.18l.44-.09h0l.47-.11.25-.07a9.27,9.27,0,0,0,1.74-.69,5.53,5.53,0,0,0,1.16-.82,1.48,1.48,0,0,0,.3-.26,2.09,2.09,0,0,0,.2-.22,2,2,0,0,0,.26-.24,1.49,1.49,0,0,0,.23-.27l.11-.1a.71.71,0,0,0,.1-.14,1.19,1.19,0,0,0,.22-.12l.21-.17.12-.14.17-.11.09-.06.19-.21A1.48,1.48,0,0,0,32,166a1.38,1.38,0,0,0,.54-.45l.27-.15.1-.08a1.8,1.8,0,0,0,.19-.2,1.06,1.06,0,0,0,.2-.12l.17-.14a.91.91,0,0,0,.18-.21l.15-.12a.75.75,0,0,0,.18-.13,1.42,1.42,0,0,0,.41-.4,1.32,1.32,0,0,0,.46-.32l.16-.08a2,2,0,0,0,.36-.29,1.85,1.85,0,0,0,.32-.25l.15-.13a2.09,2.09,0,0,0,.28-.24l.06-.09a1.81,1.81,0,0,0,.33-.29h0l.25-.14h0a1.44,1.44,0,0,0,.38-.32.44.44,0,0,0,.08-.11,1.29,1.29,0,0,0,.47-.43,1.42,1.42,0,0,0,.57-.46,1.24,1.24,0,0,0,.3-.16h0a1.6,1.6,0,0,0,.25-.27,1.38,1.38,0,0,0,.59-.58l.14-.11a2.31,2.31,0,0,0,.35-.18,1.33,1.33,0,0,0,.3-.23l.12-.07a1.79,1.79,0,0,0,.31-.25v-.07a1.23,1.23,0,0,0,.28-.23H41a1.42,1.42,0,0,0,.41-.28l.06-.06h0a1.36,1.36,0,0,0,.39-.25l.07-.08H42a1.55,1.55,0,0,0,.32-.2l.15-.14a1.54,1.54,0,0,0,.39-.23,1.36,1.36,0,0,0,.56-.42c1-.65,2.06-1.31,3.1-1.93l.22-.16a1.64,1.64,0,0,0,.44.09h.12a1.37,1.37,0,0,0,1.27-.74,2,2,0,0,0,.12-.34h0a8.33,8.33,0,0,0,1.74-.6h0l.41-.2,1-.49.67-.34.27-.12h0l.2-.07a2,2,0,0,0,.67-.44,16.4,16.4,0,0,1,4.8-1.42,8,8,0,0,1,1.38,0h.42a1.21,1.21,0,0,0,.32.11h.14a1.37,1.37,0,0,0,.22.19,1.59,1.59,0,0,0,.15.29.24.24,0,0,0,0,.12,1.08,1.08,0,0,0-.24.32l-.31.14-.22.1h-.06a1.18,1.18,0,0,0-.28.12l-.19.13c-.8.28-1.6.57-2.39.89h-.2l-.2.08h-.14l-.36.15h0l-.3.23c-1.13.5-2.24,1-3.33,1.61a1.43,1.43,0,0,0-.72.26l-.14.09a5.4,5.4,0,0,0-1.26.71,17.51,17.51,0,0,0-3,1.5c-.39.24-.77.49-1.15.75a1.33,1.33,0,0,0-.56.3,1.2,1.2,0,0,0-.65.38,1.27,1.27,0,0,0-.49.25,1.2,1.2,0,0,0-.31.18,1.25,1.25,0,0,0-.54.3,1.17,1.17,0,0,0-.31.17,1,1,0,0,0-.37.22,1.33,1.33,0,0,0-.69.52,1.28,1.28,0,0,0-.57.34,1.2,1.2,0,0,0-.65.48,1.21,1.21,0,0,0-.65.43,1.32,1.32,0,0,0-.77.53.87.87,0,0,0-.24.1,9.32,9.32,0,0,0-1.13,1,1.29,1.29,0,0,0-.63.45.64.64,0,0,0-.2.16,1,1,0,0,0-.29.28,1.26,1.26,0,0,0-.63.55.9.9,0,0,0-.19.15,1.32,1.32,0,0,0-.48.46,1.21,1.21,0,0,0-.43.44,1.17,1.17,0,0,0-.35.35,1.24,1.24,0,0,0-.43.42,1.19,1.19,0,0,0-.38.36,1.28,1.28,0,0,0-.48.5,1.21,1.21,0,0,0-.43.44,1.31,1.31,0,0,0-.63.62.91.91,0,0,0-.18.21,1.1,1.1,0,0,0-.26.31,1.36,1.36,0,0,0-.41.45,1.34,1.34,0,0,0-.56.72,1.29,1.29,0,0,0-.33.37A1.26,1.26,0,0,0,31,171a1.4,1.4,0,0,0-.42.6,1.54,1.54,0,0,0-.42.77,1.44,1.44,0,0,0-.44.7,2,2,0,0,0-.1.21l-.19.19a1.44,1.44,0,0,0-.27.52,1.46,1.46,0,0,0-.22.43,1.13,1.13,0,0,0-.23.45,1.26,1.26,0,0,0-.17.35,10.15,10.15,0,0,0-.78,1.4,13,13,0,0,0-1.1,4,1.28,1.28,0,0,0-.07.34,1.48,1.48,0,0,0-.11.62,1.36,1.36,0,0,0-.11.44,1.65,1.65,0,0,0-.09.88,1.55,1.55,0,0,0-.17.79,1.51,1.51,0,0,0,0,.52.74.74,0,0,0,0,.21,10.09,10.09,0,0,1-.18,1.47,1.3,1.3,0,0,0-.39,1,96.77,96.77,0,0,0,.51,9.78,36.57,36.57,0,0,0,.86,5.4,6.08,6.08,0,0,0,1.76,3.34l.1.07a6.2,6.2,0,0,0,.35.84,1.22,1.22,0,0,0,0,.27v.29a12.45,12.45,0,0,0,2.29,4.64c1.09,1.49,2.36,2.87,3.46,4.3A10,10,0,0,0,36.76,218,14.4,14.4,0,0,0,39,219.16c.2.09.38.19.57.29s.1.06,0,0l.18.16a4.67,4.67,0,0,0,.93.71,2,2,0,0,0,1.34.23,1.72,1.72,0,0,0,.43.32,2.77,2.77,0,0,0,2.48-.47l.8-.45h.06a5.59,5.59,0,0,0,1.83-1.59,6.11,6.11,0,0,0,.36-.61c.92-1.77.7-3.91,1.73-5.61A1.34,1.34,0,0,0,49.86,210.93Zm65.35-54.44.06.07h-.11ZM83.61,145Zm-.12-.21Z"/><path d="M122,264.81a.5.5,0,0,0,0,1,.5.5,0,1,0,0-1Z"/><path d="M90.76,273.91a10.65,10.65,0,0,0,2.31,2.7h0c.24.21.49.42.73.61a25.57,25.57,0,0,0,7.52,4.14,11.79,11.79,0,0,0,3.72.75.5.5,0,1,0,0-1,15,15,0,0,1-6.45-2,19.59,19.59,0,0,1-6.21-4.61,7.18,7.18,0,0,1-.81-1.17.67.67,0,0,0,0-.2c-.07-.38-.21-.74-.31-1.12a.43.43,0,0,0-.07-.28v-.15h0a1.31,1.31,0,0,1,0-.28.33.33,0,0,1,0-.14v-.08a.52.52,0,0,0-.35-.62.5.5,0,0,0-.61.35,1.4,1.4,0,0,0-.06.41.4.4,0,0,0-.16.38,4.21,4.21,0,0,0,.25,1.21,5.75,5.75,0,0,0,.35.86C90.66,273.75,90.7,273.83,90.76,273.91Z"/><path d="M250.24,170.22l-.2-.2h0a42.72,42.72,0,0,0-8.53-7.58.5.5,0,0,0-.31.65.49.49,0,0,0,.21.26,47.46,47.46,0,0,1,6.19,4.25,3.91,3.91,0,0,0-.83-.15.51.51,0,0,0-.25.94,18.16,18.16,0,0,1,2.63,2.17,1.17,1.17,0,0,1,0,.2.43.43,0,0,0,.49.35c1.15,1.19,2.21,2.48,3.28,3.75a.51.51,0,0,0,.72,0l.09-.13C252.65,173.13,251.48,171.65,250.24,170.22Z"/><path d="M268.12,189.82c-1.59,1.72-4.29,3.45-6.72,2.64-2.64-.88-2.24-4.25-3.27-6.33-.28-.57-1.15-.07-.86.51l.09.24a.48.48,0,0,0,0,.29,59.31,59.31,0,0,0,1.76,5.92.44.44,0,0,0,.11.63.48.48,0,0,0,.18.07h.21c.33.07.77-.23.61-.61a.89.89,0,0,0-.11-.31,4.29,4.29,0,0,0,1.16.56c2.75.79,5.75-1,7.55-2.94C269.26,190.05,268.55,189.36,268.12,189.82Z"/><path d="M120.18,263.73a35,35,0,0,1-.58,3.81c-.52.86-1,1.77-1.54,2.66-1.44,2.46-3.09,4.79-5.85,5.86a13.17,13.17,0,0,1-6.86.7,1.16,1.16,0,0,1-.55-.09,10.23,10.23,0,0,1-3.91-1.78c-.52-.39-1,.48-.51.86a12.29,12.29,0,0,0,9.38,2,12,12,0,0,0,4.58-1.65,12.86,12.86,0,0,0,3.34-3.44c.66-.94,1.23-1.93,1.8-2.93h.1c-.18.92-.36,1.83-.57,2.73a.52.52,0,0,0,1,.27,51.58,51.58,0,0,0,1.48-11.2.71.71,0,0,0,.17-.36v-1a.53.53,0,0,0,.13-.48v-.11a3.53,3.53,0,0,1,0-.65.51.51,0,0,0-.15-.35l-.08-.05v-.09a.4.4,0,0,0-.08-.16c-.1-.53-.21-1.06-.32-1.59a.42.42,0,0,0-.11-.18,3.62,3.62,0,0,0-.16-.86c-.14-.63-1.11-.36-1,.26s.23,1.14.32,1.71v.48A33.08,33.08,0,0,1,120.18,263.73Z"/><rect class="cls-3" x="-0.73" y="-3.64" width="288" height="321"/><path class="cls-2" d="M210.61,212.2c-.28.17.21,0,.21,0a3.06,3.06,0,0,0,.49-.22c.27-.15.52-.36.68-.46a4.69,4.69,0,0,0,1.3-1.5,29,29,0,0,0,1.81-2.71,13.24,13.24,0,0,0,1.34-3.6c.13-.63.29-1.25.44-1.88a3.07,3.07,0,0,0,.07-.53c0-.43,0,.16,0-.09s-.09.12.05-.1a2.5,2.5,0,0,0,.27-.63,1.5,1.5,0,0,0-2.85-.94.83.83,0,0,0,0,.15c.06-.2,0,0-.08.09a3,3,0,0,0-.2.49,3.4,3.4,0,0,0-.16.89v.08a1.53,1.53,0,0,0-.08.37c-.07.3-.15.6-.21.9a11.86,11.86,0,0,1-1,3.14c-.26.45-.54.88-.81,1.32s-.48.72-.76,1.11c-.12.17-.36.47-.52.71,0,0-.2.25-.18.29s.44-.32.1-.12c-.13.08-.24.17-.36.26s0,.09-.26.17c-.07,0-.24.06-.09,0a2,2,0,0,0-.62.25,1.5,1.5,0,1,0,1.52,2.59Z"/><path class="cls-2" d="M222.19,160.65c-1.74-.15-3.4-.35-4.42,1.33-.42.69-.84,1.45-1.32,2.1a7.29,7.29,0,0,0-1.29,3.06c-.5,2.28-1,4.55-1.37,6.85a47.08,47.08,0,0,0-.35,7.6,1.5,1.5,0,0,0,3,0,27.46,27.46,0,0,0-.07-4.35,1.53,1.53,0,0,0-1.9-1,1.52,1.52,0,0,0-.84.65,8.88,8.88,0,0,0-.58,4.08c0,1.6,0,3.19.1,4.79s.33,3,.5,4.5,0,3.15.14,4.71,0,3.12,0,4.67a27.66,27.66,0,0,1-.34,5.06,26.36,26.36,0,0,1-3.69,9.27c-1.07,1.62,1.53,3.12,2.59,1.52a30.31,30.31,0,0,0,3.88-9.08c.8-3.27.6-6.6.64-9.93a77.33,77.33,0,0,0-.52-9.26,36.69,36.69,0,0,1-.27-4.19v-2.48a6.18,6.18,0,0,1,.19-2.14l-2.74-.36a23.37,23.37,0,0,1,0,3.55,1.5,1.5,0,0,0,3,0,47.68,47.68,0,0,1,.29-6.65c.25-1.92.65-3.79,1.07-5.68a12.1,12.1,0,0,1,.64-2.86c.33-.63.85-1.26,1.24-1.86a11.7,11.7,0,0,0,.68-1l.15-.36c-.48.31-.57.43-.28.36.14.11.82,0,1,0s.66.06,1,.09c1.92.16,1.91-2.84,0-3Z"/><path class="cls-2" d="M208,212.15a3,3,0,0,0,.5-.11h-.8c1.81.49,3.74-.51,5-1.8a14.16,14.16,0,0,0,3-5.1c.65-2,1.07-4,1.6-6s1.35-4.22,2-6.35a1.5,1.5,0,0,0-2.89-.8c-.54,1.87-1.24,3.69-1.74,5.57s-.83,3.81-1.44,5.65a14.58,14.58,0,0,1-2.29,4.45,3.6,3.6,0,0,1-1.33,1.24,10.94,10.94,0,0,1-2.34.35,1.5,1.5,0,0,0-1,1.84,1.53,1.53,0,0,0,1.84,1Z"/><path class="cls-2" d="M217.76,168.36h0l.24-.3h0c.06-.13.12-.26.17-.39s0-.12.05-.18a.74.74,0,0,1,.07-.38,1.22,1.22,0,0,0,0-.6,1,1,0,0,0-.17-.55,1.21,1.21,0,0,0-.39-.42,1,1,0,0,0-.51-.27l-.4-.06a1.55,1.55,0,0,0-.76.21l-.3.23a1.5,1.5,0,0,0-.38.67c0,.19-.08.38-.13.57l.15-.36-.06.1.24-.31h0a1.1,1.1,0,0,0-.32.48,1.46,1.46,0,0,0,0,1.16,1.1,1.1,0,0,0,.32.48l.3.23a1.45,1.45,0,0,0,.76.21H217A1.59,1.59,0,0,0,217.76,168.36Z"/><path class="cls-2" d="M218.3,166.56v-.07l-.06.4a1,1,0,0,1,.1-.34l-.15.36a8.27,8.27,0,0,0,.41-1.08q.12-.62.18-1.23l-.06.4a1.15,1.15,0,0,1,.11-.36l-.15.36a6.23,6.23,0,0,1,.66-1.15l-.23.3a2.84,2.84,0,0,1,.6-.6l-.31.24a2.55,2.55,0,0,1,.6-.35l-.36.15a3.38,3.38,0,0,1,.71-.19l-.4,0a11.22,11.22,0,0,1,1.64,0,1.5,1.5,0,0,0,0-3,11.13,11.13,0,0,0-2,0,3.86,3.86,0,0,0-1.63.68,5,5,0,0,0-1.47,1.61c-.12.23-.25.46-.36.69a2.49,2.49,0,0,0-.25.69c0,.25-.07.51-.1.77l.06-.4a4.3,4.3,0,0,1-.23.94l.15-.36a3.44,3.44,0,0,0-.43,1.44,1.5,1.5,0,0,0,3,0Z"/><path class="cls-2" d="M218,168.42a9.12,9.12,0,0,1,.9-4.14c.64-1.14,1.54-1,2.76-1a11.27,11.27,0,0,1,3.37.89,10,10,0,0,1,3.52,1.83,87.77,87.77,0,0,1,6.32,6.33,38.75,38.75,0,0,1,5.7,6.75c1,1.64,3.62.13,2.6-1.51a48.42,48.42,0,0,0-7-8.19c-1.4-1.43-2.75-2.9-4.18-4.3a13.64,13.64,0,0,0-4-3c-2.8-1.17-5.86-2.27-8.93-1.58-3.24.73-4,5.18-4.09,8,0,1.93,3,1.93,3,0Z"/><path class="cls-2" d="M182.32,158.46a6.72,6.72,0,0,0,1.26-.12,4.81,4.81,0,0,0,.83-.21l-.4.06.74-.09.35-.07-.4.05h.17a1.58,1.58,0,0,0,1.06-.44,1.51,1.51,0,0,0,0-2.12,1.53,1.53,0,0,0-1.06-.44,5.62,5.62,0,0,0-1,.15l.4,0a4.36,4.36,0,0,0-1,.14,4.18,4.18,0,0,1-.68.16l.4,0h-.72a1.54,1.54,0,0,0-1.06.44,1.5,1.5,0,0,0,0,2.12,1.59,1.59,0,0,0,1.06.44Z"/><path class="cls-2" d="M183.21,158.27a27.59,27.59,0,0,0,3.13-.29c1-.08,2-.1,3-.1a16.66,16.66,0,0,1,5.91.71c.91.35,1.89.73,2.78,1.13a18.25,18.25,0,0,1,2.56,1.73c.94.63,1.76,1.34,2.66,2a9.59,9.59,0,0,1,1.37,1.18c.15.17.29.37.45.54s.41.56.38.38c.32,1.9,3.21,1.1,2.9-.79-.17-1-1.31-2-2-2.67a27.85,27.85,0,0,0-3.19-2.55c-1-.7-2.06-1.39-3.08-2.1A22,22,0,0,0,197,156.1a15.33,15.33,0,0,0-6.44-1.26,29.31,29.31,0,0,0-3.75.06,27.53,27.53,0,0,1-3.62.34c-1.94-.06-1.93,2.94,0,3Z"/><path class="cls-2" d="M208.3,163.94a6.71,6.71,0,0,0-1.24-1.2c-.58-.48-1-1.15-1.54-1.64s-1.12-.84-1.63-1.3a6.21,6.21,0,0,0-1.49-1.17,22.08,22.08,0,0,0-3.68-1.74c-1.41-.39-3-.49-4.32-1l-.4,3a15.76,15.76,0,0,1,3.56.9c1.68.52,2.53-1.84,1.16-2.74-3.05-2-7.38-2-10.93-1.94-2.24,0-4.47.06-6.7.28a52.4,52.4,0,0,0-6.49.86,45,45,0,0,0-5,1.22c-1.65.59-3.32.89-4.44,2.41a4.64,4.64,0,0,0-.49,1c0,.09-.64.92-.32.46a3,3,0,0,0-.56,2.49,4,4,0,0,0,1,2.29c.65.63,1.43,1.1,2.09,1.74,1.54,1.53,3.3,2.76,5,4.15a26.9,26.9,0,0,1,2.59,2.64,10.21,10.21,0,0,0,2.5,1.87c1.65,1,3.16-1.58,1.52-2.59a9.35,9.35,0,0,1-1.68-1.17c-.55-.53-1-1.16-1.55-1.71a43,43,0,0,0-3.39-2.8c-1.06-.89-2.18-1.89-3.17-2.89a13.55,13.55,0,0,0-1.42-1.21c-.58-.42-.56-.91-.54-1.62l-.44,1.06a9,9,0,0,0,.87-1.16c.15-.26.25-.57.4-.84-.26.45.33-.33.34-.33a10.15,10.15,0,0,1,3.37-1.33c1.2-.4,2.56-.48,3.81-.78a37.28,37.28,0,0,1,4.72-.69,69.64,69.64,0,0,1,9.69-.43,28.23,28.23,0,0,1,4,.3c.62.1,1.24.24,1.86.34a4.56,4.56,0,0,1,1.87.89l1.16-2.75a19.28,19.28,0,0,0-4.36-1c-1.78-.13-1.89,2.4-.4,2.95,1.19.43,2.57.54,3.8.85a18.4,18.4,0,0,1,3.3,1.48c.08,0,.79.4.6.26s.29.39.36.46a17.86,17.86,0,0,0,1.43,1.14,13.46,13.46,0,0,1,1.5,1.52c.31.34.87.59,1.12.94,1.14,1.54,3.74,0,2.59-1.51Z"/><path class="cls-2" d="M154.54,170.18a4.7,4.7,0,0,1,0-.75l0,.4a1.63,1.63,0,0,1,.07-.3c0-.1.06-.42.09-.63l-.06.4a1.37,1.37,0,0,1,.07-.29l-.15.35.1-.17-.24.3c.12-.13.26-.25.39-.38a3.5,3.5,0,0,1,.39-.38l-.3.24a2.55,2.55,0,0,1,.63-.39l-.35.15a3,3,0,0,1,.45-.13,5.78,5.78,0,0,0,.75-.29l-.36.15a.88.88,0,0,1,.23-.07l-.4.05H156l-.4-.05h.13l-.36-.15a3.94,3.94,0,0,0,.94.41,1.22,1.22,0,0,0,.6,0,1,1,0,0,0,.56-.17,1.5,1.5,0,0,0,.53-2.06,1.42,1.42,0,0,0-.89-.68l-.18-.05.36.15a6.85,6.85,0,0,0-.87-.4,1.89,1.89,0,0,0-1,0,4.15,4.15,0,0,0-.69.28l.36-.15a3.9,3.9,0,0,1-.46.12,2.71,2.71,0,0,0-.68.28,4.53,4.53,0,0,0-1,.68c-.22.2-.45.43-.65.65a2.27,2.27,0,0,0-.5.88,4.81,4.81,0,0,0-.12.76l.06-.4a7.08,7.08,0,0,0-.16.92v.65a1.5,1.5,0,0,0,3,0Z"/><polyline class="cls-4" points="160.34 190.31 163.5 198.89 165.31 204.33 167.29 210.9 176.46 214.72 174.59 218.54 171.77 221.64 171.42 225.59"/><path class="cls-2" d="M149.76,179.58a2,2,0,0,0,.1.32,1.5,1.5,0,0,0,2.94-.4c0,.27-.06.33,0,.18s0-.09,0-.14a2.56,2.56,0,0,0,.07-.62,1.5,1.5,0,1,0-3,0,4.92,4.92,0,0,0,.09.76v.17c-.09-.4,0-.16,0,0a1.5,1.5,0,0,0,3,0v-.19c0-.27-.08.22,0,.08a1.89,1.89,0,0,0,.12-.67,1.5,1.5,0,0,0-3,0,3.4,3.4,0,0,0,.07,1.31,1.51,1.51,0,0,0,2.74.36c.08-.15.12-.32.2-.46s-.2.36,0,.13l-2.74-.36v1a1.51,1.51,0,0,0,3,.4c.07-.49.26,0-.5.51l-2.21-.89c-.07-.36,0-.23,0-.1v.24a4,4,0,0,0,.13.77c.06.32.09.64.18,1s.16.6.23.9l.06.22v-.13c0-.06.07-.34,0-.14l-.06.25a1.67,1.67,0,0,0,.15,1.16,1.5,1.5,0,0,0,2.74-.36,4.56,4.56,0,0,1,.13-.62,2.38,2.38,0,0,0-.06-.92c-.08-.33-.17-.65-.25-1s-.15-.69-.21-1a.43.43,0,0,0,0-.25c-.06-.29,0,0,0,.07v-.27a5.58,5.58,0,0,0-.08-.57,1.53,1.53,0,0,0-1.89-1,1.3,1.3,0,0,0-.32.14,1.93,1.93,0,0,0-.87,1.28l2.94.4a5.77,5.77,0,0,0-.06-1.76,1.51,1.51,0,0,0-2.74-.36,1.77,1.77,0,0,0-.15.31l-.09.21c0,.11,0,0,.08-.19l2.74.36c-.07-.22,0,.41,0,.14v-.65h-3c0-.06.08-.35,0-.16a1.05,1.05,0,0,0-.08.35,5.81,5.81,0,0,0,0,.59h3c0-.26-.05-.51-.09-.76V179c.1.4,0,.18,0,0h-3c0,.27.09-.41,0,0a2.16,2.16,0,0,0-.09.62l3-.4-.1-.31a1.5,1.5,0,0,0-2.89.79Z"/><path class="cls-2" d="M149.76,178.86c0,.08.09.16.13.24-.07-.16-.08-.16,0,0l.08.24h0a.81.81,0,0,0,0,.22,1,1,0,0,0,.08.49,2.6,2.6,0,0,0,.3.63l.3.38a.7.7,0,0,0,.14.16.92.92,0,0,1-.18-.3v.24c0-.46.06.62,0,.54s.12.46.07.23,0,.26,0,.31a5.34,5.34,0,0,0,.13.8c.08.35.19.7.28,1s.21.72.32,1.08a2.18,2.18,0,0,0,.11.44c0,.14,0,.14,0-.08v.24a1.5,1.5,0,0,0,3,0,9.2,9.2,0,0,0-.49-2.27l-.3-1.13-.06-.26h0a6,6,0,0,0-.09-.84V181c-.05-.16,0,.24,0,0a4.17,4.17,0,0,0-.1-.79,2.36,2.36,0,0,0-.24-.69c0-.06-.37-.61-.46-.59l.1.14,0-.08v-.09l.11.46c.1-.13,0-.6-.07-.74a4.78,4.78,0,0,0-.52-1.33,1.51,1.51,0,0,0-2-.54,1.53,1.53,0,0,0-.54,2.05Z"/><path class="cls-2" d="M166.91,210.56a7.71,7.71,0,0,0,.4,2.12c.18.51.16,1,.29,1.57s.36,1.11.48,1.69.35,1.46.51,2.2a23.23,23.23,0,0,0,1.39,4.2,18.4,18.4,0,0,1,.65,1.94c.1.34.2.67.29,1a2,2,0,0,0,.11.4c.11.23,0,.44.08-.17l.39-.66-.06.08.66-.39H172c-1.88.44-1.08,3.33.8,2.89s1.12-2.69.75-4a21.47,21.47,0,0,0-.88-2.48,14.57,14.57,0,0,1-.77-2.22c-.41-1.46-.59-3-1.09-4.45-.1-.29-.21-.58-.29-.88a4.38,4.38,0,0,1-.15-.88c-.08-.47-.31-.85-.41-1.29v-.72a1.5,1.5,0,0,0-3,0Z"/><path class="cls-2" d="M171.06,222.63a1.5,1.5,0,1,0-1.5-1.5A1.5,1.5,0,0,0,171.06,222.63Z"/><path class="cls-2" d="M171,222.58a1.5,1.5,0,1,0-1.5-1.5A1.5,1.5,0,0,0,171,222.58Z"/><path class="cls-2" d="M171,222.53a1.5,1.5,0,1,0-1.5-1.5A1.5,1.5,0,0,0,171,222.53Z"/><path class="cls-2" d="M170.91,222.29a1.5,1.5,0,1,0-1.5-1.5A1.5,1.5,0,0,0,170.91,222.29Z"/><path class="cls-2" d="M170.86,222.14a1.5,1.5,0,1,0-1.5-1.5A1.5,1.5,0,0,0,170.86,222.14Z"/><path class="cls-2" d="M169.57,221.55l.05.09a1,1,0,0,0,.38.42,1.05,1.05,0,0,0,.51.27,1.67,1.67,0,0,0,1.16-.15l.3-.23a1.53,1.53,0,0,0,.39-.66l0-.4a1.54,1.54,0,0,0-.2-.76V220a1.31,1.31,0,0,0-.39-.42,1.15,1.15,0,0,0-.51-.27,1,1,0,0,0-.6,0,1,1,0,0,0-.55.17l-.31.24a1.51,1.51,0,0,0-.38.66l-.06.4a1.45,1.45,0,0,0,.21.76Z"/><path class="cls-2" d="M169.47,219.9a2.94,2.94,0,0,0,.09,1.94l.09.27c.1.27,0-.34,0,0h3a3.4,3.4,0,0,0-.09-.64c.1.5,0,.1,0,0a3.63,3.63,0,0,0-.38-1.25h0c-.16-.31,0-.12,0,.12v-.2c0-.34-.07-.67-.13-1a1.77,1.77,0,0,0-.08-.31c-.09-.38,0,.28,0-.05a3.27,3.27,0,0,0-.1-.71c0-.24,0,.32,0,0,0-.55-.06-1.08-.06-1.63a1.5,1.5,0,0,0-3,0,14.8,14.8,0,0,0,.06,1.63,1.55,1.55,0,0,0,.08.6,3,3,0,0,1,.06.42V219l.05.4a.61.61,0,0,0,.08.37c.08.12,0,.12.05.18s0,.12,0,0h0v.19a4.82,4.82,0,0,0,.14,1,3.66,3.66,0,0,0,.27.61,1.3,1.3,0,0,0,.08.17l-.09-.18v.09c0-.1.09,1,0,.32a1.5,1.5,0,0,0,3,0,5.2,5.2,0,0,0-.27-1.23v-.16c-.08-.25,0,.27,0,.12v0a.33.33,0,0,1,0-.14,1.5,1.5,0,0,0-2.87-.89.29.29,0,0,0,0,.09Z"/><path class="cls-2" d="M150.26,179.46l.06.07-.38-.66a1.7,1.7,0,0,0,.52.93l-.39-.66v.07a1.52,1.52,0,0,0,1.88,1,1.92,1.92,0,0,0,.33-.14h0l-2-.53q-.21-.91-.15-.51a1.62,1.62,0,0,0,.07.44,2,2,0,0,0,.16.51c0,.17.08.26.11.4s.26.88.16.45c.16.66.37,1.3.55,2a3.58,3.58,0,0,0,.14.54h0a2.22,2.22,0,0,0,.06.51h0a6,6,0,0,1,.12.85v.37a2,2,0,0,0,.05.48,5.81,5.81,0,0,1,.11.89v.06a.38.38,0,0,1,.1-.2,1.5,1.5,0,1,0,2.53,1.6l.06-.09a2.9,2.9,0,0,0,.3-1.78v-.16h0v-.33l-.06-.63a6,6,0,0,0-.12-.94V184a1.44,1.44,0,0,0-.07-.54s-.06-.22,0-.22,0,.34,0,.08a7.58,7.58,0,0,0-.18-1c-.19-.75-.39-1.51-.63-2.25,0-.17-.17-.32-.2-.48,0,.11.06.17,0,0a2.39,2.39,0,0,0-.15-.54,1.32,1.32,0,0,0-.1-.3c-.11-.21,0,.33,0,.18a2,2,0,0,0-.25-.9,1.54,1.54,0,0,0-2-.54h0l2.21.9a1.94,1.94,0,0,0-.17-.42q-.51-.69,0,.15c.08-.21-.35-.66-.47-.8a1.51,1.51,0,0,0-2.12,0,1.53,1.53,0,0,0,0,2.12Z"/><path class="cls-2" d="M154.58,169c.09-.16.06-.06,0,0l.21-.18a1.61,1.61,0,0,0,.22-.23h0c-.06.06-.07,0,.1-.08l.19-.15h0a.31.31,0,0,1,.13-.06c.11-.06.52-.26.48-.33l-.73.29.4,0h.22a2.72,2.72,0,0,0,.64,0q.18,0-.15-.06t-.15,0a.83.83,0,0,0,.22.14l.5.37a8.69,8.69,0,0,0,.88.55s.33.2.18.1.09.08.11.09l.63.49a22.84,22.84,0,0,0,2.29,1.42,1.49,1.49,0,0,0,1.46-2.59l-1.32-.79-.65-.41-.32-.22c-.16-.11.15.12-.07-.06a11.2,11.2,0,0,0-1.29-.87c-.37-.25-.72-.54-1.1-.77a3.61,3.61,0,0,0-1.76-.4,3.24,3.24,0,0,0-.88,0h0a1.49,1.49,0,0,0-.66.15c-.22.09-.36.27-.57.36.28-.12,0,0-.08,0a1.83,1.83,0,0,0-.45.32c-.27.22.38-.29-.1.08a5,5,0,0,0-1.17,1.25,1.51,1.51,0,0,0,.54,2,1.54,1.54,0,0,0,2.06-.53Z"/><path class="cls-2" d="M158.11,169.42a5.68,5.68,0,0,0,1.34.5l-.36-.15a3.46,3.46,0,0,1,.47.31l-.3-.24a1.49,1.49,0,0,0,.27.23,2.11,2.11,0,0,0,.64.31l-.36-.15a5.84,5.84,0,0,1,.53.33,5.58,5.58,0,0,1,.52.32l-.3-.23a5.18,5.18,0,0,1,.4.41l-.24-.3c.18.24.35.48.55.71a2.21,2.21,0,0,0,.38.43,1.62,1.62,0,0,0,1.11.46,1.5,1.5,0,0,0,1.06-2.56,2.14,2.14,0,0,0-.69-.51,3.62,3.62,0,0,1-.48-.25l.3.23h0a1.63,1.63,0,0,0-1.06-.44,1.5,1.5,0,0,0-1.54,1.46,1.47,1.47,0,0,0,.41,1.07,4,4,0,0,0,.68.45,2.91,2.91,0,0,1,.42.23l-.3-.23.11.11,2.12-2.12a3.57,3.57,0,0,1-.48-.55l.23.31a4.7,4.7,0,0,0-1.24-1.31,5.74,5.74,0,0,0-1.44-.78l.66.39a4.31,4.31,0,0,0-1.26-.81c-.27-.1-.55-.17-.82-.27l.36.15-.16-.08a1.52,1.52,0,0,0-1.16-.15,1.44,1.44,0,0,0-.89.69,1.53,1.53,0,0,0,.54,2.05Z"/><path class="cls-2" d="M160.53,170.41h0l-.4-.06h.15l-.36-.15a2.48,2.48,0,0,1,.4.26,2.71,2.71,0,0,0,.73.34l-.36-.15h.08l-.3-.24.33.3a6,6,0,0,0,.62.48l-.31-.23c.47.36.86.8,1.33,1.17l-.24-1.82h0l.23-.3h0l.66-.39h.75l.35.15-.07-.05a1.51,1.51,0,0,0-2.06.54,1.52,1.52,0,0,0-.15,1.16l.15.35a1.47,1.47,0,0,0,.54.54,1.58,1.58,0,0,0,1.27.21,1.6,1.6,0,0,0,.95-.74,1.57,1.57,0,0,0,.18-.95,1.42,1.42,0,0,0-.41-.87,7.39,7.39,0,0,1-.78-.69,10.77,10.77,0,0,0-1.06-.86l.31.23c-.13-.1-.25-.21-.37-.32a2.3,2.3,0,0,0-.43-.34c-.18-.08-.37-.16-.55-.22l.36.15a4.43,4.43,0,0,1-.42-.29,2.18,2.18,0,0,0-1.13-.35,1.5,1.5,0,0,0-1.06,2.56,1.71,1.71,0,0,0,1.06.44Z"/><path class="cls-2" d="M160.67,170.65a5.41,5.41,0,0,1,.77.27l-.36-.15a1.06,1.06,0,0,1,.2.12l-.3-.24.26.25c.19.16.37.26.56.4l-.31-.23c.17.14.31.32.47.47s.56.43.86.63l-.31-.23c.13.1.25.22.38.33l.58.45-.3-.23a1.07,1.07,0,0,1,.19.18l-.23-.3v.07l-.15-.36v.07l-.06-.39h0a1.52,1.52,0,0,0,.44,1.06,1.5,1.5,0,0,0,1.06.44,1.52,1.52,0,0,0,1.06-.44,1.5,1.5,0,0,0,.44-1.06,2.22,2.22,0,0,0-.24-.87,3,3,0,0,0-.33-.44,6.62,6.62,0,0,0-.61-.47l.31.23c-.17-.13-.31-.28-.47-.41s-.52-.37-.77-.56l.31.24a4.67,4.67,0,0,1-.45-.44,7,7,0,0,0-.69-.53l.3.24-.26-.25a2.94,2.94,0,0,0-.89-.51c-.25-.1-.49-.19-.74-.27a1.66,1.66,0,0,0-1.16.15,1.51,1.51,0,0,0-.54,2.06,1.56,1.56,0,0,0,.9.69Z"/><path class="cls-2" d="M161.24,171a9.16,9.16,0,0,1,.8.46c.21.14-.2-.19-.08-.06l.16.15.31.28a3,3,0,0,0,.57.43h0a4.89,4.89,0,0,0,.55.45s.27.17.06,0,0,0,0,.06c.21.2.38.41.58.62s.41.37.6.58.43.47.66.7.4.5.63.73a1.5,1.5,0,0,0,2.12-2.12c-.21-.22-.38-.48-.6-.7s-.47-.48-.69-.73-.42-.4-.62-.61-.41-.44-.63-.65a4.9,4.9,0,0,0-.57-.45c-.21-.14.18.18.07,0L165,170a3.57,3.57,0,0,0-.54-.42h0a6.57,6.57,0,0,0-1.72-1.2,1.67,1.67,0,0,0-1.16-.15,1.5,1.5,0,0,0-.36,2.74Z"/><path class="cls-2" d="M163.63,173c.41.35.82.7,1.21,1.07l.57.53c.15.16.33.29.46.46l-.23-.3a1.18,1.18,0,0,1,.11.19,1.18,1.18,0,0,0,.38.42,1.2,1.2,0,0,0,.51.27,1.49,1.49,0,0,0,1.84-1h0l0-.4a1.54,1.54,0,0,0-.2-.76,3,3,0,0,0-.66-.81c-.21-.18-.41-.37-.61-.56-.42-.41-.87-.8-1.32-1.18a1,1,0,0,0-.48-.31,1.17,1.17,0,0,0-.58-.13,1.5,1.5,0,0,0-1.06,2.56Z"/><path class="cls-2" d="M164.32,172.88c.19,1.08,1.19,1.35,1.86,2a33.14,33.14,0,0,1,2.37,2.51,19.63,19.63,0,0,1,1.37,2,17.74,17.74,0,0,0,2,2.49,48,48,0,0,1,3.52,5.17c.54.85,1,1.62,1.46,2.5a15.58,15.58,0,0,1,1.53,2.88l.38-1.46-.06.05,1.46-.39h-.07c-1.81-.68-2.59,2.21-.8,2.89a1.57,1.57,0,0,0,1.59-.4,1.47,1.47,0,0,0,.39-1.46,14.45,14.45,0,0,0-1.47-2.91,26.29,26.29,0,0,0-1.47-2.65c-.65-1-1.19-2-1.86-2.94s-1.18-1.57-1.73-2.39-1.42-1.54-2-2.39-1-1.53-1.5-2.29a14.86,14.86,0,0,0-2.09-2.39c-.36-.37-.7-.77-1.07-1.12a3.85,3.85,0,0,0-.7-.58l-.22-.12c-.27-.17-.27-.11,0,.17-.33-1.9-3.22-1.09-2.9.8Z"/><path class="cls-2" d="M178.5,190.47A1.5,1.5,0,1,0,177,189,1.5,1.5,0,0,0,178.5,190.47Z"/><path class="cls-2" d="M178.9,191a1.5,1.5,0,1,0-1.5-1.5A1.5,1.5,0,0,0,178.9,191Z"/><path class="cls-2" d="M179.34,191.75a1.5,1.5,0,1,0-1.5-1.5A1.5,1.5,0,0,0,179.34,191.75Z"/><path class="cls-2" d="M179.68,192.24a1.5,1.5,0,1,0-1.5-1.5A1.5,1.5,0,0,0,179.68,192.24Z"/><path class="cls-2" d="M180.12,192.92a1.5,1.5,0,1,0-1.5-1.5A1.5,1.5,0,0,0,180.12,192.92Z"/><path class="cls-2" d="M171.6,180.49a1.5,1.5,0,1,0-1.5-1.5A1.5,1.5,0,0,0,171.6,180.49Z"/><path class="cls-2" d="M171.25,180.05a1.5,1.5,0,1,0-1.5-1.5A1.5,1.5,0,0,0,171.25,180.05Z"/><path class="cls-2" d="M171,179.8a1.5,1.5,0,1,0-1.5-1.5A1.5,1.5,0,0,0,171,179.8Z"/><path class="cls-2" d="M170.81,179.56a1.5,1.5,0,1,0-1.5-1.5A1.5,1.5,0,0,0,170.81,179.56Z"/><path class="cls-2" d="M171.84,180.83a1.5,1.5,0,1,0-1.5-1.5A1.5,1.5,0,0,0,171.84,180.83Z"/><path class="cls-2" d="M172.68,181.86a1.5,1.5,0,1,0-1.5-1.5A1.5,1.5,0,0,0,172.68,181.86Z"/><path class="cls-2" d="M172.23,181.42a1.5,1.5,0,1,0-1.5-1.5A1.5,1.5,0,0,0,172.23,181.42Z"/><path class="cls-2" d="M172.23,181.36a1.5,1.5,0,1,0-1.5-1.5A1.5,1.5,0,0,0,172.23,181.36Z"/><path class="cls-2" d="M166.06,174.22a1.5,1.5,0,1,0-1.5-1.5A1.5,1.5,0,0,0,166.06,174.22Z"/><path class="cls-2" d="M165.62,173.88a1.5,1.5,0,1,0-1.5-1.5A1.5,1.5,0,0,0,165.62,173.88Z"/><path class="cls-2" d="M165.48,173.73a1.5,1.5,0,1,0-1.5-1.5A1.5,1.5,0,0,0,165.48,173.73Z"/><path class="cls-2" d="M165.23,173.44a1.5,1.5,0,1,0-1.5-1.5A1.5,1.5,0,0,0,165.23,173.44Z"/><path class="cls-2" d="M165,173.29a1.5,1.5,0,1,0-1.5-1.5A1.5,1.5,0,0,0,165,173.29Z"/><path class="cls-2" d="M164.76,173.1a1.5,1.5,0,1,0-1.5-1.5A1.5,1.5,0,0,0,164.76,173.1Z"/><path class="cls-2" d="M164.54,173a1.5,1.5,0,1,0-1.5-1.5A1.5,1.5,0,0,0,164.54,173Z"/><path class="cls-2" d="M164.4,172.85a1.5,1.5,0,1,0-1.5-1.5A1.5,1.5,0,0,0,164.4,172.85Z"/><path class="cls-2" d="M164.15,172.71a1.5,1.5,0,1,0-1.5-1.5A1.5,1.5,0,0,0,164.15,172.71Z"/><path class="cls-2" d="M178.28,180.29c.24.27.49.55.71.84l-.23-.31.08.15-.15-.36c.13.36.28.71.44,1l-.15-.36a2.31,2.31,0,0,0,.51.9l.27.27a3.08,3.08,0,0,0,.9.74c.53.29,1.1.53,1.64.79a1.61,1.61,0,0,0,1.16.16,1.57,1.57,0,0,0,.89-.69,1.52,1.52,0,0,0,.15-1.16,1.55,1.55,0,0,0-.68-.9l-1-.5a4.68,4.68,0,0,1-.88-.48l.31.24a3.22,3.22,0,0,1-.32-.32l-.31-.32.24.3a.41.41,0,0,1-.05-.09l.15.36c-.11-.26-.23-.51-.35-.76l.15.35c-.1-.24-.16-.49-.28-.73a3.07,3.07,0,0,0-.42-.58c-.21-.23-.4-.47-.61-.71a1.5,1.5,0,0,0-2.2,2A.6.6,0,0,0,178.28,180.29Z"/><path class="cls-2" d="M179.68,181.47a1.5,1.5,0,1,0-1.5-1.5A1.5,1.5,0,0,0,179.68,181.47Z"/><path class="cls-2" d="M179.58,181.27a1.5,1.5,0,1,0-1.5-1.5A1.5,1.5,0,0,0,179.58,181.27Z"/><path class="cls-2" d="M179.48,181.22a1.5,1.5,0,1,0-1.5-1.5A1.5,1.5,0,0,0,179.48,181.22Z"/><path class="cls-2" d="M179.24,180.73a1.5,1.5,0,1,0-1.5-1.5A1.5,1.5,0,0,0,179.24,180.73Z"/><path class="cls-2" d="M179.19,180.64a1.5,1.5,0,1,0-1.5-1.5A1.5,1.5,0,0,0,179.19,180.64Z"/><path class="cls-2" d="M180.27,182.25a1.5,1.5,0,1,0-1.5-1.5A1.5,1.5,0,0,0,180.27,182.25Z"/><path class="cls-2" d="M180.12,182.15a1.5,1.5,0,1,0-1.5-1.5A1.5,1.5,0,0,0,180.12,182.15Z"/><path class="cls-2" d="M180.46,182.54A1.5,1.5,0,1,0,179,181,1.5,1.5,0,0,0,180.46,182.54Z"/><path class="cls-2" d="M180.51,182.74a1.5,1.5,0,1,0-1.5-1.5A1.5,1.5,0,0,0,180.51,182.74Z"/><path class="cls-2" d="M180.19,182.84a.5.5,0,0,0,0-1,.5.5,0,0,0,0,1Z"/><path class="cls-2" d="M180.05,182.74a.5.5,0,0,0,0-1,.5.5,0,0,0,0,1Z"/><path class="cls-2" d="M180.24,183.09a.5.5,0,0,0,0-1,.5.5,0,0,0,0,1Z"/><path class="cls-2" d="M180.1,182.82a.5.5,0,0,0,0-1,.5.5,0,1,0,0,1Z"/><path class="cls-2" d="M180.46,183.43a.5.5,0,0,0,0-1,.5.5,0,1,0,0,1Z"/><path class="cls-2" d="M180.68,183.72a.5.5,0,0,0,0-1,.5.5,0,0,0,0,1Z"/><path class="cls-2" d="M180.9,184.09a.5.5,0,0,0,0-1,.5.5,0,0,0,0,1Z"/><path class="cls-2" d="M180.63,183.67a.5.5,0,0,0,0-1,.5.5,0,0,0,0,1Z"/><path class="cls-2" d="M181.07,184.36a.5.5,0,0,0,0-1,.5.5,0,0,0,0,1Z"/><path class="cls-2" d="M181.27,184.63a.5.5,0,0,0,0-1,.5.5,0,1,0,0,1Z"/><path class="cls-2" d="M181.49,184.9a.5.5,0,0,0,0-1,.5.5,0,0,0,0,1Z"/><path class="cls-2" d="M181.44,184.92a.5.5,0,0,0,0-1,.5.5,0,0,0,0,1Z"/><path class="cls-2" d="M181.76,185.29a.5.5,0,0,0,0-1,.5.5,0,0,0,0,1Z"/><path class="cls-2" d="M181.81,185.36a.5.5,0,0,0,0-1,.5.5,0,0,0,0,1Z"/><path class="cls-2" d="M181.69,185.29a.5.5,0,0,0,0-1,.5.5,0,0,0,0,1Z"/><path class="cls-2" d="M181.64,185.19a.5.5,0,0,0,0-1,.5.5,0,0,0,0,1Z"/><path class="cls-2" d="M181.43,185.19c.29.49.52,1,.84,1.49s.66.92.94,1.4.64,1.23,1,1.8,1,1.31,1.41,2a18.18,18.18,0,0,1,1,1.71,13,13,0,0,0,.79,1.75c.42.74.86,1.46,1.29,2.18s.64,1.34,1,1.94a.5.5,0,0,0,.67.21.51.51,0,0,0,.25-.59c-.29-.86-.63-1.71-1-2.54s-.55-1.65-.92-2.44a9.62,9.62,0,0,0-1.13-2c-.57-.72-1.06-1.47-1.56-2.23-.35-.54-1.22,0-.87.51s.89,1.36,1.39,2a12.2,12.2,0,0,1,.73,1,8,8,0,0,1,.5,1.07c.36.8.64,1.64.93,2.47a23.4,23.4,0,0,1,1,2.43l.92-.38c-.38-.57-.62-1.26-1-1.86s-.88-1.43-1.29-2.16a17.76,17.76,0,0,1-.88-1.94c-.26-.57-.65-1.07-.95-1.62a21.56,21.56,0,0,0-1.34-1.94,16,16,0,0,1-1-1.81,14.72,14.72,0,0,0-.94-1.43,15.53,15.53,0,0,1-.9-1.55.49.49,0,0,0-.69-.16.49.49,0,0,0-.17.67Z"/><path class="cls-2" d="M184.81,190.74c.11.17.27.29.38.46l.56-.73h-.08a.52.52,0,0,0-.62.35.66.66,0,0,0,0,.14v0l.93-.25a1.53,1.53,0,0,1-.21-.4.73.73,0,0,0-.29-.43.51.51,0,0,0-.61.08.57.57,0,0,0,0,.82l0,0-.13-.22a.92.92,0,0,0,.24.43l-.13-.22a3,3,0,0,0,.28.44c0,.09.06.21.12.31a4.29,4.29,0,0,1,.42.68c.1.28.26.51.38.77s.24.54.37.81a8.27,8.27,0,0,0,1,1.56,4.26,4.26,0,0,1,.5.75,1.84,1.84,0,0,0,.31.7c.44.47,1.15-.24.71-.71.06.07,0,.1,0,0V196c-.05-.14-.11-.28-.17-.41a8.13,8.13,0,0,0-.59-.82,6.91,6.91,0,0,1-1-1.56l-.32-.72c-.07-.14-.18-.25-.24-.39s-.07-.21-.12-.31a2.38,2.38,0,0,0-.2-.39l-.14-.19s-.11-.15-.07-.08a4,4,0,0,0-.23-.46c-.08-.12-.17-.24-.26-.35l.13.22a1.56,1.56,0,0,0-.26-.45l.14.35h0l-.14.35h0l-.61.08h0l-.18-.18c0-.06,0,.16.06.19a2.65,2.65,0,0,0,.23.39c.25.38,1,.27.94-.26v0l-.63.48h.08c.41.16.79-.39.56-.73l-.15-.23c-.07-.09-.17-.15-.23-.23-.37-.52-1.24,0-.86.5Z"/><path class="cls-2" d="M187.65,195.68a.77.77,0,0,0,.12.36l.17.21-.08-.1.24.32-.08-.1a2.39,2.39,0,0,1,.13.21l-.06-.12.12.27.09.18v-.12c0,.12.09.25.13.38a.86.86,0,0,0,.16.38.49.49,0,0,0,.68.18.5.5,0,0,0,.19-.68c-.05-.1-.12-.18-.17-.28l.05.12c-.05-.12-.1-.24-.16-.36v.12a.81.81,0,0,0-.15-.33,1,1,0,0,1-.12-.23v.12c-.06-.14-.13-.28-.2-.42l0,.12v-.1l-.35.62h-.25l-.12-.05h0l-.1-.08.06.07a.5.5,0,0,0,.71,0,.51.51,0,0,0,0-.71.56.56,0,0,0-.59-.21.47.47,0,0,0-.3.23.53.53,0,0,0,0,.39,3.82,3.82,0,0,0,.21.46v-.12a1.73,1.73,0,0,0,.14.31l.12.2,0-.12c0,.15.13.29.19.43l-.05-.12a1.69,1.69,0,0,0,.12.28.56.56,0,0,1,.1.15l.87-.5a.51.51,0,0,1-.09-.16l.05.12a.54.54,0,0,1,0-.18c0-.07-.05-.14-.07-.2a.68.68,0,0,0-.12-.28l-.09-.17,0,.12-.15-.33a1.54,1.54,0,0,0-.21-.29l.08.1-.26-.34.08.1a.11.11,0,0,1,0-.08v.22a.5.5,0,0,0-.14-.35.51.51,0,0,0-.36-.15.5.5,0,0,0-.5.5Z"/><path class="cls-2" d="M188.53,197.42a.69.69,0,0,0,.2.45l.07.07h0v-.05h0l.14.24.08.13h0v.13a.79.79,0,0,0,.14.23l.07.13h0a.06.06,0,0,0,0,.06,1.52,1.52,0,0,0,.09.28l.05.12v-.07h0l.06.16h0v-.13h0l.86-.35a.64.64,0,0,1,.08.14.51.51,0,0,0-.62-.35h0a.49.49,0,0,0-.35.61,1,1,0,0,0,.18.31.59.59,0,0,0,.22.12.58.58,0,0,0,.32,0,.5.5,0,0,0,.31-.46,1.09,1.09,0,0,0-.08-.31c0-.08,0,.11,0,0s-.07-.13-.06-.16,0,.1,0,0v-.13a3.65,3.65,0,0,0-.14-.35L190,198v-.05h0c0-.08-.07-.15-.1-.22s-.1-.16-.14-.24a1.69,1.69,0,0,0-.21-.31l-.07-.06h0a.24.24,0,0,1,.07.12v.13h0a.48.48,0,0,0-.46-.5h0a.5.5,0,0,0-.5.5Z"/><path class="cls-2" d="M188.76,198.06a.26.26,0,0,1,.07.1.94.94,0,0,0,.1.31,2.54,2.54,0,0,0,.32.55c.23.35.24.81.46,1.16s.44.76.7,1.12.64.69.92,1.07a.51.51,0,0,0,.68.18.49.49,0,0,0,.18-.68h0c-.28-.37-.65-.68-.92-1.07a7.9,7.9,0,0,1-.71-1.13,3.69,3.69,0,0,1-.19-.56,3,3,0,0,0-.31-.65,1.35,1.35,0,0,1-.24-.46,1.35,1.35,0,0,0-.35-.63c-.47-.44-1.18.27-.71.7Z"/><path class="cls-2" d="M189.76,199.36a.5.5,0,0,0,0-1,.5.5,0,0,0,0,1Z"/><path class="cls-2" d="M189.65,199.21a.5.5,0,0,0,0-1,.5.5,0,0,0,0,1Z"/><path class="cls-2" d="M189.84,199.61a.5.5,0,1,0,0-1,.5.5,0,0,0,0,1Z"/><path class="cls-2" d="M181.27,191.87a.5.5,0,0,0,0-1,.5.5,0,1,0,0,1Z"/><path class="cls-2" d="M181.44,192.24a.5.5,0,0,0,0-1,.5.5,0,0,0,0,1Z"/><path class="cls-2" d="M181.54,192.44a.5.5,0,1,0,0-1,.5.5,0,0,0,0,1Z"/><path class="cls-2" d="M181.76,192.66a.5.5,0,0,0,0-1,.5.5,0,0,0,0,1Z"/><path class="cls-2" d="M178.15,187.61h0v-.12a.75.75,0,0,0,.17.3,1.33,1.33,0,0,0,.19.14l-.1-.08h0l-.08-.1a1.35,1.35,0,0,1,.15.26.37.37,0,0,0,.07.14,1.12,1.12,0,0,0,.16.22l-.08-.1v.06l0-.12a.21.21,0,0,0,0,.11.11.11,0,0,0,0,.08l.08.1h0a.61.61,0,0,0,.22.13.47.47,0,0,0,.33,0,.52.52,0,0,0,.31-.45,1,1,0,0,0-.1-.38.81.81,0,0,0-.26-.26l.1.08h0l.08.1h0v.12a.33.33,0,0,1,0-.14,1.86,1.86,0,0,0-.1-.25l0,.12v.06h0a.61.61,0,0,0,0-.19.46.46,0,0,0-.11-.16.49.49,0,0,0-.35-.15.49.49,0,0,0-.35.15.44.44,0,0,0-.15.35.74.74,0,0,0,0,.21,1.67,1.67,0,0,0,.08.2v.07a.66.66,0,0,0,.16.28l.16.12,0-.15h0l-.08-.11h0v-.13l.85-.36h0l.08.1h0l0,.12a.85.85,0,0,0-.09-.22l-.15-.19.07.1a.2.2,0,0,0-.08-.16l-.07-.15-.09-.14A.73.73,0,0,0,179,187H179l.1.08h0l.07.1h0l.05.12a1,1,0,0,0-.08-.18.57.57,0,0,0-.3-.23.53.53,0,0,0-.39,0,.5.5,0,0,0-.23.3.5.5,0,0,0,.06.38Z"/><path class="cls-2" d="M190.27,201l.09.09-.08-.1a1.18,1.18,0,0,1,.11.19v-.12l.08.18v-.08h0a.34.34,0,0,0,0,.2.36.36,0,0,0,.11.16.29.29,0,0,0,.16.1.31.31,0,0,0,.19,0,.5.5,0,0,0,.35-.14l.08-.1a.48.48,0,0,0,.07-.26h0v-.29l-.09-.2,0,.12a2.44,2.44,0,0,0-.14-.28l-.13-.17-.06-.06a.39.39,0,0,0-.16-.1.34.34,0,0,0-.19,0,.35.35,0,0,0-.2,0,.34.34,0,0,0-.16.1.43.43,0,0,0-.14.35v.13a.59.59,0,0,0,.13.23Z"/><path class="cls-2" d="M205.54,259.66a.5.5,0,1,0,0-1,.5.5,0,0,0,0,1Z"/><path class="cls-2" d="M206.52,260.05a11.22,11.22,0,0,0,1.64,0,12.84,12.84,0,0,1,1.74-.38v-1c-1.49,0-3,.34-4.46.39a.5.5,0,0,0,0,1c.6,0,1.23.05,1.83,0,.23,0,.91-.28,1.06-.21V259a4.07,4.07,0,0,1-.67.16.5.5,0,1,0,0,1,4.05,4.05,0,0,0,1.1,0,13,13,0,0,0,1.39-.11,11.42,11.42,0,0,0,2.63-.67,8.11,8.11,0,0,0,2.25-1.24c.72-.66,1.55-1.19,2.31-1.8a63,63,0,0,0,8.35-8.46c1.45-1.68,2.86-3.39,4.3-5.09.41-.49-.29-1.2-.71-.71-3.06,3.63-6.06,7.34-9.45,10.67-.86.85-1.75,1.67-2.66,2.45s-1.86,1.33-2.7,2.09a6,6,0,0,1-1.51.86,7.64,7.64,0,0,1-1.45.6c-.61.15-1.24.28-1.86.37a8.34,8.34,0,0,1-1,0,2.67,2.67,0,0,1-.74.08v1a3.2,3.2,0,0,0,.9-.26.51.51,0,0,0,.17-.69.46.46,0,0,0-.17-.17,2,2,0,0,0-1.28,0,10.64,10.64,0,0,1-2.11.07v1c1.49-.05,3-.36,4.46-.39a.5.5,0,0,0,0-1,7.12,7.12,0,0,0-1.65.34,6.7,6.7,0,0,1-1.73.05.5.5,0,0,0,0,1Z"/><path d="M22.68,142.36c-.17.57-.48,1.27-.71,1.82-.62,1.44,1.08,3.17,2.35,1.82.49-.52.87-1.11,1.35-1.62l-2.12-2.13a23.14,23.14,0,0,0-3.66,6.21c-.49,1.11-1,2.22-1.4,3.37a13.63,13.63,0,0,0-1.09,3.53h3v-.29c0-2-2.8-1.88-3,0a16.55,16.55,0,0,1-.64,2.29c-.19.77-.33,1.53-.47,2.3a21.2,21.2,0,0,0-.49,3.46,34.25,34.25,0,0,0,.3,5.54,7.24,7.24,0,0,0,2.23,4.42c1.35,1.39,3.47-.73,2.13-2.12a4.45,4.45,0,0,1-1.24-1.73,13.56,13.56,0,0,1-.41-2.69,15.06,15.06,0,0,1,.11-4.24c.18-1,.25-2,.47-3a37.88,37.88,0,0,0,1-4.21h-3v.27c0,1.95,2.86,1.9,3,0a10.65,10.65,0,0,1,1-2.73c.38-1,.83-2,1.28-3a19.26,19.26,0,0,1,3-5.22c1.27-1.44-.82-3.56-2.12-2.13-.48.53-.87,1.11-1.35,1.62l2.36,1.82a26.24,26.24,0,0,0,1-2.54c.56-1.85-2.34-2.64-2.89-.79Z"/><path d="M75.32,130.49a7.41,7.41,0,0,0-1.49.08c-.5.09-1,0-1.48.07a11.43,11.43,0,0,1-1.65.11c-.59,0-1.15.12-1.73.13s-1.11.14-1.68.13H65.4a9.81,9.81,0,0,0-1.63.2,8.74,8.74,0,0,1-1.77.06.5.5,0,0,0,0,1,11.09,11.09,0,0,0,1.63,0A13,13,0,0,1,65.4,132h1.89c.63,0,1.11-.11,1.68-.13s1.15-.14,1.73-.13a10.34,10.34,0,0,0,1.57-.09c.5-.08,1,0,1.5,0a8,8,0,0,1,1.55-.12.5.5,0,0,0,0-1Z"/><path d="M75.46,130.75c-.33,0-.63.12-1,.14s-.78,0-1.16,0c-.62,0-1.21.17-1.83.14s-1.48,0-2.22,0-1.61.27-2.43.27a30.61,30.61,0,0,0-4.49.19c-.66.1-1.32,0-2,.09l-2,.26c-.63.09-.36,1.06.27,1s1.38-.21,2.06-.25a17,17,0,0,0,1.88-.1,40.44,40.44,0,0,1,4.54-.16c.74,0,1.46-.25,2.2-.27s1.48,0,2.22,0,1.21-.13,1.83-.14h1.07c.36,0,.68-.12,1-.13a.5.5,0,0,0,0-1Z"/><path d="M53.76,132.45H52.59a5.68,5.68,0,0,0-1.17.15.49.49,0,0,0-.35.61.52.52,0,0,0,.62.35h.4a2.26,2.26,0,0,1,.52,0h1.15a.5.5,0,0,0,.5-.5.51.51,0,0,0-.5-.5Z"/><path d="M53.38,132.45a6.37,6.37,0,0,0-.74.13c-.25,0-.65,0-1,0-.59.08-1.19.16-1.78.27-1.3.24-2.6.36-3.92.54s-2.69.44-4,.65c-.56.09-1.11.19-1.67.27a3.28,3.28,0,0,0-1.37.39c-.54.35,0,1.22.51.87a3,3,0,0,1,1.27-.32l1.64-.26c1.34-.21,2.7-.53,4-.65a33.41,33.41,0,0,0,3.44-.46c.6-.11,1.2-.18,1.8-.28a8.27,8.27,0,0,1,1,0c.27,0,.5-.11.76-.13.64-.07.64-1.07,0-1Z"/><path d="M23.76,136.51a8.59,8.59,0,0,0,1,.52,8.65,8.65,0,0,0,1.14.29,6.12,6.12,0,0,0,1.21,0,11.67,11.67,0,0,0,3.54,0A16.8,16.8,0,0,0,33,137l-.26-1c-1.06.43-2.1.19-3.19.36a9.93,9.93,0,0,1-3.52-.27,8.11,8.11,0,0,1-1.67-.6,6.11,6.11,0,0,1-1.33-.78,18.68,18.68,0,0,1-2.31-2.56c-.4-.5-1.11.21-.7.71a15.83,15.83,0,0,0,2.51,2.73,9.29,9.29,0,0,0,3.25,1.55,12.16,12.16,0,0,0,1.71.26,8.06,8.06,0,0,0,1.84.09A17.49,17.49,0,0,0,33,137c.58-.24.35-1.18-.26-1a12.11,12.11,0,0,1-2.15.31,7.65,7.65,0,0,1-.94.15H28.54c-.7,0-1.4-.07-2.09-.11a5.53,5.53,0,0,1-2.17-.73c-.58-.28-1.09.58-.51.86Z"/><path d="M97,164.23a1.24,1.24,0,0,1,.28-.28l.09-.06.17-.09h.08l.17-.07.39-.12.81-.3.45-.14.22,0h.14l-.14-1a1.2,1.2,0,0,0-.45.19A.52.52,0,0,0,99,163a.49.49,0,0,0,.68.18.38.38,0,0,1,.13-.09h.08a.51.51,0,0,0,.43-.57.5.5,0,0,0-.56-.43,7.26,7.26,0,0,0-2,.56,3.08,3.08,0,0,0-1.59.91.5.5,0,0,0,0,.7.48.48,0,0,0,.7,0h0Z"/><path d="M97.76,163.92a1.2,1.2,0,0,0,.42-.57v-.11h0a2.83,2.83,0,0,0,.56-.09l.8-.2.78-.16a3.37,3.37,0,0,1,.78-.15h.74a1.63,1.63,0,0,0,.37-.08h.14l-.1-.79a.74.74,0,0,1-.24.11c-.63.14-.37,1.1.26,1a1.85,1.85,0,0,0,.69-.37.52.52,0,0,0,0-.72l-.09-.07a1.12,1.12,0,0,0-.84-.06,2,2,0,0,1-.68.09,8.38,8.38,0,0,0-1.87.29l-.85.21c-.22.05-.44.08-.66.11a1,1,0,0,0-.57.3.89.89,0,0,0-.2.37v.11h0a.49.49,0,0,0-.18.68.48.48,0,0,0,.66.19h0Z"/><path d="M97.23,164.1a1.25,1.25,0,0,1,.36-.28,3.21,3.21,0,0,0,.48-.34,1.85,1.85,0,0,1,.85-.36c.38-.08.78-.12,1.16-.21a6.72,6.72,0,0,1,1.1-.1.5.5,0,0,0,0-1,7.4,7.4,0,0,0-1.33.13c-.42.09-.84.13-1.26.23a2.66,2.66,0,0,0-1.13.52,5.4,5.4,0,0,0-.94.71.5.5,0,0,0,0,.7.48.48,0,0,0,.7,0Z"/><path d="M97.9,163.75v.08h0l0-.07h0l.26-.25.12-.1h0l.06,0h.08a.66.66,0,0,1,.2-.06l.4-.09h.38a2.54,2.54,0,0,0,.54-.09l.22-.06h.15a.5.5,0,0,0,.5-.5.51.51,0,0,0-.5-.5,1.51,1.51,0,0,0-.6.09h-.18a1.22,1.22,0,0,0-.27,0,5,5,0,0,0-1.09.21,2.37,2.37,0,0,0-.85.54,1.28,1.28,0,0,0-.51.89.5.5,0,0,0,.5.5.52.52,0,0,0,.5-.5Z"/><path d="M98,163.58a1.89,1.89,0,0,1,.72-.33c.3-.08.61-.14.9-.24a6.07,6.07,0,0,1,1.82-.59.5.5,0,1,0,0-1,3.41,3.41,0,0,0-1.15.23c-.34.13-.67.31-1,.42s-.64.15-1,.25a2.72,2.72,0,0,0-1,.55.5.5,0,0,0,0,.71.48.48,0,0,0,.7,0Z"/><path d="M98.44,163.47a2,2,0,0,0,1.23-.65.5.5,0,0,0,0-.71.45.45,0,0,0-.21-.12,1.14,1.14,0,0,0-.73.09,1.63,1.63,0,0,0-.63.35.5.5,0,0,0,0,.71.51.51,0,0,0,.61.08c.4-.19.8-.35,1.21-.51a4.58,4.58,0,0,1,1.09-.33,6.24,6.24,0,0,0,1.22-.13,3.45,3.45,0,0,1,.46-.12h.16a.51.51,0,0,0,.71,0,.53.53,0,0,0,0-.71,1.2,1.2,0,0,0-1.21-.25l-.26.07H102l-.81.07a5.22,5.22,0,0,0-1.41.36,12.89,12.89,0,0,0-1.48.63l.61.78h0L99,163,99,163h0l.2-.07s.11,0,.07,0h-.06l-.22-.84-.3.26-.16.1h-.06a.5.5,0,0,0-.5.5.51.51,0,0,0,.5.5Z"/><path d="M71.76,180.16A13.19,13.19,0,0,1,73,178.92a16.07,16.07,0,0,1,1.3-1.31c1-.81,2-1.69,3-2.45.49-.35.88-.8,1.35-1.17a8.83,8.83,0,0,1,1.85-.84,15.89,15.89,0,0,1,1.88-.85c.72-.23,1.46-.37,2.17-.63a.52.52,0,1,0-.27-1c-.61.18-1.45.39-2.17.62a13.79,13.79,0,0,0-1.92.87,14.93,14.93,0,0,0-1.84.78c-.57.36-1,.9-1.53,1.29s-1,.72-1.51,1.15-1.06.93-1.62,1.36a14.87,14.87,0,0,0-1.38,1.37c-.44.44-.9.82-1.31,1.3s.29,1.2.71.71Z"/><path d="M46.5,156.69c0,.06.26-.08.28-.09s.3-.2.44-.31a4.58,4.58,0,0,1,.84-.53c.73-.36,1.53-.59,2.27-.92.51-.23.14-1.13-.38-.91a8.73,8.73,0,0,0-2.52,1c-.15.12-.28.27-.44.38l-.54.37a1.61,1.61,0,0,1-.48.3,1.38,1.38,0,0,0-.58.32c-.48.44.22,1.12.7.71a2.91,2.91,0,0,1,.62-.35c.2-.1.38-.22.58-.33a11.39,11.39,0,0,1,1.41-.54c.49-.18,1-.34,1.48-.51a6.39,6.39,0,0,1,1.5-.4.52.52,0,0,0,.5-.5.5.5,0,0,0-.5-.5,7.73,7.73,0,0,0-1.66.4c-.56.2-1.13.37-1.69.58a11,11,0,0,0-1.59.63,8.32,8.32,0,0,0-1.35.81l.7.71c.11-.1.3-.11.42-.17a2.63,2.63,0,0,0,.49-.33c.34-.24.68-.49,1-.76.59-.53,1.5-.53,2.21-.83l-.38-.91c-.8.36-1.68.57-2.45,1a8.72,8.72,0,0,0-.94.65,2.87,2.87,0,0,1-.4.18.9.9,0,0,0-.4.37c-.37.53.49,1,.86.5Z"/><path d="M25.08,184.54a1,1,0,0,0-.28.7,4,4,0,0,1,0,.49,2.44,2.44,0,0,0-.09.66,2.78,2.78,0,0,1-.11.5,6.47,6.47,0,0,0,0,1.32,6,6,0,0,0-.12.61v.35h0c0,.13.05.06.26-.22l.49.37v-.12a.5.5,0,1,0-1,.27v.11a.52.52,0,0,0,.48.37.72.72,0,0,0,.64-.34,1.25,1.25,0,0,0,.1-.57,3.45,3.45,0,0,1,.1-.56,3.75,3.75,0,0,0,0-.82,1.67,1.67,0,0,1,0-.63,2.61,2.61,0,0,0,.11-.68,2.8,2.8,0,0,1,.09-.58,2.16,2.16,0,0,0,0-.36v-.14h0a.53.53,0,0,0,0-.71.5.5,0,0,0-.71,0h0Z"/><path d="M25.19,185.16a9.11,9.11,0,0,1,0,1.28c-.05.39-.24.76-.27,1.16s-.1.79-.13,1.18,0,1,0,1.46c-.06.87-.1,1.71-.12,2.59a12.13,12.13,0,0,0,0,2.41c.15.81.12,1.63.23,2.45s.2,1.58.35,2.36.4,1.77.6,2.66.39,1.69.62,2.51l.74-.57-.12-.09c-.51-.39-1,.48-.5.87l.11.09c.36.27.85-.18.74-.57-.24-.82-.44-1.67-.63-2.51s-.41-1.6-.56-2.42-.29-1.71-.37-2.55a22.27,22.27,0,0,0-.21-2.31,11,11,0,0,1,0-2.43c0-.88.08-1.73.13-2.6a18.66,18.66,0,0,1,.15-2.59c.06-.38.22-.72.25-1.1s0-.86,0-1.28a.5.5,0,0,0-.5-.5.5.5,0,0,0-.5.5Z"/><path d="M24.76,186.72a27.64,27.64,0,0,0,.16,2.88c0,.41.08.83.16,1.23a10,10,0,0,1,.08,1.45c0,1,.11,1.91.13,2.88a23.56,23.56,0,0,0,.3,2.9,48.84,48.84,0,0,0,1,5.76c.22.84.61,1.6.82,2.44.09.37.28.73.38,1.11a5.67,5.67,0,0,1,.36,1.28.5.5,0,0,0,1,0,3.6,3.6,0,0,0-.3-1.17c-.12-.38-.21-.76-.35-1.13s-.19-.76-.32-1.14-.37-.8-.51-1.22a19.37,19.37,0,0,1-.59-2.92c-.15-1-.36-2-.49-3a24.38,24.38,0,0,1-.31-2.95v-1.41c0-.47-.11-1-.13-1.47s0-.84,0-1.26l-.21-1.35a24.32,24.32,0,0,1-.17-2.95.5.5,0,0,0-.5-.5.5.5,0,0,0-.5.5Z"/><path d="M26.26,202.26c0,.24.16.47.21.72v.32a1.39,1.39,0,0,0,.06.45c.11.51.29,1,.36,1.51a.51.51,0,0,0,.62.35.54.54,0,0,0,.34-.62c-.07-.51-.25-1-.35-1.51a1.41,1.41,0,0,1,0-.29,3.84,3.84,0,0,0,0-.48c-.05-.24-.16-.47-.21-.72a.5.5,0,1,0-1,.27Z"/><path d="M173.45,256.55a14,14,0,0,1,.24,2.74,5.92,5.92,0,0,0,0,1.19,1.06,1.06,0,0,0,.09.25.12.12,0,0,0-.09.15h0a5,5,0,0,1-.07.54,18.44,18.44,0,0,0-.23,2.46c0,.78-.24,1.54-.26,2.32a.5.5,0,0,0,.5.5.5.5,0,0,0,.5-.5c0-.8.26-1.59.26-2.41a16.8,16.8,0,0,1,.24-2.46c0-.2.09-.39.11-.59a2.1,2.1,0,0,0-.09-.54,10.09,10.09,0,0,1,0-1.1,14.82,14.82,0,0,0-.28-2.82c-.12-.63-1.08-.36-1,.26Z"/><path d="M171.45,154a16.23,16.23,0,0,0-2.09.19,8.45,8.45,0,0,0-2,.33,11.61,11.61,0,0,0-1.66,1,3.42,3.42,0,0,0-.84.56,5.11,5.11,0,0,0-.51.71,36.76,36.76,0,0,0-2.51,2.9,6.36,6.36,0,0,0-.71,1.92,4.09,4.09,0,0,0-.15.85v.4c0,.13-.15.28.05,0a1,1,0,0,0,0,1.41h0a1,1,0,0,0,1.41,0,2.82,2.82,0,0,0,.55-1.65,5.8,5.8,0,0,1,.35-1.48,8.85,8.85,0,0,1,2.17-2.66c.21-.24.42-.48.61-.74s.14-.27.35-.39c.51-.28,1-.69,1.47-1a6,6,0,0,1,1.73-.29,14.28,14.28,0,0,1,1.86-.16,1,1,0,0,0,0-2Z"/><path d="M125,269a2.32,2.32,0,0,0-2.39-2.15c-.13,0-.26,0-.38,0a66.43,66.43,0,0,0,.65-7.05,1,1,0,0,0-2,0,57.32,57.32,0,0,1-.75,7.62,1.1,1.1,0,0,0,.25.93,2.89,2.89,0,0,0-.16.72,4.46,4.46,0,0,0-1.74,1.84,4.67,4.67,0,0,0-2.16,2.93,2.51,2.51,0,0,0-.48.84,2.24,2.24,0,0,0-1.93,1.28l-.39.06a2.5,2.5,0,0,0-1.1.64l-.1.1s0,.06-.07.09c-2.83.37-2.72,5,.37,5a2.28,2.28,0,0,0,1.85-.84l.29,0a2.52,2.52,0,0,0,1.1-.65l.1-.1a1.73,1.73,0,0,0,.4-.57,2.25,2.25,0,0,0,1.29-.55,4.71,4.71,0,0,0,3.3,1.22,4.55,4.55,0,0,0,4.23-2.47C128.38,276,128.32,270.68,125,269Z"/></svg>