<svg id="Layer_2" data-name="Layer 2" xmlns="http://www.w3.org/2000/svg" viewBox="0 0 541.23 521.86"><defs><style>.cls-1{fill:#434043;}.cls-2{fill:#434043;}</style></defs><path class="cls-1" d="M470.62,386.8a15.71,15.71,0,0,0-2.33.68c.29-2,.29-1.92,2.33-2,4.9-.29,9.78-.73,14.68-.92a22.83,22.83,0,0,1,4.73.75c2.16.38,4.32.74,6.47,1.16,1.18.23,2.36.48,3.52.82a50.74,50.74,0,0,0,11.92,2.07,1.4,1.4,0,0,0,.31-.05,11.52,11.52,0,0,1-6.63.93c-1.74-.18-3.54.18-5.3.12-5.68-.16-11.35-.57-17-.58-4.16,0-8.33.24-12.49.48l-.12-1.89c.26,0,.52-.5.78-.77C471.18,387.29,470.86,386.76,470.62,386.8Z" transform="translate(-53.63 -107.88)"/><path class="cls-1" d="M165,305l-2.82-3.22c-.4-1.15-.86-2.44-1.32-3.73l.32-.25a28.88,28.88,0,0,0,2.29,2,29.75,29.75,0,0,0,2.77,1.6l-.71,2.11,1.55.45c-.09-.78-.18-1.52-.27-2.29,2.42,1.14,4.85,1.86,6.74,3.3,1.53,1.18,2.56,3.14,3.52,4.91.65,1.19.94,2.41,2.08,3.49a4.69,4.69,0,0,1,1.5,4.23c-.24,1.36.68,3,1.16,4.42.31,1,.7,1.88,1.12,2.91l.3.74,1.92.91c0,.17,0,.33,0,.49-1-.06-2.1-.17-1.54,1.26H186l.06.57-1.82.31-1.5,2.64c-.84-2.39-1.57-3.11-2.78-2.59-.08-.12-.15-.24-.22-.36l2.18-1.25-2.42-.59.37-.14c-.39-.79-.77-1.57-1.16-2.35l-.37.14c.06.54.13,1.08.21,1.79l-1.82-1.56c1.62-2.13,1.06-3.74-1.6-5.25l-.84-2.39-.44.13v1.41l-.31.1c-.17-.38-.54-.8-.48-1.14.46-2.43-.91-4.35-2.34-5.75s-1.83-3.42-2.57-5.2c-.28-.68-.44-1.42-.69-2.27l-.72.82L165.56,304Z" transform="translate(-53.63 -107.88)"/><path class="cls-1" d="M350.44,204.34c.87-2.15,1.46-4.41,2.18-6.62l.43,0a26.71,26.71,0,0,1,.46,4.06c-.1,3.25-.62,6.51-.49,9.74.06,1.6-.31,3.62,1.4,4.72-1,1.8-2,3.51-3.15,5.63L348.84,218a7,7,0,0,0-.16,1.49c.27,1.67.61,3.32.87,5a1.36,1.36,0,0,1-.25.73c-3.25,6.17-7.37,11.77-11.33,17.47-2.38,3.43-4.19,7.24-6.26,10.88a42.09,42.09,0,0,1-2.61,4.22c-.62-1.88,1.06-2.95,1.8-4.78l-1.43.94-.16-.15c.67-.89,1.68-1.68,1.95-2.68,1.16-4.23,3.79-7.89,4.5-12.34.36-2.21,2-4.21,2.88-6.36,1-2.41,1.95-4.86,2.82-7.33.25-.74,0-2.23.26-2.29,1.77-.45,1.72-2.09,2.23-3.23C346.21,214.53,348.36,209.45,350.44,204.34Z" transform="translate(-53.63 -107.88)"/><path class="cls-1" d="M349,540.08c-2.22-1.32-1.93-4.33-3.93-5.92-.2.31-.35.53-.53.82.27-2.44-.2-3.12-1.91-3,.72-1.65-.12-2.67-1.26-3.71-.81-.75-2.45-1.24-1.06-3.37-1.68.79-2.23,0-2.58-.73a19.64,19.64,0,0,0-4.07-5.28c-2-2-3.27-4.67-4.86-7.06-.08-.12-.1-.36-.2-.4-3.33-1.4-4-5.16-6.53-7.32-1.33-1.15-2.13-2.91-3.18-4.4l.39-.46.57.27c-.64-.73-1.26-1.47-1.86-2.23a5.37,5.37,0,0,1-1.09-2.56c-2.16-2.35-4.38-4.65-6.73-6.83a5.41,5.41,0,0,1-1.25-1.66,12.87,12.87,0,0,0-1.34-.67c-.22.86-.24,1.83-1.33,2.19-.25.08-.23.95-.3,1.28l-2,.71c-.72-1.52-1.22,0-2,.78.1-1.35.18-2.28.25-3.2a4.9,4.9,0,0,1-2.76,3.86c-1,.52-2,1.26-1,2.79h-1c.3,1.44.59,2.82.94,4.48-1-.63-1.77-1.53-2.55-.08.37.32-.07,2.07,1.67.87l.92,1.6-2.85-.57c-.16.93-.33,1.91-.45,2.62a85.49,85.49,0,0,0-6.49,10.79l-3.62-.81c0,2.07,2.8-.34,2.42,1.86-.26-.11-.64-.42-.82-.33-2.39,1.19-4.61,2.35-5.76,5.18-1.28,3.11-1.76,6.39-2.79,9.54-.51,1.57-1.09,3.11-1.62,4.68-.45,1.37-.85,2.77-1.31,4.15a4.07,4.07,0,0,1-.48.83c-.16-.32-.5-.67-.46-1a6.55,6.55,0,0,1,.62-1.5l-1.35-1.61c-.34,1.94-.64,3.69-.95,5.45-.21,1.13-.9,2.44-.55,3.36.68,1.78-.28,3-.81,4.41-.25.65-1,1.11-1.25,1.76-.85,2.29-1.66,4.61-2.31,7a19.12,19.12,0,0,0-.29,3.57c0,.27,0,.74-.06.78-2.06.8-1,3.5-2.93,4.45l-.78-.52a49.11,49.11,0,0,0,0-5.18c-.23-2.16-.77-4.29-1.05-6.46-.22-1.65-.18-3.33-.38-5a2.54,2.54,0,0,0-1.05-1.5,13.26,13.26,0,0,0-1.16-6.68,8.93,8.93,0,0,1-.34-3.66c.18-3.35-.86-6.49-1.49-9.71-.38-1.92-.54-3.89-.81-5.92l1.13.13c-.16-1.11-.32-2.15-.54-3.63l-.82,1.78-.41.12c-.08-.52-.36-1.1-.21-1.53a4.49,4.49,0,0,0-1-4.8l.52-1.15-1.24-.38c.1-.56.21-1.18.33-1.8.3-1.49.78-2.85-1.59-3.34-.65-.14-.93-2.18-1.33-3.36-.13-.4,0-.87-.16-1.28-.58-2-1.21-3.91-4-3.72a17.76,17.76,0,0,1-3.66-.51c.26.62.44,1.06.63,1.5l-.25.2c-.24-.21-.49-.4-.72-.63s-.63-.66-.94-1c-.1.41-.2.81-.39,1.61l-.84-1.55a33.36,33.36,0,0,0-3.94,2.53,23.35,23.35,0,0,0-4.15,4.34,25.75,25.75,0,0,0-2.4,5.31c-.15.39.22,1,.22,1-1,2.09-1.81,4-2.82,5.72-2.24,3.88-4.58,7.71-6.92,11.54-.16.26-.64.31-.71.31a29.88,29.88,0,0,1-1.41,4c-1.2,2.33-3,4.44-3.75,6.89-.58,1.9-2.14,3-2.72,4.82s-1.94,3.19-2.74,4.88q-3.19,6.75-6.19,13.62c-1.84,4.26-3.44,8.62-5.34,12.85-1.74,3.88-3.85,7.59-5.58,11.47-3.44,7.74-6.74,15.54-10.07,23.33-.17.38-.06.87-.21,1.26a11.7,11.7,0,0,1-.77,1.49l-.7-.25a22.78,22.78,0,0,0,1-3.71c.2-1.72,1.39-3.06,1.37-5,0-1.35-.7-3.23.87-4.44.16-.13.06-.61.08-1-.49-.32-2,1-1.47-.88,1.91.16,2.1,0,2.13-2,0-2.41,0-4.83.14-7.23a55.88,55.88,0,0,1,1-5.62c-2.13-.8-2.33-1.12-2.23-3.64,0-.74.18-1.48.27-2.23l.4,0v2.77c1.82-1.11,2.18-2.75,2.39-4.36.16-1.26,0-2.57,0-3.86,0-.29.28-.56.4-.85a5.84,5.84,0,0,0,.15-5.08,3.33,3.33,0,0,1-.08-1.42c0-1.07,1-2.16-.1-3.22a.77.77,0,0,1,.08-.76c2-1.6,1.46-4,1.77-6.08a30.68,30.68,0,0,0,0-5.75,5.76,5.76,0,0,0-.5-1.52,16,16,0,0,0,.57-2.59,33.2,33.2,0,0,0,.15-6.45,5.39,5.39,0,0,1,.9-3.82c.6-1,.5-2.49.55-3.76.15-3.5.22-7,.28-10.51a1.29,1.29,0,0,0-.45-.8,5.07,5.07,0,0,1-1.64-4.69l.42-.18c.09.35.31.72.25,1a2.84,2.84,0,0,0,1.44,2.8c.12-1,.23-2.11.38-3.16a1.55,1.55,0,0,0-1.29-1.9c-.34-.1-.65-.27-1.3-.54.65-.26,1.08-.3,1.27-.53.38-.48.94-1.09.9-1.59-.18-2-.56-3.94-.87-5.93-.77,0-2-1.56-1.61-2.44a1,1,0,0,1,.74-.52c.26,0,.78.24.78.39a6.27,6.27,0,0,1-.32,1.43c1.59-.38,1.23-1.84,1.29-2.77.17-2.36.1-4.73.06-7.1,0-1.29-.26-2.57-.3-3.86a48.8,48.8,0,0,1,.08-5.41c.05-.63.72-1.2,1-1.7-.26-.33-.7-.66-.77-1.05a28.81,28.81,0,0,1-.35-3.35c-.07-1.08-.6-1.49-1.66-1.53-2.7-.09-4.65,1.53-6.61,3-2.12,1.54-4,3.4-6.1,5a36.93,36.93,0,0,1-3.6,2.2c2.37.66,2.5,0,5-2s5.22-4.29,8-6.24c2-1.4,2.85-.94,3.31,1.38a6.64,6.64,0,0,1,.23,3.13c-.24.8-1.29,1.36-2.12,1.71-.1.6-.2,1.19-.31,1.79l-.34,0,.67,1.35-.3.23c-.39-.46-.78-.91-.91-1.05a12.22,12.22,0,0,1-2.18.79c-1.83.26-2.54,1.06-3,3.59-1-.28-1-.28-.22-1.77-1.36-1-1.44,0-1.62,1.13a5.83,5.83,0,0,0-5.78-.87,2.43,2.43,0,0,0-1,.48c-1.81,1.82-4.31,2.23-6.52,3.26-3.14,1.46-6.28,2.92-9.36,4.51-2.41,1.25-4.71,2.71-7.08,4.05a5.62,5.62,0,0,1-1.12.34c.4-1.29,2.26-2,1.41-3.89-1.22,1-1.65,2.89-3.5,3.05-.32-.7-.59-1.3-.87-1.9.07-.14.14-.29.22-.43l1.9.78V498.1l.22.27c2.12-2.44,4.27-4.86,6.36-7.33a28,28,0,0,0,2.74-3.69c.3-.52.05-1.37.05-2.35.36.5.59.8,1.09,1.48.73-1.5,1.36-2.82,2.07-4.3h1.09c2.32-3.23,5-6,7.09-9.63,1.4-.32,1.57-2.15,2.25-3.51.17-.33-.17-.91-.3-1.46l.78-.08c1-3.48,2-6.87,3.06-10.33-2.08.29-3.16-1-3.27-3.31l-2.15,1.31c.12.27.33.71.5,1.08l-2,1.57a15.62,15.62,0,0,0-5.87-3.19l-2.62-.66c0-.09,0-.18,0-.27l1.08-.18.61-.66c-.38-.07-.82-.31-1.12-.19-3,1.22-5.7-.76-8.57-.79-.31,0-.64-.3-.92-.26-3.06.47-6.06-1.06-9.15-.16-.7.2-1.62-.49-2.44-.51-4.82-.16-9.65-.15-14.46-.4a49.44,49.44,0,0,1-5.84-1.07,6.88,6.88,0,0,0-2.71,0l1.51.41c-1.8,1.55-27.57.54-29.41-1.33l8-.31a5,5,0,0,0,.94-.18c1.77-.39,3.41,1.26,5.26.3.22-.11.84.52,1.4.89.35-1.05.18-1.58-.87-1.65-3.74-.27-7.48-.62-11.23-.81-1.7-.09-3.43.31-5.12.14-3-.3-5,1.11-6.56,3.37a1.89,1.89,0,0,1-1.83.92c-.92,0-1.83.16-2.75.24,0-.16-.09-.32-.14-.48a7.27,7.27,0,0,1,1.78-.73A3.81,3.81,0,0,0,80,447.75c.22-.57,1-1,1.56-1.34,4-2.32,8.11-4.59,12.15-6.89,3.82-2.18,7.63-4.37,11.4-6.61,1.94-1.15,3.78-2.45,5.68-3.67,2.11-1.35,4.23-2.7,6.37-4,.19-.12.5,0,.75-.09,1.13-.25,2.26-.51,2.18-2.69.57,1.7,1.07,1.45,2,.93,3.22-1.87,6.62-3.43,9.79-5.37,2.95-1.82,5.7-4,8.53-6a22.7,22.7,0,0,0,2.95-2.18c1-1,1.75-2.24,2.74-3.23a38.67,38.67,0,0,1,3.76-3.24c1.68-1.29,3.45-2.49,5.18-3.73l-.37-.53-4.44,3.29-.14-.21,3-4.12a3.21,3.21,0,0,0,3.84.09,4,4,0,0,1,1.82-.34c1.56-.08,2.23-.69,2.14-2.16-1.09.74-2,1.39-3-.32-.54-.95-3.18.21-3.47,1.37-.08.32-.6.53-1.08.64.43-1.62.93-3.15,2.44-4.07,2.33-1.4,4.72-2.7,7-4.21,2-1.35,3.93-2.92,5.75-4.29-.41-.56-.83-1.12-1.41-1.89l-1.25-.12c.35-1.07.62-2,1-3,.14-.34.58-.84.81-.8a1.77,1.77,0,0,1,1.09.77c.88,1.43,1.28,1.51,2.58.44-.77-5-4.84-7.82-7.41-11.62-.15-.22-.34-.42-.5-.63a.25.25,0,0,1,0-.15c2.52-1,6.31.36,5.38,3.14h2.84c-1.52-3.08-4.84-4.64-6.28-7.8l2.48.49c0-.14.07-.28.1-.42l-4.08-1.47c0-.15.07-.3.11-.45h8.87c-.63.79-1.16,1.46-1.86,2.32l-1.63-.16c0,.17-.05.33-.07.5l2.92.44-.41-1.46h2.47c.17,0,.38.08.48,0,1.57-1.13,3.5-.4,5.19-1.06a68.29,68.29,0,0,1,8-2.68c1.4-.35,3-.06,4.7-.06a4.25,4.25,0,0,0-.14-1.62,1.43,1.43,0,0,1,.89-2.28c1.12-.41,1.14-1,.7-1.84a6.35,6.35,0,0,0-.76-1.57c-2.05-2.14-1.48-4.92-1.94-7.45a23.12,23.12,0,0,0-1-3.42c-.85-2.41-1.75-4.8-2.56-7l-1.87-.22v-.48l1.27-.41c-.33-1.31-.67-2.64-1-4l-.06-.57c-.28-1.6-.26-3.39-3-3.42l.46-.43,1.63-.4c-2-1.21-.37-4-2.63-4.76-.53-4.6-4.38-7.7-5.11-12.33,1.22.47,2.44.89,3.61,1.41,1.61.72,3.17,1.55,4.79,2.25a11.35,11.35,0,0,0,1.86.38,10.5,10.5,0,0,1,1.56.5c1.63.67,3.24,1.4,4.88,2.05a55.77,55.77,0,0,0,6.28,2.32c4.43,1.16,8.91,2.1,13.37,3.14,2.34.54,4.5,1.07,6.47,2.86,1.75,1.6,4.38,2.26,6.64,3.28.22.1.6-.14.91-.23a40.74,40.74,0,0,1,6.17-1.85c2.85-.41,5.76-.32,8.65-.5a4.36,4.36,0,0,0,1.81-.49,20.71,20.71,0,0,0,4.18-2.61,11.31,11.31,0,0,0,3.26-6.15,26.3,26.3,0,0,0,.09-5.18c0-1-.18-1.92.76-2.88.48-.5-.08-2-.19-3.08-.05-.49-.14-1-.21-1.46l.58-.05c0,.36.09.72.13,1.09l.45.18c.35-.8.69-1.6,1-2.4L254,299l-3,1.46s-.32-.56-.2-.68c1.15-1.23,1.14-2.82,1.53-4.29.07-.26.36-.46.87-.59-.06.52-.11,1-.16,1.55l.37.23c.24-.44.72-.9.68-1.32a4.62,4.62,0,0,1,2-4.15,2.73,2.73,0,0,0,.35-.33c.13-.16.25-.33.47-.6H254.7c-.44,1.15-.89,2.3-1.33,3.44l-.42-.14c.45-1.34.91-2.68,1.33-3.92.62-.07,1.08-.15,1.54-.18,1.92-.15,2.15.39,2,2.25-.24,2.34-1.25,4.51-.9,7,.25,1.79-.66,3.74-1.11,5.92l.81.56c1.27-3.89.75-7.88,1.92-11.67s1.52-7.7,2.25-11.64l-.78-.06c-.8,1.54.42,3.5-1.16,4.9-1.41-2.33-1.12-4.74.73-6.06.3-.22.89,0,1.52,0,.43-3,.87-6,1.35-9.3l1-.44c-.77-1.16-.57-1.86.5-2.83s1.26-2.42,1.92-3.8c-.61-.81-1.31-1.67-1.93-2.57a2.93,2.93,0,0,1-.21-1c.34,0,.67-.08,1-.1.14,0,.36.09.42,0,1.28-1.49,3.32-2.48,3.25-5-2.87-.25-1.41,3.31-3.35,3.8-.5-1.23.5-3.16-1.55-3.82.28-1,.64-2.33,1-3.7l1.85.63a10.71,10.71,0,0,1-1.08-2.08,2.81,2.81,0,0,1,.34-2c.22.7.44,1.41.58,1.88l1.81-6.06-.29-.19-1.51,2.66-.28,0a24.6,24.6,0,0,1,1.07-3.06c.14-.28.86-.29,1.6-.51-.2-.76-.43-1.64-.67-2.53l-.22.13c.27-1.8.44-3.63.87-5.4A22,22,0,0,1,270,232a7.14,7.14,0,0,0,.35-1.28,5.34,5.34,0,0,0-.52-.18q.61-2.44,1.3-4.86c0-.12.25-.18.28-.18.17,2.12.36,4.27.52,6.42,0,.42,0,.84,0,1.26a27.81,27.81,0,0,0,.17,3.17c.15,1,.75,2-.59,2.84-.32.2.16,1.66.27,2.53l.45,0a22.46,22.46,0,0,0,.45-3.22c0-3.46-.19-6.92-.17-10.37,0-2.42.23-4.84.36-7.25.06-1.18.07-2.37.16-3.54.1-1.41.23-2.81.4-4.21a15.07,15.07,0,0,1,.44-1.76l1,.15c-.18-.47-.3-.83-.44-1.17s-.45-.6-.4-.84c.76-3.64,1.57-7.27,2.38-10.91,0-.08.16-.13.53-.41.44,2.28.77,4.42,1.28,6.52a4.74,4.74,0,0,1-.41,3.78,6.46,6.46,0,0,0-.36,3.13,14,14,0,0,0,.39,3.35,22.42,22.42,0,0,0,1.3,3l-.13.1c.1,1,.13,1.72.23,2.41a22,22,0,0,1,.58,3.81c-.07,1.95-.47,3.9-.69,5.85a6.75,6.75,0,0,0-.08,2.05c.31,1.54.85,3,1.14,4.57.4,2.21.65,4.44,1,6.66.53,3.53,1.15,7.05,1.58,10.6.21,1.74-.06,3.55,1,5.12a18.14,18.14,0,0,0,.1-1.94c0-.75-.17-1.48-.23-1.95l2.68-.32.16.31-1.73,1.07c0,.34,0,.91.07,1.59l1.1-.4c0,.2.1.35.06.4-1.34,1.53-.14,3.09.1,4.55.27,1.66,1.19,3.22,1.69,4.86.15.49-.25,1.13-.2,1.68.13,1.46.33,2.91.59,4.34A7.58,7.58,0,0,0,289,275c-.53,1.41-.25,2.1,1.69,2.6a13,13,0,0,1-.42,1.69c-.72,1.81-.69,1.89,1.22,2.08a28.83,28.83,0,0,0,.05,4.16,18.7,18.7,0,0,0,1.12,3.14c.17.51.13,1.09.3,1.6.31.95.69,1.88,1.07,2.81a16.88,16.88,0,0,0,.9,2c.75,1.32,1.56,2.6,2.59,4.31-1.05-.56-2-.74-2.3-1.28-1-1.68-1.77-3.49-2.6-5.26-.09-.2.12-.56,0-.76a42.75,42.75,0,0,1-3.05-9.17c-.09-.38-.63-.67-.95-1,.12.79.21,1.59.37,2.37.11.53,1,1.15-.24,1.44.26.49.4,1.14.8,1.46,1,.77.91,1.75,1.1,2.83a27.31,27.31,0,0,0,1.75,5.62,13.28,13.28,0,0,0,2,3.28,28.13,28.13,0,0,0,3.69,3.94,10.45,10.45,0,0,0,3.31,1.58,5.2,5.2,0,0,1,2.56,3.36c0,.49.22,1.3.48,1.37a2.12,2.12,0,0,0,1.61-.36c.86-.64,1.57-1.5,2.4-2.19a5.41,5.41,0,0,1,1.9-1.17,4.55,4.55,0,0,0,3.28-3.07,8.67,8.67,0,0,1,2.2-3.3,5.76,5.76,0,0,1-.12-1.18l-.29.22-.39-.35.39-1.46.54.06q.09-.27.21-.54l-.94-.34c.26-.08.53-.08.63-.21,1.31-1.7,2.59-3.43,3.89-5.13s2.45-3.25,3.75-4.82a2.78,2.78,0,0,1,1.31-.59c.14,0,.3-.06.45-.09l.65-.71a2,2,0,0,0-.22-.43c-.07-.11.26-.55.48-.74a11,11,0,0,1,1.21-.8l-1.38-1a12,12,0,0,0,1.69,0c.33-.05.91-.37.89-.5-.24-1.72,1.41-2.2,2.08-3.3.45-.74.56-1.7,1.05-2.4,1.11-1.59,2.45-3,3.53-4.62,1.71-2.54,4.47-4.33,5.23-7.52.15-.66.29-1.34.44-2,.29-.16.95-.3,1-.55.31-1.89,3.25-2.62,2.36-4.8,2.71-2.08,3.91-5,5.26-8.06-1.49,0-.83,2.61-2.42,1.95.19-.94.32-1.81.53-2.66a4.65,4.65,0,0,1,.66-1.95c1.34-1.55,1.33-3.64,2.28-5.32,1.7-3,3.58-5.92,5.24-8.95,2.36-4.31,4.79-8.56,7.42-12.72a61.34,61.34,0,0,0,2.91-5.5c2-4,3.92-8,5.8-12,.91-2,1.58-4,2.45-6,.41-.92,1.06-1.73,1.56-2.61.94-1.66,1.85-3.33,2.85-5.14l-.42-.52,3.55-7.07a15.27,15.27,0,0,0,.9-1.87c.38-1.11,2.21-1.46,1.36-3.34-.35-.75.83-2.14,1.17-3.28.4-1.32.58-2.67,1.65-3.76a1.56,1.56,0,0,0,0-2.44c-.29-.27-.16-1-.23-1.48l.46-.09.48,1.49c.64-2.06,2.86-3.58,2.12-6.3,1.24-.57,1.72-2,2.16-3.59.52-1.89,1.5-3.65,2.21-5.49q2.64-6.85,5.21-13.73a6.46,6.46,0,0,0,.14-1.19,8.12,8.12,0,0,1,.22-.81c.3.16.81.26.86.47.68,2.87,1.46,5.75.85,8.94,2.87,1.72,1.87,4.43,1.39,7.05a34.93,34.93,0,0,0-.54,3.81c-.16,2.48-.21,5-.34,7.45-.12,2.08-.3,4.16-.46,6.4-.93-.54-1.81-1.48-2.92,0,.66,0,1.2-.16,1.52,0s1,.83,1,1.24c-.06,1.92-.28,3.84-.51,5.75,0,.17-.53.28-.59.31v5.93L398.3,177c-.22.21-.45.41-.68.61l1.42,1.18A10.42,10.42,0,0,0,397,181a5,5,0,0,0,0,2.4,24.14,24.14,0,0,0,.36,3.3c.13.65,0,1.89,1.35,1.37-.23-.78-.41-1.43-.6-2.08l.52-.15c.64.61,1.78.77.85,2.36-.56,1,0,2.56,0,3.86a8.84,8.84,0,0,1-.9,2.05l-.86-1.51-.33-.08v6.62c1,0,1.79.14,1.59,1.6-.31,2.39-.34,4.81-.54,7.21-.06.66-.36,1.29-.48,1.95a12.32,12.32,0,0,0,.1,5.53c.53,2.12.11,4.47.33,6.7a17,17,0,0,1-.72,5.54,1.42,1.42,0,0,0,0,.79,22.34,22.34,0,0,1,1.42,3.82,27,27,0,0,1,.06,4.5h-.49l-.43-4.11c-1,.93-1.46,5.46-.38,6.52.3.29,1,.2,1.42.28.35.54.69,1.07,1.18,1.81l-2,.93a8,8,0,0,1,1.08,2.15,2.34,2.34,0,0,1-.67,1.81,1.88,1.88,0,0,0-.31,2.6c.6,1,.4,1.44-.52,1.92a1.37,1.37,0,0,0-.71.91c-.05,3.32,0,6.64.18,10.16.48-1.4,1-2.8,1.45-4.19h.27v5.23l-1.24.41a4.76,4.76,0,0,1,.82,1.51s0-.05,0-.07c.21-.25.48-.63.71-.62a1.06,1.06,0,0,1,.82.57,1.19,1.19,0,0,1-.41.94c-.25.22-.51.42-.77.62l.12.5.45-.44c2.35.3,1.72,1.81,1.41,3,1.65,1,3.26,1.85,4.71,2.91s2.47,2.16,3.79,3.33L408,276.71c0,.15.08.31.11.46a51.17,51.17,0,0,0,5.54-1.27c2.89-1,5.69-2.2,8.78-2.5,1.65-.16,3.28-.43,4.93-.66,2.68-.37,3.81-2.44,5.05-4.48a7.05,7.05,0,0,1,2.1-2c4.2-2.85,8.49-5.57,12.67-8.45,3.52-2.42,7-4.95,10.39-7.52,2.14-1.62,4.13-3.43,6.21-5.13,4.7-3.84,9.39-7.7,14.14-11.49,1.74-1.39,3.69-2.53,5.47-3.89,2.76-2.12,5.42-4.37,8.17-6.51,3.34-2.59,6.75-5.1,10.08-7.72,1.9-1.48,3.66-3.15,5.56-4.64,1.28-1,2.69-1.82,4.28-2.88-.18,1.43.84,2.73-.72,3.48-.19.1-.71-.5-1.07-.76l-.93,1.09,1.45.28c-.76,1-1.37,2-2.11,2.85-.24.29-.8.31-1.23.42s-1,.25-1.52.37l.06.44,1,.29-3.79,6.08c-.91,0-1.56,1-2.39,2.09a44.32,44.32,0,0,1-3.65,3.45c-.88.91-1.6,2-2.44,3l1.28,1.07c-1.12.85-1.61,2.33-3.2,2.5-.23,0-.63.29-.63.43.14,1.57-1.2,2.13-2,3.19l1.69-.57.18.35-3.3,1.77v4.4l-.4.05c-.1-.74-.2-1.47-.33-2.49l-3.95,3.38.44.5,2-1.88c.36,2.18.08,2.43-2.85,2.4a6.36,6.36,0,0,1,.89,1,3.92,3.92,0,0,1,.31,1c-2,.18-2.21.41-1.75,2.47l-1.68.15-.26-.42c.62-.88,1.25-1.75,1.86-2.65a5.59,5.59,0,0,0,.38-.86c-.37.06-.89,0-1.07.2-1.26,1.5-2.45,3.06-3.6,4.53l3.11.74c0,.11,0,.23,0,.35h-4.86c.54.53,1.23,1,1.17,1.17a2.47,2.47,0,0,1-1.08,1.2,24.3,24.3,0,0,1-2.82,1.1,12.38,12.38,0,0,0,2.71.22,3.24,3.24,0,0,0,1.36-1c.7-.65,1.35-1.35,2-2l.53.45-3.13,4.46-.13-.07.68-1.15-.27-.46c-1.05.5-2.55.73-3.06,1.57-1,1.7-3,2.94-2.77,5.46.08.84-1.24,1.77-1.81,2.73s-1,2-1.51,3.11h0s-.17,0-.17,0c-.1-1-.86-1.73-1.58-1.47-.93.32-1.62,1.28-2.44,1.93a6.83,6.83,0,0,1-1,.58c-.42.74,1.66,1.5-.06,2.31l-.47-1.77-1.05,2.17.34.53c1.13-.44,2.23-.94,3.38-1.3.64-.2,1.87-.37,1.94-.2.38,1-.22,1.33-1.17,1.57a8.46,8.46,0,0,0-2.07,1.24l-1-.89-.87,1.47-1.84-.46c-.69,1-1.33,1.85-1.7,2.36a4.24,4.24,0,0,0,.2,1.26,6.21,6.21,0,0,0,.93,1c-1.15,1.69-2.31,3.4-3.5,5.17-.89-1.24-.22-1.72,1-2-.18-1.28-.35-2.48-.51-3.68l-.36-.27c-2.34,3.2-4.68,6.41-7.17,9.84,1.09.35,2.29-1.32,2.43.81-4-.42-4.81,3.38-7,5.35-1.47,1.31-2.43,3.18-3.62,4.8.81-.73,1.63-1.45,2.46-2.18.18,1.86-1.51,4.69-3.15,5.06-1.16.26-.63-.77-.76-1.27-.38.59-.76,1.19-1.15,1.82l1.24.51c-.66.83-1.27,1.7-2,2.46a9.59,9.59,0,0,1-1.75,1.17v2.35A4,4,0,0,1,434.8,308a7.63,7.63,0,0,0-.81,1c-1.19,2.19-2.35,4.38-3.54,6.6.92-.19,1.26.12.85,1l-2,4.46.45.28c-.43.17-.86.38-1.31.51a2.26,2.26,0,0,1-.72-.05,7.25,7.25,0,0,1,.16-.81,7.75,7.75,0,0,1,.33-.79c-.23-.08-.55-.29-.67-.21a2,2,0,0,0-.65.8c-.26.61-.45,1.24-.71,2,0,0,0,0,0,0h0a.78.78,0,0,1,.37.12,4,4,0,0,1,.63.67c-.32,0-.64.12-1,.14-.55,0-1.1.05-1.65.06,0,.28,0,.56,0,.84l6.06,1.23c.25-.39.53-.81.82-1.27,1.73,2.42,4.2,3.08,6.9,3.18,1,0,2-.15,2.21,1.26,1.63-.26,2.53-1,2.31-3,1.7,2,3.39.88,5.23.51-.22.4-.38.67-.7,1.23a17.76,17.76,0,0,0,4.09-.08c.76-.19,2.11-.75,1.21-2.24-.26-.44,1.6-1.79,2.48-1.77,0,.63.06,1.26.08,1.59.49-.49,1-1.36,1.73-1.62a10.65,10.65,0,0,1,2.95-.13c1.22-.05,2.44-.1,3.66-.21a14.89,14.89,0,0,0,1.72-.33c.76,1,.16,3.27,2.52,2.47v0l2.93.66L470,325l2.22-1.43,1,.94V321l.41,0c0,.38,0,.76-.07,1.25,1.82,0,3.93.63,5.21-.14,2.15-1.28,3.89.45,5.88,0a27.78,27.78,0,0,1,6.4-.3c.38,0,.77.31,1.14.48l.83-1.14,3.7.62.74-2.13.35,0c.13.61.27,1.23.43,2l1.3-1.38c1.28.43,1.28.43,3.87-1.82.08.52.15,1,.23,1.5.36,0,.78.06,1.19.14s.79.24,1.58.49c-.66.34-1,.5-1.34.68s-.82.48-1.25.69a3.62,3.62,0,0,1-.95.35c-2,.4-4,.76-6,1.14a11.22,11.22,0,0,1-2.51.48h-.76a8,8,0,0,0-5.57,2.33c-.72.69-2.37.39-3.42.83a6.37,6.37,0,0,1-1.64.71c-1.51.21-3.36-.19-4.5.55-1.74,1.13-3.54.92-5.49,1.28.35.55,1.55,1.25,0,1.62-.38-.93-2.46-2.13-2.76-1.6a5.69,5.69,0,0,0-.23,2.37l-3.49.22c.2-.48.39-.91.47-1.1-1.56-.3-3.12-.67-4.71-.87-1-.13-2.33-.77-2.5,1.05L458,331c-.46,1.7.22,2.74,1.93,2.64,3.34-.21,6.68-.55,10-.94a55,55,0,0,0,6-1.05,12.08,12.08,0,0,0,2-1.05,6.31,6.31,0,0,1,1.34-.29c.06-.41.14-.92.2-1.3,1,0,1.94,0,2.83,0a22.22,22.22,0,0,0,3.7.29,33.18,33.18,0,0,0,4.32-1.06c.73-.19,1.49-.26,2.19-.52.33-.12.54-.55.8-.84l-.42-.4-1.36,1.07c-.08-.9-.15-1.59-.23-2.49l1.5,1.12.7-1.94,1.22,2.23c-.13,0,.08.06.16,0,2.69-2.58,6.29-2.15,9.53-3,1.34-.34,2.67-.28,4-1.33s3.87-.76,5.87-1.05c0,.28.09.55.13.82a14.54,14.54,0,0,1-2.81.55c-1,0-.79,0-1.31.88-.38.63-1.45.89-2.25,1.21-.57.23-1.38.1-1.77.47a6.51,6.51,0,0,1-4.67,1.51c-.27,0-.57.28-.79.5s-.12.56-.21.57c-2.45.25-3.78,3.33-6.63,2.47.14.73.26,1.29.43,2.15l-1.13-1L480.17,337l.92,1.08-.43.44L479,337.1c-1,.49-2.15,1-3.24,1.66a1.69,1.69,0,0,0-.63,1.23,10.32,10.32,0,0,0,.46,2.13c-.85-.51-1.61-2.09-2,0L472,340.15c-.17.83-.26,1.27-.37,1.78-3.73-.57-6.08,2-8.81,3.64-.82.5-1.68.94-2.52,1.42s-1.8,1-2.71,1.54a6.56,6.56,0,0,1-1.12.49c-.34.11-.86,0-1,.24-1.45,2-4,2.16-5.82,3.5a24.11,24.11,0,0,0-2.79,2,8.55,8.55,0,0,1-1,1.68c-.52.54-1.19,1.24-1.72,0l-1,1.12c.25.92.46,1.71.68,2.49l-.63.25-1.08-2-1.13,1c.19,1.54.37,2.76.43,4a12.94,12.94,0,0,1-1.67.29c0,.63,0,.67,3.13,1.75l-2.32,1.22c.17.4.35.85.67,1.64.59-1.78,1-1.1,2.05-.63,2.12.93,1.39,2.58,1.61,4,0,.16-.66.58-1.05.64a3.79,3.79,0,0,1-1.28-.28l-.15.4,3,1.11-.12.4-1.77-.48-.21.35a5.35,5.35,0,0,0,1.59.88c2.13.31,4.29.39,6.4.75a26.34,26.34,0,0,1,4,1.2c3.27,1.11,6.52,2.32,9.81,3.34,1.37.42,2.87.35,4.26.71a40,40,0,0,1,4,1.5c-.5.54-.9,1-1.49,1.64l-1.14-1.6a7.18,7.18,0,0,0-1.37.9c-.76.78-1.29.66-2-.13-1-1.15-1.85-.77-3.13,0a6,6,0,0,1-3.69.4c-1.48-.2-2.86-.58-4.27.35-.41.27-1.13.09-2.17.14l2.33,1.09c0,.21-.07.42-.1.63l-2.63-.12c0,.3-.09.65-.17,1.17-.67-.32-1.26-1.94-1.84-.07-.12.38-1.81-.07-1.25,1.61,1.6-.16,3.25-.44,4.89-.45,1.94,0,3.87.28,5.81.35q4.69.18,9.4.21l.12,1.89-2.25.14q-6.45.38-12.88,1c-3.05.28-6.09.69-9.11,1.12a3.53,3.53,0,0,0-1.34.69l-4.46-.89-.11.23,3.06,1.53-1.64,1.23h3.59l-.48,1.24a24.43,24.43,0,0,0,2.89-2.45c1.05-1.21,1.69-1.43,3-.34-3.59.72-4.82,3.81-6.41,6.48-.08-1.28-.14-2.3-.21-3.33l-1.14-.42c.15.65.49,1.26.32,1.61-1,2.21.4,3.43,1.65,4.85a13,13,0,0,1,1.42,2.66l2.22.87-.44.72,7.86,5.32-1.12.54c.29.27.65.78.81.72,1.29-.48,1.87.48,2.32,1.25.56.95,1.1.94,2,.37.47.89.85,1.58,2.26,1.3.85-.17,2,.94,3,1.46a12.63,12.63,0,0,1,2.28,1.19,6.42,6.42,0,0,1,1.11,1.75c.1-.13.33-.47.66-.93.26.49.49.94.79,1.49l.83-.64,1.82,2.22H470.9l.25,1.24-.48.25-1-2.59c-1.46,1.14-2.14.75-3.28-1.75-1,2.17-.77,2.74,1.38,3.23a2.09,2.09,0,0,1,.58.24c2.07,1.19,4.1,2.46,6.2,3.58.92.49,2,.6,3,1.07a10.41,10.41,0,0,1,1.86,1.56l1.5-.45v1.62c.84-.28,2-1.1,1.35,1l2.1-.7c2.64,1.78,5.21,3.32,8.08,2.91a7.62,7.62,0,0,0,1.22,1.89,21.51,21.51,0,0,0,3.72,2.48c.52.26,1.22,1.6,2,.22a3.14,3.14,0,0,1,.8.55c.2.28.16.82.4,1a7.55,7.55,0,0,0,1.58.63c0-.47,0-.95.07-1.42,0-.16.05-.31.46-.62l.67,1.59c.65.5,1.23.76,1.5,1.21s.26,1.09.6,1.66c.49-.83.81-1.72,1.53-1.72a1.91,1.91,0,0,1,1.11.49c.15.11.72-.33,1.25-.58.78,2.16,2.89,2.35,4.69,3.08s3.35,1.57,5,2.29a16.19,16.19,0,0,1,2.38,1.44c.87.56,2.17.43,3.28.62.51.09,1.3.1,1.46.41a3.32,3.32,0,0,0,4.15,2,7,7,0,0,1,1.26,0c-.24.62-.41,1.07-.65,1.68l5.24,2.42v-1.09h1.44c.1.14.21.27.32.4l-1.17.08c.07.18.13.36.19.53a12.28,12.28,0,0,0,1.46.81c2,.86,4.08,1.65,6.1,2.52a15.54,15.54,0,0,1,2.37,1.29c1.73,1.12,3.42,1.09,4.63-.4l-9.7-4.12c.05-.17.1-.34.14-.52a6.61,6.61,0,0,1,1.57.22q3.79,1.51,7.54,3.15c.77.34,1.27.76.78,1.84a2.07,2.07,0,0,0-.11,1.62l-.37.12a57.58,57.58,0,0,1-22.43-6.36l0-.05-1.79,1,1.86.52-.61.72,3.1,1.87c0,.11-.09.22-.14.33-1.42-.67-2.82-1.41-4.27-2a16.68,16.68,0,0,0-3.19-.85c-2.26-.4-4.54-.7-6.81-1-.05,0-.12-.06-.15-.05-2.23,1.13-3.53-1.18-5.39-1.43a11.08,11.08,0,0,0-1.26-.22c-2.28,0-4.58.13-6.85-.08a.35.35,0,0,1-.14,0c-1-.15-1.91-1-2.93-1.27-2.61-.7-5.25-1.33-7.91-1.79-.6-.11-1.33.62-2,1l.15.41h1.26c.4.45.71.79,1,1.14.1-.45.2-.9.4-1.86l1.05,1.1c.26.26.49.68.8.75a9,9,0,0,0,1.81,0c-.78,1.06-.78,1.06-3.55.29.07.43.13.8.16.95L485.82,453c0-.13,0-.25,0-.38l3.4-.59s-.06-.52-.11-1c-1.73-.29-3.41-.6-5.1-.83-.6-.09-1.24.11-1.84,0-1.57-.21-3.13.45-4.77-.53-1.13-.68-2.81-.42-4.23-.65-2.09-.34-4.17-.74-6.36-1.14-.11.46-.2.85-.33,1.38l-2-.16-.24-.45,1-.57c-1.14-1.37-1.15.05-1.25.22-2.34-.09-4.41-.12-6.47-.29-.77-.06-1.49-.58-2.26-.72-2-.34-4-.67-6-.84-1.79-.16-3.69.24-5.37-.22-2.32-.64-4.36.77-6.6.36a6.86,6.86,0,0,0-4.14.33c-1.21.52-3-.07-4.44-.4-1-.23-1.7-.25-2.39.64-.29.37-1,.43-1.55.65-.27,1.08-.58,2.31-.94,3.77l.85-.74.55,1.24-.06.44c-1.54-.19-3.25.73-4.71-.18,0,2,1.08,2.28,2.55,2.51,2.26.37,4.46,1.11,7.08,1.8-2.14,1.75-2.52,3.46-.79,5.35l-2.25.78c3.15.79,4.72,2.4,4.54,5.38,1.51.34,2.05,1.53,2.31,2.9a8.09,8.09,0,0,1-1.32.51l4.27,1.95c-.17.32-.33.65-.54,1.06a2.51,2.51,0,0,1,2.4,2.69c0,.41,1,.81,1.48,1.22-.07.11-.15.22-.22.34a37.1,37.1,0,0,0-5.1-2.43c-4.26-1.33-8.31-3.27-12.84-3.78a17.14,17.14,0,0,1-7.24-3.13,36.77,36.77,0,0,0-5.09-2.34,1.32,1.32,0,0,1-.46-.38l-1.79.29c0-.32.08-.65.13-1.08L404,463.5a2.6,2.6,0,0,1,2.92-1.48,30.06,30.06,0,0,1,10.64,3.82c2.32,1.25,4.47,2.8,6.76,4.1a9.47,9.47,0,0,0,3.2.92l-1.77-1.39-4.66-3.67-1.34-.22c-1.25-.77-2.82-1.16-3.4-2.45-2.17-.54-4.29-1.08-6.43-1.58a16.26,16.26,0,0,1-1.89-.24,5.08,5.08,0,0,1-1.27-1l-2.34-.05c-1.33-.29-1.38.6-1.34,1.41a7.05,7.05,0,0,1-6.95-.74c-.44,2.09-.82,3.91-1.23,5.8l1.32,1.16c-.33.33-.63.86-1,.94s-.95-.21-1.23-.29c.14,2.07.3,4.36.45,6.64l-.69.12c-.36-1.34-.65-2.7-1.11-4a30.77,30.77,0,0,1-1.5-9.78c0-1.64.77-3.31,1.26-5.26-.56.58-1.37,1-1.53,1.67a14,14,0,0,0-.47,4.36c.28,3.15.7,6.3,1.29,9.4a38.87,38.87,0,0,0,1.77,5.27l1.64-2.18.53.35a14.7,14.7,0,0,0-.75,3.06c0,2,.09,3.94.23,5.91.12,1.75.31,3.49.54,5.23,0,.32.08.63.13,1,.34,2.55.72,5.09,1.05,7.64.16,1.21,1.08,2.48.11,3.44l2,4.65c-.21,1.33-.43,2.68-.6,3.79.38.42.85.7.86,1,.07,1.54-.33,3.09.82,4.51.26.31-.38,1.35-.68,2.27l-.63-1-.21.08,1.35,3.46a3,3,0,0,1,1.11-.13c.32.09.79.48.79.73a47.53,47.53,0,0,0,1.87,10.64,2.29,2.29,0,0,1,.15.94c-.11,3.62,1,7,1.49,10.58.22,1.6,1.2,3.29.32,5a.18.18,0,0,0,0,.16c1.91,2.47-.09,5.35.85,7.91a6.61,6.61,0,0,0,.43.79c.15-.79.24-1.29.33-1.78l.45,0c-.25,2.24,1.55,4.37-.16,6.66,1.88.5,2.24,1.55,1.53,2.9,1.16,4.08,2.34,7.74,3.23,11.46s1.48,7.47,2.23,11.33a23.49,23.49,0,0,1-1.49-2.08c-.31-.54-.4-1.14-1.29-.92-.12,0-.51-.93-.72-1.45s-.34-1.06-.56-1.77l-.52.74-3.27-3.55,1.64.68c-1.18-2.69-2.26-5.12-3.33-7.55l-.5.21c.37,1.25.75,2.51,1.12,3.77l-.21.23c-.44-.39-.91-.75-1.31-1.18a43.76,43.76,0,0,1-4.17-4.57c-1.62-2.29-3.73-4.1-5.48-6.25-1.22-1.5-2.46-3-3.65-4.49-.56-.72-1.81-.47-2.06-1.64a2.27,2.27,0,0,0-.89-1.13l-3.11-3.45c0-.29.15-1.13-.19-1.54-1.93-2.3-3-5.1-4.5-7.61-1.74-2.86-3.67-5.61-5.56-8.38-3.11-4.54-7.17-8.23-11.11-12-3.55-3.41-7.42-6.49-11.18-9.66-1.1-.93-1.69-.8-2.37.14-1.59-1.35-3.73-2.41-4.65-4.13-1.34-2.5-3.58-4-5.29-6-.35-.4-.69-.82-1-1.22,1.61,2.87,3.21,5.74,4.84,8.56a4.94,4.94,0,0,1-2.38,7,6,6,0,0,0,.4.55c-1.08.13-1.53.66-.6,1.63a10.73,10.73,0,0,0,3,2.76c.82.4,1.08,1.85,1.71,2.74,1,1.34,2.11,2.56,3,3.94a5.16,5.16,0,0,1,.67,2.39,25.45,25.45,0,0,0,2.78,9.39,6.33,6.33,0,0,1,.26,1.46c.86-.16,1.95-.65,1.8,1l-1.2-.44v1.71l-.26.21L349,540.24S349,540.1,349,540.08Z" transform="translate(-53.63 -107.88)"/><path class="cls-2" d="M553,460.27c1.87.4,1.24,1.31.69,2.24l1.82.47C555.43,461.3,555.38,459.92,553,460.27Zm-1.91-1.73q-3.75-1.64-7.54-3.15a6.61,6.61,0,0,0-1.57-.22c0,.18-.09.35-.14.52l9.7,4.12c-1.21,1.49-2.9,1.52-4.63.4a15.54,15.54,0,0,0-2.37-1.29c-2-.87-4.07-1.66-6.1-2.52a12.28,12.28,0,0,1-1.46-.81c-.06-.17-.12-.35-.19-.53l1.17-.08c-.11-.13-.22-.26-.32-.4h-1.44v1.09l-5.24-2.42c.24-.61.41-1.06.65-1.68a7,7,0,0,0-1.26,0,3.32,3.32,0,0,1-4.15-2c-.16-.31-.95-.32-1.46-.41-1.11-.19-2.41-.06-3.28-.62A16.19,16.19,0,0,0,519,447.1c-1.7-.72-3.34-1.59-5-2.29s-3.91-.92-4.69-3.08c-.53.25-1.1.69-1.25.58a1.91,1.91,0,0,0-1.11-.49l0-1.24h1l-2.75-1.84,1.13-2.63c2.2.93,4.4,1.85,6.58,2.8,5.51,2.4,11,4.94,16.46,7.36,4.69,2.07,9.44,4,14.13,6.07,6.29,2.78,12.55,5.65,18.84,8.43,2.83,1.24,5.72,2.35,8.58,3.53.44.18.86.41,1.31.63-.2.87-.46,1.67-.57,2.47l-.66-.09-6.75-2.77c.46.82.71,1.29,1,1.79-2.05.41-3.41-.16-3.84-1.36-1-.13-1.87-.17-2.73-.36-1.79-.39-3.57-.81-5.33-1.31a2.25,2.25,0,0,1-1.59-1.29,2.07,2.07,0,0,1,.11-1.62C552.32,459.3,551.82,458.88,551.05,458.54Z" transform="translate(-53.63 -107.88)"/><path class="cls-2" d="M505.83,457.22l-.83-.05a3.23,3.23,0,0,0-1.92-1.42l.24-1.34a.35.35,0,0,0,.14,0c2.27.21,4.57.06,6.85.08a11.08,11.08,0,0,1,1.26.22c1.86.25,3.16,2.56,5.39,1.43,0,0,.1,0,.15.05,2.27.35,4.55.65,6.81,1a16.68,16.68,0,0,1,3.19.85c1.45.57,2.85,1.31,4.27,2,0-.11.1-.22.14-.33l-3.1-1.87.61-.72-1.86-.52,1.79-1,0,.05a57.58,57.58,0,0,0,22.43,6.36c0,.18,0,.35,0,.53l-7,.17c0,.22,0,.44,0,.65l-.13.59-10.47-2.29-.32.57-.05-.51c-.88-.17-1.76-.35-2.65-.5s-1.72,0-2.32-.38c-2.3-1.5-2.26-1.56-4,.39,0-.43-.06-.75-.07-.92-1.37-.12-2.62-.25-3.88-.34-3-.2-5.93-.25-8.85-.64-.89-.11-1.68-1-2.57-1.1l.09-.58,4.67.75,0-.65a35.6,35.6,0,0,1-5.8-1.42C507,456,506.59,456,505.83,457.22Z" transform="translate(-53.63 -107.88)"/><path class="cls-2" d="M493.49,323.86h.76a11.22,11.22,0,0,0,2.51-.48c2-.38,4-.74,6-1.14a3.62,3.62,0,0,0,.95-.35c.43-.21.83-.46,1.25-.69s.68-.34,1.34-.68c-.79-.25-1.17-.4-1.58-.49s-.83-.1-1.19-.14c-.08-.54-.15-1-.23-1.5-2.59,2.25-2.59,2.25-3.87,1.82l-1.3,1.38c-.16-.73-.3-1.35-.43-2l-.35,0-.35-.5c0-.31,0-.65-.05-1.15l7.46-.55.48.94,2.15-1.37c-.14,1-.23,1.65-.32,2.34,1.3-.11,2.74.31,3-1.43a6.21,6.21,0,0,0,1.8.23c1.38-.31,2.72-.81,4.1-1.14a7.37,7.37,0,0,1,4.14.1l-.16.51c-1.62.48-3.26.92-4.86,1.46-.2.06-.22.63-.34,1l-.12,1.09c-2,.29-4.47,0-5.87,1.05s-2.71,1-4,1.33c-3.24.82-6.84.39-9.53,3-.08.08-.29,0-.16,0l-1.22-2.23Z" transform="translate(-53.63 -107.88)"/><path class="cls-2" d="M462.18,331.11c-1.76-.35-2-.06-1.53,1.82l4.07-.47,0-.78C463.89,331.49,463,331.29,462.18,331.11Zm-2.24,2.56c-1.71.1-2.39-.94-1.93-2.64l1.61.22c.17-1.82,1.52-1.18,2.5-1.05,1.59.2,3.15.57,4.71.87-.08.19-.27.62-.47,1.1l3.49-.22a5.69,5.69,0,0,1,.23-2.37c.3-.53,2.38.67,2.76,1.6,1.58-.37.38-1.07,0-1.62,1.95-.36,3.75-.15,5.49-1.28,1.14-.74,3-.34,4.5-.55a6.37,6.37,0,0,0,1.64-.71c1.05-.44,2.7-.14,3.42-.83a8,8,0,0,1,5.57-2.33v.42l-.7,1.94-1.5-1.12c.08.9.15,1.59.23,2.49l1.36-1.07.42.4c-.26.29-.47.72-.8.84-.7.26-1.46.33-2.19.52a33.18,33.18,0,0,1-4.32,1.06,22.22,22.22,0,0,1-3.7-.29c-.89-.05-1.8,0-2.83,0-.06.38-.14.89-.2,1.3a6.31,6.31,0,0,0-1.34.29,12.08,12.08,0,0,1-2,1.05,55,55,0,0,1-6,1.05C466.62,333.12,463.28,333.46,459.94,333.67Z" transform="translate(-53.63 -107.88)"/><path class="cls-2" d="M504.89,387l.18-.69-6.2-1.65c-.06.26-.13.51-.19.76Zm-20.68-68.85c.63.44,1,1.57,2.08.41a2,2,0,0,1,1.75,0c.81,1.9,2,.47,3.33.79l-1.09-1.6c.55,0,1,.19,1.37,0s.37-.66.54-1c-.3-.16-.65-.49-.9-.43C488.92,316.88,486.57,317.51,484.21,318.13ZM481.6,429.64l2.1,1.33,1.2-.88c-.06-.15-.11-.3-.16-.45Zm-5.32-49.76c5.78,2.11,11.83,2.71,17.63,4.32C491.56,382.48,478.29,379.33,476.28,379.88Zm.3,44.14c1.05,1.71,1.66,3.92,4.14,3.63-.89-1-1.74-2-2.68-2.87A6.11,6.11,0,0,0,476.58,424Zm-4.29-42.42,2.39-2.89-3.13-.56Zm.93,41.66,1.81,1.79.33-.33v-1.41a7.39,7.39,0,0,1-1.17.1A6.31,6.31,0,0,1,473.22,423.26Zm-7.49-103.2c.14,1.37.24,2.38.34,3.39.68.57,2.24.34,1.76,1.91.24-.22.61-.44.61-.65a15.67,15.67,0,0,0-.31-2l.83-.18c.19.63.37,1.26.61,2.06.29-.32,1-.89.91-1-.67-1-1.45-2-2.2-3l-.41.16c.09.48.18.95.28,1.46-.15,0-.39.15-.44.1C467.13,321.68,466.57,321,465.73,320.06Zm1,66-4.14,1-.2.31c.79.24,1.78.9,2.33.63a3.18,3.18,0,0,1,3-.24C467.24,386.92,467,386.43,466.73,386Zm-8.1-.13c1.18-.53,2.49.57,3.62-.5,0-.2-.07-.4-.1-.6l-3.58.46Zm1.21-9.6a5.51,5.51,0,0,0,5.72.2V376ZM458,350.59c-1.33.77-2.62,1.59-4.39,2.67.92.24,1.54.62,1.86.45,1.13-.6,2.12-1.45,3.22-2.11,3.25-1.94,6.53-3.83,9.82-5.75l.51.59-.5-.73,3-1.4-.43-.49c-.87.19-2.06-.51-2.49,1-.06.22-.5.36-.78.49-.81.36-1.67.63-2.45,1.05C462.85,347.76,460.4,349.17,458,350.59Zm-4,22.93a2.72,2.72,0,0,1-.11.25l2.3.51-.78,1.1,1.4-1.55Zm-3.19.82a17.64,17.64,0,0,0,1.94-.75,4,4,0,0,0,.84-.76,7.41,7.41,0,0,0-1.07-.42c-.41-.1-.84,0-1.25-.14-.79-.18-1.57-.42-2.35-.64l-.38.61ZM447,294.07c.62-.06,1.38-.17,1.62-.58a18.38,18.38,0,0,0,1.2-2.93l-.33-.26c-.45.73-1.36,1.53-1.26,2.17C448.38,293.76,447.62,293.71,447,294.07Zm-1.42,76,.24,2.2h.37c.17-.39.33-.79.53-1.23l1.52,1,.33-.57-2.5-1.69Zm1.44-10.5c-2.29-.44-2.29-.44-4.27,3.82l3.4-1.61c-.05-.14-.11-.27-.16-.41l-1.05.22-.17-.3Zm-6.29-39.88-3.17-4.87a14.64,14.64,0,0,0-1.22,2.06,10.29,10.29,0,0,0-.78,3.18c0,.23,1.56.48,2.35.7-.13-1.07-.22-1.84-.31-2.6l2.68,2Zm-4.26-9.18-2.61,1.2c-.09.6-.22,1.42-.3,1.93a12.4,12.4,0,0,0,1.74-1.26A10.85,10.85,0,0,0,436.42,310.51Zm-2.32,14.3a1.63,1.63,0,0,0,2.85-.18Zm-7.92-2c.26-.76.45-1.39.71-2a2,2,0,0,1,.65-.8c.12-.08.44.13.67.21a7.75,7.75,0,0,0-.33.79,7.25,7.25,0,0,0-.16.81,2.26,2.26,0,0,0,.72.05c.45-.13.88-.34,1.31-.51l-.45-.28,2-4.46c.41-.92.07-1.23-.85-1,1.19-2.22,2.35-4.41,3.54-6.6a7.63,7.63,0,0,1,.81-1,4,4,0,0,0,1.14,1.76v-2.35a9.59,9.59,0,0,0,1.75-1.17c.73-.76,1.34-1.63,2-2.46l-1.24-.51c.39-.63.77-1.23,1.15-1.82.13.5-.4,1.53.76,1.27,1.64-.37,3.33-3.2,3.15-5.06-.83.73-1.65,1.45-2.46,2.18,1.19-1.62,2.15-3.49,3.62-4.8,2.19-2,3-5.77,7-5.35-.14-2.13-1.34-.46-2.43-.81,2.49-3.43,4.83-6.64,7.17-9.84l.36.27c.16,1.2.33,2.4.51,3.68-1.25.23-1.92.71-1,2,1.19-1.77,2.35-3.48,3.5-5.17l1.39.39.36.09,1.44-1.12,2.14.73c-2.68,3.09-5.39,6.24-8.13,9.41.2,1.11-.78,2.62-2.23,3.26a1.06,1.06,0,0,0-.49.7c-.25,1.16-.66,2.16-2.14,2.46.89,1.13.49,2.14-.24,3.16-.93,1.29-1.79,2.63-2.69,4l-1.2-1c-1.13,2.2-2.17,4.36-3.32,6.47a13.24,13.24,0,0,1-1.75,2.29,1,1,0,0,1-.87.3c-2.26-1.11-2.36,1.29-3.21,2.17-.38.38.18,1.84.53,2.72a12,12,0,0,0,1.45,2.49,4,4,0,0,0,4.72,1.78c1.27-.3,2.41-.89,3.9-.3.82.33,2.07-.45,3.14-.67a20.64,20.64,0,0,0,3.61-.89l-1.55-.48,1.14-2,.44.17c0,1-.4,2.38,1.49,1.69.24-.09.69.42,1.12.7.27-.48.54-.93.71-1.23,2.16,0,4.2.11,6.23,0,2.57-.18,5.14-.55,7.7-.89,1.05-.14,2.09-.42,3.14-.6,5-.86,10-1.84,15-2.53,5.85-.8,11.74-1.3,17.6-2,3.13-.4,6.21-1.1,9.34-1.52,2.72-.36,5.47-.55,8.21-.72,5.59-.37,11.2-.55,16.78-1.07,1.73-.16,3-.26,4,1.45.1.19,1.65,0,1.77-.3a1.44,1.44,0,0,1,2-1c1.65.91,3,.1,4.42-.4s3-1.13,4.44-1.7c.48,1.66-.25,2.38-1.89,2.65.21-.36.35-.62.73-1.29a10.11,10.11,0,0,0-2,.41c-.31.14-.46.63-.68.95l1.47.68c-2.76,1.19-5.51,2.39-8.27,3.55-2.08.88-4.11,2.08-6.28,2.48-2.67.5-4.64,2.25-7.06,3.15-3.11,1.15-6.09,2.69-9.1,4.09-.82.39-1.56,1-2.38,1.33a22,22,0,0,1-2.24.78l1.32.33c-.57.21-.93.51-1.2.44-2.61-.66-4.38,1-6.46,2.06-3.26,1.59-6.69,2.83-10.06,4.2-1.41.57-2.85,1.08-4.28,1.61a19.82,19.82,0,0,0-2.77,1c-.9.51-1.57,1.41-2.48,1.88-4.81,2.49-9.66,4.89-14.5,7.33-1.33.67-2.68,1.31-4,2-2.37,1.26-4.82,2.39-7,3.86-4.38,2.87-8.63,5.95-12.94,8.93a6.62,6.62,0,0,1-1.4.72,16.4,16.4,0,0,1-1.72.38l1.56-1.8-.19-.28a15.6,15.6,0,0,0-1.74,1.24c-1.47,1.41-2.89,2.86-4.33,4.31-2.26,2.28-2.06,4.29,1,5.45,3.55,1.38,7.29,2.31,10.95,3.41,3,.89,5.95,1.76,8.92,2.64.36.1.83.34,1.07.21,1.24-.69,2.34-.09,3.3.43,3.93,2.14,8.39,2.4,12.56,3.66,4.44,1.35,9,2.36,13.45,3.58,2.82.77,5.59,1.72,8.42,2.48,4.25,1.14,8.52,2.23,12.8,3.23a3.73,3.73,0,0,1,2.73,1.75c.53.84,2,1.09,3.13,1.52.54.21,1.19.14,1.71.38s.62.65.93,1c-.38.25-.8.78-1.11.71-2.8-.6-5.29.71-7.93,1.12a13,13,0,0,1-2.19-.29c-4.16-.12-8.33-.33-12.49-.26-6.38.1-12.75.48-19.13.59-3.83.07-7.68-.37-11.5-.19-3.57.18-7.12.93-10.68,1.33-3.27.36-6.56.6-9.83.91-.19,0-.35.21-.57.34l1.7.87c0-.15,0-.31,0-.47,1-.05,2-.11,3-.14.49,0,1,0,1.47,0,2.48,0,2.48,0,2.7,2.69l-3.48-.88c0-.14-.25-.67-.44-1.2l-.38.05-.24,1.16h-4.62c.21-.53.36-.9.6-1.53a13.39,13.39,0,0,0-1.34.16c-.44.09-.9.39-1.3.33-1.23-.21-2.9.43-3.28,1.37a4,4,0,0,0,1.09,3.52c.5.38.88.9,1.36,1.31s1.31,1,2.08,1.62c0,1.65,4.39,4.95,6.34,4.4.06,1.89,1.59,2.62,2.92,3.23a35.26,35.26,0,0,1,8.17,4.74,7.91,7.91,0,0,0,2.05.76,14.49,14.49,0,0,1,1.35.71l0,0c.51.27,1.05.52,1.54.84,1,.63,2,1.3,2.91,2,.3.21.69.75.81.69,1.25-.65,1.74.68,2.63.93,2.14.6,4.29,1.2,6.44,1.75a12.74,12.74,0,0,0,3.09.42l-3.15-2c1.39-.38,5.22,2,6.8,4.3l-6.8-1.32c-.06.22-.12.43-.19.65a23.54,23.54,0,0,1,2.34,1.22,89.69,89.69,0,0,0,14.46,7.34l-1.13,2.63c.2,1.61.23,1.85,1.79,1.85l0,1.24c-.72,0-1,.89-1.53,1.72-.34-.57-.32-1.21-.6-1.66s-.85-.71-1.5-1.21l-.67-1.59c-.41.31-.45.46-.46.62,0,.47,0,.95-.07,1.42a7.55,7.55,0,0,1-1.58-.63c-.24-.16-.2-.7-.4-1a3.14,3.14,0,0,0-.8-.55c-.8,1.38-1.5,0-2-.22a21.51,21.51,0,0,1-3.72-2.48,7.62,7.62,0,0,1-1.22-1.89c-2.87.41-5.44-1.13-8.08-2.91l-2.1.7c.65-2.08-.51-1.26-1.35-1v-1.62l-1.5.45a10.41,10.41,0,0,0-1.86-1.56c-.93-.47-2.05-.58-3-1.07-2.1-1.12-4.13-2.39-6.2-3.58a2.09,2.09,0,0,0-.58-.24c-2.15-.49-2.39-1.06-1.38-3.23,1.14,2.5,1.82,2.89,3.28,1.75l1,2.59.48-.25-.25-1.24H473L471.22,421l-.83.64c-.3-.55-.53-1-.79-1.49-.33.46-.56.8-.66.93a6.42,6.42,0,0,0-1.11-1.75,12.63,12.63,0,0,0-2.28-1.19c-1-.52-2.11-1.63-3-1.46-1.41.28-1.79-.41-2.26-1.3-.86.57-1.4.58-2-.37-.45-.77-1-1.73-2.32-1.25-.16.06-.52-.45-.81-.72l1.12-.54-7.86-5.32.44-.72-2.22-.87a13,13,0,0,0-1.42-2.66c-1.25-1.42-2.7-2.64-1.65-4.85.17-.35-.17-1-.32-1.61l1.14.42c.07,1,.13,2,.21,3.33,1.59-2.67,2.82-5.76,6.41-6.48-1.32-1.09-2-.87-3,.34a24.43,24.43,0,0,1-2.89,2.45l.48-1.24h-3.59l1.64-1.23-3.06-1.53.11-.23,4.46.89a3.53,3.53,0,0,1,1.34-.69c3-.43,6.06-.84,9.11-1.12q6.44-.6,12.88-1l2.25-.14c4.16-.24,8.33-.49,12.49-.48,5.67,0,11.34.42,17,.58,1.76.06,3.56-.3,5.3-.12a11.52,11.52,0,0,0,6.63-.93,1.4,1.4,0,0,1-.31.05A50.74,50.74,0,0,1,500,387.25c-1.16-.34-2.34-.59-3.52-.82-2.15-.42-4.31-.78-6.47-1.16a22.83,22.83,0,0,0-4.73-.75c-4.9.19-9.78.63-14.68.92-2,.12-2,.05-2.33,2a15.71,15.71,0,0,1,2.33-.68c.24,0,.56.49.85.76-.26.27-.52.77-.78.77q-4.71,0-9.4-.21c-1.94-.07-3.87-.35-5.81-.35-1.64,0-3.29.29-4.89.45-.56-1.68,1.13-1.23,1.25-1.61.58-1.87,1.17-.25,1.84.07.08-.52.13-.87.17-1.17l2.63.12c0-.21.07-.42.1-.63l-2.33-1.09c1-.05,1.76.13,2.17-.14,1.41-.93,2.79-.55,4.27-.35a6,6,0,0,0,3.69-.4c1.28-.82,2.15-1.2,3.13,0,.68.79,1.21.91,2,.13a7.18,7.18,0,0,1,1.37-.9l1.14,1.6c.59-.65,1-1.1,1.49-1.64a40,40,0,0,0-4-1.5c-1.39-.36-2.89-.29-4.26-.71-3.29-1-6.54-2.23-9.81-3.34a26.34,26.34,0,0,0-4-1.2c-2.11-.36-4.27-.44-6.4-.75a5.35,5.35,0,0,1-1.59-.88l.21-.35,1.77.48.12-.4-3-1.11.15-.4a3.79,3.79,0,0,0,1.28.28c.39-.06,1.08-.48,1.05-.64-.22-1.42.51-3.07-1.61-4-1.05-.47-1.46-1.15-2.05.63-.32-.79-.5-1.24-.67-1.64l2.32-1.22c-3.12-1.08-3.17-1.12-3.13-1.75a12.94,12.94,0,0,0,1.67-.29c-.06-1.23-.24-2.45-.43-4l1.13-1,1.08,2,.63-.25c-.22-.78-.43-1.57-.68-2.49l1-1.12c.53,1.22,1.2.52,1.72,0a8.55,8.55,0,0,0,1-1.68,24.11,24.11,0,0,1,2.79-2c1.83-1.34,4.37-1.5,5.82-3.5.16-.21.68-.13,1-.24a6.56,6.56,0,0,0,1.12-.49c.91-.5,1.81-1,2.71-1.54s1.7-.92,2.52-1.42c2.73-1.66,5.08-4.21,8.81-3.64.11-.51.2-.95.37-1.78l1.59,1.93c.36-2.05,1.12-.47,2,0a10.32,10.32,0,0,1-.46-2.13,1.69,1.69,0,0,1,.63-1.23c1.09-.66,2.27-1.17,3.24-1.66l1.66,1.4.43-.44-.92-1.08,13.15-5.72,1.13,1c-.17-.86-.29-1.42-.43-2.15,2.85.86,4.18-2.22,6.63-2.47.09,0,.07-.44.21-.57s.52-.5.79-.5a6.51,6.51,0,0,0,4.67-1.51c.39-.37,1.2-.24,1.77-.47.8-.32,1.87-.58,2.25-1.21.52-.85.28-.86,1.31-.88a14.54,14.54,0,0,0,2.81-.55c0-.27-.09-.54-.13-.82l.12-1.09c2.88-.19,2.88-.19,5.32-2l-.12-.45.16-.51a6.58,6.58,0,0,1,1.29.55,1.94,1.94,0,0,0,1.61.09c2.34-1.46,5.07-1.72,7.59-2.63,1.17-.43,2.37-.8,3.94-1.32l-1.78-1c-.38.24-.72.62-1.11.68-1.33.18-2.68.27-4,.35l-11.43.66c-.9.06-1.8.27-2.7.29a31,31,0,0,0-4.72,0,59.79,59.79,0,0,1-10.67,1.44c-1.85,0-3.85.27-4.79,2.24l4,.68.35.5-.74,2.13-3.7-.62-.83,1.14c-.37-.17-.76-.49-1.14-.48a27.78,27.78,0,0,0-6.4.3c-2,.49-3.73-1.24-5.88,0-1.28.77-3.39.14-5.21.14,0-.49.05-.87.07-1.25l-.41,0v3.51l-1-.94L470,325l.8,1.05-2.93-.66v0c-2.36.8-1.76-1.51-2.52-2.47a14.89,14.89,0,0,1-1.72.33c-1.22.11-2.44.16-3.66.21a10.65,10.65,0,0,0-2.95.13c-.73.26-1.24,1.13-1.73,1.62,0-.33-.05-1-.08-1.59-.88,0-2.74,1.33-2.48,1.77.9,1.49-.45,2.05-1.21,2.24a17.76,17.76,0,0,1-4.09.08c.32-.56.48-.83.7-1.23-1.84.37-3.53,1.5-5.23-.51.22,2-.68,2.77-2.31,3-.18-1.41-1.22-1.22-2.21-1.26-2.7-.1-5.17-.76-6.9-3.18-.29.46-.57.88-.82,1.27l-6.06-1.23c0-.28,0-.56,0-.84.55,0,1.1,0,1.65-.06.32,0,.64-.09,1-.14a4,4,0,0,0-.63-.67A.78.78,0,0,0,426.18,322.81Z" transform="translate(-53.63 -107.88)"/><path class="cls-2" d="M426.18,322.81h0S426.18,322.81,426.18,322.81Z" transform="translate(-53.63 -107.88)"/><path class="cls-2" d="M500.72,458.7l.12-.57-3.85-1c0,.18-.05.36-.07.54Zm-12-2.92,2,2.4.32-.2-.22-1.34,2.73.59C492.81,456,490.64,455.31,488.7,455.78Zm-7-2.88,3.29.34c-.22-2-.22-2-1.18-2,0,.34.08.66.11.94l-2.24.1C481.73,452.47,481.73,452.69,481.74,452.9Zm6.5,3.8a4.8,4.8,0,0,0-5.72-1.68C483.9,457.13,486.21,456.08,488.24,456.7Zm-22.3-3.22c.49.66.86,1.74,1.48,1.9a15.89,15.89,0,0,0,3.79.09l.42-1.23c.33.14.83.18,1,.43,1,1.84,2.46,2.08,4.29,1.44a5.17,5.17,0,0,1,1.44,0c-.46-2.13,1.75-.61,2.36-1.6-1.4-.6-2.57-1.76-4.37-.84l1.44,1.35c-.25.27-.46.71-.71.73a4.63,4.63,0,0,1-4.24-1.89l2.5-.23-3.8-1.6-1.23,2.78c-.22-.54-.37-.74-.35-.91.32-2,.32-2-1.57-2.07a4.06,4.06,0,0,1,.12.91c-.05.52-.18,1-.27,1.56-.49-.17-1-.3-1.47-.51-.19-.09-.31-.33-.46-.5ZM455.26,453v-.89l-.94,1.44c3.91.48,7.55,2.36,11.52,1.07a3,3,0,0,0-3.28-1,7.59,7.59,0,0,1-2.93.16C458.18,453.67,456.76,453.32,455.26,453Zm-23.76,3c-.17.18.26.91.52,1.67.82-1.14,1.39-1.93,2-2.72l-.45-.52A12.27,12.27,0,0,0,431.5,456.08Zm-5,18.65a44.33,44.33,0,0,0-4.56-1.21l-.24.67,4.75,1.81a7.94,7.94,0,0,1,1.67.77c2.06,1.44,4,3.1,6.15,4.36,4,2.32,8.08,4.43,12.17,6.58a18.82,18.82,0,0,0,2.68.92c-.14-1-.14-2-1.3-1.27-.13.07-.51-.11-.67-.27-1.56-1.58-3-3.25-4.67-4.75a14.69,14.69,0,0,0-3.82-2.83C434.66,477.77,430.57,476.24,426.49,474.73Zm-23.17-11.85-2.61.63,1.62,1.53C402.62,464.41,402.87,463.85,403.32,462.88Zm-11.67,8.82c-.59-3.1-1-6.25-1.29-9.4a14,14,0,0,1,.47-4.36c.16-.63,1-1.09,1.53-1.67-.49,2-1.29,3.62-1.26,5.26a30.77,30.77,0,0,0,1.5,9.78c.46,1.3.75,2.66,1.11,4l.69-.12c-.15-2.28-.31-4.57-.45-6.64.28.08.8.39,1.23.29s.68-.61,1-.94l-1.32-1.16c.41-1.89.79-3.71,1.23-5.8a7.05,7.05,0,0,0,6.95.74c0-.81,0-1.7,1.34-1.41l2.34.05a5.08,5.08,0,0,0,1.27,1,16.26,16.26,0,0,0,1.89.24c2.14.5,4.26,1,6.43,1.58.58,1.29,2.15,1.68,3.4,2.45l1.34.22,4.66,3.67,1.77,1.39a9.47,9.47,0,0,1-3.2-.92c-2.29-1.3-4.44-2.85-6.76-4.1A30.06,30.06,0,0,0,406.89,462,2.6,2.6,0,0,0,404,463.5l3.61,2.53c-.05.43-.09.76-.13,1.08l1.79-.29a1.32,1.32,0,0,0,.46.38,36.77,36.77,0,0,1,5.09,2.34,17.14,17.14,0,0,0,7.24,3.13c4.53.51,8.58,2.45,12.84,3.78a37.1,37.1,0,0,1,5.1,2.43c.07-.12.15-.23.22-.34-.52-.41-1.47-.81-1.48-1.22a2.51,2.51,0,0,0-2.4-2.69c.21-.41.37-.74.54-1.06l-4.27-1.95a8.09,8.09,0,0,0,1.32-.51c-.26-1.37-.8-2.56-2.31-2.9.18-3-1.39-4.59-4.54-5.38l2.25-.78c-1.73-1.89-1.35-3.6.79-5.35-2.62-.69-4.82-1.43-7.08-1.8-1.47-.23-2.54-.48-2.55-2.51,1.46.91,3.17,0,4.71.18a2.7,2.7,0,0,1,1.87,1.11c.25-1.3,1.12-.95,1.9-.65.93.35,1.67.53,2.27-.62a1,1,0,0,1,1.76-.23c.21.2.83.15,1.19,0,1-.34,1.9-.79,2.83-1.19a5.73,5.73,0,0,0,.22,1.71c.88,1.56,5.76,2.08,7.18.82-1.57-1.28-3.87-1.34-4.78-.13-.62-.55-1.24-1.08-2-1.76l2.89-.18c-.5-.52-.77-.81-.79-.84l2.41-1.2c.79.81-2,1.42-.39,2.34l3.95-2.07.8.46c-.3.39-.5.65-.79,1l2.46.4c-.23-.47-.37-.76-.67-1.4,1.55.52,2.81.87,4,1.37.38.16.58.73.87,1.12a4.34,4.34,0,0,1-1.44.38c-.59,0-1.28-.66-1.71-.49a3.84,3.84,0,0,1-4.47-.77c-.14-.13-.47-.08-.76-.13,1,2.47,2.79,2.79,5,2.31,0-.17-.07-.35-.08-.4l4.37,1c-.1-1.29-.17-2.22-.24-3.18l-.94-.3c1.45.56,3.25-1.27,4.62,1,.62,1,2.81,1.1,4.48,1.67.1-.69.18-1.26.3-2.13a44,44,0,0,1,4.49.9c1.08.33,1.93.56,2.43-.7h0c-.43-.5-.74-1.3-1.63-.52-.18.16-.63,0-.95,0-3.54-.55-7.07-1.17-10.62-1.66a69.31,69.31,0,0,0-7.85-.78c-2.18-.05-4.38-1.42-6.56,0,0,0-.24-.19-.38-.25-1.05-.43-2-1.12-3.2-.11-.28.25-.95.16-1.42.07a19,19,0,0,0-8.58,0c-.82.21-1.44.2-1.08,1.41.15.55-.5,1.33-.82,2.11l-.55-1.24-.85.74c.36-1.46.67-2.69.94-3.77.56-.22,1.26-.28,1.55-.65.69-.89,1.38-.87,2.39-.64,1.47.33,3.23.92,4.44.4a6.86,6.86,0,0,1,4.14-.33c2.24.41,4.28-1,6.6-.36,1.68.46,3.58.06,5.37.22,2,.17,4,.5,6,.84.77.14,1.49.66,2.26.72,2.06.17,4.13.2,6.47.29.1-.17.11-1.59,1.25-.22l-1,.57.24.45,2,.16c.13-.53.22-.92.33-1.38,2.19.4,4.27.8,6.36,1.14,1.42.23,3.1,0,4.23.65,1.64,1,3.2.32,4.77.53.6.08,1.24-.12,1.84,0,1.69.23,3.37.54,5.1.83.05.49.11,1,.11,1l-3.4.59c0,.13,0,.25,0,.38l7.75,2.09c0-.15-.09-.52-.16-.95,2.77.77,2.77.77,3.55-.29a9,9,0,0,1-1.81,0c-.31-.07-.54-.49-.8-.75L493.3,452c-.2,1-.3,1.41-.4,1.86-.3-.35-.61-.69-1-1.14h-1.26l-.15-.41c.67-.34,1.4-1.07,2-1,2.66.46,5.3,1.09,7.91,1.79,1,.28,1.93,1.12,2.93,1.27l-.24,1.34a12.79,12.79,0,0,0-3.14,0l5.06,1.38.83.05,3.33.54-.09.58a1.75,1.75,0,0,0-1.46.61c0,.05-.28-.13-.43-.16-1-.2-2-.42-3-.56s-2-.19-2.94-.27l-.09.55a15.83,15.83,0,0,0,2.86.85c2.82.32,5.68.41,8.5.78,1.84.24,3.63.9,5.47,1.18,3.75.57,7.51,1.05,11.27,1.49a18,18,0,0,0,2.87-.11c.22.21.5.71.85.77,3.15.5,6.31,1,9.48,1.35,2.14.25,4.31.27,6.46.39v-.12l-4.68-1,.13-.59c2.72.32,5.5.31,8,1.49h-2.34a2.35,2.35,0,0,0,1.35.61c1.75.13,3.51.14,5.25.32a25.91,25.91,0,0,1,5.46.85,4.8,4.8,0,0,0,3.38.05,5.13,5.13,0,0,1,2.72,0,13.74,13.74,0,0,1,2.49,1.11l.25-.62.66.09c0,.14,0,.27,0,.41a1.36,1.36,0,0,0,.88,1c3.13.37,5.59,2.28,8.31,3.59.78.38,1.5.88,2.37,1.39,0,.17,0,.82.26,1,.75.56.78-.17,1-.66,0-.1.57,0,1,0l-.69.49c3.44,1.18,7.08,1.54,10.21,3.29-.08.22-.15.43-.22.64-.67-.21-1.34-.44-2-.62-3.21-.88-6.43-1.71-9.63-2.65-.7-.2-1.24-.87-1.93-1.13-3.14-1.2-6.2-2.65-9.62-3-3.23-.3-6.45-.65-9.68-.92-.89-.08-1.81.11-2.72.09-2.86-.05-5.72-.11-8.58-.23a5.35,5.35,0,0,1-1.53-.55,3.47,3.47,0,0,1-3.13.91,42,42,0,0,0-5-.5l.53-.92c-2.29-1.49-4.77-.64-7.11-.9a21.06,21.06,0,0,1-3.82-1.05c-.42-.13-.87-.6-1.2-.52a4.37,4.37,0,0,1-4.32-.63c-1-.78-3-.24-4.46-.49-1.75-.29-3.46-.81-5.19-1.23a13.74,13.74,0,0,0-1.87-.45c-3.19-.3-6.39-.52-9.58-.84-2.68-.27-5.35-.62-8-1-5.62-.73-11.22-1.5-16.84-2.21-1.76-.22-3.54-.24-5.31-.4-5.72-.52-11.44-1.22-17.17-1.55-4.68-.26-9.38-.1-14.07-.11-1.59,0-3.18,0-4.77.06a14.1,14.1,0,0,0-2.07.38c-.22,1.66-.41,3.17-.61,4.68l-.51.23-.53-1.29-.37.23c0,.24-.16.55-.06.7.92,1.32,1.84,2.66,2.86,3.9,3.86,4.69,7.62,9.48,11.71,13.95,2.35,2.56,5.28,4.58,7.94,6.85,1.14,1,2.23,2,3.39,2.94.84.69,1.82,1.21,2.64,1.92.53.46.8,1.2,1.3,1.69,1.51,1.47,3.05,2.92,4.64,4.31,1.79,1.56,3.67,3,5.45,4.59.24.21.08.88.12,1.65l1.08.78c-2.2.54-1.61,2.42-1.91,4.12-.74-.82-1.28-1.39-1.77-2A13.72,13.72,0,0,0,465,503c-.79-.29-1.72-.2-2.51-.48a14,14,0,0,1-2.25-1.34c-1.07.5-2-.19-3.09-1.19a23.09,23.09,0,0,0-4.36-2.61c-5.1-2.89-10.19-5.81-15.31-8.67-3.21-1.79-6.54-3.36-9.71-5.23a61.46,61.46,0,0,0-10.85-4.9c-3.37-1.18-6.83-2.14-10.28-3.09a11.16,11.16,0,0,0-3,.17l1.37-1-.06-.4-6.69.62a28.49,28.49,0,0,1,1.34,4.31c.12.78-.46,1.64-.67,2.48-.48,1.92.06,3.79,1.33,4.5.13-1,.25-1.92.37-2.87l.44,0c0,.72,0,1.45,0,2.17a27.84,27.84,0,0,1,.3,2.85c0,.42-.48,1.14-.81,1.18-1.4.19-1.11,1-.92,1.9.13.6.26,1.21.38,1.81l-1.81.64h0c-.47-1.35-.93-2.69-1.4-4l-.54.29-.54.07c-.05-.32-.09-.63-.13-1-.23-1.74-.42-3.48-.54-5.23-.14-2-.28-3.94-.23-5.91a14.7,14.7,0,0,1,.75-3.06l-.53-.35L393.42,477A38.87,38.87,0,0,1,391.65,471.7Zm63.94,21.22c.11-.24.22-.48.34-.71l-2.08-1,1.09-.65a2.58,2.58,0,0,0-1.72.1c-.14.07-.22.84-.09.92C453.91,492.1,454.76,492.49,455.59,492.92Z" transform="translate(-53.63 -107.88)"/><path class="cls-2" d="M331.36,264.35l-.88-.8,3.16-4.37,2.18-.7c-.42-.73-.71-1.22-1-1.75,2.07-.5.78-1.39.28-2.29l3,.35.29,1,1.1.64a9.89,9.89,0,0,0-.59.93c-.67,1.23-1,3.14-2,3.56-1.69.73-1.29,2-1.74,3.12,0,.09-.16.13-.34.27-.33-.12-.72-.28-1.12-.4s-.71-.13-1.38-.25c1.66,1.66,1.62,2.44.13,4.16l-1.25-.66a3,3,0,0,0-.2.29c.35.71.7,1.41,1,2-.66.83-1.13,1.87-1.92,2.28-1.08.55-.79,1.15-.31,1.63.66.65.54,1,.24,1.85s-1.08,1-1.68,1.37c-1,.69-2.07,1.39-3,2l-.63-.93V275.9l-1.09.75c-.1-.34-.34-.71-.25-.93.76-1.73,1.08-3.66,2.67-5a11.65,11.65,0,0,0,2.1-2.48c.74-1.11,1.3-2.34,2-3.46C330.31,264.54,330.86,264.52,331.36,264.35Z" transform="translate(-53.63 -107.88)"/><path class="cls-2" d="M185.19,326.55l-1.92-.91-.3-.74.05,0c2.71,0,2.69,1.82,3,3.42h-2.36c-.56-1.43.52-1.32,1.54-1.26C185.18,326.88,185.18,326.72,185.19,326.55Z" transform="translate(-53.63 -107.88)"/><path class="cls-2" d="M301.54,299.15a2.12,2.12,0,0,0,1-1.68l-3.23.61C299.65,299.33,300.3,299.66,301.54,299.15Zm-7,209.41c-1.16,1.87-.93,2.53.93,2.78.09.46.18.91.26,1.36l.49.17a8.18,8.18,0,0,0,.68-1.59c.23-1.14.26-2.32.52-3.45s.75-2.2,1.1-3.32c0-.11-.28-.47-.32-.45a2.89,2.89,0,0,0-1.2.65C296.09,506,295.3,507.26,294.51,508.56Zm-2.74,4.69c-.64,1.16-1.73,2.45-1.61,3.57a22.84,22.84,0,0,0,1.91,6,41.88,41.88,0,0,0,2.34,4.31c.21.36.5.68.92,1.25.31-3.57.72-6.75.8-9.94,0-1.19-.37-2.89-1.2-3.49-1.46-1.05-.29-1.27.2-1.86l-1.89-1.75A17.57,17.57,0,0,0,291.77,513.25Zm-6.93-259.43c-.19-1.22-.35-2.31-.52-3.42a11.07,11.07,0,0,1-.57,2.07C283.29,253.43,283.65,253.71,284.84,253.82Zm-3.27-15.5c.43,2.61.84,5.22,1.37,7.8a8.36,8.36,0,0,0,1,2l.58-.24c-.51-1.86-1-3.71-1.56-5.65l1.67-.23c-1.79-.91-1.88-2.45-2-4,0-.41-.39-.79-.6-1.19l-.44.24A7.8,7.8,0,0,0,281.57,238.32Zm-.31-2.52.67,0c.15-1.32.31-2.64.43-4,0,0-.44-.08-.78-.15C281.46,233.16,281.36,234.48,281.26,235.8Zm-17.4,330.26c-.18.28-.5.56-.52.85-.06,1.26,0,2.51,0,3.77l.65.11c.22-1.29.49-2.57.62-3.87C264.62,566.66,264.12,566.35,263.86,566.06Zm-5.35-290c1.64-1.63,1.77-2.34.37-3.47C258.74,273.93,258.62,275,258.51,276.09Zm3.13-9.38c.05-1,.52-1.23,1.37-1.08.32.05.64.14,1,.21l.21-.52-1.69-.77c-.18-.29-.45-.75-.73-1.22a7,7,0,0,0-.83,1.51c-.3,1.2-.19,2.59-.76,3.62-.81,1.47-.28,2,1.07,2.54C261.38,269.51,261.57,268.11,261.64,266.71ZM256,288.3a20.23,20.23,0,0,1,.26-2.41c.22-.95.6-1.87.87-2.81.42-1.45.79-2.92,1.24-4.36.13-.42.51-.75.67-1.16,0-.08-.44-.36-.68-.54a5.91,5.91,0,0,0-.85,1.38c-.75,2.66-1.31,5.38-2.18,8C254.87,287.66,255.39,288,256,288.3Zm-6.77,28.3c1.19-2.11,2.49-4.27.85-6.72l-4.64,4.25,2.1,4.26A9.16,9.16,0,0,0,249.18,316.6Zm1.88-12c.66-2.72.66-2.72-.88-2.6.11.92.22,1.82.32,2.71Zm-4.61,13.67-2.3-2.27c-.61.89-1.05,1.52-1.59,2.29l3.55.45ZM220.07,540.8a10,10,0,0,0,.34-1.76,24.79,24.79,0,0,0-3.1,6.43,1.39,1.39,0,0,0,1-.65C218.9,543.5,219.52,542.17,220.07,540.8ZM233,509.54a52.4,52.4,0,0,1,4.82-5.05,58.49,58.49,0,0,1,6.19-3.93,4.24,4.24,0,0,0-.64-.31c-2.17-.68-3.76.74-5,1.91a80.61,80.61,0,0,0-6,6.79Zm4.28-197.06c2.6.46,2.87.36,3.12-1.28C237.92,311.21,237.92,311.21,237.26,312.48ZM189,485.3c-.1.87-.24,1.73-.26,2.59,0,.17.49.35.83.57v-3Zm-1.47,52a88.15,88.15,0,0,0-1.23-26.87c0,3,.28,6,.37,9s0,6.1,0,9.15.09,5.83.14,8.74Zm-2.93,39,1.43-.49c.47-10.91.93-21.72,1.4-32.53l-.52,0Q185.78,559.73,184.61,576.28Zm2.33-235.06c.86-1.54.49-2.36-1.5-3.34Zm-1.45,150.26c.64-1.79-.5-1.74-1.66-1.53-.05-.48-.09-.84-.17-1.65a5.44,5.44,0,0,0-.46.95c-.43,2.35,1.29,3.79,2.48,5.35a4.78,4.78,0,0,1,1.07,4.59c-1.42-3.33-1.42-3.33-2.88-4l3.48,8.56q.71-5.43,1.26-9.74c-.54,0-1.15.17-1.33,0a7.13,7.13,0,0,1-.91-1.68l3.43.45c-.66-1.2-1.4-2.52-2.12-3.81-1.65.53-1.37,1.93-1.63,3.07C185.86,491.79,185.46,491.56,185.49,491.48Zm-1.92,102.77c-1,2.18-.84,2.42,1.18,2.69Zm-1.6-58,1.23,2.47c-.18-1.32-.34-2.53-.53-3.91C182.33,535.5,182.07,536,182,536.24ZM163.15,375a5.31,5.31,0,0,1,.36,1.64,3.59,3.59,0,0,1-.67,1.27l2-.27C165.63,375.79,165.28,375.25,163.15,375ZM160,361.44l1.19-.79-.15-.45-3.17-.33c-.05.1-.11.19-.16.28Zm2.89,1.62c-1-.12-2-.57-2.53-.23s-.61,1.43-.73,1.77c.82.43,1.4.55,1.6.89,1,1.65,2.3,1.67,4.1,1-2.58-1-.82-4.34-3.45-5.24C162.25,361.89,162.62,362.55,162.89,363.06Zm-1.32,14.78c0-.32-.61-.59-.94-.89.46,2.39-.67,4.23-1.54,6.13-.63,1.38-1.21,2.77-1.78,4.07h2c.37-1.48.76-3,1.15-4.53l.39.06c.2.48.41.95.61,1.42h.41C161.81,382,161.75,379.93,161.57,377.84Zm-4-15-1.36-2.3h0c-.68-.75-1.33-2.12-2-2.13-2.19-.06-3.06-1.84-4.52-2.81l-2.51-1.67c.27-.55.31-1.33.07-1.43-1.71-.71-3.48-1.28-5.24-1.9a52.25,52.25,0,0,0,5.73,5.17c2,1.58,4.07,3.06,6.06,4.54l-1.27.36.09.47,3.61-.6-.71,4.39c1.34-1.91,1.55.22,2.31.5a11.42,11.42,0,0,1,2.4,1.68l-.26.23c.86,1.08,1.64,2,2.32,3a4.67,4.67,0,0,0,2.91,1.65,38.29,38.29,0,0,1-3.78-4.89c-.66-1.15-1.36-1.61-2.23-1.59ZM150.1,507.08l1.69.69,1.26-2.74-.28-.21Zm-12.25,8.37a1.69,1.69,0,0,0,.81-.59c.38-.53.68-1.12,1.18-2a21.31,21.31,0,0,0-2.11,1.16,1.36,1.36,0,0,0-.43.92C137.28,515.13,137.71,515.49,137.85,515.45Zm2.09-9.39c-2-.46-2.6.26-1.67,2.89Zm8.54-3.64a5.5,5.5,0,0,0-1.67.49c-2,1.26-2,1.29-3.2-.6,0,0-.19,0-.64,0l1.58,3.22Zm-16.67,16.85,1.05-.95c-.37-.21-.74-.59-1.1-.58s-.72.42-1.08.65Zm.31,1.09c1.9.25,2.66-.36,3.84-2.61l-.4-.44Zm2.49-8.94a4.28,4.28,0,0,0,1.59-4c-.11.43-.16,1-.43,1.13-1.28.8-1.74,2.65-3.59,2.74-.23,0-.43.83-.64,1.27l.38.45A12.49,12.49,0,0,0,134.61,511.42Zm1.62-4.22c.14-.26.25-.6.47-.68,2.62-1,2.71-4.23,5.29-5.6-.56-.1-.79-.2-.85-.13-1.75,1.87-3.49,3.75-5.19,5.67C135.87,506.55,136.11,506.93,136.23,507.2Zm-7.81-88.67c1.89-1.17,3.75-2.39,5.6-3.62.56-.36,1.07-.81,1.6-1.22,4.51-3.63,9.07-7.29,12.2-12.41-7.29,7.07-15.76,12.69-23.49,19.27A21.91,21.91,0,0,0,128.42,418.53Zm-8.44,1.6c-.57.18-1.12.43-1.77.69.88,1.47,1.59.26,2.28,0,.17-.06.22-.48.33-.74A3,3,0,0,0,120,420.13Zm-1.76-1,3.34-1.93-.32-.6-3.34,1.8Zm-45,32.39c-1.53-1.3-5.45-1.19-6.68.55Zm.61-2.62c1.89.1,3.36-.38,3.54-2.7C75.68,446.24,73.68,447.78,73.85,448.87Zm13.78-7.6c-1.46-.9-3.17,0-3.88,1.9Zm-2.18-1.82a9.11,9.11,0,0,0,1.69-1.05l-.27-.43-2.51.42C84.86,438.89,85.29,439.51,85.45,439.45ZM309.42,298H307c-.41-.75-.55-1.6.76-1.72s1.07-.78.58-1.51c.5-.23,1-.29,1.19-.57a1.15,1.15,0,0,0-.12-1.12,1.18,1.18,0,0,0-1.1-.18,3.85,3.85,0,0,0-1.34,1.07c-.83,1-.2,2.95-2.19,3.16-.08,0-.2.48-.17.71.12.88.29,1.75.42,2.52C307.12,300.76,308.36,300,309.42,298Zm203.72-93.81.42.73,4.47-3-.25-.39ZM322.57,284.77c.06-1,.12-2.07.19-3.17l-1.53-.15c.27,1.3.48,2.34.7,3.38Zm-9.31,10.08c1.61-.38,1.95-1,1.44-2.27h0l-1.34-2.44.76-1.64-.48-.24-.85,1.6a14.77,14.77,0,0,1,.64,2.5A15.33,15.33,0,0,1,313.26,294.85Zm3.73-6.71-.49-.2-1.74,4.64c1,.15,1.41-.52,1.62-1.33C316.64,290.23,316.79,289.18,317,288.14Zm0-.84c.41-.11.76-.63,1-1.06.05-.1-.38-.6-.68-.77-2-1.14-1.29,1.19-2.16,1.63A5.39,5.39,0,0,0,317,287.3Zm109.45-16.05c1.59.86,3.75-.53,3.91-2.67Zm-14.29,315L410,585l-.28.39c.24.63.48,1.27.78,2Zm.87,1-4.15,2,1.77,3,.14,0-.57-2.06.45-.13c2,3.36,2.8,7.48,6.45,9.82-.35-1.57-.69-3.15-1.06-4.81l-1.06.68a3.78,3.78,0,0,0-.23-4.39C413.9,590.09,412.57,589.14,413,587.27Zm-4.35-441.12-1.62,2.13c.17.86.32,1.67.53,2.74C409,149.53,408.59,147.79,408.67,146.15Zm-1.46.3c1.12-2.09,1.85-4.67.75-5.94a16.9,16.9,0,0,0,.78-2.84c.3-3.21.53-6.43.74-9.65.13-1.9-.45-4.15.38-5.63,1.46-2.6.27-5.37,1.31-7.87a3.58,3.58,0,0,0,.17-1.92,4.53,4.53,0,0,0-.85-1.38,9.26,9.26,0,0,0-.95,1.14,3.23,3.23,0,0,0-.48,1.35c-.18,2.75-.25,5.51-.45,8.27-.34,4.65-.74,9.29-1.14,13.93-.11,1.29-.4,2.56-.42,3.84,0,1.44.2,2.87.26,4.31C407.34,144.86,407.25,145.66,407.21,146.45Zm-.28,438c-.3.35-.83.69-.85,1s.44.81.7,1.21l1.27-1.18ZM404,186.13c-.06.41.32.9.53,1.4.46-1.33.79-2.26,1.1-3.21a.66.66,0,0,0,0-.48c-1.19-2.63-.09-5.3-.14-8,0-1.69-.86-3.61,1.53-4.77l-1.23-.43a9.94,9.94,0,0,0,.6-2.1c.06-1.27-.13-2.55-.07-3.82.07-1.49.29-3,.47-4.62,2.09-.32,0-1.44.17-2.11a9.9,9.9,0,0,0,.94-.93c-.78-1.05-.22-2.17.06-3.07.47-1.48.38-2.27-1.62-2.3a28,28,0,0,1,0,3.55c-.3,2.36-.77,4.69-1.12,7.05,0,.31.3.66.38,1a4.56,4.56,0,0,1,.13,1.37c0,.46-.3.9-.35,1.36-.33,3.19-.65,6.39-.95,9.58a30.44,30.44,0,0,0-.28,4.66A25.09,25.09,0,0,1,404,186.13Zm.43,35.87-2.85.81,2.46,1.95C404.18,223.73,404.29,222.91,404.42,222Zm-1.88-7.34,2.26-.43-2.26-2.18Zm1.24-11.87a3.21,3.21,0,0,0,.21-4.36c1.46-2.79,1.36-9.58-.38-10.65.11,1.46.26,2.79.28,4.12a28.84,28.84,0,0,1-.11,4.36,32.67,32.67,0,0,1-1,4l1.39-.78-.47,1.71a5.41,5.41,0,0,0-.47-.39,1.14,1.14,0,0,0-.3-.1c-.6,3.44-1.14,6.86.4,10.2.21-.35.41-.85.25-1-.89-1-.38-1.66.33-2.07-.2-1-.14-1.86-.53-2.36C402.56,204.29,403.05,203.48,403.78,202.79ZM401,131c.7,3.69,1.4,7.36,2.09,10.95.53-6,1.07-12,1.64-18.34C402.52,126,403.35,129.37,401,131Zm-2.1,50c1,.49.48.9.18,1.59a2,2,0,0,0,1,2.85c0-1.92.05-3.55.08-5.18l-1.36-.06C398.83,180.5,398.75,181,398.88,181Zm-1.49,387.64a8.73,8.73,0,0,1-2.16-1c-.63-.54-.92-1.45-1.51-2a11.27,11.27,0,0,0-1.87-1.29c-.72-.35-1.16,0-.64.93.29.51.65,1,1,1.46,1.3,1.85,3.57,2.89,4.31,5.21.08.27.53.7.64.66,1.7-.75,2.15,1,3.22,1.47l-.44.37a5.67,5.67,0,0,0,.59,1.4c.49.62,1.14,1.1,1.65,1.69s1.17,1.56,1.82,2.28c1,1.1,2,2.15,3.05,3.21a5.2,5.2,0,0,0,.6.45,11.87,11.87,0,0,0-1.26-2.82c-1.42-1.77-3-3.4-4.54-5.11a2.1,2.1,0,0,1-.59-.95c-.16-1.17-.59-2-1.92-2.1l1.64-.17.21-.44a4.44,4.44,0,0,1-4.89-2.82ZM354.81,218.33l-2.27,4.88c1.13-.12,1.8-1.39,1.6-1.84l2-1.84ZM382,552.48l.94-1.29-3.1-2.62-.12.18ZM328.74,258.73l-.37-.42c-1.61.27-1.44,2.11-2.1,3.15a30.26,30.26,0,0,0-1.87,4.13l.37.17Q326.77,262.25,328.74,258.73Zm21.88,255.2c.05.65,0,1.07.12,1.24,1.67,1.72,1.77,4.79,4.69,5.42a1.19,1.19,0,0,1,.54.34c3.37,3.79,6.75,7.57,10.07,11.4a6.11,6.11,0,0,1,.62,1.91,2.53,2.53,0,0,1,2.24,2.57c0,.34.48.72.8,1a11.5,11.5,0,0,1,1.72,1.32c1.08,1.39,1.88,3,3.08,4.3a59.36,59.36,0,0,0,5.11,4.52,3.24,3.24,0,0,0,1.15.36c-1.35-2.14-2.59-4.17-3.89-6.14-1.75-2.66-3.5-5.32-5.36-7.91a9.28,9.28,0,0,0-2.46-2.38c-1.71-1.11-3.22-2.26-3.74-4.39a7.5,7.5,0,0,0-1.15-1.86l-.49.28c0,.36,0,.73.06,1.25a10,10,0,0,0-1-1.71c-.52-.58-1.21-1-1.77-1.54-1.08-1-1.89-2.24-3.41-2.94s-2.55-2.11-3.74-3.29c-.18-.17,0-.76.08-1.15l-.36.31Zm-1-316.83c1.14,1.14,2.81.39,2.91-1.48a66.94,66.94,0,0,0-.31-6.77l-.73,0a17.54,17.54,0,0,1-.67,2c-.3.69-.81,1.28-1.08,2a8.83,8.83,0,0,0-.64,2.51A2.4,2.4,0,0,0,349.59,197.1Zm-6.66,19.81c-.26-.17-.58-.52-.77-.46-.44.15-1.07.41-1.18.76-.38,1.3-.58,2.65-.84,4l.46.18c.18-.31.6-.74.51-.91-.68-1.29.26-1.79,1-2.45A5.54,5.54,0,0,0,342.93,216.91Zm6.13-19.51-.64-.14c-.2.73-.8,1.79-.52,2.15.91,1.16,2,.16,3.07.12,0-.14,0-.28,0-.42l-1.6-.4Zm-4.68,17.33c-.33-1.27-.59-2.26-.84-3.19-1.91.75-.37,2-.34,3A5.53,5.53,0,0,0,344.38,214.73Zm6,11.44c-3,4.6-6,9.2-9,13.79-1,1.59-2.28,3.08-3.25,4.71-3,5-6,9.9-8.71,15s-6.46,9.51-7.89,15.2a3.55,3.55,0,0,1-.65,1.1c-.95,1.28-.52,2.34.76,3.29,0-.62.07-1.24.12-2.14l2.89.54.63.93-.68.46,1.71,1.46a34.51,34.51,0,0,1,3.28-3.8c.78-.69,1.7-1.07,1.3-2.32s.42-2.15,1.29-3a13.43,13.43,0,0,0,1.53-2.22,6.88,6.88,0,0,0,1.87-1.74,20.09,20.09,0,0,0,1.28-2.27c.65-1.25,2.1-2.21,1.4-3.87l1.18-.24a7.22,7.22,0,0,1-.4-1c0-.15.09-.35.12-.53.21-1.09,1.57-2,.6-3.49l-.26.37-1.1-.64.83-.3c.18-1,.3-1.69.43-2.38-1.5.14-1.5.14-1.39-1.83l2.58,1.21c.22-1.91.16-3.6-2-4.52l.43-.38,2,.49a10.33,10.33,0,0,1,1.85-2.24,11.38,11.38,0,0,1,2.46-.72,1.14,1.14,0,0,0,.68-.84c0-.35-.41-.68-.68-1.08a14.23,14.23,0,0,1,.85-2.25c1-1.78,1-1.83-.77-2.64.17-.9.34-1.79.6-3.14.49,1.23.81,2,1.26,3.13.52-1.58.87-2.61,1.22-3.66h-1.31l1.59-3.32-.38-.15.31-.52,1.88,1.28c-.51,1.32-.91,2.38-1.37,3.58,2,.15,1.52-1.56,2-2.31a5.68,5.68,0,0,0,.36-2.61,10,10,0,0,0,1.59-.53c-.17-1,.08-2.34-1.52-2.93a5.9,5.9,0,0,1-.4,1.48,4.85,4.85,0,0,1-1.05,1c.23-1.37.41-2.5.59-3.64C350.63,226,350.49,226.05,350.41,226.17Zm-5.36,283.58c.92,1.72,3.06,2.78,4.65,4.13.68-.94,1.27-1.07,2.37-.14,3.76,3.17,7.63,6.25,11.18,9.66,3.94,3.77,8,7.46,11.11,12,1.89,2.77,3.82,5.52,5.56,8.38,1.53,2.51,2.57,5.31,4.5,7.61.34.41.16,1.25.19,1.54l3.11,3.45a2.27,2.27,0,0,1,.89,1.13c.25,1.17,1.5.92,2.06,1.64,1.19,1.52,2.43,3,3.65,4.49,1.75,2.15,3.86,4,5.48,6.25a43.76,43.76,0,0,0,4.17,4.57c.4.43.87.79,1.31,1.18l.21-.23c-.37-1.26-.75-2.52-1.12-3.77l.5-.21c1.07,2.43,2.15,4.86,3.33,7.55l-1.64-.68,3.27,3.55.52-.74c.22.71.35,1.26.56,1.77s.6,1.48.72,1.45c.89-.22,1,.38,1.29.92a23.49,23.49,0,0,0,1.49,2.08c-.75-3.86-1.35-7.63-2.23-11.33s-2.07-7.38-3.23-11.46c.71-1.35.35-2.4-1.53-2.9,1.71-2.29-.09-4.42.16-6.66l-.45,0c-.09.49-.18,1-.33,1.78a6.61,6.61,0,0,1-.43-.79c-.94-2.56,1.06-5.44-.85-7.91a.18.18,0,0,1,0-.16c.88-1.71-.1-3.4-.32-5-.49-3.53-1.6-7-1.49-10.58a2.29,2.29,0,0,0-.15-.94,47.53,47.53,0,0,1-1.87-10.64c0-.25-.47-.64-.79-.73a3,3,0,0,0-1.11.13l-1.35-3.46.21-.08.63,1c.3-.92.94-2,.68-2.27-1.15-1.42-.75-3-.82-4.51,0-.3-.48-.58-.86-1,.17-1.11.39-2.46.6-3.79l-2-4.65c1-1,.05-2.23-.11-3.44-.33-2.55-.71-5.09-1.05-7.64l.54-.07c.68,3.45,1.28,4.75,2.43,5.12l-.48-1.38,1.81-.64c.38,1.81.75,3.62,1.09,5.43.38,2,.68,4,1,6,.41,2.47.77,4.95,1.27,7.4.45,2.17,1.09,4.29,1.58,6.45.39,1.77.69,3.56,1,5.34.66,3.79,1.35,7.57,1.95,11.37.5,3.12.83,6.26,1.33,9.38.43,2.73.95,5.44,1.52,8.15.51,2.39,1.16,4.75,1.71,7.13,1.05,4.57,2.1,9.13,3.09,13.71.55,2.56,1,5.15,1.47,7.73a24.7,24.7,0,0,1,.79,3.21,46.18,46.18,0,0,0,1.5,7.65c1.14,4.85,2.35,9.69,3.53,14.53.07.31.18.79,0,1-1.06,1.1-.58,2,.47,2.87l-.43.4-6-4,.26-.46,1,.37.26-.36c-.49-.37-1-.72-1.46-1.12-.81-.69-1.62-1.39-2.37-2.13-.49-.49-.83-1.13-1.33-1.6a66.62,66.62,0,0,1-8.66-10.66c-2.45-3.53-4.86-7.1-7.51-10.47-2.15-2.72-4.69-5.14-7-7.77-3.9-4.5-7.68-9.11-11.59-13.6-2.06-2.36-4.32-4.55-6.47-6.84a24,24,0,0,1-3-3.39c-2.35-3.74-6.28-6.07-8.61-9.81-.11-.18-.41-.25-.89-.15a13.83,13.83,0,0,0,1.24,2.07,1.69,1.69,0,0,1,.08,2.38,3,3,0,0,0-.23,1.68,14.21,14.21,0,0,0,.36,1.9H359c2,1.71.53,3.42.23,5.08l.46.08,1.14-.86,3.53,5.13c-1.33.33-1.87,0-3.75-2.42l-.43.19c.45,1,.64,2.43,1.42,2.94s2.34.4,3.61.56a10.55,10.55,0,0,0-.15,2.48,2,2,0,0,0,1.12,1.28c.28.12.84-.41,1.35-.68l.84,1.34-1.87.78c-2.8-2.76-2.8-2.76-2.95-4.07l-2.17-1.18a4.11,4.11,0,0,1-2.34,4.5,34.87,34.87,0,0,1-2.69-3.21c-3.15-4.79-6.27-9.55-10.33-13.69a24.78,24.78,0,0,1-5.65-7.73,1.84,1.84,0,0,0-.78-.81c-2.15-1.23-3.29-3.29-4.32-5.39-.83-1.68-1.45-3.46-2.31-5.12-.25-.46-1-.65-1.68-1.06.39-1.12-.62-2.2-1.67-2.75-1.56-.81-1.55-2.28-2.14-3.52a8.73,8.73,0,0,0-1.5-2.57,67.34,67.34,0,0,1-7.19-8.35,89.1,89.1,0,0,0-7.44-8.24,15.76,15.76,0,0,0-3.55-2.81,2.76,2.76,0,0,0-2.47-.14,4.61,4.61,0,0,0-1.5,3c0,1.34.89,2.62-1.28,3-.37.07-.69,1.14-.78,1.79-.49,3.49-.87,7-1.35,10.49-.14,1-.48,2-.72,3l.54.16,1.2-1.62c-.13.75-.09,1.2-.25,1.28-1.71.92-1.33,2.19-.77,3.62a35.9,35.9,0,0,1,1,3.48c-.79.07-1.71-.12-2,.23s-.22,1.3-.32,2c-.26,2-.45,4-.85,5.88a9.77,9.77,0,0,1-1.3,2.38c-5.29-3.19-6.63-8.87-9.74-13.52-.52,1.25-1,2.38-1.46,3.54-1.2,3.11-2.49,6.2-3.54,9.36-1.21,3.62-2.17,7.33-3.33,11-.74,2.33-1.8,4.56-2.46,6.9a52.44,52.44,0,0,0-1,6c-.41-.13-1.29-.18-1.44-.53a7.46,7.46,0,0,1-.46-2.67c0-.54.39-1.07.45-1.62a15.27,15.27,0,0,1,2.56-7.47,2.53,2.53,0,0,0,.29-1.34c-2.52,2.8-3.37,6.34-4.45,9.76-1.7,5.38-3.1,10.87-5,16.17a44.61,44.61,0,0,1-4.29,7.87c-.47.77-1.5,1.11-1.91-.23a61.7,61.7,0,0,1-1.81-6.75c-.9-4.79-1.68-9.6-2.38-14.41-.42-2.93-.64-5.88-.9-8.83-.47-5.13-.67-10.3-1.42-15.39-.46-3.14-1.87-6.12-2.6-9.23-.36-1.57,0-3.3-.25-4.91A50.5,50.5,0,0,0,248,505.5c-.86-1.85-2-2.28-3.79-1.19a16.64,16.64,0,0,0-6.48,6.36c-.72,1.39-2.19,2.37-3.06,3.7-1.55,2.38-2.86,4.91-4.33,7.34-1.77,2.93-3.66,5.78-5.36,8.75-1.18,2.06-2.12,4.27-3.21,6.39a24.46,24.46,0,0,1-1.35,2.17c.42-.15,1-.18,1.2-.48,1.25-2.12,2.37-4.32,3.59-6.45a6.61,6.61,0,0,1,1.17-1.26c-1.21,2.39-2.43,4.77-3.65,7.16-.92,1.79-1.84,3.59-2.77,5.38-.75,1.46-1.45,3-2.31,4.36-.26.43-.94.6-1.57,1,1.13,1.83-.67,2.9-1.39,4.28-1.29,2.44-2.78,4.77-4.05,7.22-1.49,2.87-2.81,5.83-4.24,8.74-2.5,5.09-5.13,10.12-7.48,15.28a55.45,55.45,0,0,0-2.32,7.48c0,.2.25.51.41.81l-2.77,1.86a4,4,0,0,1,1.19,0,3.1,3.1,0,0,1,.68.59c-1.41,1.14-.82,3-1.48,4.38a43.29,43.29,0,0,0-1.57,4.62c0,.13-.22.22-.36.34-.53-.77-1.06-1.52-1.8-2.58-1,2.53-2,4.86-2.88,7.2-.26.63-.47,1.28-.71,1.92-1.89,4.9-3.89,9.77-5.61,14.73-.45,1.29-.62,2.12-2.21,2-.38,0-.83.78-1.25,1.22s-.63.67-1,1c-.16-.5-.53-1.06-.42-1.48a30.12,30.12,0,0,1,1.17-3.14,10.18,10.18,0,0,1-.74-2.77c.19-4.19.47-8.39.82-12.57.29-3.53.76-7,1.08-10.57.47-5.09.91-10.17,1.29-15.26.29-4,.45-8.05.71-12.08.18-3,.45-5.9.65-8.86.22-3.28.37-6.58.64-9.86a46.22,46.22,0,0,0-.61-9.25c-.33-2.69-.34-5.43-.41-8.15-.06-2.2,0-4.4,0-6.81.39-.11,1.9.43,1.24-1.36l-1.39.52c-.14-.3-.43-.62-.42-.93.15-4.67-1.51-9.43.29-14h.45c.27,1.61.64,3.22.76,4.85,0,.49-.64,1-1,1.63,2,1.39,1.44,3.32,0,5.49l2.32-.49c-.3-3.06-.63-6.09-.9-9.13-.25-2.78-.46-5.57-.66-8.36-.24-3.33-.8-6.67-2.62-9.43-2.36-3.59-4.38-3.81-8.28-.94a2.21,2.21,0,0,1-1.06.5,4.33,4.33,0,0,0-3.88,5.58c.25.77.39,1.57.58,2.36l-.56.23-2.4-4.18,2.27-3.42c-1.65.87-2.89,1.48-4.08,2.17-.26.15-.31.64-.52.92-.51.64-1,1.24-1.86,2.19.11.63-.77,1.76-2,2.21-.56.19-1,.82-1.44,1.23a2.21,2.21,0,0,1-.65.46c-1.6.64-3.22,1.24-4.82,1.88a4.4,4.4,0,0,0-2.57,2.68c-.13.36-.58.61-.87.9l-.38-.35c.26-.36.51-.73,1-1.43a4.77,4.77,0,0,0-1.08.36c-1.67,1.54-3.32,3.1-5,4.64-.51.47-1,1.12-1.63,1.27-2.09.53-3.51,2-5,3.28-.59.52-1.56.6-2.28,1a4.78,4.78,0,0,0-1.29,1.21c-.32.41-.45,1-.82,1.34-.18.18-.69,0-1.06,0a2.55,2.55,0,0,1,.14-.94c.2-.33.55-.57.74-.94-1.88.61-2.09,1-1.2,2.51l-1.48.79c-.41-2.2.88-3.43,2.28-4.65-2.11-.72-3.6-.37-4.9,1.2a12.3,12.3,0,0,1-2.77,2.15c-1.37.9-1.93-.52-2.57-1.17a2.09,2.09,0,0,1-.16-2c1-1.49,2.17-2.82,3.27-4.22q5.33-6.75,10.62-13.49c3.44-4.37,6.84-8.77,10.32-13.11,1-1.25,2.29-2.27,3.3-3.51,1.75-2.14,4-3.74,5.61-6.06,3-4.3,6.5-8.23,9.64-12.44a24.61,24.61,0,0,0,2.54-4.92c.55-1.26-1-3.13-2.88-3.62-1.54-.4-3.09-.81-4.65-1.13a2.54,2.54,0,0,0-1.52.17l-1,.51a11.94,11.94,0,0,0-3.43-.74c0-.07,0-.15.08-.26a6.62,6.62,0,0,0-1-.17c-3.65,0-7.31.09-11,0-1.6,0-3.26-.73-4.79-.48-2.18.36-4.13-.56-6.22-.57a21.44,21.44,0,0,1-4.1-.64,2.33,2.33,0,0,1-.87-.47,22.32,22.32,0,0,0-2.39-.26c-2.16,0-4.31.08-6.46,0-1,0-2-.25-3-.32-.56,0-1.14.07-1.7.07-4.27,0-8.54,0-12.81-.07-3.18,0-6.37-.3-9.54-.23-5,.09-9.94.42-14.91.56-3.6.1-7.21.08-10.81,0A3.28,3.28,0,0,0,59,457.58a4.75,4.75,0,0,1-1.16,1.66,1.16,1.16,0,0,1-1.08-.24,7.21,7.21,0,0,1-.47-1.87l-1.1.31a7.71,7.71,0,0,1-.52-.75c.17-.25.76-.29,1.23-.36.72-.11,1.46-.11,2.52-.18l-4.8-2.53c1.76-1.32,3.19-2.43,4.65-3.49a66.63,66.63,0,0,1,5.79-4c4.55-2.61,9.25-5,13.79-7.59,3.45-2,6.73-4.3,10.14-6.38,4.75-2.9,9.71-5.49,14.29-8.63,5.29-3.62,10.81-6.77,16.4-9.86,4-2.23,7.66-5.2,11.68-7.45,5.06-2.82,8.86-6.93,12.67-11.1,1.53-1.69,3.17-3.27,4.72-4.94a7.88,7.88,0,0,0,.87-1.53,6.14,6.14,0,0,0,1.94-1.16c1.67-2.16,3.24-4.4,4.75-6.68,1.32-2,.92-4.11,0-6.17-.06-.15-.25-.27-.26-.41-.06-2.85-2.59-3.05-4.35-4.12a21.76,21.76,0,0,1-2.42-2c.12-.19.25-.37.37-.55l3.8,1.11-4.59-6.37-2.73,1.15c-.06-.14-.13-.27-.2-.41a3.77,3.77,0,0,1,.52-.37c1.35-.66,1.58-1.78.45-2.77-3.45-3-6.61-6.4-10.87-8.37-.76-.35-1.54-.65-1-1.79.11-.21-.23-.87-.52-1-1.23-.63-2.53-1.12-3.78-1.7a13.29,13.29,0,0,1-1.29-.79c.64-.45,1.25-.66,1.41-1a2,2,0,0,1,2.6-1c4,1,8.06,2,12,3.25,4.37,1.34,8.64,3,13,4.32,1.53.46,3.23.3,4.84.56a18.11,18.11,0,0,1,3,.86c1.63.57,3.12,1.69,5,.5.56-.35,1.65.11,2.49.25a75.82,75.82,0,0,0,7.86,1.32c.71.05,2-1.21,2.19-2a8.16,8.16,0,0,0-.34-4.32,100.13,100.13,0,0,0-8-16.53c-2.81-4.6-5.61-9.21-8.43-13.79-2.19-3.56-4.38-7.11-6.64-10.62-2.4-3.73-4.81-7.46-7.36-11.09a38.29,38.29,0,0,0-3.64-4c-.14-.16-.46-.29-.46-.43a25.69,25.69,0,0,1,.06-4.3c.13-.83.93-1,1.9-.89,2.32.27,4.08,1.63,6.06,2.59a45.43,45.43,0,0,0,5.06,1.79c.05-.24.17-.7.36-1.51l7.22,4.09-1,.26-.11.33,3.43.91c1-1.57-2.55-1.47-.78-2.83l-3.56-3.86.42-.4c1.72.11,2.47,1.52,3.22,2.78.87,1.47,1.53,3.05,2.31,4.57a1.85,1.85,0,0,0,.63.7,59.16,59.16,0,0,0,6.33,3.79,41.49,41.49,0,0,0,6.44,2c1.84.49,3.72.81,4.17,2.35,2,.6,3.48,1,5,1.51.14,0,.31.3.36.27,2.68-1.65,4.06,1.36,6.18,1.79,1.39.28,2.62,1.35,3.93,2.07L206,310l-1.15-1.24c1.53.75,3,.59,3.94,2a1.39,1.39,0,0,0,2.42-.3c1.31.49,2.27,1.95,4,1.21a.56.56,0,0,1,.28,0,48,48,0,0,0,6.2,1.45c4.33.45,8.68.66,13,.87.71,0,1.68-.28,1.62-1.28s.46-2.05-.78-2.72c-.34-.18-.45-.77-.66-1.18l.31-.24L238,309.9c.46-.8.61-1.68-.72-2.25.68-2.19,1.36-4.33,2-6.48l.63.18c-.48,1.86-1,3.73-1.55,5.91l2.34.38c0,.2.17.84.23,1.49a10.19,10.19,0,0,0,.19,1.94c1.65-1.77,3.3-3.39,3.64-6,.19-1.44,1.06-2.78,1.53-4.2.7-2.06,1.28-4.16,2-6.24.8-2.48,1.65-4.94,2.48-7.41.52-1.53,1.05-3.05,1.58-4.58l-.45-.27-1.73,1.88c0-.58-.05-1,.13-1.31.75-1.17,1.66-2.24,2.36-3.44a6,6,0,0,0,.47-2,9,9,0,0,1,.12-1.2c.8-2.1,1.78-4.13,2.44-6.26.71-2.29,1.14-4.67,1.69-7,.72-3.06,1.45-6.12,2.13-9.19.35-1.61.58-3.25.91-4.86a6.76,6.76,0,0,1,.44-1,20.38,20.38,0,0,0,.83-2.34,30.2,30.2,0,0,0,.72-3.77,12.75,12.75,0,0,0,0-2.83c-.1-1,.08-1.46,1.45-1.15-.45-.62-.93-1.22-1.34-1.85-.2-.3-.5-.86-.39-1a2.86,2.86,0,0,1,1.15-.63c.35-.12.75-.09,1.1-.21a1.08,1.08,0,0,0,0-.66,11.77,11.77,0,0,0-1.47-.23c.18-1.48.37-3.06.52-4.34l2.64-2-.23-.31-1.88,1.17a15.51,15.51,0,0,1-.19-3.77,18,18,0,0,1,1.79-3.75l-4,1.54c.73,1.18,1.83,2.06.29,3.25.11-1.33-2-2.06-.7-3.49a30,30,0,0,1,2.73-2.42l.37.35a9,9,0,0,1,.52-2.16c.27-.53.9-.88,1.37-1.32.3.49.89,1,.84,1.46-.19,1.51-.7,3-.9,4.5a10.34,10.34,0,0,0,.26,3.64c.76-3.33,1.5-6.67,2.29-10s1.59-6.51,2.41-9.76c.89-3.56,1.82-7.1,2.68-10.67a9.17,9.17,0,0,0,.11-2.1c0-1.23.18-2.28,1.83-2.2,1.41.07,2.32.48,2,2.12a1.94,1.94,0,0,0,.12.61c2.42,0,2.62.41,2.89,2.85.25,2.2,1,4.33,1.41,6.51.86,4.76,1.62,9.54,2.46,14.31.29,1.61.77,3.2,1.09,4.81.53,2.66,1,5.33,1.52,8,.42,2,1.16,4,1.42,6,.82,6.34,2.82,12.47,2.91,19,0,3.18,1.17,6.35,1.85,9.52a56.07,56.07,0,0,0,1.33,5.59c1.48,4.6,1.93,9.51,4.23,13.85.45.84,1,1.61,1.61,2.53l1.22-.78c.94,2.38.94,2.38,1.87,1.36,2,1.33,3.17,1.19,5.07-1.15,1.4-1.72,2.44-3.72,3.68-5.58.18-.26.58-.38.85-1l-1.36-.06a4.23,4.23,0,0,0,.79-.89c1.29-.16,1.5-.81,2.33-3.05.68-1.84,1.64-3.59,2.39-5.41,1.6-3.88,3.11-7.79,4.71-11.67.3-.73.95-1.31,1.24-2,2.1-5.46,4.2-10.93,6.21-16.42,1.62-4.46,3.14-9,4.66-13.44,2.09-6.19,4.06-12.42,6.24-18.58,2.48-7,5.12-13.87,7.7-20.8.84-2.23,1.72-4.44,2.6-6.65.12-.32.37-.82.6-.84a10.09,10.09,0,0,1,3.29,0c3.5.89,4.52,2.86,3.73,6.64a6.35,6.35,0,0,0,0,1.74c0,.37.23.77.14,1.1-.79,2.73-.09,5.56-.61,8.31a39.11,39.11,0,0,0-.64,4.93,49.45,49.45,0,0,0,0,5.58,1.89,1.89,0,0,0,.89,1.19c.14.09.82-.36,1-.7,1.24-2.07,2.4-4.19,3.62-6.27.6-1,1.34-2,1.92-3,2.32-4.1,4.59-8.22,6.9-12.32.56-1,1.24-1.91,1.77-2.94a24.69,24.69,0,0,0,1.6-2.76c1.41-3.29,2.75-6.6,4.07-9.92,1.87-4.67,3.63-9.38,5.57-14,2.57-6.14,5.24-12.25,7.93-18.35s5.41-12.07,8.08-18.13a7.94,7.94,0,0,0,.28-1.92,2.94,2.94,0,0,1,.25-1.07c1.28-2.19,2.5-4.44,4-6.5.41-.56,1.61-.65,2.46-.74.44,0,.93.38,1.4.59.09-.16.18-.32.26-.48l-2-1.11a4.14,4.14,0,0,0,1.39-.18c.39-.12,2.89-1,.91-.46a4.65,4.65,0,0,0,1.81-1,5.72,5.72,0,0,1,1.58,1.6c-.17,1.84-.3,3.68-.33,5.54a4.57,4.57,0,0,0,.08.92c-.14,1.41-.27,2.74-.38,4.07q-.45,5.63-.84,11.27c-.28,4.06-.49,8.13-.8,12.19-.52,6.64-1,13.28-1.65,19.91-.42,4.48-1.19,8.92-1.56,13.4-.38,4.67-.44,9.37-.71,14.05-.1,1.76-.4,3.51-.57,5.26,0,.36.14.73.13,1.09-.06,1.55-.14,3.1-.22,4.65s-.27,3.34-.29,5c-.05,4.13,0,8.25,0,12.38,0,2.38-.31,4.77-.21,7.14.16,3.7.57,7.39.83,11.09.08,1,0,2,0,3l-.48.09-1.71-10.29a14.45,14.45,0,0,0-.62,2.34c-.1,1.3,0,2.6-.08,3.9-.07,1.54,0,2.94,1.42,4a3.11,3.11,0,0,1,.71,2.41l-1.77-2.14c0,2,0,4.07,0,6.12a45,45,0,0,1,.17,5.18,31.9,31.9,0,0,0,.82,12A5.33,5.33,0,0,0,406,266.3a22.42,22.42,0,0,0,3.83,3.4c1.85,1.2,4,1,6.07.53a71.25,71.25,0,0,0,6.87-2c1.68-.6,3.76-1.07,4.8-2.32,1.94-2.33,4.74-2.81,7.06-4.26,1.9-1.19,3.87-2.26,5.77-3.45.48-.29.76-.88,1.22-1.22,2.52-1.89,5.09-3.7,7.6-5.61,4.25-3.24,8.47-6.53,12.7-9.8,3.13-2.42,6.26-4.84,9.36-7.29,7.13-5.62,14.23-11.27,21.36-16.88,2.66-2.09,5.41-4.07,8.08-6.14,3.56-2.76,7-5.65,10.65-8.33,2.67-2,5.49-3.73,8.32-5.46a14.64,14.64,0,0,1,3.14-1L521.46,198l1.68.64,2-1.2.49.37a21.88,21.88,0,0,1-1.49,3.08c-.74,1.07-1.73,2-2.58,3a20.64,20.64,0,0,0-2,2.54,35.14,35.14,0,0,1-5.38,6.71,18.11,18.11,0,0,0-2,3.21c-2,3.1-3.94,6.22-6,9.26-1.26,1.87-2.68,3.63-4.07,5.4-3,3.88-6.13,7.73-9.16,11.62-1.41,1.81-2.77,3.65-4.06,5.55-1.91,2.79-3.45,5.82-5.9,8.26-1,1-1.34,2.58-2.22,3.71a18.79,18.79,0,0,1-2.66,2.44l.46,1.24a2.35,2.35,0,0,0-.89.09,5.43,5.43,0,0,0-1.51,1c-.68.73-1.25,1.58-1.9,2.43l1.46.38c0,.16.07.32.1.48l-2.55.36c-.06.48-.16,1.22-.28,2.15l-7.87,9.12-2.14-.73c-.29-.59-.54-1.11-.94-1.91-.35,1.2-.6,2.07-.86,2.94l-1.39-.39a6.21,6.21,0,0,1-.93-1,4.24,4.24,0,0,1-.2-1.26c.37-.51,1-1.39,1.7-2.36l1.84.46.87-1.47,1,.89a8.46,8.46,0,0,1,2.07-1.24c.95-.24,1.55-.61,1.17-1.57-.07-.17-1.3,0-1.94.2-1.15.36-2.25.86-3.38,1.3l-.34-.53,1.05-2.17.47,1.77c1.72-.81-.36-1.57.06-2.31a6.83,6.83,0,0,0,1-.58c.82-.65,1.51-1.61,2.44-1.93.72-.26,1.48.49,1.58,1.47,0,0,.13,0,.17,0h0c.52-1.09.94-2.15,1.51-3.11s1.89-1.89,1.81-2.73c-.25-2.52,1.73-3.76,2.77-5.46.51-.84,2-1.07,3.06-1.57l.27.46-.68,1.15.13.07,3.13-4.46-.53-.45c-.67.69-1.32,1.39-2,2a3.24,3.24,0,0,1-1.36,1,12.38,12.38,0,0,1-2.71-.22,24.3,24.3,0,0,0,2.82-1.1,2.47,2.47,0,0,0,1.08-1.2c.06-.18-.63-.64-1.17-1.17h4.86c0-.12,0-.24,0-.35l-3.11-.74c1.15-1.47,2.34-3,3.6-4.53.18-.22.7-.14,1.07-.2a5.59,5.59,0,0,1-.38.86c-.61.9-1.24,1.77-1.86,2.65l.26.42,1.68-.15c-.46-2.06-.29-2.29,1.75-2.47a3.92,3.92,0,0,0-.31-1,6.36,6.36,0,0,0-.89-1c2.93,0,3.21-.22,2.85-2.4l-2,1.88-.44-.5,3.95-3.38c.13,1,.23,1.75.33,2.49l.4-.05v-4.4l3.3-1.77-.18-.35-1.69.57c.77-1.06,2.11-1.62,2-3.19,0-.14.4-.41.63-.43,1.59-.17,2.08-1.65,3.2-2.5l-1.28-1.07c.84-1.05,1.56-2.11,2.44-3a44.32,44.32,0,0,0,3.65-3.45c.83-1.08,1.48-2.12,2.39-2.09l3.79-6.08-1-.29-.06-.44c.51-.12,1-.23,1.52-.37s1-.13,1.23-.42c.74-.84,1.35-1.8,2.11-2.85l-1.45-.28.93-1.09c.36.26.88.86,1.07.76,1.56-.75.54-2.05.72-3.48-1.59,1.06-3,1.89-4.28,2.88-1.9,1.49-3.66,3.16-5.56,4.64-3.33,2.62-6.74,5.13-10.08,7.72-2.75,2.14-5.41,4.39-8.17,6.51-1.78,1.36-3.73,2.5-5.47,3.89-4.75,3.79-9.44,7.65-14.14,11.49-2.08,1.7-4.07,3.51-6.21,5.13-3.41,2.57-6.87,5.1-10.39,7.52-4.18,2.88-8.47,5.6-12.67,8.45a7.05,7.05,0,0,0-2.1,2c-1.24,2-2.37,4.11-5.05,4.48-1.65.23-3.28.5-4.93.66-3.09.3-5.89,1.51-8.78,2.5a51.17,51.17,0,0,1-5.54,1.27c0-.15-.07-.31-.11-.46l1.58-1.26c-1.32-1.17-2.47-2.37-3.79-3.33s-3.06-1.9-4.71-2.91c.31-1.2.94-2.71-1.41-3l-.45.44-.12-.5c.26-.2.52-.4.77-.62a1.19,1.19,0,0,0,.41-.94,1.06,1.06,0,0,0-.82-.57c-.23,0-.5.37-.71.62,0,0,0,.05,0,.07a4.76,4.76,0,0,0-.82-1.51l1.24-.41v-5.23h-.27c-.49,1.39-1,2.79-1.45,4.19-.21-3.52-.23-6.84-.18-10.16a1.37,1.37,0,0,1,.71-.91c.92-.48,1.12-1,.52-1.92a1.88,1.88,0,0,1,.31-2.6,2.34,2.34,0,0,0,.67-1.81,8,8,0,0,0-1.08-2.15l2-.93c-.49-.74-.83-1.27-1.18-1.81-.46-.08-1.12,0-1.42-.28-1.08-1.06-.62-5.59.38-6.52l.43,4.11h.49a27,27,0,0,0-.06-4.5,22.34,22.34,0,0,0-1.42-3.82,1.42,1.42,0,0,1,0-.79,17,17,0,0,0,.72-5.54c-.22-2.23.2-4.58-.33-6.7a12.32,12.32,0,0,1-.1-5.53c.12-.66.42-1.29.48-1.95.2-2.4.23-4.82.54-7.21.2-1.46-.61-1.58-1.59-1.6V192.5l.33.08.86,1.51a8.84,8.84,0,0,0,.9-2.05c0-1.3-.53-2.9,0-3.86.93-1.59-.21-1.75-.85-2.36l-.52.15c.19.65.37,1.3.6,2.08-1.39.52-1.22-.72-1.35-1.37a24.14,24.14,0,0,1-.36-3.3,5,5,0,0,1,0-2.4,10.42,10.42,0,0,1,2.06-2.21l-1.42-1.18c.23-.2.46-.4.68-.61l1.87,3.23v-5.93c.06,0,.57-.14.59-.31.23-1.91.45-3.83.51-5.75,0-.41-.57-1-1-1.24s-.86,0-1.52,0c1.11-1.46,2-.52,2.92,0,.16-2.24.34-4.32.46-6.4.13-2.48.18-5,.34-7.45a34.93,34.93,0,0,1,.54-3.81c.48-2.62,1.48-5.33-1.39-7.05.61-3.19-.17-6.07-.85-8.94-.05-.21-.56-.31-.86-.47a8.12,8.12,0,0,0-.22.81,6.46,6.46,0,0,1-.14,1.19q-2.58,6.89-5.21,13.73c-.71,1.84-1.69,3.6-2.21,5.49-.44,1.61-.92,3-2.16,3.59.74,2.72-1.48,4.24-2.12,6.3l-.48-1.49-.46.09c.07.51-.06,1.21.23,1.48a1.56,1.56,0,0,1,0,2.44c-1.07,1.09-1.25,2.44-1.65,3.76-.34,1.14-1.52,2.53-1.17,3.28.85,1.88-1,2.23-1.36,3.34a15.27,15.27,0,0,1-.9,1.87l-3.55,7.07.42.52c-1,1.81-1.91,3.48-2.85,5.14-.5.88-1.15,1.69-1.56,2.61-.87,2-1.54,4-2.45,6-1.88,4-3.84,8-5.8,12a61.34,61.34,0,0,1-2.91,5.5c-2.63,4.16-5.06,8.41-7.42,12.72-1.66,3-3.54,5.94-5.24,8.95-.95,1.68-.94,3.77-2.28,5.32a4.65,4.65,0,0,0-.66,1.95c-.21.85-.34,1.72-.53,2.66,1.59.66.93-1.94,2.42-1.95-1.35,3-2.55,6-5.26,8.06.89,2.18-2,2.91-2.36,4.8,0,.25-.7.39-1,.55-.15.67-.29,1.35-.44,2-.76,3.19-3.52,5-5.23,7.52-1.08,1.6-2.42,3-3.53,4.62-.49.7-.6,1.66-1.05,2.4-.67,1.1-2.32,1.58-2.08,3.3,0,.13-.56.45-.89.5a12,12,0,0,1-1.69,0l1.38,1a11,11,0,0,0-1.21.8c-.22.19-.55.63-.48.74a2,2,0,0,1,.22.43l-.65.71c-.15,0-.31.05-.45.09a2.78,2.78,0,0,0-1.31.59c-1.3,1.57-2.51,3.2-3.75,4.82s-2.58,3.43-3.89,5.13c-.1.13-.37.13-.63.21l.94.34q-.12.27-.21.54l-.54-.06-.39,1.46.39.35.29-.22a5.76,5.76,0,0,0,.12,1.18,8.67,8.67,0,0,0-2.2,3.3,4.55,4.55,0,0,1-3.28,3.07,5.41,5.41,0,0,0-1.9,1.17c-.83.69-1.54,1.55-2.4,2.19a2.12,2.12,0,0,1-1.61.36c-.26-.07-.43-.88-.48-1.37a5.2,5.2,0,0,0-2.56-3.36,10.45,10.45,0,0,1-3.31-1.58,28.13,28.13,0,0,1-3.69-3.94,13.28,13.28,0,0,1-2-3.28,27.31,27.31,0,0,1-1.75-5.62c-.19-1.08-.13-2.06-1.1-2.83-.4-.32-.54-1-.8-1.46,1.22-.29.35-.91.24-1.44-.16-.78-.25-1.58-.37-2.37.32.34.86.63.95,1a42.75,42.75,0,0,0,3.05,9.17c.1.2-.11.56,0,.76.83,1.77,1.6,3.58,2.6,5.26.32.54,1.25.72,2.3,1.28-1-1.71-1.84-3-2.59-4.31a16.88,16.88,0,0,1-.9-2c-.38-.93-.76-1.86-1.07-2.81-.17-.51-.13-1.09-.3-1.6a18.7,18.7,0,0,1-1.12-3.14,28.83,28.83,0,0,1-.05-4.16c-1.91-.19-1.94-.27-1.22-2.08a13,13,0,0,0,.42-1.69c-1.94-.5-2.22-1.19-1.69-2.6a7.58,7.58,0,0,1-.85-1.63c-.26-1.43-.46-2.88-.59-4.34,0-.55.35-1.19.2-1.68-.5-1.64-1.42-3.2-1.69-4.86-.24-1.46-1.44-3-.1-4.55,0-.05,0-.2-.06-.4l-1.1.4c0-.68-.06-1.25-.07-1.59l1.73-1.07-.16-.31-2.68.32c.06.47.2,1.2.23,1.95a18.14,18.14,0,0,1-.1,1.94c-1.07-1.57-.8-3.38-1-5.12-.43-3.55-1-7.07-1.58-10.6-.33-2.22-.58-4.45-1-6.66-.29-1.54-.83-3-1.14-4.57a6.75,6.75,0,0,1,.08-2.05c.22-1.95.62-3.9.69-5.85a22,22,0,0,0-.58-3.81c-.1-.69-.13-1.39-.23-2.41l.13-.1a22.42,22.42,0,0,1-1.3-3,14,14,0,0,1-.39-3.35,6.46,6.46,0,0,1,.36-3.13,4.74,4.74,0,0,0,.41-3.78c-.51-2.1-.84-4.24-1.28-6.52-.37.28-.51.33-.53.41-.81,3.64-1.62,7.27-2.38,10.91-.05.24.27.55.4.84s.26.7.44,1.17l-1-.15a15.07,15.07,0,0,0-.44,1.76c-.17,1.4-.3,2.8-.4,4.21-.09,1.17-.1,2.36-.16,3.54-.13,2.41-.35,4.83-.36,7.25,0,3.45.16,6.91.17,10.37a22.46,22.46,0,0,1-.45,3.22l-.45,0c-.11-.87-.59-2.33-.27-2.53,1.34-.86.74-1.8.59-2.84a27.81,27.81,0,0,1-.17-3.17c0-.42.06-.84,0-1.26-.16-2.15-.35-4.3-.52-6.42,0,0-.24.06-.28.18q-.69,2.42-1.3,4.86a5.34,5.34,0,0,1,.52.18A7.14,7.14,0,0,1,270,232a22,22,0,0,0-1.44,3.33c-.43,1.77-.6,3.6-.87,5.4l.22-.13c.24.89.47,1.77.67,2.53-.74.22-1.46.23-1.6.51a24.6,24.6,0,0,0-1.07,3.06l.28,0,1.51-2.66.29.19-1.81,6.06c-.14-.47-.36-1.18-.58-1.88a2.81,2.81,0,0,0-.34,2,10.71,10.71,0,0,0,1.08,2.08l-1.85-.63c-.37,1.37-.73,2.66-1,3.7,2.05.66,1.05,2.59,1.55,3.82,1.94-.49.48-4,3.35-3.8.07,2.57-2,3.56-3.25,5-.06.06-.28,0-.42,0-.33,0-.66.06-1,.1a2.93,2.93,0,0,0,.21,1c.62.9,1.32,1.76,1.93,2.57-.66,1.38-1,2.94-1.92,3.8s-1.27,1.67-.5,2.83l-1,.44c-.48,3.34-.92,6.35-1.35,9.3-.63,0-1.22-.19-1.52,0-1.85,1.32-2.14,3.73-.73,6.06,1.58-1.4.36-3.36,1.16-4.9l.78.06c-.73,3.94-1.09,7.91-2.25,11.64s-.65,7.78-1.92,11.67l-.81-.56c.45-2.18,1.36-4.13,1.11-5.92-.35-2.52.66-4.69.9-7,.19-1.86,0-2.4-2-2.25-.46,0-.92.11-1.54.18-.42,1.24-.88,2.58-1.33,3.92l.42.14c.44-1.14.89-2.29,1.33-3.44h2.16c-.22.27-.34.44-.47.6a2.73,2.73,0,0,1-.35.33,4.62,4.62,0,0,0-2,4.15c0,.42-.44.88-.68,1.32l-.37-.23c.05-.52.1-1,.16-1.55-.51.13-.8.33-.87.59-.39,1.47-.38,3.06-1.53,4.29-.12.12.19.66.2.68l3-1.46.43.5c-.34.8-.68,1.6-1,2.4l-.45-.18c0-.37-.09-.73-.13-1.09l-.58.05c.07.48.16,1,.21,1.46.11,1.06.67,2.58.19,3.08-.94,1-.78,1.84-.76,2.88a26.3,26.3,0,0,1-.09,5.18,11.31,11.31,0,0,1-3.26,6.15,20.71,20.71,0,0,1-4.18,2.61,4.36,4.36,0,0,1-1.81.49c-2.89.18-5.8.09-8.65.5a40.74,40.74,0,0,0-6.17,1.85c-.31.09-.69.33-.91.23-2.26-1-4.89-1.68-6.64-3.28-2-1.79-4.13-2.32-6.47-2.86-4.46-1-8.94-2-13.37-3.14a55.77,55.77,0,0,1-6.28-2.32c-1.64-.65-3.25-1.38-4.88-2.05a10.5,10.5,0,0,0-1.56-.5,11.35,11.35,0,0,1-1.86-.38c-1.62-.7-3.18-1.53-4.79-2.25-1.17-.52-2.39-.94-3.61-1.41.73,4.63,4.58,7.73,5.11,12.33,2.26.75.68,3.55,2.63,4.76l-1.63.4-.46.43-.05,0c-.42-1-.81-1.95-1.12-2.91-.48-1.46-1.4-3.06-1.16-4.42a4.69,4.69,0,0,0-1.5-4.23c-1.14-1.08-1.43-2.3-2.08-3.49-1-1.77-2-3.73-3.52-4.91-1.89-1.44-4.32-2.16-6.74-3.3.09.77.18,1.51.27,2.29l-1.55-.45.71-2.11a29.75,29.75,0,0,1-2.77-1.6,28.88,28.88,0,0,1-2.29-2l-.32.25c.46,1.29.92,2.58,1.32,3.73L165,305l.52-1,1.17,1.41.72-.82c.25.85.41,1.59.69,2.27.74,1.78,1,3.65,2.57,5.2s2.8,3.32,2.34,5.75c-.06.34.31.76.48,1.14l.31-.1V317.4l.44-.13.84,2.39c2.66,1.51,3.22,3.12,1.6,5.25l1.82,1.56c-.08-.71-.15-1.25-.21-1.79l.37-.14c.39.78.77,1.56,1.16,2.35l-.37.14,2.42.59-2.18,1.25c.07.12.14.24.22.36,1.21-.52,1.94.2,2.78,2.59l1.5-2.64,1.82-.31c.34,1.33.68,2.66,1,4l-1.27.41v.48l1.87.22c.81,2.23,1.71,4.62,2.56,7a23.12,23.12,0,0,1,1,3.42c.46,2.53-.11,5.31,1.94,7.45a6.35,6.35,0,0,1,.76,1.57c.44.88.42,1.43-.7,1.84a1.43,1.43,0,0,0-.89,2.28,4.25,4.25,0,0,1,.14,1.62c-1.73,0-3.3-.29-4.7.06a68.29,68.29,0,0,0-8,2.68c-1.69.66-3.62-.07-5.19,1.06-.1.07-.31,0-.48,0h-2.47l.41,1.46-2.92-.44c0-.17,0-.33.07-.5l1.63.16c.7-.86,1.23-1.53,1.86-2.32h-8.87c0,.15-.07.3-.11.45l4.08,1.47c0,.14-.07.28-.1.42l-2.48-.49c1.44,3.16,4.76,4.72,6.28,7.8H168.7c.93-2.78-2.86-4.12-5.38-3.14a.25.25,0,0,0,0,.15c.16.21.35.41.5.63,2.57,3.8,6.64,6.64,7.41,11.62-1.3,1.07-1.7,1-2.58-.44a1.77,1.77,0,0,0-1.09-.77c-.23,0-.67.46-.81.8-.37.92-.64,1.89-1,3l1.25.12c.58.77,1,1.33,1.41,1.89-1.82,1.37-3.71,2.94-5.75,4.29-2.25,1.51-4.64,2.81-7,4.21-1.51.92-2,2.45-2.44,4.07.48-.11,1-.32,1.08-.64.29-1.16,2.93-2.32,3.47-1.37,1,1.71,1.87,1.06,3,.32.09,1.47-.58,2.08-2.14,2.16a4,4,0,0,0-1.82.34,3.21,3.21,0,0,1-3.84-.09l-3,4.12.14.21,4.44-3.29.37.53c-1.73,1.24-3.5,2.44-5.18,3.73a38.67,38.67,0,0,0-3.76,3.24c-1,1-1.73,2.25-2.74,3.23a22.7,22.7,0,0,1-2.95,2.18c-2.83,2-5.58,4.16-8.53,6-3.17,1.94-6.57,3.5-9.79,5.37-.89.52-1.39.77-2-.93.08,2.18-1,2.44-2.18,2.69-.25.05-.56,0-.75.09-2.14,1.32-4.26,2.67-6.37,4-1.9,1.22-3.74,2.52-5.68,3.67-3.77,2.24-7.58,4.43-11.4,6.61-4,2.3-8.11,4.57-12.15,6.89-.59.34-1.34.77-1.56,1.34a3.81,3.81,0,0,1-3.62,2.54,7.27,7.27,0,0,0-1.78.73c.05.16.1.32.14.48.92-.08,1.83-.22,2.75-.24a1.89,1.89,0,0,0,1.83-.92c1.54-2.26,3.58-3.67,6.56-3.37,1.69.17,3.42-.23,5.12-.14,3.75.19,7.49.54,11.23.81,1,.07,1.22.6.87,1.65-.56-.37-1.18-1-1.4-.89-1.85,1-3.49-.69-5.26-.3a5,5,0,0,1-.94.18l-8,.31c1.84,1.87,27.61,2.88,29.41,1.33l-1.51-.41a6.88,6.88,0,0,1,2.71,0,49.44,49.44,0,0,0,5.84,1.07c4.81.25,9.64.24,14.46.4.82,0,1.74.71,2.44.51,3.09-.9,6.09.63,9.15.16.28,0,.61.25.92.26,2.87,0,5.56,2,8.57.79.3-.12.74.12,1.12.19l-.61.66-1.08.18c0,.09,0,.18,0,.27l2.62.66a15.62,15.62,0,0,1,5.87,3.19l2-1.57c-.17-.37-.38-.81-.5-1.08l2.15-1.31c.11,2.27,1.19,3.6,3.27,3.31-1,3.46-2,6.85-3.06,10.33l-.78.08c.13.55.47,1.13.3,1.46-.68,1.36-.85,3.19-2.25,3.51-2.11,3.59-4.77,6.4-7.09,9.63h-1.09c-.71,1.48-1.34,2.8-2.07,4.3-.5-.68-.73-1-1.09-1.48,0,1,.25,1.83-.05,2.35a28,28,0,0,1-2.74,3.69c-2.09,2.47-4.24,4.89-6.36,7.33l-.22-.27v1.83l-1.9-.78c-.08.14-.15.29-.22.43.28.6.55,1.2.87,1.9,1.85-.16,2.28-2.09,3.5-3.05.85,1.88-1,2.6-1.41,3.89a5.62,5.62,0,0,0,1.12-.34c2.37-1.34,4.67-2.8,7.08-4.05,3.08-1.59,6.22-3.05,9.36-4.51,2.21-1,4.71-1.44,6.52-3.26a2.43,2.43,0,0,1,1-.48,5.83,5.83,0,0,1,5.78.87c.18-1.12.26-2.17,1.62-1.13-.74,1.49-.74,1.49.22,1.77.43-2.53,1.14-3.33,3-3.59a12.22,12.22,0,0,0,2.18-.79c.13.14.52.59.91,1.05l.3-.23-.67-1.35.34,0c.11-.6.21-1.19.31-1.79.83-.35,1.88-.91,2.12-1.71a6.64,6.64,0,0,0-.23-3.13c-.46-2.32-1.34-2.78-3.31-1.38-2.75,1.95-5.32,4.16-8,6.24s-2.64,2.62-5,2a36.93,36.93,0,0,0,3.6-2.2c2.08-1.61,4-3.47,6.1-5,2-1.44,3.91-3.06,6.61-3,1.06,0,1.59.45,1.66,1.53a28.81,28.81,0,0,0,.35,3.35c.07.39.51.72.77,1.05-.32.5-1,1.07-1,1.7a48.8,48.8,0,0,0-.08,5.41c0,1.29.27,2.57.3,3.86,0,2.37.11,4.74-.06,7.1-.06.93.3,2.39-1.29,2.77a6.27,6.27,0,0,0,.32-1.43c0-.15-.52-.41-.78-.39a1,1,0,0,0-.74.52c-.39.88.84,2.45,1.61,2.44.31,2,.69,3.95.87,5.93,0,.5-.52,1.11-.9,1.59-.19.23-.62.27-1.27.53.65.27,1,.44,1.3.54a1.55,1.55,0,0,1,1.29,1.9c-.15,1-.26,2.11-.38,3.16a2.84,2.84,0,0,1-1.44-2.8c.06-.31-.16-.68-.25-1l-.42.18a5.07,5.07,0,0,0,1.64,4.69,1.29,1.29,0,0,1,.45.8c-.06,3.51-.13,7-.28,10.51-.05,1.27,0,2.74-.55,3.76a5.39,5.39,0,0,0-.9,3.82,33.2,33.2,0,0,1-.15,6.45,16,16,0,0,1-.57,2.59,5.76,5.76,0,0,1,.5,1.52,30.68,30.68,0,0,1,0,5.75c-.31,2.07.27,4.48-1.77,6.08a.77.77,0,0,0-.08.76c1.1,1.06.14,2.15.1,3.22a3.33,3.33,0,0,0,.08,1.42,5.84,5.84,0,0,1-.15,5.08c-.12.29-.39.56-.4.85,0,1.29.14,2.6,0,3.86-.21,1.61-.57,3.25-2.39,4.36V577l-.4,0c-.09.75-.24,1.49-.27,2.23-.1,2.52.1,2.84,2.23,3.64a55.88,55.88,0,0,0-1,5.62c-.19,2.4-.11,4.82-.14,7.23,0,2-.22,2.17-2.13,2-.53,1.84,1,.56,1.47.88,0,.35.08.83-.08,1-1.57,1.21-.87,3.09-.87,4.44,0,1.9-1.17,3.24-1.37,5a22.78,22.78,0,0,1-1,3.71l.7.25a11.7,11.7,0,0,0,.77-1.49c.15-.39,0-.88.21-1.26,3.33-7.79,6.63-15.59,10.07-23.33,1.73-3.88,3.84-7.59,5.58-11.47,1.9-4.23,3.5-8.59,5.34-12.85q3-6.87,6.19-13.62c.8-1.69,2.19-3.14,2.74-4.88s2.14-2.92,2.72-4.82c.75-2.45,2.55-4.56,3.75-6.89a29.88,29.88,0,0,0,1.41-4c.07,0,.55-.05.71-.31,2.34-3.83,4.68-7.66,6.92-11.54,1-1.76,1.8-3.63,2.82-5.72,0,0-.37-.61-.22-1a25.75,25.75,0,0,1,2.4-5.31,23.35,23.35,0,0,1,4.15-4.34,33.36,33.36,0,0,1,3.94-2.53l.84,1.55c.19-.8.29-1.2.39-1.61.31.33.62.67.94,1s.48.42.72.63l.25-.2c-.19-.44-.37-.88-.63-1.5a17.76,17.76,0,0,0,3.66.51c2.77-.19,3.4,1.71,4,3.72.12.41,0,.88.16,1.28.4,1.18.68,3.22,1.33,3.36,2.37.49,1.89,1.85,1.59,3.34-.12.62-.23,1.24-.33,1.8l1.24.38L255.2,513a4.49,4.49,0,0,1,1,4.8c-.15.43.13,1,.21,1.53l.41-.12.82-1.78c.22,1.48.38,2.52.54,3.63l-1.13-.13c.27,2,.43,4,.81,5.92.63,3.22,1.67,6.36,1.49,9.71a8.93,8.93,0,0,0,.34,3.66,13.26,13.26,0,0,1,1.16,6.68,2.54,2.54,0,0,1,1.05,1.5c.2,1.65.16,3.33.38,5,.28,2.17.82,4.3,1.05,6.46a49.11,49.11,0,0,1,0,5.18l.78.52c1.9-1,.87-3.65,2.93-4.45.1,0,.05-.51.06-.78a19.12,19.12,0,0,1,.29-3.57c.65-2.36,1.46-4.68,2.31-7,.24-.65,1-1.11,1.25-1.76.53-1.39,1.49-2.63.81-4.41-.35-.92.34-2.23.55-3.36.31-1.76.61-3.51.95-5.45l1.35,1.61a6.55,6.55,0,0,0-.62,1.5c0,.3.3.65.46,1A4.07,4.07,0,0,0,275,538c.46-1.38.86-2.78,1.31-4.15.53-1.57,1.11-3.11,1.62-4.68,1-3.15,1.51-6.43,2.79-9.54,1.15-2.83,3.37-4,5.76-5.18.18-.09.56.22.82.33.38-2.2-2.45.21-2.42-1.86l3.62.81A85.49,85.49,0,0,1,295,503c.12-.71.29-1.69.45-2.62l2.85.57-.92-1.6c-1.74,1.2-1.3-.55-1.67-.87.78-1.45,1.54-.55,2.55.08-.35-1.66-.64-3-.94-4.48h1c-1-1.53,0-2.27,1-2.79a4.9,4.9,0,0,0,2.76-3.86c-.07.92-.15,1.85-.25,3.2.83-.8,1.33-2.3,2-.78l2-.71c.07-.33.05-1.2.3-1.28,1.09-.36,1.11-1.33,1.33-2.19a12.87,12.87,0,0,1,1.34.67,5.41,5.41,0,0,0,1.25,1.66c2.35,2.18,4.57,4.48,6.73,6.83a5.37,5.37,0,0,0,1.09,2.56c.6.76,1.22,1.5,1.86,2.23l-.57-.27-.39.46c1.05,1.49,1.85,3.25,3.18,4.4,2.53,2.16,3.2,5.92,6.53,7.32.1,0,.12.28.2.4,1.59,2.39,2.9,5,4.86,7.06a19.64,19.64,0,0,1,4.07,5.28c.35.74.9,1.52,2.58.73-1.39,2.13.25,2.62,1.06,3.37,1.14,1,2,2.06,1.26,3.71,1.71-.17,2.18.51,1.91,3,.18-.29.33-.51.53-.82,2,1.59,1.71,4.6,3.93,5.92,0,0,0,.12,0,.16l3.71,5.23.26-.21v-1.71l1.2.44c.15-1.66-.94-1.17-1.8-1a6.33,6.33,0,0,0-.26-1.46,25.45,25.45,0,0,1-2.78-9.39,5.16,5.16,0,0,0-.67-2.39c-.89-1.38-2-2.6-3-3.94-.63-.89-.89-2.34-1.71-2.74a10.73,10.73,0,0,1-3-2.76c-.93-1-.48-1.5.6-1.63a6,6,0,0,1-.4-.55,4.94,4.94,0,0,0,2.38-7c-1.63-2.82-3.23-5.69-4.84-8.56.35.4.69.82,1,1.22C341.47,505.79,343.71,507.25,345.05,509.75ZM338,242.68c4-5.7,8.08-11.3,11.33-17.47a1.36,1.36,0,0,0,.25-.73c-.26-1.66-.6-3.31-.87-5a7,7,0,0,1,.16-1.49l2.43,3.89c1.18-2.12,2.14-3.83,3.15-5.63-1.71-1.1-1.34-3.12-1.4-4.72-.13-3.23.39-6.49.49-9.74a26.71,26.71,0,0,0-.46-4.06l-.43,0c-.72,2.21-1.31,4.47-2.18,6.62-2.08,5.11-4.23,10.19-6.49,15.22-.51,1.14-.46,2.78-2.23,3.23-.26.06,0,1.55-.26,2.29-.87,2.47-1.79,4.92-2.82,7.33-.91,2.15-2.52,4.15-2.88,6.36-.71,4.45-3.34,8.11-4.5,12.34-.27,1-1.28,1.79-1.95,2.68l.16.15,1.43-.94c-.74,1.83-2.42,2.9-1.8,4.78a42.09,42.09,0,0,0,2.61-4.22C333.78,249.92,335.59,246.11,338,242.68Zm3,12.39c2.12-.36,4.8-4.9,4.33-6.21-.76,0-1.39-.08-2-.09-.13,0-.34.1-.37.2a1,1,0,0,0,0,.56c1.51.26.56,1.27.74,1.95l-1.68.25c.24.52.43.92.42.92Zm7.81-53.8c-1.62-1.2-2.22-1.06-2.71.52-.68,2.21-1.34,4.44-2,6.67-.36,1.25-.34,1.27,1,1.85,0-1.57,1-3.47,2.16-3.87-.76-1.4.56-1.56,1.25-2.08.49-.38,1-.74,1.48-1.11l-.42-.59c-1.06.75-2.11,1.5-3.3,2.33C345.67,202.65,347.81,202.31,348.81,201.27ZM301,292.6l.24-.32-2.62-1.7C298.37,292.56,300.09,292.07,301,292.6ZM150.25,394.05l3.21-3-.46-.44L150.13,394Zm-44.14,33.16c-1.28-.63-1.76-.45-3.09,1.13l1.73.29C104,426.82,105.72,427.8,106.11,427.21ZM99.71,430l-.28-.13-2.05,1.17c0,.13-.1.26-.14.39.43.08,1,.37,1.26.19A7.87,7.87,0,0,0,99.71,430Z" transform="translate(-53.63 -107.88)"/></svg>