<svg xmlns="http://www.w3.org/2000/svg" viewBox="0 0 601.86 752"><defs><style>.cls-1,.cls-2,.cls-5,.cls-6,.cls-8{fill:none;stroke:#eacde3;}.cls-1,.cls-2,.cls-6,.cls-8{stroke-miterlimit:10;}.cls-1{stroke-width:2px;}.cls-1,.cls-2{opacity:0.5;}.cls-2,.cls-5{stroke-width:3px;}.cls-3,.cls-5{opacity:0.7;}.cls-4{fill:#eacde3;}.cls-5{stroke-linecap:round;stroke-linejoin:round;}.cls-6,.cls-8{stroke-width:10px;}.cls-6,.cls-7{opacity:0.95;}</style></defs><g id="Layer_2" data-name="Layer 2"><g id="Layer_1-2" data-name="Layer 1"><path class="cls-1" d="M590.17,162.38C536.9,167,485.69,173.73,437.24,182.3q-12.6,2.22-24.95,4.61-16.62,3.22-32.75,6.73c-32.48,7-63.45,15-92.67,23.62C119.34,266.94,9.28,341.56,2.17,423.12a96.91,96.91,0,0,0-.33,11.05"/><path class="cls-1" d="M455.17,512.5a204.94,204.94,0,0,0,45-51c70.3-113.83-.49-259.17-10-278"/><rect class="cls-1" x="1.76" y="1" width="588" height="750"/><path class="cls-1" d="M360.17,515.5q-.26-13.35-1-27c-5.68-102.67-32.19-194.24-67-273"/><path class="cls-1" d="M588.17,287.63q-27.07,4.2-53.38,9.07l-4.77.9c-1.6.29-3.19.59-4.78.9h0q-40.47,7.71-78.85,16.89c-38.3,9.14-74.9,19.32-109.49,30.38l-7.6,2.45-1.79.59q-23.84,7.8-46.31,16.16c-76.39,28.36-140.49,61.14-188,96.25-24.63,18.2-44.81,37-59.93,56.17-22.64,28.66-34,58.05-32,87.22"/><line class="cls-1" x1="95.17" y1="311.5" x2="95.17" y2="515.5"/><path class="cls-2" d="M2.17,669h588"/><path class="cls-1" d="M2.17,68.09Q185.33,68,368.69,68q107,0,213.72.09h7.76"/><ellipse class="cls-2" cx="406.51" cy="195.46" rx="27.22" ry="38.67" transform="translate(-44.53 191.49) rotate(-25.18)"/><path class="cls-1" d="M590.17,171.84q-41.67,3.74-81.55,9.13l-2.55.34h0c-1.69.22-3.38.46-5.06.69q-30.54,4.26-59.83,9.45-13.05,2.29-25.83,4.79-17.59,3.41-34.64,7.14-33.19,7.26-64.23,15.68-13,3.54-25.65,7.26-6.53,1.92-12.94,3.91C204,253,141.74,280.65,95.17,311.57c-56.06,37.21-89.42,79.15-93,123a95.41,95.41,0,0,0-.29,10.83"/><path class="cls-1" d="M590.17,233.37q-20,2.13-39.61,4.66-14.46,1.86-28.67,3.92-17.59,2.55-34.81,5.41-27.19,4.5-53.36,9.72-42,8.37-81,18.47-19.94,5.15-39,10.71-17.88,5.21-35,10.77c-74.28,24.16-136.84,53-183.6,84.93C39.57,419.87,6.29,462,2.17,505.53a93.12,93.12,0,0,0-.44,9.59c0,1.49.05,3,.12,4.5"/><path class="cls-1" d="M590.17,67.62q-3.88.24-7.76.51c-53,3.59-103.91,9.33-152,17q-26.24,4.15-51.34,9C155,137.69,2.8,223.67,2.8,322.72"/><line class="cls-1" x1="38.17" y1="512.5" x2="38.17" y2="512.5"/><line class="cls-1" x1="307.17" y1="723.5" x2="307.17" y2="723.5"/><ellipse class="cls-2" cx="258.92" cy="414.44" rx="31.56" ry="24.8" transform="translate(-181.08 627.05) rotate(-83.8)"/><path class="cls-1" d="M356.17,92.5a1045.13,1045.13,0,0,1,57,116c13.15,31.59,26.54,68.34,36,114,17.29,83.53,1.2,99.69-4,104-10,8.25-23.32,8.82-33,8"/><line class="cls-1" x1="283.17" y1="362.5" x2="283.17" y2="515.5"/><path class="cls-1" d="M588.17,295q-25.89,4-51.08,8.65-45.56,8.37-88.55,18.6C407.45,332,368.29,343,331.47,354.93q-25.94,8.4-50.3,17.46-11.35,4.22-22.34,8.57-8.1,3.19-16,6.47c-59.65,24.7-110.36,52.2-149.68,81.28C72.76,483.8,55.42,499.32,41.49,515.1q-2.62,3-5.07,5.94c-22,26.67-34.31,54-35.2,81.28a96,96,0,0,0,.49,13.45"/><path class="cls-2" d="M1.73,517.12h.44l33.07,0h8.25l51.68,0q94,0,188,0h68.26q63.72,0,127.47,0l83.57,0h27.7"/><g class="cls-3"><path class="cls-4" d="M410,407.75c-.45,11.75,4.33,25.81,17.42,28,10.23,1.73,18.68-6.33,23.09-14.74,5.31-10.15,5.87-21.31.37-31.51s-15.17-16.81-26.3-19.42a54.14,54.14,0,0,0-37.94,5.11c-10.71,5.9-18.2,15.83-22.33,27.21-7.44,20.52-5.32,43.27,4.77,62.49,7.72,14.69,19.07,27.73,33.18,36.52,11.94,7.43,25,12.85,39,14.69,15,2,30.34-.18,44.84-4.21a144.11,144.11,0,0,0,71.77-46,132,132,0,0,0,28.56-60.61c4.12-22.21,2.82-45.12-2.15-67.08-5.23-23.08-14.46-45.22-26.3-65.67a265.53,265.53,0,0,0-43.37-56.13c-16.3-16-34.82-29.8-55.43-39.76-29.71-14.35-62.4-21.13-95.27-22A314.24,314.24,0,0,0,284,162.5a341.11,341.11,0,0,0-59.38,20.18A401.92,401.92,0,0,0,105.31,263.9a368.8,368.8,0,0,0-49.84,61,335.23,335.23,0,0,0-37.55,77.77A325.35,325.35,0,0,0,2.54,476.37a319.94,319.94,0,0,0-.87,40.13c.08,1.92,3.08,1.93,3,0a320.33,320.33,0,0,1,31.9-151.89c22-45.74,54.32-86.07,93-118.85a392.65,392.65,0,0,1,116.82-68.7c45.74-16.95,95.79-23.64,144.29-17.39,29.59,3.81,58.73,13.22,84.16,29,18.39,11.37,34.78,25.85,49.14,42,30.13,33.8,52.85,76.24,59.88,121.27,3.32,21.22,2.83,43.2-2.91,64a129.89,129.89,0,0,1-33.89,57.43,142.36,142.36,0,0,1-77.13,39.15c-14.09,2.31-28.45,2-42.16-2.29A98.61,98.61,0,0,1,396.55,494a94.24,94.24,0,0,1-29.83-41.88c-6.62-19.13-5.29-43.19,6.21-60.37,7.34-11,19.27-17.71,32.25-19.54,12.31-1.73,26.26.82,35.72,9.36,8.31,7.51,12.8,18.75,10.07,29.78-2.23,9-8.78,20.1-18.87,21.55A15.86,15.86,0,0,1,417.24,426c-3.34-5.27-4.52-12.13-4.28-18.26.07-1.93-2.93-1.92-3,0Z"/></g><path class="cls-5" d="M355.85,156.12C358,275.82,359.6,396,361.71,516"/><line class="cls-5" x1="359.33" y1="368.99" x2="590.54" y2="365.27"/><line class="cls-5" x1="363.24" y1="436.99" x2="456.05" y2="435.5"/><line class="cls-5" x1="413.4" y1="408.35" x2="455.6" y2="407.67"/><line class="cls-5" x1="457.35" y1="515.26" x2="454.91" y2="367.45"/><line class="cls-5" x1="410.85" y1="370.93" x2="411.92" y2="436.21"/><line class="cls-5" x1="427.54" y1="408.12" x2="428" y2="435.95"/><path class="cls-6" d="M468.18,628.62a223.93,223.93,0,0,0,20.08-14.2q2.65-2.11,5.24-4.29"/><g class="cls-7"><path class="cls-8" d="M350,265.09c11.06,36,3.74,71.17-16.93,76.54-22.5,5.85-46.38-17.92-57-53.83-10.67-36.12-3.48-70.27,16.93-76.54S338.88,229.09,350,265.09Z"/><ellipse class="cls-8" cx="512.15" cy="235.79" rx="32.18" ry="58.75" transform="translate(-46.67 160.84) rotate(-17.08)"/><path class="cls-8" d="M447.34,108.07a305.24,305.24,0,0,0-45.83-21.42A313.31,313.31,0,0,0,345,71.56,302,302,0,0,0,160.75,99.2c-59.57,30-104.5,81.33-129.83,142.63q-4.47,10.81-8.15,22h0v0a325.68,325.68,0,0,0-15.7,125q.57,7.79,1.54,15.52h0q.45,3.63,1,7.26,1.59,10.72,4,21.33,2.79,12.54,6.67,24.79A277.54,277.54,0,0,0,41.71,508c.57,1,1.14,2.06,1.73,3.08s1.06,1.87,1.61,2.8a249.49,249.49,0,0,0,26.12,36.69c28.25,32.84,64.9,57.71,104,76.34,49.58,23.61,104.22,37.73,159.11,36.38a276,276,0,0,0,72.2-11.37"/><path class="cls-4" d="M358.28,87.94c-8.58,6.66-10.48,17.3-11.77,27.43-1.11,8.72-2.07,18.3-10.4,23.41-19.53,12-43.68-3.42-62-11.08-10.48-4.38-21.7-8.14-33.21-7.5-12.26.67-24.37,5.57-31.82,15.64-15.28,20.63.18,46.39-3.69,68.63-1.65,9.45-7.14,18.67-16.67,22.31a10.62,10.62,0,0,1-5.59.87,9,9,0,0,1-4.15-1.84,19.67,19.67,0,0,1-3.19-3.61,26.58,26.58,0,0,1-3.07-6.63c-1.95-6.16-2.3-12.66-2.84-19.06s-.44-14.64-4.21-20.31c-4.94-7.45-15.26-8.33-22.48-3.95-6.78,4.1-11.53,11.26-15.18,18.11a117.42,117.42,0,0,0-9.2,23,54.84,54.84,0,0,0-1.34,25.06c1.84,10.72,6.93,20.46,12.72,29.54,6.79,10.66,15.29,19.18,25.26,26.85,6.56,5.05,13.08,10.23,18.48,16.84.12.15,1.11,1.46.28.35.2.27.41.54.6.81.51.71,1,1.41,1.5,2.12,1.14,1.67,2.2,3.38,3.2,5.13a76.08,76.08,0,0,1,4.9,10.27,115.64,115.64,0,0,1,6.9,30.66,191.22,191.22,0,0,1,.74,20.17l11.79-1.6c-1.61-4.36-3.09-8.82-6.19-12.39a15,15,0,0,0-14.37-4.76C170.51,365,170,381,171,391.16c.42,4.22,1,8.43,1.11,12.68a36.18,36.18,0,0,1-.25,5.58,10.14,10.14,0,0,1-1.62,4.61,4.48,4.48,0,0,1-3.23,1.61,17,17,0,0,1-6.28-.94,17.49,17.49,0,0,1-9.43-6.42c-5.77-8.08-7.75-19.32-9.41-28.89-2.3-13.21-2.94-26.72-6.11-39.78a105,105,0,0,0-6.54-18.36c-3-6.55-6.92-13.52-13.1-17.55-7-4.62-15.1-2-20.36,4-6.83,7.75-10.26,18.06-12.7,27.94A207.23,207.23,0,0,0,78.47,409,306.86,306.86,0,0,0,96,483.06c7.9,21,18,41.68,31,60,11.75,16.62,26.43,34.15,45.21,43.08,5.8,2.76,12.67,5.24,19.15,5.45,5.17.18,10.13-3.77,12.44-8.19A25.85,25.85,0,0,0,206.2,569c-.3-3-1.38-5.61-1.94-8.5a16.47,16.47,0,0,1,.56-8.24l-2.76,3.59c1.82-1.3,3.24-2.06,4.63-2,1.12.1-1.29-.39.56.08a10.16,10.16,0,0,1,1.19.36c-.74-.29.21.14.3.19a14.5,14.5,0,0,1,1.67,1c2.86,2.07,5.74,6.11,8,9.46,5.84,8.65,9.79,18.16,14.45,27.45s10.85,19.17,20.14,24.37c9.88,5.53,28.37,7.7,32.06-6.23,1.16-4.38.7-9.18-.24-13.55-1.49-6.89-3.51-13.69-5.05-20.59-3-13.46-5.24-27.08-5.66-40.9,0-.7.35-3.47-.21-3.91,1.19.94-.68,1.37-1.23,1.61-2.05.92-1.22-.46-.35.47,1.2,1.28,2.59,2.19,3.44,3.8,1.34,2.53,2.2,5.47,3.29,8.12,1.26,3,2.53,6.06,3.87,9.05,4.84,10.86,10.62,21.21,18.27,30.35,3.87,4.63,8.38,10.16,14.39,11.91,5.56,1.62,12.59.28,15.76-5,3.58-5.94,2.17-14.46,1.17-20.94-.52-3.42-1.24-6.82-1.49-10.27-.12-1.68.11-3.42-.06-5.07l.07-1q-1.41,2.69-.39,1.64c.48-.11,1.26-1.06,1.63-1.4l-2.64,1.55c.71-.12,3.35,2.64,3.91,3.21,2,2.05,3.25,5.07,4.53,7.61a59,59,0,0,1,5.43,15.64c1.16,6.14,1.11,12.6,1.29,18.83.19,6.53.23,13.07.24,19.6,0,10.47,1.86,23.58,14.79,24.41,3,.19,6,.23,8.61-1.4a25.18,25.18,0,0,0,6.55-6.51c3.08-4.11,4.87-9,6.47-13.84,1.36-4.13,2.5-9.16,5.3-12.63.25-.3.87-.79,1-1,1.67-1.81.67-.42.23-.58a4.45,4.45,0,0,0-1-.05c-.68.18-.09-.54-.25,0,0,0,.74,1.22,1,1.86-.25-.61.1.4.11.43.2.65.36,1.3.52,2,2.23,9.51,3.38,19.3,6.71,28.53,3.8,10.53,10.07,19.22,19.94,24.78,5.49,3.09,13.36,2.71,19.35,1.54a33.06,33.06,0,0,0,16.42-8.74,88.87,88.87,0,0,0,12.66-14.92c4-6,6.91-12.83,9.65-19.51,2.47-6,4.7-12.16,7.52-18a92.4,92.4,0,0,1,5.07-9.27c.93-1.49,1.89-2.79,2.84-4.18.15-.2.41-1,.24-.37-.28.33-.21.26.19-.2a3.3,3.3,0,0,1-2.58.8l-2.65-1.55c.61.72.27,2.63.32,3.5a47.64,47.64,0,0,0,.69,5.85c.65,3.55,2.1,7.22,4.81,9.7,7.26,6.63,18.48.69,24.22-5.16,5.6-5.69,8.88-13.13,11.07-20.69,1-3.51,2-7,3.3-10.46a28,28,0,0,1,1.85-3.7c.2-.32.41-.62.63-.92-.4.52-.38.53.05,0,.69-.73-.79.32.61-.4l-8.21-2.16c1.32,1.92.7,5.1,1.22,7.4a12.45,12.45,0,0,0,3.83,6.44,11.08,11.08,0,0,0,10.7,2.27c7.12-2.1,12.35-9.44,16.43-15.15,9.92-13.91,17.17-29.63,22.89-45.67,9.74-27.33,14.93-56,18.76-84.71,4.13-30.92,5.94-62.1,4.29-93.28-1.63-30.88-6.46-61.76-15.46-91.38-8.49-27.89-20.54-55.39-37.52-79.19-13.28-18.61-29.48-34.34-46.8-49.12A191.53,191.53,0,0,0,478,108.43c-7-4.32-15.42-8.81-23.9-8.56-4.54.14-9.34,1.82-12.47,5.25a10.85,10.85,0,0,0-2.74,7.22c0,.84.08,1.68,0,2.53-.13,1.68.36-1-.2.92-.21.71-.49,1.41-.71,2.12a41.59,41.59,0,0,0-1.35,5.47c-.16,1,.68-.41-.05.13.13-.1,1-.83.16-.23,1.27-.91-.14.08-.39.15,1-.3-1,.28-1.06.28a4.79,4.79,0,0,1-3.77,0c-1.58-.46.91.56-.55-.23-.32-.17-.63-.36-.95-.54-.09,0-1.53-1.11-.61-.37-.45-.36-.88-.76-1.29-1.16-5.84-5.62-9.26-14.64-15.15-21.23A71.6,71.6,0,0,0,398.4,88.38a43.1,43.1,0,0,0-19.08-7.07A29.33,29.33,0,0,0,359.5,87c-2.63,1.9-3.9,5.23-2.15,8.21,1.51,2.6,5.56,4.06,8.2,2.16,4.89-3.53,10.15-5.08,16.09-3.57s11,4.82,15.69,8.48a76,76,0,0,1,6.08,5.25c.62.61,1.2,1.27,1.77,1.94,1.13,1.35-.37-.53.27.35.4.56.8,1.13,1.19,1.7,2.41,3.56,4.51,7.32,6.94,10.87,5.37,7.85,12.6,14.93,22.9,13.3,5.16-.83,9.7-3.39,11.5-8.5.55-1.56.79-3.2,1.2-4.8.71-2.73,1.64-5.2,1.71-8.08a7.71,7.71,0,0,0,0-2.2c-.17-.46-.38.9-.4,1.11.11-1.14.38,0,0,0-.53,0,3-1.42,1-.73a17.94,17.94,0,0,1,2.42-.64c-1.7.32.54,0,1,.06l.92,0c1.52,0-.89-.17.07,0a31,31,0,0,1,5.29,1.41c.45.16.88.33,1.32.5,1,.39-1.28-.59.45.18.92.41,1.83.85,2.73,1.3,1.91,1,3.77,2,5.6,3.14,3.9,2.38,7.64,5,11.28,7.76,6.19,4.67,12.91,10.54,19,16a283.7,283.7,0,0,1,22.49,21.92c37.36,41.83,56,98.6,62.65,153.48a454.21,454.21,0,0,1,1.58,89.85,521,521,0,0,1-13,83.6c-4.84,19.69-11.17,39.23-21,57-1.83,3.31-3.74,6.59-5.77,9.78q-1.39,2.21-2.88,4.35c-.54.78-1.09,1.55-1.65,2.32-.28.37-.55.74-.84,1.11s-.22.3.1-.12l-.67.84c-1,1.23-2.07,2.45-3.2,3.6-.49.49-1,1-1.51,1.43q-.48.44-1,.84c.69-.56.56-.37-.09,0s-1.09.58-1.58.92c1.41-1,.14-.24-.41,0-.28.15-1.61,0,.72-.09-.27,0-1.19-.09-.06.07s.21,0,0-.06c1.53.43.91.45.39.11-.79-.51.38.74.35.26,0-.21-.56-.4-.59-.63.12,1,.11-1.35.11-1.39-.24-3.23-.43-6.3-2.33-9.06a6.17,6.17,0,0,0-8.21-2.16c-7.91,4.12-9.94,15.79-12.21,23.53a40.85,40.85,0,0,1-5,11.13,20.64,20.64,0,0,1-4.42,4.95c-2,1.56-4.05,1.92-6.2,3,.16-.07.81-.47-.27,0l.51.1c-.58-.17-.66-.18-.24,0l.26.1c-.57-.36-.56-.34,0,0,0,.33-.43-1.53,0,0,0,.1-.8-1.49-.46-.75s-.33-1-.3-.92a22,22,0,0,1-.67-3c.18,1.15-.08-.82-.08-.86,0-.39-.06-.79-.08-1.19-.06-.91,0-1.83-.08-2.74-.19-3.6-1.62-8.22-5-10.18a8.83,8.83,0,0,0-8.91.4,12.08,12.08,0,0,0-3.22,3.31s-1,1.38-.35.51-1.44,2-1.69,2.32a106.19,106.19,0,0,0-9.47,18.08c-5,11.9-8.94,24.42-17.11,34.62-3.66,4.57-7.68,10.1-13.08,12.7-4.45,2.14-11.86,3.63-16.5,1.31-9.38-4.7-13.64-14.71-16.14-24.33-1.31-5-2.24-10.15-3.26-15.24-1.06-5.3-1.92-10.81-5.44-15.12-4.39-5.36-11.47-5.26-16.23-.5-4.33,4.34-6.59,9.74-8.54,15.48-1.59,4.7-2.82,9.73-5.79,13.8a16.71,16.71,0,0,1-1.94,2.18c-.42.41-1.05,1.22-1.6,1.42l.6-.45,0-.06c-.72,0-1.43-.07-2.15-.13s-1.93-.65-.63.09c-.85-.48-.87-.42-1.27-1.41s.34,1.29-.23-.72c-.12-.43-.24-.87-.34-1.31-.25-1.11-.43-2.24-.62-3.37-.48-2.86-.14-6-.15-9,0-7.27-.11-14.55-.42-21.81-.29-6.66-.61-13.37-2.25-19.85a78.18,78.18,0,0,0-7.55-18.33c-3.12-5.68-7.8-11.44-14.39-13.19-7.31-2-13,3.8-13.45,10.76-.43,6.71,1.33,13.29,2.18,19.9a38.34,38.34,0,0,1,.19,9,9.37,9.37,0,0,1-.14,1s-.66.31,0,0-.19,0-.13,0c.58-.23.52-.23-.16,0l-.57.12c1.23-.18-.68-.09-.79-.09.28,0,1,.23-.21-.06a9.6,9.6,0,0,1-1.16-.34c1,.39-.58-.35-.67-.41-2.15-1.53-4.21-4.09-6-6.1a89.74,89.74,0,0,1-10.14-14.11,157.68,157.68,0,0,1-8.09-15.93q-1.65-3.7-3.18-7.46c-1.28-3.12-2.28-6.61-3.89-9.57-2.67-4.93-7.94-9.89-13.8-10.18a10.11,10.11,0,0,0-8.86,4.46c-2,3-1.54,6.74-1.43,10.21A236.8,236.8,0,0,0,268,578.61c1.6,7.26,3.72,14.41,5.29,21.66.07.35.13.71.19,1.05,0-.1.25,1.75.16.95,0-.09.13,1.74.14,2.34,0,2.08,0,2.79-.84,4.16.22-.36-.41.11-.46.12A17.6,17.6,0,0,1,268,609a21.5,21.5,0,0,1-9-2.51c-4-2.28-7.41-6.11-10-9.89-6.15-9-9.81-19.36-14.94-28.91a103.8,103.8,0,0,0-7.65-12c-3.1-4.24-6.53-8.47-11.12-11.2a16.92,16.92,0,0,0-15.2-1.28c-3.37,1.39-6.18,3.26-7.24,6.92a26.26,26.26,0,0,0-.71,10.51c.38,3.07,1.82,6.14,2,9.05a19.76,19.76,0,0,1-.27,6c-.44,1.8-.63,2.52-1.9,3.54.36-.29-1.59.5-.7.39a17.64,17.64,0,0,1-3.91-.74,49.78,49.78,0,0,1-6.65-2l-.79-.31c-1.41-.54,1.2.55-.22-.09-.66-.29-1.32-.59-2-.9q-2.55-1.25-5-2.72c-8.65-5.23-16-12.31-22.82-20-15.82-17.7-27.76-38.67-37.31-60.33a289.32,289.32,0,0,1-21.49-77.16c-3.49-25.47-2.88-50.79,3.16-75.82,2.12-8.75,5-20,12.12-25.73-.86.7.94-.52,1.31-.69-1.29.6-.27.23,0,.08.51-.26,1.25.08-.17,0,.26,0,.54,0,.8,0,1.35,0-1.11-.09-.22,0a5.63,5.63,0,0,1,1,.28c-1.35-.35-.36-.19.08.1.23.16.49.31.74.46,1.26.76-.9-.85.23.16.49.43,1,.87,1.41,1.34s1.16,1.27,1.69,1.95c-.69-.88,0,.09.19.32.31.47.64.93.94,1.4,4.22,6.56,6.28,12.09,8.53,19.49,3.25,10.72,4.16,22,5.63,33.06,1.62,12.19,3.7,24.6,8.64,35.94,4.62,10.6,13.36,17.95,25,19.59,5.74.81,11.83-.15,16.06-4.44,3.86-3.92,5.18-9.36,5.61-14.67.76-9.5-2.81-19.23-1.11-28.64.31-1.68.79-4.14,2.27-5.23a3.15,3.15,0,0,1,2.88.15c-.48-.3.88.83,1.15,1.17-.58-.74.59,1,.54.93.22.38.42.77.62,1.17.69,1.39,1.22,3,2,5,2.25,6.14,11.7,5.51,11.78-1.59.26-22.19-2.5-45.28-13.06-65.13a78.89,78.89,0,0,0-12.91-17.77c-7-7.26-15.58-12.5-23-19.14-8.33-7.45-14.8-16.6-20-26.45a59.52,59.52,0,0,1-5.52-14.77,45.88,45.88,0,0,1-1.07-8.66c0-1.44,0-2.87.05-4.3,0-1.11.22-1.19,0-.32,1.69-6.52,3.13-12.86,5.63-19.16.74-1.85,1-2.46,2-4.68.85-1.83,1.76-3.64,2.74-5.41s2-3.39,3-5c.52-.78,1.06-1.55,1.62-2.3l.06-.08c.45-.55.9-1.09,1.37-1.61a30.21,30.21,0,0,1,3.2-3.1c-1.13.94.66-.43,1-.64s.78-.4,1.14-.63c1-.65-1.07.28.1-.06.66-.18,1.3-.35,2-.51-1.5.35.1.14.8.1.45,0,.88.34-.38,0a7.09,7.09,0,0,0,1,.25c.34,0,1.33.52,0-.07a5.79,5.79,0,0,1,1.24.63c1.33,1.08,1.49,3.31,1.77,5,.59,3.6.82,7.28,1.13,10.92.57,6.88,1,14,3.12,20.61,3.14,10,10,19.5,21,20.79,11.6,1.35,23-7.53,29-16.74,5.8-8.91,7.2-20,6.66-30.42-.61-11.67-4.15-23.13-3.61-34.85.25-5.3,1.55-10.78,4.79-15.09a25.39,25.39,0,0,1,12.31-8.38c10.63-3.53,21.32-1.58,31.61,2.08,21.08,7.5,42.07,22.49,65.49,18.07,11.86-2.23,22-9,26.44-20.44,3.59-9.17,2.81-18.71,5.44-27.73a17.31,17.31,0,0,1,6.47-9.62c2.56-2,2.09-6.4,0-8.49C364.24,85.41,360.85,86,358.28,87.94Z"/><path class="cls-8" d="M382.63,473.3c53.38-.45,99.34-30.5,115.11-74.05,14.37-39.66-1.62-75.81-5.9-84.77"/><path class="cls-4" d="M408.61,340.18c-5.17,4.28-10.27,8.64-15,13.4a122.46,122.46,0,0,0-17.2,21.32,93.06,93.06,0,0,0-12.12,29,113.66,113.66,0,0,0-2.44,18.47,99.5,99.5,0,0,0,1.42,23.44c1.65,8.89,4.95,17.77,10.43,25A50.64,50.64,0,0,0,385.29,482a49.16,49.16,0,0,0,13.32,6.35c9.29,2.88,19.33,3.18,28.93,1.95a122.35,122.35,0,0,0,28.77-7.4,144.9,144.9,0,0,0,23.27-11.31,111.19,111.19,0,0,0,25.18-21.14,126.38,126.38,0,0,0,14.43-19.81,127.74,127.74,0,0,0,9.47-19.82,150.35,150.35,0,0,0,7.17-28.74c1.5-9.13,2.54-18.44,1.85-27.69-.71-9.74-3.19-19.72-9.22-27.6a40.93,40.93,0,0,0-12.8-11.12,52.25,52.25,0,0,0-14.74-5.27,84,84,0,0,0-28-.78,85.65,85.65,0,0,0-16.27,4.26,185.7,185.7,0,0,0-17.89,7.22,144.32,144.32,0,0,0-23.89,14.21c-2.12,1.56-4.2,3.17-6.23,4.85a5,5,0,0,0-1.46,3.53,5,5,0,0,0,5,5,5.64,5.64,0,0,0,3.53-1.46c1-.82,2-1.62,3-2.4l-1,.78a141.32,141.32,0,0,1,22.28-14q4.64-2.37,9.44-4.39l-1.2.5c4.6-1.93,9.29-3.65,14-5.2A77.16,77.16,0,0,1,476,319.23l-1.33.18a80.2,80.2,0,0,1,20.88.15l-1.33-.18A54.88,54.88,0,0,1,508.1,323l-1.2-.5a39.22,39.22,0,0,1,8.47,4.89l-1-.79a35.1,35.1,0,0,1,6.25,6.23l-.78-1a38.14,38.14,0,0,1,4.72,8.13L524,338.8a50.87,50.87,0,0,1,3.42,13l-.18-1.33a95.7,95.7,0,0,1-.5,25.13l.18-1.33a163.18,163.18,0,0,1-6.31,29.26q-1.49,4.48-3.32,8.86l.5-1.2a121.22,121.22,0,0,1-11,20.39q-2.3,3.44-4.82,6.7l.78-1a112.76,112.76,0,0,1-20.07,20.18l1-.78a117.33,117.33,0,0,1-21,12.69q-3.12,1.49-6.32,2.84l1.19-.51a129.06,129.06,0,0,1-23.65,7.51q-3.56.74-7.16,1.23l1.33-.18a74.35,74.35,0,0,1-19.43.2l1.33.18a51.61,51.61,0,0,1-13.09-3.5l1.19.51a43.84,43.84,0,0,1-9.59-5.6l1,.78a43.61,43.61,0,0,1-7.65-7.65l.78,1a49.5,49.5,0,0,1-6.32-10.88l.51,1.19a67.34,67.34,0,0,1-4.54-17.15l.18,1.33a101.08,101.08,0,0,1-.23-23.58c.13-1.32.29-2.64.47-3.95l-.18,1.33a87.86,87.86,0,0,1,6-22.41l-.5,1.19a98.45,98.45,0,0,1,12.74-21.57l-.78,1a145.62,145.62,0,0,1,20.85-21.42c1.59-1.35,3.2-2.69,4.81-4a5,5,0,0,0,1.47-3.54,5.08,5.08,0,0,0-1.47-3.53,5,5,0,0,0-3.53-1.47A5.73,5.73,0,0,0,408.61,340.18Z"/></g></g></g></svg>