<svg xmlns="http://www.w3.org/2000/svg" viewBox="0 0 374.16 475.82"><defs><style>.cls-1,.cls-2,.cls-3{fill:none;stroke:#e2d8e1;stroke-miterlimit:10;}.cls-1{stroke-width:0.67px;}.cls-1,.cls-2{opacity:0.5;}.cls-2{stroke-width:4.44px;}.cls-3{stroke-width:1.78px;}.cls-4{fill:#e2d8e1;}</style></defs><g id="Layer_2" data-name="Layer 2"><g id="intro"><path class="cls-1" d="M371.37,102.13q-19.25,1.68-37.89,3.91c-26.89,3.23-52.78,7.33-77.42,12.18l-.69.14-.11,0-.77.15c-64.59,12.86-120.53,31-163.33,52.6C41.86,196,10,225.6,2.38,257.1h0A61.88,61.88,0,0,0,.64,273.4"/><path class="cls-1" d="M251.34,473.59l.73-.23c24.1-7.67,43.51-25.91,57.78-52A187.08,187.08,0,0,0,322.3,393l0,0q2.91-8.31,5.3-17.28v0q2-7.56,3.66-15.54s0,0,0,0c.16-.75.31-1.48.45-2.24h0c2.11-10.64,3.73-21.82,4.85-33.47,3.8-39.58,1.81-84.52-6.45-132-.3-1.74-.62-3.49-.94-5.24a2,2,0,0,0-.05-.24q-3.06-16.69-7.16-33.74-4.47-18.57-10.22-37.42-.11-.39-.24-.78c-.13-.47-.28-1-.42-1.42"/><path class="cls-1" d="M350.77,324.42l-14.18,0c-1.12,11.65-2.74,22.83-4.85,33.47M.86.76v472.6H371.37V.76ZM368.74,185.7l-5.43.87q-16.83,2.75-33.17,5.87c-.3-1.74-.62-3.49-.94-5.24l.21,0a12.72,12.72,0,0,0,2.2-.67h0q15-2.87,30.34-5.37l5.62-.91C368,182,368.39,183.87,368.74,185.7Z"/><path class="cls-1" d="M99.85,473.81c86.2-26.58,117.5-172.78,70-326.87"/><path class="cls-1" d="M1.71,381.75c-.14-1.2-.22-2.41-.28-3.61-.84-18,6.3-36.08,20.25-53.74.51-.65,1-1.3,1.57-1.95,9.33-11.39,21.52-22.6,36.2-33.45l2.09-1.52a360.78,360.78,0,0,1,36.63-23.11q6-3.33,12.35-6.59a627,627,0,0,1,76.91-32.89l1-.37h0q4.89-1.72,9.87-3.42h0c23.48-8,48.58-15.33,75-21.88q25.83-6.42,53.3-11.78l2.51-.48,2.46-.47h0q15-2.87,30.34-5.37l5.62-.91,3.78-.59"/><path class="cls-1" d="M1.71,387.42a61.25,61.25,0,0,1-.28-9.28c.78-16.94,8.51-33.93,22.23-50.51h0c.49-.6,1-1.19,1.51-1.79s.82-1,1.25-1.44a209.57,209.57,0,0,1,33-29.73l3.1-2.26a371.8,371.8,0,0,1,40.06-24.79c2.33-1.26,4.67-2.5,7.07-3.74h0q17.53-9.09,37.45-17.61,9.62-4.1,19.73-8.05,10.4-4,21.3-7.93Q206,224,225.07,218.17q23.7-7.21,49.18-13.51,27.06-6.67,55.89-12.22,16.32-3.13,33.17-5.87l5.43-.87,2.63-.41"/><line class="cls-1" x1="59.45" y1="196.1" x2="59.45" y2="324.65"/><path class="cls-1" d="M.86,421.37H371.37"/><path class="cls-1" d="M.86,42.73q116.57,0,233.27,0,68.72,0,137.24,0"/><line class="cls-1" x1="225.06" y1="212.7" x2="225.18" y2="324.65"/><path class="cls-1" d="M371.37,324.44h-20.6l-14.18,0q-26.28,0-52.55,0H190.22q-57.85,0-115.71,0H59.45l-33,0H.57"/><ellipse class="cls-1" cx="183.42" cy="184.08" rx="24.36" ry="41.01" transform="translate(-33.78 41.42) rotate(-11.81)"/><ellipse class="cls-1" cx="261.53" cy="150.86" rx="19.55" ry="33.09" transform="translate(-25.33 56.7) rotate(-11.81)"/><path class="cls-1" d="M371.37,108.1q-17.08,1.52-33.7,3.49-13.23,1.59-26.14,3.43-22.66,3.24-44.23,7.29c-3.27.61-6.51,1.23-9.74,1.87q-6.37,1.27-12.64,2.6c-23.34,5-45.49,10.6-66.22,16.85q-4.83,1.45-9.56,3c-28.34,9-53.86,19.14-76,30.2a322.92,322.92,0,0,0-33.73,19.36C29.26,216.19,9.53,238.4,3,261.69H3A63,63,0,0,0,.86,273.53a59.63,59.63,0,0,0-.19,7"/><path class="cls-1" d="M371.37,146.87c-4.55.49-9.07,1-13.56,1.53q-7,.82-13.87,1.73-11.08,1.45-21.95,3.09t-21.32,3.43q-9.54,1.64-18.88,3.4c-5.16,1-10.26,2-15.3,3q-10,2.07-19.84,4.3-20.51,4.68-39.76,10-13.75,3.81-26.79,7.95-10.15,3.23-19.84,6.63C143.78,197.79,128.31,204,114,210.45q-13.09,5.94-24.88,12.23a317.81,317.81,0,0,0-29.3,17.58l-.37.25c-23.12,15.75-40.11,32.68-49.74,50.25A71.18,71.18,0,0,0,.86,318.3a59.36,59.36,0,0,0-.29,6.11c0,.94,0,1.89.08,2.83"/><path class="cls-1" d="M371.37,50.61c-32.17,2.06-63.15,5.35-92.56,9.75q-7.53,1.14-14.92,2.36h0c-5.67.94-11.27,1.91-16.82,3-1.8.32-3.6.65-5.38,1q-5.73,1.1-11.37,2.24-5.25,1.08-10.42,2.2a705.55,705.55,0,0,0-73.08,19.81q-15.51,5.16-29.64,10.85c-58,23.3-97.74,52.76-111,85.39a63.87,63.87,0,0,0-4.87,24.2"/><line class="cls-1" x1="23.54" y1="322.76" x2="23.54" y2="322.76"/><line class="cls-1" x1="193.04" y1="455.71" x2="193.04" y2="455.71"/><path class="cls-1" d="M23.54,322.76c0,69.66,75.81,126,169.5,126"/><path class="cls-1" d="M327.89,370.65c0,43.19-60.32,78.13-134.85,78.13"/><ellipse class="cls-1" cx="160.12" cy="256.56" rx="19.89" ry="15.63" transform="translate(-112.24 388.01) rotate(-83.8)"/><path class="cls-2" d="M219.69.76q7.68,21.11,14.44,41.94,1.67,5,3.23,10,2.22,7,4.32,13.92,2.5,8.25,4.85,16.43,5.11,17.75,9.53,35.12l0,0q.76,3,1.48,5.91,4.92,19.75,8.93,38.91,2.06,9.85,3.88,19.51,1.59,8.39,3,16.62.48,2.73.91,5.44c.33,2,.64,4,.95,5.93a740.42,740.42,0,0,1,8.24,77.89q.71,14.52.67,28.19c0,2.59,0,5.16-.07,7.7-.67,38.61-5.94,71.57-15.85,97,0,0,0,0,0,0a132.23,132.23,0,0,1-8,17.08c-9.46,16.81-21.73,28.76-36.84,34.91l-1,.39"/><path class="cls-1" d="M331.63,186.49h0a12.72,12.72,0,0,1-2.2.67l-.21,0a13.94,13.94,0,0,1-2.56.24c-10.82,0-21.92-13-26-30.79l-.24-1.09c-3.86-18.45,1.18-35.38,11.34-39.76a12.61,12.61,0,0,1,2.55-.81c11.84-2.48,24.82,11.67,29,31.6.25,1.19.46,2.36.63,3.54C346.51,167.36,341.34,182.6,331.63,186.49Z"/><line class="cls-3" x1="263.89" y1="62.72" x2="263.88" y2="62.72"/><path class="cls-3" d="M250.59,57.17l-.07,0c-4.33-1.61-8.73-3.09-13.16-4.39a197.38,197.38,0,0,0-23-5.33A190.45,190.45,0,0,0,98.25,64.85c-37.54,18.87-65.84,51.25-81.8,89.87a206,206,0,0,0-15,92.62c.24,3.26.56,6.5,1,9.76h0c.19,1.53.39,3,.63,4.57H3a187.75,187.75,0,0,0,6.7,29.06,173.9,173.9,0,0,0,13.54,31.69,4.74,4.74,0,0,0,.29.54h0c.26.48.52.87.8,1.33s.54,1,.83,1.44a155.29,155.29,0,0,0,16.64,23.44c17.79,20.69,40.9,36.37,65.53,48.1a241.58,241.58,0,0,0,56.92,19.1,198.88,198.88,0,0,0,43.34,3.83A173.8,173.8,0,0,0,253.49,413"/><path class="cls-3" d="M331.74,357.87h0c-.5.68-1,1.36-1.51,2h0q-.93,1.24-1.89,2.46"/><path class="cls-3" d="M293.19,394.74c3.72-2.4,7.33-5,10.81-7.76,1.27-1,2.51-2,3.74-3.08"/><path class="cls-4" d="M248.66,59.22C260,50.76,275.58,58.82,286,65a180.89,180.89,0,0,1,33.38,26.33c20.91,20.51,35.43,46.45,43.78,74.42,8.53,28.58,10.89,58.79,9.11,88.47A364.86,364.86,0,0,1,367,297.3a208,208,0,0,1-10.94,40,111.83,111.83,0,0,1-9.91,19.36c-1.48,2.29-9.39,14.92-12.95,9.43-1.34-2.07-.23-4.89-1.72-7a.69.69,0,0,0-.91-.24c-3.43,1.79-4.55,7.09-5.54,10.45-1.4,4.8-2.91,9.61-6.58,13.22-1.74,1.71-5.21,4.22-7.83,3.52-2.21-.59-2.75-3.67-3-5.6-.26-2.16.16-4.5-1.21-6.37-1.12-1.51-2.91-.68-3.87.52-4.05,5.06-6.56,11.27-8.93,17.23-1.33,3.36-2.64,6.72-4.23,10a47.82,47.82,0,0,1-5.9,9.11c-2.16,2.69-4.55,5.69-7.56,7.47a18.08,18.08,0,0,1-10.79,2.18c-7.49-.74-12.14-8.42-14.27-14.93A81.79,81.79,0,0,1,248.5,396a59,59,0,0,0-1.92-8.74c-.59-1.62-1.61-3.59-3.4-4.13-2.28-.69-4.16,1.35-5.34,3-3.16,4.54-3.52,10.41-6.35,15.12a13.4,13.4,0,0,1-2.89,3.47,5.69,5.69,0,0,1-5.61.48c-2.46-1.22-2.92-5-3.1-7.42-.27-3.64,0-7.36-.09-11s-.16-7.31-.37-11a43.75,43.75,0,0,0-5-18.31c-1.44-2.75-2.87-5.06-5.46-6.86-1.84-1.29-3.87-1.86-5.62-.26-1.95,1.78-1.36,5-1.1,7.35.37,3.33,1.19,6.61,1.4,10,.18,2.9.42,7.2-3.35,7.55-3.16.29-5.22-2.08-7.21-4.17A67.79,67.79,0,0,1,181.4,353.3c-1.63-3.45-3.1-7-4.53-10.53-1-2.56-2.09-5.16-4.49-6.77-1.68-1.12-4-1.78-5.52,0a3.57,3.57,0,0,0-.63,2.61c0,2,.1,3.95.23,5.92A148.54,148.54,0,0,0,169.65,366c.8,3.71,1.69,7.39,2.63,11.07.66,2.59,1.44,5.16,1.31,7.86a6.46,6.46,0,0,1-1,3.38c-1.11,1.6-3,1.72-4.81,1.72a16.48,16.48,0,0,1-10.36-3.6c-4.4-3.57-7.18-8.6-9.61-13.62s-4.67-10.26-7.8-15c-2.4-3.6-5.17-8-9.42-9.62a7.38,7.38,0,0,0-5.79.27c-1.1.52-1.95,1-2.29,2.14a13.32,13.32,0,0,0-.47,4.57c.2,3,1.53,5.68,1.48,8.68,0,2.57-.7,5.51-3,7-3.25,2-7.21-.92-9.94-2.7a57.61,57.61,0,0,1-7.78-6.15,108,108,0,0,1-13.08-15.24c-8.61-11.69-16.25-24-21.41-37.66-5.35-14.12-7.75-28.95-8.78-44a106.36,106.36,0,0,1,.6-22.7,68.46,68.46,0,0,1,2.28-10.21c1.09-3.53,2.3-7.25,4.61-10.15.81-1,1.4-2.13,2.13-3.19a24.64,24.64,0,0,1,3-3.32c2-2,4.7-4.23,7.73-4.23,8,0,8.64,10.79,9.19,16.48.66,6.71.88,13.47,2.09,20.11,1.07,5.91,2.93,13,7.12,17.57,1.62,1.75,3.93,3.25,6.43,3a6.26,6.26,0,0,0,3.13-1.33,8.62,8.62,0,0,0,1.38-1.32c.23-.28,1.22-1.29.48-1.29a.64.64,0,0,0,.57-.33c1.48-3.39.94-7,.42-10.51a42.78,42.78,0,0,1-.63-11.12c.44-3.7,2.93-8.39,7.39-6.44,2.81,1.23,3.74,4.75,4.71,7.37a.68.68,0,0,0,1.29,0c3.36-13.42-3.18-25.59-10.83-36.19-4.23-5.86-8.84-11.43-12.49-17.69a94.84,94.84,0,0,1-12.4-57.14c.42-4.52,1.18-9.32,3.42-13.34a11.48,11.48,0,0,1,4.24-4.53c1.22-.68,2.9-1.44,4.27-.79,2.66,1.24,4.26,5.08,5.43,7.56A131.32,131.32,0,0,1,110,133.77c1.29,3.63,2.49,7.31,4,10.87,1.31,3.17,3.33,6.64,6.44,8.32,4.15,2.24,9.42-.67,11.58-4.43,2.27-4,1.54-8.95.33-13.14A70.27,70.27,0,0,0,127.55,124c-2.94-6.07-5.84-12.17-8.28-18.47-2.2-5.66-4.32-11.69-4.73-17.8-.29-4.35.56-9.34,5.33-10.75,5.51-1.62,11.88,1.2,16.52,4,5.91,3.58,9.3,8.85,12.32,14.94,2.9,5.87,5.74,11.56,10.28,16.39,3.3,3.51,8.65,8.31,13.95,7.27,4.59-.9,5.58-6,3.8-9.74-2.51-5.3-8.67-8.64-9.24-14.85-.23-2.46.34-5,2.69-6.21,1.89-1,4.24-.78,6.25-.34a36,36,0,0,1,12,5.45c5.28,3.51,9.5,8.48,13.14,13.62,3.18,4.48,5.75,9.45,9.24,13.71,2,2.39,5.4,5.45,8.69,3.43,2.27-1.39,2-4.66,1.66-6.91a50.89,50.89,0,0,0-3.25-10.55c-.94-2.39-2.42-4.92-2.27-7.57.21-3.63,5-.43,6.72.39,2,1,5.42,3,7.59,1.3,2.4-1.85,1.11-5.82.27-8.1a91.85,91.85,0,0,0-5.71-11.61,33.09,33.09,0,0,1-4.32-12.9c-.13-1.57.09-4.75,2.36-4.78.6,0,1.29.59,1.8.86A12.43,12.43,0,0,1,227,66.42a79.91,79.91,0,0,1,6.5,7,60,60,0,0,0,7.19,7.16c2,1.61,4.38,3.28,7.07,3.31,5.16.07,4.9-5.41,3.53-8.91-2-5.1-7.39-14-.24-17.35.78-.37.1-1.52-.67-1.15-5.88,2.79-4.4,9.06-2.4,14,1.12,2.77,3.1,5.9,3,9-.14,3.56-3.84,3.48-6.29,2.21-6-3.11-10.22-9.42-14.78-14.23-2.4-2.53-8.6-8-10.7-2.08-1,2.85.1,6.36.92,9.11a30.77,30.77,0,0,0,1.74,4.88c1.84,3.76,4,7.33,5.8,11.12.89,1.91,4.18,8.26,1.34,9.89-1.19.69-3-.17-4.11-.65-1.56-.67-3-1.5-4.59-2.19-1.85-.82-4.89-1.93-5.76.75-.8,2.47.4,5,1.3,7.23a76.81,76.81,0,0,1,3.57,10.22c.52,2.07,1.82,7-1,8-4.45,1.57-8.18-5.47-10-8.42a111.17,111.17,0,0,0-11-15.36,44,44,0,0,0-11.7-9.33c-3.66-2-7.91-3.89-12.15-3.87-3.62,0-6.9,2.2-7.28,6-.57,5.84,3.43,9.72,6.85,13.87,1.91,2.32,4,5.29,3.13,8.46s-4.32,3.73-7.1,2.8c-6-2-10.87-7.86-14.12-13-3.77-6-5.94-12.85-10.27-18.48a30.62,30.62,0,0,0-13.1-9.34c-4.24-1.69-9.64-3-13.89-.61-3.5,1.93-4.51,6-4.49,9.7,0,5.59,1.74,11.16,3.59,16.37a192.92,192.92,0,0,0,8,18.6,119.28,119.28,0,0,1,5.64,12.47c1.53,4.47,3,10.29.25,14.6-1.61,2.5-5,4.76-8.12,4.12-2.61-.54-4.59-3.19-5.91-5.32-1.63-2.63-2.54-5.78-3.56-8.67-1.47-4.13-2.88-8.28-4.5-12.35a48.75,48.75,0,0,0-5-10.24c-1.26-1.77-3-3.79-5.4-3.47-3.83.5-6.76,3.58-8.42,6.87a36.11,36.11,0,0,0-3.17,12.53,103.72,103.72,0,0,0-.5,13.88,95.34,95.34,0,0,0,11.4,41.87c6.72,12.56,17.72,22.57,23.1,35.89a31.7,31.7,0,0,1,1.69,19.83h1.29c-1-2.73-1.94-6-4.48-7.69a6.1,6.1,0,0,0-8.21,1.28c-2.4,3.17-2.33,7.72-2,11.48.17,2.17.46,4.32.78,6.47a33.68,33.68,0,0,1,.43,4.37c0,.45-.41,4.15-.24,4.15a.64.64,0,0,0-.57.33,6.47,6.47,0,0,1-4.06,3.53c-2.06.46-4-.72-5.44-2.11-2.59-2.55-4.08-6.35-5.23-9.73-2.31-6.77-2.89-13.94-3.45-21-.26-3.42-.53-6.84-1-10.24a26,26,0,0,0-2.13-8.51c-2.41-4.81-7.63-6.84-12.43-4.15a25.2,25.2,0,0,0-6.16,5.4,22.35,22.35,0,0,0-2.1,2.93c-.92,1.44-2.13,2.56-2.86,4.1a66.56,66.56,0,0,0-5.59,19.5,109.44,109.44,0,0,0-.43,22.6A203.87,203.87,0,0,0,61,288a129,129,0,0,0,15.37,41,201.41,201.41,0,0,0,12.06,18.17,114.19,114.19,0,0,0,12.61,15,62.57,62.57,0,0,0,7.2,6c2.35,1.67,5.24,3.87,8.1,4.54,5,1.16,8.08-2.93,8.53-7.47a17,17,0,0,0,0-3.49c-.16-1.55-.81-3-1.11-4.53a12.29,12.29,0,0,1,0-5.53c.48-1.73,2.32-2.45,4-2.56,5.18-.34,8.86,5.93,11.31,9.62,6.08,9.17,8.56,21.25,17.29,28.52a17.62,17.62,0,0,0,8.19,3.84c2.45.46,5.85.81,8-.73,3.39-2.42,2.58-7.71,1.68-11.17-1.95-7.52-3.77-15.09-5-22.77-.63-3.93-1.11-7.89-1.38-11.87-.11-1.74-.19-3.48-.22-5.22,0-1.14-.28-2.47,1.08-3a3.75,3.75,0,0,1,3.06.8c3.09,2.15,4.07,6.5,5.44,9.78s2.83,6.6,4.46,9.79a63.22,63.22,0,0,0,11.89,16.72c1.67,1.64,3.21,2.94,5.61,3.18a5.28,5.28,0,0,0,4.84-1.8c1.58-2.16,1.18-5.85.92-8.32-.34-3.34-1.17-6.62-1.41-10-.12-1.68-.44-3.87.83-5.15,1.53-1.53,3.75.18,5,1.27,2.65,2.29,4.2,5.74,5.59,8.91,3,6.87,3.31,14.09,3.5,21.48.1,3.66.12,7.33.13,11a28.93,28.93,0,0,0,.85,8.39A6.4,6.4,0,0,0,230,405.37c4.1-3.85,5-9.46,7-14.46.89-2.24,4-8.85,7-5.69,1.94,2.06,2.19,5.58,2.71,8.21,1.22,6.17,2.28,12.55,5.26,18.17a22.94,22.94,0,0,0,6,7.33,17.42,17.42,0,0,0,3.79,2.39,14.7,14.7,0,0,0,4.8.71,19.82,19.82,0,0,0,9.24-2c2.83-1.37,5.16-3.91,7.17-6.27a52.64,52.64,0,0,0,5.9-7.95,82,82,0,0,0,4.42-9.39c2.83-6.92,5.34-14,9.78-20.13.21-.29.41-.6.64-.87,1.09-1.28,2.17.07,2.38,1.33s.1,2.26.22,3.39a11.69,11.69,0,0,0,1.62,5.48c2.6,3.8,7.87,1,10.58-1.23,3.75-3.14,5.87-7.81,7.21-12.41.66-2.25,1.27-4.53,2.1-6.72.7-1.84,1.62-4.21,3.47-5.18l-.91-.24c1.44,2,.35,5,1.85,7.17a4,4,0,0,0,2.59,1.73c2.52.43,4.88-1.75,6.48-3.4,5.1-5.25,8.8-12.07,12.08-18.56,5.4-10.64,9-22.31,11.76-33.88a340.66,340.66,0,0,0,7.19-43.05c3.4-31,2.45-62.8-4.83-93.23-7-29.43-20.45-57.44-41-79.85a192.24,192.24,0,0,0-33.15-28.64c-3.08-2.1-6.24-4.09-9.5-5.9-1.53-.85-3.09-1.67-4.66-2.43-.78-.38.69.37-.61-.29-.82-.43-1.68-.79-2.52-1.16-6-2.61-12.56-4.7-19.14-3.84A18.7,18.7,0,0,0,248,58.07c-.68.51,0,1.67.67,1.15Z"/><path class="cls-3" d="M228.94,302.29a71.74,71.74,0,0,0,27.24-.93c15.61-3.59,25.6-11.57,30.45-15.32,10.33-8,18-19.29,23.31-31.11,6.29-14,9.34-27.22,4.87-42.13-5.07-16.9-24.22-11.21-35.68-4.61C260.51,218.9,246.2,236.07,236.07,255c-4.51,8.43-8.31,17.42-9.44,26.92s.62,19.62,6.33,27.29c8.72,11.7,25.36,15.55,39.5,12s26-13.38,35.33-24.59c14.75-17.7,24.47-39.83,26-62.83.65-10-.27-21.65-8.86-28.81-12.88-10.75-33.6-2.15-34.85-1.61"/></g></g></svg>