<svg xmlns="http://www.w3.org/2000/svg" viewBox="0 0 663.51 270.03"><defs><style>.cls-1{fill:#e2d8e1;}</style></defs><g id="Layer_2" data-name="Layer 2"><g id="Layer_1-2" data-name="Layer 1"><path d="M660.13,199.59c3.71,1.51,4.13,5,2.39,8.12-2.68,4.83-5.18,9.73-9.19,13.59-5.19,5-10.55,9.8-15.74,14.79-3.52,3.37-6.71,7.11-10.37,10.32a72.42,72.42,0,0,1-8.79,6c-1.26.82-2.84,1.19-4,2.11-4.77,3.8-9.43,2.42-14.15,0-3.81-1.94-7.61-3.88-11.47-5.72a89.3,89.3,0,0,1-17.45-10.57c-2-1.63-4.66-2.56-7.09-3.65-1.83-.82-2.88.19-4,1.72-2.48,3.44-4.81,7.17-8,9.92a78.08,78.08,0,0,1-12.68,8.48,168.85,168.85,0,0,1-17.17,8.86,55.78,55.78,0,0,1-12.6,3.36c-7.13,1.22-14.33,2.11-21.53,2.94a31,31,0,0,1-7.33-.11c-6.36-.77-12.67-2.15-19-2.54-7.1-.45-13.2-3.53-19.45-6.25A43.8,43.8,0,0,1,432.6,255c-5.37-4.32-10.8-8.72-15.4-13.81a97.43,97.43,0,0,1-11.07-15.71c-4.14-6.94-5.68-14.88-7.8-22.61-3.81-13.89-6.28-27.94-6.36-42.38,0-2.77-.32-5.55-.52-8.32-.68-9,2.4-17.34,4.24-25.91.38-1.78.59-3.59,1-5.37a90.16,90.16,0,0,1,9.46-25.49c2-3.57,4.62-6.87,6.35-10.64a70.47,70.47,0,0,1,4.95-9.91c4.39-6.6,8.93-13.13,13.82-19.38,4-5.13,9-9.49,12.82-14.74,4.72-6.53,10.91-11.26,17.23-15.88,8.3-6.07,16.66-12.08,25.32-17.6,3.18-2,7.21-3.06,11-3.71,5.9-1,11.93-1.24,17.89-1.94A50.81,50.81,0,0,0,521,.28,5.85,5.85,0,0,1,523,0c6.16.73,12.46.91,18.41,2.43,9,2.31,17.8,5.52,26.64,8.45a15.37,15.37,0,0,1,3.07,2c4.95,3.15,10.07,6,14.81,9.49,3,2.19,5.47,5.14,8.15,7.77,5.16,5.08,9.89,10.53,13.3,17,2,3.77,3.73,7.68,5.45,11.59s3.18,7.75,4.81,11.6a4.63,4.63,0,0,0,1.1,1.25,10.27,10.27,0,0,1,3.19,6.73c.41,4.35,1.64,8.62,2.06,13,.61,6.29.8,12.61,1.17,18.92h-.32c.14,4.77.17,9.53.06,14.3-.06,2.59-.17,5.17-.3,7.75,0,1.95,0,3.9-.08,5.85a46.53,46.53,0,0,1-.93,7.2q-.39,3.89-.89,7.74a273.53,273.53,0,0,1-5,27.24c.1,1.89,1.3,2.51,4.84,3.9s7.06,2.3,10.47,3.73c3.93,1.65,7.68,3.74,11.6,5.42C649.69,195.51,654.94,197.48,660.13,199.59Zm-7,9.15c1.34-2.12,1.05-3.17-1.28-4.18-5.77-2.48-11.51-5-17.3-7.46-4.82-2-9.7-3.94-14.58-5.83a32.12,32.12,0,0,0-7.18-2.36,3.82,3.82,0,0,1-.57-.11,7,7,0,0,1-2.36-4.49c-.25-2.61.54-5.2.77-7.81a12.94,12.94,0,0,0,.6-2c.43-1.94,1-3.86,1.35-5.81.58-3.3.93-6.64,1.53-9.93,1-5.43,2.67-10.79,3-16.25.77-10.88.84-21.81,1.25-34.21.73-7.44-.82-16-3.94-24.36-2.81-7.48-5.36-15.08-8.57-22.37a114.06,114.06,0,0,0-8.87-16.19c-2-3-5-5.43-7.6-8-4.82-4.79-9.06-10.26-15.56-13.1a15.67,15.67,0,0,1-4.72-3.13c-2.83-2.81-6.35-4.13-10-5.32s-7.23-2.41-10.9-3.44c-4.8-1.33-9.6-2.72-14.48-3.67-11.45-2.24-22.56,1.79-33.9,2.21-5.22.19-9.81,3-14.11,6.34-4.48,3.45-9.92,5.65-14.44,9.06-8.1,6.1-16.83,11.48-23.13,19.75-3.43,4.5-7.37,8.6-10.81,13.09-3.22,4.19-6.09,8.64-9.09,13-2.08,3-4.45,5.92-6.08,9.19-4.44,8.89-8.66,17.9-12.76,27-2.18,4.83-4.11,9.79-5.8,14.81-.75,2.21-.22,4.85-1,7-2.56,7.53-3.16,15.35-3.29,23.14a160.72,160.72,0,0,0,1.28,20.55,175.61,175.61,0,0,0,3.38,20.92c1.52,6.44,3.94,12.66,6.07,18.95,1.8,5.34,3.19,10.86,7.32,15.15,2.21,2.28,3.72,5.26,6,7.43,4.3,4.07,8.84,7.91,13.5,11.58a51.17,51.17,0,0,0,10.35,6.82c6.68,3,13.55,5.73,21.13,5.55a24.36,24.36,0,0,1,3.11.53c4.74.48,9.51,1.47,14.21,1.24,7.13-.35,14.22-1.57,21.33-2.41,2.09-.25,4.35-.06,6.24-.8,4.39-1.73,8.56-4,12.92-5.86,7.59-3.2,14.12-8,20.69-12.84,3.51-2.57,5.83-6.06,8.09-9.59a2.11,2.11,0,0,0,1.7-.92,8.87,8.87,0,0,1,10.59-2.67,9.26,9.26,0,0,0,2.66,2.41c7.48,4.46,15,8.89,22.57,13.15a77.85,77.85,0,0,0,10.51,5c3.08,1.17,5.92.67,9.06-1.27,4.72-2.92,9.79-5,13.33-9.7a48.45,48.45,0,0,1,8.59-8.58C641.23,222.3,648.22,216.57,653.15,208.74Z"/><path class="cls-1" d="M651.87,204.56c2.33,1,2.62,2.06,1.28,4.18-4.93,7.83-11.92,13.56-19.06,19.22a48.45,48.45,0,0,0-8.59,8.58c-3.54,4.68-8.61,6.78-13.33,9.7-3.14,1.94-6,2.44-9.06,1.27a77.85,77.85,0,0,1-10.51-5c-7.59-4.26-15.09-8.69-22.57-13.15a9.26,9.26,0,0,1-2.66-2.41,8.87,8.87,0,0,0-10.59,2.67,2.11,2.11,0,0,1-1.7.92c-2.26,3.53-4.58,7-8.09,9.59-6.57,4.81-13.1,9.64-20.69,12.84-4.36,1.83-8.53,4.13-12.92,5.86-1.89.74-4.15.55-6.24.8-7.11.84-14.2,2.06-21.33,2.41-4.7.23-9.47-.76-14.21-1.24a24.36,24.36,0,0,0-3.11-.53c-7.58.18-14.45-2.56-21.13-5.55A51.17,51.17,0,0,1,437,247.88c-4.66-3.67-9.2-7.51-13.5-11.58-2.3-2.17-3.81-5.15-6-7.43-4.13-4.29-5.52-9.81-7.32-15.15-2.13-6.29-4.55-12.51-6.07-18.95a175.61,175.61,0,0,1-3.38-20.92,160.72,160.72,0,0,1-1.28-20.55c.13-7.79.73-15.61,3.29-23.14.75-2.2.22-4.84,1-7,1.69-5,3.62-10,5.8-14.81,4.1-9,8.32-18.06,12.76-26.95,1.63-3.27,4-6.16,6.08-9.19,3-4.36,5.87-8.81,9.09-13,3.44-4.49,7.38-8.59,10.81-13.09,6.3-8.27,15-13.65,23.13-19.75,4.52-3.41,10-5.61,14.44-9.06,4.3-3.32,8.89-6.15,14.11-6.34,11.34-.42,22.45-4.45,33.9-2.21,4.88.95,9.68,2.34,14.48,3.67,3.67,1,7.28,2.24,10.9,3.44s7.14,2.51,10,5.32a15.67,15.67,0,0,0,4.72,3.13c6.5,2.84,10.74,8.31,15.56,13.1,2.62,2.61,5.63,5,7.6,8a114.06,114.06,0,0,1,8.87,16.19c3.21,7.29,5.76,14.89,8.57,22.37,3.12,8.33,4.67,16.92,3.94,24.36-.41,12.4-.48,23.33-1.25,34.21-.38,5.46-2,10.82-3,16.25-.6,3.29-1,6.63-1.53,9.93-.34,1.95-.92,3.87-1.35,5.81a12.94,12.94,0,0,1-.6,2c-.23,2.61-1,5.2-.77,7.81a7,7,0,0,0,2.36,4.49,3.82,3.82,0,0,0,.57.11,32.12,32.12,0,0,1,7.18,2.36c4.88,1.89,9.76,3.8,14.58,5.83C640.36,199.52,646.1,202.08,651.87,204.56Zm-85.19-54.5c2.73-5.7,4.78-11.64,4.31-18.1-.26-3.69-1.43-7.42-1.07-11,.81-8.17-3.19-14.86-6.23-21.69-3.22-7.24-7.8-13.87-14.47-18.61a81,81,0,0,0-9.42-6.1,78.27,78.27,0,0,0-9.57-3.7c-2.65-1-5.27-2.23-8-2.64-3.29-.49-6.71-.06-10.05-.32-8.94-.68-16.56,2.67-22.89,8.42-5,4.52-9.18,9.93-13.5,15.13a51.82,51.82,0,0,0-10.38,20.4,171.64,171.64,0,0,0-4.46,23.54c-.71,6.42-.16,13,0,19.5a10.92,10.92,0,0,0,.94,3.57c1.3,3.46,2.61,6.92,4.08,10.32a32.52,32.52,0,0,0,3.15,5.84c2.67,3.78,5.74,7.28,8.32,11.11,3.57,5.31,7.67,10.34,13,13.67a48.51,48.51,0,0,0,17,6.94c6.26,1.09,13,.46,19.34-.46,1.49-.21,2.94-.6,4.4-.92l.07,0c3.92-1,7.09-3.2,8.42-7.14a19.61,19.61,0,0,0,.73-2.93,23.92,23.92,0,0,0-2.87-9.41c-1.13-2.05-1.61-4.46-2.4-6.7-1.28-3.58-2.44-7.2-3.88-10.7S527.89,161,526,156.91c2.08-.27,3.18-.47,4.29-.55,4.11-.33,8.26-.39,12.32-1,7-1,14-2.33,21-3.64C564.75,151.53,566.27,150.93,566.68,150.06Z"/><path d="M571,132c.47,6.46-1.58,12.4-4.31,18.1-.41.87-1.93,1.47-3,1.68-7,1.31-14,2.61-21,3.64-4.06.59-8.21.65-12.32,1-1.11.08-2.21.28-4.29.55,1.89,4,3.66,7.52,5.15,11.12s2.6,7.12,3.88,10.7c.79,2.24,1.27,4.65,2.4,6.7a23.92,23.92,0,0,1,2.87,9.41,19.61,19.61,0,0,1-.73,2.93c-1.33,3.94-4.5,6.13-8.42,7.14l-.07,0c-1.46.32-2.91.71-4.4.92-6.36.92-13.08,1.55-19.34.46a48.51,48.51,0,0,1-17-6.94c-5.29-3.33-9.39-8.36-13-13.67-2.58-3.83-5.65-7.33-8.32-11.11a32.52,32.52,0,0,1-3.15-5.84c-1.47-3.4-2.78-6.86-4.08-10.32a10.92,10.92,0,0,1-.94-3.57c-.12-6.51-.67-13.08,0-19.5a171.64,171.64,0,0,1,4.46-23.54,51.82,51.82,0,0,1,10.38-20.4c4.32-5.2,8.52-10.61,13.5-15.13,6.33-5.75,14-9.1,22.89-8.42,3.34.26,6.76-.17,10.05.32,2.74.41,5.36,1.68,8,2.64a78.27,78.27,0,0,1,9.57,3.7,81,81,0,0,1,9.42,6.1c6.67,4.74,11.25,11.37,14.47,18.61,3,6.83,7,13.52,6.23,21.69C569.56,124.54,570.73,128.27,571,132Zm-8.13,9a34.49,34.49,0,0,0,1-8.47c-.34-6.78-1.09-13.53-1.71-20.29a5.6,5.6,0,0,0-.61-1.88,96.41,96.41,0,0,0-4.29-8.64c-2.6-4.27-5.13-8.68-8.39-12.43a36.83,36.83,0,0,0-16.5-10.79c-5.88-1.94-11.11-6.45-17.55-4.63-9.16-1.37-16.34,1.92-22.2,8-4.2,4.4-7.66,9.5-11.83,13.93-4.45,4.73-7,10.46-8.48,16.44-2,7.79-4.31,15.57-4.49,23.76s-1.52,16.6,2.61,24.42c2.2,4.15,3.05,9,6.9,12.3a15.79,15.79,0,0,1,2.26,3.23c2.7,3.89,5.27,7.88,8.14,11.63a25.29,25.29,0,0,0,13.05,9.24c4.35,1.27,8.47,3.24,13.3,3.15a65.17,65.17,0,0,0,15.74-2.47c2.94-.78,3.79-1.57,3-4.59-.62-2.27-1.79-4.38-2.61-6.59-2.3-6.21-4.33-12.52-6.9-18.61a49.09,49.09,0,0,0-5.86-10c-1.32-1.79-2.23-3.38-1.45-5.44s2.75-2.46,4.89-2.7c10.28-1.13,20.87.12,30.77-3.95.3-.13.81.36,1.25.41C558.57,146.76,561.63,147,562.86,140.93Z"/><path d="M374,1.5c3.75.73,4.85,2.14,4.7,6-.33,8.9-.7,17.81-1.22,26.7-.64,10.86-1.6,21.7-2.15,32.57-.75,15-.41,30-2.07,44.86-2.27,20.25-1.17,40.56-2.64,60.8-1,14.2-1.35,28.46-2.1,42.69-.47,8.88-1.26,17.74-1.64,26.62a12.22,12.22,0,0,0,.3,3.16A17,17,0,0,1,362.71,256c-.29.32-.61.6-.93.9-7,.79-14,.05-21-.5-9-.7-18.09-.53-27.13-.8-4.21-.12-8.43-.33-12.63-.63a4.9,4.9,0,0,1-2.59-1.06c-4.9-3.93-6.26-11-4.25-17a89.28,89.28,0,0,0,3-14.48c.63-4.06.71-8.2,1.13-12.29.2-1.92-.24-2.58-2.37-2.24-1.6.25-3.34-.5-5-.42-2.76.12-5.5.8-8.24.78-6.12,0-12.25-.14-18.35-.59-6.88-.5-7.41-.35-10.17,5.77-3.24,7.19-6.44,14.4-9.81,21.53-1.57,3.32-3.87,6.27-4,10.23,0,.91-1.53,1.78-2.35,2.67l.83.27c.05,1,.21,2.08.29,3.12-.43,1.28-.87,2.57-1.37,3.75-.14.32-.3.67-.48,1a8.16,8.16,0,0,1-3.59.69c-11.87.21-23.73.83-35.6,1-7.19.13-14.39-.07-21.57-.44-5.51-.29-7.48-5.75-4.77-11,3.84-7.4,7.14-15.09,10.66-22.65,2.57-5.51,5.09-11,7.68-16.53,2.7-5.75,5.47-11.46,8.18-17.2q2.93-6.21,5.74-12.46c1.23-2.77,2.27-5.62,3.55-8.37,3.39-7.32,6.91-14.59,10.27-21.92,2.05-4.46,3.83-9,5.86-13.52,4.4-9.67,8.81-19.34,13.35-28.95,4.26-9,8.79-17.94,13-27,2.13-4.54,3.77-9.31,5.85-13.87,4.33-9.49,8.93-18.86,13.18-28.39,2.76-6.17,5-12.55,7.66-18.79,1-2.4,2-4.84,3.24-7.12.17-.09.34-.21.52-.3a15.66,15.66,0,0,1,6.27-1.58,6,6,0,0,0,2.84.65c3.54,0,7.08-.15,10.62-.34q6.72-.36,13.45-.9c4.77-.38,9.54-1,14.32-1.25,8.83-.55,17.69-.72,26.49-1.5,4.9-.44,9.71-1.83,14.57-2.67A13.75,13.75,0,0,1,374,1.5Zm-1,10.75c.32-2.06-.14-3.3-2.47-2.85-2.6.5-5.14,1.45-7.75,1.68-7.8.71-15.63,1.2-23.44,1.7-2.58.16-5.19,0-7.76.16-8.39.63-16.77,1.49-25.16,2-6.51.41-13,.37-19.55.73a4.39,4.39,0,0,0-3.16,1.84c-2.3,4.25-4.41,8.63-6.4,13-2.78,6.17-5.34,12.43-8.09,18.61-3.68,8.25-7.47,16.45-11.19,24.68-1.64,3.64-3.16,7.35-4.9,11-5,10.45-10.27,20.81-15.24,31.29-3.87,8.15-7.49,16.43-11.17,24.68q-7.36,16.54-14.67,33.13c-1.15,2.6-2.28,5.2-3.47,7.78-1.8,3.88-3.68,7.72-5.45,11.6-1.26,2.77-2.39,5.6-3.62,8.38-3.45,7.84-6.94,15.65-10.39,23.49-2.05,4.69-4.05,9.41-6.07,14.12-1.17,2.71-2.43,5.38-3.43,8.14-.39,1.09-.61,2.67,1.43,2.68,6.13,0,12.27.2,18.4-.06,7.7-.33,15.39-1,23.09-1.57L234,247.6c-.06-.31-.13-.61-.2-.92,0-1.47-.45-3.14.08-4.39,2.12-5,4.59-9.78,6.84-14.7,3.09-6.72,6.08-13.49,9.14-20.23.94-2.08,1.86-4.17,2.88-6.2a42.71,42.71,0,0,1,6.71-1.56,4.19,4.19,0,0,0,2.29.84c13-.21,26-.48,39-.88,5.21-.16,6.33,1.19,5.41,6.22-1,5.51-1.56,11.11-2.32,16.66-.22,1.6-.39,3.2-.69,4.79-1.09,5.78-3.57,11.28-3,17.42.23,2.35,1,3.3,3.19,3.33,4.89.05,9.76.14,14.65.2,8.52.1,17,.18,25.56.3,1.15,0,2.29.24,3.43.35,3.39.35,6.77.7,10.15,1,2,.19,2.58-.83,2.64-2.76.25-7.25.61-14.5,1-21.74s1.66-14.74,1.3-22,1.81-14.68.77-22.11c-.34-2.46.67-5.08.76-7.63.52-14.93.85-29.86,1.43-44.78.37-9.36,1-18.71,1.61-28.06.51-8.3,1.38-16.58,1.56-24.88.28-13.38.29-26.74,2.59-40,.73-4.22.35-8.62.69-12.92C371.85,19.36,372.38,15.8,372.93,12.25Z"/><path class="cls-1" d="M370.46,9.4c2.33-.45,2.79.79,2.47,2.85-.55,3.55-1.08,7.11-1.36,10.69-.34,4.3,0,8.7-.69,12.92-2.3,13.25-2.31,26.61-2.59,40-.18,8.3-1.05,16.58-1.56,24.88-.58,9.35-1.24,18.7-1.61,28.06-.58,14.92-.91,29.85-1.43,44.78-.09,2.55-1.1,5.17-.76,7.63,1,7.43-1.14,14.67-.77,22.11s-.87,14.68-1.3,22-.78,14.49-1,21.74c-.06,1.93-.63,2.95-2.64,2.76-3.38-.32-6.76-.67-10.15-1-1.14-.11-2.28-.33-3.43-.35-8.52-.12-17-.2-25.56-.3-4.89-.06-9.76-.15-14.65-.2-2.23,0-3-1-3.19-3.33-.58-6.14,1.9-11.64,3-17.42.3-1.59.47-3.19.69-4.79.76-5.55,1.3-11.15,2.32-16.66.92-5-.2-6.38-5.41-6.22-13,.4-26,.67-39,.88a4.19,4.19,0,0,1-2.29-.84,42.71,42.71,0,0,0-6.71,1.56c-1,2-1.94,4.12-2.88,6.2-3.06,6.74-6,13.51-9.14,20.23-2.25,4.92-4.72,9.73-6.84,14.7-.53,1.25-.08,2.92-.08,4.39.07.31.14.61.2.92l-11.55.87c-7.7.55-15.39,1.24-23.09,1.57-6.13.26-12.27.07-18.4.06-2,0-1.82-1.59-1.43-2.68,1-2.76,2.26-5.43,3.43-8.14,2-4.71,4-9.43,6.07-14.12,3.45-7.84,6.94-15.65,10.39-23.49,1.23-2.78,2.36-5.61,3.62-8.38,1.77-3.88,3.65-7.72,5.45-11.6,1.19-2.58,2.32-5.18,3.47-7.78q7.34-16.56,14.67-33.13c3.68-8.25,7.3-16.53,11.17-24.68,5-10.48,10.2-20.84,15.24-31.29,1.74-3.6,3.26-7.31,4.9-11,3.72-8.23,7.51-16.43,11.19-24.68,2.75-6.18,5.31-12.44,8.09-18.61,2-4.41,4.1-8.79,6.4-13a4.39,4.39,0,0,1,3.16-1.84c6.51-.36,13-.32,19.55-.73,8.39-.53,16.77-1.39,25.16-2,2.57-.2,5.18,0,7.76-.16,7.81-.5,15.64-1,23.44-1.7C365.32,10.85,367.86,9.9,370.46,9.4Zm-51.32,123c1.08-7.15.77-14.4.39-21.64-.41-6.39-.79-12.79-.95-19.19-.08-3.21-.69-6.54-.27-9.76-.07-.52-.14-1-.24-1.52a25.84,25.84,0,0,0-1.6-5,11.63,11.63,0,0,0-1.7-1.93,6.08,6.08,0,0,0-3.15,2.09c-4,6.27-7.7,12.78-11.41,19.26-3.11,5.44-6.18,10.9-9.26,16.36-.61.82-1.21,1.64-1.77,2.49A16.67,16.67,0,0,0,287.4,117c-.29.5-.57,1-.84,1.51-.88,1.6-1.71,3.23-2.54,4.86-.93,1.25-1.86,2.51-2.69,3.84a16,16,0,0,0-2.35,5.48,8.1,8.1,0,0,0-.12,2,18.81,18.81,0,0,0-.49,1.93,5,5,0,0,0-.1,1.11c0,.17,0,.35,0,.53l0,.25a.51.51,0,0,0,0,.09,5.79,5.79,0,0,0,.17.63l0,.05.05.09s.17.27.21.35.23.27.28.31c.27.27.1.13.29.26a5.3,5.3,0,0,0,.57.33,6.09,6.09,0,0,0,1.14.4,10.27,10.27,0,0,0,1.82.28l2.06,0a1.89,1.89,0,0,1,.6.1c2.12.11,4.24.29,6.35.44,6.44.46,13.29,1,19.56-.55a12,12,0,0,0,6.49-3.58q.15-.47.3-1A36.11,36.11,0,0,0,319.14,132.44Z"/><path d="M319.53,110.8c.38,7.24.69,14.49-.39,21.64a36.11,36.11,0,0,1-.9,4.35q-.15.53-.3,1a12,12,0,0,1-6.49,3.58c-6.27,1.58-13.12,1-19.56.55-2.11-.15-4.23-.33-6.35-.44a1.89,1.89,0,0,0-.6-.1l-2.06,0a10.27,10.27,0,0,1-1.82-.28,6.09,6.09,0,0,1-1.14-.4,5.3,5.3,0,0,1-.57-.33c-.19-.13,0,0-.29-.26-.05,0-.22-.24-.28-.31s-.18-.3-.21-.35l-.05-.09,0-.05a5.79,5.79,0,0,1-.17-.63.51.51,0,0,1,0-.09l0-.25c0-.18,0-.36,0-.53a5,5,0,0,1,.1-1.11,18.81,18.81,0,0,1,.49-1.93,8.1,8.1,0,0,1,.12-2,16,16,0,0,1,2.35-5.48c.83-1.33,1.76-2.59,2.69-3.84.83-1.63,1.66-3.26,2.54-4.86.27-.51.55-1,.84-1.51a16.67,16.67,0,0,1,1.78-3.43c.56-.85,1.16-1.67,1.77-2.49,3.08-5.46,6.15-10.92,9.26-16.36,3.71-6.48,7.38-13,11.41-19.26a6.08,6.08,0,0,1,3.15-2.09,11.63,11.63,0,0,1,1.7,1.93,25.84,25.84,0,0,1,1.6,5c.1.49.17,1,.24,1.52-.42,3.22.19,6.55.27,9.76C318.74,98,319.12,104.41,319.53,110.8Zm-6.25,28c.1-1.79.22-2.73.21-3.67-.08-7-.09-14-.31-21-.25-8-.7-16.08-1.06-24.12L311,89.86c-.3.21-.71.35-.88.63-2.6,4.44-5.21,8.87-7.73,13.34-3.73,6.61-7.36,13.26-11.09,19.87-1.72,3.06-3.65,6-5.34,9.08-.88,1.6-.61,2.76,1.64,2.74,4,0,8,0,12.06.11a20.35,20.35,0,0,1,3.85.87Z"/><path d="M247,19.14v.19c-2.87,7.22-5.86,14.4-8.64,21.66-1.87,4.87-3.28,9.92-5,14.85-.53,1.51-1.55,2.84-2.09,4.34a86.36,86.36,0,0,0-2.89,8.95A7,7,0,0,1,220.92,75c-4.5,0-9,.16-13.51.32-6.48.22-13,.4-19.45.79-3.67.22-7.31,1-11,1.21a28,28,0,0,1-7.71-.22c-6.37-1.39-12.68-.92-19.06-.24-4.19.45-8.41.75-12.62.8-2.44,0-4.1.94-4.92,3-1.91,5-5.07,9.42-5.42,15-.14,2.3-1.16,4.56-1.91,7.29,2.08.11,3.69.15,5.29.3,6.28.56,12.54,1.47,18.83,1.67,3.46.11,6.92.13,10.39.09l.73.15a1.63,1.63,0,0,0,1.06.25l.25,0c5.72.83,11.76,0,17.45-.22a58.47,58.47,0,0,1,8.06.16,1.6,1.6,0,0,0,.46.35,6.34,6.34,0,0,1,3.47,3.3,7.85,7.85,0,0,1,.06,4.48c-.78,3.4-2.54,6.47-4.2,9.51a1.84,1.84,0,0,0-.2.6c-5.13,8.15-7,17.69-8.87,27a42.83,42.83,0,0,1-2.63,9.43,10,10,0,0,1-4.31,4.94c-.27.14-.56.27-.84.4-8.41.1-16.83.2-25.21.81-5.75.42-11.41,2.12-17.16,2.77a191.59,191.59,0,0,1-19.74,1.26c-6.35.05-6.9.19-8.7,6.4-1.34,4.65-2.71,9.3-4.25,13.89q-4.87,14.52-10,29c-1.88,5.37-4.15,10.61-5.87,16-1.32,4.17-1.94,8.55-3.07,12.78a10.64,10.64,0,0,1-7,6.92c-10.71,0-21.41-.08-32.12.07q-6.95.09-13.89.31a88.73,88.73,0,0,1-11.53.08c-4.28-.42-8.74-2-10.71-5.75-1.72-3.31-1.3-7.48-.25-11.36a5,5,0,0,0,1.6-2.29c1.69-5.44,3.07-11,4.8-16.4,2.71-8.49,5.62-16.92,8.44-25.37a5.28,5.28,0,0,0,.53-1.93c-.44-4.31,2.41-7.46,3.76-11.15,2.22-6.07,4.09-12.27,6.2-18.38,2.63-7.62,5.39-15.19,8-22.8,2-5.66,3.85-11.35,5.74-17q2.53-7.58,5-15.15c1.39-4.25,2.77-8.5,4.07-12.78,2-6.64,3.95-13.3,5.94-19.95C56.58,70.17,58,65,59.74,60c1.87-5.39,4.14-10.63,6.11-16,1.18-3.2,2-6.52,3.19-9.72q3.67-10,7.65-19.8a3.2,3.2,0,0,1,2.5-1.24c11.29-.25,22.57-.33,33.86-.61,2.15,0,4.27-1,6.42-1.1,7.55-.26,15.1-.38,22.66-.42,20.7-.12,41.4-.12,62.1-.27,8.89-.06,17.78-.29,26.67-.52l.23,0a38.89,38.89,0,0,1,6.23.44,24,24,0,0,1,2.88.66c.42.13.85.28,1.26.43l.3.13.59.28a10.13,10.13,0,0,1,1.07.6l.5.33.16.1.13.12c.29.26.57.52.84.8l.31.36s.21.28.26.35A7.78,7.78,0,0,1,247,19.14Zm-7.46,2.55c1.46-3.69,1.19-4.16-2.75-4.08-12,.26-23.95.48-35.92.84-7.64.23-15.27.9-22.91.94-6.58,0-13.16-.65-19.74-.87-7.67-.26-15.34-.46-23-.5-4.59,0-9.19.16-13.78.47-3.37.22-6.71.87-10.08,1.19-5,.47-10.07.27-14.86,1.39-3.91.07-7.82.12-11.74.13-3-1.14-5.12.05-6.1,3.1-3.37,10.52-6.78,21-10.89,31.29C63.08,67.23,60,79.46,56.18,91.44c-1.49,4.73-2.85,9.51-4.41,14.22-1.62,4.89-3.4,9.72-5.12,14.57q-4.38,12.33-8.75,24.67c-.89,2.52-1.89,5-2.58,7.58-1.17,4.31-2.07,8.7-3.21,13-.53,2-1.35,4-2.06,6-2.22,6.12-4.52,12.21-6.66,18.36-1.06,3.05-1.77,6.22-2.78,9.28-2.16,6.58-4.48,13.11-6.61,19.69-1.34,4.16-2.31,8.44-3.7,12.57-1.62,4.81-3.37,9.57-2.91,14.74.07.82,1,2.19,1.64,2.23,5.83.3,11.68.6,17.51.47q18.66-.44,37.3-1.37c2.73-.14,5.57-.88,6.47-4.45s2.21-6.79,3.42-10.15c2.51-7,5.09-14,7.59-21,1.13-3.13,2.05-6.34,3.23-9.46,1.85-4.89,3.94-9.69,5.75-14.6,1.45-3.9,2.61-7.91,4-11.85.86-2.52,2.23-4.93,2.66-7.5.9-5.5,1.19-6.32,6.64-5.72,8.53,1,16.75-1.35,25.15-1.68,1.67-.06,3.31-.88,5-1.33a14.37,14.37,0,0,1,3.23-.79c5.94-.22,11.9-.14,17.83-.55a80.62,80.62,0,0,0,11.19-1.86,4,4,0,0,0,2.37-1.88c2.07-4,4-8.15,5.87-12.29,1-2.16,1.55-4.49,2.54-6.64,2.74-6,5.68-11.82,8.38-17.79a33.55,33.55,0,0,0,1.47-5.42,47,47,0,0,0-6.23-.74c-7.07.1-14.14.29-21.21.45a2,2,0,0,0-.61-.1c-2.74,0-5.53.1-8.32.2-.78,0-1.56-.1-2.33-.18-6.37-.67-12.73-1.48-19.11-2a6.79,6.79,0,0,0-1.34.06c-.83-.14-1.67-.24-2.49-.36-1.7-.25-3.41-.45-5.09-.79a2.42,2.42,0,0,0-.46,0,5.27,5.27,0,0,1-1.24-.78,2.5,2.5,0,0,1-.68-.93,4.11,4.11,0,0,1-.21-1.88,20.84,20.84,0,0,1,.35-3c1.18-2.51,2.07-5.17,3-7.77,1.26-3.37,2.48-6.76,3.61-10.18,1-3.21,3.28-6,3.36-9.57a7,7,0,0,1,1.29-1.25A25.8,25.8,0,0,1,133,71.35c.77-.37,1.56-.71,2.36-1l9.13-.62a2.09,2.09,0,0,0,2,.63c9.38-1.35,18.88.6,28.26,1,9.6.43,19.12-1.52,28.71-1a1.63,1.63,0,0,0,1.37-.53,91.33,91.33,0,0,0,15.84-1.11h0c.07.07.14.13.2.2l.76-.58c0-.14.05-.28.07-.41a2,2,0,0,0,.23-1.5h0a7.83,7.83,0,0,1,.42-1.7c2.66-6.71,5.44-13.36,8.1-20.06C233.53,37.05,236.47,29.35,239.5,21.69Z"/><path class="cls-1" d="M236.75,17.61c3.94-.08,4.21.39,2.75,4.08-3,7.66-6,15.36-9,23-2.66,6.7-5.44,13.35-8.1,20.06a7.83,7.83,0,0,0-.42,1.7h0a2,2,0,0,1-.23,1.5c0,.13,0,.27-.07.41l-.76.58c-.06-.07-.13-.13-.2-.2h0a91.33,91.33,0,0,1-15.84,1.11,1.63,1.63,0,0,1-1.37.53c-9.59-.56-19.11,1.39-28.71,1-9.38-.43-18.88-2.38-28.26-1a2.09,2.09,0,0,1-2-.63l-9.13.62c-.8.31-1.59.65-2.36,1a25.8,25.8,0,0,0-4.12,2.27,7,7,0,0,0-1.29,1.25c-.08,3.57-2.31,6.36-3.36,9.57-1.13,3.42-2.35,6.81-3.61,10.18-1,2.6-1.87,5.26-3,7.77a20.84,20.84,0,0,0-.35,3,4.11,4.11,0,0,0,.21,1.88,2.5,2.5,0,0,0,.68.93,5.27,5.27,0,0,0,1.24.78,2.42,2.42,0,0,1,.46,0c1.68.34,3.39.54,5.09.79.82.12,1.66.22,2.49.36a6.79,6.79,0,0,1,1.34-.06c6.38.52,12.74,1.33,19.11,2,.77.08,1.55.14,2.33.18,2.79-.1,5.58-.19,8.32-.2a2,2,0,0,1,.61.1c7.07-.16,14.14-.35,21.21-.45a47,47,0,0,1,6.23.74,33.55,33.55,0,0,1-1.47,5.42c-2.7,6-5.64,11.84-8.38,17.79-1,2.15-1.57,4.48-2.54,6.64-1.86,4.14-3.8,8.25-5.87,12.29a4,4,0,0,1-2.37,1.88,80.62,80.62,0,0,1-11.19,1.86c-5.93.41-11.89.33-17.83.55a14.37,14.37,0,0,0-3.23.79c-1.66.45-3.3,1.27-5,1.33-8.4.33-16.62,2.63-25.15,1.68-5.45-.6-5.74.22-6.64,5.72-.43,2.57-1.8,5-2.66,7.5-1.35,3.94-2.51,8-4,11.85-1.81,4.91-3.9,9.71-5.75,14.6-1.18,3.12-2.1,6.33-3.23,9.46-2.5,7-5.08,14-7.59,21-1.21,3.36-2.54,6.7-3.42,10.15s-3.74,4.31-6.47,4.45q-18.63,1-37.3,1.37c-5.83.13-11.68-.17-17.51-.47-.6,0-1.57-1.41-1.64-2.23-.46-5.17,1.29-9.93,2.91-14.74,1.39-4.13,2.36-8.41,3.7-12.57,2.13-6.58,4.45-13.11,6.61-19.69,1-3.06,1.72-6.23,2.78-9.28,2.14-6.15,4.44-12.24,6.66-18.36.71-2,1.53-3.93,2.06-6,1.14-4.32,2-8.71,3.21-13,.69-2.57,1.69-5.06,2.58-7.58q4.37-12.35,8.75-24.67c1.72-4.85,3.5-9.68,5.12-14.57,1.56-4.71,2.92-9.49,4.41-14.22,3.77-12,6.9-24.21,11.54-35.85,4.11-10.3,7.52-20.77,10.89-31.29,1-3.05,3.14-4.24,6.1-3.1,3.92,0,7.83-.06,11.74-.13,4.79-1.12,9.9-.92,14.86-1.39,3.37-.32,6.71-1,10.08-1.19,4.59-.31,9.19-.5,13.78-.47,7.67,0,15.34.24,23,.5,6.58.22,13.16.9,19.74.87,7.64,0,15.27-.71,22.91-.94C212.8,18.09,224.78,17.87,236.75,17.61Z"/></g></g></svg>