<svg xmlns="http://www.w3.org/2000/svg" xmlns:xlink="http://www.w3.org/1999/xlink" viewBox="0 0 612 792"><defs><style>.cls-1{fill:none;}.cls-2{clip-path:url(#clip-path);}.cls-3{clip-path:url(#clip-path-2);}.cls-4{clip-path:url(#clip-path-3);}.cls-5{clip-path:url(#clip-path-4);}.cls-6{clip-path:url(#clip-path-5);}.cls-7{clip-path:url(#clip-path-6);}.cls-8{clip-path:url(#clip-path-7);}.cls-9{clip-path:url(#clip-path-8);}.cls-10{fill:#e2d8e1;}.cls-11{clip-path:url(#clip-path-9);}.cls-12{clip-path:url(#clip-path-10);}.cls-13{clip-path:url(#clip-path-11);}.cls-14{clip-path:url(#clip-path-12);}.cls-15{clip-path:url(#clip-path-13);}.cls-16{clip-path:url(#clip-path-14);}</style><clipPath id="clip-path"><path class="cls-1" d="M568.79-1437.36c247,134-82,703.84-321.54,556.88C.27-1014.49,329.25-1584.31,568.79-1437.36Z"/></clipPath><clipPath id="clip-path-2"><path class="cls-1" d="M591.9-954.44c-629.2-46.65-608.36,196.07-593-407C628.1-1314.78,607.26-1557.5,591.9-954.44Z"/></clipPath><clipPath id="clip-path-3"><path class="cls-1" d="M615-1267.41c2.67,164-116.28,275.34-251.32,329-13,1.61-58.2-2.56-71.61-2.56-419,6.26-419-659.22,0-652.92C470.42-1593.87,615-1447.71,615-1267.41Z"/></clipPath><clipPath id="clip-path-4"><path class="cls-1" d="M612.49-964.58C-166.68-966.81,15-841.22-2.13-1596.36,777-1594.1,595.38-1719.69,612.49-964.58Z"/></clipPath><clipPath id="clip-path-5"><path class="cls-1" d="M1193.62-1444.46c242.57,135.9-67.63,683.05-321.55,556.88C621.73-1058.59,951.52-1551.37,1193.62-1444.46Z"/></clipPath><clipPath id="clip-path-6"><path class="cls-1" d="M1216.72-961.54c-481.12-58-646.42,222.87-593-407C1104.84-1310.5,1270.14-1591.4,1216.72-961.54Z"/></clipPath><clipPath id="clip-path-7"><path class="cls-1" d="M614.59-2032.57c2.67,164-116.29,275.34-251.32,329-13,1.61-58.2-2.56-71.61-2.56-419,6.26-419-659.22,0-652.92C470-2359,614.59-2212.87,614.59-2032.57Z"/></clipPath><clipPath id="clip-path-8"><rect class="cls-1" x="-3" y="-2362" width="615" height="632"/></clipPath><clipPath id="clip-path-9"><path class="cls-1" d="M620.8,396.13c0,143.36-114.28,324-262.69,299.67-13,1.59-61.59,1-75,1-178.35,0-308.17-120.36-308.17-300.66C-31.15-27.4,626.93-27.49,620.8,396.13Z"/></clipPath><clipPath id="clip-path-10"><path class="cls-1" d="M618.28,699C-141.11,705.39,12.11,801.86,3.67,67.18,763,60.79,609.82-35.69,618.28,699Z"/></clipPath><clipPath id="clip-path-11"><rect class="cls-1" x="266" y="-777" width="342" height="699"/></clipPath><clipPath id="clip-path-12"><path class="cls-1" d="M547.2-269c-274.88-23.85-288,103.62-275-222C547.08-467.15,560.16-594.61,547.2-269Z"/></clipPath><clipPath id="clip-path-13"><rect class="cls-1" x="864" y="-745" width="342" height="699"/></clipPath><clipPath id="clip-path-14"><path class="cls-1" d="M1144.51-236.6c-272.28-23.56-288.82,103.08-275-222h275"/></clipPath></defs><g id="ghonies"><g class="cls-8"><g class="cls-9"><path class="cls-10" d="M470,652.22h-1C469.39,651.75,469.64,651.75,470,652.22Z"/><path class="cls-10" d="M342.86,449.63c-.35-4,5.42-24.81,2.05-27.71-3.16-1.91-5-9.52-.28-10.65,40.85-17.41,64-130.68,119-77.88,24.09,15.93,13.34,167-18.1,96.42-9.49,10.13,1,64.34-2.33,83.34.88,18.64-23.88,45.57-36.88,21.33-2.25-15.52-.22-33-1.69-49-.61-3-3.5-3.39-5.59-1.12C368.77,518.5,340.44,486.65,342.86,449.63Zm62.59-17.93c12.32-10.45,40.36-93.54,13.57-89.54-20.1,20.62-33.12,47.32-52.29,68.71-12.41,15.09-10.47,35.53-9.36,53.66C375.88,458.22,391.93,444.85,405.45,431.7Zm22.38,9.24c2.85-23.86,16.56-38.12,31.85-12.43,9.08-22.17,9.68-89.07-20.29-93.28,13.88,59-20.42,121-77.14,142.25a2.65,2.65,0,0,0-.89,2.36c18.36,21.6,34.64-20.27,48.77-10.1,13.48,16.6,9.48,38.42,7.69,57.91C441.42,527.83,429.39,457.61,427.83,440.94Z"/><path class="cls-10" d="M279.72,325.93c6.92,7.37,8.48,24.14,6.34,33.34-2.3,9.9-10.68,10-16.62,14.11-6.81,6.21-16.38,6.12-25.08,6.72-8.33.37-12.5-10.83-2-11.19,18.79-.32-5.31-13.4,5.53-43.55,6.66-27,20.56-17.59,31.84.58l-.17,0Zm-5.33,20.23c.71-6.55-7.85-23-13.24-21-1.84,9.88-3,19.78-1.2,29.85C263.45,369.28,278.92,355,274.39,346.16Z"/><path class="cls-10" d="M542.12,295.51c2.55,18.5-16.57,25.52-28.79,34.27-5.56-1.71-11.81-.16-17.19-1.17-10.14-7,2.37-12.5,9.47-11.29C486.48,270.64,523.93,228,542.12,295.51Zm-12.45,1.78c-3.8-8-5.36-17.43-11.18-24.27-7.74,7.8-7.82,32.32,1.2,37.87C523.6,307.11,530,305,529.67,297.29Z"/><path class="cls-10" d="M479.08,237.69c-1.37-9.77-9.5-31.13,4.06-33.57,9.65,17.72,13,64.36-18.41,49.34-7.75-8.75-14.6-18.34-23.06-26.48-3.34-1.32-9.48,2.65-9.81-3.42.35-10.75,13.26-14.62,19.39-5.4C457.71,222.06,474,252.78,479.08,237.69Z"/><path class="cls-10" d="M283.8,234.2a.54.54,0,0,1,0,.55l-.44-.38Z"/><path class="cls-10" d="M341.69,661h0Z"/><path class="cls-10" d="M158,622.2l-.57-.58Z"/><path class="cls-10" d="M588,399c-.77-103.85-42.61-240.33-160-259.11C358.34,98.82,275.4,84.42,197.6,108.79,31.13,183-30,382.49,64.47,543.33h0C139,652,244.46,693.16,372.88,686.7c32.63,30.86,71.77,0,84.53-34.44,1-1.76.66-2.83,3.22-1.61,18,7.83,27.87-11.72,35.81-24.55.83-.87,2.6-4.85,3.17-6.6l-.88.31c2.57-3.46,5.64-15.35,9.44-15.9C577.47,628.83,588.94,442.62,588,399ZM365.58,668.3c-70.21,17.34-147.65-11.82-208.47-45.88.13-.26.25-.52.37-.78-112.34-79.37-159.55-238.38-97-364,73.27-140.35,210.29-189,352-114.06h0c6.66,2.51,5.38,6.87,3.55,12.19-1.38,32.43-16.33-4.57-27.58-10.73-41.93-.26-2.77,57.92-4.9,80.49,1.83,13.89-16.94,16.54-21.52,4.38-12.64-21.12-26.29-67.46-58.69-47.44-8.49,7.52-7.85,10.85-1.62,20.94,3.14,5.48,7.62,34.19-5.78,24.66C273.47,197.43,261,121.18,207.2,148.46c-16.29,15.86,24,60.63,3.66,81.88-5.16,6.59-12.65-12.7-15.85-16.62-3.54-7.92-15.25-2.17-20.94.61C118.21,265.8,225.19,378.15,184.58,422c-23.19,7.44-15-45.22-15.43-57.82.45-16-14-26.53-27.21-15-22.88,15.27-25.37,45.1-33,69.14-6.86,40.28,38.9,221.35,96,182.19,13.56,17.4,54.86,63.53,69.94,25.74-.58-22.51-13.71-45.27-8.83-67.49,10.14,16.46,13,38,24.9,53.71,13.69,13.41,24.11,2.63,27.88-13.2,9.41,25.15,1.87,86.48,42.74,48,2.5,6.28,2.32,15,6.47,20ZM575.7,401.72c8.69,22.19-30.7,255.56-67.86,173.95-.65-5.31-.24-5.94-5.29-3.22-11.47,3.93,1.42,38.64-25.29,62.66h0c-5,6.43-15.47,4.29-14.7-4.38C453,615.24,446.92,641,443.31,647.89l.32-.11c-6,12.73-12.88,26.51-25.63,33.74-12.49,7.64-37,4.58-37.72-14.82l.84-.17a14.75,14.75,0,0,1-1-3.62l-.27.1c.95-3-7.5-37-24.24-27.86-3.66,2.41-8.37,7.8-13.12,4.35L342,640c-5.68-13.15-4.94-29-8.39-43.1-1.81-11.69-17.7-21.14-25.42-8.43-2.74,4.55-3.45,10.31-7.19,14.22-11.74-16-13.29-39.08-26.2-55.25-12.61-11.87-22.55-1.41-23.67,12.66-5.43,17.17,17,61.74,6.21,65.54-37.6-5-54.82-81.2-66.32-31.76C135.15,563.65,101.52,423.35,141.09,370c21.89-23.71,10.79,2.33,12.09,16.77-2.83,83.07,91.59,62.8,38.21-60.28l0,0c-10.07-29.1-36.2-77.35-6.66-99.89,7.71,8.25,14.57,24,28.37,18.22,12.47-5.12,15.63-15.47,16.51-27.46,1.24-17-3.5-32.59-10.63-47.69-8.59-18.57,11.67-13.69,22.11-7.39,21.38,18.73,25.33,51.56,42.69,71.88,14.09,26.22,52.63,3.77,27.5-42.08,20.67-7.49,30.53,38,42.22,49.89,17.91,23.3,51.35,4.45,44.12-22.57-3.11-19.42-15-39.2-13.81-58.58,11.57,8.63,21.78,31.75,39.16,23.09l-.1-.18.11.17c18.9-14.8,3.05-15.61,6.56-26.82,14.29-7.59,31.33,9.39,45.79,12.49C551.07,218.63,573.78,316.62,575.7,401.72Z"/><path class="cls-10" d="M405.49,431.68v0Z"/></g></g></g><g id="Layer_2" data-name="Layer 2"><path class="cls-10" d="M260.49,363.51c-10.2-13.38-9.39-63.8,14.61-55.61,14.68,13.49,27.74,35.38,15.9,54.73-12.26,7.72-24.17,13-38.44,13.86C236.89,373.52,248.51,363.22,260.49,363.51ZM269.92,321c-2.13,8.55-7.95,42.7,7.91,35.45C289.78,346.39,280.87,328.36,269.92,321Z"/><path class="cls-10" d="M517.24,326.92c-3.38-5.13-28.31,4.89-19-10.27,4-3.55,7.59-.78,12.11-1.5-16.55-35.21,7.9-84.79,27.52-40.44C554,299.67,540,314.28,517.24,326.92Zm15.45-31.53c-.76-8.8-5.32-17.35-10.39-24.45C508.52,283.49,521.8,330.52,532.69,295.39Z"/><g class="cls-11"><g class="cls-12"><path class="cls-10" d="M473,651.29h-1C472.37,650.85,472.67,650.81,473,651.29Z"/><path class="cls-10" d="M395.32,354.68c105-142.36,98.36,168,53.24,74.2-10.21,22.51,1.65,57.53-2.33,83.34,2,29.76-43.26,46.09-37.59,6-2.81-8.19,5.33-38.45-6.56-34.85-28.58,33.92-59.75,1.6-56.2-34.71,2.24-17.26,5.22-19.83-1.13-35.67,11.24-7.49,21.76-13.78,28.25-26.4m35.47,44.14c12.8-14.68,40.73-87.45,13.56-89.54-20.09,20.61-33.11,47.32-52.28,68.71C342.31,472.85,365.71,473.76,408.47,430.77ZM430.85,440c2.84-23.86,16.56-38.13,31.84-12.43,8.41-26.66,11.64-83.79-20.28-93.29,13.88,59-20.43,121-77.15,142.26C381,514,429.59,406,420.83,526.72,446.17,521.07,431.62,460.9,430.85,440Z"/><path class="cls-10" d="M482.09,236.76c-1.37-9.77-9.5-31.13,4.07-33.57,10.12,17.52,12.22,64.25-18.42,49.34-7.74-8.75-14.59-18.35-23.06-26.48-3.34-1.32-9.47,2.65-9.8-3.42.34-10.75,13.25-14.62,19.38-5.4C462,221.87,474.67,250.49,482.09,236.76Z"/><path class="cls-10" d="M286.81,233.27a.54.54,0,0,1,0,.55C286.46,233.58,286.27,233.37,286.81,233.27Z"/><path class="cls-10" d="M344.71,660h0Z"/><path class="cls-10" d="M161.05,621.27l-.58-.58Z"/><path class="cls-10" d="M591,398.08C590.25,294.23,548.41,157.75,431,139c-69.68-41.07-152.62-55.47-230.42-31.11-270.46,117.91-218.5,527,78.72,572.4,31.6,10.18,63.95,3.12,96.56,5.52,31.56,30.7,72.65-.22,84.53-34.45,1-1.75.67-2.82,3.22-1.6,17.92,7.76,27.91-11.67,35.81-24.55.83-.88,2.6-4.85,3.18-6.6l-.89.31c2.58-3.47,5.64-15.35,9.44-15.9C585.48,620.62,589.33,447.27,591,398.08ZM368.6,667.37C147.77,710.15-38.72,457.17,63.45,256.73c47.46-97,150.69-166.72,260.68-146.37,32.35,5,61.68,19.39,91.35,32.31,9.37,1.16,1.85,21.32.66,26.24-11.34-5.16-14.73-18.25-24.69-24.78-42.07,1.14-2.74,57.09-4.9,80.49-21.05,51.45-38.72-78.32-80.2-43.06-8.5,7.52-7.86,10.84-1.63,20.94,3.14,5.48,7.63,34.19-5.77,24.66-22.44-30.73-34.94-106.87-88.74-79.63-17.09,9.47,30.61,82.66-1.8,80.87-7.14-4.76-8.46-22.86-19-18.9-83.5,32.53,42.1,169.88-1.84,211.58-23.19,7.45-15-45.21-15.42-57.82-5.76-44.47-48.75-2.2-51.28,22.07-21.74,73.12,3.74,172.31,64.75,220.09,39.71,2.45,6.1-20.86,48.16,22.25,53.25,36.11,45.26-17.29,34.56-52.88-2.53-56,28.86,97.84,53.53,23.61,7.53,25.11,5.07,85.23,42.74,48C365,652.61,372.5,665.36,368.6,667.37ZM578.71,400.79C583.27,434.38,554,656,505.56,571.52c-11.46,3.93,1.43,38.64-25.28,62.66-19.88,18.38-14.23-39.18-34,12.78l.33-.11c-5.85,27-52.77,59.36-63.36,18.92,1.91-2.23-6.14-40.86-24.66-31.56-3.67,2.42-8.37,7.81-13.12,4.36-8.76-12-3.24-76.58-34.3-51-2.81,3.48-4.78,18.77-10,11.64-7.34-17.72-12.25-36.77-23.34-52.66C253.71,527,251.24,568.8,255.5,584.4c-.08,8.41,14.82,37.55,4.86,40.35-16.31-2.68-26.39-17.16-37.68-28-40.29-64.87-7.42,55.43-69.87-53-17.12-35.24-24.06-73.2-27.41-111.95-6.8-22,39.6-114.21,30.79-46,5.09,97.22,89.42,42.76,38.21-60.28l0,0c-10.1-29.09-36.17-77.35-6.65-99.9,14.28,28.17,44,22.57,44.87-9.23,8.66-16.92-31.09-68.68,1-59.65,31.79,10.74,33.14,55,53.18,76.45,14.09,26.22,52.63,3.77,27.5-42.08,20.68-7.49,30.53,38,42.23,49.89,17.9,23.3,51.35,4.45,44.11-22.57-29.59-107.44-7.41-25,25.25-35.67,27-16.37-25.49-47.85,52.46-14.16C554.08,217.7,576.79,315.69,578.71,400.79Z"/><path class="cls-10" d="M408.5,430.75v0Z"/></g></g><g class="cls-13"><g class="cls-14"><path class="cls-10" d="M478.14,792.37c-.35-4,5.42-24.81,2.05-27.72-3.16-1.9-5-9.52-.28-10.64,28.26-14.86,39.93-50.48,60.76-73.86,29.64-39.7,72.35-4.86,71.27,35.73-2,154.26-39.86,12.93-35.12,79,4.4,23.5,7.14,121.2-35.21,82.35-4.83-9.5,6-53.86-7.27-50.14C505.77,861,474.59,828.68,478.14,792.37Zm62.59-17.93c12.81-14.69,40.74-87.46,13.57-89.54-20.1,20.61-33.12,47.32-52.29,68.7C474.57,816.52,498,817.43,540.73,774.44Zm22.38,9.24c2.85-23.86,16.56-38.13,31.84-12.43,8.42-26.67,11.65-83.79-20.27-93.29,13.87,59-20.43,121-77.15,142.26,15.68,37.46,64.32-70.53,55.57,50.17C578.43,864.74,563.88,804.56,563.11,783.68Z"/><path class="cls-10" d="M415,668.66c21.37,28.86-4.72,55.53-35.35,54.17-8.33.38-12.5-10.83-2-11.18,18.78-.32-5.32-13.41,5.53-43.56,4.7-26,22.71-17,31.67.62Zm-5.32,20.23c-9.34-37-19.1-17.32-14.44,8.87C398.72,712,414.2,697.71,409.67,688.89Z"/><path class="cls-10" d="M614.36,580.43c-1.38-9.77-9.51-31.13,4.06-33.57,10.12,17.52,12.23,64.24-18.41,49.33-7.75-8.75-14.6-18.34-23.07-26.47-3.34-1.32-9.47,2.64-9.8-3.42.35-10.76,13.25-14.62,19.39-5.4C594.28,565.54,606.93,594.16,614.36,580.43Z"/><path class="cls-10" d="M419.07,576.94a.5.5,0,0,1,0,.55C418.73,577.25,418.54,577,419.07,576.94Z"/><path class="cls-10" d="M723.29,741.74c-.77-103.84-42.62-240.32-160-259.11-69.68-41.07-152.62-55.47-230.42-31.11-270.47,117.9-218.51,527,78.71,572.4,31.61,10.18,64,3.12,96.57,5.52,31.56,30.69,72.64-.22,84.52-34.45,1-1.75.67-2.82,3.23-1.6,17.92,7.76,27.9-11.67,35.81-24.55.83-.88,2.6-4.85,3.17-6.6l-.88.31c2.57-3.47,5.64-15.35,9.44-15.9C717.74,964.29,721.59,790.94,723.29,741.74ZM500.86,1011C280,1053.81,93.54,800.84,195.71,600.4,243.18,503.42,346.4,433.68,456.4,454c32.35,5,61.68,19.4,91.34,32.32,9.37,1.16,1.85,21.32.67,26.24-11.34-5.17-14.73-18.25-24.7-24.78-42.06,1.14-2.73,57.09-4.9,80.49-21,51.44-38.72-78.32-80.2-43.06-8.49,7.52-7.85,10.84-1.62,20.94,3.14,5.48,7.62,34.19-5.78,24.65C408.77,540.1,396.27,464,342.48,491.2c-17.1,9.47,30.61,82.66-1.8,80.87-7.14-4.76-8.46-22.86-19-18.9-83.51,32.53,42.1,169.88-1.84,211.58-23.19,7.45-14.95-45.21-15.43-57.82-5.75-44.48-48.75-2.2-51.27,22.07-21.75,73.12,3.74,172.31,64.75,220.09,39.71,2.45,6.09-20.86,48.16,22.25,53.25,36.11,45.25-17.29,34.56-52.88-2.53-56,28.85,97.84,53.53,23.61,7.53,25.11,5.06,85.23,42.74,48C497.22,996.28,504.76,1009,500.86,1011ZM711,744.46c4.56,33.59-24.72,255.17-73.14,170.73-11.47,3.93,1.42,38.64-25.29,62.65-19.88,18.39-14.22-39.17-34,12.79l.33-.11c-5.84,27-52.76,59.36-63.35,18.91,1.9-2.22-6.15-40.85-24.67-31.55-3.66,2.42-8.37,7.81-13.12,4.36-8.75-12-3.24-76.58-34.3-51-2.81,3.48-4.77,18.77-10.05,11.64-7.33-17.72-12.25-36.77-23.33-52.67-24.12-19.51-26.58,22.26-22.32,37.86-.08,8.41,14.81,37.55,4.85,40.35-16.31-2.68-26.39-17.16-37.67-27.95-40.3-64.87-7.42,55.43-69.87-53-17.12-35.24-24.06-73.2-27.41-112-6.81-22,39.59-114.2,30.79-46,5.09,97.22,89.42,42.76,38.21-60.28l0,0c-10.11-29.1-36.18-77.35-6.66-99.9,14.29,28.17,44,22.57,44.88-9.24,8.65-16.91-31.09-68.67,1-59.64,31.79,10.74,33.13,55,53.18,76.45,14.09,26.22,52.63,3.77,27.5-42.08,20.67-7.49,30.53,38,42.22,49.89,17.9,23.3,51.35,4.45,44.12-22.57-29.6-107.44-7.42-25,25.24-35.68,27-16.36-25.49-47.84,52.47-14.16C686.35,561.37,709.06,659.36,711,744.46Z"/><path class="cls-10" d="M540.77,774.42v0Z"/></g><path class="cls-10" d="M464.68,797.86c-.35-4,5.42-24.81,2.05-27.72-3.16-1.91-5-9.52-.28-10.64,28.26-14.86,39.93-50.48,60.76-73.87,29.64-39.7,72.35-4.85,71.27,35.74-2.05,154.25-39.86,12.93-35.12,79,4.4,23.49,7.14,121.19-35.21,82.35-4.83-9.5,6-53.86-7.27-50.14C492.31,866.49,461.13,834.17,464.68,797.86Zm62.59-17.93c12.81-14.69,40.74-87.46,13.57-89.54-20.1,20.61-33.12,47.31-52.29,68.7C461.11,822,484.52,822.91,527.27,779.93Zm22.38,9.24c2.85-23.86,16.56-38.13,31.84-12.43,8.42-26.67,11.64-83.8-20.27-93.29,13.87,59-20.43,121-77.15,142.26,15.68,37.46,64.32-70.53,55.57,50.17C565,870.23,550.42,810.05,549.65,789.17Z"/><path class="cls-10" d="M401.53,674.15c21.37,28.85-4.72,55.53-35.35,54.17-8.33.38-12.5-10.83-2-11.18,18.79-.33-5.31-13.41,5.54-43.56,4.7-26,22.71-17,31.67.62Zm-5.32,20.23c-9.34-37-19.1-17.33-14.44,8.86C385.26,717.51,400.74,703.2,396.21,694.38Z"/><path class="cls-10" d="M600.9,585.91c-1.38-9.77-9.51-31.12,4.06-33.56,10.12,17.52,12.23,64.24-18.41,49.33-7.75-8.75-14.6-18.34-23.07-26.47-3.34-1.32-9.47,2.64-9.8-3.43.35-10.75,13.25-14.62,19.39-5.39C580.82,571,593.47,599.65,600.9,585.91Z"/><path class="cls-10" d="M405.61,582.43a.5.5,0,0,1,0,.55C405.27,582.74,405.07,582.52,405.61,582.43Z"/><path class="cls-10" d="M709.83,747.23c-.78-103.84-42.62-240.33-160-259.11C480.16,447.05,397.22,432.65,319.42,457,49,574.91,100.91,984,398.13,1029.41c31.61,10.17,64,3.11,96.57,5.51,31.56,30.7,72.64-.22,84.52-34.44,1-1.76.67-2.83,3.23-1.6,17.92,7.76,27.9-11.68,35.81-24.55.83-.88,2.6-4.86,3.17-6.6l-.88.31c2.57-3.47,5.64-15.35,9.44-15.91C704.28,969.78,708.13,796.42,709.83,747.23ZM487.4,1016.52C266.57,1059.3,80.08,806.32,182.25,605.88c47.47-97,150.69-166.72,260.69-146.37,32.35,5,61.68,19.39,91.34,32.32,9.37,1.15,1.85,21.32.67,26.23-11.34-5.16-14.73-18.24-24.7-24.78-42.06,1.15-2.73,57.1-4.9,80.49-21.05,51.45-38.72-78.32-80.2-43-8.49,7.52-7.85,10.84-1.62,20.93,3.14,5.48,7.62,34.19-5.78,24.66-22.44-30.72-34.94-106.86-88.73-79.62-17.1,9.46,30.6,82.66-1.8,80.87-7.14-4.76-8.46-22.87-19-18.9-83.51,32.52,42.1,169.87-1.84,211.58C283.21,777.69,291.45,725,291,712.42c-5.75-44.48-48.75-2.2-51.27,22.06-21.75,73.13,3.74,172.32,64.75,220.1,39.71,2.45,6.09-20.87,48.16,22.24,53.25,36.12,45.25-17.29,34.56-52.87-2.53-56,28.85,97.83,53.53,23.61,7.53,25.11,5.06,85.23,42.74,48C483.76,1001.76,491.3,1014.51,487.4,1016.52ZM697.51,750c4.56,33.59-24.72,255.17-73.14,170.72-11.47,3.93,1.42,38.65-25.29,62.66-19.88,18.39-14.22-39.17-34,12.79l.33-.12c-5.84,27-52.76,59.36-63.36,18.92,1.91-2.23-6.14-40.85-24.66-31.55-3.66,2.42-8.37,7.81-13.12,4.35-8.75-12-3.24-76.57-34.3-51-2.81,3.48-4.77,18.76-10.05,11.63-7.33-17.72-12.25-36.77-23.33-52.66-24.12-19.51-26.58,22.26-22.32,37.86-.08,8.41,14.81,37.55,4.85,40.34-16.31-2.67-26.39-17.15-37.67-27.95-40.3-64.87-7.42,55.44-69.87-53-17.12-35.25-24.06-73.21-27.41-112-6.81-22,39.59-114.2,30.79-46,5.09,97.21,89.42,42.76,38.21-60.29l0,0c-10.11-29.09-36.18-77.35-6.66-99.89,14.29,28.16,44,22.57,44.88-9.24,8.65-16.92-31.09-68.67,1-59.64,31.79,10.73,33.13,55,53.18,76.44,14.09,26.23,52.63,3.78,27.5-42.08,20.67-7.49,30.53,38,42.22,49.89,17.9,23.3,51.35,4.46,44.12-22.57-29.6-107.44-7.42-25,25.24-35.67,27-16.36-25.49-47.84,52.47-14.16C672.89,566.85,695.59,664.85,697.51,750Z"/><path class="cls-10" d="M527.3,779.91v0Z"/></g></g></svg>