<svg xmlns="http://www.w3.org/2000/svg" viewBox="0 0 1132.11 218.32"><defs><style>.cls-1{fill:#ddbdf4;}</style></defs><g id="Layer_2" data-name="Layer 2"><g id="Layer_1-2" data-name="Layer 1"><path d="M191.68,6.11c2.82.47,3.94,1.93,3.18,4.72-.69,2.53-1.8,4.94-2.62,7.44-1,3-1.87,6.07-2.8,9.1q-.75,2.4-1.51,4.79c-1.71,5.3-3.51,10.58-5.12,15.91-.81,2.7-1.95,4.5-5.31,7.3-1.65-.12-2.94-.25-4.24-.3-.64,0-1.29.15-1.92.09-9.66-1-19.11,1.44-28.68,1.92-4,.2-7.86,1.76-11.78,2.73s-8.12,1.75-12,3.08a108.73,108.73,0,0,0-15,6c-3.62,1.87-6.51,5.1-10,7.16-5.64,3.26-9.94,7.88-14,12.75A72.76,72.76,0,0,0,73.9,98q-2.64,4.4-5,9a19.93,19.93,0,0,0-1.24,3.83c-.65,2.36-1.27,4.73-1.89,7.1a33.65,33.65,0,0,0,.2,16.24A18.82,18.82,0,0,0,73.4,145.2a17,17,0,0,0,8.4,3.45c4.51.41,8.43-1.7,11.83-4.34a49.26,49.26,0,0,0,7.76-7.72c1.3-1.58,1.8-3.82,2.85-6.17-2.7.42-5,.87-7.33,1.12a38.7,38.7,0,0,1-6.71.28,4.49,4.49,0,0,1-2.91-1.72c-3-4.17-3-8.77-1.55-13.53,1.18-4,1.8-8.14,3.38-11.92,1.4-3.34.51-7.53,3.74-10.12,1.4-1.13,2.84-2.47,4.49-3,3.77-1.18,7.69-1.91,11.55-2.81a7.17,7.17,0,0,0,1.41-.25,30.21,30.21,0,0,1,9.75-3c6.67-.7,13.33-1.6,20-2.61,5.42-.83,11.32-.89,16-3.24,4.44-2.21,8.52-1.28,12.72-1.57,4.54-.32,7.16,2.85,7.13,7.11,0,2.19-.86,4.37-1.35,6.55a4.54,4.54,0,0,0-.23.68c-.07,6.22-3.37,11.6-4.56,17.54-1.07,5.32-2.27,10.64-3.86,15.81-2.15,7-4.81,13.81-7.1,20.74-1,3.18-1.57,6.52-2.61,9.69-2.18,6.67-4.55,13.27-6.84,19.9a7.51,7.51,0,0,0-.31.91c-.71,2.94-1.49,5.86-2.06,8.82a5.56,5.56,0,0,0,.24,3.24c1.34,2.83,1.36,4.56-1,6.58-2.91,2.55-6,4.87-9.15,7.2a6.66,6.66,0,0,1-2.47.81c-4.11,1-8.22,1.91-12.35,2.78a31.82,31.82,0,0,1-4.76.63c-9.27.49-18.53,1.28-27.8,1.26a102.65,102.65,0,0,1-18.81-2c-4.72-.9-9.21-3-13.82-4.47-2.78-.9-5.61-1.62-8.38-2.56-1.26-.42-2.38-1.27-3.63-1.75a40.56,40.56,0,0,1-13-7.76c-1.67-1.53-3.12-3.31-4.71-4.94a78.25,78.25,0,0,1-14.11-19.62c-3.13-6.25-6.22-12.53-9-18.93-1.09-2.51-1.32-5.4-1.9-8.12-.78-3.66-1.87-7.3-2.21-11A123.69,123.69,0,0,1,.13,114.6c0-1.11.43-2.23.36-3.32-.33-4.62,1.11-8.77,2.93-12.93C4.89,95,5.75,91.37,7.15,88c1.65-4,3.67-7.91,5.35-11.94,1.86-4.46,5.13-7.55,8.79-10.56s6.36-6.8,9.92-9.75C38,50.12,44,43.75,51,38.45c5.46-4.08,11.57-6.78,17.23-10.31,4.89-3.05,10.81-4.46,16.24-6.65,3.48-1.4,6.88-3,10.36-4.33,3.1-1.21,6.26-2.26,9.39-3.38,1.56-.56,3.11-1.18,4.69-1.7a106.16,106.16,0,0,1,20.27-4.54c3.53-.43,6.95-1.68,10.44-2.48,1.16-.26,2.41-.15,3.58-.38,2.79-.53,5.56-1.16,8.34-1.75a10.48,10.48,0,0,1,1.88-.34c8.34-.12,16.67-.2,25-.32,4.14,0,8.12.37,11.38,3.36C190.26,6,191.05,6,191.68,6.11Zm-4.93,7.08c.45-1.55.33-2.68-1.81-3-2.93-.43-5.74-2.14-8.76-.37-.24.14-.64,0-1,0-7.22.06-14.45.07-21.68.21a41.21,41.21,0,0,0-6.45.72c-4.74.88-9.45,1.92-14.19,2.84-5.1,1-10.21,1.92-15.31,2.88a4.26,4.26,0,0,0-.7.19c-3.33,1-6.68,2-10,3.14-2.79.94-5.54,2-8.28,3-3.78,1.48-7.41,3.55-11.32,4.44-4.54,1-8.36,3.4-12.5,5.15a80.55,80.55,0,0,0-8.41,4.46c-4,2.27-8.19,4.26-11.77,7C49.09,48.22,43.91,53,38.75,57.75c-3.87,3.58-7.42,7.51-11.19,11.2-2,2-4.63,3.48-6.21,5.72C15.51,83,13.29,92.88,10,102.25c-1.86,5.4-2,11.51-2.24,17.33a67.46,67.46,0,0,0,4.33,26.74,80.68,80.68,0,0,0,4.95,11.35c2.89,5.17,6,10.22,9.41,15.12,2.76,4,6.52,6.67,9.4,10.34,2,2.5,5.15,4.15,8,5.83a63.8,63.8,0,0,0,9.57,4.7c4.17,1.59,8.57,2.59,12.77,4.1a50.46,50.46,0,0,0,14.69,2.93c13.9.7,27.77,1.2,41.52-1.58,2.4-.48,4.74-1.35,7.15-1.65a9,9,0,0,0,7.58-5.61c1.87-4.29,3.3-8.78,4.79-13.23,1.73-5.21,3.34-10.46,5-15.7q3.25-10.39,6.44-20.81c.65-2.14,1-4.37,1.75-6.48,1.46-4.23,3.3-8.32,4.58-12.6,1.56-5.26,2.69-10.65,4-16,1.24-4.94,2.58-9.87,3.74-14.84.52-2.22.7-4.52,1.13-7.45-5.48.83-10.41,1.6-15.34,2.33q-12.49,1.83-25,3.62c-2.93.43-6.36,0-8.7,1.39-4.15,2.49-8.53,2.83-13,3.52a19.25,19.25,0,0,0-7,2.67,7.81,7.81,0,0,0-2.73,4.25c-1.16,4-2,8-2.89,12.06-.71,3.22-1.3,6.48-2,10.26,5-.73,9.42.25,13.31-2.45,1.48-1,3.37-1.63,4.58.5,2.63,4.65,2,9.36-.12,14a16.11,16.11,0,0,1-2.4,4.07,65.72,65.72,0,0,1-7,7c-4.07,3.37-8.54,6.24-13.87,7.1-5.72.93-11.15-.46-16.37-2.79-1.22-.55-2.86-.7-3.64-1.62a30.8,30.8,0,0,1-4.3-6.52c-2.34-4.82-4.36-9.81-4.15-15.33a85,85,0,0,1,.75-10.48c.54-3.36,2.35-6.61,2.4-9.93.1-5.86,2.78-10.74,5.91-14.89C71.82,87,77.82,81.2,83.69,75.41c2.89-2.86,6.46-5,9.76-7.47,5.42-4,11.55-6.62,17.72-9.17,9.19-3.8,18.85-5.9,28.53-7.89,3.35-.69,6.86-.66,10.29-.94,5.34-.43,10.68-.93,16-1.24,2.56-.15,5.14.18,7.7.06a2.77,2.77,0,0,0,2.08-1.37c2.62-7.72,5.12-15.48,7.61-23.25Q185.15,18.7,186.75,13.19Z"/><path class="cls-1" d="M184.94,10.2c2.14.31,2.26,1.44,1.81,3q-1.59,5.51-3.34,11c-2.49,7.77-5,15.53-7.61,23.25a2.77,2.77,0,0,1-2.08,1.37c-2.56.12-5.14-.21-7.7-.06-5.35.31-10.69.81-16,1.24-3.43.28-6.94.25-10.29.94-9.68,2-19.34,4.09-28.53,7.89-6.17,2.55-12.3,5.17-17.72,9.17-3.3,2.43-6.87,4.61-9.76,7.47C77.82,81.2,71.82,87,66.88,93.54c-3.13,4.15-5.81,9-5.91,14.89,0,3.32-1.86,6.57-2.4,9.93a85,85,0,0,0-.75,10.48c-.21,5.52,1.81,10.51,4.15,15.33a30.8,30.8,0,0,0,4.3,6.52c.78.92,2.42,1.07,3.64,1.62,5.22,2.33,10.65,3.72,16.37,2.79,5.33-.86,9.8-3.73,13.87-7.1a65.72,65.72,0,0,0,7-7,16.11,16.11,0,0,0,2.4-4.07c2.1-4.62,2.75-9.33.12-14-1.21-2.13-3.1-1.52-4.58-.5-3.89,2.7-8.29,1.72-13.31,2.45.75-3.78,1.34-7,2-10.26.89-4,1.73-8.1,2.89-12.06a7.81,7.81,0,0,1,2.73-4.25,19.25,19.25,0,0,1,7-2.67c4.49-.69,8.87-1,13-3.52,2.34-1.41,5.77-1,8.7-1.39q12.52-1.78,25-3.62c4.93-.73,9.86-1.5,15.34-2.33-.43,2.93-.61,5.23-1.13,7.45-1.16,5-2.5,9.9-3.74,14.84-1.34,5.33-2.47,10.72-4,16-1.28,4.28-3.12,8.37-4.58,12.6-.73,2.11-1.1,4.34-1.75,6.48q-3.17,10.41-6.44,20.81c-1.63,5.24-3.24,10.49-5,15.7-1.49,4.45-2.92,8.94-4.79,13.23a9,9,0,0,1-7.58,5.61c-2.41.3-4.75,1.17-7.15,1.65-13.75,2.78-27.62,2.28-41.52,1.58a50.46,50.46,0,0,1-14.69-2.93c-4.2-1.51-8.6-2.51-12.77-4.1a63.8,63.8,0,0,1-9.57-4.7c-2.85-1.68-6-3.33-8-5.83-2.88-3.67-6.64-6.38-9.4-10.34-3.41-4.9-6.52-9.95-9.41-15.12a80.68,80.68,0,0,1-4.95-11.35A67.46,67.46,0,0,1,7.8,119.58c.28-5.82.38-11.93,2.24-17.33C13.29,92.88,15.51,83,21.35,74.67c1.58-2.24,4.19-3.75,6.21-5.72,3.77-3.69,7.32-7.62,11.19-11.2C43.91,53,49.09,48.22,54.63,43.93c3.58-2.78,7.79-4.77,11.77-7a80.55,80.55,0,0,1,8.41-4.46c4.14-1.75,8-4.13,12.5-5.15,3.91-.89,7.54-3,11.32-4.44,2.74-1.07,5.49-2.09,8.28-3,3.3-1.11,6.65-2.1,10-3.14a4.26,4.26,0,0,1,.7-.19c5.1-1,10.21-1.89,15.31-2.88,4.74-.92,9.45-2,14.19-2.84a41.21,41.21,0,0,1,6.45-.72c7.23-.14,14.46-.15,21.68-.21.32,0,.72.14,1,0C179.2,8.06,182,9.77,184.94,10.2Z"/><path d="M355.44,6.36a6.21,6.21,0,0,1,6.36,8.51,86.61,86.61,0,0,0-3.13,11.4c-1.48,7.17-2.63,14.41-4.05,21.59-1.23,6.25-2.75,12.43-3.95,18.68-2,10.28-3.73,20.6-5.74,30.87-.57,3-1.81,5.78-2.53,8.72-1,4-1.76,8.14-2.67,12.2-1.71,7.63-3.46,15.25-5.19,22.87-.06.24-.14.47-.19.7q-2,9.09-4.06,18.17c-1.23,5.53-2.49,11-3.65,16.58-.3,1.4-.15,2.9-.44,4.3-1.36,6.64-2.79,13.26-4.22,19.89a6.77,6.77,0,0,1-5.94,4.8c-10.9.34-21.8.53-32.69,1-4.55.2-9.06,1.07-13.59,1.49a46.51,46.51,0,0,1-7.46.17,3.46,3.46,0,0,1-3.42-3.13c-.52-4.07-.71-8.05,1-12,.86-2,.72-4.4,1.1-6.61.66-3.93,1.3-7.85,2.09-11.75.39-1.94,1.11-3.81,1.61-5.73a9.23,9.23,0,0,0,0-2.06c-8.91,0-17.42,0-25.93,0-4.24,0-5.61,3.35-6.93,6.51s-2.5,6.64-3.8,9.94c-.26.65-.88,1.14-1.21,1.77a49.43,49.43,0,0,0-2.76,5.49c-.94,2.44-1.34,5.11-2.47,7.45s-2.28,4.5-1.9,7.25c.08.58-1,1.73-1.69,1.93a23.34,23.34,0,0,1-5.91,1c-11,.19-22,.21-33,.38-3.21.05-6.4.6-9.61.63-5.79.06-8.58-3.94-6.77-9.39.53-1.58.95-3.21,1.39-4.82,1.29-4.69,2.54-9.39,3.84-14.07,2.54-9.14,5.05-18.28,7.66-27.4,2-6.81,3.9-13.63,6.12-20.35,1-3.15,2.81-6.06,4.08-9.15a89.12,89.12,0,0,0,3.5-9.57c1.4-5,2.38-10.07,3.7-15.08,1.52-5.79,3.31-11.52,4.78-17.33,1.12-4.42,3-8.63,4.11-12.94,1.22-4.73,2.36-9.47,4.44-13.83,3.93-8.22,5.88-17,8.3-25.67,1.6-5.73,3.5-11.38,5.36-17,.65-2,2-3,4.34-3,6.43.07,12.86.05,19.28-.29,7.51-.4,15-1.15,22.49-1.82,3.61-.33,4.92.64,4.4,4.28-.81,5.68-2,11.31-3.06,17-.78,4.17-1.55,8.35-2.4,12.5-.5,2.42-1.15,4.8-1.74,7.2-.13.54-.29,1.07-.38,1.62-.93,5.77-1.7,11.56-2.81,17.29-.71,3.65-1.91,7.21-2.88,10.81A8,8,0,0,0,257,79.5c-.58,4.83-1.14,9.65-1.71,14.48a2.23,2.23,0,0,1-.19.93c-2.34,3.28-1.66,7.27-2.64,10.87-.35,1.3-.77,2.59-1.07,3.91-.58,2.55-.21,3,2.37,3.1.8,0,1.61,0,2.41,0,5.46-.09,10.92-.16,16.38-.27,3.78-.07,5.06-1.32,5.83-5.06.49-2.4,1.36-4.73,2-7.1,1.13-4,2.16-8,3.36-11.94,1.71-5.63,3.55-11.22,5.29-16.84.61-2,1-4,1.62-6,1.59-5,3.35-10,4.9-15,1.35-4.41,2.41-8.91,3.79-13.31,2.29-7.26,4.76-14.47,7.08-21.73.8-2.49,1.4-5.06,2.09-7.59.56-2.1,2.29-2,3.85-1.86,2.69.17,5.37.54,8.06.78,3.09.27,6.19.6,9.29.69,1.74,0,3.48-.44,5.23-.52,5.13-.23,10.26-.38,15.39-.54C352.08,6.42,353.77,6.52,355.44,6.36Zm-.94,9.19c.3-1.18.19-1.89-1.16-2-.88-.06-1.76-.18-2.65-.18-6.82,0-13.65.11-20.48.08-1.72,0-3.46-.62-5.16-.51-3.35.22-6.66.86-10,1.08a2.32,2.32,0,0,0-2.48,2c-.89,2.87-2.06,5.65-3.05,8.48-.91,2.62-2.4,5.25-2.49,7.91-.2,6.33-3.3,11.79-4.63,17.77-1.28,5.72-3.74,11.17-5.6,16.77-.77,2.34-1.25,4.78-2,7.14-1,3.18-2.28,6.29-3.19,9.51-1.86,6.5-3.61,13-5.3,19.58-1.07,4.17-2,8.38-2.9,12.59-.76,3.47-2.45,4.41-5.74,3.22a5.72,5.72,0,0,0-1.9-.13c-9.29.29-18.57.62-27.86.86-2.65.07-3.74-1.28-3.42-3.88a208.43,208.43,0,0,1,4.57-24.9c.91-3.62,1-7.44,1.67-11.12,1.22-6.4,2.65-12.77,4-19.16,1.18-5.68,2.37-11.36,3.49-17.06,1.44-7.37,2.88-14.74,4.17-22.14,1-5.85,2.13-5.68-5.34-5.84-2.48-.05-5,.48-7.44.49-7.05,0-14.11-.14-21.17-.06a3.26,3.26,0,0,0-2.52,1.6C223.17,26,220.63,34.5,218,43c-.82,2.68-1.24,5.55-2.5,8-3.95,7.71-6.38,15.93-8.81,24.17-.94,3.21-1.67,6.49-2.56,9.72-1.57,5.67-3.26,11.3-4.77,17-1.57,5.85-2.76,11.82-4.56,17.59-1.3,4.16-3.41,8.07-5,12.15-1.11,2.8-2.06,5.67-2.92,8.56s-1.38,5.74-2.2,8.57c-1.72,5.89-3.55,11.75-5.3,17.64-1,3.42-1.93,6.88-2.92,10.32-.51,1.77-1,3.54-1.62,5.27-1,2.7-2.2,5.31-3,8.06-.91,3.3-1.43,6.7-2.15,10-.63,2.93-.5,3.22,2.4,3,3.88-.32,7.76-1.25,11.62-1.15a88.19,88.19,0,0,0,10.66,0c5-.45,10.11-.3,15.17-.33,2.5,0,4.9,0,4.84-3.5,0-.3.24-.59.36-.89,1.75-4.43,3.48-8.86,5.24-13.29q1.47-3.67,3-7.32c1.7-4.11,3.6-8.15,5.1-12.33,1.15-3.19,1.74-3.81,5.13-3.5a27.87,27.87,0,0,0,2.89.05c8.75-.2,17.49-.45,26.24-.6,1.57,0,3.2.23,4.57-.26.36,0,.72,0,1.08,0,.66,0,1.32,0,2,.09l.32,0,.3,0,.1,0a7,7,0,0,1,.86,1.9,20,20,0,0,1,0,4.77,2.24,2.24,0,0,1,0,.24q-1,7.92-2.12,15.84a2.44,2.44,0,0,1-.19.44c-.88,2.86-1.87,5.68-2.59,8.58a64.13,64.13,0,0,0-1,6.64c-.14,1-.19,1.93-.28,2.89a23.6,23.6,0,0,0,3,0c4.65-.55,9.28-1.37,13.94-1.67,2.93-.2,5.91.59,8.85.5,7.54-.22,15.07-.7,22.6-1.05,1.38-.06,2.52-.55,2.47-2-.11-2.7.8-5.09,1.48-7.63,1.64-6.15,2.6-12.47,4-18.69,1.29-5.82,2.8-11.6,4.12-17.41.48-2.1.56-4.28,1-6.38,1.51-6.7,3.24-13.35,4.64-20.08,1.1-5.23,1.82-10.55,2.7-15.83a23.8,23.8,0,0,1,.42-2.36c1.59-5.5,3.41-10.94,4.78-16.5,1-4.16,1.44-8.47,2.24-12.69,1.33-7,2.82-14.06,4.13-21.11,1.75-9.42,3.29-18.88,5.11-28.29C351.91,25.26,353.25,20.41,354.5,15.55Z"/><path class="cls-1" d="M353.34,13.55c1.35.11,1.46.82,1.16,2-1.25,4.86-2.59,9.71-3.55,14.63-1.82,9.41-3.36,18.87-5.11,28.29-1.31,7-2.8,14.07-4.13,21.11-.8,4.22-1.21,8.53-2.24,12.69-1.37,5.56-3.19,11-4.78,16.5a23.8,23.8,0,0,0-.42,2.36c-.88,5.28-1.6,10.6-2.7,15.83-1.4,6.73-3.13,13.38-4.64,20.08-.48,2.1-.56,4.28-1,6.38-1.32,5.81-2.83,11.59-4.12,17.41-1.38,6.22-2.34,12.54-4,18.69-.68,2.54-1.59,4.93-1.48,7.63.05,1.47-1.09,2-2.47,2-7.53.35-15.06.83-22.6,1.05-2.94.09-5.92-.7-8.85-.5-4.66.3-9.29,1.12-13.94,1.67a23.6,23.6,0,0,1-3,0c.09-1,.14-1.93.28-2.89a64.13,64.13,0,0,1,1-6.64c.72-2.9,1.71-5.72,2.59-8.58a2.44,2.44,0,0,0,.19-.44q1.07-7.92,2.12-15.84a2.24,2.24,0,0,0,0-.24,20,20,0,0,0,0-4.77,7,7,0,0,0-.86-1.9l-.1,0-.3,0-.32,0c-.65-.06-1.31-.09-2-.09-.36,0-.72,0-1.08,0-1.37.49-3,.24-4.57.26-8.75.15-17.49.4-26.24.6a27.87,27.87,0,0,1-2.89-.05c-3.39-.31-4,.31-5.13,3.5-1.5,4.18-3.4,8.22-5.1,12.33q-1.51,3.65-3,7.32c-1.76,4.43-3.49,8.86-5.24,13.29-.12.3-.36.59-.36.89.06,3.5-2.34,3.48-4.84,3.5-5.06,0-10.14-.12-15.17.33a88.19,88.19,0,0,1-10.66,0c-3.86-.1-7.74.83-11.62,1.15-2.9.24-3-.05-2.4-3,.72-3.35,1.24-6.75,2.15-10,.76-2.75,2-5.36,3-8.06.61-1.73,1.11-3.5,1.62-5.27,1-3.44,1.91-6.9,2.92-10.32,1.75-5.89,3.58-11.75,5.3-17.64.82-2.83,1.37-5.74,2.2-8.57s1.81-5.76,2.92-8.56c1.6-4.08,3.71-8,5-12.15,1.8-5.77,3-11.74,4.56-17.59,1.51-5.68,3.2-11.31,4.77-17,.89-3.23,1.62-6.51,2.56-9.72,2.43-8.24,4.86-16.46,8.81-24.17,1.26-2.45,1.68-5.32,2.5-8,2.59-8.46,5.13-16.94,7.85-25.35a3.26,3.26,0,0,1,2.52-1.6c7.06-.08,14.12.08,21.17.06,2.48,0,5-.54,7.44-.49,7.47.16,6.36,0,5.34,5.84-1.29,7.4-2.73,14.77-4.17,22.14-1.12,5.7-2.31,11.38-3.49,17.06-1.33,6.39-2.76,12.76-4,19.16-.7,3.68-.76,7.5-1.67,11.12a208.43,208.43,0,0,0-4.57,24.9c-.32,2.6.77,4,3.42,3.88,9.29-.24,18.57-.57,27.86-.86a5.72,5.72,0,0,1,1.9.13c3.29,1.19,5,.25,5.74-3.22.93-4.21,1.83-8.42,2.9-12.59,1.69-6.55,3.44-13.08,5.3-19.58.91-3.22,2.18-6.33,3.19-9.51.75-2.36,1.23-4.8,2-7.14,1.86-5.6,4.32-11,5.6-16.77,1.33-6,4.43-11.44,4.63-17.77.09-2.66,1.58-5.29,2.49-7.91,1-2.83,2.16-5.61,3.05-8.48A2.32,2.32,0,0,1,315,14c3.35-.22,6.66-.86,10-1.08,1.7-.11,3.44.51,5.16.51,6.83,0,13.66-.06,20.48-.08C351.58,13.37,352.46,13.49,353.34,13.55Z"/><path d="M961.69,3.46c5.47,0,8,4,6.1,9.46-3,8.65-6.59,17.08-9.74,25.67-1.7,4.61-2.84,9.43-4.53,14a66.53,66.53,0,0,1-4.57,9.7,5,5,0,0,1-3.38,1.86c-5.78.76-11.58,1.37-17.38,1.89-9.9.89-19.82,1.63-29.72,2.5q-8.26.73-16.51,1.69c-2.72.31-2.76,2.79-3.4,4.69-.71,2.1-1.32,4.24-1.87,6.39a17.79,17.79,0,0,0-.25,2.75l2.25,0c2,0,4,.11,6-.12,3.71-.43,7.39-1.13,11.1-1.61,1.9-.24,3.84-.28,5.76-.36q11.05-.46,22.12-.88c2-.07,4,0,6,0a23.29,23.29,0,0,0,2.55-.48c1.74-.28,4-1.33,5.12-.63,2.28,1.42,3,4.2,2.88,7a21.76,21.76,0,0,1-.61,5,41.82,41.82,0,0,1-2.74,7.32,90.35,90.35,0,0,0-6.78,16.31,81.46,81.46,0,0,1-5.39,13.2c-1.18,2.43-3.63,3.28-6.41,3.49-9.26.69-18.51,1.56-27.76,2.4a55.22,55.22,0,0,0-7.51.92,7.53,7.53,0,0,0-2.17,1,30,30,0,0,0-4.74.66,9.36,9.36,0,0,0-2.42-.11c-5.17.53-10.31,1.35-15.44,2.13a2.55,2.55,0,0,0-1.77,1c-1.45,3.55-2.74,7.16-4.31,11.32,2.59-.19,4.31-.36,6-.43,5.53-.22,11.06-.31,16.58-.63,8.49-.49,17-1,25.43-1.75,1-.08,1.93-.19,2.9-.33,3.79.55,7.56-.09,11.32-.81,1.68-.33,3.37-.64,5-.82,1.14.39,1.59,1.5,1.4,2.9-.42,3.19-1.32,6.32-2,9.47-.2.86-.43,1.72-.69,2.56-1,3.09-1.93,6.18-2.9,9.26,0,.16-.13.3-.18.45-1.45,4.54-2.65,9.19-4.42,13.61a89.1,89.1,0,0,1-6.12,12.39c-1.48,2.5-4.69,1.87-7.06,2.06-12.71,1-25.55.9-38.16,2.6-10.9,1.47-21.78.48-32.64,1.52-10.12,1-20.3,1.38-30.46,1.93a64,64,0,0,1-7.95-.17,5.13,5.13,0,0,1-3.91-7.91,5.13,5.13,0,0,0,.74-1.48c.76-3.18,1.47-6.36,2.21-9.54,1-4.55,1.94-9.15,3.24-13.63,1-3.4,2.58-6.62,3.79-10,.69-1.88,1.19-3.82,1.72-5.74,1-3.55,1.74-7.14,2.85-10.64,1.19-3.72,2.74-7.32,4-11,1.19-3.54,2.1-7.18,3.26-10.72,1.76-5.37,3.69-10.67,5.45-16,1.07-3.26,1.8-6.63,3-9.84,2.14-5.9,4.5-11.72,6.76-17.58a6.1,6.1,0,0,0,.31-.91c1.38-6,2.7-11.93,4.16-17.87.86-3.48,1.94-6.91,2.91-10.37.16-.53.28-1.08.43-1.62q1.57-5.73,3.16-11.48c.36-1.29.75-2.57,1.12-3.86,1.71-6,3.5-12.06,5.1-18.12a28.39,28.39,0,0,0,.88-6.56c0-1.35.33-2,1.6-2.51a12.94,12.94,0,0,1,6.29-.63c3.09.34,6.3-.43,9.47-.66,4.47-.33,8.94-.68,13.42-.88Q888,5,905.81,4.32c3.61-.14,7.23,0,10.84-.22,2.2-.13,4.38-.63,6.58-1a3.4,3.4,0,0,1,.71-.12q6.49.28,13,.6c.88,0,1.76.19,2.64.18C946.94,3.7,954.32,3.5,961.69,3.46Zm-1.05,9.23c.47-1.62-.1-2.46-1.9-2.32s-3.37.26-5.06.26c-12.68,0-25.36-.17-38-.09-13.06.08-26.14-.29-39.18,1.09-3.26.35-6.59,0-9.86.31-6,.49-11.93,1.16-17.88,1.86a2.89,2.89,0,0,0-2,1.28,55,55,0,0,0-3.17,7.67c-1.51,5-2.78,10.11-4.11,15.18a33.76,33.76,0,0,1-1,4.42c-1.4,3.46-3.33,6.74-3,10.7a8.43,8.43,0,0,1-.42,2.61c-1.14,4.38-2.31,8.75-3.47,13.12-.25.93-.41,1.89-.72,2.8-1.59,4.67-3.24,9.32-4.83,14-1.39,4.07-2.69,8.17-4.12,12.22-1,2.84-2.32,5.57-3.22,8.43-1.57,4.94-2.88,10-4.38,14.91-.48,1.59-1.41,3.05-1.85,4.65-1.37,4.89-2.55,9.84-3.92,14.73-.43,1.53-1.41,2.89-1.85,4.42-.94,3.21-1.57,6.51-2.52,9.71-1.75,5.84-3.67,11.62-5.45,17.44-.88,2.89-1.59,5.83-2.45,8.73-1.51,5.11-3.13,10.19-4.61,15.31-.8,2.75-.54,3.16,2.33,3,7.41-.35,14.8-1.17,22.21-1.28,8.86-.13,17.64-1.8,26.55-1.26,3.46.21,7-.71,10.48-1,7.18-.51,14.38-.9,21.56-1.4,6.17-.42,12.36-.67,18.48-1.44,6.84-.86,9.56-.79,10.12-7.45a4.74,4.74,0,0,1,.34-1.15c1.21-3.44,2.44-6.88,3.63-10.33.88-2.55,1.79-5.11,2.55-7.7,1.08-3.74,2-7.5,3.17-11.64-1.34,0-2-.05-2.59,0-5.82.57-11.62,1.3-17.45,1.71-10.19.73-20.4,1.26-30.6,1.9-3,.19-6.07.7-9.1.67s-6.12.47-8.81-1.55a3.47,3.47,0,0,1-.79-4.53,34.64,34.64,0,0,0,3.18-6.21c1.58-4.15,2.75-8.45,4.39-12.57,1.36-3.43,2.36-3.69,5.79-2.6a4.22,4.22,0,0,0,1.64.24c6.22-.59,12.43-1.16,18.64-1.85,4.34-.48,8.65-1.19,13-1.7,5.24-.61,10.5-1.14,15.75-1.65,3.67-.35,7.37-.44,11-1A4.71,4.71,0,0,0,920.2,123c1.67-4.29,2.92-8.74,4.42-13.09.77-2.24,1.69-4.43,2.65-6.6,1.8-4.06,3.91-8,5.45-12.15,1.22-3.3.51-3.91-3.08-3.68-7.83.48-15.66,1-23.49,1.46-2.87.16-5.77-.07-8.63.19-8.23.75-16.44,1.69-24.66,2.49-3.06.3-4.75-1.28-4.2-4.24,1.16-6.16,2.37-12.33,4.1-18.34.56-1.94,1-4.89,4.26-5.12,4.94-.36,9.88-.82,14.83-1.21,8.22-.65,16.46-1.11,24.66-2,7.38-.77,14.72-2,22.08-2.94,3.6-.48,7.71-4.05,8.77-7.48,1.33-4.34,2.77-8.66,4.31-12.93,2.33-6.43,4.81-12.81,7.18-19.23C959.52,16.37,960.1,14.54,960.64,12.69Z"/><path class="cls-1" d="M958.74,10.37c1.8-.14,2.37.7,1.9,2.32-.54,1.85-1.12,3.68-1.79,5.48C956.48,24.59,954,31,951.67,37.4c-1.54,4.27-3,8.59-4.31,12.93-1.06,3.43-5.17,7-8.77,7.48-7.36,1-14.7,2.17-22.08,2.94-8.2.85-16.44,1.31-24.66,2-5,.39-9.89.85-14.83,1.21-3.22.23-3.7,3.18-4.26,5.12-1.73,6-2.94,12.18-4.1,18.34-.55,3,1.14,4.54,4.2,4.24,8.22-.8,16.43-1.74,24.66-2.49,2.86-.26,5.76,0,8.63-.19,7.83-.44,15.66-1,23.49-1.46,3.59-.23,4.3.38,3.08,3.68-1.54,4.15-3.65,8.09-5.45,12.15-1,2.17-1.88,4.36-2.65,6.6-1.5,4.35-2.75,8.8-4.42,13.09a4.71,4.71,0,0,1-3.14,2.39c-3.63.56-7.33.65-11,1-5.25.51-10.51,1-15.75,1.65-4.34.51-8.65,1.22-13,1.7-6.21.69-12.42,1.26-18.64,1.85a4.22,4.22,0,0,1-1.64-.24c-3.43-1.09-4.43-.83-5.79,2.6-1.64,4.12-2.81,8.42-4.39,12.57a34.64,34.64,0,0,1-3.18,6.21,3.47,3.47,0,0,0,.79,4.53c2.69,2,5.83,1.51,8.81,1.55s6.06-.48,9.1-.67c10.2-.64,20.41-1.17,30.6-1.9,5.83-.41,11.63-1.14,17.45-1.71.62-.06,1.25,0,2.59,0-1.12,4.14-2.09,7.9-3.17,11.64-.76,2.59-1.67,5.15-2.55,7.7-1.19,3.45-2.42,6.89-3.63,10.33a4.74,4.74,0,0,0-.34,1.15c-.56,6.66-3.28,6.59-10.12,7.45-6.12.77-12.31,1-18.48,1.44-7.18.5-14.38.89-21.56,1.4-3.5.26-7,1.18-10.48,1-8.91-.54-17.69,1.13-26.55,1.26-7.41.11-14.8.93-22.21,1.28-2.87.14-3.13-.27-2.33-3,1.48-5.12,3.1-10.2,4.61-15.31.86-2.9,1.57-5.84,2.45-8.73,1.78-5.82,3.7-11.6,5.45-17.44.95-3.2,1.58-6.5,2.52-9.71.44-1.53,1.42-2.89,1.85-4.42,1.37-4.89,2.55-9.84,3.92-14.73.44-1.6,1.37-3.06,1.85-4.65,1.5-4.95,2.81-10,4.38-14.91.9-2.86,2.22-5.59,3.22-8.43,1.43-4.05,2.73-8.15,4.12-12.22,1.59-4.67,3.24-9.32,4.83-14,.31-.91.47-1.87.72-2.8,1.16-4.37,2.33-8.74,3.47-13.12a8.43,8.43,0,0,0,.42-2.61c-.31-4,1.62-7.24,3-10.7a33.76,33.76,0,0,0,1-4.42c1.33-5.07,2.6-10.16,4.11-15.18a55,55,0,0,1,3.17-7.67,2.89,2.89,0,0,1,2-1.28c5.95-.7,11.91-1.37,17.88-1.86,3.27-.27,6.6,0,9.86-.31,13-1.38,26.12-1,39.18-1.09,12.69-.08,25.37.07,38,.09C955.37,10.63,957.06,10.51,958.74,10.37Z"/><path d="M1132.1,3.53c.07.58-.86,1.44-.67,1.8,1.21,2.26,0,4-.9,5.87a46.6,46.6,0,0,0-1.47,4.7c-1.12,3.47-2.31,6.92-3.41,10.4-.82,2.58-1.59,5.18-2.29,7.8s-1.46,5.41-2,8.16c-.6,3.26-5.48,7-8.68,6.46-2.74-.5-5.46-1.21-8.22-1.49a112.63,112.63,0,0,0-13-.84c-7,.07-14,.4-20.94.91-2.5.18-4.94,1.22-7.41,1.83-6.14,1.52-10.86,5.5-15.75,9.15a4.58,4.58,0,0,0-1.46,2.78c-.72,4.39,0,8.17,3.59,11.5,2.49,2.32,3.84,5.81,6.06,8.48,2.78,3.37,6,6.4,8.91,9.66,2.7,3,5.27,6.11,7.94,9.13,2.91,3.28,6.06,6.36,8.77,9.78,3.8,4.79,7.74,9.56,10.81,14.81,3.61,6.16,6.78,12.69,8,19.88a96.84,96.84,0,0,1,1.6,13.76c0,2.39-1.23,4.86-2.14,7.21-.7,1.82-2,3.42-2.62,5.26a51.2,51.2,0,0,1-10.81,18.11,50.2,50.2,0,0,1-18,12.73,56.54,56.54,0,0,1-15.63,4.34c-3.54.42-6.94,1.89-10.48,2.38-4.65.65-9.38.84-14.07,1.17-8.47.59-16.94,1.4-25.42,1.63a193.29,193.29,0,0,1-21.66-.56A146.21,146.21,0,0,1,961,207.27c-6.77-1.52-13.37-3.76-20-5.8a101.83,101.83,0,0,1-11.51-4,23.81,23.81,0,0,1-6.56-4.65c-.62-.6-.3-2.64.16-3.79,1.37-3.48,3-6.85,4.57-10.27a5.32,5.32,0,0,0,.47-1.61c.53-5.8,2.82-11,5.27-16.19,1.66-3.52,2.79-7.29,4.35-10.87,1.95-4.51,4-9,6.19-13.38,1-1.95,4.14-2.31,5.22-.46,3.21,5.45,8.87,6.92,14.1,9.12,3.68,1.54,7.38,3,11.11,4.44a39.27,39.27,0,0,0,4.81,1.32c4.26,1,8.53,2,12.8,2.87a17.86,17.86,0,0,0,3.11.19c5.06.17,10.12.21,15.17.53,3.85.25,7.27-1,10.65-2.48.81-.36,1.33-1.33,2-2,1.32-1.18,2.73-2.28,4-3.51a4.82,4.82,0,0,0,1.56-2.17c.76-4.21,1-8.28-1.51-12.26s-4.37-8.63-7.78-12.25c-3.61-3.83-7.29-7.54-11.88-10.13-4.24-2.39-6.94-6.28-10.07-9.74A124.24,124.24,0,0,1,988,89a29.22,29.22,0,0,1-3.52-7.79c-1.09-3.3-1.34-6.93-2.74-10.06-1.76-4-1.58-8-1.49-12,.12-5.12.45-10.21,3.24-14.83.91-1.51.92-3.54,1.5-5.28,1.63-4.88,5.3-8.2,8.9-11.59,1.21-1.13,2.19-2.51,3.3-3.75a16.14,16.14,0,0,1,2.39-2.49c5.06-3.58,10.13-7.14,15.31-10.55a21.74,21.74,0,0,1,4.84-2c4.42-1.55,8.78-3.35,13.31-4.48a90.28,90.28,0,0,1,12.08-1.7c6.36-.69,12.72-1.35,19.1-1.84,3-.23,5.94,0,8.91,0V0c6.74,0,13.49-.11,20.23,0,6.17.14,12.34.48,18.51.86,3.07.2,6.11.92,9.18,1,3.33.09,6.67-.35,10-.37C1131.44,1.56,1132,2.81,1132.1,3.53Zm-8.77,7.72a1.69,1.69,0,0,0-.68-1.37,15,15,0,0,0-4.1-1.18q-12-1-24-1.87c-10.42-.73-20.8.15-31.16,1.12-6.27.59-12.54,1.33-18.8,2.08-3.31.4-6.62.85-9.88,1.54a39.94,39.94,0,0,0-7.73,2.37c-4.4,1.92-9.36,2.54-13.08,6.1-2,1.89-4.64,3-6.73,4.8-2.94,2.51-5.5,5.46-8.46,7.94-5.79,4.84-9.62,10.94-10.77,18.28C986.7,59,986.76,67,989.62,74.82c2.1,5.75,4.37,11.44,8.6,15.81,4.88,5.05,9.09,10.65,15,14.93,7.27,5.29,14.15,11.46,18.25,19.88,1.63,3.34,3.52,6.7,4.33,10.26.51,2.27-.6,5-1.24,7.41a85.53,85.53,0,0,1-2.86,9,8.46,8.46,0,0,1-2.46,3.16,26.68,26.68,0,0,1-20.35,6.59c-2.3-.21-4.6-.49-6.91-.59-3.29-.14-6.61.11-9.86-.26a80.51,80.51,0,0,1-24-6c-6.75-3-13.4-6.21-20.11-9.3a4.83,4.83,0,0,0-1.33-.29c-1.37,3.48-2.62,6.63-3.86,9.77-.77,1.93-1.51,3.86-2.3,5.77-1.55,3.75-3.28,7.44-4.65,11.26s-2.34,7.95-3.67,11.88a38.74,38.74,0,0,1-2.5,5,45.9,45.9,0,0,0,4.87,2.4c5.92,2.06,11.81,4.25,17.85,5.92,7.05,2,14.21,3.61,21.39,5a90.49,90.49,0,0,0,15,1.82c6.7.19,13.42-.24,20.13-.52,6.89-.28,13.77-.68,20.66-1a17,17,0,0,0,2.15-.23c4.7-.86,9.39-1.79,14.1-2.61,5.67-1,11.44-.92,16.85-3.85,4.75-2.58,9.56-4.9,13.57-8.6,2-1.84,4.28-3.41,6-5.48a82.52,82.52,0,0,0,6.28-9.17c4.17-6.82,7.54-13.89,6-22.28-.48-2.52-.35-5.25-1.28-7.57-2.5-6.18-4.71-12.51-8.94-17.89-2.55-3.23-4.27-7.11-6.89-10.27-4.95-6-10.22-11.69-15.46-17.41-3.27-3.56-7.12-6.64-10-10.46-4.78-6.25-10.36-12.09-13.09-19.67-1.13-3.14-1.37-6.6.54-9.73a30.27,30.27,0,0,1,9.5-9.41,40.62,40.62,0,0,1,15-6.38,173.77,173.77,0,0,1,23.11-2.54c6.52-.33,13.14-.56,19.51,1.75a19.89,19.89,0,0,0,5.69.76c1.6.09,3-.39,3.61-2.17,1-3.16,2.12-6.28,3.06-9.46q2.16-7.32,4.13-14.71A17.71,17.71,0,0,0,1123.33,11.25Z"/><path class="cls-1" d="M1122.65,9.88a1.69,1.69,0,0,1,.68,1.37,17.71,17.71,0,0,1-.41,4.06q-2,7.38-4.13,14.71c-.94,3.18-2,6.3-3.06,9.46-.57,1.78-2,2.26-3.61,2.17a19.89,19.89,0,0,1-5.69-.76c-6.37-2.31-13-2.08-19.51-1.75a173.77,173.77,0,0,0-23.11,2.54,40.62,40.62,0,0,0-15,6.38,30.27,30.27,0,0,0-9.5,9.41c-1.91,3.13-1.67,6.59-.54,9.73,2.73,7.58,8.31,13.42,13.09,19.67,2.91,3.82,6.76,6.9,10,10.46,5.24,5.72,10.51,11.44,15.46,17.41,2.62,3.16,4.34,7,6.89,10.27,4.23,5.38,6.44,11.71,8.94,17.89.93,2.32.8,5,1.28,7.57,1.59,8.39-1.78,15.46-6,22.28a82.52,82.52,0,0,1-6.28,9.17c-1.69,2.07-4,3.64-6,5.48-4,3.7-8.82,6-13.57,8.6-5.41,2.93-11.18,2.87-16.85,3.85-4.71.82-9.4,1.75-14.1,2.61a17,17,0,0,1-2.15.23c-6.89.36-13.77.76-20.66,1-6.71.28-13.43.71-20.13.52a90.49,90.49,0,0,1-15-1.82c-7.18-1.41-14.34-3.06-21.39-5-6-1.67-11.93-3.86-17.85-5.92a45.9,45.9,0,0,1-4.87-2.4,38.74,38.74,0,0,0,2.5-5c1.33-3.93,2.28-8,3.67-11.88s3.1-7.51,4.65-11.26c.79-1.91,1.53-3.84,2.3-5.77,1.24-3.14,2.49-6.29,3.86-9.77a4.83,4.83,0,0,1,1.33.29c6.71,3.09,13.36,6.3,20.11,9.3a80.51,80.51,0,0,0,24,6c3.25.37,6.57.12,9.86.26,2.31.1,4.61.38,6.91.59a26.68,26.68,0,0,0,20.35-6.59,8.46,8.46,0,0,0,2.46-3.16,85.53,85.53,0,0,0,2.86-9c.64-2.44,1.75-5.14,1.24-7.41-.81-3.56-2.7-6.92-4.33-10.26-4.1-8.42-11-14.59-18.25-19.88-5.88-4.28-10.09-9.88-15-14.93-4.23-4.37-6.5-10.06-8.6-15.81C986.76,67,986.7,59,988,51.06c1.15-7.34,5-13.44,10.77-18.28,3-2.48,5.52-5.43,8.46-7.94,2.09-1.78,4.76-2.91,6.73-4.8,3.72-3.56,8.68-4.18,13.08-6.1a39.94,39.94,0,0,1,7.73-2.37c3.26-.69,6.57-1.14,9.88-1.54,6.26-.75,12.53-1.49,18.8-2.08,10.36-1,20.74-1.85,31.16-1.12q12,.84,24,1.87A15,15,0,0,1,1122.65,9.88Z"/><path d="M742.31,9.19a4.31,4.31,0,0,1,.51,3.57c-.76,4.15-1.82,8.24-2.69,12.37-.36,1.67-.42,3.4-.82,5.06q-1.87,7.9-3.92,15.79c-2,7.57-4,15.11-6,22.68-1.53,5.92-2.94,11.88-4.42,17.81a16.35,16.35,0,0,1-.79,2.26c-2.34,5.56-3.27,11.49-4.61,17.32s-3,11.42-4.4,17.17c-.54,2.24-.62,4.58-1,6.87-.79,4.65-1.35,9.38-2.54,13.93-1.45,5.52-3.46,10.89-5.22,16.33-1,3.27-2.2,6.52-3.11,9.84-1.15,4.16-2,8.41-3.17,12.58-.94,3.43-2.18,6.78-3.13,10.22a19.58,19.58,0,0,0-.62,4.72c-.08,2.66-.78,3.53-3.38,3.57-6.67.11-13.34,0-20,.32-6.14.27-12.27,1-18.41,1.34a43,43,0,0,1-5.78-.21,4.56,4.56,0,0,1-4.4-4.15,5.9,5.9,0,0,0-1-2.35c-3.55-5.15-7.29-10.17-10.71-15.41-3.06-4.7-5.75-9.65-8.69-14.44-4.59-7.46-9.25-14.89-13.91-22.31-1-1.59-2.15-3.09-3.31-4.75-.3.22-.78.38-.85.66-1.22,4.44-2.31,8.91-3.57,13.34-.91,3.2-2,6.35-3,9.52a17.48,17.48,0,0,0-.65,1.79c-1,5.19-1.83,10.41-2.93,15.57-1.45,6.78-3.12,13.52-4.65,20.28a3.58,3.58,0,0,1-3.94,3.07c-6.16,0-12.33-.08-18.47.19-5,.21-10,.88-15.05,1.34-5.25.48-10.49,1.25-15.74,1.31-4.07.05-7-2.79-5.35-7.33,1-2.76,1.25-5.79,1.84-8.69l3.39-16.6c.17-.78.38-1.56.52-2.35.77-4.31,1.46-8.64,2.32-12.94q2-9.93,4.18-19.83a102.42,102.42,0,0,1,3.4-13.16c1.19-3.24,1.5-6.49,2-9.79.45-2.87,1.63-5.63,2.47-8.44a42,42,0,0,0,1.3-4.6c.83-4.48,1.31-9,2.36-13.45,1.29-5.47,3-10.84,4.55-16.25.15-.54.16-1.12.3-1.66q1.59-5.86,3.2-11.72c.13-.46.36-.9.45-1.36.85-4.79,1.48-9.63,2.55-14.37,1.72-7.59,3.74-15.1,5.59-22.65.68-2.78,1.37-5.56,1.83-8.37.51-3.14,1.89-4.68,5.13-4.78,6.91-.22,13.82-.22,20.73-.46,6-.21,12-.75,18-.85A25.31,25.31,0,0,1,625.14,8a2.43,2.43,0,0,1,1.47,1.42c1.37,4.49,2.61,9,3.93,13.52.69,2.36,1.47,4.7,2.2,7.05,1.29,4.16,2.44,8.38,3.9,12.48s3.41,8.23,4.89,12.43c1.16,3.29,1.79,6.76,2.9,10.06,1.4,4.13,3.05,8.18,4.61,12.25,1.67,4.37,3.38,8.73,5,13.11,1.07,2.81,2.13,5.64,3.07,8.5.86,2.63,1.53,5.32,2.34,8a14.76,14.76,0,0,0,1.18,2.17c.45-1.14.65-1.54.78-2,1.12-3.64,2.27-7.27,3.32-10.93.42-1.46.6-3,.91-4.47.72-3.5,1.35-7,2.23-10.51s2-6.65,3-10a4.89,4.89,0,0,0,.32-1.16c.19-4.16,2.24-7.76,3.46-11.61s1.95-7.89,3-11.83c1.92-7.29,3.34-14.72,6.55-21.67a36.22,36.22,0,0,0,2.66-10.09c.61-4.31,2.46-5.52,6.33-5.84,9.17-.75,18.39-.92,27.6-1.17,4.87.59,9.75,1,14.64,1.29.33.15.68.3,1,.44a3,3,0,0,1,.27-.39C738.61,9.14,740.46,9.18,742.31,9.19Zm-7.39,7a2.63,2.63,0,0,0,0-.48c0-1.14-.44-1.68-1.74-1.7-3.37-.07-6.74-.54-10.09-.46-8,.21-16,.86-24,.88-3.83,0-6.34.79-6.93,5a25,25,0,0,1-1.36,3.8c-.83,2.57-1.57,5.18-2.42,7.75-1.13,3.39-2.56,6.71-3.46,10.16-1.54,5.94-2.77,12-4.13,17.95-.07.31-.16.62-.26.92-1.75,5.1-3.76,10.14-5.17,15.33-1.12,4.08-1.5,8.36-2.22,12.55a20.62,20.62,0,0,1-.47,2.34c-1,3.52-2.08,7-3.15,10.53-.3,1-.73,1.92-1,2.91-.87,3.31-1.89,6.59-2.45,10-.38,2.33-1.4,4-3.81,4.86s-3.34-.89-4.38-2.41c-3.77-5.51-5.45-11.93-7.75-18.08-1-2.61-1.48-5.4-2.49-8C645.46,84.63,643,79.38,641,74c-2.21-5.85-4.12-11.81-6.09-17.75-1.34-4-2.52-8.06-3.85-12.06-.47-1.43-1.26-2.75-1.75-4.17-1.15-3.37-2.28-6.75-3.27-10.16-1.12-3.84-2.22-7.68-3-11.58-.93-4.37-3.24-6.65-7.17-5.12a5.7,5.7,0,0,1-1.89.28c-9.32.14-18.63.33-27.94.36-4.29,0-4.3-.13-5.69,3.94a119.36,119.36,0,0,0-5.2,22.55,29.76,29.76,0,0,1-.65,3.06c-1.18,4.87-2.38,9.74-3.56,14.61-.17.69-.23,1.42-.41,2.11-1.19,4.53-2.4,9.05-3.59,13.57-.14.54-.13,1.12-.29,1.66C565,80.85,563.17,86.39,561.79,92c-2.65,10.92-5.08,21.9-7.59,32.86-1.26,5.51-2.57,11-3.73,16.56-1,4.69-1.67,9.43-2.67,14.11-1.68,7.8-3.69,15.54-5.21,23.37-1.19,6.19-1.85,12.48-2.74,18.72-.24,1.72.77,2.1,2.18,2,3.12-.18,6.26-.29,9.37-.59,6.77-.67,13.53-1.44,20.3-2.17,0,.18,0,.36,0,.54,3.69,0,7.39-.12,11.08.05,2.23.1,3.25-.76,3.58-2.89.61-3.94,1.37-7.85,2-11.79.32-2,.3-4,.79-6,1.62-6.29,3.4-12.54,5.11-18.81.93-3.38,1.86-6.76,2.76-10.14,1.31-4.92,3.42-9.66,3.22-14.94a3.91,3.91,0,0,1,1.4-2.79c2-1.54,6.61-.09,7.93,2.11,1.58,2.65,3.36,5.19,5,7.78,3,4.63,6.09,9.24,9,13.93,1.72,2.75,3.18,5.66,4.8,8.48,2,3.5,4.13,7,6.15,10.48a119.88,119.88,0,0,0,10.82,16.35,17.44,17.44,0,0,1,2.94,4.58,3.94,3.94,0,0,0,4.21,2.8c4.7-.18,9.38-.62,14.08-.78,6.82-.24,13.65-.26,20.46-.58a4.3,4.3,0,0,0,3-1.85,20,20,0,0,0,2.17-5.27c1.36-5,3.07-10,3.69-15.07,1-8.42,5.47-15.61,7.67-23.59,2.15-7.8,3.17-15.76,4.76-23.63.36-1.78.63-3.58,1.06-5.34.71-3,1.55-5.88,2.26-8.84.95-4,1.8-7.94,2.74-11.9.59-2.47,1.18-4.94,1.9-7.37.86-3,2-5.87,2.77-8.85,2.06-7.62,4.13-15.25,6-22.92,2.32-9.61,4.42-19.26,6.63-28.89.1-.47.29-.92.38-1.39Q733.53,23.33,734.92,16.22Z"/><path class="cls-1" d="M734.89,15.74a2.63,2.63,0,0,1,0,.48q-1.39,7.11-2.8,14.2c-.09.47-.28.92-.38,1.39-2.21,9.63-4.31,19.28-6.63,28.89-1.85,7.67-3.92,15.3-6,22.92-.81,3-1.91,5.88-2.77,8.85-.72,2.43-1.31,4.9-1.9,7.37-.94,4-1.79,7.94-2.74,11.9-.71,3-1.55,5.88-2.26,8.84-.43,1.76-.7,3.56-1.06,5.34-1.59,7.87-2.61,15.83-4.76,23.63-2.2,8-6.64,15.17-7.67,23.59-.62,5.1-2.33,10.07-3.69,15.07a20,20,0,0,1-2.17,5.27,4.3,4.3,0,0,1-3,1.85c-6.81.32-13.64.34-20.46.58-4.7.16-9.38.6-14.08.78a3.94,3.94,0,0,1-4.21-2.8,17.44,17.44,0,0,0-2.94-4.58A119.88,119.88,0,0,1,634.64,173c-2-3.51-4.12-7-6.15-10.48-1.62-2.82-3.08-5.73-4.8-8.48-2.93-4.69-6-9.3-9-13.93-1.68-2.59-3.46-5.13-5-7.78-1.32-2.2-6-3.65-7.93-2.11a3.91,3.91,0,0,0-1.4,2.79c.2,5.28-1.91,10-3.22,14.94-.9,3.38-1.83,6.76-2.76,10.14-1.71,6.27-3.49,12.52-5.11,18.81-.49,1.93-.47,4-.79,6-.64,3.94-1.4,7.85-2,11.79-.33,2.13-1.35,3-3.58,2.89-3.69-.17-7.39-.05-11.08-.05,0-.18,0-.36,0-.54-6.77.73-13.53,1.5-20.3,2.17-3.11.3-6.25.41-9.37.59-1.41.08-2.42-.3-2.18-2,.89-6.24,1.55-12.53,2.74-18.72,1.52-7.83,3.53-15.57,5.21-23.37,1-4.68,1.69-9.42,2.67-14.11,1.16-5.54,2.47-11,3.73-16.56,2.51-11,4.94-21.94,7.59-32.86,1.38-5.64,3.18-11.18,4.77-16.76.16-.54.15-1.12.29-1.66,1.19-4.52,2.4-9,3.59-13.57.18-.69.24-1.42.41-2.11,1.18-4.87,2.38-9.74,3.56-14.61a29.76,29.76,0,0,0,.65-3.06,119.36,119.36,0,0,1,5.2-22.55c1.39-4.07,1.4-3.93,5.69-3.94,9.31,0,18.62-.22,27.94-.36a5.7,5.7,0,0,0,1.89-.28c3.93-1.53,6.24.75,7.17,5.12.83,3.9,1.93,7.74,3,11.58,1,3.41,2.12,6.79,3.27,10.16.49,1.42,1.28,2.74,1.75,4.17,1.33,4,2.51,8.06,3.85,12.06,2,5.94,3.88,11.9,6.09,17.75,2,5.41,4.5,10.66,6.61,16,1,2.58,1.51,5.37,2.49,8,2.3,6.15,4,12.57,7.75,18.08,1,1.52,2,3.22,4.38,2.41s3.43-2.53,3.81-4.86c.56-3.37,1.58-6.65,2.45-10,.26-1,.69-1.93,1-2.91,1.07-3.51,2.12-7,3.15-10.53a20.62,20.62,0,0,0,.47-2.34c.72-4.19,1.1-8.47,2.22-12.55,1.41-5.19,3.42-10.23,5.17-15.33.1-.3.19-.61.26-.92,1.36-6,2.59-12,4.13-17.95.9-3.45,2.33-6.77,3.46-10.16.85-2.57,1.59-5.18,2.42-7.75a25,25,0,0,0,1.36-3.8c.59-4.17,3.1-5,6.93-5,8,0,16-.67,24-.88,3.35-.08,6.72.39,10.09.46C734.45,14.06,734.87,14.6,734.89,15.74Z"/><path d="M815.44,5.18c.64.16,1.4,1.76,1.29,2.59-.44,3.45-1.13,6.88-1.85,10.28-.56,2.65-1.46,5.23-1.92,7.89-1.06,6.07-1.74,12.22-3,18.25s-3,11.9-4.4,17.85c-.9,3.7-1.7,7.42-2.56,11.13-1.13,4.82-2.28,9.64-3.41,14.46-.93,4-1.69,8-2.79,11.93-1.58,5.68-3.47,11.26-5.1,16.93-.88,3.05-1.45,6.2-2.23,9.28-1.14,4.48-2.45,8.91-3.5,13.41s-1.73,9.1-2.81,13.6c-.79,3.32-2.57,6.51-2.82,9.83-.4,5.5-2.75,10.27-4.38,15.32-2.2,6.82-4,13.78-6.13,20.61a6.07,6.07,0,0,1-5.6,4.23c-5.21.4-10.42.6-15,.85-4.86,0-9.12-.23-13.34.06-6.63.44-13.26,1-19.82,2a17.65,17.65,0,0,1-7.26-.58c-2.62-.69-3.51-3-2.66-5.62,1.55-4.76,2.78-9.62,4.2-14.43,1-3.52,2.22-7,3.24-10.54,1.58-5.49,3-11,4.62-16.51,1.45-4.89,3.1-9.72,4.65-14.58.68-2.12,1.42-4.22,2-6.37,1.67-6.23,3.23-12.48,4.92-18.71.43-1.6,1.28-3.09,1.75-4.69,2.07-7,4.06-14.11,6.11-21.16,2.81-9.63,5.69-19.24,8.45-28.89,1.14-4,2-8,3.07-12,1.79-6.69,3.48-13.41,5.49-20,1.5-4.93,3.53-9.69,5.12-14.59,1-2.95,1.51-6,2.28-9,1.07-4.21,1.86-4.39,6.1-3.73,3,.46,6.06-.13,9.1-.12,8.9,0,17.81.14,26.71.18,1.1,0,2.22-.44,3.29-.33A59,59,0,0,1,815.44,5.18ZM809.89,13c.76-1.71,0-2.43-1.64-2.44s-3.53.12-5.29.12h-35.1c-.78,2.9-1.44,5.69-2.3,8.42s-2.14,5.61-3,8.49c-1.15,4.07-1.94,8.25-3.09,12.33-2.11,7.51-4.43,15-6.55,22.46-1.56,5.53-2.84,11.13-4.42,16.65-1.88,6.51-3.93,13-5.92,19.46-1.82,5.92-3.73,11.82-5.47,17.77-1.58,5.46-2.89,11-4.5,16.46-1.69,5.7-3.65,11.33-5.38,17-1,3.36-1.73,6.82-2.76,10.17-2,6.63-4.33,13.17-6.25,19.83-1.52,5.29-2.65,10.69-3.93,16.05-.28,1.14-.49,2.3-.81,3.83,1.1,0,2,.07,2.8,0,5.58-.54,11.15-1.29,16.75-1.65,6.24-.4,12.52-.3,18.77-.75a89.68,89.68,0,0,0,10.73-1.81,2.42,2.42,0,0,0,1.5-1.27,44.84,44.84,0,0,0,1.48-4.27c2.11-6.43,4.35-12.82,6.28-19.29,1.35-4.56,2.28-9.24,3.39-13.86.92-3.79,1.87-7.57,2.75-11.37,1.06-4.56,2-9.14,3.1-13.69s2.15-8.81,3.36-13.18c.8-2.9,2-5.72,2.74-8.63,1.58-5.91,3-11.86,4.51-17.79,1.69-6.78,3.38-13.56,5-20.35.4-1.64.42-3.36.84-5,1.79-6.94,3.65-13.86,5.51-20.78.27-1,.76-1.94.93-2.95.77-4.65,1.65-9.3,2.14-14C806.69,23.52,807.61,18.13,809.89,13Z"/><path class="cls-1" d="M808.25,10.59c1.68,0,2.4.73,1.64,2.44-2.28,5.1-3.2,10.49-3.78,16-.49,4.68-1.37,9.33-2.14,14-.17,1-.66,1.95-.93,2.95-1.86,6.92-3.72,13.84-5.51,20.78-.42,1.63-.44,3.35-.84,5-1.63,6.79-3.32,13.57-5,20.35-1.48,5.93-2.93,11.88-4.51,17.79-.78,2.91-1.94,5.73-2.74,8.63-1.21,4.37-2.31,8.77-3.36,13.18s-2,9.13-3.1,13.69c-.88,3.8-1.83,7.58-2.75,11.37-1.11,4.62-2,9.3-3.39,13.86-1.93,6.47-4.17,12.86-6.28,19.29a44.84,44.84,0,0,1-1.48,4.27,2.42,2.42,0,0,1-1.5,1.27,89.68,89.68,0,0,1-10.73,1.81c-6.25.45-12.53.35-18.77.75-5.6.36-11.17,1.11-16.75,1.65-.85.08-1.7,0-2.8,0,.32-1.53.53-2.69.81-3.83,1.28-5.36,2.41-10.76,3.93-16.05,1.92-6.66,4.22-13.2,6.25-19.83,1-3.35,1.73-6.81,2.76-10.17,1.73-5.69,3.69-11.32,5.38-17,1.61-5.46,2.92-11,4.5-16.46,1.74-6,3.65-11.85,5.47-17.77,2-6.48,4-13,5.92-19.46C750.12,73.55,751.4,68,753,62.42c2.12-7.5,4.44-15,6.55-22.46,1.15-4.08,1.94-8.26,3.09-12.33.82-2.88,2.06-5.64,3-8.49s1.52-5.52,2.3-8.42H803C804.72,10.71,806.49,10.59,808.25,10.59Z"/><path d="M534.73,47.05c3.88,10.37,4.49,21.12,3.72,32a35.14,35.14,0,0,0-.08,4.81c.54,7.79-1.1,15.27-3,22.72-.9,3.55-1.47,7.24-2.8,10.62-2.77,7-6,13.89-8.94,20.83-1.42,3.29-2.61,6.69-4.18,9.9s-3.55,6.52-5.4,9.74c-2.68,4.67-5.28,9.4-8.17,13.94a83.61,83.61,0,0,1-6.18,8c-4.48,5.42-8.71,11.1-13.66,16.06-4.77,4.8-10.47,8.65-15.45,13.26-3.63,3.36-8.3,4.05-12.42,6.08s-8.61,1.74-12.81,3a1.71,1.71,0,0,1-1.18,0L444,218l1.62-.16a.5.5,0,0,0,0-1h-.24c1-.18,2-.37,3-.59.63-.14.36-1.11-.26-1a60.93,60.93,0,0,1-8.79,1.31l-6.15.21a.46.46,0,0,0-.46.34l-.63,0c-.65,0-.64,1,0,1l-.36.13c-1.11.43-2.68-.46-4.06-.63-1.89-.24-3.79-.33-5.69-.54a78.81,78.81,0,0,1-24.41-6.38c-3.42-1.57-6.43-4.11-9.46-6.43-7.81-6-13.94-13.57-19.93-21.29A41.41,41.41,0,0,1,360.33,166c-1.26-5.82-3.58-11.44-4.56-17.29-.06-.37-.12-.74-.17-1.12a1.74,1.74,0,0,0,.13-1.29c-1.28-5-.06-10.27-.73-15.36h0c0-4.88-.42-9.82.11-14.65.61-5.59,2.05-11.1,3.11-16.64a26.9,26.9,0,0,0,.51-3.09c.6-7.35,3.78-13.78,7.07-20.19,1.35-2.61,2.41-5.4,4-7.89,2.17-3.49,4.81-6.69,7-10.16,1.86-3,3.18-6.23,5-9.16,3.79-5.92,7.76-11.65,13.66-15.85,2.95-2.09,5.13-5.22,8-7.51a80.46,80.46,0,0,1,8.7-5.71c6.16-3.73,12.37-7.39,18.57-11a4.38,4.38,0,0,1,1.79-.57c5.51-.62,10.15-3.62,15.23-5.36a28.18,28.18,0,0,1,8.77-1.06A188.74,188.74,0,0,1,476,2.49c5.6.53,11.11,2,16.66,3.12a5.53,5.53,0,0,0,1.17.28c4.92-.12,8.63,3.05,12.79,4.88,5.41,2.37,9.41,6.79,13.14,11.31a109.08,109.08,0,0,1,7.64,9.58A91.44,91.44,0,0,1,532.61,42C533.4,43.63,534.09,45.33,534.73,47.05Zm-2.56,26.54.48,0c-.51-4.36-1.46-8.72-1.43-13.07,0-6.28-2.84-11.6-5-17.12-2.57-6.73-8-11.63-12.35-17.25a36.38,36.38,0,0,0-14.16-10.87c-5.09-2.34-10.44-3.35-15.67-4.67-4.72-1.19-9.87-.62-14.83-.9-2.71-.15-5.41-.58-8.12-.65-3.55-.09-7.16-1.14-10.64.57A59.37,59.37,0,0,1,444.78,12c-3,1.08-6,2.05-9,3.09a36.86,36.86,0,0,0-4.93,1.83c-3,1.56-5.95,3.31-8.9,5-3.82,2.23-7.85,4.2-11.36,6.84A124.79,124.79,0,0,0,397.33,40.2a102.39,102.39,0,0,0-9.5,11.54,71.85,71.85,0,0,0-5.17,8.5c-2.14,3.9-4.22,7.85-6.11,11.88-1.31,2.8-2.25,5.77-3.38,8.66-.94,2.39-1.87,4.78-2.66,7.2-1.65,4-3.07,8.14-4.48,12.24a52.77,52.77,0,0,0-2.28,8.22,12,12,0,0,0-.8,4.14c-.55,4.92-1.31,9.84-1.53,14.78-.14,3,.91,6,.82,9-.31,9.31,2.31,18,5,26.76.7,2.29,1.09,4.74,2.19,6.81A122.34,122.34,0,0,0,376,180.69a74.58,74.58,0,0,0,19.48,20c2,1.41,3.87,3.19,6.09,4.14,2.67,1.15,5.67,1.53,8.49,2.35,1.93.57,3.84,1.23,5.76,1.84a1.85,1.85,0,0,0,.61.52c4.43,2.44,9.88,2.88,14.84,3a88.48,88.48,0,0,0,17.57-1.42,50.54,50.54,0,0,0,7.69-1.91,1.89,1.89,0,0,0,.95-.7,35.31,35.31,0,0,0,12.76-7.39c2.52-2.29,4.59-5.25,7.43-7a36,36,0,0,0,8.49-7.77c3.5-4,6.63-8.41,9.94-12.63a53.3,53.3,0,0,0,3.6-4.38c2.95-4.71,5.87-9.44,8.56-14.3,2.46-4.45,4.74-9,6.85-13.64,2.5-5.5,4.73-11.13,7.09-16.7,1.5-3.52,3.35-6.93,4.46-10.57a88.93,88.93,0,0,0,3.53-15.1C531.17,90.62,531.53,82.09,532.17,73.59ZM428.57,217.05a.5.5,0,0,0,0-1A.5.5,0,0,0,428.57,217.05Z"/><path class="cls-1" d="M532.65,73.54l-.48,0c-.64,8.5-1,17-2,25.48a88.93,88.93,0,0,1-3.53,15.1c-1.11,3.64-3,7-4.46,10.57-2.36,5.57-4.59,11.2-7.09,16.7-2.11,4.63-4.39,9.19-6.85,13.64-2.69,4.86-5.61,9.59-8.56,14.3a53.3,53.3,0,0,1-3.6,4.38c-3.31,4.22-6.44,8.58-9.94,12.63a36,36,0,0,1-8.49,7.77c-2.84,1.71-4.91,4.67-7.43,7a35.31,35.31,0,0,1-12.76,7.39,1.89,1.89,0,0,1-.95.7,50.54,50.54,0,0,1-7.69,1.91,88.48,88.48,0,0,1-17.57,1.42c-5-.12-10.41-.56-14.84-3a1.85,1.85,0,0,1-.61-.52c-1.92-.61-3.83-1.27-5.76-1.84-2.82-.82-5.82-1.2-8.49-2.35-2.22-1-4.07-2.73-6.09-4.14a74.58,74.58,0,0,1-19.48-20A122.34,122.34,0,0,1,369.39,170c-1.1-2.07-1.49-4.52-2.19-6.81-2.65-8.73-5.27-17.45-5-26.76.09-3-1-6-.82-9,.22-4.94,1-9.86,1.53-14.78a12,12,0,0,1,.8-4.14,52.77,52.77,0,0,1,2.28-8.22c1.41-4.1,2.83-8.22,4.48-12.24.79-2.42,1.72-4.81,2.66-7.2,1.13-2.89,2.07-5.86,3.38-8.66,1.89-4,4-8,6.11-11.88a71.85,71.85,0,0,1,5.17-8.5,102.39,102.39,0,0,1,9.5-11.54A124.79,124.79,0,0,1,410.6,28.74c3.51-2.64,7.54-4.61,11.36-6.84,3-1.72,5.88-3.47,8.9-5A36.86,36.86,0,0,1,435.79,15c3-1,6-2,9-3.09a59.37,59.37,0,0,0,5.72-2.37c3.48-1.71,7.09-.66,10.64-.57,2.71.07,5.41.5,8.12.65,5,.28,10.11-.29,14.83.9,5.23,1.32,10.58,2.33,15.67,4.67A36.38,36.38,0,0,1,513.92,26.1c4.3,5.62,9.78,10.52,12.35,17.25,2.11,5.52,5,10.84,5,17.12C531.19,64.82,532.14,69.18,532.65,73.54ZM504.87,88.15c0-1.81-.57-3.62-.74-5.45-.52-5.32-1.46-10.39-4.57-15-2.55-3.83-5.19-7.33-9.2-9.69a14.88,14.88,0,0,1-3.63-2.67A14.86,14.86,0,0,0,478.41,51c-3.78-.79-7.83-.57-11.74-.34-5.11.31-10.19,1-15.28,1.62a22.11,22.11,0,0,0-4.69,1.05,85.59,85.59,0,0,0-8.61,3.48c-3.92,1.9-8.12,3.55-11.46,6.23A106.65,106.65,0,0,0,414,75.5a63.43,63.43,0,0,0-6.89,9.85c-1.95,3.27-3.49,6.78-5.12,10.22-.08.15-.14.3-.21.45-.57,2-1.11,4-1.51,6.07a69.16,69.16,0,0,0-.86,11h.12c0,2.49-.05,5,0,7.46a42.92,42.92,0,0,0,2.67,14.29,34.45,34.45,0,0,0,7.31,11.1c2.19,2.39,4,5.08,7.55,5.8,2.63.52,5.08,1.91,7.7,2.49a90,90,0,0,0,12.47,2.05c2.39.17,4.87-.68,7.27-1.21a46.58,46.58,0,0,0,5-1.49c2.18-.75,4.38-1.49,6.49-2.41,3.18-1.4,6.52-2.61,9.38-4.53a127.37,127.37,0,0,0,12-9.37,123.47,123.47,0,0,0,10-9.64,60.5,60.5,0,0,0,6.47-8.48,103.08,103.08,0,0,0,6.49-11.55A47.15,47.15,0,0,0,504.87,88.15Z"/><path d="M504.13,82.7c.17,1.83.77,3.64.74,5.45a47.15,47.15,0,0,1-4.44,19.42,103.08,103.08,0,0,1-6.49,11.55,60.5,60.5,0,0,1-6.47,8.48,123.47,123.47,0,0,1-10,9.64,127.37,127.37,0,0,1-12,9.37c-2.86,1.92-6.2,3.13-9.38,4.53-2.11.92-4.31,1.66-6.49,2.41a46.58,46.58,0,0,1-5,1.49c-2.4.53-4.88,1.38-7.27,1.21a90,90,0,0,1-12.47-2.05c-2.62-.58-5.07-2-7.7-2.49-3.58-.72-5.36-3.41-7.55-5.8a34.45,34.45,0,0,1-7.31-11.1,42.92,42.92,0,0,1-2.67-14.29c-.06-2.48,0-5,0-7.46h-.12a69.16,69.16,0,0,1,.86-11c.4-2,.94-4.06,1.51-6.07.07-.15.13-.3.21-.45,1.63-3.44,3.17-6.95,5.12-10.22A63.43,63.43,0,0,1,414,75.5a106.65,106.65,0,0,1,12.61-12.45c3.34-2.68,7.54-4.33,11.46-6.23a85.59,85.59,0,0,1,8.61-3.48,22.11,22.11,0,0,1,4.69-1.05c5.09-.61,10.17-1.31,15.28-1.62,3.91-.23,8-.45,11.74.34a14.86,14.86,0,0,1,8.32,4.28A14.88,14.88,0,0,0,490.36,58c4,2.36,6.65,5.86,9.2,9.69C502.67,72.31,503.61,77.38,504.13,82.7ZM498.25,91a19.26,19.26,0,0,0,.71-7.09,21.29,21.29,0,0,0-1.24-4.94,21,21,0,0,0-5.1-9,23.1,23.1,0,0,0-1.71-2.13c-1.85-2-4.24-3.54-6.23-5.44-3.63-3.45-7.78-5.55-12.87-5.23-3,.2-6,.63-9,1.07l-.63.1c-2.26.09-4.53.25-6.78.51a64.26,64.26,0,0,0-9.07,1.38,11.73,11.73,0,0,0-3.43,1.53,1,1,0,0,0-.46.11l-2.53,1.41-.3.1a2.17,2.17,0,0,0-.83.54c-3.32,1.85-6.64,3.73-9.78,5.86a52.48,52.48,0,0,0-16.48,18.72c-1.51,2.78-2.43,5.88-4,8.64-2.21,4-3.51,8-2.88,12.59,1,6.89,1.57,13.85,3,20.64,1.59,7.5,5.75,13.41,13.4,16,3.75,1.26,7.66,2.62,11.55,2.8a48,48,0,0,0,12.72-1.59,65.6,65.6,0,0,0,11.47-4c2.12-.94,3.8-2.85,5.82-4.1A63.53,63.53,0,0,0,477,128.79c3.72-4,7-8.36,10.72-12.36a37,37,0,0,0,7.73-13.19C496.83,99.3,497.43,95.1,498.25,91Z"/><path d="M448.11,215.24c.62-.14.89.83.26,1-1,.22-2,.41-3,.59h.24a.5.5,0,0,1,0,1L444,218c-4-2.07-7.91-1.38-11.93.11-.64,0-.65-1,0-1l.63,0a.46.46,0,0,1,.46-.34l6.15-.21A60.93,60.93,0,0,0,448.11,215.24Z"/><path d="M444,218a79.19,79.19,0,0,1-11.93.11C436.1,216.58,440,215.89,444,218Z"/><path d="M428.57,216.05a.5.5,0,0,1,0,1A.5.5,0,0,1,428.57,216.05Z"/></g></g></svg>