<svg id="Layer_2" data-name="Layer 2" xmlns="http://www.w3.org/2000/svg" viewBox="0 0 612 792"><defs><style>.cls-1,.cls-2{fill:none;stroke:#e2d8e2;stroke-miterlimit:10;stroke-width:12px;}.cls-2{stroke-opacity:0.33;}</style></defs><path class="cls-1" d="M500.28,613.85A125.75,125.75,0,0,1,495,629.44c-5.38,13-13.18,25.26-23.78,34.65-9.69,8.57-23.8,16.22-36.89,10.92-10.66-4.31-16.94-15.55-21-25.69-2.4-6-3.31-13.88-7.67-18.82-3.75-4.26-7.91-.37-10.77,2.82-3.57,4-6.76,8.28-12,10.18-6,2.16-10.61-1.06-13.58-6.18-7.07-12.22-8.24-27.69-10.65-41.34-1.29-7.24-2.82-14.43-5.78-21.19-1.51-3.45-6.07-10.16-8.49-3.31-2.26,6.41.46,14.46,1,21,.39,4.58.79,11.19-4.83,12.64s-11.56-2.88-15.26-6.5c-4.54-4.44-7.7-10.18-10.12-16-4.37-10.5-6.32-21.83-10.71-32.31a76.34,76.34,0,0,0-4.08-8.75s0-.08,0-.12.06-.51.15-1c.13-.7,12.82-9.52,15.82-13.64,2.41-3.32,3.14-9.87-4.66-24.15,15.95-5.41,31.84-11,47.64-16.83a93,93,0,0,0,9.56-2.46,69,69,0,0,0,1.8,7.65l.06.19c3.06,7.95,7.13,16.86,15.13,20.79,10,4.89,20.91,1.86,28.85-5.13l.2-.21c4.94-6,12.77-13.89,20.71-10.11a1.67,1.67,0,0,1,.23.12c4.94,3,7.94,8.86,9,14.78l0,.16c1.05,8.95.14,18.89-.78,27.85l0,.16c-1.92,10-5.79,22,1.26,30.91,1,2,5.93,2.94,9.9,1l.21-.12c10.72,0,32.94-5.54,41.85-.08C508,577.79,503,603.61,500.28,613.85Z"/><path class="cls-2" d="M592.83,527.19c-6.73,17.16-9.73,40.16-28,49.16"/><path class="cls-2" d="M606.7,451.32a401.71,401.71,0,0,1-6,43.84"/><path class="cls-2" d="M607.91,365.25q1.4,26.5.66,53.05"/><path class="cls-2" d="M23.77,352.88a358.29,358.29,0,0,1,7.24-47"/><path class="cls-2" d="M22.84,434.78a274.13,274.13,0,0,1-4.48-49.27"/><path class="cls-2" d="M53.77,514a281.35,281.35,0,0,1-19.32-48.89"/><path class="cls-2" d="M108.68,587.76c-8.66-6-13.69-15.25-20.57-22.92C81.39,557.33,75,550.3,69.55,541.51"/><path class="cls-2" d="M173.76,634.24c-15.21-7.81-29.67-17.13-42.42-28.57"/><path class="cls-2" d="M263.28,668.43c-19.76-5.11-38.76-12.13-57.64-19.81"/><path class="cls-2" d="M198.82,106.15c11.61-8.2,27.71-13.16,40-18.81"/><path class="cls-2" d="M170.61,122.6c-9.06-1.28-29,17.44-35.3,24.3,0,1.12.29,1.78,0,0"/><path class="cls-2" d="M110.27,170.4c-11.43,6-22,24.56-28.21,35.27"/><path class="cls-2" d="M62.47,230.74c-7.67,10.4-24.11,30.45-21.55,44.66"/><path class="cls-2" d="M438.93,106.31c11.44,6.45,28.91,14.65,37.62,24.29"/><path class="cls-2" d="M504.76,149.41c10.78,5.65,24.34,21.33,31.34,28.21"/><path class="cls-2" d="M561.18,205.83c7,12.2,11.91,26,18.81,38.4"/><path class="cls-2" d="M593.44,287.82c.32-6-3.48-13.1-4.7-19.6,4.7,21.25,13.16,42,16.1,63.46"/><path class="cls-2" d="M269.49,76.71c17.39-.13,33.46-1.77,50.55-1.18"/><path class="cls-2" d="M358.83,79.06c8.29,2.81,18.2,2.81,26.78,5,6.4,1.6,17.25,6.3,21.41,6.79"/><path class="cls-2" d="M524.94,623c5.78-7.9,14.15-13.62,20-21.16"/><path class="cls-1" d="M341.27,606c-19.79,15.29-34.27,47-44.42,69.18a293,293,0,0,0,59.64,2.6c6.36-.35,11.9-.11,18.58-.63,4.83-.38,14-2.89,13.3-2.9a218.2,218.2,0,0,0,35.08-10"/></svg>