<svg id="Layer_2" data-name="Layer 2" xmlns="http://www.w3.org/2000/svg" viewBox="0 0 612 792"><defs><style>.cls-1,.cls-2{fill:none;stroke:#e2d8e2;stroke-miterlimit:10;stroke-width:12px;}.cls-2{stroke-opacity:0.33;}</style></defs><path class="cls-1" d="M111,585.09a83.31,83.31,0,0,0,31.24-38.29c11-30-1-64-23.2-85.28,10.67-.31,4,3.82,0,0,9.2.28,17.2,4.28,26.2,4.28,6,1,12-2,13-9,1-10-5-24,7-29,15,3,29,6,44,11,12,3,24,6,36.39,6.57-.46-1.09-15.51-.19,0,0-.46-1.09-.94-2.18-1.44-3.25-6-12.73,8.43-43,8.72-59,18.62-1,41.76,3.55,59.08-2,.64-12.14-6.43-38-1.33-45.22,6.36,7.4,29.34-10,31.34-18.75,3.87-16.82-1-40.08,3.14-54.91"/><path class="cls-1" d="M347.73,258.33c6.5,6.47,13.5,17.47,23.5,13.47,5-15,14-28,22-42,6-11,10-22,18-30,9,4,18,8,27,11s18,11,18,21c0,14,1,28,1.83,41.58a3.71,3.71,0,0,1-.68-.11,32.88,32.88,0,0,1,6.85-.47c10-2,20-5,30-6,3,9,6,18,6.27,26.88,7.75-2.43,14.76-6.73,22.49-9.21,2.88,13.68,5.44,27.44,7.29,41.3,13-2,24-8,36-12,11-4,18-13,30-14,8,34,9,69,9,103-1,47-5,95-23,140-4,11-9,25-21,29-4,2-8,4-12,1-3-2-5-5-6.76-8.31-2,8.61.57,1.31,0,0a187.54,187.54,0,0,1-7.84,25.38c-3.73,9.57-9,23.23-19.93,26.46-7.71,2.27-14.23-3-17.67-9.51-4.58,18.7-13.23,37.09-27.09,50.72-8.82,8.67-21.42,16.92-34.4,15.27-14.75-1.87-23.09-17.34-27.65-29.91-1.84-5.08-2.86-10.53-5.73-15.19-5.54-9-12.22,3.06-16.67,7.11-6.83,6.22-14.69,8-20-.79-5.72-9.46-7.3-21.64-9.23-32.33-1.85-10.23-2.95-21.15-7.07-30.79-.93-2.17-2.92-7.48-6-6.88-2.41.47-3,4-3.2,5.94-.54,5.74.89,11.61,1.35,17.32.31,4,1,10.68-3.4,12.79-5.83,2.8-13.84-2.94-17.51-7-10.54-11.53-13-28.49-17.83-42.83-2.26-6.76-11.92-31.13-20.89-17.31-4.63,7.14-1.39,17.9.77,25.3,3.28,11.26,7.86,22.09,11.62,33.19,2.7,8,6.82,18.49,4.26,27-3.21,10.64-16.56,7.42-24,4.1-17.21-7.65-31.74-22.6-42-38.11a88.92,88.92,0,0,1-6.47-11.4c-.73-1.56-2.08-7.95-4.4-7.08-3.42,1.27-2.14,12.21-2.16,15-.08,8.91-6.66,18.26-16.3,16.64-11-1.84-20.56-11.48-28-19.06a202.18,202.18,0,0,1-24.25-30.32,82.63,82.63,0,0,1-6.21-10.75"/><path class="cls-2" d="M20.17,348.33a358.42,358.42,0,0,1,7.25-47"/><path class="cls-2" d="M23.25,430.24A274.22,274.22,0,0,1,18.77,381"/><path class="cls-2" d="M50.18,509.42a281.67,281.67,0,0,1-19.32-48.89"/><path class="cls-2" d="M90.3,568A186,186,0,0,1,66,537"/><path class="cls-1" d="M419.85,659.68c-14.62,4.12-28.62,8.12-43.62,11.12-32,6-61,4-92-2-25-4-48-12-72-21a133.55,133.55,0,0,0-18-7,373.75,373.75,0,0,1-52-28,146.22,146.22,0,0,1-19-16c-6-5-12-8-18.07-12.88"/><path class="cls-1" d="M538.69,579.35q4.14-5.28,8-10.78"/><path class="cls-1" d="M491.07,624.38a69.94,69.94,0,0,0,8.09-5.08c1.81-1.32,3.44-2.64,4.91-3.92"/><path class="cls-1" d="M490.36,444.15c11.17-21.73,21.32-45.71,20.69-70.6-.53-20.86-9-44.22-31.4-49.26-10.13-2.28-21-1.06-30.72,2.25"/><path class="cls-1" d="M439.89,503.9a126.91,126.91,0,0,0,27.71-25"/><path class="cls-1" d="M369.68,487.41c15.89-2.53,30.89-6.53,45.89-13.53,38.6-22.06,92.06-90.11,62-136-7-10-19-12-29.71-11.08"/><path class="cls-1" d="M359.08,424.18c21.2-6.2,36.87-33.61,48.5-50.76,14.94-22,29-48.67,59-52.17,45.74-5.34,48.07,49.56,48.07,81.19,0,12.66,1.89,55.75-16.24,59-9.68,1.73-7.22-15.66-9.38-22.17-3.94-11.85-11.93-9.28-16.44,1.77-12.53,30.68.44,68.06-5.64,100.06-1.65,8.68-8.47,29.21-21.08,27.71s-6.61-22.91-5.89-30.89c1.11-12.28,4.9-31.74-4.45-42.1-9.93-11-18,2-26,8-14.09,10.73-30.79,7.07-38.8-9.54-8.51-17.67-4.39-39.29-5.35-58.12C365.09,430.54,364.66,425.64,359.08,424.18Z"/><path class="cls-2" d="M195.23,101.6c11.61-8.19,27.7-13.15,40-18.8"/><path class="cls-2" d="M167,118.06c-9.06-1.28-29,17.44-35.3,24.3,0,1.12.28,1.77,0,0"/><path class="cls-2" d="M106.68,165.86c-11.43,6-22,24.55-28.21,35.27"/><path class="cls-2" d="M58.88,226.2c-7.67,10.4-24.12,30.45-21.55,44.66"/><path class="cls-2" d="M435.34,101.77c11.44,6.44,28.91,14.64,37.61,24.29"/><path class="cls-2" d="M501.16,144.87c10.79,5.65,24.35,21.32,31.35,28.21"/><path class="cls-2" d="M557.58,201.29c7,12.2,11.91,26,18.81,38.4"/><path class="cls-2" d="M585.15,263.68c1.21,6.5,5,13.63,4.7,19.59"/><path class="cls-2" d="M265.9,72.16C283.28,72,299.35,70.4,316.44,71"/><path class="cls-2" d="M355.23,74.52c8.3,2.81,18.21,2.81,26.78,5,6.41,1.61,17.26,6.3,21.42,6.8"/></svg>