<svg id="Layer_2" data-name="Layer 2" xmlns="http://www.w3.org/2000/svg" viewBox="0 0 612 792"><defs><style>.cls-1,.cls-2{fill:none;stroke:#e2d8e2;stroke-miterlimit:10;stroke-width:12px;}.cls-2{stroke-opacity:0.33;}</style></defs><path class="cls-1" d="M258.35,179.58c1.77,4.16,3.51,8.66,5.3,13.21,1.27,3.23,2.57,6.48,3.92,9.65,1,2.28,2,4.51,3,6.66,3,6.07,6.22,11.48,10.08,15.35,5.42,5.43,12,7.79,20.42,4.6,17.32-17.82-36.17-43.43-6.31-55.51,23.16-7.33,41.24,23.42,50.83,38.14,11.72,20.26,38.26,20.92,36.52-7.65,1.89-24.29-19.46-40.6-23.69-63.19-.69-5.7,2.26-25.13,12.4-21.76,11,10.22,13.31,29.44,25.58,39.27,6.28,5.73,26.28,13.53,24.57-2.22-33.89-53.55,22.91-45.37,54.57-26.36,92.87,41.88,127.17,162.77,130.86,269,1.14,33.08-2.85,77.21-4.3,90-3.38,22.23-7.34,40.41-10.65,53.87a178.15,178.15,0,0,1-10.29,28.56c-5.52,12.13-10.83,20.25-18.94,23.33a13.72,13.72,0,0,1-8,.82c-6.63-1.5-9.63-8.14-10.08-9.17-.67,2.93-10.21,43-24.31,50.37a14.66,14.66,0,0,1-8.94,1.93c-7.22-1-11.29-8.27-12.19-10-11.52,47.08-43.93,70.86-64.45,65.41-18.42-4.88-26.06-33-27.21-37.42-2.57-6.27-5.41-14.8-12.35-8.3C358.76,694,360.47,613.92,351,593c-1-2.65-4.55-10.46-8-5.86-6,8,9.68,40.89-10.94,34.39-16.23-5.12-21.6-29.41-25.89-43.3-2.12-6.85-8-27.36-17.14-27.9-30.3,11,39.67,98.43-2.14,97.36-24.73-3.91-54.65-36.75-62.07-59.58C220,584.28,221,602.46,221,604.33c-10.64,46.47-66.41-26.77-74.72-45.17-29.45-44.68-65.91-195.73,10.67-204.45,27.24,18.66,3.22,59.51,25,81.55,7.06,7,19.51,11.38,25.43.69,14-42.88-23-84.91-40.22-122a164.35,164.35,0,0,1-7-15.8q-1.2-3.12-2.31-6.35c-.37-1.09-.73-2.2-1.08-3.31"/><path class="cls-1" d="M421.51,681.38a276,276,0,0,1-72.68,11.51c-54.89,1.35-109.53-12.77-159.1-36.38-39.11-18.63-75.76-43.5-104-76.34C47.24,535.44,25.93,477.23,21.61,418.39A325.44,325.44,0,0,1,36.09,297.2c1.56-4.94,13.15-2.65,17.8-3.82,4.81-1.21,9.45-3.46,14.36-4.61-.25,5.22,2.2,10.47,5,14.65,9.81-3.89,16.67-16.09,26.5-20.29,8-3.43,9.23,3.68,14.26,10.23,4.32,5.61,10.31,14,18.68,11.79,7.92-2.13,14.91-12.46,22.52-15.59.37,2.13,0,0,.16-.12,1.6.17,11.58.56,16.29.78,7.57.36,10.91,1.31,13.68-5.28,4.77-11.31,3.55-32.89-.19-44.09-1.83-5.48-4.17-12-3.8-17.9,16.84-3,34.33,6.39,51.48,5.25-1.92-6.5-1.51-14.63-3.23-22-1-4.32-6.92-19.17-4.52-22.94,3.41-5.34,27.3.45,33.64-1.26-1.74-11.6-11.68-26.24-16.44-37.49,7.67-6.35,21.87-5.66,25.14-14.91,2.85-8.11.63-20.48,1.39-28.92-.28.94-.45.66-.59.72"/><path class="cls-1" d="M418.56,117.17a312,312,0,0,0-59-16,294.93,294.93,0,0,0-29.51-3.46q-5.15-.33-10.31-.5a303.77,303.77,0,0,0-35.95,1q-7.87.69-15.69,1.79"/><path class="cls-1" d="M540.34,601.05q4.14-5.28,8-10.78"/><path class="cls-1" d="M492.72,646.08a70,70,0,0,0,8.1-5.08c1.8-1.32,3.44-2.64,4.9-3.92"/><path class="cls-1" d="M492,465.85c11.17-21.72,21.32-45.71,20.69-70.6-.53-20.86-9-44.22-31.4-49.26-10.12-2.28-20.95-1.06-30.71,2.25"/><path class="cls-1" d="M441.54,525.6a126.69,126.69,0,0,0,27.71-25"/><path class="cls-1" d="M371.34,509.11c15.88-2.53,30.88-6.53,45.88-13.53,38.6-22.06,92.07-90.11,62-136-7-10-19-12-29.7-11.07"/><path class="cls-1" d="M360.74,445.88c21.19-6.2,36.87-33.61,48.49-50.76,14.94-22,29-48.67,59-52.17,45.74-5.34,48.06,49.56,48.06,81.2,0,12.65,1.9,55.74-16.23,59-9.68,1.73-7.22-15.66-9.39-22.17-3.94-11.85-11.92-9.28-16.43,1.77-12.53,30.68.43,68.06-5.65,100.06-1.65,8.68-8.46,29.21-21.08,27.71s-6.61-22.91-5.89-30.89c1.11-12.28,4.9-31.73-4.45-42.1-9.93-11-18,2-26,8-14.09,10.73-30.8,7.07-38.8-9.54-8.52-17.66-4.4-39.29-5.35-58.12C366.74,452.24,366.32,447.34,360.74,445.88Z"/><path class="cls-2" d="M196.89,123.3c11.6-8.19,27.7-13.15,40-18.8"/><path class="cls-2" d="M168.68,139.76c-9.07-1.28-29,17.44-35.31,24.3,0,1.12.29,1.78,0,0"/><path class="cls-2" d="M108.34,187.56c-11.44,6-22,24.55-28.22,35.27"/><path class="cls-2" d="M60.53,247.9c-5.94,8.07-17.06,23.83-18,32.92"/></svg>