<svg id="Layer_2" data-name="Layer 2" xmlns="http://www.w3.org/2000/svg" viewBox="0 0 612 792"><defs><style>.cls-1,.cls-2{fill:none;stroke:#e2d8e2;stroke-miterlimit:10;stroke-width:12px;}.cls-2{stroke-opacity:0.33;}</style></defs><path class="cls-1" d="M486.51,435.8c-3-3-8,0-10,2-7,11-8,23-9,35,0,23,4,46,1,70-2,11-6,22-16,28-4,2-9,1-10-1-7-9-3-21-1-31,1-9,2-19,1-28-1-6-4-12-9-15-8-4-16,4-21,10-8,7-19,10-29,5-8-4-12-13-15-21-1-4-2-7-2-11,0-30,2-60-3-90,0-4-6-1-9,1-17,10-33,21-53,20-19-1-34-12-47.61-23.65-.35,17.15,4,3.52,0,0-.35,17.15-9.8,33-10.18,50.17-.1,4.57,1.18,7.9,2.9,12.05a34.61,34.61,0,0,1-7-.34c1.9-.4,5.27-.64,7,.34-28.11-2.57-53.11-13.57-81.11-16.57-5-1-7,5-7,10,0,9,5,21-4,25-11,6-22-3-34.48-2.28.69.65,6.55.21,0,0,.69.65,4.64,2.85,5.52,1.32s-4.81-1.35-5.52-1.32a89.61,89.61,0,0,1,26,47.39c1.95,10.33-1.8,21.72,1,31.22,3.44,11.7,16.21,24.46,24.22,33.3,8.47,9.34,18.78,21.26,31.71,24,12.35,2.58,17.6-9.78,17.2-19.94-.1-2.33-1-10.35,2.1-11.38,2.91-1,5.05,8,6.05,9.93a115.17,115.17,0,0,0,26.88,33.57c8.58,7.35,19.61,15,31.24,16.09,14.32,1.29,15-12.76,12.12-23.47-4-14.84-10.63-28.86-15-43.59-1.77-6-3.72-12.28-3.14-18.56.37-4,2.6-10.39,7.29-11.17,7.17-1.18,12.05,11.68,14.08,16.63,4.31,10.53,6.17,21.87,10.45,32.4,2.38,5.84,5.49,11.61,10,16.08,3.67,3.65,9.71,8,15.21,6.62s5.28-8,4.93-12.61c-.51-6.52-3.17-14.58-.85-21,2.47-6.83,7-.08,8.45,3.37,2.91,6.79,4.39,14,5.61,21.24,2.31,13.67,3.36,29.15,10.34,41.42,2.93,5.15,7.54,8.4,13.53,6.29,5.25-1.86,8.47-6.15,12.06-10.09,2.89-3.16,7.08-7,10.8-2.74,4.31,5,5.16,12.9,7.52,18.89,4,10.17,10.2,21.46,20.83,25.86,13,5.39,27.22-2.14,37-10.64,10.67-9.3,18.57-21.48,24.05-34.46A127.79,127.79,0,0,0,498,609.82c4.51,8.49,13.66,13,22.31,7.34,9.17-8.36,16.17-20.36,15.17-33.36,6-26,13-54,7.17-81-14,4.17-22,20.77-37.23,22a315.71,315.71,0,0,0-3.36-42.45C500,468.94,494.75,446.79,486.51,435.8Z"/><path class="cls-2" d="M590.23,525.65c-6.72,17.15-9.72,40.15-28,49.15"/><path class="cls-2" d="M604.11,449.78a404.51,404.51,0,0,1-6,43.84"/><path class="cls-2" d="M605.32,363.71q1.39,26.49.66,53.05"/><path class="cls-2" d="M21.17,351.33a358.42,358.42,0,0,1,7.25-47"/><path class="cls-2" d="M20.25,433.24A274.22,274.22,0,0,1,15.77,384"/><path class="cls-2" d="M51.18,512.42a281.67,281.67,0,0,1-19.32-48.89"/><path class="cls-2" d="M91.3,571A186,186,0,0,1,67,540"/><path class="cls-1" d="M420.85,662.68c-14.62,4.12-28.62,8.12-43.62,11.12-32,6-61,4-92-2-25-4-48-12-72-21a133.55,133.55,0,0,0-18-7,373.75,373.75,0,0,1-52-28,146.22,146.22,0,0,1-19-16c-6-5-12-8-18.07-12.88"/><path class="cls-1" d="M492.07,627.38a69.94,69.94,0,0,0,8.09-5.08c1.81-1.32,3.44-2.64,4.91-3.92"/><path class="cls-1" d="M440.89,506.9a126.91,126.91,0,0,0,27.71-25"/><path class="cls-1" d="M370.68,490.41c15.89-2.53,30.89-6.53,45.89-13.53,21-12,46.4-37.62,60.36-65.87"/><path class="cls-2" d="M196.23,104.6c11.61-8.19,27.7-13.15,40-18.8"/><path class="cls-2" d="M168,121.06c-9.06-1.28-29,17.44-35.3,24.3,0,1.12.28,1.77,0,0"/><path class="cls-2" d="M107.68,168.86c-11.43,6-22,24.55-28.21,35.27"/><path class="cls-2" d="M59.88,229.2c-7.67,10.4-24.12,30.45-21.55,44.66"/><path class="cls-2" d="M436.34,104.77c11.44,6.44,28.91,14.64,37.61,24.29"/><path class="cls-2" d="M502.16,147.87c10.79,5.65,24.35,21.32,31.35,28.21"/><path class="cls-2" d="M558.58,204.29c7,12.2,11.91,26,18.81,38.4"/><path class="cls-2" d="M590.85,286.27c.32-6-3.49-13.09-4.7-19.59,4.7,21.25,13.15,41.95,16.09,63.45"/><path class="cls-2" d="M266.9,75.16C284.28,75,300.35,73.4,317.44,74"/><path class="cls-2" d="M356.23,77.52c8.3,2.81,18.21,2.81,26.78,5,6.41,1.61,17.26,6.3,21.42,6.8"/><path class="cls-1" d="M475.89,418c5.73,3.3,10.58,16.66,14.1,21.16,7.08,9,5.27,21.24,10.58,31.73"/></svg>