<svg id="Layer_2" data-name="Layer 2" xmlns="http://www.w3.org/2000/svg" viewBox="0 0 612 792"><defs><style>.cls-1,.cls-2{fill:none;stroke:#e2d8e2;stroke-miterlimit:10;stroke-width:12px;}.cls-2{stroke-opacity:0.33;}</style></defs><path class="cls-1" d="M157.7,290.5c.28.88.64,2,1.08,3.31q1.11,3.22,2.31,6.35a164.35,164.35,0,0,0,7,15.8c17.18,37.08,54.18,79.11,40.22,122-5.92,10.69-18.37,6.29-25.43-.69-21.79-22,2.23-62.89-25-81.55-76.58,8.72-40.12,159.77-10.67,204.45,8.31,18.4,64.08,91.64,74.72,45.17.06-1.87-1-20.05,3.87-16.26,7.42,22.83,37.34,55.67,62.07,59.58,41.81,1.07-28.16-86.35,2.14-97.36,9.17.54,15,21.05,17.14,27.9,4.29,13.89,9.66,38.18,25.89,43.3C353.69,629,338,596.15,344,588.1c3.43-4.6,6.95,3.21,8,5.86,9.48,21,7.77,101.08,43.68,55.25,6.94-6.5,9.78,2,12.35,8.3,1.15,4.43,8.79,32.54,27.21,37.42,20.52,5.45,52.93-18.33,64.45-65.41.9,1.7,5,9,12.19,10a14.66,14.66,0,0,0,8.94-1.93c14.1-7.39,23.64-47.44,24.31-50.37.45,1,3.45,7.67,10.08,9.17a13.72,13.72,0,0,0,8-.82c8.11-3.08,13.42-11.2,18.94-23.33a178.15,178.15,0,0,0,10.29-28.56c3.31-13.46,7.27-31.64,10.65-53.87,1.45-12.75,5.44-56.88,4.3-90-.4-11.38-1.15-22.93-2.28-34.54q-1-10.21-2.39-20.46c-.61-4.39-1.74-12.21-3.52-21.95C593.64,321,576,333.38,569,336.07c-11.74,4.54-24.07,10.46-36.06,12.4-1.82-13.7-4.46-27.87-7.28-41.3-7.17,2.29-14.76,6.8-22.5,9.21.15-9.37-3.49-17.8-5.72-26.45-6.95-.84-14.76,2.34-21.44,3.81-3.24.72-6.92,1-10.18,1.57-1.4.25-7.87.6-5.09.77,0-10-1.7-19.23-2.18-29-.34-6.91,1.07-16.19-2.68-21.88-8.61-13-30.46-14-41.86-22.91,5.7-11.1,19.16-18.44,28.58-25.89-6.07-2-23.58-29.59-25.22-29.06"/><path class="cls-1" d="M259.35,180.58c1.77,4.16,3.51,8.66,5.3,13.21,1.27,3.23,2.57,6.48,3.92,9.65,1,2.28,2,4.51,3,6.66,3,6.07,6.22,11.48,10.08,15.35,5.42,5.43,12,7.79,20.42,4.6,17.32-17.82-36.17-43.43-6.31-55.51,23.16-7.33,41.24,23.42,50.83,38.14,11.72,20.26,38.26,20.92,36.52-7.65,1.89-24.29-19.46-40.6-23.69-63.19-.69-5.7,2.26-25.13,12.4-21.76,11,10.22,13.31,29.44,25.58,39.27,6.13,5.59,25.35,13.17,24.65-1.15,0-.35,0-.7-.08-1.07-10.13-16-12.16-26.49-9.18-32.83a11.25,11.25,0,0,1,1.38-2.23,12.74,12.74,0,0,1,4.08-3.3"/><path class="cls-1" d="M422.51,682.38a276,276,0,0,1-72.68,11.51c-54.89,1.35-109.53-12.77-159.1-36.38-39.11-18.63-75.76-43.5-104-76.34C48.24,536.44,26.93,478.23,22.61,419.39A325.44,325.44,0,0,1,37.09,298.2c1.56-4.94,13.15-2.65,17.8-3.82,4.81-1.21,9.45-3.46,14.36-4.61-.25,5.22,2.2,10.47,5,14.65,9.81-3.89,16.67-16.09,26.5-20.29,8-3.43,9.23,3.68,14.26,10.23,4.32,5.61,10.31,14,18.68,11.79,7.92-2.13,14.91-12.46,22.52-15.59.37,2.13,0,0,.16-.12,1.6.17,11.58.56,16.29.78,7.57.36,10.91,1.31,13.68-5.28,4.77-11.31,3.55-32.89-.19-44.09-1.83-5.48-4.17-12-3.8-17.9,16.84-3,34.33,6.39,51.48,5.25-1.92-6.5-1.51-14.63-3.23-22-1-4.32-6.92-19.17-4.52-22.94,3.41-5.34,27.3.45,33.64-1.26-1.74-11.6-11.68-26.24-16.44-37.49,7.67-6.35,21.87-5.66,25.14-14.91,2.85-8.11.63-20.48,1.39-28.92-.28.94-.45.66-.59.72"/><path class="cls-1" d="M269.11,101q7.81-1.1,15.69-1.79a303.77,303.77,0,0,1,35.95-1q5.16.16,10.31.5a294.93,294.93,0,0,1,29.51,3.46,312,312,0,0,1,59,16,5.11,5.11,0,0,0,2.37,0"/><path class="cls-1" d="M541.34,602.05q4.14-5.28,8-10.78"/><path class="cls-1" d="M493.72,647.08a70,70,0,0,0,8.1-5.08c1.8-1.32,3.44-2.64,4.9-3.92"/><path class="cls-1" d="M493,466.85c11.17-21.72,21.32-45.71,20.69-70.6-.53-20.86-9-44.22-31.4-49.26-10.12-2.28-20.95-1.06-30.71,2.25"/><path class="cls-1" d="M442.54,526.6a126.69,126.69,0,0,0,27.71-25"/><path class="cls-1" d="M372.34,510.11c15.88-2.53,30.88-6.53,45.88-13.53,38.6-22.06,92.07-90.11,62-136-7-10-19-12-29.7-11.07"/><path class="cls-1" d="M361.74,446.88c21.19-6.2,36.87-33.61,48.49-50.76,14.94-22,29-48.67,59-52.17,45.74-5.34,48.06,49.56,48.06,81.2,0,12.65,1.9,55.74-16.23,59-9.68,1.73-7.22-15.66-9.39-22.17-3.94-11.85-11.92-9.28-16.43,1.77-12.53,30.68.43,68.06-5.65,100.06-1.65,8.68-8.46,29.21-21.08,27.71s-6.61-22.91-5.89-30.89c1.11-12.28,4.9-31.73-4.45-42.1-9.93-11-18,2-26,8-14.09,10.73-30.8,7.07-38.8-9.54-8.52-17.66-4.4-39.29-5.35-58.12C367.74,453.24,367.32,448.34,361.74,446.88Z"/><path class="cls-2" d="M197.89,124.3c11.6-8.19,27.7-13.15,40-18.8"/><path class="cls-2" d="M169.68,140.76c-9.07-1.28-29,17.44-35.31,24.3,0,1.12.29,1.78,0,0"/><path class="cls-2" d="M109.34,188.56c-11.44,6-22,24.55-28.22,35.27"/><path class="cls-2" d="M61.53,248.9c-5.94,8.07-17.06,23.83-18,32.92"/><path class="cls-2" d="M438,124.47c11.45,6.44,28.91,14.65,37.62,24.29"/><path class="cls-2" d="M503.82,167.57c10.78,5.65,24.34,21.32,31.34,28.21"/><path class="cls-2" d="M560.24,224c7,12.2,11.91,26,18.81,38.4"/><path class="cls-2" d="M587.8,286.38c1.22,6.5,5,13.63,4.7,19.59"/></svg>