<svg id="Layer_2" data-name="Layer 2" xmlns="http://www.w3.org/2000/svg" viewBox="0 0 612 792"><defs><style>.cls-1,.cls-2{fill:none;stroke:#e2d8e2;stroke-miterlimit:10;stroke-width:12px;}.cls-1{stroke-opacity:0.33;}</style></defs><path class="cls-1" d="M589.83,527.19c-6.73,17.16-9.73,40.16-28,49.16"/><path class="cls-1" d="M603.7,451.32a401.71,401.71,0,0,1-6,43.84"/><path class="cls-1" d="M604.91,365.25q1.4,26.5.66,53.05"/><path class="cls-1" d="M20.77,352.88a358.29,358.29,0,0,1,7.24-47"/><path class="cls-1" d="M19.84,434.78a274.13,274.13,0,0,1-4.48-49.27"/><path class="cls-1" d="M50.77,514a281.35,281.35,0,0,1-19.32-48.89"/><path class="cls-1" d="M105.68,587.76c-8.66-6-13.69-15.25-20.57-22.92C78.39,557.33,72,550.3,66.55,541.51"/><path class="cls-1" d="M170.76,634.24c-15.21-7.81-29.67-17.13-42.42-28.57"/><path class="cls-2" d="M244.39,605.39c-9,6.76-49.54,42.3-48.78,43.55C244,668.63,302.3,681.28,354.9,678.59c11.46-.59,35.05-.47,48.51-3.83,20-5,13.41-2.61,20-1,9.94,2.42,8,3.71,19.64,2.88,9.42-.68,18.33-6.47,25.21-12.55,10.6-9.39,18.4-21.63,23.78-34.65a125.75,125.75,0,0,0,5.24-15.59,1.73,1.73,0,0,1,3-.64c4.92,6.26,12.73,8.92,20.15,4.11a1.93,1.93,0,0,0,.28-.22c9-8.36,15.79-20.27,14.8-33.1a2,2,0,0,1,0-.49c5.65-25.35,12.18-52.59,6.9-78.89a1.73,1.73,0,0,0-2.34-1.27c-12.21,4.89-19.9,18.93-33.16,21.34a1.73,1.73,0,0,1-2-1.66,308.58,308.58,0,0,0-3.64-40.5c-2.22-13.36-7.61-35.46-15.94-46.39-3-2.9-7.75-.09-9.83,1.92a1.93,1.93,0,0,0-.28.36c-6.78,11-7.7,22.88-8.59,34.79a.86.86,0,0,0,0,.16c.19,22.95,4.35,45.87,1.56,69.84a.69.69,0,0,0,0,.13c-1.91,11-5.81,21.92-15.67,28l-.21.12c-4,2-8.89,1-9.9-1-7-8.92-3.18-20.91-1.26-30.91l0-.16c.92-9,1.83-18.9.78-27.85l0-.16c-1.05-5.92-4.05-11.81-9-14.78a1.67,1.67,0,0,0-.23-.12c-7.94-3.78-15.77,4.11-20.71,10.11l-.2.21c-7.94,7-18.86,10-28.85,5.13-8-3.93-12.07-12.84-15.13-20.79l-.06-.19c-1-4-2-6.92-2.06-10.89-.23-30,1.53-60-3.71-90,0-4-6-1-9,1.07-16.92,10.13-32.83,21.26-52.84,20.41-19-.85-34.09-11.73-47.79-23.27-.21,17.14,4,3.49,0,0-.21,17.14-9.55,33.05-9.79,50.24a24.07,24.07,0,0,0,2,9.67c5.83,14.76,18.08,28.52,20.37,43.92,1.25,8.43-11.11,19.13-17.48,25.91-7.54,8-15.28,15.54-22.86,23.29-6.82,7-10.68,8.41-5.88,18,3.61,7.22,1.34,19.06,9.53,22,4.08,1.45,12.7,19,16.38,23,10.77,11.76,25,24.77,42.13,26.19,14.33,1.18,14.89-12.87,11.93-23.56-4.1-14.81-10.85-28.78-15.33-43.47-1.81-5.94-3.81-12.25-3.28-18.54.34-4,2.52-10.41,7.2-11.22,7.17-1.25,12.15,11.58,14.21,16.52,4.39,10.48,6.34,21.81,10.71,32.31,2.42,5.82,5.58,11.56,10.12,16,3.7,3.62,9.77,7.91,15.26,6.5s5.22-8.06,4.83-12.64c-.56-6.52-3.28-14.57-1-21,2.42-6.85,7-.14,8.49,3.31,3,6.76,4.49,14,5.78,21.19,2.41,13.65,3.58,29.12,10.65,41.34,3,5.12,7.61,8.34,13.58,6.18,5.23-1.9,8.42-6.22,12-10.18,2.86-3.19,7-7.08,10.77-2.82,4.36,4.94,5.27,12.86,7.67,18.82,1.75,4.33,10.36,20.33,13.07,24.44"/><path class="cls-2" d="M491.66,628.92a68.6,68.6,0,0,0,8.09-5.08c1.81-1.31,3.44-2.64,4.91-3.92"/><path class="cls-2" d="M440.48,508.44a126.69,126.69,0,0,0,27.71-25"/><path class="cls-2" d="M370.28,492c15.88-2.53,30.88-6.53,45.88-13.53,21-12,46.4-37.62,60.36-65.87"/><path class="cls-1" d="M195.82,106.15c11.61-8.2,27.71-13.16,40-18.81"/><path class="cls-1" d="M167.61,122.6c-9.06-1.28-29,17.44-35.3,24.3,0,1.12.29,1.78,0,0"/><path class="cls-1" d="M107.27,170.4c-11.43,6-22,24.56-28.21,35.27"/><path class="cls-1" d="M59.47,230.74c-7.67,10.4-24.11,30.45-21.55,44.66"/><path class="cls-1" d="M435.93,106.31c11.44,6.45,28.91,14.65,37.62,24.29"/><path class="cls-1" d="M501.76,149.41c10.78,5.65,24.34,21.33,31.34,28.21"/><path class="cls-1" d="M558.18,205.83c7,12.2,11.91,26,18.81,38.4"/><path class="cls-1" d="M590.44,287.82c.32-6-3.48-13.1-4.7-19.6,4.7,21.25,13.16,42,16.1,63.46"/><path class="cls-1" d="M266.49,76.71c17.39-.13,33.46-1.77,50.55-1.18"/><path class="cls-1" d="M355.83,79.06c8.29,2.81,18.2,2.81,26.78,5,6.4,1.6,17.25,6.3,21.41,6.79"/><path class="cls-2" d="M475.48,419.53c5.73,3.3,10.58,16.66,14.11,21.16,7.07,9,5.27,21.24,10.58,31.74"/></svg>