<svg id="Layer_2" data-name="Layer 2" xmlns="http://www.w3.org/2000/svg" viewBox="0 0 612 792"><defs><style>.cls-1,.cls-2{fill:none;stroke:#e2d8e2;stroke-miterlimit:10;stroke-width:12px;}.cls-2{stroke-opacity:0.33;}</style></defs><path class="cls-1" d="M232.29,229.87c6.65,6,9.42,24.48,17.88,30.73,12.12-8.78,28.32-20.13,41.86-24.7-.8,18.77-3.51,51.9,2.79,69.11,13-10.73,24.14-24.56,36.21-36.47,14.58,2.54,26.22,29.88,40.94,28.12,4.07-12.23,12.43-24.76,18.69-36.23,6.68-12.26,13.61-27.58,22.34-37.17,11.4,8.87,33.25,9.86,41.86,22.91,3.75,5.69,2.34,15,2.68,21.88.48,9.8,2.18,19.07,2.18,29-2.78-.17,3.69-.52,5.09-.77,3.26-.57,6.94-.85,10.18-1.57,6.68-1.47,14.49-4.65,21.44-3.81,2.23,8.65,5.87,17.08,5.72,26.45,7.74-2.41,15.33-6.92,22.5-9.21,2.82,13.43,5.46,27.6,7.28,41.3,12-1.94,24.32-7.86,36.06-12.4,7-2.69,24.65-15.05,30.24-13.2,1.78,9.74,2.91,17.56,3.52,21.95q1.39,10.23,2.39,20.46c1.13,11.61,1.88,23.16,2.28,34.54,1.14,33.08-2.85,77.21-4.3,90-3.38,22.23-7.34,40.41-10.65,53.87a178.15,178.15,0,0,1-10.29,28.56c-5.52,12.13-10.83,20.25-18.94,23.33a13.72,13.72,0,0,1-8,.82c-6.63-1.5-9.63-8.14-10.08-9.17-.67,2.93-10.21,43-24.31,50.37a14.66,14.66,0,0,1-8.94,1.93c-7.22-1-11.29-8.27-12.19-10-11.52,47.08-43.93,70.86-64.45,65.41-18.42-4.88-26.06-33-27.21-37.42-2.57-6.27-5.41-14.8-12.35-8.3C358.76,696,360.47,615.92,351,595c-1-2.65-4.55-10.46-8-5.86-6,8,9.68,40.89-10.94,34.39-16.23-5.12-21.6-29.41-25.89-43.3-2.12-6.85-8-27.36-17.14-27.9-30.3,11,39.67,98.43-2.14,97.36-24.73-3.91-54.65-36.75-62.07-59.58C220,586.28,221,604.46,221,606.33c-10.64,46.47-66.41-26.77-74.72-45.17-29.45-44.68-65.91-195.73,10.67-204.45,27.24,18.66,3.22,59.51,25,81.55,7.06,7,19.51,11.38,25.43.69,14-42.88-23-84.91-40.22-122a164.35,164.35,0,0,1-7-15.8q-1.2-3.12-2.31-6.35c-.44-1.3-.8-2.43-1.08-3.31"/><path class="cls-1" d="M421.51,683.38a276,276,0,0,1-72.68,11.51c-54.89,1.35-109.53-12.77-159.1-36.38-39.11-18.63-75.76-43.5-104-76.34C47.24,537.44,25.93,479.23,21.61,420.39A325.44,325.44,0,0,1,36.09,299.2c1.56-4.94,13.15-2.65,17.8-3.82,4.81-1.21,9.45-3.46,14.36-4.61-.25,5.22,2.2,10.47,5,14.65,9.81-3.89,16.67-16.09,26.5-20.29,8-3.43,9.23,3.68,14.26,10.23,4.32,5.61,10.31,14,18.68,11.79,7.92-2.13,14.91-12.46,22.52-15.59.37,2.13,0,0,.16-.12,1.6.17,11.58.56,16.29.78,7.57.36,10.91,1.31,13.68-5.28,4.77-11.31,3.55-32.89-.19-44.09-1.83-5.48-4.17-12-3.8-17.9,16.84-3,34.33,6.39,51.48,5.25"/><path class="cls-1" d="M540.34,603.05q4.14-5.28,8-10.78"/><path class="cls-1" d="M492.72,648.08a70,70,0,0,0,8.1-5.08c1.8-1.32,3.44-2.64,4.9-3.92"/><path class="cls-1" d="M492,467.85c11.17-21.72,21.32-45.71,20.69-70.6-.53-20.86-9-44.22-31.4-49.26-10.12-2.28-20.95-1.06-30.71,2.25"/><path class="cls-1" d="M441.54,527.6a126.69,126.69,0,0,0,27.71-25"/><path class="cls-1" d="M371.34,511.11c15.88-2.53,30.88-6.53,45.88-13.53,38.6-22.06,92.07-90.11,62-136-7-10-19-12-29.7-11.07"/><path class="cls-1" d="M360.74,447.88c21.19-6.2,36.87-33.61,48.49-50.76,14.94-22,29-48.67,59-52.17,45.74-5.34,48.06,49.56,48.06,81.2,0,12.65,1.9,55.74-16.23,59-9.68,1.73-7.22-15.66-9.39-22.17-3.94-11.85-11.92-9.28-16.43,1.77-12.53,30.68.43,68.06-5.65,100.06-1.65,8.68-8.46,29.21-21.08,27.71s-6.61-22.91-5.89-30.89c1.11-12.28,4.9-31.73-4.45-42.1-9.93-11-18,2-26,8-14.09,10.73-30.8,7.07-38.8-9.54-8.52-17.66-4.4-39.29-5.35-58.12C366.74,454.24,366.32,449.34,360.74,447.88Z"/><path class="cls-2" d="M196.89,125.3c11.6-8.19,27.7-13.15,40-18.8"/><path class="cls-2" d="M168.68,141.76c-9.07-1.28-29,17.44-35.31,24.3,0,1.12.29,1.78,0,0"/><path class="cls-2" d="M108.34,189.56c-11.44,6-22,24.55-28.22,35.27"/><path class="cls-2" d="M60.53,249.9c-5.94,8.07-17.06,23.83-18,32.92"/><path class="cls-2" d="M437,125.47c11.45,6.44,28.91,14.65,37.62,24.29"/><path class="cls-2" d="M502.82,168.57c10.78,5.65,24.34,21.32,31.34,28.21"/><path class="cls-2" d="M559.24,225c7,12.2,11.91,26,18.81,38.4"/><path class="cls-2" d="M586.8,287.38c1.22,6.5,5,13.63,4.7,19.59"/><path class="cls-2" d="M267.55,95.87c17.39-.13,33.46-1.77,50.55-1.18"/><path class="cls-2" d="M356.89,98.22c8.3,2.81,18.2,2.81,26.78,5,6.41,1.6,17.26,6.29,21.41,6.79"/></svg>