<svg id="Layer_2" data-name="Layer 2" xmlns="http://www.w3.org/2000/svg" viewBox="0 0 612 792"><defs><style>.cls-1,.cls-2{fill:none;stroke:#e2d8e2;stroke-miterlimit:10;stroke-width:12px;}.cls-2{stroke-opacity:0.33;}</style></defs><path class="cls-1" d="M112,585.09c5.44-3.64,26.78-18.84,33.24-47.29C155,495,121.6,463,120,461.52c8.9-.31,25.67,7.94,34.32,2.93,10.75-6.23-.73-29.11,9.29-35.36,5.64-3.53,37,6.4,44.34,8.59,12.74,3.83,25.61,7.53,38.64,7.69-7.6-18.43-26.33-39.18-37.1-56.18-.57,1.51-.37-1.62,0,0-3.07-33.74-29.33-66.4-43-95.93a165.45,165.45,0,0,1-7-15.8q-1.2-3.12-2.3-6.35c-.44-1.3-.81-2.43-1.08-3.31"/><path class="cls-1" d="M231.64,206.17c6.64,6.05,9.41,24.48,17.87,30.73,12.13-8.78,28.33-20.13,41.87-24.71-.8,18.78-3.52,51.91,2.79,69.12,13-10.73,24.14-24.56,36.21-36.47,14.58,2.54,26.21,29.88,40.93,28.12,4.08-12.23,12.44-24.76,18.69-36.23,6.68-12.26,13.61-27.58,22.34-37.17,11.41,8.87,33.26,9.86,41.87,22.91,3.75,5.68,2.34,15,2.68,21.88.48,9.8,2.17,19.07,2.17,29-2.78-.17,3.69-.52,5.1-.77,3.26-.57,6.93-.86,10.18-1.57,6.68-1.47,14.48-4.65,21.44-3.81,2.22,8.65,5.87,17.08,5.72,26.45,7.74-2.41,15.33-6.92,22.49-9.21,2.82,13.43,5.46,27.6,7.29,41.3,12-1.94,24.32-7.86,36.06-12.4,7-2.69,24.65-15.05,30.24-13.2,1.77,9.74,2.91,17.56,3.51,21.95q1.41,10.23,2.4,20.46c1.13,11.61,1.88,23.16,2.27,34.54,1.15,33.08-2.84,77.21-4.29,90-3.39,22.23-7.35,40.41-10.65,53.87a179.31,179.31,0,0,1-10.29,28.56c-5.53,12.13-10.83,20.25-18.95,23.33a13.59,13.59,0,0,1-8,.81c-6.62-1.49-9.62-8.13-10.07-9.16-.68,2.93-10.22,43-24.31,50.37a14.7,14.7,0,0,1-8.95,1.93c-7.21-1-11.28-8.27-12.18-10-11.52,47.08-43.94,70.86-64.46,65.41-18.42-4.88-26.05-33-27.2-37.42-2.57-6.27-5.42-14.8-12.36-8.3-35.91,45.83-34.19-34.29-43.67-55.25-1-2.65-4.56-10.46-8-5.86-6,8,9.69,40.89-10.94,34.39-16.23-5.12-21.59-29.41-25.88-43.3-2.12-6.85-8-27.36-17.15-27.9-30.3,11,39.67,98.43-2.13,97.36-24.73-3.91-54.66-36.75-62.08-59.58-4.81-3.79-3.81,14.39-3.86,16.26-10.65,46.47-66.41-26.77-74.73-45.17"/><path class="cls-1" d="M154.54,267.86c.37,2.13,0,0,.16-.13,1.6.18,11.58.56,16.28.79,7.58.36,10.91,1.31,13.69-5.28,4.77-11.31,3.54-32.89-.19-44.09-1.83-5.48-4.17-12-3.8-17.91,16.84-3,34.33,6.39,51.48,5.26"/><path class="cls-2" d="M21.17,348.33a358.42,358.42,0,0,1,7.25-47"/><path class="cls-2" d="M24.25,430.24A274.22,274.22,0,0,1,19.77,381"/><path class="cls-2" d="M51.18,509.42a281.67,281.67,0,0,1-19.32-48.89"/><path class="cls-2" d="M91.3,568A186,186,0,0,1,67,537"/><path class="cls-1" d="M420.85,659.68c-14.62,4.12-28.62,8.12-43.62,11.12-32,6-61,4-92-2-25-4-48-12-72-21a133.55,133.55,0,0,0-18-7,373.75,373.75,0,0,1-52-28,146.22,146.22,0,0,1-19-16c-6-5-12-8-18.07-12.88"/><path class="cls-1" d="M539.69,579.35q4.14-5.28,8-10.78"/><path class="cls-1" d="M492.07,624.38a69.94,69.94,0,0,0,8.09-5.08c1.81-1.32,3.44-2.64,4.91-3.92"/><path class="cls-1" d="M491.36,444.15c11.17-21.73,21.32-45.71,20.69-70.6-.53-20.86-9-44.22-31.4-49.26-10.13-2.28-21-1.06-30.72,2.25"/><path class="cls-1" d="M440.89,503.9a126.91,126.91,0,0,0,27.71-25"/><path class="cls-1" d="M370.68,487.41c15.89-2.53,30.89-6.53,45.89-13.53,38.6-22.06,92.06-90.11,62-136-7-10-19-12-29.71-11.08"/><path class="cls-1" d="M360.08,424.18c21.2-6.2,36.87-33.61,48.5-50.76,14.94-22,29-48.67,59-52.17,45.74-5.34,48.07,49.56,48.07,81.19,0,12.66,1.89,55.75-16.24,59-9.68,1.73-7.22-15.66-9.38-22.17-3.94-11.85-11.93-9.28-16.44,1.77-12.53,30.68.44,68.06-5.64,100.06-1.65,8.68-8.47,29.21-21.08,27.71s-6.61-22.91-5.89-30.89c1.11-12.28,4.9-31.74-4.45-42.1-9.93-11-18,2-26,8-14.09,10.73-30.79,7.07-38.8-9.54-8.51-17.67-4.39-39.29-5.35-58.12C366.09,430.54,365.66,425.64,360.08,424.18Z"/><path class="cls-2" d="M196.23,101.6c11.61-8.19,27.7-13.15,40-18.8"/><path class="cls-2" d="M168,118.06c-9.06-1.28-29,17.44-35.3,24.3,0,1.12.28,1.77,0,0"/><path class="cls-2" d="M107.68,165.86c-11.43,6-22,24.55-28.21,35.27"/><path class="cls-2" d="M59.88,226.2c-7.67,10.4-24.12,30.45-21.55,44.66"/><path class="cls-2" d="M436.34,101.77c11.44,6.44,28.91,14.64,37.61,24.29"/><path class="cls-2" d="M502.16,144.87c10.79,5.65,24.35,21.32,31.35,28.21"/><path class="cls-2" d="M558.58,201.29c7,12.2,11.91,26,18.81,38.4"/><path class="cls-2" d="M586.15,263.68c1.21,6.5,5,13.63,4.7,19.59"/><path class="cls-2" d="M266.9,72.16C284.28,72,300.35,70.4,317.44,71"/><path class="cls-2" d="M356.23,74.52c8.3,2.81,18.21,2.81,26.78,5,6.41,1.61,17.26,6.3,21.42,6.8"/></svg>