<svg id="Layer_2" data-name="Layer 2" xmlns="http://www.w3.org/2000/svg" viewBox="0 0 612 792"><defs><style>.cls-1,.cls-2{fill:none;stroke:#e2d8e2;stroke-miterlimit:10;stroke-width:12px;}.cls-1{stroke-opacity:0.33;}</style></defs><path class="cls-1" d="M591.83,527.19c-6.73,17.16-9.73,40.16-28,49.16"/><path class="cls-1" d="M605.7,451.32a401.71,401.71,0,0,1-6,43.84"/><path class="cls-1" d="M606.91,365.25q1.4,26.5.66,53.05"/><path class="cls-1" d="M22.77,352.88a358.29,358.29,0,0,1,7.24-47"/><path class="cls-1" d="M21.84,434.78a274.13,274.13,0,0,1-4.48-49.27"/><path class="cls-1" d="M52.77,514a281.35,281.35,0,0,1-19.32-48.89"/><path class="cls-1" d="M107.68,587.76c-8.66-6-13.69-15.25-20.57-22.92C80.39,557.33,74,550.3,68.55,541.51"/><path class="cls-1" d="M172.76,634.24c-15.21-7.81-29.67-17.13-42.42-28.57"/><path class="cls-1" d="M262.28,668.43c-19.76-5.11-38.76-12.13-57.64-19.81"/><path class="cls-2" d="M338.82,606.57c-19.79,15.29-34.26,47-44.41,69.19A293.61,293.61,0,0,0,354,678.35c12.93-.72,20.79-.84,33.33-4.15,17.2-4.54,36.78-10,25-6.44-10,3-4.5-.45,0,0,6.43.64,14.62,4.69,21,7.25,13.09,5.3,27.2-2.35,36.89-10.92,10.6-9.39,18.4-21.63,23.78-34.65a125.75,125.75,0,0,0,5.24-15.59,1.73,1.73,0,0,1,3-.64c4.92,6.26,12.73,8.92,20.15,4.11l.28-.22c12.06-9.76,14.83-33.59,14.83-33.59,5.21-44.87,9.65-65.23,6.9-78.89a1.73,1.73,0,0,0-2.34-1.27c-12.21,4.89-19.9,18.93-33.16,21.34a1.73,1.73,0,0,1-2-1.66,308.58,308.58,0,0,0-3.64-40.5c-2.22-13.36-7.61-35.46-15.94-46.39-3-2.9-7.75-.09-9.83,1.92a1.93,1.93,0,0,0-.28.36c-6.78,11-7.7,22.88-8.59,34.79a.86.86,0,0,0,0,.16c.19,22.95,4.35,45.87,1.56,69.84a.69.69,0,0,0,0,.13c-1.91,11-5.81,21.92-15.67,28l-.21.12c-4,2-8.89,1-9.9-1-7-8.92-3.18-20.91-1.26-30.91l0-.16c.92-9,1.83-18.9.78-27.85l0-.16c-1.05-5.92-4.05-11.81-9-14.78a1.67,1.67,0,0,0-.23-.12c-7.94-3.78-15.77,4.11-20.71,10.11l-.2.21c-7.94,7-18.86,10-28.85,5.13-8-3.93-12.07-12.84-15.13-20.79l-.06-.19a69,69,0,0,1-1.8-7.65,93,93,0,0,1-9.56,2.46c-15.8,5.85-31.69,11.42-47.64,16.83,7.8,14.28,7.07,20.83,4.66,24.15-3,4.12-15.69,12.94-15.82,13.64-.09.51-.15,1-.15,1s0,.08,0,.12a76.34,76.34,0,0,1,4.08,8.75c4.39,10.48,6.34,21.81,10.71,32.31,2.42,5.82,5.58,11.56,10.12,16,3.7,3.62,9.77,7.91,15.26,6.5s5.22-8.06,4.83-12.64c-.56-6.52-3.28-14.57-1-21,2.42-6.85,7-.14,8.49,3.31,3,6.76,4.49,14,5.78,21.19,2.41,13.65,3.58,29.12,10.65,41.34,3,5.12,7.61,8.34,13.58,6.18,5.23-1.9,8.42-6.22,12-10.18,2.86-3.19,7-7.08,10.77-2.82,4.36,4.94,5.27,12.86,7.67,18.82,2.18,5.41,9.3,17.62,13.07,22.44"/><path class="cls-2" d="M493.66,628.92a68.6,68.6,0,0,0,8.09-5.08c1.81-1.31,3.44-2.64,4.91-3.92"/><path class="cls-2" d="M442.48,508.44a126.69,126.69,0,0,0,27.71-25"/><path class="cls-2" d="M372.28,492c15.88-2.53,30.88-6.53,45.88-13.53,21-12,46.4-37.62,60.36-65.87"/><path class="cls-1" d="M197.82,106.15c11.61-8.2,27.71-13.16,40-18.81"/><path class="cls-1" d="M169.61,122.6c-9.06-1.28-29,17.44-35.3,24.3,0,1.12.29,1.78,0,0"/><path class="cls-1" d="M109.27,170.4c-11.43,6-22,24.56-28.21,35.27"/><path class="cls-1" d="M61.47,230.74c-7.67,10.4-24.11,30.45-21.55,44.66"/><path class="cls-1" d="M437.93,106.31c11.44,6.45,28.91,14.65,37.62,24.29"/><path class="cls-1" d="M503.76,149.41c10.78,5.65,24.34,21.33,31.34,28.21"/><path class="cls-1" d="M560.18,205.83c7,12.2,11.91,26,18.81,38.4"/><path class="cls-1" d="M592.44,287.82c.32-6-3.48-13.1-4.7-19.6,4.7,21.25,13.16,42,16.1,63.46"/><path class="cls-1" d="M268.49,76.71c17.39-.13,33.46-1.77,50.55-1.18"/><path class="cls-1" d="M357.83,79.06c8.29,2.81,18.2,2.81,26.78,5,6.4,1.6,17.25,6.3,21.41,6.79"/><path class="cls-1" d="M477.48,419.53c5.73,3.3,10.58,16.66,14.11,21.16,7.07,9,5.27,21.24,10.58,31.74"/></svg>