<svg id="Layer_2" data-name="Layer 2" xmlns="http://www.w3.org/2000/svg" viewBox="0 0 612 792"><defs><style>.cls-1,.cls-2{fill:none;stroke:#e2d8e2;stroke-miterlimit:10;stroke-width:12px;}.cls-2{stroke-opacity:0.33;}</style></defs><path class="cls-1" d="M496.36,571.26c-7.89-4.83-26.21-1-37.74-.12-9.36,6.74-19.44,12.31-30.71,15.19a84.08,84.08,0,0,1-9.44,29.88A61.2,61.2,0,0,1,406,632.27c3.23,4.93,4.2,11.76,6.33,17.05,4.09,10.14,10.37,21.38,21,25.69,13.09,5.3,27.2-2.35,36.89-10.92,10.6-9.39,18.4-21.63,23.78-34.65a125.75,125.75,0,0,0,5.24-15.59C502,603.61,507,577.79,496.36,571.26Z"/><path class="cls-2" d="M591.83,527.19c-6.73,17.16-9.73,40.16-28,49.16"/><path class="cls-2" d="M605.7,451.32a401.71,401.71,0,0,1-6,43.84"/><path class="cls-2" d="M606.91,365.25q1.4,26.5.66,53.05"/><path class="cls-2" d="M22.77,352.88a358.29,358.29,0,0,1,7.24-47"/><path class="cls-2" d="M21.84,434.78a274.13,274.13,0,0,1-4.48-49.27"/><path class="cls-2" d="M52.77,514a281.35,281.35,0,0,1-19.32-48.89"/><path class="cls-2" d="M107.68,587.76c-8.66-6-13.69-15.25-20.57-22.92C80.39,557.33,74,550.3,68.55,541.51"/><path class="cls-2" d="M172.76,634.24c-15.21-7.81-29.67-17.13-42.42-28.57"/><path class="cls-2" d="M262.28,668.43c-19.76-5.11-38.76-12.13-57.64-19.81"/><path class="cls-2" d="M354,678.35a291.16,291.16,0,0,1-59.36-3"/><path class="cls-2" d="M197.82,106.15c11.61-8.2,27.71-13.16,40-18.81"/><path class="cls-2" d="M169.61,122.6c-9.06-1.28-29,17.44-35.3,24.3,0,1.12.29,1.78,0,0"/><path class="cls-2" d="M109.27,170.4c-11.43,6-22,24.56-28.21,35.27"/><path class="cls-2" d="M61.47,230.74c-7.67,10.4-24.11,30.45-21.55,44.66"/><path class="cls-2" d="M437.93,106.31c11.44,6.45,28.91,14.65,37.62,24.29"/><path class="cls-2" d="M503.76,149.41c10.78,5.65,24.34,21.33,31.34,28.21"/><path class="cls-2" d="M560.18,205.83c7,12.2,11.91,26,18.81,38.4"/><path class="cls-2" d="M592.44,287.82c.32-6-3.48-13.1-4.7-19.6,4.7,21.25,13.16,42,16.1,63.46"/><path class="cls-2" d="M268.49,76.71c17.39-.13,33.46-1.77,50.55-1.18"/><path class="cls-2" d="M357.83,79.06c8.29,2.81,18.2,2.81,26.78,5,6.4,1.6,17.25,6.3,21.41,6.79"/><path class="cls-2" d="M523.94,623c5.78-7.9,14.15-13.62,20-21.16"/><path class="cls-2" d="M381.93,678.27h8.23"/></svg>