<svg xmlns="http://www.w3.org/2000/svg" viewBox="0 0 1122.53 185.62"><defs><style>.cls-1{fill:#e2d8e1;}.cls-2{fill:#fff;}</style></defs><g id="Layer_2" data-name="Layer 2"><g id="Layer_1-2" data-name="Layer 1"><path d="M1122,42.14a130,130,0,0,1,.44,15c-.19,5.3-2,10.27-4.13,15.1-.86,1.93-1.22,4.08-2.15,6-2.26,4.57-4.23,9.4-7.2,13.46-3.48,4.76-7.78,9-12,13.15a58.12,58.12,0,0,1-14.54,10.26c-4.22,2.2-8.09,5.13-12.43,7-3.84,1.69-8.08,2.5-12.18,3.57s-8.14,2-12.22,2.92c-2.87.64-5.74,1.3-8.65,1.7-4.76.66-9.55,1.06-14.31,1.71a2.63,2.63,0,0,0-1.71,1.49c-1.85,5.19-3.58,10.42-5.36,15.64-1.56,4.56-3.07,9.15-4.7,13.68q-1.21,3.33-2.45,6.65a11.75,11.75,0,0,1-3,1.7c-3.31,1.24-7.11,1.55-10.6,1.93l-2.7.28c-4.39.33-8.76.81-13.14,1.07-3.82.23-7.65.14-11.46.34-2.93.15-5.84.58-8.77.77-.82,0-2.34-.2-2.39-.49a8.61,8.61,0,0,1,.18-3.85c.71-2.16,2-4.14,2.63-6.31,2-6.7,3.76-13.45,5.62-20.18.89-3.19,1.75-6.38,2.67-9.56.76-2.66,1.63-5.29,2.39-8,1.46-5.18,3-10.35,4.28-15.58s2.2-10.68,3.38-16c.32-1.48,1.11-2.85,1.46-4.33.73-3,1.3-6.11,2-9.16.91-4.2,1.87-8.4,2.79-12.6a6,6,0,0,0,.26-2c-.47-3.36,1.39-6.21,2-9.32.56-2.79,1.5-5.5,2.29-8.24,1.51-5.25,3.07-10.48,4.52-15.74.44-1.6.53-3.3.91-4.93.74-3.22,1.57-6.43,2.36-9.65.16-.65.27-1.31.44-2,.4-1.46.83-2.91,1.21-4.37a18.82,18.82,0,0,0,.64-2.94c.48-5.3,3.87-8.1,9.18-8.13,2.74,0,5.45-1.08,8.21-1.34,4.93-.46,9.88-.93,14.82-.95,7.78,0,15.55.27,23.32.59,2.38.1,4.72.87,7.1,1.17,5.44.7,10.91,1.13,16.32,2a102.82,102.82,0,0,1,13.22,3,59.81,59.81,0,0,1,12,4.73,31.34,31.34,0,0,1,11.39,10.36c1.1,1.72,2.55,3.22,3.63,4.95a20,20,0,0,1,2.65,5.31A56.8,56.8,0,0,1,1122,42.14Zm-5.61,18.55a44.91,44.91,0,0,0,.56-15.55,37.59,37.59,0,0,1-.67-4.91,20.28,20.28,0,0,0-2.7-9.75,32.92,32.92,0,0,0-5.78-7.06,48.92,48.92,0,0,0-8.06-7c-5.08-3.25-11.11-4.21-16.81-5.92a32.12,32.12,0,0,0-5.19-1.39c-5.75-.72-11.51-1.3-17.26-1.87-3.5-.35-7-.61-10.51-.89-3-.24-6-.43-9-.7-11.92-1-23.57,1.17-35.24,3a2.86,2.86,0,0,0-2.74,2.68,56.67,56.67,0,0,1-1.41,6.83c-.52,1.92-1.48,3.73-1.91,5.67-1.12,5.05-2.05,10.13-3.06,15.21a11.43,11.43,0,0,1-.39,1.35c-.92,2.82-1.94,5.62-2.74,8.48s-1.33,5.84-2.07,8.74-2,5.44-2.25,8.23c-.81,9.1-3.73,17.73-5.58,26.59q-1.71,8.22-3.38,16.44c-.06.26-.08.53-.15.79-1.5,5.35-3.07,10.69-4.51,16.06-1.26,4.74-2.27,9.55-3.59,14.28-1.51,5.37-3.25,10.68-4.85,16-.61,2-1.13,4.11-1.67,6.17-.65,2.48-1.28,5-2,7.66a11.42,11.42,0,0,0,1.22,0c7.46-1.28,15.08.13,22.58-1.46,3.8-.81,7.88-.29,11.83-.45,2.08-.08,4.28-.22,5.24-2.49.81-1.89,1.3-3.91,2-5.86,1.28-3.71,2.62-7.4,3.87-11.12,1.4-4.17,2.68-8.37,4.11-12.53,1.1-3.19,2.22-6.39,3.58-9.48.59-1.33,2-1.77,3.58-1.46a27.64,27.64,0,0,0,5.64.65c1.9,0,3.78-.76,5.68-.8a49.57,49.57,0,0,0,11.47-1.44c5.86-1.51,11.92-2.25,17.79-3.74a50.59,50.59,0,0,0,10-3.93,114.79,114.79,0,0,0,10.09-5.93,61,61,0,0,0,7.89-5.59c3.7-3.26,7.1-6.86,10.63-10.31a33.42,33.42,0,0,0,7.13-10c2.28-5,4.1-10.23,6.48-15.18C1115.53,66.13,1115.82,63.42,1116.41,60.69Z"/><path class="cls-1" d="M1117,45.14a44.91,44.91,0,0,1-.56,15.55c-.59,2.73-.88,5.44-2.15,8.06-2.38,5-4.2,10.17-6.48,15.18a33.42,33.42,0,0,1-7.13,10c-3.53,3.45-6.93,7-10.63,10.31a61,61,0,0,1-7.89,5.59,114.79,114.79,0,0,1-10.09,5.93,50.59,50.59,0,0,1-10,3.93c-5.87,1.49-11.93,2.23-17.79,3.74a49.57,49.57,0,0,1-11.47,1.44c-1.9,0-3.78.76-5.68.8a27.64,27.64,0,0,1-5.64-.65c-1.59-.31-3,.13-3.58,1.46-1.36,3.09-2.48,6.29-3.58,9.48-1.43,4.16-2.71,8.36-4.11,12.53-1.25,3.72-2.59,7.41-3.87,11.12-.67,1.95-1.16,4-2,5.86-1,2.27-3.16,2.41-5.24,2.49-4,.16-8-.36-11.83.45-7.5,1.59-15.12.18-22.58,1.46a11.42,11.42,0,0,1-1.22,0c.69-2.69,1.32-5.18,2-7.66.54-2.06,1.06-4.13,1.67-6.17,1.6-5.35,3.34-10.66,4.85-16,1.32-4.73,2.33-9.54,3.59-14.28,1.44-5.37,3-10.71,4.51-16.06.07-.26.09-.53.15-.79q1.68-8.22,3.38-16.44c1.85-8.86,4.77-17.49,5.58-26.59.25-2.79,1.54-5.47,2.25-8.23s1.27-5.85,2.07-8.74,1.82-5.66,2.74-8.48a11.43,11.43,0,0,0,.39-1.35c1-5.08,1.94-10.16,3.06-15.21.43-1.94,1.39-3.75,1.91-5.67a56.67,56.67,0,0,0,1.41-6.83,2.86,2.86,0,0,1,2.74-2.68c11.67-1.86,23.32-4.08,35.24-3,3,.27,6,.46,9,.7,3.5.28,7,.54,10.51.89,5.75.57,11.51,1.15,17.26,1.87a32.12,32.12,0,0,1,5.19,1.39c5.7,1.71,11.73,2.67,16.81,5.92a48.92,48.92,0,0,1,8.06,7.05,32.92,32.92,0,0,1,5.78,7.06,20.28,20.28,0,0,1,2.7,9.75A37.59,37.59,0,0,0,1117,45.14Zm-53,23.74a9.82,9.82,0,0,0,.39-5.24,47.68,47.68,0,0,0-3.38-8,15,15,0,0,0-7.2-6.95c-3.81-1.84-8-1.85-12.18-1.8s-4.13.33-5.36,4.2c0,.12-.12.24-.16.36-1.3,3.7-2.62,7.39-3.88,11.09-1.33,3.91-2.61,7.83-3.9,11.75-.6,1.83-1.12,3.69-1.74,5.52q-1.1,3.18-2.21,6.34c-.08.27-.15.54-.22.81-.15.59-.3,1.19-.43,1.78l-.15.73.2.07c0,.54-.12,1.08-.11,1.61a3.54,3.54,0,0,0,4,3.25c4.73-.21,9-1.63,13.4-3.36a55.46,55.46,0,0,0,12.73-7.58A28.77,28.77,0,0,0,1064,68.88Z"/><path d="M1064.35,63.64a9.82,9.82,0,0,1-.39,5.24,28.77,28.77,0,0,1-10.24,14.63A55.46,55.46,0,0,1,1041,91.09c-4.4,1.73-8.67,3.15-13.4,3.36a3.54,3.54,0,0,1-4-3.25c0-.53.07-1.07.11-1.61l-.2-.07.15-.73c.13-.59.28-1.19.43-1.78.07-.27.14-.54.22-.81q1.11-3.17,2.21-6.34c.62-1.83,1.14-3.69,1.74-5.52,1.29-3.92,2.57-7.84,3.9-11.75,1.26-3.7,2.58-7.39,3.88-11.09,0-.12.12-.24.16-.36,1.23-3.87,1.36-4.15,5.36-4.2s8.37,0,12.18,1.8a15,15,0,0,1,7.2,6.95A47.68,47.68,0,0,1,1064.35,63.64Zm-4.87,3c-.09-.7-.14-1-.18-1.37-.43-3.35-2.35-6-4.35-8.52a10.83,10.83,0,0,0-4.25-3.37A30.14,30.14,0,0,0,1044,52.2c-2.53-.36-3.16.33-3.79,2.9a70.18,70.18,0,0,1-2.41,7.4c-1.28,3.5-2.79,6.91-4,10.44-1.58,4.71-2.91,9.52-4.42,14.26-.45,1.4-.15,2.06,1.31,1.6a109.83,109.83,0,0,0,11-3.77c2.37-1,4.36-2.91,6.58-4.33a23.45,23.45,0,0,0,9.85-11.54A21.08,21.08,0,0,1,1059.48,66.65Z"/><path d="M945.49,156.62c.09,5.75,0,11.51,0,17.27a2,2,0,0,1-2.18,2.26c-3.38.12-6.77.22-10.15.43-6.14.38-12.43.13-18.36,1.47-6.14,1.39-12.22,1-18.32,1.26a9.49,9.49,0,0,1-3.23-.57c-1.38-.9-2.67-2-2.91-3.71-.31-2.24.63-4.57,1.24-6.69,1.69-5.86,4.63-11.42,5.48-17.5a2.44,2.44,0,0,0,0-.66c.47-1.33.94-2.67,1.32-4,.64-2.23,1-4.53,1.61-7.33-3.74.23-7.06.42-10.38.65-3.79.26-7.57.62-11.36.84-5,.28-10,.43-15,.72a2.28,2.28,0,0,0-1.49,1c-.66,1.06-1.12,2.25-1.69,3.37-1.34,2.63-2.74,5.24-4.05,7.89-.92,1.88-1.44,4-2.64,5.7-3.15,4.32-4.36,9.49-6.65,14.19-.54,1.11-.83,2.36-1.44,3.42a2.18,2.18,0,0,1-1.61.75c-5.76.14-11.53.31-17.29.29-5.42,0-10.83-.28-16.24-.35-1.94,0-3.88.25-5.82.31a5,5,0,0,1-1.38-.14,11.85,11.85,0,0,1-1.29-1.17,6.09,6.09,0,0,1-1.9-4.92,27.72,27.72,0,0,1,.78-4.41c.71-1.44,1.44-2.87,2.13-4.32,1.31-2.76,2.54-5.57,3.89-8.32,1.8-3.68,3.77-7.29,5.52-11,1.54-3.29,2.85-6.7,4.32-10,1.13-2.55,2.37-5.06,3.53-7.6,2-4.4,4.07-8.8,6-13.22q3.81-8.56,7.54-17.17c1.24-2.88,2.27-5.85,3.59-8.69,1.9-4.08,4-8.08,6-12.14.78-1.61,1.4-3.31,2.13-5,3.08-7,6.21-13.95,9.23-21,.83-1.93,1.23-4,2-6,1.27-3.14,2.76-6.19,4-9.33,1.49-3.77,2.63-7.68,4.31-11.35,1.52-3.33,2.71-6.78,5.6-9.51C873,9.93,875.63,9.49,879,9.48c5.07,0,10.28,0,15.18-1.08,6.51-1.49,13.09-1.25,19.61-2,6.71-.78,13.47-1,20.21-1.52,2.5-.18,3.06.45,3.12,2.94.1,4.14.2,8.29.52,12.42.41,5.25.92,10.5,1.63,15.73.51,3.81,1.49,7.57,2.09,11.38a68.61,68.61,0,0,1,.7,7.59c.16,3.88,0,7.78.28,11.65.32,5.33.9,10.64,1.31,16,.2,2.53.21,5.08.39,7.62.28,3.73.87,7.45.93,11.18.12,8.64-.1,17.28,0,25.92C945,137.06,945.33,146.84,945.49,156.62Zm-8.28,14.63c2.7-.24,3-.5,3-3.16,0-13.07-.16-26.14-.18-39.21,0-8,.26-15.93.14-23.89-.08-5.26-.68-10.51-1-15.77-.34-6.28-.57-12.58-.88-18.86-.14-2.77-.38-5.6-.43-8.28-.06-3.18-.68-6.3-.6-9.47a13.06,13.06,0,0,0-.39-2.36c-1-5.69-2.09-11.36-2.9-17.08-.7-4.88-1.06-9.82-1.57-14.73a31.53,31.53,0,0,0-.64-5.37,4.06,4.06,0,0,0-2.24-2.52,15.26,15.26,0,0,0-5.19-.19c-1.84.15-3.65.7-5.49.93-5.16.63-10.32,1.21-15.48,1.77-4.46.49-8.9,1-13.37,1.33-4.28.28-8.57.3-12.86.34a4.33,4.33,0,0,0-4,2.14c-1.34,2.29-2.67,4.61-3.81,7-1.35,2.88-2.55,5.84-3.73,8.79-1.57,3.94-3.06,7.91-4.59,11.86-.56,1.43-1.11,2.86-1.75,4.25-.82,1.81-1.81,3.55-2.58,5.38C854.77,58.75,853,63.42,851,68c-2.37,5.41-5,10.7-7.38,16.1-1.87,4.24-3.54,8.57-5.35,12.84q-3.7,8.79-7.5,17.55-2.52,5.85-5.17,11.64c-2,4.29-3.94,8.55-5.94,12.82-2.53,5.38-5.11,10.73-7.62,16.12-1.34,2.89-2.54,5.84-3.84,8.74-.86,1.93-1.84,3.81-2.69,5.74a18.38,18.38,0,0,0-.69,2.23c2.34.2,4.36.51,6.38.53,7,.05,14,.76,21,0a37,37,0,0,0,6.72-.38l0,0c1.64.67,2.51,0,3-1.38,2.06-6.47,6.29-11.87,8.66-18.23,1.4-3.79,4-7.13,6.11-10.67a20.76,20.76,0,0,1,2.1-3.3c1-1.08,2.18-2.64,3.38-2.73,5.08-.38,10.2-.23,15.29-.4,3.27-.11,6.52-.45,9.78-.67,1.8-.12,3.61-.27,5.41-.29,3.54,0,7.1-.13,10.62.1,2.08.14,3.26,2.73,2.5,4.58a32.32,32.32,0,0,0-1.18,3.77c-.68,2.5-1.18,5.06-2,7.5-1.28,3.77-2.82,7.44-4.16,11.19-1.07,3-2,6-3,9a31.35,31.35,0,0,0-.68,3.19c2.61.14,4.81.44,7,.35,3-.12,6.07-.57,9.1-.8q11.46-.87,22.93-1.69C934.93,171.37,936.07,171.35,937.21,171.25Z"/><path class="cls-1" d="M940.18,168.09c0,2.66-.27,2.92-3,3.16-1.14.1-2.28.12-3.41.2q-11.46.84-22.93,1.69c-3,.23-6.06.68-9.1.8-2.19.09-4.39-.21-7-.35a31.35,31.35,0,0,1,.68-3.19c.95-3,1.92-6,3-9,1.34-3.75,2.88-7.42,4.16-11.19.83-2.44,1.33-5,2-7.5a32.32,32.32,0,0,1,1.18-3.77c.76-1.85-.42-4.44-2.5-4.58-3.52-.23-7.08-.13-10.62-.1-1.8,0-3.61.17-5.41.29-3.26.22-6.51.56-9.78.67-5.09.17-10.21,0-15.29.4-1.2.09-2.4,1.65-3.38,2.73a20.76,20.76,0,0,0-2.1,3.3c-2.09,3.54-4.71,6.88-6.11,10.67-2.37,6.36-6.6,11.76-8.66,18.23-.44,1.38-1.31,2.05-3,1.38l0,0a37,37,0,0,1-6.72.38c-7,.78-14,.07-21,0-2,0-4-.33-6.38-.53a18.38,18.38,0,0,1,.69-2.23c.85-1.93,1.83-3.81,2.69-5.74,1.3-2.9,2.5-5.85,3.84-8.74,2.51-5.39,5.09-10.74,7.62-16.12,2-4.27,4-8.53,5.94-12.82q2.64-5.79,5.17-11.64,3.8-8.76,7.5-17.55c1.81-4.27,3.48-8.6,5.35-12.84,2.39-5.4,5-10.69,7.38-16.1,2-4.56,3.75-9.23,5.68-13.82.77-1.83,1.76-3.57,2.58-5.38.64-1.39,1.19-2.82,1.75-4.25,1.53-4,3-7.92,4.59-11.86,1.18-3,2.38-5.91,3.73-8.79,1.14-2.4,2.47-4.72,3.81-7a4.33,4.33,0,0,1,4-2.14c4.29,0,8.58-.06,12.86-.34,4.47-.29,8.91-.84,13.37-1.33,5.16-.56,10.32-1.14,15.48-1.77,1.84-.23,3.65-.78,5.49-.93a15.26,15.26,0,0,1,5.19.19,4.06,4.06,0,0,1,2.24,2.52,31.53,31.53,0,0,1,.64,5.37c.51,4.91.87,9.85,1.57,14.73.81,5.72,1.92,11.39,2.9,17.08a13.06,13.06,0,0,1,.39,2.36c-.08,3.17.54,6.29.6,9.47,0,2.68.29,5.51.43,8.28.31,6.28.54,12.58.88,18.86.28,5.26.88,10.51,1,15.77.12,8-.15,15.93-.14,23.89C940,142,940.13,155,940.18,168.09Zm-35.8-64.64c.57-2.52-.31-5.09,0-7.63-.19-1.53-.29-3.07-.51-4.58-.73-5-2.31-10-2.36-15.11a146.87,146.87,0,0,1-3.41-21.65,3.08,3.08,0,0,0,.19-.94,1.36,1.36,0,0,0-.2-.73,1.15,1.15,0,0,0-1.16-.55c-.54.11-.85.69-1.13,1.12a12.47,12.47,0,0,0-.9,1.59c-.21.42-.38.86-.55,1.29s-.45.67-.65,1a30.77,30.77,0,0,0-2,4.09c-.32.8-.63,1.61-.93,2.4A69.11,69.11,0,0,1,887,72.5c-.07.22-.13.44-.2.65-.51,1.51-.81,3.25-1.79,4.39a33.28,33.28,0,0,0-4.73,8c-2.73,5.92-5.84,11.65-8.66,17.51-.48,1-1,2.61,0,3.35.84-.08,1.71-.07,2.52-.13a94.51,94.51,0,0,1,12-.48c3.81.22,7.61.68,11.42.84a10.7,10.7,0,0,0,4.6-.59q1.05-.95,2-2A3.29,3.29,0,0,0,904.38,103.45Z"/><path d="M904.42,95.82c-.35,2.54.53,5.11,0,7.63a3.29,3.29,0,0,1-.19.58q-1,1-2,2a10.7,10.7,0,0,1-4.6.59c-3.81-.16-7.61-.62-11.42-.84a94.51,94.51,0,0,0-12,.48c-.81.06-1.68.05-2.52.13-1-.74-.44-2.35,0-3.35,2.82-5.86,5.93-11.59,8.66-17.51a33.28,33.28,0,0,1,4.73-8c1-1.14,1.28-2.88,1.79-4.39.07-.21.13-.43.2-.65a69.11,69.11,0,0,0,3.8-8.74c.3-.79.61-1.6.93-2.4.16-.3.34-.6.49-.91a25.45,25.45,0,0,0,1.48-3.18c.2-.34.42-.68.65-1s.34-.87.55-1.29a12.47,12.47,0,0,1,.9-1.59c.28-.43.59-1,1.13-1.12a1.15,1.15,0,0,1,1.16.55,1.36,1.36,0,0,1,.2.73,3.08,3.08,0,0,1-.19.94,146.87,146.87,0,0,0,3.41,21.65c.05,5.15,1.63,10.06,2.36,15.11C904.13,92.75,904.23,94.29,904.42,95.82Zm-8.51,7.73c3.62.61,4.17.09,3.63-3.62-.78-5.27-1.74-10.52-2.49-15.8-.6-4.3-1-8.62-1.5-12.93-.15-1.28-.38-2.55-.57-3.82l-.63-.09c-.7,1.74-1.36,3.48-2.09,5.2-1,2.31-1.91,4.63-3,6.87-1,2.07-2.35,4-3.42,6-1.54,2.93-3,5.89-4.46,8.87-1.23,2.54-2.38,5.11-3.85,8.26,2.21-.17,3.79-.33,5.37-.4a29.58,29.58,0,0,1,5,0C890.55,102.46,893.22,103.1,895.91,103.55Z"/><path class="cls-2" d="M893.74,57.27a25.45,25.45,0,0,1-1.48,3.18c-.15.31-.33.61-.49.91A30.77,30.77,0,0,1,893.74,57.27Z"/><path d="M823.43,9.67c2.06,1.38,2.39,2.43,1.58,4.78-1.42,4.14-2.54,8.37-3.75,12.57-.93,3.22-1.82,6.46-2.72,9.69-.09.32-.14.65-.2,1-.67,3.47-1.21,7-2,10.38-.65,2.71-1.65,5.32-2.5,8-.08.25-.19.5-.25.76-1.25,5.65-2.26,11.38-3.8,17C808.1,79.71,805.9,85.5,804,91.38c-.69,2.15-1.2,4.35-1.72,6.55-.84,3.5-1.58,7-2.44,10.51-.56,2.26-1.28,4.47-1.88,6.72-.37,1.4-.6,2.84-1,4.25-1,3.64-2,7.27-3,10.92-.62,2.39-1.09,4.81-1.66,7.21-.8,3.31-1.56,6.62-2.47,9.9-1.19,4.3-2.67,8.53-3.71,12.87-.81,3.35-1.12,6.82-1.65,10.23-.26,1.65-.37,3.34-.78,5a4,4,0,0,1-4,3.25c-2.21.06-4.43.12-6.63.35-4.7.48-9.38,1.14-14.08,1.6a142.41,142.41,0,0,1-25.29-.07c-2.31-.18-3.25-1.25-3.18-3.5.19-6.1.31-12.2.72-18.28.19-2.84,1.07-5.63,1.5-8.46.59-3.87,1-7.77,1.55-11.66l-.66-.32c-.79,1.13-1.6,2.25-2.37,3.39-2.66,3.91-5.28,7.86-8,11.74-2.86,4.1-5.73,8.19-8.72,12.19-2.7,3.63-5.5,7.18-8.36,10.68-3.06,3.74-7.44,4.37-11.85,4.47-6,.14-12.06,0-18.08,0-3.11,0-3.71-.87-3.55-3.93a10.7,10.7,0,0,0-.7-3.43c-.65-2.22-1.44-4.41-2.08-6.64s-1.16-4.77-1.92-7.1c-1.19-3.65-2.53-7.25-3.8-10.88-.83-2.35-1.63-4.73-2.5-7.07-1.69-4.55-3.43-9.08-5.16-13.61a6.42,6.42,0,0,0-.83-1.08c-.5,1.65-.92,2.82-1.21,4-1.52,6.2-3,12.41-4.5,18.61-.45,1.8-1,3.57-1.51,5.38-.62,2.43-1.18,4.87-1.77,7.31-1,4-1.95,8-2.91,12.06a33.57,33.57,0,0,1-1.14,4.75,2.82,2.82,0,0,1-2.17,1.21q-12.57.06-25.14-.1c-1.73,0-3.46-.53-5.18-.5-3.61,0-7.22.34-10.83.45-2.83.09-4-1.18-3.51-4s1.39-5.69,2.1-8.53c.24-1,.51-1.92.69-2.89.73-3.8,1.3-7.63,2.2-11.39.75-3.15,2-6.18,2.79-9.33.86-3.42,1.34-6.93,2.15-10.37.64-2.7,1.55-5.34,2.29-8a8.39,8.39,0,0,0,.52-2.93c-.39-3.32,1.5-6,2.34-9,1-3.5,2-7,2.83-10.54,1.23-5.05,2.34-10.14,3.51-15.21a3,3,0,0,0,.2-.57c.36-5.31,2.08-10.31,3.68-15.33.94-3,1.95-5.92,2.91-8.88a16.49,16.49,0,0,0,.79-2.69c.84-6.19,3.74-11.72,5.56-17.59,2.23-7.17,6.36-13.65,7.56-21.2.36-2.26,1.46-4.4,2.13-6.62.14-.48-.16-1.07-.22-1.62-.11-1.07-.54-2.27-.22-3.19.45-1.28,1.64-1.74,3.18-1.75,5.06,0,10.11-.32,15.18-.44,1.87,0,3.74.06,5.62.12,5.63.17,11.25.34,16.88.55,3.65.13,4.36,1.39,5.29,6.21.4,2.09.49,4.27,1.09,6.29,1.51,5.1,3.25,10.12,4.86,15.18.24.76.16,1.62.39,2.38,1.11,3.76,2.13,7.56,3.46,11.24,1.82,5,4,10,5.81,15,1,2.68,1.51,5.53,2.32,8.28,1.31,4.45,2.68,8.88,4,13.31a55.4,55.4,0,0,1,1.79,5.94c.59,3.19,2.62,6,2.13,9.47,0,.25.25.55.67,1.36,1.44-1.95,2.78-3.53,3.86-5.26,3.38-5.46,6.53-11.06,10-16.43,2.74-4.2,5.93-8.11,8.81-12.21,1.94-2.76,3.53-5.77,5.57-8.45,5-6.61,9-13.86,13.08-21,2.38-4.17,5-8.23,7.4-12.37,2.29-3.89,4.49-7.82,6.74-11.73a5.82,5.82,0,0,1,5.88-3.27,85.39,85.39,0,0,0,9.05.08c1.71-.07,3.38-.69,5.09-.79,6-.33,12.05-.44,18.05-.86,4.26-.3,8.5-.89,12.74-1.48C820.29,9.57,821.67,8.49,823.43,9.67Zm-4.69,7.74c.22-.71.32-1.45.59-2.64-3.57.52-6.64,1.12-9.74,1.39Q799.3,17,789,17.62c-4.88.28-9.78.34-14.66.53-.56,0-1.35.1-1.64.46A75.32,75.32,0,0,0,768,25.16c-2.12,3.49-4,7.13-6,10.69-1.79,3.16-3.61,6.3-5.43,9.45-1.95,3.37-3.83,6.79-5.88,10.1-1.69,2.75-3.56,5.38-5.38,8.05-2.5,3.65-5,7.31-7.54,10.92-2.66,3.77-5.55,7.38-8.06,11.24-2.89,4.43-5.45,9.07-8.19,13.59q-3.19,5.24-6.5,10.41a5,5,0,0,1-5.09,2.38c-2.37-.58-2.41-2.47-2.66-4.37a88.46,88.46,0,0,0-1.64-10c-.88-3.47-2.34-6.79-3.38-10.23-1.37-4.51-2.46-9.11-3.89-13.6-1.36-4.28-3-8.47-4.5-12.71-.81-2.31-1.5-4.66-2.25-7-1.46-4.48-2.94-8.94-4.38-13.42-.62-2-1.12-4-1.74-5.93-.93-3-2.15-5.87-2.81-8.89-.75-3.44-1.06-7-1.47-10.47-.13-1.06-.47-1.55-1.59-1.58-3.55-.08-7.09-.32-10.64-.32q-7.81,0-15.64.32a77.77,77.77,0,0,0-7.9.83c-.39.06-.8.89-.95,1.44-1,3.57-1.9,7.16-2.85,10.74A35.93,35.93,0,0,1,640.37,31c-1.49,3.82-3.14,7.59-4.62,11.42-.79,2-1.35,4.16-2,6.24-.87,2.62-1.88,5.21-2.62,7.87-.85,3.09-1.31,6.3-2.25,9.35-1,3.41-2.66,6.64-3.6,10.06-1.07,3.83-1.66,7.79-2.47,11.7-.08.39-.2.77-.3,1.16-.84,3.14-1.78,6.26-2.49,9.43-.76,3.44-1.15,7-2,10.37-.65,2.65-1.85,5.15-2.56,7.79-1.24,4.62-2.33,9.29-3.41,13.95-1.18,5-2.18,10.13-3.43,15.15-1.36,5.48-3.3,10.83-3.78,16.52a7.5,7.5,0,0,1-.31.95c-.92,3.67-1.82,7.34-2.87,11.58,9.36-.88,18,1.42,26.78.39.52-.06,1.06.11,1.59.1a61.62,61.62,0,0,0,7.08-.3c.68-.1,1.47-1.3,1.71-2.14.48-1.73.48-3.59.94-5.33,1.27-4.91,2.73-9.76,4-14.66s2.25-9.56,3.49-14.32c1.1-4.25,2.31-8.48,3.57-12.69.76-2.54,1.74-5,2.57-7.54.45-1.37,1.25-2.24,2.75-2.13s2.16,1.11,2.56,2.44c.77,2.56,1.5,5.13,2.42,7.64,1.89,5.11,3.92,10.17,5.84,15.28.76,2,1.26,4.18,2.12,6.18,1.8,4.21,4.09,8.25,4.29,13a2.37,2.37,0,0,0,.37,1.12c2.33,3.61,2.73,7.89,4,11.86.62,1.93,1.47,2.69,3.32,2.63,6.23-.19,12.47-.36,18.69-.6a2.82,2.82,0,0,0,2-.79c1.44-1.85,2.66-3.87,4-5.77q4.54-6.24,9.16-12.44c2.08-2.8,4.35-5.46,6.29-8.34,2.55-3.78,4.68-7.84,7.32-11.56s5.76-7.08,8.45-10.76c1-1.37,2.07-1.84,3.34-1.19s1.84,2,1.33,3.74a97.31,97.31,0,0,0-2.44,10.08c-1.12,6.27-2.25,12.56-2.94,18.9-.58,5.31-.55,10.68-.73,16,0,1.11.28,2.14,1.75,2.22,3.28.18,6.55.56,9.82.59,9.33.1,18.55-1.09,27.75-2.42,1.11-.16,2.79-.87,3-1.68,1.62-5.25,2.93-10.6,4.32-15.92,1.09-4.19,2.15-8.39,3.25-12.58.59-2.25,1.29-4.47,1.82-6.73.81-3.49,1.47-7,2.3-10.5.91-3.82,1.92-7.61,2.93-11.4.74-2.81,1.55-5.61,2.32-8.41.67-2.43,1.38-4.84,2-7.27.79-3.11,1.39-6.28,2.33-9.34,1.16-3.81,2.8-7.48,3.84-11.32,1.47-5.39,2.54-10.88,3.83-16.31.64-2.72,1.37-5.41,2.09-8.11,1-3.66,2-7.31,3-11,.79-3,1.47-6.07,2.21-9.1s1.5-6.36,2.37-9.51C817.14,22.18,818,19.81,818.74,17.41Z"/><path class="cls-1" d="M819.33,14.77c-.27,1.19-.37,1.93-.59,2.64-.74,2.4-1.6,4.77-2.26,7.19-.87,3.15-1.59,6.33-2.37,9.51s-1.42,6.08-2.21,9.1c-.95,3.67-2,7.32-3,11-.72,2.7-1.45,5.39-2.09,8.11-1.29,5.43-2.36,10.92-3.83,16.31-1,3.84-2.68,7.51-3.84,11.32-.94,3.06-1.54,6.23-2.33,9.34-.63,2.43-1.34,4.84-2,7.27-.77,2.8-1.58,5.6-2.32,8.41-1,3.79-2,7.58-2.93,11.4-.83,3.49-1.49,7-2.3,10.5-.53,2.26-1.23,4.48-1.82,6.73-1.1,4.19-2.16,8.39-3.25,12.58-1.39,5.32-2.7,10.67-4.32,15.92-.25.81-1.93,1.52-3,1.68-9.2,1.33-18.42,2.52-27.75,2.42-3.27,0-6.54-.41-9.82-.59-1.47-.08-1.78-1.11-1.75-2.22.18-5.35.15-10.72.73-16,.69-6.34,1.82-12.63,2.94-18.9a97.31,97.31,0,0,1,2.44-10.08c.51-1.73,0-3-1.33-3.74s-2.35-.18-3.34,1.19c-2.69,3.68-5.82,7-8.45,10.76s-4.77,7.78-7.32,11.56c-1.94,2.88-4.21,5.54-6.29,8.34q-4.62,6.19-9.16,12.44c-1.38,1.9-2.6,3.92-4,5.77a2.82,2.82,0,0,1-2,.79c-6.22.24-12.46.41-18.69.6-1.85.06-2.7-.7-3.32-2.63-1.27-4-1.67-8.25-4-11.86a2.37,2.37,0,0,1-.37-1.12c-.2-4.74-2.49-8.78-4.29-13-.86-2-1.36-4.15-2.12-6.18-1.92-5.11-4-10.17-5.84-15.28-.92-2.51-1.65-5.08-2.42-7.64-.4-1.33-1.1-2.32-2.56-2.44s-2.3.76-2.75,2.13c-.83,2.52-1.81,5-2.57,7.54-1.26,4.21-2.47,8.44-3.57,12.69-1.24,4.76-2.26,9.56-3.49,14.32s-2.73,9.75-4,14.66c-.46,1.74-.46,3.6-.94,5.33-.24.84-1,2-1.71,2.14a61.62,61.62,0,0,1-7.08.3c-.53,0-1.07-.16-1.59-.1-8.76,1-17.42-1.27-26.78-.39,1.05-4.24,2-7.91,2.87-11.58a7.5,7.5,0,0,0,.31-.95c.48-5.69,2.42-11,3.78-16.52,1.25-5,2.25-10.11,3.43-15.15,1.08-4.66,2.17-9.33,3.41-13.95.71-2.64,1.91-5.14,2.56-7.79.82-3.41,1.21-6.93,2-10.37.71-3.17,1.65-6.29,2.49-9.43.1-.39.22-.77.3-1.16.81-3.91,1.4-7.87,2.47-11.7.94-3.42,2.56-6.65,3.6-10.06.94-3,1.4-6.26,2.25-9.35.74-2.66,1.75-5.25,2.62-7.87.69-2.08,1.25-4.2,2-6.24,1.48-3.83,3.13-7.6,4.62-11.42a35.93,35.93,0,0,0,1.22-4.23c.95-3.58,1.86-7.17,2.85-10.74.15-.55.56-1.38.95-1.44a77.77,77.77,0,0,1,7.9-.83q7.82-.3,15.64-.32c3.55,0,7.09.24,10.64.32,1.12,0,1.46.52,1.59,1.58.41,3.5.72,7,1.47,10.47.66,3,1.88,5.92,2.81,8.89.62,2,1.12,4,1.74,5.93,1.44,4.48,2.92,8.94,4.38,13.42.75,2.33,1.44,4.68,2.25,7,1.48,4.24,3.14,8.43,4.5,12.71,1.43,4.49,2.52,9.09,3.89,13.6,1,3.44,2.5,6.76,3.38,10.23a88.46,88.46,0,0,1,1.64,10c.25,1.9.29,3.79,2.66,4.37a5,5,0,0,0,5.09-2.38q3.3-5.17,6.5-10.41c2.74-4.52,5.3-9.16,8.19-13.59,2.51-3.86,5.4-7.47,8.06-11.24,2.55-3.61,5-7.27,7.54-10.92,1.82-2.67,3.69-5.3,5.38-8.05,2.05-3.31,3.93-6.73,5.88-10.1,1.82-3.15,3.64-6.29,5.43-9.45,2-3.56,3.92-7.2,6-10.69a75.32,75.32,0,0,1,4.71-6.55c.29-.36,1.08-.44,1.64-.46,4.88-.19,9.78-.25,14.66-.53q10.29-.59,20.59-1.46C812.69,15.89,815.76,15.29,819.33,14.77Z"/><path d="M611.15,57.11a13.17,13.17,0,0,1,.12,3.2c-.39,5.33-.63,10.68-1.32,16a92.49,92.49,0,0,1-2.43,10.42c-.56,2.18-1.27,4.32-1.84,6.5-1.21,4.63-2.22,9.33-3.61,13.91a59.46,59.46,0,0,1-3.85,9.76,168,168,0,0,1-9.12,16.27c-4.32,6.5-8.26,13.4-15.35,17.6-2.23,1.32-3.94,3.47-6,5.15a30.5,30.5,0,0,1-3.17,2c-3.12,2-6.21,4-9.36,5.94-1,.62-2.17,1-3.23,1.51-4,2-8.09,3.9-12.08,6-2.11,1.1-4,2.6-6.14,3.64a47.69,47.69,0,0,1-6.47,2.48,68.39,68.39,0,0,1-8.78,2.5c-3.67.66-7.45.73-11.15,1.27-1.59.23-3.17.5-4.75.78-13.85-.28-27.71,1.11-41.56.8a62.71,62.71,0,0,1-7.37-1.89,1.62,1.62,0,0,1,0-.22,61.46,61.46,0,0,1,1.61-10.43c1.24-5.15,2.84-10.21,4.25-15.33.39-1.41.68-2.84,1-4.28.54-2.66,1-5.33,1.59-8,.87-4.14,1.85-8.26,2.68-12.41.81-4,1.39-8,2.24-12,.68-3.11,1.62-6.15,2.44-9.23.1-.39.15-.79.22-1.19.76-4.18,1-8.55,2.4-12.51,2.63-7.44,3-15.29,4.88-22.84,1.57-6.25,2.75-12.61,4.23-18.89.81-3.48,1.91-6.89,2.83-10.35a9.45,9.45,0,0,0,.41-2.57c0-3.78,1.45-7.14,2.67-10.6a13,13,0,0,0,.75-4.13c0-3.58,1.31-6.75,2.68-9.95.7-1.64,1-3.43,1.65-5.11a1.91,1.91,0,0,1,1.09-1,25.53,25.53,0,0,1,4-1c5.13-.8,10.26-1.59,15.4-2.25,4.57-.59,9.15-1,13.73-1.51,0,.15,0,.29,0,.44,4,0,7.94-.32,11.85.08,4.41.46,8.75,1.56,13.12,2.37a16.48,16.48,0,0,0,2.58.41c4.67.15,8.76,2.21,13,3.85,3.53,1.37,7.1,2.69,10.52,4.3A130.37,130.37,0,0,1,589.84,23c2.1,1.28,3.59,3.5,5.56,5,3.47,2.72,6.72,5.61,9,9.41A40.05,40.05,0,0,1,606.56,41c1.59,3.42,3.24,6.81,3.39,10.73C610,53.51,610.82,55.29,611.15,57.11Zm-6,15.45a73.29,73.29,0,0,0-1.5-25.69,4,4,0,0,0-.69-1.41c-2.7-3.44-5.24-7-8.18-10.22a77.67,77.67,0,0,0-9.12-8.56,29.42,29.42,0,0,0-6.91-3.53c-3.48-1.47-7-2.72-10.55-4.1S561.5,16,558,15a93.46,93.46,0,0,0-14.14-2.76c-6.25-.7-12.56-.85-18.85-1.23,0,.13,0,.26,0,.39-1,0-2-.07-3,0-3.87.3-7.77.45-11.61,1-4.47.68-8.87,1.81-13.32,2.61-1.42.26-2.36.66-2.65,2.21-.46,2.49-1,5-1.59,7.44-.76,3.39-1.23,6.87-2.4,10.11a28,28,0,0,0-1.32,6.8,52.89,52.89,0,0,1-1.84,8.56c-.58,2.17-1.67,4.2-2.18,6.37-1.18,5.05-2.2,10.14-3.17,15.24-.91,4.85-1.68,9.72-2.5,14.59-.1.59,0,1.22-.2,1.79-1.35,5.12-2.8,10.21-4.08,15.34-1.05,4.2-2,8.44-2.83,12.69-1.22,6.14-2.32,12.3-3.47,18.45-.79,4.25-1.52,8.5-2.35,12.74-.51,2.61-1.07,5.2-1.74,7.77-.93,3.53-2,7-3,10.55-.79,2.73-1.55,5.47-2.42,8.18-.8,2.51-.34,3.59,2.28,4.27a14.23,14.23,0,0,0,3.95.45c5.34-.19,10.68-.38,16-.76s10.51,1,15.76-.5a56,56,0,0,1,8.61-1.4c1.46-.18,3,.07,4.41-.16,3.41-.55,6.79-1.23,10.16-1.95a26.77,26.77,0,0,0,5.34-1.51c5-2.23,9.92-4.64,14.87-7,3-1.42,6-2.8,9-4.28a37,37,0,0,0,5.33-3c1.75-1.27,3.22-2.94,4.9-4.31,3.88-3.15,8-6.07,11.68-9.4a82.56,82.56,0,0,0,7.81-8.37c2.55-3,5-6.14,7.27-9.34a41,41,0,0,0,3.5-6c2-4.08,4.06-8.17,5.77-12.38,1.32-3.25,2.19-6.69,3.2-10,.84-2.78,1.59-5.59,2.39-8.38s1.7-5.31,2.26-8C604.44,78.79,604.8,75.67,605.15,72.56Z"/><path class="cls-1" d="M603.65,46.87a73.29,73.29,0,0,1,1.5,25.69c-.35,3.11-.71,6.23-1.34,9.28-.56,2.72-1.5,5.35-2.26,8s-1.55,5.6-2.39,8.38c-1,3.36-1.88,6.8-3.2,10-1.71,4.21-3.75,8.3-5.77,12.38a41,41,0,0,1-3.5,6c-2.31,3.2-4.72,6.33-7.27,9.34a82.56,82.56,0,0,1-7.81,8.37c-3.72,3.33-7.8,6.25-11.68,9.4-1.68,1.37-3.15,3-4.9,4.31a37,37,0,0,1-5.33,3c-3,1.48-6,2.86-9,4.28-5,2.34-9.87,4.75-14.87,7a26.77,26.77,0,0,1-5.34,1.51c-3.37.72-6.75,1.4-10.16,1.95-1.44.23-2.95,0-4.41.16a56,56,0,0,0-8.61,1.4c-5.25,1.53-10.52.13-15.76.5s-10.67.57-16,.76a14.23,14.23,0,0,1-3.95-.45c-2.62-.68-3.08-1.76-2.28-4.27.87-2.71,1.63-5.45,2.42-8.18,1-3.52,2.06-7,3-10.55.67-2.57,1.23-5.16,1.74-7.77.83-4.24,1.56-8.49,2.35-12.74,1.15-6.15,2.25-12.31,3.47-18.45.85-4.25,1.78-8.49,2.83-12.69,1.28-5.13,2.73-10.22,4.08-15.34.15-.57.1-1.2.2-1.79.82-4.87,1.59-9.74,2.5-14.59,1-5.1,2-10.19,3.17-15.24.51-2.17,1.6-4.2,2.18-6.37a52.89,52.89,0,0,0,1.84-8.56,28,28,0,0,1,1.32-6.8c1.17-3.24,1.64-6.72,2.4-10.11.55-2.47,1.13-4.95,1.59-7.44.29-1.55,1.23-1.95,2.65-2.21,4.45-.8,8.85-1.93,13.32-2.61,3.84-.58,7.74-.73,11.61-1,1-.08,2,0,3,0,0-.13,0-.26,0-.39,6.29.38,12.6.53,18.85,1.23A93.46,93.46,0,0,1,558,15c3.5,1,6.79,2.69,10.2,4s7.07,2.63,10.55,4.1a29.42,29.42,0,0,1,6.91,3.53,77.67,77.67,0,0,1,9.12,8.56c2.94,3.21,5.48,6.78,8.18,10.22A4,4,0,0,1,603.65,46.87ZM565.16,75.59l.5-.08c-.57-2.91-1.17-5.81-1.71-8.73a15.15,15.15,0,0,0-9.41-11.67,77.54,77.54,0,0,0-10.1-3.65,17.32,17.32,0,0,0-4.68-.49A127.42,127.42,0,0,0,526,53.3c-.57,2.16-1,4.35-1.67,6.5-1.84,6.23-3.77,12.44-5.62,18.67-.64,2.17-1.19,4.37-1.7,6.57-.92,3.88-1.71,7.8-2.69,11.66-.66,2.64-1.56,5.22-2.32,7.83s-1.44,5.1-2.16,7.65c-1.42,5.06-2.78,10.13-4.28,15.17-.86,2.88-2.1,5.66-2.87,8.57a6.12,6.12,0,0,0,.25,4.22c.39.67,2.38.73,3.58.55a24.09,24.09,0,0,0,4.91-1.54c1.49-.56,2.9-1.29,4.36-1.92,3.09-1.34,6.37-2.36,9.24-4.08,2.64-1.58,4.64-4.26,7.29-5.81,5.26-3.09,9.39-7.4,13.71-11.54a54.63,54.63,0,0,0,11.17-15.73c1.88-3.86,3.59-7.8,5.24-11.76S565.67,80.14,565.16,75.59Z"/><path d="M565.66,75.51l-.5.08c.51,4.55-1,8.67-2.74,12.72s-3.36,7.9-5.24,11.76A54.63,54.63,0,0,1,546,115.8c-4.32,4.14-8.45,8.45-13.71,11.54-2.65,1.55-4.65,4.23-7.29,5.81-2.87,1.72-6.15,2.74-9.24,4.08-1.46.63-2.87,1.36-4.36,1.92a24.09,24.09,0,0,1-4.91,1.54c-1.2.18-3.19.12-3.58-.55a6.12,6.12,0,0,1-.25-4.22c.77-2.91,2-5.69,2.87-8.57,1.5-5,2.86-10.11,4.28-15.17.72-2.55,1.42-5.11,2.16-7.65s1.66-5.19,2.32-7.83c1-3.86,1.77-7.78,2.69-11.66.51-2.2,1.06-4.4,1.7-6.57,1.85-6.23,3.78-12.44,5.62-18.67.63-2.15,1.1-4.34,1.67-6.5A127.42,127.42,0,0,1,539.76,51a17.32,17.32,0,0,1,4.68.49,77.54,77.54,0,0,1,10.1,3.65A15.15,15.15,0,0,1,564,66.78C564.49,69.7,565.09,72.6,565.66,75.51Zm-5.85,4.74c1.2-6.07.71-12.25-3.69-17.51a8,8,0,0,0-4.24-3c-.44-.11-.81-.47-1.24-.6-3.16-.9-6.29-2.19-9.51-2.52s-6.8.23-10.2.49a1.55,1.55,0,0,0-1.14.82c-.72,2-1.36,4-1.94,6s-1,4.13-1.65,6.17c-.83,2.78-1.93,5.49-2.62,8.31-1.44,5.81-2.68,11.67-4,17.51-.1.45-.3.88-.43,1.32-1.71,5.85-3.47,11.69-5.11,17.56-1.26,4.54-2.39,9.13-3.53,13.7-.39,1.6-.63,3.24-1,5.31.83-.28,1.18-.38,1.52-.52,1.91-.77,3.82-1.53,5.72-2.32a37.24,37.24,0,0,0,6-2.6c2.31-1.48,4.16-3.72,6.51-5.09a46,46,0,0,0,9.44-7.06c3.43-3.36,7.12-6.48,9.67-10.59a96.41,96.41,0,0,0,6-11C556.44,90,558.83,85.23,559.81,80.25Z"/><path d="M446,177a1.89,1.89,0,0,1-2,2.22c-4.08.19-8.16.39-12.24.65-1.71.11-3.4.49-5.12.58-5.21.29-10.43.36-15.63.78-4.58.36-9.13,1.06-13.7,1.62a5.44,5.44,0,0,0-.8.09c-3.07.82-4.1.06-3.75-3.08.64-5.65,1.41-11.29,2.17-16.93.49-3.69,1.09-7.36,1.6-11.05.21-1.5-.57-1.91-2-1.92-4.43,0-8.86-.07-13.28-.3-1-.06-2.06-.16-3.09-.27-1.31-.22-2.63-.38-3.95-.47a1.71,1.71,0,0,0-.85-.23,26,26,0,0,0-3.3.16c-1,0-2,.11-3,.23a2,2,0,0,0-1.87,1.78,10.11,10.11,0,0,0-1,1.78c-1.83,4.85-3.38,9.81-5.41,14.58-1.25,3-2.94,5.71-4.47,8.55a9.59,9.59,0,0,1-3.26,5.06c-2,1.46-4.45,1.59-6.83,1.41a51.39,51.39,0,0,1-9.92.47c-2,0-4-.08-6.06,0a70.93,70.93,0,0,0-7.68.82,40.76,40.76,0,0,1-8.62.28,22,22,0,0,1-3-.45,8.37,8.37,0,0,1-2.35-3.82c.12-1.15.27-2.3.37-3.45.39-.91.8-1.81,1.18-2.72,1.79-4.32,3.65-8.63,5.52-12.92,2-4.56,4.05-9.08,6-13.65.78-1.83,1.35-3.76,2.06-5.62,1.6-4.22,3.09-8.49,4.9-12.63,2.36-5.42,5-10.7,7.48-16.09,1.4-3.09,2.57-6.27,3.91-9.39s2.8-6.17,4.11-9.29,2.59-6.54,3.92-9.79c1.79-4.37,3.54-8.77,5.45-13.08s3.92-8.31,5.91-12.45c1.81-3.77,3.77-7.47,5.45-11.3,1.54-3.5,2.75-7.15,4.18-10.7.54-1.35,1.31-2.6,1.93-3.91,1.43-3,2.81-6,4.23-9,1.5-3.17,3-6.34,4.58-9.47a2.31,2.31,0,0,1,1.55-1,33.45,33.45,0,0,1,4-.21c9-.2,18-.41,27-.58,3.58-.06,7.17-.18,10.74,0,5.24.3,10.47.81,15.7,1.35a2.66,2.66,0,0,1,2.57,2.61c.18,3.86.39,7.71.43,11.56.07,6.84-.19,13.69.09,20.51.32,7.93,1.13,15.84,1.62,23.77.5,8.08,1,16.16,1.24,24.26.26,9.63.08,19.28.33,28.92.11,4,.88,7.93,1.28,11.9.37,3.57.83,7.15.9,10.74.07,3.18-.53,6.38-.48,9.56.09,5.19.45,10.37.73,15.55C445.71,174.39,446,175.71,446,177Zm-6.13-2.11c0-.85.13-1.51.13-2.17,0-8.7-.05-17.41-.17-26.12-.06-3.61-.32-7.23-.57-10.84-.41-5.85-1.13-11.7-1.28-17.56-.2-8-.13-15.94.1-23.9s-1.65-15.93-.72-24c.2-1.72-.57-3.54-.69-5.32-.3-4.42-.41-8.84-.72-13.26-.34-5.07-1-10.12-1.19-15.19-.19-5.29,0-10.59.08-15.88,0-1.88-.62-2.62-2.55-2.61-6.84,0-13.68,0-20.51-.14-3.64-.09-7.28-.81-10.92-.77-5.73.07-11.46.64-17.2.77A3.65,3.65,0,0,0,380,20.62c-.7,1.81-1.24,3.68-2.09,5.41-3,6.12-6.87,11.89-8.09,18.79-.05.25-.27.45-.39.69-2.29,4.72-4.61,9.43-6.86,14.17-2.48,5.22-5,10.43-7.34,15.71-2.11,4.73-4.07,9.53-6,14.32-1.24,3-2.34,6.06-3.55,9.07q-3.47,8.7-7,17.36a7.78,7.78,0,0,1-.61,1.45,31,31,0,0,0-2.82,4.25c-2.37,5.49-4.54,11-6.78,16.59-1.26,3.09-2.41,6.23-3.76,9.27-1.82,4.12-3.86,8.15-5.67,12.27-2.16,4.93-4.2,9.91-6.22,14.89a40,40,0,0,0-1.21,4.23l2.34-.11c6.41-.36,12.82-.81,19.24-1,4.34-.16,8.7,0,13.05-.08a2.65,2.65,0,0,0,1.86-1.07c.82-1.27,1.37-2.71,2.07-4.06,1.48-2.88,3.09-5.71,4.46-8.64.87-1.85,1.31-3.89,2.11-5.77,1.64-3.85,3.73-7.55,5-11.52.8-2.55,2-3,4.29-2.89,8.31.51,16.63,1,25,1.31a8.23,8.23,0,0,0,1.11,0,1.81,1.81,0,0,0,1,.25c2.09,0,4.41.08,6.09,1.29a5,5,0,0,1,1.76,3.47c.51,3.82-.71,8.17-1.32,12.05a33.68,33.68,0,0,0-.57,7.56v0c-.11,2-.09,3.93-.16,5.89,0,.49.59,1.45.89,1.45q4.8-.1,9.59-.49c1.58-.13,3.13-.73,4.71-.79C422.53,175.51,431.08,175.24,439.91,174.93Z"/><path class="cls-1" d="M408.69,107.22c.51-.22.5-.2.78-.79,0-.11.18-.58.21-.71a9,9,0,0,0,.15-1,30.08,30.08,0,0,0-.55-8.57c-.11-.54-.23-1.08-.35-1.62-.42-1.86-.92-3.7-1.46-5.53-1.14-3.9-2.43-7.78-3.27-11.76-1-4.76-1.82-9.55-3.08-14.24A2.66,2.66,0,0,0,398,64c-1.12,1.7-2.23,3.41-3.2,5.19-1.68,3.09-3.16,6.29-4.88,9.35s-3.05,6.17-4.59,9.26a107.61,107.61,0,0,1-4.94,11.28,54.5,54.5,0,0,1-3.13,5.58,7.8,7.8,0,0,0,.23,1.15,6.1,6.1,0,0,0,.33.82,10.25,10.25,0,0,0,2,1.13q7,0,13.92-.07,5.06-.06,10.11-.08c1.11,0,2.21,0,3.32-.08a3.76,3.76,0,0,0,.82-.11C408.13,107.37,408.69,107.2,408.69,107.22ZM440,172.76c0,.66-.08,1.32-.13,2.17-8.83.31-17.38.58-25.93,1-1.58.06-3.13.66-4.71.79q-4.78.39-9.59.49c-.3,0-.91-1-.89-1.45.07-2,0-3.93.16-5.89v0a33.68,33.68,0,0,1,.57-7.56c.61-3.88,1.83-8.23,1.32-12.05a5,5,0,0,0-1.76-3.47c-1.68-1.21-4-1.33-6.09-1.29a1.81,1.81,0,0,1-1-.25,8.23,8.23,0,0,1-1.11,0c-8.32-.31-16.64-.8-25-1.31-2.29-.14-3.49.34-4.29,2.89-1.24,4-3.33,7.67-5,11.52-.8,1.88-1.24,3.92-2.11,5.77-1.37,2.93-3,5.76-4.46,8.64-.7,1.35-1.25,2.79-2.07,4.06a2.65,2.65,0,0,1-1.86,1.07c-4.35.09-8.71-.08-13.05.08-6.42.24-12.83.69-19.24,1l-2.34.11a40,40,0,0,1,1.21-4.23c2-5,4.06-10,6.22-14.89,1.81-4.12,3.85-8.15,5.67-12.27,1.35-3,2.5-6.18,3.76-9.27,2.24-5.54,4.41-11.1,6.78-16.59a31,31,0,0,1,2.82-4.25,7.78,7.78,0,0,0,.61-1.45q3.5-8.67,7-17.36c1.21-3,2.31-6.07,3.55-9.07,2-4.79,3.92-9.59,6-14.32,2.36-5.28,4.86-10.49,7.34-15.71,2.25-4.74,4.57-9.45,6.86-14.17.12-.24.34-.44.39-.69,1.22-6.9,5.06-12.67,8.09-18.79.85-1.73,1.39-3.6,2.09-5.41A3.65,3.65,0,0,1,383.7,18c5.74-.13,11.47-.7,17.2-.77,3.64,0,7.28.68,10.92.77,6.83.17,13.67.17,20.51.14,1.93,0,2.59.73,2.55,2.61-.11,5.29-.27,10.59-.08,15.88.19,5.07.85,10.12,1.19,15.19.31,4.42.42,8.84.72,13.26.12,1.78.89,3.6.69,5.32-.93,8,.94,16,.72,24s-.3,15.94-.1,23.9c.15,5.86.87,11.71,1.28,17.56.25,3.61.51,7.23.57,10.84C440,155.35,440,164.06,440,172.76Z"/><path d="M409.28,96.13a30.08,30.08,0,0,1,.55,8.57,9,9,0,0,1-.15,1c0,.13-.19.6-.21.71-.28.59-.27.57-.78.79,0,0-.56.15-.68.18a3.76,3.76,0,0,1-.82.11c-1.11.09-2.21.08-3.32.08q-5.06,0-10.11.08-7,.09-13.92.07a10.25,10.25,0,0,1-2-1.13,6.1,6.1,0,0,1-.33-.82,7.8,7.8,0,0,1-.23-1.15,54.5,54.5,0,0,0,3.13-5.58,107.61,107.61,0,0,0,4.94-11.28c1.54-3.09,2.91-6.25,4.59-9.26s3.2-6.26,4.88-9.35c1-1.78,2.08-3.49,3.2-5.19a2.66,2.66,0,0,1,3.12-1c1.26,4.69,2.07,9.48,3.08,14.24.84,4,2.13,7.86,3.27,11.76q.73,2.77,1.46,5.53C409.05,95.05,409.17,95.59,409.28,96.13Zm-5.19,7.69c1.1,0,2-.64,1.64-2-.68-2.71-1.41-5.39-2.09-8.1-.5-2-1.05-3.94-1.4-5.94-.24-1.37,0-2.83-.3-4.19-.82-3.93-2.45-7.7-2.42-11.81,0-.08-.18-.17-.53-.48-.76,1.62-1.4,3.19-2.2,4.67-1.83,3.36-4,6.55-5.57,10-2.27,5.18-4.66,10.23-8.34,14.61-.69.81-.83,2.08-1.34,3.42h2.06c2.28,0,4.83-.67,6.77.14C395.14,106.18,399.54,103.88,404.09,103.82Z"/><path class="cls-2" d="M408.93,94.51q-.72-2.76-1.46-5.53C408,90.81,408.51,92.65,408.93,94.51Z"/><path d="M330.21,51.38c2.29,6.66,2.76,13.54,3.1,20.56-.63,5-1.19,9.94-1.93,14.88a60.57,60.57,0,0,1-1.78,8.79,49.76,49.76,0,0,1-3.18,7.46c-1.23,2.49-2.59,4.93-4,7.32-2.47,4.16-5,8.25-7.56,12.39a76.62,76.62,0,0,1-4,6.67c-2.87,3.79-5.94,7.43-9,11.06a85.83,85.83,0,0,1-6.18,6.74c-5,4.74-10.26,9.18-15.09,14.05-5.15,5.2-11.23,8.78-17.81,11.76a77.47,77.47,0,0,1-25.88,6.47c-2.18.18-4.43-.29-6.6,0a30.79,30.79,0,0,1-14.09-1.46c-3.65-1.23-7.54-1.86-11-3.41-3.88-1.72-7.42-4.23-11.15-6.32-3.95-2.21-6.75-5.69-9.69-9-2.15-2.39-3.66-5.34-5.64-7.91a36,36,0,0,1-2.19-3.23,68.19,68.19,0,0,1-4.67-7.32,43.44,43.44,0,0,1-4.82-15,117.3,117.3,0,0,1-1-15.78c0-8.83,1.22-18,5.51-25.75a18.58,18.58,0,0,1,1.62-4c1.43-2.59,2.22-5.53,3.53-8.19,3.2-6.47,6.09-13.11,10.56-18.89,3-3.86,5.74-7.92,8.78-11.75s6.45-7.67,9.74-11.44c2.72-3.13,5.11-6.74,8.38-9.14,4.87-3.58,10.35-6.35,15.65-9.33a84.23,84.23,0,0,1,8.6-4.18A21.31,21.31,0,0,1,244,6c4.77-.59,9.35-2.83,14.33-1.59.74.18,1.59-.21,2.38-.16,5.5.34,11.07.33,16.48,1.23,3.8.64,7.37,2.57,11.07,3.84,2.18.74,4.41,1.32,6.63,2,.31.09.7,0,1,.16,4.25,2.23,8.79,4.08,12.64,6.87,3.29,2.39,5.58,6.1,8.69,8.8,4.07,3.54,6.27,8.3,9.11,12.64,1,1.46,1.28,3.34,1.84,5C328.83,47,329.46,49.19,330.21,51.38ZM326.38,83.3c1.62-8.86.92-17.74-.12-26.61a2.41,2.41,0,0,0-.14-.59c-2-5.39-3.29-11-6-16.16a42.43,42.43,0,0,0-6.45-9c-1.56-1.68-3.12-3.36-4.77-4.95-2-2-3.93-4.28-6.33-5.71a30.11,30.11,0,0,0-4.58-2.2,62.94,62.94,0,0,0-9.17-4.33A80.1,80.1,0,0,0,277,10.07a52.41,52.41,0,0,0-12.81-.86,98.76,98.76,0,0,0-13,1.06l-.26.06-.14-.06c-.25-.14-.66,0-1,.05-4.64.85-9.16,1.9-13.35,4.3-3.54,2-7.56,3.26-11,5.39a64,64,0,0,0-9.66,7.49c-2.74,2.53-5,5.54-7.54,8.34C205.12,39.3,202,42.68,199,46.26c-2.26,2.76-4.29,5.73-6.32,8.67A91.46,91.46,0,0,0,187,63.74c-2.79,5.21-5.31,10.57-7.83,15.91-.36.77-.71,1.55-1,2.34a1.26,1.26,0,0,0-.43.54,81.72,81.72,0,0,0-5,16,74.75,74.75,0,0,0-1.77,14.68q.06,3.56.35,7.11c-.38,4.65.86,9.44,2.33,13.8a49.47,49.47,0,0,0,8.18,14.74,66.67,66.67,0,0,0,10.61,10.63c.93,1,1.88,1.91,2.87,2.82a36.71,36.71,0,0,0,10.68,6.8,75.62,75.62,0,0,0,14.61,4c3.7.74,7.55.77,11.33,1.11,5.21.12,10.12-1.28,15.11-2.43,6.64-1.53,13-3.54,18.85-7.19A64.57,64.57,0,0,0,274,159c4.56-4,8.79-8.31,13.23-12.41,2.71-2.51,5.66-4.77,8.35-7.31a61.87,61.87,0,0,0,4.89-5.45c1.88-2.24,3.81-4.45,5.47-6.85s2.73-4.82,4.21-7.16c1.13-1.78,2.61-3.33,3.7-5.13q3-4.92,5.66-10a48.64,48.64,0,0,0,3.84-8.34A113.34,113.34,0,0,0,326.38,83.3Z"/><path class="cls-1" d="M326.26,56.69c1,8.87,1.74,17.75.12,26.61a113.34,113.34,0,0,1-3,13,48.64,48.64,0,0,1-3.84,8.34q-2.67,5.1-5.66,10c-1.09,1.8-2.57,3.35-3.7,5.13-1.48,2.34-2.64,4.89-4.21,7.16s-3.59,4.61-5.47,6.85a61.87,61.87,0,0,1-4.89,5.45c-2.69,2.54-5.64,4.8-8.35,7.31-4.44,4.1-8.67,8.45-13.23,12.41a64.57,64.57,0,0,1-8.16,5.53c-5.8,3.65-12.21,5.66-18.85,7.19-5,1.15-9.9,2.55-15.11,2.43-3.78-.34-7.63-.37-11.33-1.11a75.62,75.62,0,0,1-14.61-4,36.71,36.71,0,0,1-10.68-6.8c-1-.91-1.94-1.85-2.87-2.82a66.67,66.67,0,0,1-10.61-10.63,49.47,49.47,0,0,1-8.18-14.74c-1.47-4.36-2.71-9.15-2.33-13.8q-.28-3.56-.35-7.11a74.75,74.75,0,0,1,1.77-14.68,81.72,81.72,0,0,1,5-16,1.26,1.26,0,0,1,.43-.54c.32-.79.67-1.57,1-2.34,2.52-5.34,5-10.7,7.83-15.91a91.46,91.46,0,0,1,5.72-8.81c2-2.94,4.06-5.91,6.32-8.67,2.93-3.58,6.09-7,9.16-10.42,2.49-2.8,4.8-5.81,7.54-8.34A64,64,0,0,1,225.39,20c3.48-2.13,7.5-3.36,11-5.39,4.19-2.4,8.71-3.45,13.35-4.3.33-.06.74-.19,1-.05l.14.06.26-.06a98.76,98.76,0,0,1,13-1.06,52.41,52.41,0,0,1,12.81.86,80.1,80.1,0,0,1,11.84,3.72A62.94,62.94,0,0,1,298,18.12a30.11,30.11,0,0,1,4.58,2.2c2.4,1.43,4.29,3.73,6.33,5.71,1.65,1.59,3.21,3.27,4.77,4.95a42.43,42.43,0,0,1,6.45,9c2.74,5.13,4,10.77,6,16.16A2.41,2.41,0,0,1,326.26,56.69ZM299.89,88.16A23.06,23.06,0,0,0,299.83,74a45.05,45.05,0,0,0-4.14-8.81,67.27,67.27,0,0,0-5.75-8c-1.64-2-4-3.06-6.29-4.34A32.71,32.71,0,0,0,272,49.2a21.52,21.52,0,0,0-4.81-.2,99.43,99.43,0,0,0-10.05,1.18c-1.71.31-3.27,1.41-5,2-4.89,1.64-9.87,3-14.7,4.83-4,1.48-7.18,4.36-10.05,7.37-2.4,2.52-4.08,5.7-6.27,8.43a44.79,44.79,0,0,0-6.43,12.06,37.13,37.13,0,0,0-2.21,16c.42,2.89.68,5.82,1.31,8.67a23.09,23.09,0,0,0,4.29,9.77c2,2.47,4.34,4.73,6.29,7.26a16.28,16.28,0,0,0,7.12,5.23c3.55,1.42,7.07,3.36,10.77,3.86a41.63,41.63,0,0,0,17.65-1.46,31.73,31.73,0,0,0,6.39-2.21A75.39,75.39,0,0,0,278,124.5a61,61,0,0,0,10.68-11.17c3.08-4.35,5.27-9.37,7.48-14.26A92.51,92.51,0,0,0,299.89,88.16Z"/><path d="M299.83,74a23.06,23.06,0,0,1,.06,14.16,92.51,92.51,0,0,1-3.78,10.91c-2.21,4.89-4.4,9.91-7.48,14.26A61,61,0,0,1,278,124.5,75.39,75.39,0,0,1,266.32,132a31.73,31.73,0,0,1-6.39,2.21,41.63,41.63,0,0,1-17.65,1.46c-3.7-.5-7.22-2.44-10.77-3.86a16.28,16.28,0,0,1-7.12-5.23c-1.95-2.53-4.26-4.79-6.29-7.26a23.09,23.09,0,0,1-4.29-9.77c-.63-2.85-.89-5.78-1.31-8.67a37.13,37.13,0,0,1,2.21-16,44.79,44.79,0,0,1,6.43-12.06c2.19-2.73,3.87-5.91,6.27-8.43,2.87-3,6.06-5.89,10.05-7.37,4.83-1.79,9.81-3.19,14.7-4.83,1.68-.56,3.24-1.66,5-2A99.43,99.43,0,0,1,267.16,49a21.52,21.52,0,0,1,4.81.2,32.71,32.71,0,0,1,11.68,3.64c2.26,1.28,4.65,2.32,6.29,4.34a67.27,67.27,0,0,1,5.75,8A45.05,45.05,0,0,1,299.83,74Zm-6.25,16.12c1.46-4.38,1.45-8.65,1.26-13.05a5.87,5.87,0,0,0-.52-2,26.81,26.81,0,0,0-5.25-11.63c-9.84-12.48-27.79-9.82-41-5.29-4.9,1.67-10.15,4-14.16,7.61a6.73,6.73,0,0,0-.74.48c-3.07,2.43-4.92,5.83-7.13,9-3.73,5.3-6.64,10.91-7.4,17.41a20.69,20.69,0,0,0-.12,2.23c-.19,1-.33,2-.43,3a27.32,27.32,0,0,0-.07,8.27,20.21,20.21,0,0,0,2,6.71,23.81,23.81,0,0,0,9.71,11.64c2.73,2.38,6.15,3.6,9.59,4.75,4.07,1.36,8.22,1.18,12.6.7,5.28-.57,10-2.4,14.58-4.49a37.26,37.26,0,0,0,9.43-6.22c3.23-2.9,6.51-6.11,8.61-9.83A111.33,111.33,0,0,0,293.58,90.12Z"/><path d="M167.3,53.29c.14,1.45-.25,3-.1,4.41.4,4.08-.73,7.93-1.42,11.87a55,55,0,0,1-10.94,24.28C150.4,99.62,146,105.42,141.32,111c-3.17,3.8-6.62,7.37-11.48,9.22-1.56.59-2.74,2.11-4.27,2.86a63,63,0,0,1-9.28,4c-2.47.75-3,1-1.77,3.85,1.53,3.67,3.38,7.21,5.07,10.82,1.4,3,2.73,6,4.16,9,1.32,2.76,2.81,5.45,4.09,8.23,1.62,3.49,3.15,7,4.72,10.54a1.55,1.55,0,0,0,0,.93,46.05,46.05,0,0,1,1.56,4.55,11.28,11.28,0,0,1,.26,1.26c0,.06,0,.36,0,.36,0,.19,0,.38,0,.57s0,.45,0,.67c0,.06,0,.28-.06.32,0,.19-.1.36-.15.54l-.05.13-.1.2a6.26,6.26,0,0,1-.34.55l0,.08-.07.05s-.19.16-.22.2l-.33.2-.13.06-.06,0-.46.14-.49.1-.28.05c-1.28.15-2.57.17-3.85.29-7.37.07-14.75.16-22.11.43-5.62.21-11.22.69-16.82,1.11-4.27.33-7.6-2.41-8.86-6.48-1.32-4.28-3.33-8.35-5-12.52-1.47-3.7-2.82-7.45-4.35-11.12-1.07-2.57-2.39-5-3.53-7.59-1-2.29-2-4.62-3-6.93a13.72,13.72,0,0,0-.87-1.81,10.86,10.86,0,0,0-1.08-1.29c-.38.49-1,.92-1.12,1.47-1.55,4.95-2.94,10-4.57,14.89-1.39,4.21-3.07,8.33-4.55,12.52a48.35,48.35,0,0,0-1.83,6.12c-.72,3.37-1.31,6.77-1.79,10.18-.23,1.6-.66,2.61-2.49,2.74-5,.35-10,.83-14.95,1.22-2.94.23-5.88.36-8.82.58-5.62.43-11.23.91-16.84,1.32A6.2,6.2,0,0,1,.54,182c-1.11-2.87-.23-6.46.1-9.48,1.33-5.5,2.25-11.06,3-16.67.39-2.79,1.63-5.44,2.33-8.2.74-3,1.3-6,1.93-9,.88-4.17,1.77-8.34,2.62-12.51.38-1.9.59-3.84,1-5.73,1.44-6.63,3-13.25,4.42-19.88.56-2.54.93-5.12,1.62-7.62,1.41-5.12,3-10.19,4.46-15.31.78-2.8,1.24-5.7,2-8.52.84-3.27,1.81-6.51,2.73-9.76.15-.52.35-1,.5-1.53q1.5-5.25,3-10.5c.11-.39.19-.78.29-1.17.89-3.61,1.81-7.21,2.68-10.82.6-2.46,1.11-4.95,1.71-7.41.69-2.85,1-5.86,2.26-8.47,1.08-2.34,2.36-4.63,5.91-5,7.42-.68,14.74-2.3,22.14-3.18A157,157,0,0,1,81,10.38c6-.1,12.06-.07,18.08.23,6.94.35,13.87,1,20.79,1.61a84.82,84.82,0,0,1,11.48,1.62,97.58,97.58,0,0,1,11.71,3.82,38.39,38.39,0,0,1,7.13,3.44,25.43,25.43,0,0,1,5.36,4.62A77.24,77.24,0,0,1,161,32.77a31.61,31.61,0,0,1,1.53,3.29c.78,1.91,1.58,3.82,2.29,5.76a6.21,6.21,0,0,0,.23.64c.08.21.16.42.23.64.47,1.37.9,2.74,1.27,4.13C166.85,49.24,167.1,51.26,167.3,53.29Zm-5.13,1.94a17.65,17.65,0,0,0-1.52-9.89c-.06-.18-.13-.36-.2-.55a50.83,50.83,0,0,0-2.79-8.8c-1.66-3.81-4.46-7.94-8.47-9.52l-.4-.25a54.27,54.27,0,0,0-7.85-3.75,100.51,100.51,0,0,0-12.57-3.81A103.38,103.38,0,0,0,115.92,17c-4.66-.44-9.35-.62-14-1-2.39-.19-4.78-.76-7.16-.73-9.38.12-18.79-.34-28.14.68-1.4,0-2.79.07-4.18.2a55.49,55.49,0,0,0-6.69,1.23,51.42,51.42,0,0,0-5.89.8,17.64,17.64,0,0,0-6,1.26l-1.22.26a1.62,1.62,0,0,0-.68.34h0a3.09,3.09,0,0,0-1.82,1.77c-.59,2.24-.9,4.55-1.28,6.84-.28,1.72-.39,3.47-.79,5.16-.78,3.35-1.71,6.67-2.57,10-.47,1.8-.9,3.6-1.37,5.39-.61,2.32-1.21,4.63-1.89,6.93S30.73,60.79,30,63.08A10.22,10.22,0,0,0,29.44,65,115.17,115.17,0,0,1,25.3,83.23c-1.36,4.8-2.82,9.58-4,14.42-1.4,5.69-2.54,11.45-3.81,17.18-.86,3.83-1.86,7.64-2.61,11.49-.78,4-1.34,8.13-2,12.19-.2,1.19-.58,2.35-.72,3.54-.66,5.64-3.6,10.69-4,16.42-.32,4.18-1.22,8.32-1.88,12.48-.16,1-.36,2-.57,2.92-.37,1.68-.84,3.34-1.13,5-.22,1.26.36,1.84,1.74,1.68,3.1-.36,6.22-.61,9.34-.92,5.76-.58,11.53-1.22,17.3-1.75,2.6-.24,5.23-.18,7.82-.45a2.9,2.9,0,0,0,2.16-1.28c1.39-3.87,2.56-7.83,3.81-11.75.83-2.6,1.67-5.19,2.54-7.76,1.36-4,2.76-8,4.12-12.07.91-2.71,1.73-5.45,2.68-8.14.18-.52.38-1,.58-1.54a1.3,1.3,0,0,0,.44-.81c0-.19.07-.39.1-.58l.33-.83a1.88,1.88,0,0,0,.62-.94,11.63,11.63,0,0,0,.34-1.66c.1-.31.22-.62.32-.93,0-.14.07-.3.11-.46a7,7,0,0,1,.82-1,4.91,4.91,0,0,1,4.24-1.25c.1.14.21.28.31.43l.39.58c.52,1.15,1,2.3,1.54,3.45.82,1.9,1.46,3.87,2.31,5.75,1.86,4.12,3.79,8.21,5.71,12.3s3.81,7.88,5.62,11.87c1.29,2.83,2.5,5.71,3.6,8.63.79,2.12,1.22,4.38,2.09,6.47a2.87,2.87,0,0,0,2.21,1.34c4.41-.17,8.8-.69,13.21-.82,8.83-.25,17.65-.34,26.48-.48,1.27,0,2-.32,1.43-1.76-.84-2.1-1.57-4.25-2.52-6.29-1.77-3.78-3.76-7.46-5.5-11.25-2.3-5-4.47-10.07-6.68-15.12-1.92-4.38-3.88-8.74-5.68-13.17-.49-1.18-.93-2.71.58-3.63a26.58,26.58,0,0,1,4.07-2c4.21-1.63,8.57-2.93,12.16-5.86a8.16,8.16,0,0,1,2.91-1.69c3-.8,5-3,7-5.08,2.48-2.65,4.27-6.05,7-8.36,5.08-4.3,8.29-10,11.94-15.28A38.42,38.42,0,0,0,159,75.6C160.83,69.26,162.57,62.84,162.17,55.23Z"/><path class="cls-1" d="M160.65,45.34a17.65,17.65,0,0,1,1.52,9.89c.4,7.61-1.34,14-3.18,20.37a38.42,38.42,0,0,1-4.89,10.88c-3.65,5.31-6.86,11-11.94,15.28-2.74,2.31-4.53,5.71-7,8.36-2,2.1-4,4.28-7,5.08a8.16,8.16,0,0,0-2.91,1.69c-3.59,2.93-8,4.23-12.16,5.86a26.58,26.58,0,0,0-4.07,2c-1.51.92-1.07,2.45-.58,3.63,1.8,4.43,3.76,8.79,5.68,13.17,2.21,5.05,4.38,10.12,6.68,15.12,1.74,3.79,3.73,7.47,5.5,11.25,1,2,1.68,4.19,2.52,6.29.57,1.44-.16,1.75-1.43,1.76-8.83.14-17.65.23-26.48.48-4.41.13-8.8.65-13.21.82A2.87,2.87,0,0,1,85.49,176c-.87-2.09-1.3-4.35-2.09-6.47-1.1-2.92-2.31-5.8-3.6-8.63-1.81-4-3.75-7.91-5.62-11.87s-3.85-8.18-5.71-12.3c-.85-1.88-1.49-3.85-2.31-5.75-.5-1.15-1-2.3-1.54-3.45l-.39-.58c-.1-.15-.21-.29-.31-.43a4.91,4.91,0,0,0-4.24,1.25,7,7,0,0,0-.82,1c0,.16-.07.32-.11.46-.1.31-.22.62-.32.93a11.63,11.63,0,0,1-.34,1.66,1.88,1.88,0,0,1-.62.94l-.33.83c0,.19-.07.39-.1.58a1.3,1.3,0,0,1-.44.81c-.2.51-.4,1-.58,1.54-1,2.69-1.77,5.43-2.68,8.14-1.36,4-2.76,8-4.12,12.07-.87,2.57-1.71,5.16-2.54,7.76-1.25,3.92-2.42,7.88-3.81,11.75a2.9,2.9,0,0,1-2.16,1.28c-2.59.27-5.22.21-7.82.45-5.77.53-11.54,1.17-17.3,1.75-3.12.31-6.24.56-9.34.92-1.38.16-2-.42-1.74-1.68.29-1.7.76-3.36,1.13-5,.21-1,.41-1.94.57-2.92.66-4.16,1.56-8.3,1.88-12.48.44-5.73,3.38-10.78,4-16.42.14-1.19.52-2.35.72-3.54.68-4.06,1.24-8.15,2-12.19.75-3.85,1.75-7.66,2.61-11.49,1.27-5.73,2.41-11.49,3.81-17.18,1.19-4.84,2.65-9.62,4-14.42A115.17,115.17,0,0,0,29.44,65,10.22,10.22,0,0,1,30,63.08c.72-2.29,1.48-4.57,2.16-6.87s1.28-4.61,1.89-6.93c.47-1.79.9-3.59,1.37-5.39.86-3.34,1.79-6.66,2.57-10,.4-1.69.51-3.44.79-5.16.38-2.29.69-4.6,1.28-6.84a3.09,3.09,0,0,1,1.82-1.77h0a1.62,1.62,0,0,1,.68-.34l1.22-.26a17.64,17.64,0,0,1,6-1.26,51.42,51.42,0,0,1,5.89-.8,55.49,55.49,0,0,1,6.69-1.23c1.39-.13,2.78-.19,4.18-.2,9.35-1,18.76-.56,28.14-.68,2.38,0,4.77.54,7.16.73,4.68.36,9.37.54,14,1a103.38,103.38,0,0,1,12.45,1.62,100.51,100.51,0,0,1,12.57,3.81,54.27,54.27,0,0,1,7.85,3.75l.4.25c4,1.58,6.81,5.71,8.47,9.52a50.83,50.83,0,0,1,2.79,8.8C160.52,45,160.59,45.16,160.65,45.34ZM111.46,64c0-6.11-2.55-10-6.45-11.81-4.69-2.15-9.4-4.06-14.71-3.82a5.61,5.61,0,0,1-1.73-.45c-2.31-.67-7.19.74-8.17,3.8-1.05,3.28-2.33,6.5-3.64,9.68-1.85,4.48-3.83,8.91-5.75,13.36-2.45,5.73-4.91,11.45-7.32,17.2a2.16,2.16,0,0,0,0,1.74c1.31,1.75,3.6,2.09,5.78,1.46,3.29-1,6.65-1.65,10-2.48,3.48-.88,7.34-1.13,10.33-2.86a114.1,114.1,0,0,0,14.09-10.26A20.74,20.74,0,0,0,111.46,64Z"/><path d="M105,52.16c3.9,1.78,6.48,5.7,6.45,11.81a20.74,20.74,0,0,1-7.63,15.56A114.1,114.1,0,0,1,89.74,89.79c-3,1.73-6.85,2-10.33,2.86-3.33.83-6.69,1.52-10,2.48-2.18.63-4.47.29-5.78-1.46a2.16,2.16,0,0,1,0-1.74c2.41-5.75,4.87-11.47,7.32-17.2,1.92-4.45,3.9-8.88,5.75-13.36,1.31-3.18,2.59-6.4,3.64-9.68,1-3.06,5.86-4.47,8.17-3.8a5.61,5.61,0,0,0,1.73.45C95.61,48.1,100.32,50,105,52.16Zm.34,16.7c1.43-2.74,1.23-5.42,1.22-8.18a2.29,2.29,0,0,0-1-1.65c-3.17-1.78-6.26-3.92-9.67-5-3-.94-6.35-.71-9.55-.81a2.71,2.71,0,0,0-2.12,1.14,44.69,44.69,0,0,0-2.44,5.69c-1.71,4.62-3.33,9.27-5.06,13.89s-3.61,9.36-5.42,14l.58.39c.5-.11,1-.25,1.51-.32a76.92,76.92,0,0,0,8.35-1.15A29,29,0,0,0,92,82.3c2.51-1.84,5.18-3.47,7.57-5.45C102.19,74.72,103.78,71.85,105.35,68.86Z"/></g></g></svg>